<svg id="Layer_1" data-name="Layer 1" xmlns="http://www.w3.org/2000/svg" viewBox="0 0 114.97 104.54"><defs><style>.cls-1{fill:#0069d2;}</style></defs><title>Vector Smart Object4</title><path class="cls-1" d="M18.81,124.9H66.48v-4.18H25v-0.29L40.41,100c14-17.86,22.9-33.41,22.9-54.57,0-15.26-7.63-25.06-22.61-25.06-13.1,0-23.18,7.92-23.18,21.89v5.33h4.18V41.81c0-10.22,7.49-17.28,18.43-17.28,13,0,18.43,8.78,18.58,20.3v1.58c0,17.86-8.35,34-21.89,51l-18,24.34v3.17Z" transform="translate(-17.52 -20.36)"/><path class="cls-1" d="M74,124.9h4.61l24.48-49.53,24.34,49.53h5L105.7,71.62l24.48-49.39h-4.46L103.25,67.88,81.36,22.23h-4.9l24,49.39Z" transform="translate(-17.52 -20.36)"/></svg>