<svg id="Layer_1" data-name="Layer 1" xmlns="http://www.w3.org/2000/svg" viewBox="0 0 66.25 116.64"><defs><style>.cls-1{fill:#0069d2;}</style></defs><title>Vector Smart Object4</title><path class="cls-1" d="M100.39,17.43H50a7.94,7.94,0,0,0-7.93,7.93V126.14A7.94,7.94,0,0,0,50,134.07h50.39a7.94,7.94,0,0,0,7.93-7.93V25.36A7.94,7.94,0,0,0,100.39,17.43ZM50,20.68h50.39a4.68,4.68,0,0,1,4.67,4.67v10.8H45.32V25.36A4.68,4.68,0,0,1,50,20.68Zm55.07,17.47V113H45.32V38.16h59.74Zm-4.67,92.66H50a4.68,4.68,0,0,1-4.67-4.67V115h59.74v11.15A4.68,4.68,0,0,1,100.39,130.82Z" transform="translate(-42.07 -17.43)"/><path class="cls-1" d="M67.63,29.39H82.75a1,1,0,0,0,0-2H67.63A1,1,0,0,0,67.63,29.39Z" transform="translate(-42.07 -17.43)"/><path class="cls-1" d="M63.27,29.39a1,1,0,0,0,1-1A1,1,0,0,0,64,27.68a1,1,0,0,0-1.42,0A1,1,0,0,0,63.27,29.39Z" transform="translate(-42.07 -17.43)"/><path class="cls-1" d="M88.67,62.09a12.16,12.16,0,0,0-1.33.07,15.75,15.75,0,0,0-28.77,6.61,8.9,8.9,0,0,0,.08,17.79h2.68V84H58.65a6.36,6.36,0,1,1,.9-12.66l1.38,0.2L61,70.18a13.21,13.21,0,0,1,24.61-6l0.45,0.77,0.87-.16a9.7,9.7,0,0,1,11.44,9.54A9.71,9.71,0,0,1,89.25,84l0.15,2.53A12.24,12.24,0,0,0,88.67,62.09Z" transform="translate(-42.07 -17.43)"/><polygon class="cls-1" points="32.95 62.3 34.74 60.51 27.75 53.52 20.76 60.51 22.55 62.3 26.48 58.38 26.48 69.29 29.02 69.29 29.02 58.38 32.95 62.3"/><polygon class="cls-1" points="40.05 73.72 40.05 62.81 37.52 62.81 37.52 73.72 33.59 69.79 31.79 71.58 38.78 78.58 45.77 71.58 43.98 69.79 40.05 73.72"/></svg>