<svg id="Layer_1" data-name="Layer 1" xmlns="http://www.w3.org/2000/svg" viewBox="0 0 131.31 113.45"><defs><style>.cls-1{fill:#0069d2;}</style></defs><title>Vector Smart Object4</title><path class="cls-1" d="M137.13,131.73l3.52-.06-0.81-47.94a11.32,11.32,0,0,0-11.31-11.31H21.46A11.31,11.31,0,0,0,10.16,83.7l-0.81,48,3.52,0.06,0.08-4.68H137.06ZM13,123.53l0.67-39.8a7.79,7.79,0,0,1,7.78-7.78H128.54a7.8,7.8,0,0,1,7.78,7.81L137,123.53H13Z" transform="translate(-9.34 -18.27)"/><path class="cls-1" d="M87.73,110.59c-3.1,0-5-1-7.54-3l-0.2-.18L67.74,94.86a8.72,8.72,0,0,0-5.47-2.5,7.22,7.22,0,0,0,0,14.44c2.17,0,4.16-1.11,6.87-3.82l2.68,2.68c-2.44,2.44-5.48,4.93-9.55,4.93a11,11,0,0,1,0-22,12.22,12.22,0,0,1,8.05,3.52l0.09,0.09,12.2,12.51c2.19,1.69,3.26,2.12,5.11,2.12a7.22,7.22,0,1,0,0-14.44c-2.68,0-4.61,1.45-7,4L78,93.75c2.34-2.51,5.21-5.18,9.7-5.18h0.07A11,11,0,0,1,87.73,110.59Z" transform="translate(-9.34 -18.27)"/><path class="cls-1" d="M74.89,46.33a20.28,20.28,0,0,0-15.7,7.44L61.91,56a16.77,16.77,0,0,1,26,0l2.72-2.23A20.28,20.28,0,0,0,74.89,46.33Z" transform="translate(-9.34 -18.27)"/><path class="cls-1" d="M74.89,32.3A34.28,34.28,0,0,0,48.35,44.88l2.72,2.23a30.77,30.77,0,0,1,47.65,0l2.72-2.23A34.28,34.28,0,0,0,74.89,32.3Z" transform="translate(-9.34 -18.27)"/><path class="cls-1" d="M74.89,18.27A48.29,48.29,0,0,0,37.5,36l2.72,2.23a44.78,44.78,0,0,1,69.33,0L112.28,36A48.29,48.29,0,0,0,74.89,18.27Z" transform="translate(-9.34 -18.27)"/></svg>