<?xml version="1.0" standalone="no"?><!DOCTYPE svg PUBLIC "-//W3C//DTD SVG 1.1//EN" "http://www.w3.org/Graphics/SVG/1.1/DTD/svg11.dtd" ><svg version="1.1" xmlns="http://www.w3.org/2000/svg"><defs><font horiz-adv-x="0" id="font"><font-face ascent="750" bbox="-170 -214 1060 1008" cap-height="713" descent="-250" font-family="Flama Semicondensed Semibold" font-stretch="normal" font-style="normal" font-weight="600" units-per-em="1000" x-height="528" /><missing-glyph d="M707 42V638H115V42ZM55 698H767V-18H55ZM195 158 380 343 195 528 235 568 420 383 605 568 645 528 460 343 645 158 605 118 420 303 235 118Z" horiz-adv-x="822" /><glyph glyph-name=".null" horiz-adv-x="0" /><glyph d="M390 280 311 575H308L228 280ZM230 714H404L611 0H467L420 171H198L152 0H20Z" glyph-name="A" horiz-adv-x="630" unicode="A" /><glyph d="M412 275V609H410L271 275ZM322 713H853V597H554V420H792V304H554V117H854V0H412V168L231 169L160 0H17Z" glyph-name="AE" horiz-adv-x="901" unicode="&#198;" /><glyph d="M412 275V609H410L271 275ZM322 713H853V597H554V420H792V304H554V117H854V0H412V168L231 169L160 0H17ZM526 924H656L539 769H440Z" glyph-name="AEacute" horiz-adv-x="901" unicode="&#508;" /><glyph d="M363 917H493L376 762H277ZM390 280 311 575H308L228 280ZM230 714H404L611 0H467L420 171H198L152 0H20Z" glyph-name="Aacute" horiz-adv-x="630" unicode="&#193;" /><glyph d="M318 763Q239 763 195.5 805.5Q152 848 149 921H238Q244 883 261 862Q278 841 321 841Q356 841 373 862Q390 883 393 921H478Q476 882 463 852Q450 822 428.5 802.5Q407 783 378.5 773Q350 763 318 763ZM390 280 311 575H308L228 280ZM230 714H404L611 0H467L420 171H198L152 0H20Z" glyph-name="Abreve" horiz-adv-x="630" unicode="&#258;" /><glyph d="M265 923H360L466 763H363L310 852L256 763H158ZM390 280 311 575H308L228 280ZM230 714H404L611 0H467L420 171H198L152 0H20Z" glyph-name="Acircumflex" horiz-adv-x="630" unicode="&#194;" /><glyph d="M357 909H468V774H357ZM173 909H284V774H173ZM390 280 311 575H308L228 280ZM230 714H404L611 0H467L420 171H198L152 0H20Z" glyph-name="Adieresis" horiz-adv-x="630" unicode="&#196;" /><glyph d="M142 916H273L359 761H261ZM390 280 311 575H308L228 280ZM230 714H404L611 0H467L420 171H198L152 0H20Z" glyph-name="Agrave" horiz-adv-x="630" unicode="&#192;" /><glyph d="M159 871H469V779H159ZM390 280 311 575H308L228 280ZM230 714H404L611 0H467L420 171H198L152 0H20Z" glyph-name="Amacron" horiz-adv-x="630" unicode="&#256;" /><glyph d="M390 280 311 575H308L228 280ZM537 -207Q516 -207 496.5 -201.5Q477 -196 462 -184Q447 -172 438 -154Q429 -136 429 -111Q429 -76 445 -48Q461 -20 486 0H467L420 171H198L152 0H20L230 714H404L611 0H580Q547 -13 527.5 -36.5Q508 -60 508 -90Q508 -114 520.5 -126Q533 -138 556 -138Q569 -138 584.5 -132.5Q600 -127 611 -119L643 -177Q626 -190 599 -198.5Q572 -207 537 -207Z" glyph-name="Aogonek" horiz-adv-x="630" unicode="&#260;" /><glyph d="M314 791Q336 791 348 805Q360 819 360 843Q360 866 348.5 880.5Q337 895 313 895Q291 895 280.5 880Q270 865 270 842Q270 819 282 805Q294 791 314 791ZM315 745Q271 745 244 772Q217 799 217 841Q217 884 245.5 912.5Q274 941 314 941Q359 941 386 916Q413 891 413 846Q413 825 405.5 806.5Q398 788 384.5 774.5Q371 761 353.5 753Q336 745 315 745ZM390 280 311 575H308L228 280ZM230 714H404L611 0H467L420 171H198L152 0H20Z" glyph-name="Aring" horiz-adv-x="630" unicode="&#197;" /><glyph d="M314 786Q335 786 348 799.5Q361 813 361 838Q361 863 348.5 876Q336 889 316 889Q294 889 282 874Q270 859 270 836Q270 810 282 798Q294 786 314 786ZM315 745Q289 745 270.5 752.5Q252 760 240 773Q228 786 222 802Q216 818 216 835Q216 879 249 911L343 1008L416 972L351 922Q383 914 398.5 891.5Q414 869 414 840Q414 798 386.5 771.5Q359 745 315 745ZM390 280 311 575H308L228 280ZM230 714H404L611 0H467L420 171H198L152 0H20Z" glyph-name="Aringacute" horiz-adv-x="630" unicode="&#506;" /><glyph d="M130 772Q133 796 141 818.5Q149 841 162.5 858.5Q176 876 195 886Q214 896 238 896Q257 896 276.5 890.5Q296 885 315 878Q334 871 353 865.5Q372 860 392 860Q412 860 421.5 873.5Q431 887 439 908L497 893Q494 870 486.5 848Q479 826 466 809.5Q453 793 434.5 783Q416 773 392 773Q372 773 353 778.5Q334 784 315 790.5Q296 797 277 802.5Q258 808 240 808Q219 808 210.5 795.5Q202 783 195 760ZM390 280 311 575H308L228 280ZM230 714H404L611 0H467L420 171H198L152 0H20Z" glyph-name="Atilde" horiz-adv-x="630" unicode="&#195;" /><glyph d="M310 416Q353 416 382 440.5Q411 465 411 515Q411 560 385.5 582Q360 604 319 604H208V416ZM321 111Q365 111 390.5 137.5Q416 164 416 213Q416 262 386.5 284Q357 306 313 306H208V111ZM66 713H362Q453 713 503 665Q553 617 553 536Q553 473 519.5 426.5Q486 380 431 366V364Q462 358 486 342Q510 326 526.5 303.5Q543 281 552 253.5Q561 226 561 196Q561 150 547 113.5Q533 77 507 52Q481 27 445 13.5Q409 0 366 0H66Z" glyph-name="B" horiz-adv-x="608" unicode="B" /><glyph d="M311 -12Q258 -12 211 1.5Q164 15 128.5 42.5Q93 70 72 113Q51 156 51 216V497Q51 551 71.5 593.5Q92 636 127 665.5Q162 695 209.5 710Q257 725 310 725Q361 725 405 711.5Q449 698 482 672Q515 646 533.5 607.5Q552 569 552 520V472H423V507Q423 554 392.5 581.5Q362 609 310 609Q255 609 225 579Q195 549 195 496V222Q195 162 226.5 133Q258 104 312 104Q362 104 392.5 130.5Q423 157 423 203V242H552V194Q552 144 533.5 105.5Q515 67 482.5 41Q450 15 406 1.5Q362 -12 311 -12Z" glyph-name="C" horiz-adv-x="599" unicode="C" /><glyph d="M311 -12Q258 -12 211 1.5Q164 15 128.5 42.5Q93 70 72 113Q51 156 51 216V497Q51 551 71.5 593.5Q92 636 127 665.5Q162 695 209.5 710Q257 725 310 725Q361 725 405 711.5Q449 698 482 672Q515 646 533.5 607.5Q552 569 552 520V472H423V507Q423 554 392.5 581.5Q362 609 310 609Q255 609 225 579Q195 549 195 496V222Q195 162 226.5 133Q258 104 312 104Q362 104 392.5 130.5Q423 157 423 203V242H552V194Q552 144 533.5 105.5Q515 67 482.5 41Q450 15 406 1.5Q362 -12 311 -12ZM340 917H470L353 762H254Z" glyph-name="Cacute" horiz-adv-x="599" unicode="&#262;" /><glyph d="M311 -12Q258 -12 211 1.5Q164 15 128.5 42.5Q93 70 72 113Q51 156 51 216V497Q51 551 71.5 593.5Q92 636 127 665.5Q162 695 209.5 710Q257 725 310 725Q361 725 405 711.5Q449 698 482 672Q515 646 533.5 607.5Q552 569 552 520V472H423V507Q423 554 392.5 581.5Q362 609 310 609Q255 609 225 579Q195 549 195 496V222Q195 162 226.5 133Q258 104 312 104Q362 104 392.5 130.5Q423 157 423 203V242H552V194Q552 144 533.5 105.5Q515 67 482.5 41Q450 15 406 1.5Q362 -12 311 -12ZM144 928H247L300 838L354 928H455L344 768H249Z" glyph-name="Ccaron" horiz-adv-x="599" unicode="&#268;" /><glyph d="M308 -208Q288 -208 262.5 -205.5Q237 -203 212 -196V-139Q235 -145 260 -148.5Q285 -152 303 -152Q346 -152 346 -125Q346 -111 332 -105Q318 -99 299 -98L257 -95L279 -11Q231 -7 189.5 8Q148 23 117.5 51Q87 79 69 120Q51 161 51 216V497Q51 551 71.5 593.5Q92 636 127 665.5Q162 695 209.5 710Q257 725 310 725Q361 725 405 711.5Q449 698 482 672Q515 646 533.5 607.5Q552 569 552 520V472H423V507Q423 554 392.5 581.5Q362 609 310 609Q255 609 225 579Q195 549 195 496V222Q195 162 226.5 133Q258 104 312 104Q362 104 392.5 130.5Q423 157 423 203V242H552V194Q552 146 535.5 109.5Q519 73 489.5 47Q460 21 420 6.5Q380 -8 334 -11L323 -53Q341 -53 361 -56.5Q381 -60 397.5 -67.5Q414 -75 424.5 -88Q435 -101 435 -122Q435 -142 425 -157.5Q415 -173 397.5 -184.5Q380 -196 357 -202Q334 -208 308 -208Z" glyph-name="Ccedilla" horiz-adv-x="599" unicode="&#199;" /><glyph d="M311 -12Q258 -12 211 1.5Q164 15 128.5 42.5Q93 70 72 113Q51 156 51 216V497Q51 551 71.5 593.5Q92 636 127 665.5Q162 695 209.5 710Q257 725 310 725Q361 725 405 711.5Q449 698 482 672Q515 646 533.5 607.5Q552 569 552 520V472H423V507Q423 554 392.5 581.5Q362 609 310 609Q255 609 225 579Q195 549 195 496V222Q195 162 226.5 133Q258 104 312 104Q362 104 392.5 130.5Q423 157 423 203V242H552V194Q552 144 533.5 105.5Q515 67 482.5 41Q450 15 406 1.5Q362 -12 311 -12ZM254 923H349L455 763H352L299 852L245 763H147Z" glyph-name="Ccircumflex" horiz-adv-x="599" unicode="&#264;" /><glyph d="M241 909H359V773H241ZM311 -12Q258 -12 211 1.5Q164 15 128.5 42.5Q93 70 72 113Q51 156 51 216V497Q51 551 71.5 593.5Q92 636 127 665.5Q162 695 209.5 710Q257 725 310 725Q361 725 405 711.5Q449 698 482 672Q515 646 533.5 607.5Q552 569 552 520V472H423V507Q423 554 392.5 581.5Q362 609 310 609Q255 609 225 579Q195 549 195 496V222Q195 162 226.5 133Q258 104 312 104Q362 104 392.5 130.5Q423 157 423 203V242H552V194Q552 144 533.5 105.5Q515 67 482.5 41Q450 15 406 1.5Q362 -12 311 -12Z" glyph-name="Cdotaccent" horiz-adv-x="599" unicode="&#266;" /><glyph d="M312 115Q342 115 363.5 125Q385 135 398.5 150.5Q412 166 418.5 186Q425 206 425 226V488Q425 536 396.5 567Q368 598 311 598H209V115ZM66 713H327Q378 713 422 700.5Q466 688 499 662.5Q532 637 550.5 597.5Q569 558 569 504V222Q569 165 550.5 123Q532 81 499 53.5Q466 26 422 13Q378 0 327 0H66Z" glyph-name="D" horiz-adv-x="619" unicode="D" /><glyph glyph-name="DEL" horiz-adv-x="0" /><glyph d="M312 115Q342 115 363.5 125Q385 135 398.5 150.5Q412 166 418.5 186Q425 206 425 226V488Q425 536 396.5 567Q368 598 311 598H209V115ZM66 713H327Q378 713 422 700.5Q466 688 499 662.5Q532 637 550.5 597.5Q569 558 569 504V222Q569 165 550.5 123Q532 81 499 53.5Q466 26 422 13Q378 0 327 0H66ZM149 928H252L305 838L359 928H460L349 768H254Z" glyph-name="Dcaron" horiz-adv-x="619" unicode="&#270;" /><glyph d="M330 115Q360 115 381.5 125Q403 135 416.5 150.5Q430 166 436.5 186Q443 206 443 226V488Q443 536 414.5 567Q386 598 329 598H227V409H356V315H227V115ZM32 409H84V713H345Q396 713 440 700.5Q484 688 517 662.5Q550 637 568.5 597.5Q587 558 587 504V222Q587 165 568.5 123Q550 81 517 53.5Q484 26 440 13Q396 0 345 0H84V315H32Z" glyph-name="Dcroat" horiz-adv-x="637" unicode="&#272;" /><glyph d="M460 118 319 583H315L179 118ZM30 62 237 714H406L614 63V0H30Z" glyph-name="Delta" horiz-adv-x="631" unicode="&#8710;" /><glyph d="M66 713H508V596H209V422H447V305H209V118H509V0H66Z" glyph-name="E" horiz-adv-x="556" unicode="E" /><glyph d="M66 713H508V596H209V422H447V305H209V118H509V0H66ZM316 917H446L329 762H230Z" glyph-name="Eacute" horiz-adv-x="556" unicode="&#201;" /><glyph d="M299 763Q220 763 176.5 805.5Q133 848 130 921H219Q225 883 242 862Q259 841 302 841Q337 841 354 862Q371 883 374 921H459Q457 882 444 852Q431 822 409.5 802.5Q388 783 359.5 773Q331 763 299 763ZM66 713H508V596H209V422H447V305H209V118H509V0H66Z" glyph-name="Ebreve" horiz-adv-x="556" unicode="&#276;" /><glyph d="M66 713H508V596H209V422H447V305H209V118H509V0H66ZM139 928H242L295 838L349 928H450L339 768H244Z" glyph-name="Ecaron" horiz-adv-x="556" unicode="&#282;" /><glyph d="M66 713H508V596H209V422H447V305H209V118H509V0H66ZM246 923H341L447 763H344L291 852L237 763H139Z" glyph-name="Ecircumflex" horiz-adv-x="556" unicode="&#202;" /><glyph d="M66 713H508V596H209V422H447V305H209V118H509V0H66ZM335 908H446V773H335ZM151 908H262V773H151Z" glyph-name="Edieresis" horiz-adv-x="556" unicode="&#203;" /><glyph d="M238 909H356V773H238ZM66 713H508V596H209V422H447V305H209V118H509V0H66Z" glyph-name="Edotaccent" horiz-adv-x="556" unicode="&#278;" /><glyph d="M141 917H272L358 762H260ZM66 713H508V596H209V422H447V305H209V118H509V0H66Z" glyph-name="Egrave" horiz-adv-x="556" unicode="&#200;" /><glyph d="M129 871H439V779H129ZM66 713H508V596H209V422H447V305H209V118H509V0H66Z" glyph-name="Emacron" horiz-adv-x="556" unicode="&#274;" /><glyph d="M441 -188Q421 -188 408 -187Q395 -186 380 -183V-75Q384 -76 392.5 -76.5Q401 -77 407 -77Q436 -77 443.5 -61Q451 -45 451 -20V21L195 467H193V0H66V713H207L453 282H455V713H583V-44Q583 -117 543.5 -152.5Q504 -188 441 -188Z" glyph-name="Eng" horiz-adv-x="647" unicode="&#330;" /><glyph d="M66 713H508V596H209V422H447V305H209V118H509V0H468Q435 -13 415.5 -36.5Q396 -60 396 -90Q396 -114 408.5 -126Q421 -138 444 -138Q457 -138 472.5 -132.5Q488 -127 499 -119L531 -177Q514 -190 487 -198.5Q460 -207 425 -207Q404 -207 384.5 -201.5Q365 -196 350 -184Q335 -172 326 -154Q317 -136 317 -111Q317 -76 333 -48Q349 -20 374 0H66Z" glyph-name="Eogonek" horiz-adv-x="556" unicode="&#280;" /><glyph d="M330 115Q360 115 381.5 125Q403 135 416.5 150.5Q430 166 436.5 186Q443 206 443 226V488Q443 536 414.5 567Q386 598 329 598H227V409H356V315H227V115ZM32 409H84V713H345Q396 713 440 700.5Q484 688 517 662.5Q550 637 568.5 597.5Q587 558 587 504V222Q587 165 568.5 123Q550 81 517 53.5Q484 26 440 13Q396 0 345 0H84V315H32Z" glyph-name="Eth" horiz-adv-x="637" unicode="&#208;" /><glyph d="M368 -12Q317 -12 272 1Q227 14 192.5 41Q158 68 138 108.5Q118 149 118 205V248H46V325H118V389H46V464H118V505Q118 555 138 596Q158 637 192 665.5Q226 694 271.5 709.5Q317 725 368 725Q416 725 459.5 712.5Q503 700 536 675Q569 650 588.5 612.5Q608 575 608 526V498H480V523Q480 569 450.5 595.5Q421 622 369 622Q344 622 324 613.5Q304 605 290.5 590Q277 575 270 555Q263 535 263 513V464H445V389H263V325H445V248H263V203Q263 150 292.5 120.5Q322 91 375 91Q427 91 453.5 118.5Q480 146 480 192V210H608V189Q608 139 589 101Q570 63 537 38Q504 13 460.5 0.5Q417 -12 368 -12Z" glyph-name="Euro" horiz-adv-x="653" unicode="&#8364;" /><glyph d="M66 713H508V598H209V416H446V301H209V0H66Z" glyph-name="F" horiz-adv-x="541" unicode="F" /><glyph d="M310 -12Q257 -12 210 1.5Q163 15 128 42.5Q93 70 72 113Q51 156 51 216V497Q51 552 71.5 594.5Q92 637 127 666Q162 695 209.5 710Q257 725 310 725Q359 725 403 713Q447 701 481 676Q515 651 535 614Q555 577 555 528V481H424V512Q424 557 393 584.5Q362 612 313 612Q257 612 225.5 580Q194 548 194 495V220Q194 166 224.5 134Q255 102 312 102Q372 102 397 129Q422 156 422 202V284H303V387H556V191Q556 141 536.5 103Q517 65 483.5 39.5Q450 14 405 1Q360 -12 310 -12Z" glyph-name="G" horiz-adv-x="608" unicode="G" /><glyph d="M308 765Q229 765 185.5 807.5Q142 850 139 923H228Q234 885 251 864Q268 843 311 843Q346 843 363 864Q380 885 383 923H468Q466 884 453 854Q440 824 418.5 804.5Q397 785 368.5 775Q340 765 308 765ZM310 -12Q257 -12 210 1.5Q163 15 128 42.5Q93 70 72 113Q51 156 51 216V497Q51 552 71.5 594.5Q92 637 127 666Q162 695 209.5 710Q257 725 310 725Q359 725 403 713Q447 701 481 676Q515 651 535 614Q555 577 555 528V481H424V512Q424 557 393 584.5Q362 612 313 612Q257 612 225.5 580Q194 548 194 495V220Q194 166 224.5 134Q255 102 312 102Q372 102 397 129Q422 156 422 202V284H303V387H556V191Q556 141 536.5 103Q517 65 483.5 39.5Q450 14 405 1Q360 -12 310 -12Z" glyph-name="Gbreve" horiz-adv-x="608" unicode="&#286;" /><glyph d="M310 -12Q257 -12 210 1.5Q163 15 128 42.5Q93 70 72 113Q51 156 51 216V497Q51 552 71.5 594.5Q92 637 127 666Q162 695 209.5 710Q257 725 310 725Q359 725 403 713Q447 701 481 676Q515 651 535 614Q555 577 555 528V481H424V512Q424 557 393 584.5Q362 612 313 612Q257 612 225.5 580Q194 548 194 495V220Q194 166 224.5 134Q255 102 312 102Q372 102 397 129Q422 156 422 202V284H303V387H556V191Q556 141 536.5 103Q517 65 483.5 39.5Q450 14 405 1Q360 -12 310 -12ZM256 923H351L457 763H354L301 852L247 763H149Z" glyph-name="Gcircumflex" horiz-adv-x="608" unicode="&#284;" /><glyph d="M310 -12Q257 -12 210 1.5Q163 15 128 42.5Q93 70 72 113Q51 156 51 216V497Q51 552 71.5 594.5Q92 637 127 666Q162 695 209.5 710Q257 725 310 725Q359 725 403 713Q447 701 481 676Q515 651 535 614Q555 577 555 528V481H424V512Q424 557 393 584.5Q362 612 313 612Q257 612 225.5 580Q194 548 194 495V220Q194 166 224.5 134Q255 102 312 102Q372 102 397 129Q422 156 422 202V284H303V387H556V191Q556 141 536.5 103Q517 65 483.5 39.5Q450 14 405 1Q360 -12 310 -12ZM263 -35H374L343 -206H254Z" glyph-name="Gcommaaccent" horiz-adv-x="608" unicode="&#290;" /><glyph d="M246 911H364V775H246ZM310 -12Q257 -12 210 1.5Q163 15 128 42.5Q93 70 72 113Q51 156 51 216V497Q51 552 71.5 594.5Q92 637 127 666Q162 695 209.5 710Q257 725 310 725Q359 725 403 713Q447 701 481 676Q515 651 535 614Q555 577 555 528V481H424V512Q424 557 393 584.5Q362 612 313 612Q257 612 225.5 580Q194 548 194 495V220Q194 166 224.5 134Q255 102 312 102Q372 102 397 129Q422 156 422 202V284H303V387H556V191Q556 141 536.5 103Q517 65 483.5 39.5Q450 14 405 1Q360 -12 310 -12Z" glyph-name="Gdotaccent" horiz-adv-x="608" unicode="&#288;" /><glyph d="M66 713H209V427H435V713H578V0H435V302H209V0H66Z" glyph-name="H" horiz-adv-x="643" unicode="H" /><glyph d="M446 427V543H220V427ZM19 612H77V713H220V612H446V713H589V612H647V543H589V0H446V302H220V0H77V543H19Z" glyph-name="Hbar" horiz-adv-x="666" unicode="&#294;" /><glyph d="M66 713H209V427H435V713H578V0H435V302H209V0H66ZM274 925H369L475 765H372L319 854L265 765H167Z" glyph-name="Hcircumflex" horiz-adv-x="643" unicode="&#292;" /><glyph d="M66 713H209V0H66Z" glyph-name="I" horiz-adv-x="274" unicode="I" /><glyph d="M30 713H397V598H286V116H397V0H30V116H142V598H30Z" glyph-name="I.alt" horiz-adv-x="428" unicode="&#58504;" /><glyph d="M515 -12Q459 -12 414.5 0Q370 12 339 37.5Q308 63 291.5 103.5Q275 144 275 200V259H412V205Q412 185 416.5 166.5Q421 148 432.5 134Q444 120 463 111Q482 102 512 102Q540 102 559 111Q578 120 589 134.5Q600 149 605 167Q610 185 610 204V713H752V218Q752 166 736.5 123.5Q721 81 691 51Q661 21 616.5 4.5Q572 -12 515 -12ZM66 713H209V0H66Z" glyph-name="IJ" horiz-adv-x="813" unicode="&#306;" /><glyph d="M642 -12Q586 -12 541.5 0Q497 12 466 37.5Q435 63 418.5 103.5Q402 144 402 200V259H539V205Q539 185 543.5 166.5Q548 148 559.5 134Q571 120 590 111Q609 102 639 102Q667 102 686 111Q705 120 716 134.5Q727 149 732 167Q737 185 737 204V713H879V218Q879 166 863.5 123.5Q848 81 818 51Q788 21 743.5 4.5Q699 -12 642 -12ZM30 713H397V598H286V116H397V0H30V116H142V598H30Z" glyph-name="IJ.alt" horiz-adv-x="947" /><glyph d="M181 917H311L194 762H95ZM65 713H208V0H65Z" glyph-name="Iacute" horiz-adv-x="270" unicode="&#205;" /><glyph d="M247 916H377L260 761H161ZM28 713H395V598H284V116H395V0H28V116H140V598H28Z" glyph-name="Iacute.alt" horiz-adv-x="422" unicode="&#57651;" /><glyph d="M143 763Q64 763 20.5 805.5Q-23 848 -26 921H63Q69 883 86 862Q103 841 146 841Q181 841 198 862Q215 883 218 921H303Q301 882 288 852Q275 822 253.5 802.5Q232 783 203.5 773Q175 763 143 763ZM66 713H209V0H66Z" glyph-name="Ibreve" horiz-adv-x="274" unicode="&#300;" /><glyph d="M212 762Q133 762 89.5 804.5Q46 847 43 920H132Q138 882 155 861Q172 840 215 840Q250 840 267 861Q284 882 287 920H372Q370 881 357 851Q344 821 322.5 801.5Q301 782 272.5 772Q244 762 212 762ZM28 713H395V598H284V116H395V0H28V116H140V598H28Z" glyph-name="Ibreve.alt" horiz-adv-x="422" unicode="&#57657;" /><glyph d="M92 923H187L293 763H190L137 852L83 763H-15ZM65 713H208V0H65Z" glyph-name="Icircumflex" horiz-adv-x="270" unicode="&#206;" /><glyph d="M164 922H259L365 762H262L209 851L155 762H57ZM28 713H395V598H284V116H395V0H28V116H140V598H28Z" glyph-name="Icircumflex.alt" horiz-adv-x="422" unicode="&#57652;" /><glyph d="M179 908H290V773H179ZM-5 908H106V773H-5ZM65 713H208V0H65Z" glyph-name="Idieresis" horiz-adv-x="270" unicode="&#207;" /><glyph d="M248 907H359V772H248ZM64 907H175V772H64ZM28 713H395V598H284V116H395V0H28V116H140V598H28Z" glyph-name="Idieresis.alt" horiz-adv-x="422" unicode="&#57653;" /><glyph d="M77 909H195V773H77ZM66 713H209V0H66Z" glyph-name="Idotaccent" horiz-adv-x="274" unicode="&#304;" /><glyph d="M151 908H269V772H151ZM28 713H395V598H284V116H395V0H28V116H140V598H28Z" glyph-name="Idotaccent.alt" horiz-adv-x="422" unicode="&#57660;" /><glyph d="M-39 917H92L178 762H80ZM65 713H208V0H65Z" glyph-name="Igrave" horiz-adv-x="270" unicode="&#204;" /><glyph d="M55 916H186L272 761H174ZM28 713H395V598H284V116H395V0H28V116H140V598H28Z" glyph-name="Igrave.alt" horiz-adv-x="422" unicode="&#57650;" /><glyph d="M-17 871H293V779H-17ZM66 713H209V0H66Z" glyph-name="Imacron" horiz-adv-x="274" unicode="&#298;" /><glyph d="M55 870H365V778H55ZM28 713H395V598H284V116H395V0H28V116H140V598H28Z" glyph-name="Imacron.alt" horiz-adv-x="422" unicode="&#57656;" /><glyph d="M66 713H209V0H184Q157 -13 141.5 -36Q126 -59 126 -88Q126 -111 139 -122.5Q152 -134 175 -134Q192 -134 212 -122L239 -180Q202 -203 150 -203Q131 -203 113 -197Q95 -191 80.5 -179Q66 -167 57 -148.5Q48 -130 48 -105Q48 -70 63 -44Q78 -18 99 0H66Z" glyph-name="Iogonek" horiz-adv-x="274" unicode="&#302;" /><glyph d="M313 -207Q292 -207 272.5 -201.5Q253 -196 238 -184Q223 -172 214 -154Q205 -136 205 -111Q205 -76 221 -48Q237 -20 262 0H28V116H140V598H28V713H395V598H284V116H395V0H356Q323 -13 303.5 -36.5Q284 -60 284 -90Q284 -114 296.5 -126Q309 -138 332 -138Q345 -138 360.5 -132.5Q376 -127 387 -119L419 -177Q402 -190 375 -198.5Q348 -207 313 -207Z" glyph-name="Iogonek.alt" horiz-adv-x="422" unicode="&#57662;" /><glyph d="M-46 772Q-43 796 -35 818.5Q-27 841 -13.5 858.5Q0 876 19 886Q38 896 62 896Q81 896 100.5 890.5Q120 885 139 878Q158 871 177 865.5Q196 860 216 860Q236 860 245.5 873.5Q255 887 263 908L321 893Q318 870 310.5 848Q303 826 290 809.5Q277 793 258.5 783Q240 773 216 773Q196 773 177 778.5Q158 784 139 790.5Q120 797 101 802.5Q82 808 64 808Q43 808 34.5 795.5Q26 783 19 760ZM66 713H209V0H66Z" glyph-name="Itilde" horiz-adv-x="274" unicode="&#296;" /><glyph d="M29 771Q32 795 40 817.5Q48 840 61.5 857.5Q75 875 94 885Q113 895 137 895Q156 895 175.5 889.5Q195 884 214 877Q233 870 252 864.5Q271 859 291 859Q311 859 320.5 872.5Q330 886 338 907L396 892Q393 869 385.5 847Q378 825 365 808.5Q352 792 333.5 782Q315 772 291 772Q271 772 252 777.5Q233 783 214 789.5Q195 796 176 801.5Q157 807 139 807Q118 807 109.5 794.5Q101 782 94 759ZM28 713H395V598H284V116H395V0H28V116H140V598H28Z" glyph-name="Itilde.alt" horiz-adv-x="422" unicode="&#57654;" /><glyph d="M266 -12Q210 -12 165.5 0Q121 12 90 37.5Q59 63 42.5 103.5Q26 144 26 200V259H163V205Q163 185 167.5 166.5Q172 148 183.5 134Q195 120 214 111Q233 102 263 102Q291 102 310 111Q329 120 340 134.5Q351 149 356 167Q361 185 361 204V713H503V218Q503 166 487.5 123.5Q472 81 442 51Q412 21 367.5 4.5Q323 -12 266 -12Z" glyph-name="J" horiz-adv-x="563" unicode="J" /><glyph d="M266 -12Q210 -12 165.5 0Q121 12 90 37.5Q59 63 42.5 103.5Q26 144 26 200V259H163V205Q163 185 167.5 166.5Q172 148 183.5 134Q195 120 214 111Q233 102 263 102Q291 102 310 111Q329 120 340 134.5Q351 149 356 167Q361 185 361 204V713H503V218Q503 166 487.5 123.5Q472 81 442 51Q412 21 367.5 4.5Q323 -12 266 -12ZM366 923H461L567 763H464L411 852L357 763H259Z" glyph-name="Jcircumflex" horiz-adv-x="563" unicode="&#308;" /><glyph d="M66 713H209V374L443 713H589L393 434L586 0H430L288 325L209 216V0H66Z" glyph-name="K" horiz-adv-x="614" unicode="K" /><glyph d="M66 713H209V374L443 713H589L393 434L586 0H430L288 325L209 216V0H66ZM255 -35H366L335 -206H246Z" glyph-name="Kcommaaccent" horiz-adv-x="614" unicode="&#310;" /><glyph d="M66 713H209V118H509V0H66Z" glyph-name="L" horiz-adv-x="546" unicode="L" /><glyph glyph-name="LF" horiz-adv-x="15" /><glyph d="M66 713H209V118H509V0H66ZM178 917H308L191 762H92Z" glyph-name="Lacute" horiz-adv-x="546" unicode="&#313;" /><glyph d="M66 713H209V118H509V0H66ZM287 714H398L368 521H278Z" glyph-name="Lcaron" horiz-adv-x="546" unicode="&#317;" /><glyph d="M66 713H209V118H509V0H66ZM225 -35H336L305 -206H216Z" glyph-name="Lcommaaccent" horiz-adv-x="546" unicode="&#315;" /><glyph d="M66 713H209V118H509V0H66Z" glyph-name="Ldot" horiz-adv-x="546" unicode="&#319;" /><glyph d="M32 317 81 350V713H224V448L317 511V415L224 352V118H524V0H81V254L32 221Z" glyph-name="Lslash" horiz-adv-x="562" unicode="&#321;" /><glyph d="M66 713H249L377 390H380L508 713H679V0H554V526H552L421 185H326L194 525H191V0H66Z" glyph-name="M" horiz-adv-x="745" unicode="M" /><glyph d="M66 713H207L453 282H455V713H583V0H463L195 467H193V0H66Z" glyph-name="N" horiz-adv-x="647" unicode="N" /><glyph d="M66 713H207L453 282H455V713H583V0H463L195 467H193V0H66ZM363 917H493L376 762H277Z" glyph-name="Nacute" horiz-adv-x="647" unicode="&#323;" /><glyph d="M66 713H207L453 282H455V713H583V0H463L195 467H193V0H66ZM167 928H270L323 838L377 928H478L367 768H272Z" glyph-name="Ncaron" horiz-adv-x="647" unicode="&#327;" /><glyph d="M66 713H207L453 282H455V713H583V0H463L195 467H193V0H66ZM276 -35H387L356 -206H267Z" glyph-name="Ncommaaccent" horiz-adv-x="647" unicode="&#325;" /><glyph d="M152 772Q155 796 163 818.5Q171 841 184.5 858.5Q198 876 217 886Q236 896 260 896Q279 896 298.5 890.5Q318 885 337 878Q356 871 375 865.5Q394 860 414 860Q434 860 443.5 873.5Q453 887 461 908L519 893Q516 870 508.5 848Q501 826 488 809.5Q475 793 456.5 783Q438 773 414 773Q394 773 375 778.5Q356 784 337 790.5Q318 797 299 802.5Q280 808 262 808Q241 808 232.5 795.5Q224 783 217 760ZM66 713H207L453 282H455V713H583V0H463L195 467H193V0H66Z" glyph-name="Ntilde" horiz-adv-x="647" unicode="&#209;" /><glyph d="M313 106Q368 106 399 138Q430 170 430 224V494Q430 549 397 578.5Q364 608 310 608Q253 608 224 576Q195 544 195 488V225Q195 169 225.5 137.5Q256 106 313 106ZM312 -12Q259 -12 211.5 1Q164 14 128.5 42Q93 70 72 114.5Q51 159 51 222V485Q51 545 71.5 590Q92 635 127 665Q162 695 209.5 710Q257 725 311 725Q364 725 411.5 712Q459 699 495 670.5Q531 642 552.5 597.5Q574 553 574 491V228Q574 166 553 120.5Q532 75 496 45.5Q460 16 412.5 2Q365 -12 312 -12Z" glyph-name="O" horiz-adv-x="624" unicode="O" /><glyph d="M313 106Q368 106 399 138Q430 170 430 224V496Q430 551 397 579.5Q364 608 310 608Q253 608 224 575.5Q195 543 195 487V225Q195 170 225.5 138Q256 106 313 106ZM296 -11Q243 -11 198 2Q153 15 120.5 43Q88 71 69.5 115.5Q51 160 51 223V485Q51 544 69 589Q87 634 119.5 664Q152 694 197 709Q242 724 296 724Q337 724 373 710Q409 696 430 670V713H873V596H572V420H810V304H572V118H873V0H430V46Q409 20 373.5 4.5Q338 -11 296 -11Z" glyph-name="OE" horiz-adv-x="920" unicode="&#338;" /><glyph d="M313 106Q368 106 399 138Q430 170 430 224V494Q430 549 397 578.5Q364 608 310 608Q253 608 224 576Q195 544 195 488V225Q195 169 225.5 137.5Q256 106 313 106ZM312 -12Q259 -12 211.5 1Q164 14 128.5 42Q93 70 72 114.5Q51 159 51 222V485Q51 545 71.5 590Q92 635 127 665Q162 695 209.5 710Q257 725 311 725Q364 725 411.5 712Q459 699 495 670.5Q531 642 552.5 597.5Q574 553 574 491V228Q574 166 553 120.5Q532 75 496 45.5Q460 16 412.5 2Q365 -12 312 -12ZM340 917H470L353 762H254Z" glyph-name="Oacute" horiz-adv-x="624" unicode="&#211;" /><glyph d="M316 763Q237 763 193.5 805.5Q150 848 147 921H236Q242 883 259 862Q276 841 319 841Q354 841 371 862Q388 883 391 921H476Q474 882 461 852Q448 822 426.5 802.5Q405 783 376.5 773Q348 763 316 763ZM313 106Q368 106 399 138Q430 170 430 224V494Q430 549 397 578.5Q364 608 310 608Q253 608 224 576Q195 544 195 488V225Q195 169 225.5 137.5Q256 106 313 106ZM312 -12Q259 -12 211.5 1Q164 14 128.5 42Q93 70 72 114.5Q51 159 51 222V485Q51 545 71.5 590Q92 635 127 665Q162 695 209.5 710Q257 725 311 725Q364 725 411.5 712Q459 699 495 670.5Q531 642 552.5 597.5Q574 553 574 491V228Q574 166 553 120.5Q532 75 496 45.5Q460 16 412.5 2Q365 -12 312 -12Z" glyph-name="Obreve" horiz-adv-x="624" unicode="&#334;" /><glyph d="M313 106Q368 106 399 138Q430 170 430 224V494Q430 549 397 578.5Q364 608 310 608Q253 608 224 576Q195 544 195 488V225Q195 169 225.5 137.5Q256 106 313 106ZM312 -12Q259 -12 211.5 1Q164 14 128.5 42Q93 70 72 114.5Q51 159 51 222V485Q51 545 71.5 590Q92 635 127 665Q162 695 209.5 710Q257 725 311 725Q364 725 411.5 712Q459 699 495 670.5Q531 642 552.5 597.5Q574 553 574 491V228Q574 166 553 120.5Q532 75 496 45.5Q460 16 412.5 2Q365 -12 312 -12ZM263 923H358L464 763H361L308 852L254 763H156Z" glyph-name="Ocircumflex" horiz-adv-x="624" unicode="&#212;" /><glyph d="M313 106Q368 106 399 138Q430 170 430 224V494Q430 549 397 578.5Q364 608 310 608Q253 608 224 576Q195 544 195 488V225Q195 169 225.5 137.5Q256 106 313 106ZM312 -12Q259 -12 211.5 1Q164 14 128.5 42Q93 70 72 114.5Q51 159 51 222V485Q51 545 71.5 590Q92 635 127 665Q162 695 209.5 710Q257 725 311 725Q364 725 411.5 712Q459 699 495 670.5Q531 642 552.5 597.5Q574 553 574 491V228Q574 166 553 120.5Q532 75 496 45.5Q460 16 412.5 2Q365 -12 312 -12ZM352 908H463V773H352ZM168 908H279V773H168Z" glyph-name="Odieresis" horiz-adv-x="624" unicode="&#214;" /><glyph d="M146 917H277L363 762H265ZM313 106Q368 106 399 138Q430 170 430 224V494Q430 549 397 578.5Q364 608 310 608Q253 608 224 576Q195 544 195 488V225Q195 169 225.5 137.5Q256 106 313 106ZM312 -12Q259 -12 211.5 1Q164 14 128.5 42Q93 70 72 114.5Q51 159 51 222V485Q51 545 71.5 590Q92 635 127 665Q162 695 209.5 710Q257 725 311 725Q364 725 411.5 712Q459 699 495 670.5Q531 642 552.5 597.5Q574 553 574 491V228Q574 166 553 120.5Q532 75 496 45.5Q460 16 412.5 2Q365 -12 312 -12Z" glyph-name="Ograve" horiz-adv-x="624" unicode="&#210;" /><glyph d="M313 106Q368 106 399 138Q430 170 430 224V494Q430 549 397 578.5Q364 608 310 608Q253 608 224 576Q195 544 195 488V225Q195 169 225.5 137.5Q256 106 313 106ZM312 -12Q259 -12 211.5 1Q164 14 128.5 42Q93 70 72 114.5Q51 159 51 222V485Q51 545 71.5 590Q92 635 127 665Q162 695 209.5 710Q257 725 311 725Q364 725 411.5 712Q459 699 495 670.5Q531 642 552.5 597.5Q574 553 574 491V228Q574 166 553 120.5Q532 75 496 45.5Q460 16 412.5 2Q365 -12 312 -12ZM402 908H513L427 760H339ZM228 908H338L261 760H170Z" glyph-name="Ohungarumlaut" horiz-adv-x="624" unicode="&#336;" /><glyph d="M313 106Q368 106 399 138Q430 170 430 224V494Q430 549 397 578.5Q364 608 310 608Q253 608 224 576Q195 544 195 488V225Q195 169 225.5 137.5Q256 106 313 106ZM312 -12Q259 -12 211.5 1Q164 14 128.5 42Q93 70 72 114.5Q51 159 51 222V485Q51 545 71.5 590Q92 635 127 665Q162 695 209.5 710Q257 725 311 725Q364 725 411.5 712Q459 699 495 670.5Q531 642 552.5 597.5Q574 553 574 491V228Q574 166 553 120.5Q532 75 496 45.5Q460 16 412.5 2Q365 -12 312 -12ZM156 871H466V779H156Z" glyph-name="Omacron" horiz-adv-x="624" unicode="&#332;" /><glyph d="M50 120 190 113V122Q163 143 136.5 171Q110 199 90 235.5Q70 272 57 317Q44 362 44 415V441Q44 577 110.5 651Q177 725 308 725Q377 725 427 704.5Q477 684 510 647Q543 610 558.5 558Q574 506 574 444V416Q574 356 560 308Q546 260 524 223.5Q502 187 476.5 161.5Q451 136 428 122V113L569 120V0H341V113Q359 133 374.5 153Q390 173 402 201.5Q414 230 420.5 271Q427 312 427 375V467Q427 529 395.5 568.5Q364 608 307 608Q253 608 221 569Q189 530 189 455V383Q189 324 194.5 283.5Q200 243 211 212.5Q222 182 239 159Q256 136 279 113V0H50Z" glyph-name="Omega" horiz-adv-x="618" unicode="&#8486;" /><glyph d="M313 106Q368 106 399 138Q430 170 430 224V494Q430 496 429.5 498.5Q429 501 429 504L240 125Q270 106 313 106ZM195 225Q195 204 199 189L394 581Q362 608 310 608Q253 608 224 576Q195 544 195 488ZM85 -39 126 44Q91 72 71 115.5Q51 159 51 222V485Q51 545 71.5 590Q92 635 127 665Q162 695 209.5 710Q257 725 311 725Q388 725 451 696L486 766L547 739L507 660Q538 631 556 589.5Q574 548 574 491V228Q574 166 553 120.5Q532 75 496 45.5Q460 16 412.5 2Q365 -12 312 -12Q239 -12 183 10L145 -66Z" glyph-name="Oslash" horiz-adv-x="622" unicode="&#216;" /><glyph d="M346 917H476L359 762H260ZM313 106Q368 106 399 138Q430 170 430 224V494Q430 496 429.5 498.5Q429 501 429 504L240 125Q270 106 313 106ZM195 225Q195 204 199 189L394 580Q361 608 310 608Q253 608 224 576Q195 544 195 488ZM85 -39 126 44Q91 72 71 115.5Q51 159 51 222V485Q51 545 71.5 590Q92 635 127 665Q162 695 209.5 710Q257 725 311 725Q389 725 452 696L488 767L548 741L507 660Q538 631 556 589.5Q574 548 574 491V228Q574 166 553 120.5Q532 75 496 45.5Q460 16 412.5 2Q365 -12 312 -12Q239 -12 183 10L145 -66Z" glyph-name="Oslashacute" horiz-adv-x="622" unicode="&#510;" /><glyph d="M124 772Q127 796 135 818.5Q143 841 156.5 858.5Q170 876 189 886Q208 896 232 896Q251 896 270.5 890.5Q290 885 309 878Q328 871 347 865.5Q366 860 386 860Q406 860 415.5 873.5Q425 887 433 908L491 893Q488 870 480.5 848Q473 826 460 809.5Q447 793 428.5 783Q410 773 386 773Q366 773 347 778.5Q328 784 309 790.5Q290 797 271 802.5Q252 808 234 808Q213 808 204.5 795.5Q196 783 189 760ZM313 106Q368 106 399 138Q430 170 430 224V494Q430 549 397 578.5Q364 608 310 608Q253 608 224 576Q195 544 195 488V225Q195 169 225.5 137.5Q256 106 313 106ZM312 -12Q259 -12 211.5 1Q164 14 128.5 42Q93 70 72 114.5Q51 159 51 222V485Q51 545 71.5 590Q92 635 127 665Q162 695 209.5 710Q257 725 311 725Q364 725 411.5 712Q459 699 495 670.5Q531 642 552.5 597.5Q574 553 574 491V228Q574 166 553 120.5Q532 75 496 45.5Q460 16 412.5 2Q365 -12 312 -12Z" glyph-name="Otilde" horiz-adv-x="624" unicode="&#213;" /><glyph d="M296 366Q350 366 379.5 398Q409 430 409 487Q409 537 383 569Q357 601 306 601H209V366ZM66 713H331Q386 713 427 696Q468 679 495 649Q522 619 535 579Q548 539 548 493Q548 443 534.5 400.5Q521 358 493 326Q465 294 423 276Q381 258 323 258H209V0H66Z" glyph-name="P" horiz-adv-x="592" unicode="P" /><glyph d="M313 106Q368 106 399 138Q430 170 430 224V494Q430 549 397 578.5Q364 608 310 608Q253 608 224 576Q195 544 195 488V225Q195 169 225.5 137.5Q256 106 313 106ZM358 -8Q338 -12 312 -12Q259 -12 211.5 1Q164 14 128.5 42Q93 70 72 114.5Q51 159 51 222V485Q51 545 71.5 590Q92 635 127 665Q162 695 209.5 710Q257 725 311 725Q364 725 411.5 712Q459 699 495 670.5Q531 642 552.5 597.5Q574 553 574 491V228Q574 111 500 57L599 7L521 -108Z" glyph-name="Q" horiz-adv-x="624" unicode="Q" /><glyph d="M308 378Q418 378 418 490Q418 541 392.5 571Q367 601 312 601H209V378ZM66 713H329Q386 713 429.5 697.5Q473 682 501.5 653.5Q530 625 544.5 586Q559 547 559 499Q559 425 526.5 371Q494 317 427 297L579 0H425L295 272H209V0H66Z" glyph-name="R" horiz-adv-x="615" unicode="R" /><glyph glyph-name="RS" horiz-adv-x="15" /><glyph d="M308 378Q418 378 418 490Q418 541 392.5 571Q367 601 312 601H209V378ZM66 713H329Q386 713 429.5 697.5Q473 682 501.5 653.5Q530 625 544.5 586Q559 547 559 499Q559 425 526.5 371Q494 317 427 297L579 0H425L295 272H209V0H66ZM310 917H440L323 762H224Z" glyph-name="Racute" horiz-adv-x="615" unicode="&#340;" /><glyph d="M308 378Q418 378 418 490Q418 541 392.5 571Q367 601 312 601H209V378ZM66 713H329Q386 713 429.5 697.5Q473 682 501.5 653.5Q530 625 544.5 586Q559 547 559 499Q559 425 526.5 371Q494 317 427 297L579 0H425L295 272H209V0H66ZM137 928H240L293 838L347 928H448L337 768H242Z" glyph-name="Rcaron" horiz-adv-x="615" unicode="&#344;" /><glyph d="M308 378Q418 378 418 490Q418 541 392.5 571Q367 601 312 601H209V378ZM66 713H329Q386 713 429.5 697.5Q473 682 501.5 653.5Q530 625 544.5 586Q559 547 559 499Q559 425 526.5 371Q494 317 427 297L579 0H425L295 272H209V0H66ZM255 -35H366L335 -206H246Z" glyph-name="Rcommaaccent" horiz-adv-x="615" unicode="&#342;" /><glyph d="M278 -12Q206 -12 143 7Q80 26 29 74L102 174Q137 147 179.5 126Q222 105 284 105Q329 105 359.5 126.5Q390 148 390 185Q390 205 383 219.5Q376 234 364 245.5Q352 257 335 266Q318 275 298 284L202 324Q132 353 96.5 399.5Q61 446 61 515Q61 558 77.5 596Q94 634 124.5 662.5Q155 691 198.5 708Q242 725 297 725Q358 725 412 707.5Q466 690 512 652L438 553Q403 579 367.5 596.5Q332 614 291 614Q247 614 222 594.5Q197 575 197 536Q197 501 222.5 481Q248 461 291 443L373 407Q450 374 491.5 324.5Q533 275 533 209Q533 156 512 114.5Q491 73 456 45Q421 17 375 2.5Q329 -12 278 -12Z" glyph-name="S" horiz-adv-x="577" unicode="S" /><glyph d="M278 -12Q206 -12 143 7Q80 26 29 74L102 174Q137 147 179.5 126Q222 105 284 105Q329 105 359.5 126.5Q390 148 390 185Q390 205 383 219.5Q376 234 364 245.5Q352 257 335 266Q318 275 298 284L202 324Q132 353 96.5 399.5Q61 446 61 515Q61 558 77.5 596Q94 634 124.5 662.5Q155 691 198.5 708Q242 725 297 725Q358 725 412 707.5Q466 690 512 652L438 553Q403 579 367.5 596.5Q332 614 291 614Q247 614 222 594.5Q197 575 197 536Q197 501 222.5 481Q248 461 291 443L373 407Q450 374 491.5 324.5Q533 275 533 209Q533 156 512 114.5Q491 73 456 45Q421 17 375 2.5Q329 -12 278 -12ZM326 917H456L339 762H240Z" glyph-name="Sacute" horiz-adv-x="577" unicode="&#346;" /><glyph d="M278 -12Q206 -12 143 7Q80 26 29 74L102 174Q137 147 179.5 126Q222 105 284 105Q329 105 359.5 126.5Q390 148 390 185Q390 205 383 219.5Q376 234 364 245.5Q352 257 335 266Q318 275 298 284L202 324Q132 353 96.5 399.5Q61 446 61 515Q61 558 77.5 596Q94 634 124.5 662.5Q155 691 198.5 708Q242 725 297 725Q358 725 412 707.5Q466 690 512 652L438 553Q403 579 367.5 596.5Q332 614 291 614Q247 614 222 594.5Q197 575 197 536Q197 501 222.5 481Q248 461 291 443L373 407Q450 374 491.5 324.5Q533 275 533 209Q533 156 512 114.5Q491 73 456 45Q421 17 375 2.5Q329 -12 278 -12ZM143 928H246L299 838L353 928H454L343 768H248Z" glyph-name="Scaron" horiz-adv-x="577" unicode="&#352;" /><glyph d="M272 -208Q252 -208 226.5 -205.5Q201 -203 176 -196V-139Q199 -145 224 -148.5Q249 -152 267 -152Q310 -152 310 -125Q310 -111 296 -105Q282 -99 263 -98L221 -95L243 -11Q182 -6 127.5 13Q73 32 29 74L102 174Q137 147 179.5 126Q222 105 284 105Q329 105 359.5 126.5Q390 148 390 185Q390 205 383 219.5Q376 234 364 245.5Q352 257 335 266Q318 275 298 284L202 324Q132 353 96.5 399.5Q61 446 61 515Q61 558 77.5 596Q94 634 124.5 662.5Q155 691 198.5 708Q242 725 297 725Q358 725 412 707.5Q466 690 512 652L438 553Q403 579 367.5 596.5Q332 614 291 614Q247 614 222 594.5Q197 575 197 536Q197 501 222.5 481Q248 461 291 443L373 407Q450 374 491.5 324.5Q533 275 533 209Q533 158 514 118.5Q495 79 462.5 51Q430 23 387.5 7.5Q345 -8 298 -11L287 -53Q305 -53 325 -56.5Q345 -60 361.5 -67.5Q378 -75 388.5 -88Q399 -101 399 -122Q399 -142 389 -157.5Q379 -173 361.5 -184.5Q344 -196 321 -202Q298 -208 272 -208Z" glyph-name="Scedilla" horiz-adv-x="577" unicode="&#350;" /><glyph d="M278 -12Q206 -12 143 7Q80 26 29 74L102 174Q137 147 179.5 126Q222 105 284 105Q329 105 359.5 126.5Q390 148 390 185Q390 205 383 219.5Q376 234 364 245.5Q352 257 335 266Q318 275 298 284L202 324Q132 353 96.5 399.5Q61 446 61 515Q61 558 77.5 596Q94 634 124.5 662.5Q155 691 198.5 708Q242 725 297 725Q358 725 412 707.5Q466 690 512 652L438 553Q403 579 367.5 596.5Q332 614 291 614Q247 614 222 594.5Q197 575 197 536Q197 501 222.5 481Q248 461 291 443L373 407Q450 374 491.5 324.5Q533 275 533 209Q533 156 512 114.5Q491 73 456 45Q421 17 375 2.5Q329 -12 278 -12ZM238 923H333L439 763H336L283 852L229 763H131Z" glyph-name="Scircumflex" horiz-adv-x="577" unicode="&#348;" /><glyph d="M278 -12Q206 -12 143 7Q80 26 29 74L102 174Q137 147 179.5 126Q222 105 284 105Q329 105 359.5 126.5Q390 148 390 185Q390 205 383 219.5Q376 234 364 245.5Q352 257 335 266Q318 275 298 284L202 324Q132 353 96.5 399.5Q61 446 61 515Q61 558 77.5 596Q94 634 124.5 662.5Q155 691 198.5 708Q242 725 297 725Q358 725 412 707.5Q466 690 512 652L438 553Q403 579 367.5 596.5Q332 614 291 614Q247 614 222 594.5Q197 575 197 536Q197 501 222.5 481Q248 461 291 443L373 407Q450 374 491.5 324.5Q533 275 533 209Q533 156 512 114.5Q491 73 456 45Q421 17 375 2.5Q329 -12 278 -12ZM237 -35H348L317 -206H228Z" glyph-name="Scommaaccent" horiz-adv-x="577" unicode="&#536;" /><glyph d="M213 598H23V713H545V598H356V0H213Z" glyph-name="T" horiz-adv-x="567" unicode="T" /><glyph d="M101 379H213V598H23V713H545V598H356V379H466V304H356V0H213V304H101Z" glyph-name="Tbar" horiz-adv-x="567" unicode="&#358;" /><glyph d="M213 598H23V713H545V598H356V0H213ZM127 928H230L283 838L337 928H438L327 768H232Z" glyph-name="Tcaron" horiz-adv-x="567" unicode="&#356;" /><glyph d="M213 598H23V713H545V598H356V0H213ZM231 -35H342L311 -206H222Z" glyph-name="Tcommaaccent" horiz-adv-x="567" unicode="&#354;" /><glyph d="M296 250Q350 250 379.5 280.5Q409 311 409 366Q409 414 383 445.5Q357 477 307 477H208V250ZM66 713H208V581H331Q386 581 427 565Q468 549 495 521Q522 493 535 454.5Q548 416 548 372Q548 325 534.5 284Q521 243 493 213Q465 183 423 165.5Q381 148 323 148H208V0H66Z" glyph-name="Thorn" horiz-adv-x="593" unicode="&#222;" /><glyph d="M315 -12Q260 -12 213 1Q166 14 132 42Q98 70 79 113.5Q60 157 60 218V713H203V226Q203 193 212.5 169.5Q222 146 238.5 131Q255 116 276 109.5Q297 103 321 103Q373 103 405 135Q437 167 435 224V713H572V225Q572 167 553 123Q534 79 499.5 49Q465 19 418 3.5Q371 -12 315 -12Z" glyph-name="U" horiz-adv-x="634" unicode="U" /><glyph glyph-name="US" horiz-adv-x="15" /><glyph d="M315 -12Q260 -12 213 1Q166 14 132 42Q98 70 79 113.5Q60 157 60 218V713H203V226Q203 193 212.5 169.5Q222 146 238.5 131Q255 116 276 109.5Q297 103 321 103Q373 103 405 135Q437 167 435 224V713H572V225Q572 167 553 123Q534 79 499.5 49Q465 19 418 3.5Q371 -12 315 -12ZM363 916H493L376 761H277Z" glyph-name="Uacute" horiz-adv-x="634" unicode="&#218;" /><glyph d="M320 770Q241 770 197.5 812.5Q154 855 151 928H240Q246 890 263 869Q280 848 323 848Q358 848 375 869Q392 890 395 928H480Q478 889 465 859Q452 829 430.5 809.5Q409 790 380.5 780Q352 770 320 770ZM315 -12Q260 -12 213 1Q166 14 132 42Q98 70 79 113.5Q60 157 60 218V713H203V226Q203 193 212.5 169.5Q222 146 238.5 131Q255 116 276 109.5Q297 103 321 103Q373 103 405 135Q437 167 435 224V713H572V225Q572 167 553 123Q534 79 499.5 49Q465 19 418 3.5Q371 -12 315 -12Z" glyph-name="Ubreve" horiz-adv-x="634" unicode="&#364;" /><glyph d="M315 -12Q260 -12 213 1Q166 14 132 42Q98 70 79 113.5Q60 157 60 218V713H203V226Q203 193 212.5 169.5Q222 146 238.5 131Q255 116 276 109.5Q297 103 321 103Q373 103 405 135Q437 167 435 224V713H572V225Q572 167 553 123Q534 79 499.5 49Q465 19 418 3.5Q371 -12 315 -12ZM276 922H371L477 762H374L321 851L267 762H169Z" glyph-name="Ucircumflex" horiz-adv-x="634" unicode="&#219;" /><glyph d="M315 -12Q260 -12 213 1Q166 14 132 42Q98 70 79 113.5Q60 157 60 218V713H203V226Q203 193 212.5 169.5Q222 146 238.5 131Q255 116 276 109.5Q297 103 321 103Q373 103 405 135Q437 167 435 224V713H572V225Q572 167 553 123Q534 79 499.5 49Q465 19 418 3.5Q371 -12 315 -12ZM365 908H476V773H365ZM181 908H292V773H181Z" glyph-name="Udieresis" horiz-adv-x="634" unicode="&#220;" /><glyph d="M159 914H290L376 759H278ZM315 -12Q260 -12 213 1Q166 14 132 42Q98 70 79 113.5Q60 157 60 218V713H203V226Q203 193 212.5 169.5Q222 146 238.5 131Q255 116 276 109.5Q297 103 321 103Q373 103 405 135Q437 167 435 224V713H572V225Q572 167 553 123Q534 79 499.5 49Q465 19 418 3.5Q371 -12 315 -12Z" glyph-name="Ugrave" horiz-adv-x="634" unicode="&#217;" /><glyph d="M389 915H500L414 767H326ZM215 915H325L248 767H157ZM315 -12Q260 -12 213 1Q166 14 132 42Q98 70 79 113.5Q60 157 60 218V713H203V226Q203 193 212.5 169.5Q222 146 238.5 131Q255 116 276 109.5Q297 103 321 103Q373 103 405 135Q437 167 435 224V713H572V225Q572 167 553 123Q534 79 499.5 49Q465 19 418 3.5Q371 -12 315 -12Z" glyph-name="Uhungarumlaut" horiz-adv-x="634" unicode="&#368;" /><glyph d="M160 878H470V786H160ZM315 -12Q260 -12 213 1Q166 14 132 42Q98 70 79 113.5Q60 157 60 218V713H203V226Q203 193 212.5 169.5Q222 146 238.5 131Q255 116 276 109.5Q297 103 321 103Q373 103 405 135Q437 167 435 224V713H572V225Q572 167 553 123Q534 79 499.5 49Q465 19 418 3.5Q371 -12 315 -12Z" glyph-name="Umacron" horiz-adv-x="634" unicode="&#362;" /><glyph d="M375 -207Q354 -207 334.5 -201.5Q315 -196 300 -184Q285 -172 276 -154Q267 -136 267 -111Q267 -81 279 -56Q291 -31 310 -12Q256 -11 210 2.5Q164 16 130.5 44Q97 72 78.5 115Q60 158 60 218V713H203V226Q203 193 212.5 169.5Q222 146 238.5 131Q255 116 276 109.5Q297 103 321 103Q373 103 405 135Q437 167 435 224V713H572V225Q572 178 559.5 140.5Q547 103 524 74.5Q501 46 468.5 26.5Q436 7 396 -2Q375 -19 360.5 -41.5Q346 -64 346 -90Q346 -114 358.5 -126.5Q371 -139 394 -139Q407 -139 422.5 -133Q438 -127 449 -119L481 -177Q464 -190 437 -198.5Q410 -207 375 -207Z" glyph-name="Uogonek" horiz-adv-x="634" unicode="&#370;" /><glyph d="M315 -12Q260 -12 213 1Q166 14 132 42Q98 70 79 113.5Q60 157 60 218V713H203V226Q203 193 212.5 169.5Q222 146 238.5 131Q255 116 276 109.5Q297 103 321 103Q373 103 405 135Q437 167 435 224V713H572V225Q572 167 553 123Q534 79 499.5 49Q465 19 418 3.5Q371 -12 315 -12ZM315 803Q337 803 349 817Q361 831 361 855Q361 878 349.5 892.5Q338 907 314 907Q292 907 281.5 892Q271 877 271 854Q271 831 283 817Q295 803 315 803ZM316 757Q272 757 245 784Q218 811 218 853Q218 896 246.5 924.5Q275 953 315 953Q360 953 387 928Q414 903 414 858Q414 837 406.5 818.5Q399 800 385.5 786.5Q372 773 354.5 765Q337 757 316 757Z" glyph-name="Uring" horiz-adv-x="634" unicode="&#366;" /><glyph d="M138 779Q141 803 149 825.5Q157 848 170.5 865.5Q184 883 203 893Q222 903 246 903Q265 903 284.5 897.5Q304 892 323 885Q342 878 361 872.5Q380 867 400 867Q420 867 429.5 880.5Q439 894 447 915L505 900Q502 877 494.5 855Q487 833 474 816.5Q461 800 442.5 790Q424 780 400 780Q380 780 361 785.5Q342 791 323 797.5Q304 804 285 809.5Q266 815 248 815Q227 815 218.5 802.5Q210 790 203 767ZM315 -12Q260 -12 213 1Q166 14 132 42Q98 70 79 113.5Q60 157 60 218V713H203V226Q203 193 212.5 169.5Q222 146 238.5 131Q255 116 276 109.5Q297 103 321 103Q373 103 405 135Q437 167 435 224V713H572V225Q572 167 553 123Q534 79 499.5 49Q465 19 418 3.5Q371 -12 315 -12Z" glyph-name="Utilde" horiz-adv-x="634" unicode="&#360;" /><glyph d="M20 713H165L299 181H301L433 713H564L367 -2H216Z" glyph-name="V" horiz-adv-x="584" unicode="V" /><glyph d="M23 713H162L252 242H255L355 713H495L590 243H592L680 713H812L660 -2H523L419 492H415L310 -2H174Z" glyph-name="W" horiz-adv-x="834" unicode="W" /><glyph d="M23 713H162L252 242H255L355 713H495L590 243H592L680 713H812L660 -2H523L419 492H415L310 -2H174ZM460 917H590L473 762H374Z" glyph-name="Wacute" horiz-adv-x="834" unicode="&#7810;" /><glyph d="M23 713H162L252 242H255L355 713H495L590 243H592L680 713H812L660 -2H523L419 492H415L310 -2H174ZM369 923H464L570 763H467L414 852L360 763H262Z" glyph-name="Wcircumflex" horiz-adv-x="834" unicode="&#372;" /><glyph d="M23 713H162L252 242H255L355 713H495L590 243H592L680 713H812L660 -2H523L419 492H415L310 -2H174ZM453 908H564V773H453ZM269 908H380V773H269Z" glyph-name="Wdieresis" horiz-adv-x="834" unicode="&#7812;" /><glyph d="M256 917H387L473 762H375ZM23 713H162L252 242H255L355 713H495L590 243H592L680 713H812L660 -2H523L419 492H415L310 -2H174Z" glyph-name="Wgrave" horiz-adv-x="834" unicode="&#7808;" /><glyph d="M200 366 29 713H183L295 475L405 713H545L372 367L559 0H408L280 259L155 0H15Z" glyph-name="X" horiz-adv-x="575" unicode="X" /><glyph d="M216 289 17 713H168L296 417L424 713H558L359 288V0H216Z" glyph-name="Y" horiz-adv-x="575" unicode="Y" /><glyph d="M338 913H468L351 758H252ZM216 289 17 713H168L296 417L424 713H558L359 288V0H216Z" glyph-name="Yacute" horiz-adv-x="575" unicode="&#221;" /><glyph d="M245 923H340L446 763H343L290 852L236 763H138ZM216 289 17 713H168L296 417L424 713H558L359 288V0H216Z" glyph-name="Ycircumflex" horiz-adv-x="575" unicode="&#374;" /><glyph d="M334 907H445V772H334ZM150 907H261V772H150ZM216 289 17 713H168L296 417L424 713H558L359 288V0H216Z" glyph-name="Ydieresis" horiz-adv-x="575" unicode="&#376;" /><glyph d="M127 917H258L344 762H246ZM216 289 17 713H168L296 417L424 713H558L359 288V0H216Z" glyph-name="Ygrave" horiz-adv-x="575" unicode="&#7922;" /><glyph d="M44 86 336 600H49V713H503V615L218 115H499V0H44Z" glyph-name="Z" horiz-adv-x="544" unicode="Z" /><glyph d="M44 86 336 600H49V713H503V615L218 115H499V0H44ZM312 917H442L325 762H226Z" glyph-name="Zacute" horiz-adv-x="544" unicode="&#377;" /><glyph d="M44 86 336 600H49V713H503V615L218 115H499V0H44ZM121 928H224L277 838L331 928H432L321 768H226Z" glyph-name="Zcaron" horiz-adv-x="544" unicode="&#381;" /><glyph d="M222 909H340V773H222ZM44 86 336 600H49V713H503V615L218 115H499V0H44Z" glyph-name="Zdotaccent" horiz-adv-x="544" unicode="&#379;" /><glyph d="M242 86Q275 86 300.5 111Q326 136 326 178V235H270Q252 235 234 231.5Q216 228 202.5 219.5Q189 211 180.5 196.5Q172 182 172 160Q172 122 192.5 104Q213 86 242 86ZM187 -11Q157 -11 130 -2Q103 7 83 26Q63 45 51 73.5Q39 102 39 140Q39 188 60 221.5Q81 255 113.5 275Q146 295 185.5 304Q225 313 261 313H326V377Q326 409 306 426.5Q286 444 249 444Q212 444 192 425.5Q172 407 172 378V355H53V384Q53 421 69.5 449.5Q86 478 114 497.5Q142 517 180 527Q218 537 261 537Q301 537 337 527.5Q373 518 400 498Q427 478 443 447Q459 416 459 374V124Q459 106 460 87Q461 68 462 50.5Q463 33 464 19.5Q465 6 465 0H343Q343 5 341.5 24Q340 43 338 76H333Q321 49 302 32Q283 15 262.5 5.5Q242 -4 222 -7.5Q202 -11 187 -11Z" glyph-name="a" horiz-adv-x="517" unicode="a" /><glyph d="M283 739H413L296 584H197ZM242 86Q275 86 300.5 111Q326 136 326 178V235H270Q252 235 234 231.5Q216 228 202.5 219.5Q189 211 180.5 196.5Q172 182 172 160Q172 122 192.5 104Q213 86 242 86ZM187 -11Q157 -11 130 -2Q103 7 83 26Q63 45 51 73.5Q39 102 39 140Q39 188 60 221.5Q81 255 113.5 275Q146 295 185.5 304Q225 313 261 313H326V377Q326 409 306 426.5Q286 444 249 444Q212 444 192 425.5Q172 407 172 378V355H53V384Q53 421 69.5 449.5Q86 478 114 497.5Q142 517 180 527Q218 537 261 537Q301 537 337 527.5Q373 518 400 498Q427 478 443 447Q459 416 459 374V124Q459 106 460 87Q461 68 462 50.5Q463 33 464 19.5Q465 6 465 0H343Q343 5 341.5 24Q340 43 338 76H333Q321 49 302 32Q283 15 262.5 5.5Q242 -4 222 -7.5Q202 -11 187 -11Z" glyph-name="aacute" horiz-adv-x="517" unicode="&#225;" /><glyph d="M262 585Q183 585 139.5 627.5Q96 670 93 743H182Q188 705 205 684Q222 663 265 663Q300 663 317 684Q334 705 337 743H422Q420 704 407 674Q394 644 372.5 624.5Q351 605 322.5 595Q294 585 262 585ZM242 86Q275 86 300.5 111Q326 136 326 178V235H270Q252 235 234 231.5Q216 228 202.5 219.5Q189 211 180.5 196.5Q172 182 172 160Q172 122 192.5 104Q213 86 242 86ZM187 -11Q157 -11 130 -2Q103 7 83 26Q63 45 51 73.5Q39 102 39 140Q39 188 60 221.5Q81 255 113.5 275Q146 295 185.5 304Q225 313 261 313H326V377Q326 409 306 426.5Q286 444 249 444Q212 444 192 425.5Q172 407 172 378V355H53V384Q53 421 69.5 449.5Q86 478 114 497.5Q142 517 180 527Q218 537 261 537Q301 537 337 527.5Q373 518 400 498Q427 478 443 447Q459 416 459 374V124Q459 106 460 87Q461 68 462 50.5Q463 33 464 19.5Q465 6 465 0H343Q343 5 341.5 24Q340 43 338 76H333Q321 49 302 32Q283 15 262.5 5.5Q242 -4 222 -7.5Q202 -11 187 -11Z" glyph-name="abreve" horiz-adv-x="517" unicode="&#259;" /><glyph d="M202 745H297L403 585H300L247 674L193 585H95ZM242 86Q275 86 300.5 111Q326 136 326 178V235H270Q252 235 234 231.5Q216 228 202.5 219.5Q189 211 180.5 196.5Q172 182 172 160Q172 122 192.5 104Q213 86 242 86ZM187 -11Q157 -11 130 -2Q103 7 83 26Q63 45 51 73.5Q39 102 39 140Q39 188 60 221.5Q81 255 113.5 275Q146 295 185.5 304Q225 313 261 313H326V377Q326 409 306 426.5Q286 444 249 444Q212 444 192 425.5Q172 407 172 378V355H53V384Q53 421 69.5 449.5Q86 478 114 497.5Q142 517 180 527Q218 537 261 537Q301 537 337 527.5Q373 518 400 498Q427 478 443 447Q459 416 459 374V124Q459 106 460 87Q461 68 462 50.5Q463 33 464 19.5Q465 6 465 0H343Q343 5 341.5 24Q340 43 338 76H333Q321 49 302 32Q283 15 262.5 5.5Q242 -4 222 -7.5Q202 -11 187 -11Z" glyph-name="acircumflex" horiz-adv-x="517" unicode="&#226;" /><glyph d="M133 739H263L146 584H47Z" glyph-name="acute" horiz-adv-x="288" unicode="&#180;" /><glyph d="M294 730H405V595H294ZM110 730H221V595H110ZM242 86Q275 86 300.5 111Q326 136 326 178V235H270Q252 235 234 231.5Q216 228 202.5 219.5Q189 211 180.5 196.5Q172 182 172 160Q172 122 192.5 104Q213 86 242 86ZM187 -11Q157 -11 130 -2Q103 7 83 26Q63 45 51 73.5Q39 102 39 140Q39 188 60 221.5Q81 255 113.5 275Q146 295 185.5 304Q225 313 261 313H326V377Q326 409 306 426.5Q286 444 249 444Q212 444 192 425.5Q172 407 172 378V355H53V384Q53 421 69.5 449.5Q86 478 114 497.5Q142 517 180 527Q218 537 261 537Q301 537 337 527.5Q373 518 400 498Q427 478 443 447Q459 416 459 374V124Q459 106 460 87Q461 68 462 50.5Q463 33 464 19.5Q465 6 465 0H343Q343 5 341.5 24Q340 43 338 76H333Q321 49 302 32Q283 15 262.5 5.5Q242 -4 222 -7.5Q202 -11 187 -11Z" glyph-name="adieresis" horiz-adv-x="517" unicode="&#228;" /><glyph d="M618 311V355Q618 389 599.5 415Q581 441 538 441Q498 441 478.5 415.5Q459 390 459 357V311ZM242 86Q258 86 273 92Q288 98 300 109.5Q312 121 319 137.5Q326 154 326 175V235H278Q259 235 240 232.5Q221 230 206 221.5Q191 213 181.5 198.5Q172 184 172 160Q172 122 192.5 104Q213 86 242 86ZM191 -12Q161 -12 133.5 -2.5Q106 7 85 26Q64 45 51.5 73.5Q39 102 39 140Q39 188 60 221.5Q81 255 113.5 275Q146 295 185.5 304Q225 313 261 313H326V377Q326 409 306 426.5Q286 444 249 444Q213 444 192.5 425.5Q172 407 172 378V355H53V384Q53 421 69.5 449.5Q86 478 114 497.5Q142 517 180 527Q218 537 261 537Q305 537 341.5 524.5Q378 512 399 484Q425 510 462 523.5Q499 537 542 537Q587 537 624 524.5Q661 512 687.5 487.5Q714 463 729 427Q744 391 744 345V227H459V181Q459 133 489.5 113Q520 93 568 93Q585 93 603.5 96Q622 99 640 104Q658 109 674 114.5Q690 120 701 125L732 37Q694 11 644.5 -0.5Q595 -12 545 -12Q482 -12 435.5 9.5Q389 31 363 80Q347 50 323.5 32Q300 14 275 4Q250 -6 227.5 -9Q205 -12 191 -12Z" glyph-name="ae" horiz-adv-x="787" unicode="&#230;" /><glyph d="M618 311V355Q618 389 599.5 415Q581 441 538 441Q498 441 478.5 415.5Q459 390 459 357V311ZM242 86Q258 86 273 92Q288 98 300 109.5Q312 121 319 137.5Q326 154 326 175V235H278Q259 235 240 232.5Q221 230 206 221.5Q191 213 181.5 198.5Q172 184 172 160Q172 122 192.5 104Q213 86 242 86ZM191 -12Q161 -12 133.5 -2.5Q106 7 85 26Q64 45 51.5 73.5Q39 102 39 140Q39 188 60 221.5Q81 255 113.5 275Q146 295 185.5 304Q225 313 261 313H326V377Q326 409 306 426.5Q286 444 249 444Q213 444 192.5 425.5Q172 407 172 378V355H53V384Q53 421 69.5 449.5Q86 478 114 497.5Q142 517 180 527Q218 537 261 537Q305 537 341.5 524.5Q378 512 399 484Q425 510 462 523.5Q499 537 542 537Q587 537 624 524.5Q661 512 687.5 487.5Q714 463 729 427Q744 391 744 345V227H459V181Q459 133 489.5 113Q520 93 568 93Q585 93 603.5 96Q622 99 640 104Q658 109 674 114.5Q690 120 701 125L732 37Q694 11 644.5 -0.5Q595 -12 545 -12Q482 -12 435.5 9.5Q389 31 363 80Q347 50 323.5 32Q300 14 275 4Q250 -6 227.5 -9Q205 -12 191 -12ZM425 739H555L438 584H339Z" glyph-name="aeacute" horiz-adv-x="787" unicode="&#509;" /><glyph d="M100 739H231L317 584H219ZM242 86Q275 86 300.5 111Q326 136 326 178V235H270Q252 235 234 231.5Q216 228 202.5 219.5Q189 211 180.5 196.5Q172 182 172 160Q172 122 192.5 104Q213 86 242 86ZM187 -11Q157 -11 130 -2Q103 7 83 26Q63 45 51 73.5Q39 102 39 140Q39 188 60 221.5Q81 255 113.5 275Q146 295 185.5 304Q225 313 261 313H326V377Q326 409 306 426.5Q286 444 249 444Q212 444 192 425.5Q172 407 172 378V355H53V384Q53 421 69.5 449.5Q86 478 114 497.5Q142 517 180 527Q218 537 261 537Q301 537 337 527.5Q373 518 400 498Q427 478 443 447Q459 416 459 374V124Q459 106 460 87Q461 68 462 50.5Q463 33 464 19.5Q465 6 465 0H343Q343 5 341.5 24Q340 43 338 76H333Q321 49 302 32Q283 15 262.5 5.5Q242 -4 222 -7.5Q202 -11 187 -11Z" glyph-name="agrave" horiz-adv-x="517" unicode="&#224;" /><glyph d="M159 -203Q140 -203 122 -197Q104 -191 89.5 -179Q75 -167 66 -148.5Q57 -130 57 -105Q57 -77 67 -54.5Q77 -32 92.5 -15Q108 2 126 13.5Q144 25 159 31L198 2Q169 -11 152 -34.5Q135 -58 135 -88Q135 -111 148 -122.5Q161 -134 184 -134Q201 -134 221 -122L248 -180Q211 -203 159 -203Z" glyph-name="altogonek" horiz-adv-x="299" /><glyph d="M103 693H413V601H103ZM242 86Q275 86 300.5 111Q326 136 326 178V235H270Q252 235 234 231.5Q216 228 202.5 219.5Q189 211 180.5 196.5Q172 182 172 160Q172 122 192.5 104Q213 86 242 86ZM187 -11Q157 -11 130 -2Q103 7 83 26Q63 45 51 73.5Q39 102 39 140Q39 188 60 221.5Q81 255 113.5 275Q146 295 185.5 304Q225 313 261 313H326V377Q326 409 306 426.5Q286 444 249 444Q212 444 192 425.5Q172 407 172 378V355H53V384Q53 421 69.5 449.5Q86 478 114 497.5Q142 517 180 527Q218 537 261 537Q301 537 337 527.5Q373 518 400 498Q427 478 443 447Q459 416 459 374V124Q459 106 460 87Q461 68 462 50.5Q463 33 464 19.5Q465 6 465 0H343Q343 5 341.5 24Q340 43 338 76H333Q321 49 302 32Q283 15 262.5 5.5Q242 -4 222 -7.5Q202 -11 187 -11Z" glyph-name="amacron" horiz-adv-x="517" unicode="&#257;" /><glyph d="M326 443Q365 460 387 490Q409 520 409 560Q409 593 389 612.5Q369 632 336 632Q298 632 281 609Q264 586 264 558Q264 535 280.5 508Q297 481 326 443ZM290 97Q322 97 349 109Q376 121 396 141L257 321Q216 303 197 271Q178 239 178 204Q178 158 208 127.5Q238 97 290 97ZM258 -16Q211 -16 172 -2Q133 12 105 38.5Q77 65 62 102Q47 139 47 186Q47 255 89 311Q131 367 200 395Q171 430 153 470Q135 510 135 549Q135 580 145.5 611.5Q156 643 180 668.5Q204 694 242 709.5Q280 725 336 725Q379 725 414.5 713.5Q450 702 475.5 681Q501 660 515.5 631Q530 602 530 567Q530 498 488.5 448.5Q447 399 381 371L495 225Q504 245 511.5 275.5Q519 306 527 343L640 327Q630 270 607 219.5Q584 169 562 139L673 0H509L457 68Q419 28 368 6Q317 -16 258 -16Z" glyph-name="ampersand" horiz-adv-x="695" unicode="&amp;" /><glyph d="M242 86Q275 86 300.5 111Q326 136 326 178V235H270Q252 235 234 231.5Q216 228 202.5 219.5Q189 211 180.5 196.5Q172 182 172 160Q172 122 192.5 104Q213 86 242 86ZM392 -207Q371 -207 351.5 -201.5Q332 -196 317 -184Q302 -172 293 -154Q284 -136 284 -111Q284 -75 300.5 -46.5Q317 -18 343 2Q342 9 341 27Q340 45 338 76H333Q321 49 302 32Q283 15 262.5 5.5Q242 -4 222 -7.5Q202 -11 187 -11Q157 -11 130 -2Q103 7 83 26Q63 45 51 73.5Q39 102 39 140Q39 188 60 221.5Q81 255 113.5 275Q146 295 185.5 304Q225 313 261 313H326V377Q326 409 306 426.5Q286 444 249 444Q212 444 192 425.5Q172 407 172 378V355H53V384Q53 421 69.5 449.5Q86 478 114 497.5Q142 517 180 527Q218 537 261 537Q301 537 337 527.5Q373 518 400 498Q427 478 443 447Q459 416 459 374V124Q459 106 460 87Q461 68 462 50.5Q463 33 464 19.5Q465 6 465 0H435Q402 -13 382.5 -36.5Q363 -60 363 -90Q363 -114 375.5 -126Q388 -138 411 -138Q424 -138 439.5 -132.5Q455 -127 466 -119L498 -177Q481 -190 454 -198.5Q427 -207 392 -207Z" glyph-name="aogonek" horiz-adv-x="517" unicode="&#261;" /><glyph d="M509 -110 490 -112 483 -105Q500 -100 508 -98Q516 -96 526 -93Q545 -87 556 -78.5Q567 -70 573 -61Q579 -52 581.5 -43.5Q584 -35 585 -30Q587 -16 589 8Q591 32 593 63Q595 94 596.5 129Q598 164 600 201L495 198L497 209L601 215Q603 251 605 286.5Q607 322 608.5 352.5Q610 383 611 407.5Q612 432 612 446L654 470Q607 472 559 473.5Q511 475 463 477Q462 438 460 398Q458 358 456 331Q451 248 426.5 192.5Q402 137 370 103.5Q338 70 304.5 55.5Q271 41 249 41Q232 41 209 46Q186 51 162.5 57.5Q139 64 118.5 71.5Q98 79 88 85L113 124Q118 123 138 115Q158 107 184 98Q210 89 237 81.5Q264 74 282 75Q308 75 332.5 93.5Q357 112 375.5 141.5Q394 171 405 208.5Q416 246 415 284L420 478Q404 478 388 479Q372 480 355 480Q324 480 294.5 468Q265 456 241.5 435Q218 414 204 386Q190 358 190 325Q199 305 219.5 286.5Q240 268 272 254Q272 251 270 245.5Q268 240 265.5 234Q263 228 260 222.5Q257 217 255 215Q232 225 217.5 237.5Q203 250 194.5 264Q186 278 182 291.5Q178 305 177 317Q177 356 193 389.5Q209 423 237 449Q265 475 303.5 492.5Q342 510 388 518H421L427 693L470 712Q408 714 343.5 717Q279 720 209 720Q179 720 149 708.5Q119 697 96 676.5Q73 656 58.5 628.5Q44 601 44 568Q64 527 128 502Q128 499 125 493.5Q122 488 118 482Q114 476 110 470.5Q106 465 105 463Q82 472 67.5 484.5Q53 497 44 510.5Q35 524 31 538Q27 552 26 564Q26 603 44 635.5Q62 668 91 692.5Q120 717 156 734Q192 751 227 760Q318 760 406 755.5Q494 751 595 749Q615 749 628.5 748.5Q642 748 661 747Q669 747 683.5 746.5Q698 746 704 746Q718 745 724.5 746Q731 747 739 749Q746 754 753 762Q760 770 763 777L772 774Q767 763 759 753Q751 743 746 738Q714 722 688 715Q662 708 625 708Q588 708 550.5 709Q513 710 475 712Q473 702 472 682Q471 662 470.5 639.5Q470 617 469 597.5Q468 578 467 570L465 517Q564 514 673 508.5Q782 503 889 503Q887 503 906 502Q925 501 952.5 502Q980 503 1009 506.5Q1038 510 1055 518L1060 512Q1003 488 947.5 477.5Q892 467 820 467Q747 467 662 470Q660 456 658 427Q656 398 654 367Q652 336 650.5 309Q649 282 648 273Q648 263 647.5 249Q647 235 646 218L804 228H808L812 225L775 170L767 175L792 211L645 202Q643 175 641.5 146Q640 117 638 89.5Q636 62 634 38Q632 14 631 -1Q630 -10 624 -22Q618 -34 610 -45.5Q602 -57 592 -66.5Q582 -76 572 -80L573 -81Q615 -74 662 -75Q709 -76 750 -73V-74Q750 -85 741 -97Q732 -109 720 -111Q711 -113 699.5 -113Q688 -113 674 -113Z" glyph-name="apple" horiz-adv-x="1082" unicode="&#63743;" /><glyph d="M47 359Q51 383 58.5 405Q66 427 79 444Q92 461 110 471Q128 481 152 481Q173 481 205 475.5Q237 470 271 464Q305 458 337 452.5Q369 447 389 447Q407 447 417 460Q427 473 435 495L493 481Q490 458 482.5 435.5Q475 413 462.5 396Q450 379 432 368.5Q414 358 389 358Q369 358 337 363.5Q305 369 270 375Q235 381 203 386.5Q171 392 151 392Q130 392 121.5 380.5Q113 369 106 346ZM47 161Q51 185 58.5 207.5Q66 230 79 247Q92 264 110 274Q128 284 152 284Q173 284 205 279Q237 274 271 267.5Q305 261 337 256Q369 251 389 251Q407 251 417 263.5Q427 276 435 297L493 284Q490 261 482.5 238.5Q475 216 462.5 199Q450 182 432 171.5Q414 161 389 161Q369 161 337 166.5Q305 172 270 178Q235 184 203 189.5Q171 195 151 195Q130 195 121.5 183.5Q113 172 106 150Z" glyph-name="approxequal" horiz-adv-x="540" unicode="&#8776;" /><glyph d="M254 618Q276 618 288 632Q300 646 300 670Q300 693 288.5 707.5Q277 722 253 722Q231 722 220.5 707Q210 692 210 669Q210 646 222 632Q234 618 254 618ZM255 572Q211 572 184 599Q157 626 157 668Q157 711 185.5 739.5Q214 768 254 768Q299 768 326 743Q353 718 353 673Q353 652 345.5 633.5Q338 615 324.5 601.5Q311 588 293.5 580Q276 572 255 572ZM242 86Q275 86 300.5 111Q326 136 326 178V235H270Q252 235 234 231.5Q216 228 202.5 219.5Q189 211 180.5 196.5Q172 182 172 160Q172 122 192.5 104Q213 86 242 86ZM187 -11Q157 -11 130 -2Q103 7 83 26Q63 45 51 73.5Q39 102 39 140Q39 188 60 221.5Q81 255 113.5 275Q146 295 185.5 304Q225 313 261 313H326V377Q326 409 306 426.5Q286 444 249 444Q212 444 192 425.5Q172 407 172 378V355H53V384Q53 421 69.5 449.5Q86 478 114 497.5Q142 517 180 527Q218 537 261 537Q301 537 337 527.5Q373 518 400 498Q427 478 443 447Q459 416 459 374V124Q459 106 460 87Q461 68 462 50.5Q463 33 464 19.5Q465 6 465 0H343Q343 5 341.5 24Q340 43 338 76H333Q321 49 302 32Q283 15 262.5 5.5Q242 -4 222 -7.5Q202 -11 187 -11Z" glyph-name="aring" horiz-adv-x="517" unicode="&#229;" /><glyph d="M254 613Q275 613 288 626.5Q301 640 301 665Q301 690 288.5 703Q276 716 256 716Q234 716 222 701Q210 686 210 663Q210 637 222 625Q234 613 254 613ZM255 572Q229 572 210.5 579.5Q192 587 180 600Q168 613 162 629Q156 645 156 662Q156 706 189 738L283 835L356 799L291 749Q323 741 338.5 718.5Q354 696 354 667Q354 625 326.5 598.5Q299 572 255 572ZM242 86Q275 86 300.5 111Q326 136 326 178V235H270Q252 235 234 231.5Q216 228 202.5 219.5Q189 211 180.5 196.5Q172 182 172 160Q172 122 192.5 104Q213 86 242 86ZM187 -11Q157 -11 130 -2Q103 7 83 26Q63 45 51 73.5Q39 102 39 140Q39 188 60 221.5Q81 255 113.5 275Q146 295 185.5 304Q225 313 261 313H326V377Q326 409 306 426.5Q286 444 249 444Q212 444 192 425.5Q172 407 172 378V355H53V384Q53 421 69.5 449.5Q86 478 114 497.5Q142 517 180 527Q218 537 261 537Q301 537 337 527.5Q373 518 400 498Q427 478 443 447Q459 416 459 374V124Q459 106 460 87Q461 68 462 50.5Q463 33 464 19.5Q465 6 465 0H343Q343 5 341.5 24Q340 43 338 76H333Q321 49 302 32Q283 15 262.5 5.5Q242 -4 222 -7.5Q202 -11 187 -11Z" glyph-name="aringacute" horiz-adv-x="517" unicode="&#507;" /><glyph d="M82 309 138 368 245 262V590H335V262L440 369L498 309L295 118H286Z" glyph-name="arrowdown" horiz-adv-x="575" unicode="&#8595;" /><glyph d="M45 349V358L237 562L298 503L190 398H518V309H190L296 201L237 145Z" glyph-name="arrowleft" horiz-adv-x="575" unicode="&#8592;" /><glyph d="M275 201 382 309H53V398H382L274 503L334 562L527 358V349L334 145Z" glyph-name="arrowright" horiz-adv-x="575" unicode="&#8594;" /><glyph d="M245 446 142 337 82 398 285 590H294L498 398L443 340L335 446V118H245Z" glyph-name="arrowup" horiz-adv-x="575" unicode="&#8593;" /><glyph d="M200 581H292L388 161H305L244 465Q226 381 211 314Q205 285 198.5 258Q192 231 187.5 209.5Q183 188 180 174.5Q177 161 177 161H93Z" glyph-name="asciicircum" horiz-adv-x="482" unicode="^" /><glyph d="M47 254Q51 278 58.5 300Q66 322 79 339Q92 356 110 366Q128 376 152 376Q173 376 205 371Q237 366 271 359.5Q305 353 337 348Q369 343 389 343Q407 343 417 355.5Q427 368 435 390L493 376Q490 353 482.5 331Q475 309 462.5 292Q450 275 432 264.5Q414 254 389 254Q369 254 337 259Q305 264 270 270.5Q235 277 203 282Q171 287 151 287Q130 287 121.5 275.5Q113 264 106 242Z" glyph-name="asciitilde" horiz-adv-x="540" unicode="~" /><glyph d="M62 408 139 519 20 587 59 647 169 586V713H244V585L352 647L391 587L272 519L351 408L288 367L206 482L124 367Z" glyph-name="asterisk" horiz-adv-x="412" unicode="*" /><glyph d="M404 123Q422 123 439 131.5Q456 140 470 154Q484 168 493.5 187.5Q503 207 507 229L524 333Q525 338 525.5 343.5Q526 349 526 354Q526 390 508.5 409.5Q491 429 462 429Q425 429 404 404Q383 379 377 341L355 204Q354 199 353.5 193Q353 187 353 180Q353 155 362.5 139Q372 123 404 123ZM471 -142Q403 -142 342 -129Q281 -116 229 -89Q146 -46 95.5 37Q45 120 46 246Q46 343 79 424Q112 505 170 563Q228 621 307 653Q386 685 479 685Q556 685 622 663Q688 641 736.5 599Q785 557 812.5 495.5Q840 434 840 356Q840 287 818 232.5Q796 178 761 139Q726 100 681 76Q636 52 591 45H479L491 117H488Q459 75 423.5 54.5Q388 34 350 34Q295 34 263 62.5Q231 91 231 146Q231 164 234 179Q235 189 239 212.5Q243 236 247.5 264Q252 292 257 319.5Q262 347 265 366Q271 402 287.5 429.5Q304 457 327 475.5Q350 494 378 503.5Q406 513 436 513Q469 513 500 497.5Q531 482 542 448H543L552 506H668L604 122Q638 130 666.5 151Q695 172 716 203Q737 234 748.5 273.5Q760 313 760 359Q760 429 734.5 478Q709 527 667.5 557.5Q626 588 574.5 601.5Q523 615 472 615Q394 615 331 587Q268 559 223.5 510Q179 461 155.5 394Q132 327 132 248Q132 143 172 76Q212 9 281 -26Q320 -46 368 -56Q416 -66 471 -66Q506 -66 534.5 -63.5Q563 -61 588.5 -56.5Q614 -52 638 -46Q662 -40 688 -34L704 -102Q678 -112 647.5 -119.5Q617 -127 586 -132Q555 -137 525 -139.5Q495 -142 471 -142Z" glyph-name="at" horiz-adv-x="885" unicode="@" /><glyph d="M67 594Q70 618 78 640.5Q86 663 99.5 680.5Q113 698 132 708Q151 718 175 718Q194 718 213.5 712.5Q233 707 252 700Q271 693 290 687.5Q309 682 329 682Q349 682 358.5 695.5Q368 709 376 730L434 715Q431 692 423.5 670Q416 648 403 631.5Q390 615 371.5 605Q353 595 329 595Q309 595 290 600.5Q271 606 252 612.5Q233 619 214 624.5Q195 630 177 630Q156 630 147.5 617.5Q139 605 132 582ZM242 86Q275 86 300.5 111Q326 136 326 178V235H270Q252 235 234 231.5Q216 228 202.5 219.5Q189 211 180.5 196.5Q172 182 172 160Q172 122 192.5 104Q213 86 242 86ZM187 -11Q157 -11 130 -2Q103 7 83 26Q63 45 51 73.5Q39 102 39 140Q39 188 60 221.5Q81 255 113.5 275Q146 295 185.5 304Q225 313 261 313H326V377Q326 409 306 426.5Q286 444 249 444Q212 444 192 425.5Q172 407 172 378V355H53V384Q53 421 69.5 449.5Q86 478 114 497.5Q142 517 180 527Q218 537 261 537Q301 537 337 527.5Q373 518 400 498Q427 478 443 447Q459 416 459 374V124Q459 106 460 87Q461 68 462 50.5Q463 33 464 19.5Q465 6 465 0H343Q343 5 341.5 24Q340 43 338 76H333Q321 49 302 32Q283 15 262.5 5.5Q242 -4 222 -7.5Q202 -11 187 -11Z" glyph-name="atilde" horiz-adv-x="517" unicode="&#227;" /><glyph d="M286 84Q318 84 336.5 103.5Q355 123 355 165V358Q355 399 335.5 416.5Q316 434 282 434Q266 434 250 427Q234 420 221.5 405.5Q209 391 201 370Q193 349 193 322V190Q193 166 201 146.5Q209 127 222.5 113Q236 99 252.5 91.5Q269 84 286 84ZM324 -12Q305 -12 284 -6Q263 0 243.5 11Q224 22 208.5 38.5Q193 55 185 76H183L179 0H61V713H193V450H196Q207 471 223.5 487.5Q240 504 259 515Q278 526 298.5 532Q319 538 338 538Q377 538 405.5 524Q434 510 452 487Q470 464 478.5 433.5Q487 403 487 369V163Q487 125 475 93Q463 61 441 38Q419 15 389.5 1.5Q360 -12 324 -12Z" glyph-name="b" horiz-adv-x="535" unicode="b" /><glyph d="M23 718H110L325 -179H236Z" glyph-name="backslash" horiz-adv-x="319" unicode="\" /><glyph d="M101 721H181V-53H101Z" glyph-name="bar" horiz-adv-x="282" unicode="|" /><glyph d="M52 553H545V0H52Z" glyph-name="blacksmallsquare" horiz-adv-x="597" unicode="&#9642;" /><glyph d="M46 715H669V0H46Z" glyph-name="blacksquare" horiz-adv-x="715" unicode="&#9632;" /><glyph d="M166 -176Q129 -176 105.5 -153.5Q82 -131 82 -83V189Q82 219 73.5 232Q65 245 40 247V327Q68 332 75 342Q82 352 82 375V618Q82 667 105.5 690Q129 713 167 713H273V638H210Q202 638 196 633Q190 628 190 615V385Q190 348 181 326.5Q172 305 145 294V289Q175 276 182.5 257Q190 238 190 198V-79Q190 -92 196 -96.5Q202 -101 210 -101H273V-176Z" glyph-name="braceleft" horiz-adv-x="296" unicode="{" /><glyph d="M23 -101H86Q94 -101 99.5 -96.5Q105 -92 105 -79V198Q105 238 113 257Q121 276 151 289V294Q124 305 114.5 326.5Q105 348 105 385V617Q105 639 86 639H23V714H129Q167 714 190.5 691Q214 668 214 620V375Q214 352 221 342Q228 332 254 327V247Q230 245 222 232Q214 219 214 189V-83Q214 -131 190.5 -153.5Q167 -176 129 -176H23Z" glyph-name="braceright" horiz-adv-x="296" unicode="}" /><glyph d="M80 713H269V633H195V-98H269V-176H80Z" glyph-name="bracketleft" horiz-adv-x="295" unicode="[" /><glyph d="M25 -98H99V633H25V713H215V-176H25Z" glyph-name="bracketright" horiz-adv-x="295" unicode="]" /><glyph d="M203 585Q124 585 80.5 627.5Q37 670 34 743H123Q129 705 146 684Q163 663 206 663Q241 663 258 684Q275 705 278 743H363Q361 704 348 674Q335 644 313.5 624.5Q292 605 263.5 595Q235 585 203 585Z" glyph-name="breve" horiz-adv-x="397" unicode="&#728;" /><glyph d="M100 714H186V382H100ZM100 315H186V-48H100Z" glyph-name="brokenbar" horiz-adv-x="286" unicode="&#166;" /><glyph d="M211 212Q181 212 155 223.5Q129 235 109.5 254.5Q90 274 78.5 300Q67 326 67 356Q67 386 78.5 412Q90 438 109.5 457.5Q129 477 155 488Q181 499 211 499Q240 499 266 488Q292 477 311.5 457.5Q331 438 342 412Q353 386 353 356Q353 326 342 300Q331 274 311.5 254.5Q292 235 266.5 223.5Q241 212 211 212Z" glyph-name="bullet" horiz-adv-x="420" unicode="&#8226;" /><glyph d="M257 -12Q214 -12 176 -1Q138 10 109.5 33.5Q81 57 64.5 93Q48 129 48 179V338Q48 388 65 425.5Q82 463 111 487.5Q140 512 178 524.5Q216 537 257 537Q301 537 337.5 525.5Q374 514 400 493Q426 472 440.5 441.5Q455 411 455 374V339H335V365Q335 391 318.5 413.5Q302 436 261 436Q219 436 200 412Q181 388 181 350V176Q181 136 201 112Q221 88 264 88Q284 88 297.5 95Q311 102 319.5 113Q328 124 331.5 137Q335 150 335 163V186H455V149Q455 111 440.5 81.5Q426 52 400 31Q374 10 337.5 -1Q301 -12 257 -12Z" glyph-name="c" horiz-adv-x="494" unicode="c" /><glyph d="M257 -12Q214 -12 176 -1Q138 10 109.5 33.5Q81 57 64.5 93Q48 129 48 179V338Q48 388 65 425.5Q82 463 111 487.5Q140 512 178 524.5Q216 537 257 537Q301 537 337.5 525.5Q374 514 400 493Q426 472 440.5 441.5Q455 411 455 374V339H335V365Q335 391 318.5 413.5Q302 436 261 436Q219 436 200 412Q181 388 181 350V176Q181 136 201 112Q221 88 264 88Q284 88 297.5 95Q311 102 319.5 113Q328 124 331.5 137Q335 150 335 163V186H455V149Q455 111 440.5 81.5Q426 52 400 31Q374 10 337.5 -1Q301 -12 257 -12ZM284 739H414L297 584H198Z" glyph-name="cacute" horiz-adv-x="494" unicode="&#263;" /><glyph d="M40 750H143L196 660L250 750H351L240 590H145Z" glyph-name="caron" horiz-adv-x="387" unicode="&#711;" /><glyph d="M60 713H171L141 520H51Z" glyph-name="caronSlovak" horiz-adv-x="226" unicode="&#58387;" /><glyph d="M257 -12Q214 -12 176 -1Q138 10 109.5 33.5Q81 57 64.5 93Q48 129 48 179V338Q48 388 65 425.5Q82 463 111 487.5Q140 512 178 524.5Q216 537 257 537Q301 537 337.5 525.5Q374 514 400 493Q426 472 440.5 441.5Q455 411 455 374V339H335V365Q335 391 318.5 413.5Q302 436 261 436Q219 436 200 412Q181 388 181 350V176Q181 136 201 112Q221 88 264 88Q284 88 297.5 95Q311 102 319.5 113Q328 124 331.5 137Q335 150 335 163V186H455V149Q455 111 440.5 81.5Q426 52 400 31Q374 10 337.5 -1Q301 -12 257 -12ZM102 750H205L258 660L312 750H413L302 590H207Z" glyph-name="ccaron" horiz-adv-x="494" unicode="&#269;" /><glyph d="M261 -208Q241 -208 215.5 -205.5Q190 -203 165 -196V-139Q188 -145 213 -148.5Q238 -152 256 -152Q299 -152 299 -125Q299 -111 285 -105Q271 -99 252 -98L210 -95L232 -11Q193 -8 159.5 5Q126 18 101.5 41Q77 64 62.5 98.5Q48 133 48 179V338Q48 388 65 425.5Q82 463 111 487.5Q140 512 178 524.5Q216 537 257 537Q301 537 337.5 525.5Q374 514 400 493Q426 472 440.5 441.5Q455 411 455 374V339H335V365Q335 391 318.5 413.5Q302 436 261 436Q219 436 200 412Q181 388 181 350V176Q181 136 201 112Q221 88 264 88Q284 88 297.5 95Q311 102 319.5 113Q328 124 331.5 137Q335 150 335 163V186H455V149Q455 80 409 39Q363 -2 287 -10L276 -53Q294 -53 314 -56.5Q334 -60 350.5 -67.5Q367 -75 377.5 -88Q388 -101 388 -122Q388 -142 378 -157.5Q368 -173 350.5 -184.5Q333 -196 310 -202Q287 -208 261 -208Z" glyph-name="ccedilla" horiz-adv-x="494" unicode="&#231;" /><glyph d="M257 -12Q214 -12 176 -1Q138 10 109.5 33.5Q81 57 64.5 93Q48 129 48 179V338Q48 388 65 425.5Q82 463 111 487.5Q140 512 178 524.5Q216 537 257 537Q301 537 337.5 525.5Q374 514 400 493Q426 472 440.5 441.5Q455 411 455 374V339H335V365Q335 391 318.5 413.5Q302 436 261 436Q219 436 200 412Q181 388 181 350V176Q181 136 201 112Q221 88 264 88Q284 88 297.5 95Q311 102 319.5 113Q328 124 331.5 137Q335 150 335 163V186H455V149Q455 111 440.5 81.5Q426 52 400 31Q374 10 337.5 -1Q301 -12 257 -12ZM202 745H297L403 585H300L247 674L193 585H95Z" glyph-name="ccircumflex" horiz-adv-x="494" unicode="&#265;" /><glyph d="M197 731H315V595H197ZM257 -12Q214 -12 176 -1Q138 10 109.5 33.5Q81 57 64.5 93Q48 129 48 179V338Q48 388 65 425.5Q82 463 111 487.5Q140 512 178 524.5Q216 537 257 537Q301 537 337.5 525.5Q374 514 400 493Q426 472 440.5 441.5Q455 411 455 374V339H335V365Q335 391 318.5 413.5Q302 436 261 436Q219 436 200 412Q181 388 181 350V176Q181 136 201 112Q221 88 264 88Q284 88 297.5 95Q311 102 319.5 113Q328 124 331.5 137Q335 150 335 163V186H455V149Q455 111 440.5 81.5Q426 52 400 31Q374 10 337.5 -1Q301 -12 257 -12Z" glyph-name="cdotaccent" horiz-adv-x="494" unicode="&#267;" /><glyph d="M155 -208Q135 -208 109.5 -205.5Q84 -203 59 -196V-139Q82 -145 107 -148.5Q132 -152 150 -152Q193 -152 193 -125Q193 -111 179 -105Q165 -99 146 -98L104 -95L132 11H187L170 -53Q188 -53 208 -56.5Q228 -60 244.5 -67.5Q261 -75 271.5 -88Q282 -101 282 -122Q282 -142 272 -157.5Q262 -173 244.5 -184.5Q227 -196 204 -202Q181 -208 155 -208Z" glyph-name="cedilla" horiz-adv-x="339" unicode="&#184;" /><glyph d="M215 11Q142 20 96 66Q50 112 50 197V351Q50 393 62.5 426Q75 459 97.5 483Q120 507 150 522Q180 537 215 543V617H314V543Q384 532 422.5 490Q461 448 461 388V350H342V381Q342 410 324 432Q306 454 264 454Q220 454 200.5 427.5Q181 401 181 361V195Q181 153 200 126.5Q219 100 264 100Q307 100 324.5 122.5Q342 145 342 173V205H461V163Q461 101 422.5 61.5Q384 22 314 11V-63H215Z" glyph-name="cent" horiz-adv-x="507" unicode="&#162;" /><glyph d="M145 745H240L346 585H243L190 674L136 585H38Z" glyph-name="circumflex" horiz-adv-x="377" unicode="&#710;" /><glyph d="M58 518H189V369H58ZM58 150H189V0H58Z" glyph-name="colon" horiz-adv-x="248" unicode=":" /><glyph d="M108 8H58V150H189V14L133 -134H70Z" glyph-name="comma" horiz-adv-x="248" unicode="," /><glyph d="M83 5H45V105H138V9L98 -81H58Z" glyph-name="comma.dnom" horiz-adv-x="183" unicode="&#58381;" /><glyph d="M83 323H45V423H138V327L98 237H58Z" glyph-name="comma.numr" horiz-adv-x="183" unicode="&#58401;" /><glyph d="M83 -128H45V-28H138V-124L98 -214H58Z" glyph-name="comma.sub" horiz-adv-x="183" /><glyph d="M83 385H45V485H138V389L98 299H58Z" glyph-name="comma.sup" horiz-adv-x="183" /><glyph d="M59 -35H170L139 -206H50Z" glyph-name="commaaccent" horiz-adv-x="226" unicode="&#58388;" /><glyph d="M54 667 93 776H149L132 690H171V582H54Z" glyph-name="commatop" horiz-adv-x="226" /><glyph d="M422 8Q483 8 537.5 32Q592 56 632.5 100.5Q673 145 696.5 208Q720 271 720 348Q720 427 696 490.5Q672 554 631.5 597.5Q591 641 536 664.5Q481 688 420 688Q357 688 303 664.5Q249 641 209.5 596.5Q170 552 147 489Q124 426 124 348Q124 268 147 205Q170 142 210.5 98.5Q251 55 305.5 31.5Q360 8 422 8ZM420 -50Q331 -50 262.5 -19Q194 12 147 66Q100 120 75.5 192.5Q51 265 51 348Q51 429 77.5 501Q104 573 152.5 627Q201 681 269 712.5Q337 744 420 744Q507 744 576 712.5Q645 681 693 627Q741 573 766.5 501Q792 429 792 348Q792 267 766.5 194.5Q741 122 693 67.5Q645 13 576 -18.5Q507 -50 420 -50ZM424 77Q385 77 351 87Q317 97 292 118Q267 139 252.5 170.5Q238 202 238 246V445Q238 487 252.5 518.5Q267 550 292.5 571Q318 592 351.5 603Q385 614 424 614Q460 614 492.5 604.5Q525 595 549 577Q573 559 587 532Q601 505 601 469V411H500V462Q500 485 482.5 505.5Q465 526 426 526Q384 526 366 502Q348 478 348 442V248Q348 211 365.5 188Q383 165 426 165Q465 165 482.5 185.5Q500 206 500 229V283H601V222Q601 186 587 159Q573 132 549 114Q525 96 492.5 86.5Q460 77 424 77Z" glyph-name="copyright" horiz-adv-x="842" unicode="&#169;" /><glyph d="M209 248Q256 248 278.5 276.5Q301 305 301 346Q301 388 276.5 416.5Q252 445 210 445Q164 445 141 416.5Q118 388 118 345Q118 326 124.5 308.5Q131 291 142.5 277.5Q154 264 171 256Q188 248 209 248ZM44 215 88 259Q60 299 60 346Q60 368 66.5 389Q73 410 84 427Q82 428 75.5 435Q69 442 61 450Q53 458 46.5 465Q40 472 39 473L79 512L122 469Q142 482 163.5 489.5Q185 497 209 497Q254 497 290 473L335 518L375 478L332 434Q360 394 360 345Q360 301 335 264L379 220L340 179L296 223Q277 210 255 203Q233 196 210 196Q188 196 167 202Q146 208 129 219L85 175Z" glyph-name="currency" horiz-adv-x="419" unicode="&#164;" /><glyph d="M251 91Q268 91 284.5 99Q301 107 313.5 121.5Q326 136 334 156Q342 176 342 201V338Q342 362 333 381Q324 400 310.5 413.5Q297 427 280.5 434Q264 441 249 441Q220 441 200 423.5Q180 406 180 358V167Q180 129 198.5 110Q217 91 251 91ZM198 -12Q159 -12 130.5 1.5Q102 15 83.5 38.5Q65 62 56.5 92.5Q48 123 48 158V366Q48 402 60 433.5Q72 465 94 488Q116 511 146 524Q176 537 211 537Q247 537 282 519Q317 501 340 467H341V713H474V0H351L348 81H344Q320 37 281.5 12.5Q243 -12 198 -12Z" glyph-name="d" horiz-adv-x="535" unicode="d" /><glyph d="M203 454H48V543H203V713H301V543H454V454H301V-137H203Z" glyph-name="dagger" horiz-adv-x="503" unicode="&#8224;" /><glyph d="M203 50H48V138H203V454H48V543H203V713H301V543H454V454H301V138H454V50H301V-137H203Z" glyph-name="daggerdbl" horiz-adv-x="503" unicode="&#8225;" /><glyph d="M251 91Q268 91 284.5 99Q301 107 313.5 121.5Q326 136 334 156Q342 176 342 201V338Q342 362 333 381Q324 400 310.5 413.5Q297 427 280.5 434Q264 441 249 441Q220 441 200 423.5Q180 406 180 358V167Q180 129 198.5 110Q217 91 251 91ZM198 -12Q159 -12 130.5 1.5Q102 15 83.5 38.5Q65 62 56.5 92.5Q48 123 48 158V366Q48 402 60 433.5Q72 465 94 488Q116 511 146 524Q176 537 211 537Q247 537 282 519Q317 501 340 467H341V713H474V0H351L348 81H344Q320 37 281.5 12.5Q243 -12 198 -12ZM515 713H626L596 520H506Z" glyph-name="dcaron" horiz-adv-x="535" unicode="&#271;" /><glyph d="M251 91Q268 91 284.5 99Q301 107 313.5 121.5Q326 136 334 156Q342 176 342 201V338Q342 362 333 381Q324 400 310.5 413.5Q297 427 280.5 434Q264 441 249 441Q220 441 200 423.5Q180 406 180 358V167Q180 129 198.5 110Q217 91 251 91ZM217 650H341V713H474V650H525V580H474V0H351L348 81H344Q320 37 281.5 12.5Q243 -12 198 -12Q159 -12 130.5 1.5Q102 15 83.5 38.5Q65 62 56.5 92.5Q48 123 48 158V366Q48 402 60 433.5Q72 465 94 488Q116 511 146 524Q176 537 211 537Q247 537 282 519Q317 501 340 467H341V580H217Z" glyph-name="dcroat" horiz-adv-x="535" unicode="&#273;" /><glyph d="M151 569Q174 569 189.5 585Q205 601 205 624Q205 647 191 665Q177 683 151 683Q128 683 113.5 666.5Q99 650 99 624Q99 601 114 585Q129 569 151 569ZM151 516Q125 516 104.5 525Q84 534 70 549Q56 564 48 583.5Q40 603 40 624Q40 646 48.5 666.5Q57 687 72 702Q87 717 107.5 726Q128 735 151 735Q176 735 197 726.5Q218 718 233 703Q248 688 256 668.5Q264 649 264 627Q264 604 255 584Q246 564 231 549Q216 534 195.5 525Q175 516 151 516Z" glyph-name="degree" horiz-adv-x="304" unicode="&#176;" /><glyph d="M230 730H341V595H230ZM46 730H157V595H46Z" glyph-name="dieresis" horiz-adv-x="387" unicode="&#168;" /><glyph d="M216 544H327V421H216ZM65 361H475V277H65ZM216 210H327V86H216Z" glyph-name="divide" horiz-adv-x="540" unicode="&#247;" /><glyph d="M209 29Q158 34 109 55.5Q60 77 22 115L99 200Q130 174 169 153Q208 132 263 132Q305 132 328.5 150Q352 168 352 200Q352 234 328 252Q304 270 272 283Q272 283 258 289.5Q244 296 227.5 303Q211 310 196.5 316Q182 322 182 322Q125 348 91 391.5Q57 435 57 495Q57 561 97 609.5Q137 658 209 674V748H318V680Q362 675 401.5 659Q441 643 474 616L406 527Q370 551 338 564.5Q306 578 271 578Q233 578 210 561.5Q187 545 187 513Q187 485 208.5 467Q230 449 266 434Q266 433 278.5 428Q291 423 307 416L349 398Q484 340 484 221Q484 181 471.5 149Q459 117 436.5 93.5Q414 70 384 54.5Q354 39 318 32V-46H209Z" glyph-name="dollar" horiz-adv-x="520" unicode="$" /><glyph d="M55 731H173V595H55Z" glyph-name="dotaccent" horiz-adv-x="228" unicode="&#729;" /><glyph d="M61 525H193V0H61Z" glyph-name="dotlessi" horiz-adv-x="253" unicode="&#305;" /><glyph d="M61 -188Q41 -188 28 -187Q15 -186 0 -183V-75Q4 -76 12.5 -76.5Q21 -77 27 -77Q56 -77 63.5 -61Q71 -45 71 -20V525H203V-44Q203 -117 163.5 -152.5Q124 -188 61 -188Z" glyph-name="dotlessj" horiz-adv-x="262" unicode="&#567;" /><glyph d="M339 311V355Q339 389 321 415Q303 441 260 441Q220 441 200.5 415.5Q181 390 181 357V311ZM265 -12Q220 -12 180.5 -0.5Q141 11 111.5 35Q82 59 65 96.5Q48 134 48 186V325Q48 377 65.5 417Q83 457 112 483.5Q141 510 180 523.5Q219 537 262 537Q307 537 344.5 524Q382 511 409 486Q436 461 451 425Q466 389 466 343V227H181V183Q181 133 211 113Q241 93 287 93Q329 93 364.5 104.5Q400 116 423 125L453 37Q412 11 363.5 -0.5Q315 -12 265 -12Z" glyph-name="e" horiz-adv-x="510" unicode="e" /><glyph d="M339 311V355Q339 389 321 415Q303 441 260 441Q220 441 200.5 415.5Q181 390 181 357V311ZM265 -12Q220 -12 180.5 -0.5Q141 11 111.5 35Q82 59 65 96.5Q48 134 48 186V325Q48 377 65.5 417Q83 457 112 483.5Q141 510 180 523.5Q219 537 262 537Q307 537 344.5 524Q382 511 409 486Q436 461 451 425Q466 389 466 343V227H181V183Q181 133 211 113Q241 93 287 93Q329 93 364.5 104.5Q400 116 423 125L453 37Q412 11 363.5 -0.5Q315 -12 265 -12ZM299 739H429L312 584H213Z" glyph-name="eacute" horiz-adv-x="510" unicode="&#233;" /><glyph d="M258 585Q179 585 135.5 627.5Q92 670 89 743H178Q184 705 201 684Q218 663 261 663Q296 663 313 684Q330 705 333 743H418Q416 704 403 674Q390 644 368.5 624.5Q347 605 318.5 595Q290 585 258 585ZM339 311V355Q339 389 321 415Q303 441 260 441Q220 441 200.5 415.5Q181 390 181 357V311ZM265 -12Q220 -12 180.5 -0.5Q141 11 111.5 35Q82 59 65 96.5Q48 134 48 186V325Q48 377 65.5 417Q83 457 112 483.5Q141 510 180 523.5Q219 537 262 537Q307 537 344.5 524Q382 511 409 486Q436 461 451 425Q466 389 466 343V227H181V183Q181 133 211 113Q241 93 287 93Q329 93 364.5 104.5Q400 116 423 125L453 37Q412 11 363.5 -0.5Q315 -12 265 -12Z" glyph-name="ebreve" horiz-adv-x="510" unicode="&#277;" /><glyph d="M339 311V355Q339 389 321 415Q303 441 260 441Q220 441 200.5 415.5Q181 390 181 357V311ZM265 -12Q220 -12 180.5 -0.5Q141 11 111.5 35Q82 59 65 96.5Q48 134 48 186V325Q48 377 65.5 417Q83 457 112 483.5Q141 510 180 523.5Q219 537 262 537Q307 537 344.5 524Q382 511 409 486Q436 461 451 425Q466 389 466 343V227H181V183Q181 133 211 113Q241 93 287 93Q329 93 364.5 104.5Q400 116 423 125L453 37Q412 11 363.5 -0.5Q315 -12 265 -12ZM99 750H202L255 660L309 750H410L299 590H204Z" glyph-name="ecaron" horiz-adv-x="510" unicode="&#283;" /><glyph d="M339 311V355Q339 389 321 415Q303 441 260 441Q220 441 200.5 415.5Q181 390 181 357V311ZM265 -12Q220 -12 180.5 -0.5Q141 11 111.5 35Q82 59 65 96.5Q48 134 48 186V325Q48 377 65.5 417Q83 457 112 483.5Q141 510 180 523.5Q219 537 262 537Q307 537 344.5 524Q382 511 409 486Q436 461 451 425Q466 389 466 343V227H181V183Q181 133 211 113Q241 93 287 93Q329 93 364.5 104.5Q400 116 423 125L453 37Q412 11 363.5 -0.5Q315 -12 265 -12ZM215 745H310L416 585H313L260 674L206 585H108Z" glyph-name="ecircumflex" horiz-adv-x="510" unicode="&#234;" /><glyph d="M339 311V355Q339 389 321 415Q303 441 260 441Q220 441 200.5 415.5Q181 390 181 357V311ZM265 -12Q220 -12 180.5 -0.5Q141 11 111.5 35Q82 59 65 96.5Q48 134 48 186V325Q48 377 65.5 417Q83 457 112 483.5Q141 510 180 523.5Q219 537 262 537Q307 537 344.5 524Q382 511 409 486Q436 461 451 425Q466 389 466 343V227H181V183Q181 133 211 113Q241 93 287 93Q329 93 364.5 104.5Q400 116 423 125L453 37Q412 11 363.5 -0.5Q315 -12 265 -12ZM300 730H411V595H300ZM116 730H227V595H116Z" glyph-name="edieresis" horiz-adv-x="510" unicode="&#235;" /><glyph d="M195 731H313V595H195ZM339 311V355Q339 389 321 415Q303 441 260 441Q220 441 200.5 415.5Q181 390 181 357V311ZM265 -12Q220 -12 180.5 -0.5Q141 11 111.5 35Q82 59 65 96.5Q48 134 48 186V325Q48 377 65.5 417Q83 457 112 483.5Q141 510 180 523.5Q219 537 262 537Q307 537 344.5 524Q382 511 409 486Q436 461 451 425Q466 389 466 343V227H181V183Q181 133 211 113Q241 93 287 93Q329 93 364.5 104.5Q400 116 423 125L453 37Q412 11 363.5 -0.5Q315 -12 265 -12Z" glyph-name="edotaccent" horiz-adv-x="510" unicode="&#279;" /><glyph d="M109 739H240L326 584H228ZM339 311V355Q339 389 321 415Q303 441 260 441Q220 441 200.5 415.5Q181 390 181 357V311ZM265 -12Q220 -12 180.5 -0.5Q141 11 111.5 35Q82 59 65 96.5Q48 134 48 186V325Q48 377 65.5 417Q83 457 112 483.5Q141 510 180 523.5Q219 537 262 537Q307 537 344.5 524Q382 511 409 486Q436 461 451 425Q466 389 466 343V227H181V183Q181 133 211 113Q241 93 287 93Q329 93 364.5 104.5Q400 116 423 125L453 37Q412 11 363.5 -0.5Q315 -12 265 -12Z" glyph-name="egrave" horiz-adv-x="510" unicode="&#232;" /><glyph d="M280 408Q298 408 314 413.5Q330 419 342 429Q354 439 361.5 453Q369 467 369 484V544Q369 563 361 577Q353 591 340.5 600Q328 609 311.5 613.5Q295 618 277 618Q261 618 246 613Q231 608 219 599Q207 590 199.5 576.5Q192 563 192 546V483Q192 464 199.5 450Q207 436 219.5 426.5Q232 417 247.5 412.5Q263 408 280 408ZM279 95Q321 95 346 115Q371 135 371 172V236Q371 257 363 272Q355 287 342 296.5Q329 306 312.5 311Q296 316 279 316Q262 316 245.5 311Q229 306 216.5 296.5Q204 287 196.5 273Q189 259 189 241V170Q189 135 214.5 115Q240 95 279 95ZM279 -12Q230 -12 188 -1.5Q146 9 115.5 31Q85 53 67.5 86.5Q50 120 50 165V227Q50 275 76.5 310Q103 345 140 362Q121 369 105.5 382Q90 395 79.5 411.5Q69 428 63.5 446.5Q58 465 58 483V547Q58 590 76 623.5Q94 657 124 679.5Q154 702 194 713.5Q234 725 279 725Q324 725 364 714Q404 703 434 681.5Q464 660 482 627Q500 594 500 550V489Q500 447 477.5 413Q455 379 417 362Q455 348 482 313Q509 278 509 232V163Q509 121 491 88Q473 55 442 33Q411 11 369 -0.5Q327 -12 279 -12Z" glyph-name="eight" horiz-adv-x="559" unicode="8" /><glyph d="M272 408Q290 408 306 413.5Q322 419 334 429Q346 439 353.5 453Q361 467 361 484V544Q361 563 353 577Q345 591 332.5 600Q320 609 303.5 613.5Q287 618 269 618Q253 618 238 613Q223 608 211 599Q199 590 191.5 576.5Q184 563 184 546V483Q184 464 191.5 450Q199 436 211.5 426.5Q224 417 239.5 412.5Q255 408 272 408ZM271 95Q313 95 338 115Q363 135 363 172V236Q363 257 355 272Q347 287 334 296.5Q321 306 304.5 311Q288 316 271 316Q254 316 237.5 311Q221 306 208.5 296.5Q196 287 188.5 273Q181 259 181 241V170Q181 135 206.5 115Q232 95 271 95ZM271 -12Q222 -12 180 -1.5Q138 9 107.5 31Q77 53 59.5 86.5Q42 120 42 165V227Q42 275 68.5 310Q95 345 132 362Q113 369 97.5 382Q82 395 71.5 411.5Q61 428 55.5 446.5Q50 465 50 483V547Q50 590 68 623.5Q86 657 116 679.5Q146 702 186 713.5Q226 725 271 725Q316 725 356 714Q396 703 426 681.5Q456 660 474 627Q492 594 492 550V489Q492 447 469.5 413Q447 379 409 362Q447 348 474 313Q501 278 501 232V163Q501 121 483 88Q465 55 434 33Q403 11 361 -0.5Q319 -12 271 -12Z" glyph-name="eight.LT" horiz-adv-x="540" unicode="&#58696;" /><glyph d="M171 228Q191 228 203.5 238.5Q216 249 216 268V294Q216 314 201.5 324Q187 334 169 334Q152 334 137.5 324Q123 314 123 297V267Q123 247 137.5 237.5Q152 228 171 228ZM170 55Q217 55 217 97V124Q217 146 202 155.5Q187 165 170 165Q151 165 136.5 155.5Q122 146 122 126V96Q122 76 136 65.5Q150 55 170 55ZM170 -12Q109 -12 69.5 13Q30 38 30 94V121Q30 147 43.5 166.5Q57 186 80 197Q59 206 47 226.5Q35 247 35 267V295Q35 321 46 341Q57 361 75.5 374.5Q94 388 118.5 395Q143 402 170 402Q197 402 221.5 395.5Q246 389 264.5 376Q283 363 294 343Q305 323 305 297V269Q305 246 292.5 227Q280 208 260 198Q280 188 295.5 168Q311 148 311 124V92Q311 67 300 47.5Q289 28 270 15Q251 2 225 -5Q199 -12 170 -12Z" glyph-name="eight.dnom" horiz-adv-x="341" unicode="&#58378;" /><glyph d="M171 546Q191 546 203.5 556.5Q216 567 216 586V612Q216 632 201.5 642Q187 652 169 652Q152 652 137.5 642Q123 632 123 615V585Q123 565 137.5 555.5Q152 546 171 546ZM170 373Q217 373 217 415V442Q217 464 202 473.5Q187 483 170 483Q151 483 136.5 473.5Q122 464 122 444V414Q122 394 136 383.5Q150 373 170 373ZM170 306Q109 306 69.5 331Q30 356 30 412V439Q30 465 43.5 484.5Q57 504 80 515Q59 524 47 544.5Q35 565 35 585V613Q35 639 46 659Q57 679 75.5 692.5Q94 706 118.5 713Q143 720 170 720Q197 720 221.5 713.5Q246 707 264.5 694Q283 681 294 661Q305 641 305 615V587Q305 564 292.5 545Q280 526 260 516Q280 506 295.5 486Q311 466 311 442V410Q311 385 300 365.5Q289 346 270 333Q251 320 225 313Q199 306 170 306Z" glyph-name="eight.numr" horiz-adv-x="341" unicode="&#58398;" /><glyph d="M478 150H603V0H478ZM269 150H393V0H269ZM58 150H184V0H58Z" glyph-name="ellipsis" horiz-adv-x="661" unicode="&#8230;" /><glyph d="M101 693H411V601H101ZM339 311V355Q339 389 321 415Q303 441 260 441Q220 441 200.5 415.5Q181 390 181 357V311ZM265 -12Q220 -12 180.5 -0.5Q141 11 111.5 35Q82 59 65 96.5Q48 134 48 186V325Q48 377 65.5 417Q83 457 112 483.5Q141 510 180 523.5Q219 537 262 537Q307 537 344.5 524Q382 511 409 486Q436 461 451 425Q466 389 466 343V227H181V183Q181 133 211 113Q241 93 287 93Q329 93 364.5 104.5Q400 116 423 125L453 37Q412 11 363.5 -0.5Q315 -12 265 -12Z" glyph-name="emacron" horiz-adv-x="510" unicode="&#275;" /><glyph d="M0 347H779V265H0Z" glyph-name="emdash" horiz-adv-x="779" unicode="&#8212;" /><glyph d="M0 347H461V265H0Z" glyph-name="endash" horiz-adv-x="461" unicode="&#8211;" /><glyph d="M343 -188Q323 -188 310 -187Q297 -186 282 -183V-75Q286 -76 294.5 -76.5Q303 -77 309 -77Q338 -77 345.5 -61Q353 -45 353 -20V358Q353 393 337.5 413.5Q322 434 284 434Q267 434 251 426.5Q235 419 222 405Q209 391 201 371.5Q193 352 193 328V0H61V525H188V445H190Q216 493 257 515Q298 537 347 537Q374 537 399 526.5Q424 516 443 497Q462 478 473.5 451.5Q485 425 485 392V-44Q485 -117 445.5 -152.5Q406 -188 343 -188Z" glyph-name="eng" horiz-adv-x="541" unicode="&#331;" /><glyph d="M339 311V355Q339 389 321 415Q303 441 260 441Q220 441 200.5 415.5Q181 390 181 357V311ZM265 -12Q220 -12 180.5 -0.5Q141 11 111.5 35Q82 59 65 96.5Q48 134 48 186V325Q48 377 65.5 417Q83 457 112 483.5Q141 510 180 523.5Q219 537 262 537Q307 537 344.5 524Q382 511 409 486Q436 461 451 425Q466 389 466 343V227H181V183Q181 133 211 113Q241 93 287 93Q329 93 364.5 104.5Q400 116 423 125L453 37Q445 32 437.5 28Q430 24 422 20Q390 3 370.5 -28Q351 -59 351 -90Q351 -114 364 -126.5Q377 -139 399 -139Q412 -139 428 -133Q444 -127 455 -119L486 -177Q469 -190 442.5 -198.5Q416 -207 381 -207Q360 -207 340.5 -201.5Q321 -196 306 -184Q291 -172 281.5 -154Q272 -136 272 -111Q272 -81 284 -55Q296 -29 315 -9Q289 -12 265 -12Z" glyph-name="eogonek" horiz-adv-x="509" unicode="&#281;" /><glyph d="M61 449H478V356H61ZM61 273H478V180H61Z" glyph-name="equal" horiz-adv-x="540" unicode="=" /><glyph d="M263 89Q307 89 324 114.5Q341 140 341 178V330Q341 368 322 393.5Q303 419 262 419Q220 419 200.5 393Q181 367 181 327V176Q181 138 200 113.5Q219 89 263 89ZM262 -12Q219 -12 180 -2Q141 8 112 30.5Q83 53 65.5 89.5Q48 126 48 178V321Q48 363 61 397.5Q74 432 97 456.5Q120 481 151.5 494.5Q183 508 219 509Q221 509 232 508.5Q243 508 251 505L204 574L93 542L59 611L158 639L116 703L250 737L290 677L391 707L425 638L335 610Q344 597 360 573.5Q376 550 392.5 525.5Q409 501 422 481Q435 461 439 455Q454 432 464.5 399.5Q475 367 475 332V182Q475 131 457.5 94Q440 57 411 33.5Q382 10 343.5 -1Q305 -12 262 -12Z" glyph-name="eth" horiz-adv-x="523" unicode="&#240;" /><glyph d="M68 150H193V0H68ZM66 461V713H196V461L171 215H90Z" glyph-name="exclam" horiz-adv-x="262" unicode="!" /><glyph d="M68 554H194V405H68ZM66 94 90 340H171L196 94V-159H66Z" glyph-name="exclamdown" horiz-adv-x="262" unicode="&#161;" /><glyph d="M97 413H31V520H97V582Q97 619 108.5 646Q120 673 140.5 691Q161 709 189 717.5Q217 726 249 726Q271 726 291.5 724Q312 722 331 717V618Q322 620 306.5 621.5Q291 623 278 623Q257 623 243 613.5Q229 604 229 578V520H318V413H229V0H97Z" glyph-name="f" horiz-adv-x="351" unicode="f" /><glyph d="M97 413H31V520H97V582Q97 619 108.5 646Q120 673 140.5 691Q161 709 189 717.5Q217 726 249 726Q271 726 291.5 724Q312 722 331 717V618Q322 620 306.5 621.5Q291 623 278 623Q257 623 243 613.5Q229 604 229 578V520H318V413H229V0H97ZM411 724H543V590H411ZM411 525H543V0H411Z" glyph-name="fi" horiz-adv-x="604" unicode="&#64257;" /><glyph d="M267 -12Q218 -12 178 0Q138 12 110 34Q82 56 66.5 87Q51 118 51 155V199H183V173Q183 139 207 117Q231 95 272 95Q311 95 335.5 117Q360 139 360 190V271Q360 317 336 336Q312 355 273 355Q246 355 226 343.5Q206 332 190 316L66 330L86 713H459V593H195L187 410Q214 436 251 448Q288 460 325 460Q357 460 387.5 450.5Q418 441 441.5 421Q465 401 479.5 368.5Q494 336 494 291V179Q494 132 475.5 96.5Q457 61 426 37Q395 13 354 0.5Q313 -12 267 -12Z" glyph-name="five" horiz-adv-x="538" unicode="5" /><glyph d="M265 -12Q216 -12 176 0Q136 12 108 34Q80 56 64.5 87Q49 118 49 155V199H181V173Q181 139 205 117Q229 95 270 95Q309 95 333.5 117Q358 139 358 190V271Q358 317 334 336Q310 355 271 355Q244 355 224 343.5Q204 332 188 316L64 330L84 713H457V593H193L185 410Q212 436 249 448Q286 460 323 460Q355 460 385.5 450.5Q416 441 439.5 421Q463 401 477.5 368.5Q492 336 492 291V179Q492 132 473.5 96.5Q455 61 424 37Q393 13 352 0.5Q311 -12 265 -12Z" glyph-name="five.LT" horiz-adv-x="540" unicode="&#58693;" /><glyph d="M164 -12Q104 -12 67 15Q30 42 30 87V114H118V102Q118 84 130.5 72.5Q143 61 166 61Q188 61 201 73.5Q214 86 214 113V145Q214 169 200 180.5Q186 192 166 192Q152 192 140.5 184.5Q129 177 121 169L36 178L46 394H286V318H124Q124 313 123 300Q122 287 121.5 273Q121 259 120 246Q119 233 119 228Q136 241 157 247Q178 253 198 253Q217 253 237 247.5Q257 242 273 230Q289 218 299 199.5Q309 181 309 154V102Q309 74 296.5 53Q284 32 263.5 17.5Q243 3 217 -4.5Q191 -12 164 -12Z" glyph-name="five.dnom" horiz-adv-x="339" unicode="&#58375;" /><glyph d="M164 306Q104 306 67 333Q30 360 30 405V432H118V420Q118 402 130.5 390.5Q143 379 166 379Q188 379 201 391.5Q214 404 214 431V463Q214 487 200 498.5Q186 510 166 510Q152 510 140.5 502.5Q129 495 121 487L36 496L46 712H286V636H124Q124 631 123 618Q122 605 121.5 591Q121 577 120 564Q119 551 119 546Q136 559 157 565Q178 571 198 571Q217 571 237 565.5Q257 560 273 548Q289 536 299 517.5Q309 499 309 472V420Q309 392 296.5 371Q284 350 263.5 335.5Q243 321 217 313.5Q191 306 164 306Z" glyph-name="five.numr" horiz-adv-x="339" unicode="&#58395;" /><glyph d="M97 413H31V520H97V582Q97 619 108.5 646Q120 673 140.5 691Q161 709 189 717.5Q217 726 249 726Q271 726 291.5 724Q312 722 331 717V618Q322 620 306.5 621.5Q291 623 278 623Q257 623 243 613.5Q229 604 229 578V520H318V413H229V0H97ZM540 -9Q477 -9 442 22Q407 53 407 113V713H540V148Q540 128 549.5 115.5Q559 103 587 103Q595 103 605 104Q615 105 624 107V6Q583 -9 540 -9Z" glyph-name="fl" horiz-adv-x="650" unicode="&#64258;" /><glyph d="M90 -188Q70 -188 52.5 -186.5Q35 -185 20 -181L27 -82Q31 -83 39.5 -83.5Q48 -84 54 -84Q84 -84 92.5 -68.5Q101 -53 103 -27L130 375H55L60 467H135L143 582Q146 617 158.5 644.5Q171 672 191.5 691Q212 710 238 720Q264 730 293 730Q312 730 334.5 728Q357 726 378 718L373 626Q363 628 350 629Q337 630 323 630Q302 630 287 617.5Q272 605 270 578L263 467H353L348 375H258L232 -40Q230 -112 191.5 -150Q153 -188 90 -188Z" glyph-name="florin" horiz-adv-x="392" unicode="&#402;" /><glyph d="M327 159H43V263L273 713H425L177 270H327V375L455 451V270H525V159H455V0H327Z" glyph-name="four" horiz-adv-x="563" unicode="4" /><glyph d="M315 159H31V263L261 713H413L165 270H315V375L443 451V270H513V159H443V0H315Z" glyph-name="four.LT" horiz-adv-x="540" unicode="&#58692;" /><glyph d="M180 86H18V153L161 396H259L110 158H180V209L274 273V158H315V86H274V0H180Z" glyph-name="four.dnom" horiz-adv-x="330" unicode="&#58374;" /><glyph d="M180 404H18V471L161 714H259L110 476H180V527L274 591V476H315V404H274V318H180Z" glyph-name="four.numr" horiz-adv-x="330" unicode="&#58394;" /><glyph d="M219 718H285L-104 -2H-170Z" glyph-name="fraction" horiz-adv-x="116" unicode="&#8260;" /><glyph d="M251 116Q268 116 284 124Q300 132 313 147Q326 162 333.5 183Q341 204 341 230V343Q341 367 332.5 385Q324 403 311 416Q298 429 282.5 435.5Q267 442 252 442Q180 442 180 354V196Q180 158 196.5 137Q213 116 251 116ZM247 -188Q195 -188 144.5 -178.5Q94 -169 56 -151L93 -49Q126 -63 164 -73Q202 -83 238 -83Q290 -83 316 -62Q342 -41 342 6V110H341Q321 64 283 41Q245 18 204 18Q126 18 87 63Q48 108 48 177V374Q48 411 61 441.5Q74 472 97 493.5Q120 515 150 526.5Q180 538 215 538Q234 538 254.5 532.5Q275 527 294 516.5Q313 506 328.5 490.5Q344 475 353 456H354L358 526H475V30Q475 -76 415.5 -132Q356 -188 247 -188Z" glyph-name="g" horiz-adv-x="534" unicode="g" /><glyph d="M261 585Q182 585 138.5 627.5Q95 670 92 743H181Q187 705 204 684Q221 663 264 663Q299 663 316 684Q333 705 336 743H421Q419 704 406 674Q393 644 371.5 624.5Q350 605 321.5 595Q293 585 261 585ZM251 116Q268 116 284 124Q300 132 313 147Q326 162 333.5 183Q341 204 341 230V343Q341 367 332.5 385Q324 403 311 416Q298 429 282.5 435.5Q267 442 252 442Q180 442 180 354V196Q180 158 196.5 137Q213 116 251 116ZM247 -188Q195 -188 144.5 -178.5Q94 -169 56 -151L93 -49Q126 -63 164 -73Q202 -83 238 -83Q290 -83 316 -62Q342 -41 342 6V110H341Q321 64 283 41Q245 18 204 18Q126 18 87 63Q48 108 48 177V374Q48 411 61 441.5Q74 472 97 493.5Q120 515 150 526.5Q180 538 215 538Q234 538 254.5 532.5Q275 527 294 516.5Q313 506 328.5 490.5Q344 475 353 456H354L358 526H475V30Q475 -76 415.5 -132Q356 -188 247 -188Z" glyph-name="gbreve" horiz-adv-x="534" unicode="&#287;" /><glyph d="M251 116Q268 116 284 124Q300 132 313 147Q326 162 333.5 183Q341 204 341 230V343Q341 367 332.5 385Q324 403 311 416Q298 429 282.5 435.5Q267 442 252 442Q180 442 180 354V196Q180 158 196.5 137Q213 116 251 116ZM247 -188Q195 -188 144.5 -178.5Q94 -169 56 -151L93 -49Q126 -63 164 -73Q202 -83 238 -83Q290 -83 316 -62Q342 -41 342 6V110H341Q321 64 283 41Q245 18 204 18Q126 18 87 63Q48 108 48 177V374Q48 411 61 441.5Q74 472 97 493.5Q120 515 150 526.5Q180 538 215 538Q234 538 254.5 532.5Q275 527 294 516.5Q313 506 328.5 490.5Q344 475 353 456H354L358 526H475V30Q475 -76 415.5 -132Q356 -188 247 -188ZM216 745H311L417 585H314L261 674L207 585H109Z" glyph-name="gcircumflex" horiz-adv-x="534" unicode="&#285;" /><glyph d="M191 669 230 778H286L269 692H308V584H191ZM251 116Q268 116 284 124Q300 132 313 147Q326 162 333.5 183Q341 204 341 230V343Q341 367 332.5 385Q324 403 311 416Q298 429 282.5 435.5Q267 442 252 442Q180 442 180 354V196Q180 158 196.5 137Q213 116 251 116ZM247 -188Q195 -188 144.5 -178.5Q94 -169 56 -151L93 -49Q126 -63 164 -73Q202 -83 238 -83Q290 -83 316 -62Q342 -41 342 6V110H341Q321 64 283 41Q245 18 204 18Q126 18 87 63Q48 108 48 177V374Q48 411 61 441.5Q74 472 97 493.5Q120 515 150 526.5Q180 538 215 538Q234 538 254.5 532.5Q275 527 294 516.5Q313 506 328.5 490.5Q344 475 353 456H354L358 526H475V30Q475 -76 415.5 -132Q356 -188 247 -188Z" glyph-name="gcommaaccent" horiz-adv-x="534" unicode="&#291;" /><glyph d="M207 731H325V595H207ZM251 116Q268 116 284 124Q300 132 313 147Q326 162 333.5 183Q341 204 341 230V343Q341 367 332.5 385Q324 403 311 416Q298 429 282.5 435.5Q267 442 252 442Q180 442 180 354V196Q180 158 196.5 137Q213 116 251 116ZM247 -188Q195 -188 144.5 -178.5Q94 -169 56 -151L93 -49Q126 -63 164 -73Q202 -83 238 -83Q290 -83 316 -62Q342 -41 342 6V110H341Q321 64 283 41Q245 18 204 18Q126 18 87 63Q48 108 48 177V374Q48 411 61 441.5Q74 472 97 493.5Q120 515 150 526.5Q180 538 215 538Q234 538 254.5 532.5Q275 527 294 516.5Q313 506 328.5 490.5Q344 475 353 456H354L358 526H475V30Q475 -76 415.5 -132Q356 -188 247 -188Z" glyph-name="gdotaccent" horiz-adv-x="534" unicode="&#289;" /><glyph d="M423 -11Q375 -11 337 2.5Q299 16 268 42L313 133Q335 117 358.5 104Q382 91 412 91Q447 91 464.5 110.5Q482 130 482 162Q482 191 468 214Q454 237 431 254Q408 271 378.5 282.5Q349 294 318 300V405L343 406Q378 423 399.5 455.5Q421 488 421 526Q421 569 398.5 594.5Q376 620 326 620Q277 620 255.5 592.5Q234 565 234 523V0H102V415H36V519H102V528Q102 562 115 597.5Q128 633 156.5 661.5Q185 690 228.5 708Q272 726 334 726Q385 726 426 711.5Q467 697 495 672.5Q523 648 538 614Q553 580 553 541Q553 516 546.5 491Q540 466 527 443.5Q514 421 494.5 402.5Q475 384 449 372V370Q492 352 522.5 328Q553 304 571.5 277.5Q590 251 598.5 223.5Q607 196 607 171Q607 126 592 92Q577 58 551.5 35Q526 12 493 0.5Q460 -11 423 -11Z" glyph-name="germandbls" horiz-adv-x="643" unicode="&#223;" /><glyph d="M23 739H154L240 584H142Z" glyph-name="grave" horiz-adv-x="288" unicode="`" /><glyph d="M67 192 334 319 67 443 108 526 473 353V284L108 110Z" glyph-name="greater" horiz-adv-x="540" unicode="&gt;" /><glyph d="M66 114H478V30H66ZM71 257 355 379Q347 383 325 392Q303 401 273.5 412.5Q244 424 211 437.5Q178 451 148.5 462.5Q119 474 97 483Q75 492 67 496L104 571L472 410V346L109 182Z" glyph-name="greaterequal" horiz-adv-x="540" unicode="&#8805;" /><glyph d="M253 268 396 449 464 407 389 268 467 128 396 88ZM33 268 175 449 244 407 169 268 247 128 176 88Z" glyph-name="guillemotleft" horiz-adv-x="500" unicode="&#171;" /><glyph d="M255 131 331 270 253 409 324 450 468 270 325 89ZM35 131 111 270 33 409 104 450 247 270 105 89Z" glyph-name="guillemotright" horiz-adv-x="500" unicode="&#187;" /><glyph d="M33 268 175 449 244 407 169 268 247 128 176 88Z" glyph-name="guilsinglleft" horiz-adv-x="280" unicode="&#8249;" /><glyph d="M35 131 111 270 33 409 104 450 247 270 105 89Z" glyph-name="guilsinglright" horiz-adv-x="280" unicode="&#8250;" /><glyph d="M61 713H193V449H195Q220 494 260 515.5Q300 537 347 537Q376 537 401 526.5Q426 516 445 497Q464 478 474.5 451.5Q485 425 485 392V0H353V356Q353 391 339 412.5Q325 434 284 434Q267 434 251 426.5Q235 419 222 405Q209 391 201 371.5Q193 352 193 328V0H61Z" glyph-name="h" horiz-adv-x="542" unicode="h" /><glyph d="M12 650H61V713H193V650H317V580H193V449H195Q220 494 260 515.5Q300 537 347 537Q376 537 401 526.5Q426 516 445 497Q464 478 474.5 451.5Q485 425 485 392V0H353V356Q353 391 339 412.5Q325 434 284 434Q267 434 251 426.5Q235 419 222 405Q209 391 201 371.5Q193 352 193 328V0H61V580H12Z" glyph-name="hbar" horiz-adv-x="542" unicode="&#295;" /><glyph d="M61 713H193V449H195Q220 494 260 515.5Q300 537 347 537Q376 537 401 526.5Q426 516 445 497Q464 478 474.5 451.5Q485 425 485 392V0H353V356Q353 391 339 412.5Q325 434 284 434Q267 434 251 426.5Q235 419 222 405Q209 391 201 371.5Q193 352 193 328V0H61ZM85 922H180L286 762H183L130 851L76 762H-22Z" glyph-name="hcircumflex" horiz-adv-x="542" unicode="&#293;" /><glyph d="M283 730H394L308 582H220ZM109 730H219L142 582H51Z" glyph-name="hungarumlaut" horiz-adv-x="449" unicode="&#733;" /><glyph d="M42 351H276V253H42Z" glyph-name="hyphen" horiz-adv-x="317" unicode="-" /><glyph d="M61 724H193V590H61ZM61 525H193V0H61Z" glyph-name="i" horiz-adv-x="253" unicode="i" /><glyph d="M61 525H193V0H61ZM159 739H289L172 584H73Z" glyph-name="iacute" horiz-adv-x="253" unicode="&#237;" /><glyph d="M132 585Q53 585 9.5 627.5Q-34 670 -37 743H52Q58 705 75 684Q92 663 135 663Q170 663 187 684Q204 705 207 743H292Q290 704 277 674Q264 644 242.5 624.5Q221 605 192.5 595Q164 585 132 585ZM61 525H193V0H61Z" glyph-name="ibreve" horiz-adv-x="253" unicode="&#301;" /><glyph d="M61 525H193V0H61ZM78 745H173L279 585H176L123 674L69 585H-29Z" glyph-name="icircumflex" horiz-adv-x="253" unicode="&#238;" /><glyph d="M61 525H193V0H61ZM168 730H279V595H168ZM-16 730H95V595H-16Z" glyph-name="idieresis" horiz-adv-x="253" unicode="&#239;" /><glyph d="M61 724H193V590H61ZM61 525H193V0H61Z" glyph-name="idotaccent" horiz-adv-x="253" /><glyph d="M-47 739H84L170 584H72ZM61 525H193V0H61Z" glyph-name="igrave" horiz-adv-x="253" unicode="&#236;" /><glyph d="M291 724H423V590H291ZM281 -188Q261 -188 248 -187Q235 -186 220 -183V-75Q224 -76 232.5 -76.5Q241 -77 247 -77Q276 -77 283.5 -61Q291 -45 291 -20V525H423V-44Q423 -117 383.5 -152.5Q344 -188 281 -188ZM61 724H193V590H61ZM61 525H193V0H61Z" glyph-name="ij" horiz-adv-x="482" unicode="&#307;" /><glyph d="M-27 693H283V601H-27ZM61 525H193V0H61Z" glyph-name="imacron" horiz-adv-x="253" unicode="&#299;" /><glyph d="M597 230Q642 230 670 257.5Q698 285 698 324Q698 362 676 387.5Q654 413 606 413Q588 413 569.5 405Q551 397 533 384.5Q515 372 497 355.5Q479 339 461 321Q474 303 489 287Q504 271 520.5 258Q537 245 556 237.5Q575 230 597 230ZM217 233Q258 233 294.5 261Q331 289 365 325Q353 341 338 358Q323 375 305 389Q287 403 267 411.5Q247 420 225 420Q205 420 187 413Q169 406 156 394Q143 382 135.5 366.5Q128 351 128 333Q128 292 151.5 262.5Q175 233 217 233ZM597 155Q565 155 538.5 163.5Q512 172 488.5 186.5Q465 201 445.5 219.5Q426 238 409 258Q372 219 325 189Q278 159 222 159Q181 159 148 172Q115 185 92 207Q69 229 56.5 259Q44 289 44 323Q44 359 58 390Q72 421 96.5 443.5Q121 466 154 479Q187 492 225 492Q285 492 332 463Q379 434 417 389Q434 406 454.5 423Q475 440 499 454Q523 468 549.5 476.5Q576 485 606 485Q686 485 733.5 444Q781 403 781 331Q781 292 767.5 260Q754 228 729.5 204.5Q705 181 671 168Q637 155 597 155Z" glyph-name="infinity" horiz-adv-x="825" unicode="&#8734;" /><glyph d="M84 -187Q67 -187 44.5 -185Q22 -183 2 -177L12 -85Q20 -87 32.5 -87.5Q45 -88 56 -88Q83 -88 93.5 -73Q104 -58 106 -33L149 582Q154 653 194.5 691.5Q235 730 293 730Q312 730 334 728Q356 726 379 718L369 625Q360 627 347 628.5Q334 630 320 630Q298 630 283.5 617.5Q269 605 267 578L224 -40Q219 -111 182 -149Q145 -187 84 -187Z" glyph-name="integral" horiz-adv-x="409" unicode="&#8747;" /><glyph d="M61 724H193V590H61ZM61 525H193V0H186Q159 -13 143.5 -36Q128 -59 128 -88Q128 -111 141 -122.5Q154 -134 177 -134Q194 -134 214 -122L241 -180Q204 -203 152 -203Q133 -203 115 -197Q97 -191 82.5 -179Q68 -167 59 -148.5Q50 -130 50 -105Q50 -70 65 -44Q80 -18 101 0H61Z" glyph-name="iogonek" horiz-adv-x="253" unicode="&#303;" /><glyph d="M-56 594Q-53 618 -45 640.5Q-37 663 -23.5 680.5Q-10 698 9 708Q28 718 52 718Q71 718 90.5 712.5Q110 707 129 700Q148 693 167 687.5Q186 682 206 682Q226 682 235.5 695.5Q245 709 253 730L311 715Q308 692 300.5 670Q293 648 280 631.5Q267 615 248.5 605Q230 595 206 595Q186 595 167 600.5Q148 606 129 612.5Q110 619 91 624.5Q72 630 54 630Q33 630 24.5 617.5Q16 605 9 582ZM61 525H193V0H61Z" glyph-name="itilde" horiz-adv-x="253" unicode="&#297;" /><glyph d="M71 724H203V590H71ZM61 -188Q41 -188 28 -187Q15 -186 0 -183V-75Q4 -76 12.5 -76.5Q21 -77 27 -77Q56 -77 63.5 -61Q71 -45 71 -20V525H203V-44Q203 -117 163.5 -152.5Q124 -188 61 -188Z" glyph-name="j" horiz-adv-x="262" unicode="j" /><glyph d="M85 745H180L286 585H183L130 674L76 585H-22ZM61 -188Q41 -188 28 -187Q15 -186 0 -183V-75Q4 -76 12.5 -76.5Q21 -77 27 -77Q56 -77 63.5 -61Q71 -45 71 -20V525H203V-44Q203 -117 163.5 -152.5Q124 -188 61 -188Z" glyph-name="jcircumflex" horiz-adv-x="262" unicode="&#309;" /><glyph d="M61 713H193V299L347 525H488L359 348L490 0H350L260 251L193 158V0H61Z" glyph-name="k" horiz-adv-x="508" unicode="k" /><glyph d="M61 713H193V299L347 525H488L359 348L490 0H350L260 251L193 158V0H61ZM202 -35H313L282 -206H193Z" glyph-name="kcommaaccent" horiz-adv-x="508" unicode="&#311;" /><glyph d="M61 525H193V299L347 525H488L359 348L490 0H350L260 251L193 158V0H61Z" glyph-name="kgreenlandic" horiz-adv-x="508" unicode="&#312;" /><glyph d="M190 -9Q127 -9 92 22Q57 53 57 113V713H190V148Q190 128 199.5 115.5Q209 103 237 103Q245 103 255 104Q265 105 274 107V6Q233 -9 190 -9Z" glyph-name="l" horiz-adv-x="299" unicode="l" /><glyph d="M190 -9Q127 -9 92 22Q57 53 57 113V713H190V148Q190 128 199.5 115.5Q209 103 237 103Q245 103 255 104Q265 105 274 107V6Q233 -9 190 -9ZM164 914H294L177 759H78Z" glyph-name="lacute" horiz-adv-x="299" unicode="&#314;" /><glyph d="M190 -9Q127 -9 92 22Q57 53 57 113V713H190V148Q190 128 199.5 115.5Q209 103 237 103Q245 103 255 104Q265 105 274 107V6Q233 -9 190 -9ZM243 713H354L324 520H234Z" glyph-name="lcaron" horiz-adv-x="299" unicode="&#318;" /><glyph d="M190 -9Q127 -9 92 22Q57 53 57 113V713H190V148Q190 128 199.5 115.5Q209 103 237 103Q245 103 255 104Q265 105 274 107V6Q233 -9 190 -9ZM105 -35H216L185 -206H96Z" glyph-name="lcommaaccent" horiz-adv-x="299" unicode="&#316;" /><glyph d="M190 -9Q127 -9 92 22Q57 53 57 113V713H190V148Q190 128 199.5 115.5Q209 103 237 103Q245 103 255 104Q265 105 274 107V6Q233 -9 190 -9Z" glyph-name="ldot" horiz-adv-x="372" unicode="&#320;" /><glyph d="M67 284V353L433 526L472 443L206 318L473 191L432 109Z" glyph-name="less" horiz-adv-x="540" unicode="&lt;" /><glyph d="M62 114H474V30H62ZM68 346V410L436 571L473 496L185 379Q193 375 215 365.5Q237 356 266 344Q295 332 327 318Q359 304 388 292Q417 280 439 270.5Q461 261 469 257L431 182Z" glyph-name="lessequal" horiz-adv-x="540" unicode="&#8804;" /><glyph d="M423 274H44V354H513V144H423Z" glyph-name="logicalnot" horiz-adv-x="572" unicode="&#172;" /><glyph d="M389 342 260 594 138 350 265 108ZM43 339V351L229 713H297L482 351V339L297 0H229Z" glyph-name="lozenge" horiz-adv-x="525" unicode="&#9674;" /><glyph d="M25 340 79 379V713H212V475L283 526V437L212 386V148Q212 128 221.5 115.5Q231 103 259 103Q267 103 277 104Q287 105 296 107V6Q255 -9 212 -9Q149 -9 114 22Q79 53 79 113V290L25 252Z" glyph-name="lslash" horiz-adv-x="325" unicode="&#322;" /><glyph d="M61 525H187V443H189Q215 491 256.5 514Q298 537 347 537Q394 537 429 511Q464 485 477 446H480Q507 492 548 514.5Q589 537 638 537Q665 537 690.5 527Q716 517 735.5 498.5Q755 480 766.5 453.5Q778 427 778 394V0H646V359Q646 394 629.5 414Q613 434 577 434Q560 434 544 426.5Q528 419 515 405.5Q502 392 493.5 373Q485 354 485 331V0H353V362Q352 395 337 414.5Q322 434 284 434Q267 434 251 426.5Q235 419 222 405Q209 391 201 371.5Q193 352 193 328V0H61Z" glyph-name="m" horiz-adv-x="833" unicode="m" /><glyph d="M49 693H359V601H49Z" glyph-name="macron" horiz-adv-x="408" unicode="&#175;" /><glyph d="M64 359H476V276H64Z" glyph-name="minus" horiz-adv-x="540" unicode="&#8722;" /><glyph d="M58 526H192V174Q192 139 209.5 116Q227 93 267 93Q284 93 300 100.5Q316 108 329 121.5Q342 135 349.5 154.5Q357 174 357 197V526H490V183Q490 160 502 143Q514 126 537 121L536 -5Q486 2 448 22Q410 42 396 84Q382 46 351 17Q320 -12 268 -12Q228 -12 202 4Q176 20 165 46L160 45L185 -167L58 -178Z" glyph-name="mu" horiz-adv-x="560" unicode="&#181;" /><glyph d="M71 173 212 319 68 464 127 524 272 380Q282 391 301.5 411Q321 431 342.5 452Q364 473 383 492.5Q402 512 413 523L473 464L331 320Q363 286 402 247Q441 208 473 174L413 115L272 259Q255 243 237 224.5Q219 206 200.5 186.5Q182 167 164 148.5Q146 130 130 114Z" glyph-name="multiply" horiz-adv-x="540" unicode="&#215;" /><glyph d="M61 525H188V445H190Q216 493 257 515Q298 537 347 537Q374 537 399 526.5Q424 516 443 497Q462 478 473.5 451.5Q485 425 485 392V0H353V358Q353 393 337.5 413.5Q322 434 284 434Q267 434 251 426.5Q235 419 222 405Q209 391 201 371.5Q193 352 193 328V0H61Z" glyph-name="n" horiz-adv-x="541" unicode="n" /><glyph d="M61 525H188V445H190Q216 493 257 515Q298 537 347 537Q374 537 399 526.5Q424 516 443 497Q462 478 473.5 451.5Q485 425 485 392V0H353V358Q353 393 337.5 413.5Q322 434 284 434Q267 434 251 426.5Q235 419 222 405Q209 391 201 371.5Q193 352 193 328V0H61ZM302 739H432L315 584H216Z" glyph-name="nacute" horiz-adv-x="541" unicode="&#324;" /><glyph d="M61 525H188V445H190Q216 493 257 515Q298 537 347 537Q374 537 399 526.5Q424 516 443 497Q462 478 473.5 451.5Q485 425 485 392V0H353V358Q353 393 337.5 413.5Q322 434 284 434Q267 434 251 426.5Q235 419 222 405Q209 391 201 371.5Q193 352 193 328V0H61ZM114 750H217L270 660L324 750H425L314 590H219Z" glyph-name="ncaron" horiz-adv-x="541" unicode="&#328;" /><glyph d="M61 525H188V445H190Q216 493 257 515Q298 537 347 537Q374 537 399 526.5Q424 516 443 497Q462 478 473.5 451.5Q485 425 485 392V0H353V358Q353 393 337.5 413.5Q322 434 284 434Q267 434 251 426.5Q235 419 222 405Q209 391 201 371.5Q193 352 193 328V0H61ZM218 -35H329L298 -206H209Z" glyph-name="ncommaaccent" horiz-adv-x="541" unicode="&#326;" /><glyph d="M266 360Q303 360 331 387.5Q359 415 359 461V534Q359 567 336.5 592Q314 617 272 617Q228 617 206 593.5Q184 570 184 539V439Q184 416 191.5 400.5Q199 385 211 376Q223 367 237.5 363.5Q252 360 266 360ZM271 -11Q223 -11 183 0.5Q143 12 114.5 34Q86 56 70.5 87Q55 118 55 157V199H191V169Q191 134 214.5 115.5Q238 97 274 97Q316 97 337.5 120.5Q359 144 359 179V336Q310 263 214 263Q175 263 144.5 276Q114 289 93.5 312Q73 335 62 365Q51 395 51 430V539Q51 584 68.5 618.5Q86 653 116 677Q146 701 187 713Q228 725 275 725Q323 725 364 711.5Q405 698 435 673.5Q465 649 482 613Q499 577 499 532V191Q499 143 481.5 105.5Q464 68 433.5 42Q403 16 361 2.5Q319 -11 271 -11Z" glyph-name="nine" horiz-adv-x="550" unicode="9" /><glyph d="M262 360Q299 360 327 387.5Q355 415 355 461V534Q355 567 332.5 592Q310 617 268 617Q224 617 202 593.5Q180 570 180 539V439Q180 416 187.5 400.5Q195 385 207 376Q219 367 233.5 363.5Q248 360 262 360ZM267 -11Q219 -11 179 0.5Q139 12 110.5 34Q82 56 66.5 87Q51 118 51 157V199H187V169Q187 134 210.5 115.5Q234 97 270 97Q312 97 333.5 120.5Q355 144 355 179V336Q306 263 210 263Q171 263 140.5 276Q110 289 89.5 312Q69 335 58 365Q47 395 47 430V539Q47 584 64.5 618.5Q82 653 112 677Q142 701 183 713Q224 725 271 725Q319 725 360 711.5Q401 698 431 673.5Q461 649 478 613Q495 577 495 532V191Q495 143 477.5 105.5Q460 68 429.5 42Q399 16 357 2.5Q315 -11 267 -11Z" glyph-name="nine.LT" horiz-adv-x="540" unicode="&#58697;" /><glyph d="M165 201Q181 201 197 213Q213 225 213 251V287Q213 304 201 317Q189 330 166 330Q143 330 132.5 317.5Q122 305 122 288V242Q122 218 136 209.5Q150 201 165 201ZM165 -12Q105 -12 69.5 17.5Q34 47 34 95V110H122V101Q122 81 135.5 71.5Q149 62 169 62Q191 62 202 73.5Q213 85 213 104V174Q198 157 175 148.5Q152 140 127 140Q80 140 53.5 166Q27 192 27 231V288Q27 315 38.5 336Q50 357 70 372Q90 387 115.5 394.5Q141 402 170 402Q198 402 223 394Q248 386 267.5 371Q287 356 298.5 334.5Q310 313 310 286V111Q310 79 298 55.5Q286 32 266 17Q246 2 219.5 -5Q193 -12 165 -12Z" glyph-name="nine.dnom" horiz-adv-x="339" unicode="&#58379;" /><glyph d="M165 519Q181 519 197 531Q213 543 213 569V605Q213 622 201 635Q189 648 166 648Q143 648 132.5 635.5Q122 623 122 606V560Q122 536 136 527.5Q150 519 165 519ZM165 306Q105 306 69.5 335.5Q34 365 34 413V428H122V419Q122 399 135.5 389.5Q149 380 169 380Q191 380 202 391.5Q213 403 213 422V492Q198 475 175 466.5Q152 458 127 458Q80 458 53.5 484Q27 510 27 549V606Q27 633 38.5 654Q50 675 70 690Q90 705 115.5 712.5Q141 720 170 720Q198 720 223 712Q248 704 267.5 689Q287 674 298.5 652.5Q310 631 310 604V429Q310 397 298 373.5Q286 350 266 335Q246 320 219.5 313Q193 306 165 306Z" glyph-name="nine.numr" horiz-adv-x="339" unicode="&#58399;" /><glyph glyph-name="nonbreakingspace" horiz-adv-x="0" unicode="&#160;" /><glyph glyph-name="nonmarkingreturn" horiz-adv-x="130" /><glyph d="M141 101 177 182H64V266H217Q218 270 224.5 284Q231 298 238 313.5Q245 329 251 342.5Q257 356 259 361H64V444H298Q299 447 306 462Q313 477 321 493.5Q329 510 335.5 524.5Q342 539 343 542L413 513L382 444H476V361H343Q341 357 334.5 343.5Q328 330 321 314Q314 298 307.5 284Q301 270 300 266H476V182H260Q259 178 251.5 161.5Q244 145 235.5 126.5Q227 108 219 91.5Q211 75 210 72Z" glyph-name="notequal" horiz-adv-x="540" unicode="&#8800;" /><glyph d="M104 594Q107 618 115 640.5Q123 663 136.5 680.5Q150 698 169 708Q188 718 212 718Q231 718 250.5 712.5Q270 707 289 700Q308 693 327 687.5Q346 682 366 682Q386 682 395.5 695.5Q405 709 413 730L471 715Q468 692 460.5 670Q453 648 440 631.5Q427 615 408.5 605Q390 595 366 595Q346 595 327 600.5Q308 606 289 612.5Q270 619 251 624.5Q232 630 214 630Q193 630 184.5 617.5Q176 605 169 582ZM61 525H188V445H190Q216 493 257 515Q298 537 347 537Q374 537 399 526.5Q424 516 443 497Q462 478 473.5 451.5Q485 425 485 392V0H353V358Q353 393 337.5 413.5Q322 434 284 434Q267 434 251 426.5Q235 419 222 405Q209 391 201 371.5Q193 352 193 328V0H61Z" glyph-name="ntilde" horiz-adv-x="541" unicode="&#241;" /><glyph d="M318 261 349 470H229L201 261ZM121 182H24L34 261H129L158 470H59L69 547H167L190 715H260L239 547H357L379 715H449L427 547H522L513 470H419L390 261H489L480 182H381L358 -1H286L309 182H191L167 -1H97Z" glyph-name="numbersign" horiz-adv-x="542" unicode="#" /><glyph d="M315 261 345 470H226L198 261ZM117 182H30L41 261H126L156 470H66L76 547H163L186 715H257L236 547H353L376 715H447L425 547H509L500 470H416L388 261H475L466 182H377L354 -1H283L306 182H188L164 -1H93Z" glyph-name="numbersign.LP" horiz-adv-x="540" unicode="&#58675;" /><glyph d="M263 89Q307 89 324.5 114.5Q342 140 342 178V348Q342 386 322 411Q302 436 261 436Q218 436 199.5 409Q181 382 181 344V177Q181 137 200.5 113Q220 89 263 89ZM262 -12Q219 -12 180 -1Q141 10 112 33Q83 56 65.5 93Q48 130 48 182V338Q48 388 65 425.5Q82 463 111 487.5Q140 512 178.5 524.5Q217 537 260 537Q303 537 342 526Q381 515 410.5 491Q440 467 457.5 430Q475 393 475 341V184Q475 132 457.5 95Q440 58 410.5 34Q381 10 342.5 -1Q304 -12 262 -12Z" glyph-name="o" horiz-adv-x="523" unicode="o" /><glyph d="M263 89Q307 89 324.5 114.5Q342 140 342 178V348Q342 386 322 411Q302 436 261 436Q218 436 199.5 409Q181 382 181 344V177Q181 137 200.5 113Q220 89 263 89ZM262 -12Q219 -12 180 -1Q141 10 112 33Q83 56 65.5 93Q48 130 48 182V338Q48 388 65 425.5Q82 463 111 487.5Q140 512 178.5 524.5Q217 537 260 537Q303 537 342 526Q381 515 410.5 491Q440 467 457.5 430Q475 393 475 341V184Q475 132 457.5 95Q440 58 410.5 34Q381 10 342.5 -1Q304 -12 262 -12ZM291 739H421L304 584H205Z" glyph-name="oacute" horiz-adv-x="523" unicode="&#243;" /><glyph d="M265 585Q186 585 142.5 627.5Q99 670 96 743H185Q191 705 208 684Q225 663 268 663Q303 663 320 684Q337 705 340 743H425Q423 704 410 674Q397 644 375.5 624.5Q354 605 325.5 595Q297 585 265 585ZM263 89Q307 89 324.5 114.5Q342 140 342 178V348Q342 386 322 411Q302 436 261 436Q218 436 199.5 409Q181 382 181 344V177Q181 137 200.5 113Q220 89 263 89ZM262 -12Q219 -12 180 -1Q141 10 112 33Q83 56 65.5 93Q48 130 48 182V338Q48 388 65 425.5Q82 463 111 487.5Q140 512 178.5 524.5Q217 537 260 537Q303 537 342 526Q381 515 410.5 491Q440 467 457.5 430Q475 393 475 341V184Q475 132 457.5 95Q440 58 410.5 34Q381 10 342.5 -1Q304 -12 262 -12Z" glyph-name="obreve" horiz-adv-x="523" unicode="&#335;" /><glyph d="M263 89Q307 89 324.5 114.5Q342 140 342 178V348Q342 386 322 411Q302 436 261 436Q218 436 199.5 409Q181 382 181 344V177Q181 137 200.5 113Q220 89 263 89ZM262 -12Q219 -12 180 -1Q141 10 112 33Q83 56 65.5 93Q48 130 48 182V338Q48 388 65 425.5Q82 463 111 487.5Q140 512 178.5 524.5Q217 537 260 537Q303 537 342 526Q381 515 410.5 491Q440 467 457.5 430Q475 393 475 341V184Q475 132 457.5 95Q440 58 410.5 34Q381 10 342.5 -1Q304 -12 262 -12ZM217 745H312L418 585H315L262 674L208 585H110Z" glyph-name="ocircumflex" horiz-adv-x="523" unicode="&#244;" /><glyph d="M263 89Q307 89 324.5 114.5Q342 140 342 178V348Q342 386 322 411Q302 436 261 436Q218 436 199.5 409Q181 382 181 344V177Q181 137 200.5 113Q220 89 263 89ZM262 -12Q219 -12 180 -1Q141 10 112 33Q83 56 65.5 93Q48 130 48 182V338Q48 388 65 425.5Q82 463 111 487.5Q140 512 178.5 524.5Q217 537 260 537Q303 537 342 526Q381 515 410.5 491Q440 467 457.5 430Q475 393 475 341V184Q475 132 457.5 95Q440 58 410.5 34Q381 10 342.5 -1Q304 -12 262 -12ZM302 730H413V595H302ZM118 730H229V595H118Z" glyph-name="odieresis" horiz-adv-x="523" unicode="&#246;" /><glyph d="M633 311V355Q633 389 615 415Q597 441 554 441Q514 441 494.5 415.5Q475 390 475 357V311ZM263 89Q307 89 324.5 114.5Q342 140 342 178V348Q342 386 322 411Q302 436 261 436Q218 436 199.5 409Q181 382 181 344V180Q181 140 200.5 114.5Q220 89 263 89ZM260 -12Q217 -12 178.5 -1Q140 10 111 33Q82 56 65 93Q48 130 48 182V338Q48 388 65 425.5Q82 463 111 487.5Q140 512 178.5 524.5Q217 537 260 537Q304 537 342.5 523.5Q381 510 410 483Q438 510 475.5 523.5Q513 537 556 537Q601 537 638.5 523.5Q676 510 703 484.5Q730 459 745 422.5Q760 386 760 340V227H475V183Q475 133 506 113Q537 93 585 93Q602 93 620.5 96Q639 99 657 103.5Q675 108 690.5 113.5Q706 119 717 124L748 37Q706 11 657 -0.5Q608 -12 558 -12Q512 -12 473 1Q434 14 408 40Q380 14 341 1Q302 -12 260 -12Z" glyph-name="oe" horiz-adv-x="804" unicode="&#339;" /><glyph d="M155 -207Q134 -207 114.5 -201.5Q95 -196 80 -184Q65 -172 56 -154Q47 -136 47 -111Q47 -83 57.5 -59.5Q68 -36 85.5 -17.5Q103 1 124 14Q145 27 166 33L204 2Q169 -10 147.5 -34.5Q126 -59 126 -90Q126 -114 138.5 -126Q151 -138 174 -138Q187 -138 202.5 -132.5Q218 -127 229 -119L261 -177Q244 -190 217 -198.5Q190 -207 155 -207Z" glyph-name="ogonek" horiz-adv-x="321" unicode="&#731;" /><glyph d="M155 -207Q134 -207 114.5 -201.5Q95 -196 80 -184Q65 -172 56 -154Q47 -136 47 -111Q47 -83 57.5 -59.5Q68 -36 85 -17.5Q102 1 123 14Q144 27 164 33L195 10Q168 -6 147 -32.5Q126 -59 126 -90Q126 -114 138.5 -126.5Q151 -139 174 -139Q187 -139 202.5 -133Q218 -127 229 -119L261 -177Q244 -190 217 -198.5Q190 -207 155 -207Z" glyph-name="ogonekplus" horiz-adv-x="321" /><glyph d="M101 739H232L318 584H220ZM263 89Q307 89 324.5 114.5Q342 140 342 178V348Q342 386 322 411Q302 436 261 436Q218 436 199.5 409Q181 382 181 344V177Q181 137 200.5 113Q220 89 263 89ZM262 -12Q219 -12 180 -1Q141 10 112 33Q83 56 65.5 93Q48 130 48 182V338Q48 388 65 425.5Q82 463 111 487.5Q140 512 178.5 524.5Q217 537 260 537Q303 537 342 526Q381 515 410.5 491Q440 467 457.5 430Q475 393 475 341V184Q475 132 457.5 95Q440 58 410.5 34Q381 10 342.5 -1Q304 -12 262 -12Z" glyph-name="ograve" horiz-adv-x="523" unicode="&#242;" /><glyph d="M263 89Q307 89 324.5 114.5Q342 140 342 178V348Q342 386 322 411Q302 436 261 436Q218 436 199.5 409Q181 382 181 344V177Q181 137 200.5 113Q220 89 263 89ZM262 -12Q219 -12 180 -1Q141 10 112 33Q83 56 65.5 93Q48 130 48 182V338Q48 388 65 425.5Q82 463 111 487.5Q140 512 178.5 524.5Q217 537 260 537Q303 537 342 526Q381 515 410.5 491Q440 467 457.5 430Q475 393 475 341V184Q475 132 457.5 95Q440 58 410.5 34Q381 10 342.5 -1Q304 -12 262 -12ZM354 730H465L379 582H291ZM180 730H290L213 582H122Z" glyph-name="ohungarumlaut" horiz-adv-x="523" unicode="&#337;" /><glyph d="M263 89Q307 89 324.5 114.5Q342 140 342 178V348Q342 386 322 411Q302 436 261 436Q218 436 199.5 409Q181 382 181 344V177Q181 137 200.5 113Q220 89 263 89ZM262 -12Q219 -12 180 -1Q141 10 112 33Q83 56 65.5 93Q48 130 48 182V338Q48 388 65 425.5Q82 463 111 487.5Q140 512 178.5 524.5Q217 537 260 537Q303 537 342 526Q381 515 410.5 491Q440 467 457.5 430Q475 393 475 341V184Q475 132 457.5 95Q440 58 410.5 34Q381 10 342.5 -1Q304 -12 262 -12ZM106 693H416V601H106Z" glyph-name="omacron" horiz-adv-x="523" unicode="&#333;" /><glyph d="M126 587 50 568 40 672 188 715H261V0H126Z" glyph-name="one" horiz-adv-x="362" unicode="1" /><glyph d="M209 587 133 568 123 672 271 715H344V0H209Z" glyph-name="one.LT" horiz-adv-x="540" unicode="&#58689;" /><glyph d="M103 314 54 303 44 371 146 398H198V0H103Z" glyph-name="one.dnom" horiz-adv-x="276" unicode="&#58371;" /><glyph d="M103 632 54 621 44 689 146 716H198V318H103Z" glyph-name="one.numr" horiz-adv-x="276" unicode="&#58391;" /><glyph d="M522 718H588L199 -2H133ZM455 59 556 166Q582 195 601.5 223.5Q621 252 621 280V283Q621 301 611 314Q601 327 578 327Q555 327 544.5 314.5Q534 302 534 281V266H445V289Q445 344 482.5 372.5Q520 401 579 401Q643 401 677 368Q711 335 711 284Q711 259 703.5 237.5Q696 216 683 196Q670 176 654 157.5Q638 139 620 120L581 74H714V0H455ZM126 630 77 619 67 687 169 714H221V316H126Z" glyph-name="onehalf" horiz-adv-x="769" unicode="&#189;" /><glyph d="M525 718H591L202 -2H136ZM575 86H413V153L556 396H654L505 158H575V209L669 273V158H710V86H669V0H575ZM130 630 81 619 71 687 173 714H225V316H130Z" glyph-name="onequarter" horiz-adv-x="769" unicode="&#188;" /><glyph d="M103 694 54 683 44 751 146 778H198V380H103Z" glyph-name="onesuperior" horiz-adv-x="276" unicode="&#185;" /><glyph d="M55 338H305V263H55ZM168 444Q185 444 200.5 458.5Q216 473 216 496V536H182Q159 536 143 526Q127 516 127 489Q127 444 168 444ZM130 381Q92 381 63.5 404.5Q35 428 35 476Q35 506 49 527Q63 548 84 560.5Q105 573 130.5 578.5Q156 584 179 584H216V621Q216 661 171 661Q149 661 137.5 650Q126 639 126 624V607H45V626Q45 649 55.5 667Q66 685 84 697.5Q102 710 126.5 716.5Q151 723 179 723Q204 723 227 717Q250 711 267.5 698.5Q285 686 295 666.5Q305 647 305 620V465Q305 443 307 419.5Q309 396 310 388H226Q226 389 225.5 401Q225 413 223 431Q214 416 202 406.5Q190 397 177 391Q164 385 151.5 383Q139 381 130 381Z" glyph-name="ordfeminine" horiz-adv-x="353" unicode="&#170;" /><glyph d="M58 338H308V263H58ZM181 448Q206 448 216.5 462Q227 476 227 499V608Q227 629 216 643.5Q205 658 181 658Q156 658 145.5 643Q135 628 135 607V499Q135 476 145.5 462Q156 448 181 448ZM181 382Q154 382 129 388.5Q104 395 85 409Q66 423 55 446Q44 469 44 502V601Q44 633 55 656.5Q66 680 84.5 695Q103 710 127.5 717.5Q152 725 179 725Q207 725 232 718.5Q257 712 276 697Q295 682 306.5 659Q318 636 318 603V502Q318 470 306.5 447.5Q295 425 276 410.5Q257 396 232.5 389Q208 382 181 382Z" glyph-name="ordmasculine" horiz-adv-x="365" unicode="&#186;" /><glyph d="M263 89Q307 89 324.5 114.5Q342 140 342 178V336L223 96Q238 89 263 89ZM181 177Q181 170 181 163.5Q181 157 183 151L315 417Q294 436 261 436Q218 436 199.5 409Q181 382 181 344ZM85 -47 121 26Q87 49 67.5 87Q48 125 48 182V338Q48 388 65 425.5Q82 463 111 487.5Q140 512 178.5 524.5Q217 537 260 537Q316 537 364 517L398 585L452 558L416 486Q443 462 459 426Q475 390 475 341V184Q475 132 457.5 95Q440 58 410.5 34Q381 10 342.5 -1Q304 -12 262 -12Q215 -12 175 0L139 -73Z" glyph-name="oslash" horiz-adv-x="523" unicode="&#248;" /><glyph d="M263 89Q307 89 324.5 114.5Q342 140 342 178V336L223 96Q238 89 263 89ZM285 739H415L298 584H199ZM181 177Q181 170 181 163.5Q181 157 183 151L315 417Q294 436 261 436Q218 436 199.5 409Q181 382 181 344ZM85 -47 121 26Q87 49 67.5 87Q48 125 48 182V338Q48 388 65 425.5Q82 463 111 487.5Q140 512 178.5 524.5Q217 537 260 537Q316 537 364 517L398 585L452 558L416 486Q443 462 459 426Q475 390 475 341V184Q475 132 457.5 95Q440 58 410.5 34Q381 10 342.5 -1Q304 -12 262 -12Q215 -12 175 0L139 -73Z" glyph-name="oslashacute" horiz-adv-x="523" unicode="&#511;" /><glyph d="M75 594Q78 618 86 640.5Q94 663 107.5 680.5Q121 698 140 708Q159 718 183 718Q202 718 221.5 712.5Q241 707 260 700Q279 693 298 687.5Q317 682 337 682Q357 682 366.5 695.5Q376 709 384 730L442 715Q439 692 431.5 670Q424 648 411 631.5Q398 615 379.5 605Q361 595 337 595Q317 595 298 600.5Q279 606 260 612.5Q241 619 222 624.5Q203 630 185 630Q164 630 155.5 617.5Q147 605 140 582ZM263 89Q307 89 324.5 114.5Q342 140 342 178V348Q342 386 322 411Q302 436 261 436Q218 436 199.5 409Q181 382 181 344V177Q181 137 200.5 113Q220 89 263 89ZM262 -12Q219 -12 180 -1Q141 10 112 33Q83 56 65.5 93Q48 130 48 182V338Q48 388 65 425.5Q82 463 111 487.5Q140 512 178.5 524.5Q217 537 260 537Q303 537 342 526Q381 515 410.5 491Q440 467 457.5 430Q475 393 475 341V184Q475 132 457.5 95Q440 58 410.5 34Q381 10 342.5 -1Q304 -12 262 -12Z" glyph-name="otilde" horiz-adv-x="523" unicode="&#245;" /><glyph d="M286 84Q317 84 336 102.5Q355 121 355 164V357Q355 393 338 413.5Q321 434 282 434Q247 434 220 404Q193 374 193 318V193Q193 167 201.5 147Q210 127 223 113Q236 99 252.5 91.5Q269 84 286 84ZM61 525H188V444H190Q202 468 219.5 485.5Q237 503 256.5 514.5Q276 526 297 532Q318 538 337 538Q376 538 404 524.5Q432 511 450.5 488.5Q469 466 478 435.5Q487 405 487 371V166Q487 129 475.5 96.5Q464 64 443 40Q422 16 391.5 2Q361 -12 323 -12Q306 -12 287 -7Q268 -2 250.5 7.5Q233 17 218.5 31Q204 45 195 64H193V-178H61Z" glyph-name="p" horiz-adv-x="535" unicode="p" /><glyph d="M214 221Q172 227 141 249Q110 271 89.5 303.5Q69 336 59 376.5Q49 417 49 461Q49 510 63 555.5Q77 601 102 636Q127 671 162.5 692Q198 713 240 713H502V632H450V-82H374V632H289V-82H214Z" glyph-name="paragraph" horiz-adv-x="543" unicode="&#182;" /><glyph d="M184 -179Q154 -136 129.5 -81.5Q105 -27 87.5 32.5Q70 92 61 154Q52 216 52 275Q52 335 61 395Q70 455 87 512.5Q104 570 128.5 623Q153 676 184 721L261 719Q238 660 221 609.5Q204 559 193 507.5Q182 456 176 400Q170 344 170 275Q170 155 194.5 41Q219 -73 262 -176Z" glyph-name="parenleft" horiz-adv-x="274" unicode="(" /><glyph d="M140 -67Q100 -19 76.5 49Q53 117 53 186Q53 252 76 317.5Q99 383 140 431L182 430Q168 398 157 369.5Q146 341 139 312.5Q132 284 128.5 253.5Q125 223 125 186Q125 56 183 -65Z" glyph-name="parenleft.dnom" horiz-adv-x="201" unicode="&#58383;" /><glyph d="M140 251Q100 299 76.5 367Q53 435 53 504Q53 570 76 635.5Q99 701 140 749L182 748Q168 716 157 687.5Q146 659 139 630.5Q132 602 128.5 571.5Q125 541 125 504Q125 374 183 253Z" glyph-name="parenleft.numr" horiz-adv-x="201" unicode="&#58403;" /><glyph d="M12 -176Q55 -73 79.5 41Q104 155 104 275Q104 344 98.5 400Q93 456 81.5 507.5Q70 559 52.5 609.5Q35 660 12 719L90 721Q121 676 145.5 623Q170 570 187 512.5Q204 455 213 395Q222 335 222 275Q222 216 213 154Q204 92 186.5 32.5Q169 -27 144.5 -81.5Q120 -136 90 -179Z" glyph-name="parenright" horiz-adv-x="274" unicode=")" /><glyph d="M40 -65Q97 53 97 186Q97 223 93.5 253.5Q90 284 83 312.5Q76 341 65 369.5Q54 398 40 430L82 431Q124 383 146.5 317.5Q169 252 169 186Q169 117 145.5 49Q122 -19 82 -67Z" glyph-name="parenright.dnom" horiz-adv-x="201" unicode="&#58384;" /><glyph d="M40 253Q97 371 97 504Q97 541 93.5 571.5Q90 602 83 630.5Q76 659 65 687.5Q54 716 40 748L82 749Q124 701 146.5 635.5Q169 570 169 504Q169 435 145.5 367Q122 299 82 251Z" glyph-name="parenright.numr" horiz-adv-x="201" unicode="&#58404;" /><glyph d="M263 88Q307 88 324 113.5Q341 139 341 177V330Q341 368 323 393Q305 418 265 418Q222 418 202 392.5Q182 367 182 327V171Q182 134 200.5 111Q219 88 263 88ZM262 -12Q219 -12 180 -2Q141 8 111.5 30.5Q82 53 64.5 89.5Q47 126 47 178V321Q47 362 59 394.5Q71 427 92.5 451Q114 475 143 490.5Q172 506 206 512Q213 513 223.5 513Q234 513 246 509L106 713L253 727Q260 717 275 695Q290 673 309 644.5Q328 616 349 584.5Q370 553 388.5 525Q407 497 421 475.5Q435 454 440 445Q455 424 465 392Q475 360 475 324V182Q475 131 457.5 94Q440 57 411 33.5Q382 10 343 -1Q304 -12 262 -12Z" glyph-name="partialdiff" horiz-adv-x="523" unicode="&#8706;" /><glyph d="M573 61Q599 61 610 76Q621 91 621 108V265Q621 282 608.5 295.5Q596 309 573 309Q549 309 536.5 295.5Q524 282 524 265V107Q524 88 535.5 74.5Q547 61 573 61ZM573 -11Q547 -11 522 -3.5Q497 4 477.5 19.5Q458 35 446.5 58.5Q435 82 435 113V249Q435 280 446.5 304.5Q458 329 477 345.5Q496 362 521 370.5Q546 379 572 379Q599 379 623.5 371.5Q648 364 667.5 348.5Q687 333 698.5 309Q710 285 710 253V115Q710 85 698 61.5Q686 38 666.5 22Q647 6 622.5 -2.5Q598 -11 573 -11ZM527 720H598L239 -2H166ZM181 407Q207 407 218.5 421.5Q230 436 230 453V610Q230 627 217 641Q204 655 181 655Q156 655 144 641.5Q132 628 132 610V452Q132 433 143.5 420Q155 407 181 407ZM182 335Q155 335 129.5 343Q104 351 85 366.5Q66 382 54.5 405.5Q43 429 43 460V601Q43 632 54.5 655.5Q66 679 85 694.5Q104 710 128.5 717.5Q153 725 180 725Q207 725 232 717.5Q257 710 276.5 694.5Q296 679 307.5 655Q319 631 319 599V459Q319 429 307 406Q295 383 275.5 367Q256 351 231.5 343Q207 335 182 335Z" glyph-name="percent" horiz-adv-x="758" unicode="%" /><glyph d="M58 150H189V0H58Z" glyph-name="period" horiz-adv-x="248" unicode="." /><glyph d="M45 105H138V0H45Z" glyph-name="period.dnom" horiz-adv-x="183" unicode="&#58382;" /><glyph d="M45 423H138V318H45Z" glyph-name="period.numr" horiz-adv-x="183" unicode="&#58402;" /><glyph d="M45 -28H138V-133H45Z" glyph-name="period.sub" horiz-adv-x="183" /><glyph d="M45 485H138V380H45Z" glyph-name="period.sup" horiz-adv-x="183" /><glyph d="M58 419H189V270H58Z" glyph-name="periodcentered" horiz-adv-x="248" unicode="&#8901;" /><glyph d="M573 61Q599 61 610 76Q621 91 621 108V265Q621 282 608.5 295.5Q596 309 573 309Q549 309 536.5 295.5Q524 282 524 265V107Q524 88 535.5 74.5Q547 61 573 61ZM573 -11Q547 -11 522 -3.5Q497 4 477.5 19.5Q458 35 446.5 58.5Q435 82 435 113V249Q435 280 446.5 304.5Q458 329 477 345.5Q496 362 521 370.5Q546 379 572 379Q599 379 623.5 371.5Q648 364 667.5 348.5Q687 333 698.5 309Q710 285 710 253V115Q710 85 698 61.5Q686 38 666.5 22Q647 6 622.5 -2.5Q598 -11 573 -11ZM527 720H598L239 -2H166ZM181 407Q207 407 218.5 421.5Q230 436 230 453V610Q230 627 217 641Q204 655 181 655Q156 655 144 641.5Q132 628 132 610V452Q132 433 143.5 420Q155 407 181 407ZM182 335Q155 335 129.5 343Q104 351 85 366.5Q66 382 54.5 405.5Q43 429 43 460V601Q43 632 54.5 655.5Q66 679 85 694.5Q104 710 128.5 717.5Q153 725 180 725Q207 725 232 717.5Q257 710 276.5 694.5Q296 679 307.5 655Q319 631 319 599V459Q319 429 307 406Q295 383 275.5 367Q256 351 231.5 343Q207 335 182 335ZM895 61Q921 61 932.5 76Q944 91 944 108V265Q944 282 932 295.5Q920 309 895 309Q872 309 859.5 295.5Q847 282 847 265V107Q847 88 858.5 74.5Q870 61 895 61ZM895 -11Q869 -11 844 -3.5Q819 4 800 19.5Q781 35 769.5 58.5Q758 82 758 113V249Q758 280 769.5 304.5Q781 329 800 345.5Q819 362 843.5 370.5Q868 379 895 379Q921 379 946 371.5Q971 364 990.5 348.5Q1010 333 1021.5 309Q1033 285 1033 253V115Q1033 85 1021 61.5Q1009 38 989.5 22Q970 6 945 -2.5Q920 -11 895 -11Z" glyph-name="perthousand" horiz-adv-x="1081" unicode="&#8240;" /><glyph d="M474 -8Q421 -8 387 21.5Q353 51 353 119V415H236Q234 359 231.5 308.5Q229 258 226 207.5Q223 157 219 106Q215 55 210 0H84Q90 55 94.5 106Q99 157 102.5 207.5Q106 258 108.5 308.5Q111 359 113 415H30L44 526H546V415H473V157Q473 131 483 119Q493 107 517 107Q527 107 537 109Q547 111 555 113V7Q538 1 518 -3.5Q498 -8 474 -8Z" glyph-name="pi" horiz-adv-x="586" unicode="&#960;" /><glyph d="M229 276H64V359H229V532H312V359H476V276H312V103H229Z" glyph-name="plus" horiz-adv-x="540" unicode="+" /><glyph d="M64 115H475V30H64ZM229 332H64V416H229V571H312V416H476V332H312V182H229Z" glyph-name="plusminus" horiz-adv-x="540" unicode="&#177;" /><glyph d="M125 588H37V713H633V588H549V-133H423V588H251V-133H125Z" glyph-name="product" horiz-adv-x="671" unicode="&#8719;" /><glyph d="M248 91Q264 91 280.5 99Q297 107 310.5 121.5Q324 136 333 156.5Q342 177 342 203V335Q342 359 334 379Q326 399 313 412.5Q300 426 283.5 433.5Q267 441 249 441Q216 441 198 421.5Q180 402 180 358V164Q180 91 248 91ZM342 78H340Q316 34 276 11Q236 -12 199 -12Q160 -12 131.5 1.5Q103 15 84.5 38.5Q66 62 57 92.5Q48 123 48 157V363Q48 402 60.5 434Q73 466 94.5 489Q116 512 146 524.5Q176 537 212 537Q231 537 251.5 532Q272 527 290.5 517Q309 507 325 491.5Q341 476 351 456H353L358 526H475V-178H342Z" glyph-name="q" horiz-adv-x="532" unicode="q" /><glyph d="M164 150H298V0H164ZM170 244Q172 294 189.5 327Q207 360 235 391Q250 407 265 423Q280 439 292 456Q304 473 312 492Q320 511 320 534Q320 572 298.5 593.5Q277 615 239 615Q208 615 185 595.5Q162 576 162 536V519H48V536Q48 581 63.5 616Q79 651 106.5 675Q134 699 170.5 711Q207 723 249 723Q346 723 398.5 674Q451 625 451 537Q451 505 444 479.5Q437 454 425 432Q413 410 397 392Q381 374 364 359Q352 347 339 335.5Q326 324 315 310.5Q304 297 296.5 281.5Q289 266 288 247V215H170Z" glyph-name="question" horiz-adv-x="495" unicode="?" /><glyph d="M198 555H332V405H198ZM247 -168Q150 -168 97 -119Q44 -70 44 18Q44 49 51 75Q58 101 70.5 123Q83 145 99 163Q115 181 132 197Q143 208 156 219.5Q169 231 179.5 244.5Q190 258 197.5 273.5Q205 289 206 308V340H326V310Q324 260 306.5 227Q289 194 261 164Q246 148 231 132.5Q216 117 203.5 99.5Q191 82 183.5 63Q176 44 176 21Q176 -17 196.5 -38.5Q217 -60 256 -60Q288 -60 310.5 -40.5Q333 -21 333 19V35H446V19Q446 -26 430.5 -61Q415 -96 388 -119.5Q361 -143 325 -155.5Q289 -168 247 -168Z" glyph-name="questiondown" horiz-adv-x="495" unicode="&#191;" /><glyph d="M240 591V713H360V591L343 445H257ZM61 591V713H180V591L163 445H78Z" glyph-name="quotedbl" horiz-adv-x="420" unicode="&quot;" /><glyph d="M288 8H243V151H367V15L325 -120H261ZM97 8H53V151H177V15L134 -120H70Z" glyph-name="quotedblbase" horiz-adv-x="419" unicode="&#8222;" /><glyph d="M243 579 285 713H349L322 587H367V444H243ZM52 579 94 713H158L131 587H176V444H52Z" glyph-name="quotedblleft" horiz-adv-x="419" unicode="&#8220;" /><glyph d="M288 570H243V713H367V578L325 443H261ZM97 570H53V713H177V578L134 443H70Z" glyph-name="quotedblright" horiz-adv-x="419" unicode="&#8221;" /><glyph d="M52 579 94 713H158L131 587H176V444H52Z" glyph-name="quoteleft" horiz-adv-x="228" unicode="&#8216;" /><glyph d="M98 570H53V713H177V578L135 443H71Z" glyph-name="quoteright" horiz-adv-x="229" unicode="&#8217;" /><glyph d="M94 8 53 38 64 151 177 120 171 -18 127 -120 75 -87Z" glyph-name="quotesinglbase" horiz-adv-x="228" unicode="&#8218;" /><glyph d="M61 591V713H180V591L163 445H78Z" glyph-name="quotesingle" horiz-adv-x="241" unicode="&apos;" /><glyph d="M61 525H189V441H190Q213 486 242 508.5Q271 531 317 531Q325 531 338 530Q351 529 362 527V408Q344 410 332 410.5Q320 411 312 411Q295 411 274.5 406.5Q254 402 236 391Q218 380 205.5 360.5Q193 341 193 310V0H61Z" glyph-name="r" horiz-adv-x="381" unicode="r" /><glyph d="M61 525H189V441H190Q213 486 242 508.5Q271 531 317 531Q325 531 338 530Q351 529 362 527V408Q344 410 332 410.5Q320 411 312 411Q295 411 274.5 406.5Q254 402 236 391Q218 380 205.5 360.5Q193 341 193 310V0H61ZM230 739H360L243 584H144Z" glyph-name="racute" horiz-adv-x="383" unicode="&#341;" /><glyph d="M21 526H160L251 185H253L431 713H558L307 -1H183Z" glyph-name="radical" horiz-adv-x="572" unicode="&#8730;" /><glyph d="M61 525H189V441H190Q213 486 242 508.5Q271 531 317 531Q325 531 338 530Q351 529 362 527V408Q344 410 332 410.5Q320 411 312 411Q295 411 274.5 406.5Q254 402 236 391Q218 380 205.5 360.5Q193 341 193 310V0H61ZM42 750H145L198 660L252 750H353L242 590H147Z" glyph-name="rcaron" horiz-adv-x="381" unicode="&#345;" /><glyph d="M61 525H189V441H190Q213 486 242 508.5Q271 531 317 531Q325 531 338 530Q351 529 362 527V408Q344 410 332 410.5Q320 411 312 411Q295 411 274.5 406.5Q254 402 236 391Q218 380 205.5 360.5Q193 341 193 310V0H61ZM88 -35H199L168 -206H79Z" glyph-name="rcommaaccent" horiz-adv-x="381" unicode="&#343;" /><glyph d="M258 534Q300 534 300 574Q300 591 289 602.5Q278 614 258 614H223V534ZM166 658H268Q312 658 333.5 635Q355 612 355 578Q355 552 342 531.5Q329 511 304 500L364 397H304L250 492H223V397H166ZM253 338Q286 338 317 351Q348 364 372 388Q396 412 410.5 446Q425 480 425 523Q425 565 411 599.5Q397 634 373.5 658Q350 682 318.5 695Q287 708 253 708Q219 708 189 695Q159 682 136 658Q113 634 99.5 600Q86 566 86 523Q86 480 100 445.5Q114 411 137.5 387Q161 363 191 350.5Q221 338 253 338ZM253 297Q202 297 162 315Q122 333 94.5 364Q67 395 52 436Q37 477 37 523Q37 570 53 611Q69 652 97.5 682.5Q126 713 166 730.5Q206 748 254 748Q304 748 344.5 730.5Q385 713 413.5 682.5Q442 652 457.5 611Q473 570 473 523Q473 477 457.5 436Q442 395 413 364Q384 333 343.5 315Q303 297 253 297Z" glyph-name="registered" horiz-adv-x="510" unicode="&#174;" /><glyph d="M146 618Q168 618 180 632Q192 646 192 670Q192 693 180.5 707.5Q169 722 145 722Q123 722 112.5 707Q102 692 102 669Q102 646 114 632Q126 618 146 618ZM147 572Q103 572 76 599Q49 626 49 668Q49 711 77.5 739.5Q106 768 146 768Q191 768 218 743Q245 718 245 673Q245 652 237.5 633.5Q230 615 216.5 601.5Q203 588 185.5 580Q168 572 147 572Z" glyph-name="ring" horiz-adv-x="290" unicode="&#730;" /><glyph d="M146 613Q167 613 180 626.5Q193 640 193 665Q193 690 180.5 703Q168 716 148 716Q126 716 114 701Q102 686 102 663Q102 637 114 625Q126 613 146 613ZM147 572Q121 572 102.5 579.5Q84 587 72 600Q60 613 54 629Q48 645 48 662Q48 706 81 738L175 835L248 799L183 749Q215 741 230.5 718.5Q246 696 246 667Q246 625 218.5 598.5Q191 572 147 572Z" glyph-name="ringacute" horiz-adv-x="290" /><glyph d="M229 -12Q167 -12 115 6Q63 24 23 65L90 151Q118 128 155 108Q192 88 228 88Q263 88 283.5 101.5Q304 115 304 141Q304 170 281 182Q258 194 225 205L177 221Q114 240 83.5 279.5Q53 319 53 373Q53 403 64.5 432.5Q76 462 99.5 485.5Q123 509 157.5 523Q192 537 239 537Q346 537 416 477L351 391Q292 437 237 437Q208 437 190.5 425.5Q173 414 173 392Q173 368 187.5 357Q202 346 230 335L296 313Q365 290 398 249.5Q431 209 431 155Q431 116 415 85.5Q399 55 371.5 33Q344 11 307.5 -0.5Q271 -12 229 -12Z" glyph-name="s" horiz-adv-x="468" unicode="s" /><glyph d="M229 -12Q167 -12 115 6Q63 24 23 65L90 151Q118 128 155 108Q192 88 228 88Q263 88 283.5 101.5Q304 115 304 141Q304 170 281 182Q258 194 225 205L177 221Q114 240 83.5 279.5Q53 319 53 373Q53 403 64.5 432.5Q76 462 99.5 485.5Q123 509 157.5 523Q192 537 239 537Q346 537 416 477L351 391Q292 437 237 437Q208 437 190.5 425.5Q173 414 173 392Q173 368 187.5 357Q202 346 230 335L296 313Q365 290 398 249.5Q431 209 431 155Q431 116 415 85.5Q399 55 371.5 33Q344 11 307.5 -0.5Q271 -12 229 -12ZM259 739H389L272 584H173Z" glyph-name="sacute" horiz-adv-x="469" unicode="&#347;" /><glyph d="M232 -12Q170 -12 118 6Q66 24 26 65L93 151Q121 128 158 108Q195 88 231 88Q266 88 286.5 101.5Q307 115 307 141Q307 170 284 182Q261 194 228 205L180 221Q117 240 86.5 279.5Q56 319 56 373Q56 403 67.5 432.5Q79 462 102.5 485.5Q126 509 160.5 523Q195 537 242 537Q349 537 419 477L354 391Q295 437 240 437Q211 437 193.5 425.5Q176 414 176 392Q176 368 190.5 357Q205 346 233 335L299 313Q368 290 401 249.5Q434 209 434 155Q434 116 418 85.5Q402 55 374.5 33Q347 11 310.5 -0.5Q274 -12 232 -12ZM89 750H192L245 660L299 750H400L289 590H194Z" glyph-name="scaron" horiz-adv-x="468" unicode="&#353;" /><glyph d="M231 -208Q211 -208 185.5 -205.5Q160 -203 135 -196V-139Q158 -145 183 -148.5Q208 -152 226 -152Q269 -152 269 -125Q269 -111 255 -105Q241 -99 222 -98L180 -95L202 -11Q148 -8 103 10.5Q58 29 23 65L90 151Q118 128 155 108Q192 88 228 88Q263 88 283.5 101.5Q304 115 304 141Q304 170 281 182Q258 194 225 205L177 221Q114 240 83.5 279.5Q53 319 53 373Q53 403 64.5 432.5Q76 462 99.5 485.5Q123 509 157.5 523Q192 537 239 537Q346 537 416 477L351 391Q292 437 237 437Q208 437 190.5 425.5Q173 414 173 392Q173 368 187.5 357Q202 346 230 335L296 313Q365 290 398 249.5Q431 209 431 155Q431 120 417.5 91Q404 62 380.5 41Q357 20 325.5 7Q294 -6 257 -10L246 -53Q264 -53 284 -56.5Q304 -60 320.5 -67.5Q337 -75 347.5 -88Q358 -101 358 -122Q358 -142 348 -157.5Q338 -173 320.5 -184.5Q303 -196 280 -202Q257 -208 231 -208Z" glyph-name="scedilla" horiz-adv-x="468" unicode="&#351;" /><glyph d="M229 -12Q167 -12 115 6Q63 24 23 65L90 151Q118 128 155 108Q192 88 228 88Q263 88 283.5 101.5Q304 115 304 141Q304 170 281 182Q258 194 225 205L177 221Q114 240 83.5 279.5Q53 319 53 373Q53 403 64.5 432.5Q76 462 99.5 485.5Q123 509 157.5 523Q192 537 239 537Q346 537 416 477L351 391Q292 437 237 437Q208 437 190.5 425.5Q173 414 173 392Q173 368 187.5 357Q202 346 230 335L296 313Q365 290 398 249.5Q431 209 431 155Q431 116 415 85.5Q399 55 371.5 33Q344 11 307.5 -0.5Q271 -12 229 -12ZM192 745H287L393 585H290L237 674L183 585H85Z" glyph-name="scircumflex" horiz-adv-x="468" unicode="&#349;" /><glyph d="M229 -12Q167 -12 115 6Q63 24 23 65L90 151Q118 128 155 108Q192 88 228 88Q263 88 283.5 101.5Q304 115 304 141Q304 170 281 182Q258 194 225 205L177 221Q114 240 83.5 279.5Q53 319 53 373Q53 403 64.5 432.5Q76 462 99.5 485.5Q123 509 157.5 523Q192 537 239 537Q346 537 416 477L351 391Q292 437 237 437Q208 437 190.5 425.5Q173 414 173 392Q173 368 187.5 357Q202 346 230 335L296 313Q365 290 398 249.5Q431 209 431 155Q431 116 415 85.5Q399 55 371.5 33Q344 11 307.5 -0.5Q271 -12 229 -12ZM191 -35H302L271 -206H182Z" glyph-name="scommaaccent" horiz-adv-x="468" unicode="&#537;" /><glyph d="M275 249Q301 258 316.5 276Q332 294 332 317Q332 340 315.5 355.5Q299 371 273 382Q257 388 244 392Q233 396 221 399Q209 402 204 404Q185 394 168.5 375Q152 356 152 329Q152 316 158.5 306Q165 296 174.5 288.5Q184 281 194.5 276Q205 271 214 268ZM232 -80Q201 -80 167 -72.5Q133 -65 105 -47.5Q77 -30 58.5 -0.5Q40 29 40 73V103H144V91Q144 55 167.5 28Q191 1 245 1Q290 1 310.5 25Q331 49 331 78Q331 96 324 108.5Q317 121 306 130Q295 139 282 144.5Q269 150 256 155Q243 159 230 163Q219 167 205.5 170.5Q192 174 180 179Q154 187 130.5 199.5Q107 212 89 229.5Q71 247 60 270.5Q49 294 49 324Q49 359 67.5 391.5Q86 424 120 447Q84 469 69 497Q54 525 54 564Q54 597 66 626Q78 655 101.5 676Q125 697 160 709Q195 721 240 721Q323 721 374 682Q425 643 425 568V540H328V567Q328 596 306 618Q284 640 242 640Q200 640 178 621.5Q156 603 156 572Q156 544 176.5 527Q197 510 220 502L307 471Q331 463 354.5 451.5Q378 440 397 423.5Q416 407 427.5 384Q439 361 439 329Q439 292 419.5 260.5Q400 229 365 206Q399 187 419.5 158Q440 129 439 90Q439 53 424 22Q409 -9 381.5 -31.5Q354 -54 316 -67Q278 -80 232 -80Z" glyph-name="section" horiz-adv-x="481" unicode="&#167;" /><glyph d="M58 518H189V369H58ZM108 8H58V150H189V14L133 -134H70Z" glyph-name="semicolon" horiz-adv-x="248" unicode=";" /><glyph d="M120 0Q121 97 140.5 189Q160 281 189.5 359.5Q219 438 253.5 498.5Q288 559 318 594H24V713H461V614Q411 552 375 479Q339 406 315 326.5Q291 247 279.5 164Q268 81 268 0Z" glyph-name="seven" horiz-adv-x="505" unicode="7" /><glyph d="M146 0Q147 97 166.5 189Q186 281 215.5 359.5Q245 438 279.5 498.5Q314 559 344 594H50V713H487V614Q437 552 401 479Q365 406 341 326.5Q317 247 305.5 164Q294 81 294 0Z" glyph-name="seven.LT" horiz-adv-x="540" unicode="&#58695;" /><glyph d="M74 0Q74 48 85.5 94.5Q97 141 114.5 182Q132 223 154 257.5Q176 292 198 318H24V394H298V330Q272 304 249.5 267.5Q227 231 211 188Q195 145 186 97Q177 49 177 0Z" glyph-name="seven.dnom" horiz-adv-x="321" unicode="&#58377;" /><glyph d="M74 318Q74 366 85.5 412.5Q97 459 114.5 500Q132 541 154 575.5Q176 610 198 636H24V712H298V648Q272 622 249.5 585.5Q227 549 211 506Q195 463 186 415Q177 367 177 318Z" glyph-name="seven.numr" horiz-adv-x="321" unicode="&#58397;" /><glyph d="M279 98Q322 98 344.5 122Q367 146 367 176V276Q367 299 359.5 314Q352 329 340.5 338Q329 347 314.5 350.5Q300 354 285 354Q267 354 250 347Q233 340 220 326.5Q207 313 199 294.5Q191 276 191 254V182Q191 149 213.5 123.5Q236 98 279 98ZM273 -12Q226 -12 185.5 1Q145 14 115 39.5Q85 65 68 101.5Q51 138 51 186V523Q51 573 69.5 611Q88 649 119.5 674.5Q151 700 192.5 712.5Q234 725 281 725Q329 725 369 713Q409 701 437.5 679Q466 657 481.5 625Q497 593 497 554V516H359V545Q359 580 336.5 599Q314 618 276 618Q233 618 212 594Q191 570 191 534V375Q214 411 253 431Q292 451 340 451Q377 451 407 438Q437 425 458 402.5Q479 380 490 351Q501 322 501 289V175Q501 131 483 96Q465 61 434 37Q403 13 361.5 0.5Q320 -12 273 -12Z" glyph-name="six" horiz-adv-x="552" unicode="6" /><glyph d="M274 98Q317 98 339.5 122Q362 146 362 176V276Q362 299 354.5 314Q347 329 335.5 338Q324 347 309.5 350.5Q295 354 280 354Q262 354 245 347Q228 340 215 326.5Q202 313 194 294.5Q186 276 186 254V182Q186 149 208.5 123.5Q231 98 274 98ZM268 -12Q221 -12 180.5 1Q140 14 110 39.5Q80 65 63 101.5Q46 138 46 186V523Q46 573 64.5 611Q83 649 114.5 674.5Q146 700 187.5 712.5Q229 725 276 725Q324 725 364 713Q404 701 432.5 679Q461 657 476.5 625Q492 593 492 554V516H354V545Q354 580 331.5 599Q309 618 271 618Q228 618 207 594Q186 570 186 534V375Q209 411 248 431Q287 451 335 451Q372 451 402 438Q432 425 453 402.5Q474 380 485 351Q496 322 496 289V175Q496 131 478 96Q460 61 429 37Q398 13 356.5 0.5Q315 -12 268 -12Z" glyph-name="six.LT" horiz-adv-x="540" unicode="&#58694;" /><glyph d="M172 60Q196 60 206.5 72.5Q217 85 217 102V148Q217 172 203.5 180.5Q190 189 173 189Q157 189 141 177Q125 165 125 139V103Q125 86 137 73Q149 60 172 60ZM169 -12Q141 -12 115.5 -4Q90 4 70.5 19Q51 34 39 55.5Q27 77 27 104V279Q27 311 39 334.5Q51 358 71.5 373Q92 388 118.5 395Q145 402 174 402Q234 402 269.5 372.5Q305 343 305 295V275H217V289Q217 309 203.5 318.5Q190 328 170 328Q148 328 136.5 316.5Q125 305 125 286V211Q140 228 162.5 236.5Q185 245 211 245Q257 245 283.5 219Q310 193 310 155V102Q310 75 298.5 54Q287 33 268 18Q249 3 223 -4.5Q197 -12 169 -12Z" glyph-name="six.dnom" horiz-adv-x="339" unicode="&#58376;" /><glyph d="M172 378Q196 378 206.5 390.5Q217 403 217 420V466Q217 490 203.5 498.5Q190 507 173 507Q157 507 141 495Q125 483 125 457V421Q125 404 137 391Q149 378 172 378ZM169 306Q141 306 115.5 314Q90 322 70.5 337Q51 352 39 373.5Q27 395 27 422V597Q27 629 39 652.5Q51 676 71.5 691Q92 706 118.5 713Q145 720 174 720Q234 720 269.5 690.5Q305 661 305 613V593H217V607Q217 627 203.5 636.5Q190 646 170 646Q148 646 136.5 634.5Q125 623 125 604V529Q140 546 162.5 554.5Q185 563 211 563Q257 563 283.5 537Q310 511 310 473V420Q310 393 298.5 372Q287 351 268 336Q249 321 223 313.5Q197 306 169 306Z" glyph-name="six.numr" horiz-adv-x="339" unicode="&#58396;" /><glyph d="M207 718H294L81 -179H-8Z" glyph-name="slash" horiz-adv-x="319" unicode="/" /><glyph glyph-name="space" horiz-adv-x="180" unicode=" " /><glyph d="M42 110H112V313H55V393H112V530Q112 583 130.5 620Q149 657 179 680.5Q209 704 246.5 714.5Q284 725 322 725Q361 725 395 714.5Q429 704 454 683.5Q479 663 493.5 631.5Q508 600 508 558V506H396V557Q396 591 376.5 608Q357 625 322 625Q288 625 267 604.5Q246 584 246 546V393H414V313H246V110H527L504 0H42Z" glyph-name="sterling" horiz-adv-x="560" unicode="&#163;" /><glyph d="M46 -32 292 303 42 612V713H502V592H230L448 323V291L225 -13H502V-133H46Z" glyph-name="summation" horiz-adv-x="550" unicode="&#8721;" /><glyph d="M241 -10Q216 -10 191.5 -4.5Q167 1 147.5 15Q128 29 116 53Q104 77 104 113V413H31V519H104V658H238V519H357V413H238V154Q238 131 249 118.5Q260 106 289 106Q304 106 317 108Q330 110 344 113V7Q317 -2 291.5 -6Q266 -10 241 -10Z" glyph-name="t" horiz-adv-x="383" unicode="t" /><glyph d="M62 318H104V413H31V519H104V658H238V519H357V413H238V318H295V254H238V154Q238 131 249 118.5Q260 106 289 106Q304 106 317 108Q330 110 344 113V7Q317 -2 291.5 -6Q266 -10 241 -10Q216 -10 191.5 -4.5Q167 1 147.5 15Q128 29 116 53Q104 77 104 113V254H62Z" glyph-name="tbar" horiz-adv-x="383" unicode="&#359;" /><glyph d="M241 -10Q216 -10 191.5 -4.5Q167 1 147.5 15Q128 29 116 53Q104 77 104 113V413H31V519H104V658H238V519H357V413H238V154Q238 131 249 118.5Q260 106 289 106Q304 106 317 108Q330 110 344 113V7Q317 -2 291.5 -6Q266 -10 241 -10ZM290 712H401L372 555H282Z" glyph-name="tcaron" horiz-adv-x="389" unicode="&#357;" /><glyph d="M241 -10Q216 -10 191.5 -4.5Q167 1 147.5 15Q128 29 116 53Q104 77 104 113V413H31V519H104V658H238V519H357V413H238V154Q238 131 249 118.5Q260 106 289 106Q304 106 317 108Q330 110 344 113V7Q317 -2 291.5 -6Q266 -10 241 -10ZM152 -35H263L232 -206H143Z" glyph-name="tcommaaccent" horiz-adv-x="383" unicode="&#355;" /><glyph d="M286 84Q319 84 337 102.5Q355 121 355 164V357Q355 393 338 413.5Q321 434 282 434Q247 434 220 404Q193 374 193 318V193Q193 167 201.5 147Q210 127 223 113Q236 99 252.5 91.5Q269 84 286 84ZM61 713H193V453H196Q219 495 259.5 516.5Q300 538 338 538Q376 538 404 525Q432 512 450.5 490Q469 468 478 438Q487 408 487 374V159Q487 122 475 91Q463 60 441 37Q419 14 389.5 1Q360 -12 324 -12Q307 -12 287.5 -7.5Q268 -3 250 6.5Q232 16 217.5 29.5Q203 43 195 61H193V-178H61Z" glyph-name="thorn" horiz-adv-x="535" unicode="&#254;" /><glyph d="M271 -12Q162 -12 104.5 36.5Q47 85 47 166V199H177V178Q177 140 202.5 118Q228 96 268 96Q317 96 336 122.5Q355 149 355 203Q355 236 343 256Q331 276 314.5 287.5Q298 299 280 303Q262 307 250 307H188V416H243Q265 416 283 421Q301 426 314.5 438Q328 450 335.5 469.5Q343 489 343 518Q343 567 319 589.5Q295 612 260 612Q222 612 200.5 592.5Q179 573 179 535V512H51V540Q51 582 66.5 616.5Q82 651 110.5 675Q139 699 180 712Q221 725 271 725Q373 725 425.5 672.5Q478 620 478 535Q478 477 450.5 430.5Q423 384 369 368V365Q398 358 421.5 342Q445 326 461.5 303.5Q478 281 486.5 254.5Q495 228 495 200Q495 147 476.5 107.5Q458 68 427 41.5Q396 15 355.5 1.5Q315 -12 271 -12Z" glyph-name="three" horiz-adv-x="536" unicode="3" /><glyph d="M271 -12Q162 -12 104.5 36.5Q47 85 47 166V199H177V178Q177 140 202.5 118Q228 96 268 96Q317 96 336 122.5Q355 149 355 203Q355 236 343 256Q331 276 314.5 287.5Q298 299 280 303Q262 307 250 307H188V416H243Q265 416 283 421Q301 426 314.5 438Q328 450 335.5 469.5Q343 489 343 518Q343 567 319 589.5Q295 612 260 612Q222 612 200.5 592.5Q179 573 179 535V512H51V540Q51 582 66.5 616.5Q82 651 110.5 675Q139 699 180 712Q221 725 271 725Q373 725 425.5 672.5Q478 620 478 535Q478 477 450.5 430.5Q423 384 369 368V365Q398 358 421.5 342Q445 326 461.5 303.5Q478 281 486.5 254.5Q495 228 495 200Q495 147 476.5 107.5Q458 68 427 41.5Q396 15 355.5 1.5Q315 -12 271 -12Z" glyph-name="three.LT" horiz-adv-x="540" unicode="&#58691;" /><glyph d="M168 -12Q99 -12 64.5 17Q30 46 30 98V114H118V101Q118 80 132 70Q146 60 165 60Q188 60 200 74Q212 88 212 114Q212 129 206.5 139Q201 149 193.5 155Q186 161 177.5 163Q169 165 162 165H126V228H156Q179 228 193.5 239.5Q208 251 208 280Q208 306 194.5 316.5Q181 327 164 327Q142 327 130.5 316Q119 305 119 286V275H33V291Q33 342 68 372Q103 402 166 402Q230 402 264.5 371Q299 340 299 292Q299 263 283 236Q267 209 235 200V198Q270 190 289.5 164.5Q309 139 309 106Q309 74 298 51.5Q287 29 268 15Q249 1 223.5 -5.5Q198 -12 168 -12Z" glyph-name="three.dnom" horiz-adv-x="339" unicode="&#58373;" /><glyph d="M168 306Q99 306 64.5 335Q30 364 30 416V432H118V419Q118 398 132 388Q146 378 165 378Q188 378 200 392Q212 406 212 432Q212 447 206.5 457Q201 467 193.5 473Q186 479 177.5 481Q169 483 162 483H126V546H156Q179 546 193.5 557.5Q208 569 208 598Q208 624 194.5 634.5Q181 645 164 645Q142 645 130.5 634Q119 623 119 604V593H33V609Q33 660 68 690Q103 720 166 720Q230 720 264.5 689Q299 658 299 610Q299 581 283 554Q267 527 235 518V516Q270 508 289.5 482.5Q309 457 309 424Q309 392 298 369.5Q287 347 268 333Q249 319 223.5 312.5Q198 306 168 306Z" glyph-name="three.numr" horiz-adv-x="339" unicode="&#58393;" /><glyph d="M563 718H629L240 -2H174ZM178 304Q109 304 74.5 333Q40 362 40 414V430H128V417Q128 396 142 386Q156 376 175 376Q198 376 210 390Q222 404 222 430Q222 445 216.5 455Q211 465 203.5 471Q196 477 187.5 479Q179 481 172 481H136V544H166Q189 544 203.5 555.5Q218 567 218 596Q218 622 204.5 632.5Q191 643 174 643Q152 643 140.5 632Q129 621 129 602V591H43V607Q43 658 78 688Q113 718 176 718Q240 718 274.5 687Q309 656 309 608Q309 579 293 552Q277 525 245 516V514Q280 506 299.5 480.5Q319 455 319 422Q319 390 308 367.5Q297 345 278 331Q259 317 233.5 310.5Q208 304 178 304ZM593 86H431V153L574 396H672L523 158H593V209L687 273V158H728V86H687V0H593Z" glyph-name="threequarters" horiz-adv-x="769" unicode="&#190;" /><glyph d="M168 368Q99 368 64.5 397Q30 426 30 478V494H118V481Q118 460 132 450Q146 440 165 440Q188 440 200 454Q212 468 212 494Q212 509 206.5 519Q201 529 193.5 535Q186 541 177.5 543Q169 545 162 545H126V608H156Q179 608 193.5 619.5Q208 631 208 660Q208 686 194.5 696.5Q181 707 164 707Q142 707 130.5 696Q119 685 119 666V655H33V671Q33 722 68 752Q103 782 166 782Q230 782 264.5 751Q299 720 299 672Q299 643 283 616Q267 589 235 580V578Q270 570 289.5 544.5Q309 519 309 486Q309 454 298 431.5Q287 409 268 395Q249 381 223.5 374.5Q198 368 168 368Z" glyph-name="threesuperior" horiz-adv-x="339" unicode="&#179;" /><glyph d="M35 594Q38 618 46 640.5Q54 663 67.5 680.5Q81 698 100 708Q119 718 143 718Q162 718 181.5 712.5Q201 707 220 700Q239 693 258 687.5Q277 682 297 682Q317 682 326.5 695.5Q336 709 344 730L402 715Q399 692 391.5 670Q384 648 371 631.5Q358 615 339.5 605Q321 595 297 595Q277 595 258 600.5Q239 606 220 612.5Q201 619 182 624.5Q163 630 145 630Q124 630 115.5 617.5Q107 605 100 582Z" glyph-name="tilde" horiz-adv-x="426" unicode="&#732;" /><glyph d="M116 653H36V714H268V653H188V399H116ZM303 714H388L440 582L490 714H575V399H510L509 599L463 475H415L367 600V399H303Z" glyph-name="trademark" horiz-adv-x="633" unicode="&#8482;" /><glyph d="M51 543V552H471V543L271 164H263Z" glyph-name="triagdn" horiz-adv-x="522" unicode="&#9660;" /><glyph d="M63 358V366Q96 384 147 410.5Q198 437 253 466Q308 495 359 522Q410 549 443 567H451V148H443Z" glyph-name="triaglf" horiz-adv-x="522" unicode="&#9668;" /><glyph d="M70 567H78L458 366V358Q425 339 373.5 310.5Q322 282 267.5 252Q213 222 162 194Q111 166 78 148H70Z" glyph-name="triagrt" horiz-adv-x="522" unicode="&#9658;" /><glyph d="M51 172 250 552H259L471 172V164H51Z" glyph-name="triagup" horiz-adv-x="522" unicode="&#9650;" /><glyph d="M51 78 200 274Q224 308 245.5 340.5Q267 373 283.5 403.5Q300 434 309.5 462.5Q319 491 319 517V531Q319 566 300.5 589Q282 612 240 612Q199 612 181 592Q163 572 163 536V513H34V539Q34 585 50.5 620.5Q67 656 96.5 679Q126 702 166 714Q206 726 254 726Q308 726 346.5 711Q385 696 409.5 669.5Q434 643 446 607.5Q458 572 458 530Q458 488 445 446Q432 404 410 363Q388 322 359 282Q330 242 298 203L235 122V119H468V0H51Z" glyph-name="two" horiz-adv-x="510" unicode="2" /><glyph d="M70 78 219 274Q243 308 264.5 340.5Q286 373 302.5 403.5Q319 434 328.5 462.5Q338 491 338 517V531Q338 566 319.5 589Q301 612 259 612Q218 612 200 592Q182 572 182 536V513H53V539Q53 585 69.5 620.5Q86 656 115.5 679Q145 702 185 714Q225 726 273 726Q327 726 365.5 711Q404 696 428.5 669.5Q453 643 465 607.5Q477 572 477 530Q477 488 464 446Q451 404 429 363Q407 322 378 282Q349 242 317 203L254 122V119H487V0H70Z" glyph-name="two.LT" horiz-adv-x="540" unicode="&#58690;" /><glyph d="M43 59 144 166Q170 195 189.5 223.5Q209 252 209 280V283Q209 301 199 314Q189 327 166 327Q143 327 132.5 314.5Q122 302 122 281V266H33V289Q33 344 70.5 372.5Q108 401 167 401Q231 401 265 368Q299 335 299 284Q299 259 291.5 237.5Q284 216 271 196Q258 176 242 157.5Q226 139 208 120L169 74H302V0H43Z" glyph-name="two.dnom" horiz-adv-x="331" unicode="&#58372;" /><glyph d="M43 377 144 484Q170 513 189.5 541.5Q209 570 209 598V601Q209 619 199 632Q189 645 166 645Q143 645 132.5 632.5Q122 620 122 599V584H33V607Q33 662 70.5 690.5Q108 719 167 719Q231 719 265 686Q299 653 299 602Q299 577 291.5 555.5Q284 534 271 514Q258 494 242 475.5Q226 457 208 438L169 392H302V318H43Z" glyph-name="two.numr" horiz-adv-x="331" unicode="&#58392;" /><glyph d="M43 439 144 546Q170 575 189.5 603.5Q209 632 209 660V663Q209 681 199 694Q189 707 166 707Q143 707 132.5 694.5Q122 682 122 661V646H33V669Q33 724 70.5 752.5Q108 781 167 781Q231 781 265 748Q299 715 299 664Q299 639 291.5 617.5Q284 596 271 576Q258 556 242 537.5Q226 519 208 500L169 454H302V380H43Z" glyph-name="twosuperior" horiz-adv-x="331" unicode="&#178;" /><glyph d="M201 -12Q174 -12 148 -2.5Q122 7 102 25Q82 43 70 70Q58 97 58 133V525H190V171Q190 136 203.5 113.5Q217 91 257 91Q295 91 322.5 121.5Q350 152 350 200V525H482V0H359L355 82H353Q334 42 292 15Q250 -12 201 -12Z" glyph-name="u" horiz-adv-x="540" unicode="u" /><glyph d="M201 -12Q174 -12 148 -2.5Q122 7 102 25Q82 43 70 70Q58 97 58 133V525H190V171Q190 136 203.5 113.5Q217 91 257 91Q295 91 322.5 121.5Q350 152 350 200V525H482V0H359L355 82H353Q334 42 292 15Q250 -12 201 -12ZM311 739H441L324 584H225Z" glyph-name="uacute" horiz-adv-x="540" unicode="&#250;" /><glyph d="M273 585Q194 585 150.5 627.5Q107 670 104 743H193Q199 705 216 684Q233 663 276 663Q311 663 328 684Q345 705 348 743H433Q431 704 418 674Q405 644 383.5 624.5Q362 605 333.5 595Q305 585 273 585ZM201 -12Q174 -12 148 -2.5Q122 7 102 25Q82 43 70 70Q58 97 58 133V525H190V171Q190 136 203.5 113.5Q217 91 257 91Q295 91 322.5 121.5Q350 152 350 200V525H482V0H359L355 82H353Q334 42 292 15Q250 -12 201 -12Z" glyph-name="ubreve" horiz-adv-x="540" unicode="&#365;" /><glyph d="M201 -12Q174 -12 148 -2.5Q122 7 102 25Q82 43 70 70Q58 97 58 133V525H190V171Q190 136 203.5 113.5Q217 91 257 91Q295 91 322.5 121.5Q350 152 350 200V525H482V0H359L355 82H353Q334 42 292 15Q250 -12 201 -12ZM227 745H322L428 585H325L272 674L218 585H120Z" glyph-name="ucircumflex" horiz-adv-x="540" unicode="&#251;" /><glyph d="M201 -12Q174 -12 148 -2.5Q122 7 102 25Q82 43 70 70Q58 97 58 133V525H190V171Q190 136 203.5 113.5Q217 91 257 91Q295 91 322.5 121.5Q350 152 350 200V525H482V0H359L355 82H353Q334 42 292 15Q250 -12 201 -12ZM313 730H424V595H313ZM129 730H240V595H129Z" glyph-name="udieresis" horiz-adv-x="540" unicode="&#252;" /><glyph d="M105 739H236L322 584H224ZM201 -12Q174 -12 148 -2.5Q122 7 102 25Q82 43 70 70Q58 97 58 133V525H190V171Q190 136 203.5 113.5Q217 91 257 91Q295 91 322.5 121.5Q350 152 350 200V525H482V0H359L355 82H353Q334 42 292 15Q250 -12 201 -12Z" glyph-name="ugrave" horiz-adv-x="540" unicode="&#249;" /><glyph d="M356 730H467L381 582H293ZM182 730H292L215 582H124ZM201 -12Q174 -12 148 -2.5Q122 7 102 25Q82 43 70 70Q58 97 58 133V525H190V171Q190 136 203.5 113.5Q217 91 257 91Q295 91 322.5 121.5Q350 152 350 200V525H482V0H359L355 82H353Q334 42 292 15Q250 -12 201 -12Z" glyph-name="uhungarumlaut" horiz-adv-x="540" unicode="&#369;" /><glyph d="M114 693H424V601H114ZM201 -12Q174 -12 148 -2.5Q122 7 102 25Q82 43 70 70Q58 97 58 133V525H190V171Q190 136 203.5 113.5Q217 91 257 91Q295 91 322.5 121.5Q350 152 350 200V525H482V0H359L355 82H353Q334 42 292 15Q250 -12 201 -12Z" glyph-name="umacron" horiz-adv-x="540" unicode="&#363;" /><glyph d="M0 -36H461V-122H0Z" glyph-name="underscore" horiz-adv-x="461" unicode="_" /><glyph glyph-name="uni00A0" horiz-adv-x="180" /><glyph d="M213 598H23V713H545V598H356V0H213ZM231 -35H342L311 -206H222Z" glyph-name="uni021A" horiz-adv-x="567" unicode="&#538;" /><glyph d="M241 -10Q216 -10 191.5 -4.5Q167 1 147.5 15Q128 29 116 53Q104 77 104 113V413H31V519H104V658H238V519H357V413H238V154Q238 131 249 118.5Q260 106 289 106Q304 106 317 108Q330 110 344 113V7Q317 -2 291.5 -6Q266 -10 241 -10ZM152 -35H263L232 -206H143Z" glyph-name="uni021B" horiz-adv-x="383" unicode="&#539;" /><glyph d="M171 442Q196 442 206.5 456Q217 470 217 489V665Q217 683 205.5 695Q194 707 171 707Q147 707 134.5 694.5Q122 682 122 664V488Q122 469 134 455.5Q146 442 171 442ZM172 368Q145 368 120 374.5Q95 381 75 395Q55 409 43 431.5Q31 454 31 487V661Q31 694 43 717Q55 740 74.5 754.5Q94 769 119 775.5Q144 782 170 782Q197 782 222 775.5Q247 769 266.5 754Q286 739 298 716Q310 693 310 660V488Q310 456 298 433.5Q286 411 266.5 396.5Q247 382 222 375Q197 368 172 368Z" glyph-name="uni2070" horiz-adv-x="341" unicode="&#8304;" /><glyph d="M180 466H18V533L161 776H259L110 538H180V589L274 653V538H315V466H274V380H180Z" glyph-name="uni2074" horiz-adv-x="330" unicode="&#8308;" /><glyph d="M164 368Q104 368 67 395Q30 422 30 467V494H118V482Q118 464 130.5 452.5Q143 441 166 441Q188 441 201 453.5Q214 466 214 493V525Q214 549 200 560.5Q186 572 166 572Q152 572 140.5 564.5Q129 557 121 549L36 558L46 774H286V698H124Q124 693 123 680Q122 667 121.5 653Q121 639 120 626Q119 613 119 608Q136 621 157 627Q178 633 198 633Q217 633 237 627.5Q257 622 273 610Q289 598 299 579.5Q309 561 309 534V482Q309 454 296.5 433Q284 412 263.5 397.5Q243 383 217 375.5Q191 368 164 368Z" glyph-name="uni2075" horiz-adv-x="339" unicode="&#8309;" /><glyph d="M172 440Q196 440 206.5 452.5Q217 465 217 482V528Q217 552 203.5 560.5Q190 569 173 569Q157 569 141 557Q125 545 125 519V483Q125 466 137 453Q149 440 172 440ZM169 368Q141 368 115.5 376Q90 384 70.5 399Q51 414 39 435.5Q27 457 27 484V659Q27 691 39 714.5Q51 738 71.5 753Q92 768 118.5 775Q145 782 174 782Q234 782 269.5 752.5Q305 723 305 675V655H217V669Q217 689 203.5 698.5Q190 708 170 708Q148 708 136.5 696.5Q125 685 125 666V591Q140 608 162.5 616.5Q185 625 211 625Q257 625 283.5 599Q310 573 310 535V482Q310 455 298.5 434Q287 413 268 398Q249 383 223 375.5Q197 368 169 368Z" glyph-name="uni2076" horiz-adv-x="339" unicode="&#8310;" /><glyph d="M74 380Q74 428 85.5 474.5Q97 521 114.5 562Q132 603 154 637.5Q176 672 198 698H24V774H298V710Q272 684 249.5 647.5Q227 611 211 568Q195 525 186 477Q177 429 177 380Z" glyph-name="uni2077" horiz-adv-x="321" unicode="&#8311;" /><glyph d="M171 608Q191 608 203.5 618.5Q216 629 216 648V674Q216 694 201.5 704Q187 714 169 714Q152 714 137.5 704Q123 694 123 677V647Q123 627 137.5 617.5Q152 608 171 608ZM170 435Q217 435 217 477V504Q217 526 202 535.5Q187 545 170 545Q151 545 136.5 535.5Q122 526 122 506V476Q122 456 136 445.5Q150 435 170 435ZM170 368Q109 368 69.5 393Q30 418 30 474V501Q30 527 43.5 546.5Q57 566 80 577Q59 586 47 606.5Q35 627 35 647V675Q35 701 46 721Q57 741 75.5 754.5Q94 768 118.5 775Q143 782 170 782Q197 782 221.5 775.5Q246 769 264.5 756Q283 743 294 723Q305 703 305 677V649Q305 626 292.5 607Q280 588 260 578Q280 568 295.5 548Q311 528 311 504V472Q311 447 300 427.5Q289 408 270 395Q251 382 225 375Q199 368 170 368Z" glyph-name="uni2078" horiz-adv-x="341" unicode="&#8312;" /><glyph d="M165 581Q181 581 197 593Q213 605 213 631V667Q213 684 201 697Q189 710 166 710Q143 710 132.5 697.5Q122 685 122 668V622Q122 598 136 589.5Q150 581 165 581ZM165 368Q105 368 69.5 397.5Q34 427 34 475V490H122V481Q122 461 135.5 451.5Q149 442 169 442Q191 442 202 453.5Q213 465 213 484V554Q198 537 175 528.5Q152 520 127 520Q80 520 53.5 546Q27 572 27 611V668Q27 695 38.5 716Q50 737 70 752Q90 767 115.5 774.5Q141 782 170 782Q198 782 223 774Q248 766 267.5 751Q287 736 298.5 714.5Q310 693 310 666V491Q310 459 298 435.5Q286 412 266 397Q246 382 219.5 375Q193 368 165 368Z" glyph-name="uni2079" horiz-adv-x="339" unicode="&#8313;" /><glyph d="M140 313Q100 361 76.5 429Q53 497 53 566Q53 632 76 697.5Q99 763 140 811L182 810Q168 778 157 749.5Q146 721 139 692.5Q132 664 128.5 633.5Q125 603 125 566Q125 436 183 315Z" glyph-name="uni207D" horiz-adv-x="201" unicode="&#8317;" /><glyph d="M40 315Q97 433 97 566Q97 603 93.5 633.5Q90 664 83 692.5Q76 721 65 749.5Q54 778 40 810L82 811Q124 763 146.5 697.5Q169 632 169 566Q169 497 145.5 429Q122 361 82 313Z" glyph-name="uni207E" horiz-adv-x="201" unicode="&#8318;" /><glyph d="M171 -71Q196 -71 206.5 -57Q217 -43 217 -24V152Q217 170 205.5 182Q194 194 171 194Q147 194 134.5 181.5Q122 169 122 151V-25Q122 -44 134 -57.5Q146 -71 171 -71ZM172 -145Q145 -145 120 -138.5Q95 -132 75 -118Q55 -104 43 -81.5Q31 -59 31 -26V148Q31 181 43 204Q55 227 74.5 241.5Q94 256 119 262.5Q144 269 170 269Q197 269 222 262.5Q247 256 266.5 241Q286 226 298 203Q310 180 310 147V-25Q310 -57 298 -79.5Q286 -102 266.5 -116.5Q247 -131 222 -138Q197 -145 172 -145Z" glyph-name="uni2080" horiz-adv-x="341" unicode="&#8320;" /><glyph d="M103 181 54 170 44 238 146 265H198V-133H103Z" glyph-name="uni2081" horiz-adv-x="276" unicode="&#8321;" /><glyph d="M43 -74 144 33Q170 62 189.5 90.5Q209 119 209 147V150Q209 168 199 181Q189 194 166 194Q143 194 132.5 181.5Q122 169 122 148V133H33V156Q33 211 70.5 239.5Q108 268 167 268Q231 268 265 235Q299 202 299 151Q299 126 291.5 104.5Q284 83 271 63Q258 43 242 24.5Q226 6 208 -13L169 -59H302V-133H43Z" glyph-name="uni2082" horiz-adv-x="331" unicode="&#8322;" /><glyph d="M168 -145Q99 -145 64.5 -116Q30 -87 30 -35V-19H118V-32Q118 -53 132 -63Q146 -73 165 -73Q188 -73 200 -59Q212 -45 212 -19Q212 -4 206.5 6Q201 16 193.5 22Q186 28 177.5 30Q169 32 162 32H126V95H156Q179 95 193.5 106.5Q208 118 208 147Q208 173 194.5 183.5Q181 194 164 194Q142 194 130.5 183Q119 172 119 153V142H33V158Q33 209 68 239Q103 269 166 269Q230 269 264.5 238Q299 207 299 159Q299 130 283 103Q267 76 235 67V65Q270 57 289.5 31.5Q309 6 309 -27Q309 -59 298 -81.5Q287 -104 268 -118Q249 -132 223.5 -138.5Q198 -145 168 -145Z" glyph-name="uni2083" horiz-adv-x="339" unicode="&#8323;" /><glyph d="M180 -47H18V20L161 263H259L110 25H180V76L274 140V25H315V-47H274V-133H180Z" glyph-name="uni2084" horiz-adv-x="330" unicode="&#8324;" /><glyph d="M164 -145Q104 -145 67 -118Q30 -91 30 -46V-19H118V-31Q118 -49 130.5 -60.5Q143 -72 166 -72Q188 -72 201 -59.5Q214 -47 214 -20V12Q214 36 200 47.5Q186 59 166 59Q152 59 140.5 51.5Q129 44 121 36L36 45L46 261H286V185H124Q124 180 123 167Q122 154 121.5 140Q121 126 120 113Q119 100 119 95Q136 108 157 114Q178 120 198 120Q217 120 237 114.5Q257 109 273 97Q289 85 299 66.5Q309 48 309 21V-31Q309 -59 296.5 -80Q284 -101 263.5 -115.5Q243 -130 217 -137.5Q191 -145 164 -145Z" glyph-name="uni2085" horiz-adv-x="339" unicode="&#8325;" /><glyph d="M172 -73Q196 -73 206.5 -60.5Q217 -48 217 -31V15Q217 39 203.5 47.5Q190 56 173 56Q157 56 141 44Q125 32 125 6V-30Q125 -47 137 -60Q149 -73 172 -73ZM169 -145Q141 -145 115.5 -137Q90 -129 70.5 -114Q51 -99 39 -77.5Q27 -56 27 -29V146Q27 178 39 201.5Q51 225 71.5 240Q92 255 118.5 262Q145 269 174 269Q234 269 269.5 239.5Q305 210 305 162V142H217V156Q217 176 203.5 185.5Q190 195 170 195Q148 195 136.5 183.5Q125 172 125 153V78Q140 95 162.5 103.5Q185 112 211 112Q257 112 283.5 86Q310 60 310 22V-31Q310 -58 298.5 -79Q287 -100 268 -115Q249 -130 223 -137.5Q197 -145 169 -145Z" glyph-name="uni2086" horiz-adv-x="339" unicode="&#8326;" /><glyph d="M74 -133Q74 -85 85.5 -38.5Q97 8 114.5 49Q132 90 154 124.5Q176 159 198 185H24V261H298V197Q272 171 249.5 134.5Q227 98 211 55Q195 12 186 -36Q177 -84 177 -133Z" glyph-name="uni2087" horiz-adv-x="321" unicode="&#8327;" /><glyph d="M171 95Q191 95 203.5 105.5Q216 116 216 135V161Q216 181 201.5 191Q187 201 169 201Q152 201 137.5 191Q123 181 123 164V134Q123 114 137.5 104.5Q152 95 171 95ZM170 -78Q217 -78 217 -36V-9Q217 13 202 22.5Q187 32 170 32Q151 32 136.5 22.5Q122 13 122 -7V-37Q122 -57 136 -67.5Q150 -78 170 -78ZM170 -145Q109 -145 69.5 -120Q30 -95 30 -39V-12Q30 14 43.5 33.5Q57 53 80 64Q59 73 47 93.5Q35 114 35 134V162Q35 188 46 208Q57 228 75.5 241.5Q94 255 118.5 262Q143 269 170 269Q197 269 221.5 262.5Q246 256 264.5 243Q283 230 294 210Q305 190 305 164V136Q305 113 292.5 94Q280 75 260 65Q280 55 295.5 35Q311 15 311 -9V-41Q311 -66 300 -85.5Q289 -105 270 -118Q251 -131 225 -138Q199 -145 170 -145Z" glyph-name="uni2088" horiz-adv-x="341" unicode="&#8328;" /><glyph d="M165 68Q181 68 197 80Q213 92 213 118V154Q213 171 201 184Q189 197 166 197Q143 197 132.5 184.5Q122 172 122 155V109Q122 85 136 76.5Q150 68 165 68ZM165 -145Q105 -145 69.5 -115.5Q34 -86 34 -38V-23H122V-32Q122 -52 135.5 -61.5Q149 -71 169 -71Q191 -71 202 -59.5Q213 -48 213 -29V41Q198 24 175 15.5Q152 7 127 7Q80 7 53.5 33Q27 59 27 98V155Q27 182 38.5 203Q50 224 70 239Q90 254 115.5 261.5Q141 269 170 269Q198 269 223 261Q248 253 267.5 238Q287 223 298.5 201.5Q310 180 310 153V-22Q310 -54 298 -77.5Q286 -101 266 -116Q246 -131 219.5 -138Q193 -145 165 -145Z" glyph-name="uni2089" horiz-adv-x="339" unicode="&#8329;" /><glyph d="M140 -200Q100 -152 76.5 -84Q53 -16 53 53Q53 119 76 184.5Q99 250 140 298L182 297Q168 265 157 236.5Q146 208 139 179.5Q132 151 128.5 120.5Q125 90 125 53Q125 -77 183 -198Z" glyph-name="uni208D" horiz-adv-x="201" unicode="&#8333;" /><glyph d="M40 -198Q97 -80 97 53Q97 90 93.5 120.5Q90 151 83 179.5Q76 208 65 236.5Q54 265 40 297L82 298Q124 250 146.5 184.5Q169 119 169 53Q169 -16 145.5 -84Q122 -152 82 -200Z" glyph-name="uni208E" horiz-adv-x="201" unicode="&#8334;" /><glyph d="M126 583H191V94H280Q310 94 310 142V705H394V163Q394 115 386 84Q378 53 363 34Q348 15 325.5 7.5Q303 0 274 0H126ZM26 705H164Q193 705 215.5 699.5Q238 694 253 678.5Q268 663 276 634Q284 605 284 557V122H218V563Q218 612 189 612H100V0H26Z" glyph-name="uni20AA" horiz-adv-x="420" unicode="&#8362;" /><glyph d="M576 -12Q507 -12 472.5 17Q438 46 438 98V114H526V101Q526 80 540 70Q554 60 573 60Q596 60 608 74Q620 88 620 114Q620 129 614.5 139Q609 149 601.5 155Q594 161 585.5 163Q577 165 570 165H534V228H564Q587 228 601.5 239.5Q616 251 616 280Q616 306 602.5 316.5Q589 327 572 327Q550 327 538.5 316Q527 305 527 286V275H441V291Q441 342 476 372Q511 402 574 402Q638 402 672.5 371Q707 340 707 292Q707 263 691 236Q675 209 643 200V198Q678 190 697.5 164.5Q717 139 717 106Q717 74 706 51.5Q695 29 676 15Q657 1 631.5 -5.5Q606 -12 576 -12ZM522 718H588L199 -2H133ZM126 630 77 619 67 687 169 714H221V316H126Z" glyph-name="uni2153" horiz-adv-x="769" unicode="&#8531;" /><glyph d="M597 -12Q528 -12 493.5 17Q459 46 459 98V114H547V101Q547 80 561 70Q575 60 594 60Q617 60 629 74Q641 88 641 114Q641 129 635.5 139Q630 149 622.5 155Q615 161 606.5 163Q598 165 591 165H555V228H585Q608 228 622.5 239.5Q637 251 637 280Q637 306 623.5 316.5Q610 327 593 327Q571 327 559.5 316Q548 305 548 286V275H462V291Q462 342 497 372Q532 402 595 402Q659 402 693.5 371Q728 340 728 292Q728 263 712 236Q696 209 664 200V198Q699 190 718.5 164.5Q738 139 738 106Q738 74 727 51.5Q716 29 697 15Q678 1 652.5 -5.5Q627 -12 597 -12ZM557 718H623L234 -2H168ZM38 375 139 482Q165 511 184.5 539.5Q204 568 204 596V599Q204 617 194 630Q184 643 161 643Q138 643 127.5 630.5Q117 618 117 597V582H28V605Q28 660 65.5 688.5Q103 717 162 717Q226 717 260 684Q294 651 294 600Q294 575 286.5 553.5Q279 532 266 512Q253 492 237 473.5Q221 455 203 436L164 390H297V316H38Z" glyph-name="uni2154" horiz-adv-x="769" unicode="&#8532;" /><glyph d="M524 718H590L201 -2H135ZM583 -12Q523 -12 486 15Q449 42 449 87V114H537V102Q537 84 549.5 72.5Q562 61 585 61Q607 61 620 73.5Q633 86 633 113V145Q633 169 619 180.5Q605 192 585 192Q571 192 559.5 184.5Q548 177 540 169L455 178L465 394H705V318H543Q543 313 542 300Q541 287 540.5 273Q540 259 539 246Q538 233 538 228Q555 241 576 247Q597 253 617 253Q636 253 656 247.5Q676 242 692 230Q708 218 718 199.5Q728 181 728 154V102Q728 74 715.5 53Q703 32 682.5 17.5Q662 3 636 -4.5Q610 -12 583 -12ZM124 630 75 619 65 687 167 714H219V316H124Z" glyph-name="uni2155" horiz-adv-x="769" unicode="&#8533;" /><glyph d="M551 718H617L228 -2H162ZM596 -12Q536 -12 499 15Q462 42 462 87V114H550V102Q550 84 562.5 72.5Q575 61 598 61Q620 61 633 73.5Q646 86 646 113V145Q646 169 632 180.5Q618 192 598 192Q584 192 572.5 184.5Q561 177 553 169L468 178L478 394H718V318H556Q556 313 555 300Q554 287 553.5 273Q553 259 552 246Q551 233 551 228Q568 241 589 247Q610 253 630 253Q649 253 669 247.5Q689 242 705 230Q721 218 731 199.5Q741 181 741 154V102Q741 74 728.5 53Q716 32 695.5 17.5Q675 3 649 -4.5Q623 -12 596 -12ZM39 375 140 482Q166 511 185.5 539.5Q205 568 205 596V599Q205 617 195 630Q185 643 162 643Q139 643 128.5 630.5Q118 618 118 597V582H29V605Q29 660 66.5 688.5Q104 717 163 717Q227 717 261 684Q295 651 295 600Q295 575 287.5 553.5Q280 532 267 512Q254 492 238 473.5Q222 455 204 436L165 390H298V316H39Z" glyph-name="uni2156" horiz-adv-x="769" unicode="&#8534;" /><glyph d="M596 -12Q536 -12 499 15Q462 42 462 87V114H550V102Q550 84 562.5 72.5Q575 61 598 61Q620 61 633 73.5Q646 86 646 113V145Q646 169 632 180.5Q618 192 598 192Q584 192 572.5 184.5Q561 177 553 169L468 178L478 394H718V318H556Q556 313 555 300Q554 287 553.5 273Q553 259 552 246Q551 233 551 228Q568 241 589 247Q610 253 630 253Q649 253 669 247.5Q689 242 705 230Q721 218 731 199.5Q741 181 741 154V102Q741 74 728.5 53Q716 32 695.5 17.5Q675 3 649 -4.5Q623 -12 596 -12ZM551 718H617L228 -2H162ZM172 304Q103 304 68.5 333Q34 362 34 414V430H122V417Q122 396 136 386Q150 376 169 376Q192 376 204 390Q216 404 216 430Q216 445 210.5 455Q205 465 197.5 471Q190 477 181.5 479Q173 481 166 481H130V544H160Q183 544 197.5 555.5Q212 567 212 596Q212 622 198.5 632.5Q185 643 168 643Q146 643 134.5 632Q123 621 123 602V591H37V607Q37 658 72 688Q107 718 170 718Q234 718 268.5 687Q303 656 303 608Q303 579 287 552Q271 525 239 516V514Q274 506 293.5 480.5Q313 455 313 422Q313 390 302 367.5Q291 345 272 331Q253 317 227.5 310.5Q202 304 172 304Z" glyph-name="uni2157" horiz-adv-x="769" unicode="&#8535;" /><glyph d="M552 718H618L229 -2H163ZM596 -12Q536 -12 499 15Q462 42 462 87V114H550V102Q550 84 562.5 72.5Q575 61 598 61Q620 61 633 73.5Q646 86 646 113V145Q646 169 632 180.5Q618 192 598 192Q584 192 572.5 184.5Q561 177 553 169L468 178L478 394H718V318H556Q556 313 555 300Q554 287 553.5 273Q553 259 552 246Q551 233 551 228Q568 241 589 247Q610 253 630 253Q649 253 669 247.5Q689 242 705 230Q721 218 731 199.5Q741 181 741 154V102Q741 74 728.5 53Q716 32 695.5 17.5Q675 3 649 -4.5Q623 -12 596 -12ZM181 402H19V469L162 712H260L111 474H181V525L275 589V474H316V402H275V316H181Z" glyph-name="uni2158" horiz-adv-x="769" unicode="&#8536;" /><glyph d="M529 718H595L206 -2H140ZM582 60Q606 60 616.5 72.5Q627 85 627 102V148Q627 172 613.5 180.5Q600 189 583 189Q567 189 551 177Q535 165 535 139V103Q535 86 547 73Q559 60 582 60ZM579 -12Q551 -12 525.5 -4Q500 4 480.5 19Q461 34 449 55.5Q437 77 437 104V279Q437 311 449 334.5Q461 358 481.5 373Q502 388 528.5 395Q555 402 584 402Q644 402 679.5 372.5Q715 343 715 295V275H627V289Q627 309 613.5 318.5Q600 328 580 328Q558 328 546.5 316.5Q535 305 535 286V211Q550 228 572.5 236.5Q595 245 621 245Q667 245 693.5 219Q720 193 720 155V102Q720 75 708.5 54Q697 33 678 18Q659 3 633 -4.5Q607 -12 579 -12ZM141 630 92 619 82 687 184 714H236V316H141Z" glyph-name="uni2159" horiz-adv-x="769" unicode="&#8537;" /><glyph d="M552 718H618L229 -2H163ZM188 304Q128 304 91 331Q54 358 54 403V430H142V418Q142 400 154.5 388.5Q167 377 190 377Q212 377 225 389.5Q238 402 238 429V461Q238 485 224 496.5Q210 508 190 508Q176 508 164.5 500.5Q153 493 145 485L60 494L70 710H310V634H148Q148 629 147 616Q146 603 145.5 589Q145 575 144 562Q143 549 143 544Q160 557 181 563Q202 569 222 569Q241 569 261 563.5Q281 558 297 546Q313 534 323 515.5Q333 497 333 470V418Q333 390 320.5 369Q308 348 287.5 333.5Q267 319 241 311.5Q215 304 188 304ZM589 60Q613 60 623.5 72.5Q634 85 634 102V148Q634 172 620.5 180.5Q607 189 590 189Q574 189 558 177Q542 165 542 139V103Q542 86 554 73Q566 60 589 60ZM586 -12Q558 -12 532.5 -4Q507 4 487.5 19Q468 34 456 55.5Q444 77 444 104V279Q444 311 456 334.5Q468 358 488.5 373Q509 388 535.5 395Q562 402 591 402Q651 402 686.5 372.5Q722 343 722 295V275H634V289Q634 309 620.5 318.5Q607 328 587 328Q565 328 553.5 316.5Q542 305 542 286V211Q557 228 579.5 236.5Q602 245 628 245Q674 245 700.5 219Q727 193 727 155V102Q727 75 715.5 54Q704 33 685 18Q666 3 640 -4.5Q614 -12 586 -12Z" glyph-name="uni215A" horiz-adv-x="769" unicode="&#8538;" /><glyph d="M529 718H595L206 -2H140ZM581 228Q601 228 613.5 238.5Q626 249 626 268V294Q626 314 611.5 324Q597 334 579 334Q562 334 547.5 324Q533 314 533 297V267Q533 247 547.5 237.5Q562 228 581 228ZM580 55Q627 55 627 97V124Q627 146 612 155.5Q597 165 580 165Q561 165 546.5 155.5Q532 146 532 126V96Q532 76 546 65.5Q560 55 580 55ZM580 -12Q519 -12 479.5 13Q440 38 440 94V121Q440 147 453.5 166.5Q467 186 490 197Q469 206 457 226.5Q445 247 445 267V295Q445 321 456 341Q467 361 485.5 374.5Q504 388 528.5 395Q553 402 580 402Q607 402 631.5 395.5Q656 389 674.5 376Q693 363 704 343Q715 323 715 297V269Q715 246 702.5 227Q690 208 670 198Q690 188 705.5 168Q721 148 721 124V92Q721 67 710 47.5Q699 28 680 15Q661 2 635 -5Q609 -12 580 -12ZM141 630 92 619 82 687 184 714H236V316H141Z" glyph-name="uni215B" horiz-adv-x="769" unicode="&#8539;" /><glyph d="M559 718H625L236 -2H170ZM192 304Q123 304 88.5 333Q54 362 54 414V430H142V417Q142 396 156 386Q170 376 189 376Q212 376 224 390Q236 404 236 430Q236 445 230.5 455Q225 465 217.5 471Q210 477 201.5 479Q193 481 186 481H150V544H180Q203 544 217.5 555.5Q232 567 232 596Q232 622 218.5 632.5Q205 643 188 643Q166 643 154.5 632Q143 621 143 602V591H57V607Q57 658 92 688Q127 718 190 718Q254 718 288.5 687Q323 656 323 608Q323 579 307 552Q291 525 259 516V514Q294 506 313.5 480.5Q333 455 333 422Q333 390 322 367.5Q311 345 292 331Q273 317 247.5 310.5Q222 304 192 304ZM590 228Q610 228 622.5 238.5Q635 249 635 268V294Q635 314 620.5 324Q606 334 588 334Q571 334 556.5 324Q542 314 542 297V267Q542 247 556.5 237.5Q571 228 590 228ZM589 55Q636 55 636 97V124Q636 146 621 155.5Q606 165 589 165Q570 165 555.5 155.5Q541 146 541 126V96Q541 76 555 65.5Q569 55 589 55ZM589 -12Q528 -12 488.5 13Q449 38 449 94V121Q449 147 462.5 166.5Q476 186 499 197Q478 206 466 226.5Q454 247 454 267V295Q454 321 465 341Q476 361 494.5 374.5Q513 388 537.5 395Q562 402 589 402Q616 402 640.5 395.5Q665 389 683.5 376Q702 363 713 343Q724 323 724 297V269Q724 246 711.5 227Q699 208 679 198Q699 188 714.5 168Q730 148 730 124V92Q730 67 719 47.5Q708 28 689 15Q670 2 644 -5Q618 -12 589 -12Z" glyph-name="uni215C" horiz-adv-x="769" unicode="&#8540;" /><glyph d="M552 718H618L229 -2H163ZM189 304Q129 304 92 331Q55 358 55 403V430H143V418Q143 400 155.5 388.5Q168 377 191 377Q213 377 226 389.5Q239 402 239 429V461Q239 485 225 496.5Q211 508 191 508Q177 508 165.5 500.5Q154 493 146 485L61 494L71 710H311V634H149Q149 629 148 616Q147 603 146.5 589Q146 575 145 562Q144 549 144 544Q161 557 182 563Q203 569 223 569Q242 569 262 563.5Q282 558 298 546Q314 534 324 515.5Q334 497 334 470V418Q334 390 321.5 369Q309 348 288.5 333.5Q268 319 242 311.5Q216 304 189 304ZM586 228Q606 228 618.5 238.5Q631 249 631 268V294Q631 314 616.5 324Q602 334 584 334Q567 334 552.5 324Q538 314 538 297V267Q538 247 552.5 237.5Q567 228 586 228ZM585 55Q632 55 632 97V124Q632 146 617 155.5Q602 165 585 165Q566 165 551.5 155.5Q537 146 537 126V96Q537 76 551 65.5Q565 55 585 55ZM585 -12Q524 -12 484.5 13Q445 38 445 94V121Q445 147 458.5 166.5Q472 186 495 197Q474 206 462 226.5Q450 247 450 267V295Q450 321 461 341Q472 361 490.5 374.5Q509 388 533.5 395Q558 402 585 402Q612 402 636.5 395.5Q661 389 679.5 376Q698 363 709 343Q720 323 720 297V269Q720 246 707.5 227Q695 208 675 198Q695 188 710.5 168Q726 148 726 124V92Q726 67 715 47.5Q704 28 685 15Q666 2 640 -5Q614 -12 585 -12Z" glyph-name="uni215D" horiz-adv-x="769" unicode="&#8541;" /><glyph d="M535 718H601L212 -2H146ZM118 316Q118 364 129.5 410.5Q141 457 158.5 498Q176 539 198 573.5Q220 608 242 634H68V710H342V646Q316 620 293.5 583.5Q271 547 255 504Q239 461 230 413Q221 365 221 316ZM586 228Q606 228 618.5 238.5Q631 249 631 268V294Q631 314 616.5 324Q602 334 584 334Q567 334 552.5 324Q538 314 538 297V267Q538 247 552.5 237.5Q567 228 586 228ZM585 55Q632 55 632 97V124Q632 146 617 155.5Q602 165 585 165Q566 165 551.5 155.5Q537 146 537 126V96Q537 76 551 65.5Q565 55 585 55ZM585 -12Q524 -12 484.5 13Q445 38 445 94V121Q445 147 458.5 166.5Q472 186 495 197Q474 206 462 226.5Q450 247 450 267V295Q450 321 461 341Q472 361 490.5 374.5Q509 388 533.5 395Q558 402 585 402Q612 402 636.5 395.5Q661 389 679.5 376Q698 363 709 343Q720 323 720 297V269Q720 246 707.5 227Q695 208 675 198Q695 188 710.5 168Q726 148 726 124V92Q726 67 715 47.5Q704 28 685 15Q666 2 640 -5Q614 -12 585 -12Z" glyph-name="uni215E" horiz-adv-x="769" unicode="&#8542;" /><glyph d="M193 386 196 238H112L118 518L126 524L406 531L408 452L257 451L489 217L426 155Z" glyph-name="uni2196" horiz-adv-x="575" unicode="&#8598;" /><glyph d="M112 217 345 451 194 452 195 531 476 524 483 518 489 238H405L409 386L176 155Z" glyph-name="uni2197" horiz-adv-x="575" unicode="&#8599;" /><glyph d="M194 234 345 235 112 468 176 531 409 299Q409 306 408.5 327.5Q408 349 407 373.5Q406 398 405.5 419.5Q405 441 405 449H489Q489 443 488.5 421.5Q488 400 487.5 371Q487 342 486 309Q485 276 484.5 247Q484 218 483.5 196.5Q483 175 483 169L476 163L195 155Z" glyph-name="uni2198" horiz-adv-x="575" unicode="&#8600;" /><glyph d="M126 163 118 169 112 449H196L193 299L426 531L489 468L257 235L408 234L406 155Z" glyph-name="uni2199" horiz-adv-x="575" unicode="&#8601;" /><glyph d="M57 209 53 216 338 533 344 532 483 133 477 127Z" glyph-name="uni25E2" horiz-adv-x="522" unicode="&#9698;" /><glyph d="M53 133 192 532 199 533 483 216 480 209 59 127Z" glyph-name="uni25E3" horiz-adv-x="522" unicode="&#9699;" /><glyph d="M199 126Q197 126 195.5 126.5Q194 127 192 127Q157 227 122.5 326Q88 425 53 525Q53 526 55.5 528.5Q58 531 59 532L479 450Q481 448 481.5 446Q482 444 483 442Z" glyph-name="uni25E4" horiz-adv-x="522" unicode="&#9700;" /><glyph d="M53 442Q54 444 54.5 446Q55 448 57 450L477 532L483 525Q479 515 468.5 484.5Q458 454 443.5 413Q429 372 413.5 326Q398 280 383.5 239Q369 198 358.5 167.5Q348 137 344 127Q342 127 340.5 126.5Q339 126 338 126Z" glyph-name="uni25E5" horiz-adv-x="522" unicode="&#9701;" /><glyph d="M201 -12Q174 -12 148 -2.5Q122 7 102 25Q82 43 70 70Q58 97 58 133V525H190V171Q190 136 203.5 113.5Q217 91 257 91Q295 91 322.5 121.5Q350 152 350 200V525H482V0H443Q410 -13 390.5 -36.5Q371 -60 371 -90Q371 -114 383.5 -126Q396 -138 419 -138Q432 -138 447.5 -132.5Q463 -127 474 -119L506 -177Q489 -190 462 -198.5Q435 -207 400 -207Q379 -207 359.5 -201.5Q340 -196 325 -184Q310 -172 301 -154Q292 -136 292 -111Q292 -72 311 -42Q330 -12 358 7L355 82H353Q334 42 292 15Q250 -12 201 -12Z" glyph-name="uogonek" horiz-adv-x="540" unicode="&#371;" /><glyph d="M201 -12Q174 -12 148 -2.5Q122 7 102 25Q82 43 70 70Q58 97 58 133V525H190V171Q190 136 203.5 113.5Q217 91 257 91Q295 91 322.5 121.5Q350 152 350 200V525H482V0H359L355 82H353Q334 42 292 15Q250 -12 201 -12ZM268 618Q290 618 302 632Q314 646 314 670Q314 693 302.5 707.5Q291 722 267 722Q245 722 234.5 707Q224 692 224 669Q224 646 236 632Q248 618 268 618ZM269 572Q225 572 198 599Q171 626 171 668Q171 711 199.5 739.5Q228 768 268 768Q313 768 340 743Q367 718 367 673Q367 652 359.5 633.5Q352 615 338.5 601.5Q325 588 307.5 580Q290 572 269 572Z" glyph-name="uring" horiz-adv-x="540" unicode="&#367;" /><glyph d="M86 594Q89 618 97 640.5Q105 663 118.5 680.5Q132 698 151 708Q170 718 194 718Q213 718 232.5 712.5Q252 707 271 700Q290 693 309 687.5Q328 682 348 682Q368 682 377.5 695.5Q387 709 395 730L453 715Q450 692 442.5 670Q435 648 422 631.5Q409 615 390.5 605Q372 595 348 595Q328 595 309 600.5Q290 606 271 612.5Q252 619 233 624.5Q214 630 196 630Q175 630 166.5 617.5Q158 605 151 582ZM201 -12Q174 -12 148 -2.5Q122 7 102 25Q82 43 70 70Q58 97 58 133V525H190V171Q190 136 203.5 113.5Q217 91 257 91Q295 91 322.5 121.5Q350 152 350 200V525H482V0H359L355 82H353Q334 42 292 15Q250 -12 201 -12Z" glyph-name="utilde" horiz-adv-x="540" unicode="&#361;" /><glyph d="M16 525H157L248 181H250L345 525H468L304 -1H179Z" glyph-name="v" horiz-adv-x="485" unicode="v" /><glyph d="M21 525H158L220 210H225L303 525H430L506 210H510L577 525H697L565 -1H447L362 360H359L271 -1H150Z" glyph-name="w" horiz-adv-x="719" unicode="w" /><glyph d="M21 525H158L220 210H225L303 525H430L506 210H510L577 525H697L565 -1H447L362 360H359L271 -1H150ZM406 739H536L419 584H320Z" glyph-name="wacute" horiz-adv-x="719" unicode="&#7811;" /><glyph d="M21 525H158L220 210H225L303 525H430L506 210H510L577 525H697L565 -1H447L362 360H359L271 -1H150ZM311 745H406L512 585H409L356 674L302 585H204Z" glyph-name="wcircumflex" horiz-adv-x="719" unicode="&#373;" /><glyph d="M21 525H158L220 210H225L303 525H430L506 210H510L577 525H697L565 -1H447L362 360H359L271 -1H150ZM395 730H506V595H395ZM211 730H322V595H211Z" glyph-name="wdieresis" horiz-adv-x="719" unicode="&#7813;" /><glyph d="M196 739H327L413 584H315ZM21 525H158L220 210H225L303 525H430L506 210H510L577 525H697L565 -1H447L362 360H359L271 -1H150Z" glyph-name="wgrave" horiz-adv-x="719" unicode="&#7809;" /><glyph d="M595 72V642H121V72ZM47 713H669V0H47Z" glyph-name="whitesquare" horiz-adv-x="716" unicode="&#9633;" /><glyph d="M164 269 22 525H165L252 361L336 525H463L319 272L469 0H327L231 180L136 0H9Z" glyph-name="x" horiz-adv-x="478" unicode="x" /><glyph d="M127 -188Q81 -188 47 -179L54 -71Q68 -75 86 -77Q104 -79 118 -79Q138 -79 152.5 -70Q167 -61 176 -35L190 12L14 525H153L257 184H258L355 525H475L298 -40Q272 -121 229.5 -154.5Q187 -188 127 -188Z" glyph-name="y" horiz-adv-x="488" unicode="y" /><glyph d="M294 739H424L307 584H208ZM127 -188Q81 -188 47 -179L54 -71Q68 -75 86 -77Q104 -79 118 -79Q138 -79 152.5 -70Q167 -61 176 -35L190 12L14 525H153L257 184H258L355 525H475L298 -40Q272 -121 229.5 -154.5Q187 -188 127 -188Z" glyph-name="yacute" horiz-adv-x="488" unicode="&#253;" /><glyph d="M196 745H291L397 585H294L241 674L187 585H89ZM127 -188Q81 -188 47 -179L54 -71Q68 -75 86 -77Q104 -79 118 -79Q138 -79 152.5 -70Q167 -61 176 -35L190 12L14 525H153L257 184H258L355 525H475L298 -40Q272 -121 229.5 -154.5Q187 -188 127 -188Z" glyph-name="ycircumflex" horiz-adv-x="488" unicode="&#375;" /><glyph d="M301 730H412V595H301ZM117 730H228V595H117ZM127 -188Q81 -188 47 -179L54 -71Q68 -75 86 -77Q104 -79 118 -79Q138 -79 152.5 -70Q167 -61 176 -35L190 12L14 525H153L257 184H258L355 525H475L298 -40Q272 -121 229.5 -154.5Q187 -188 127 -188Z" glyph-name="ydieresis" horiz-adv-x="488" unicode="&#255;" /><glyph d="M211 244H50V331H189L12 713H161L290 420L416 713H554L377 331H517V244H355V0H211Z" glyph-name="yen" horiz-adv-x="566" unicode="&#165;" /><glyph d="M86 739H217L303 584H205ZM127 -188Q81 -188 47 -179L54 -71Q68 -75 86 -77Q104 -79 118 -79Q138 -79 152.5 -70Q167 -61 176 -35L190 12L14 525H153L257 184H258L355 525H475L298 -40Q272 -121 229.5 -154.5Q187 -188 127 -188Z" glyph-name="ygrave" horiz-adv-x="488" unicode="&#7923;" /><glyph d="M40 84 261 423H46V525H421V438L205 103H421V0H40Z" glyph-name="z" horiz-adv-x="462" unicode="z" /><glyph d="M40 84 261 423H46V525H421V438L205 103H421V0H40ZM266 739H396L279 584H180Z" glyph-name="zacute" horiz-adv-x="462" unicode="&#378;" /><glyph d="M40 84 261 423H46V525H421V438L205 103H421V0H40ZM82 750H185L238 660L292 750H393L282 590H187Z" glyph-name="zcaron" horiz-adv-x="462" unicode="&#382;" /><glyph d="M174 731H292V595H174ZM40 84 261 423H46V525H421V438L205 103H421V0H40Z" glyph-name="zdotaccent" horiz-adv-x="462" unicode="&#380;" /><glyph d="M283 101Q331 101 352 126.5Q373 152 373 187V532Q373 564 349 588.5Q325 613 282 613Q237 613 213 589Q189 565 189 530V187Q189 147 212.5 124Q236 101 283 101ZM283 -12Q239 -12 197 -1Q155 10 122 34Q89 58 69 95Q49 132 49 184V527Q49 579 69 616.5Q89 654 121.5 678Q154 702 195.5 713.5Q237 725 281 725Q327 725 368.5 713.5Q410 702 442 678Q474 654 493 616Q512 578 512 526V185Q512 134 492 96.5Q472 59 440 35Q408 11 366.5 -0.5Q325 -12 283 -12Z" glyph-name="zero" horiz-adv-x="563" unicode="0" /><glyph d="M273 101Q321 101 342 126.5Q363 152 363 187V532Q363 564 339 588.5Q315 613 272 613Q227 613 203 589Q179 565 179 530V187Q179 147 202.5 124Q226 101 273 101ZM273 -12Q229 -12 187 -1Q145 10 112 34Q79 58 59 95Q39 132 39 184V527Q39 579 59 616.5Q79 654 111.5 678Q144 702 185.5 713.5Q227 725 271 725Q317 725 358.5 713.5Q400 702 432 678Q464 654 483 616Q502 578 502 526V185Q502 134 482 96.5Q462 59 430 35Q398 11 356.5 -0.5Q315 -12 273 -12Z" glyph-name="zero.LT" horiz-adv-x="540" unicode="&#58687;" /><glyph d="M171 62Q196 62 206.5 76Q217 90 217 109V285Q217 303 205.5 315Q194 327 171 327Q147 327 134.5 314.5Q122 302 122 284V108Q122 89 134 75.5Q146 62 171 62ZM172 -12Q145 -12 120 -5.5Q95 1 75 15Q55 29 43 51.5Q31 74 31 107V281Q31 314 43 337Q55 360 74.5 374.5Q94 389 119 395.5Q144 402 170 402Q197 402 222 395.5Q247 389 266.5 374Q286 359 298 336Q310 313 310 280V108Q310 76 298 53.5Q286 31 266.5 16.5Q247 2 222 -5Q197 -12 172 -12Z" glyph-name="zero.dnom" horiz-adv-x="341" unicode="&#58370;" /><glyph d="M171 380Q196 380 206.5 394Q217 408 217 427V603Q217 621 205.5 633Q194 645 171 645Q147 645 134.5 632.5Q122 620 122 602V426Q122 407 134 393.5Q146 380 171 380ZM172 306Q145 306 120 312.5Q95 319 75 333Q55 347 43 369.5Q31 392 31 425V599Q31 632 43 655Q55 678 74.5 692.5Q94 707 119 713.5Q144 720 170 720Q197 720 222 713.5Q247 707 266.5 692Q286 677 298 654Q310 631 310 598V426Q310 394 298 371.5Q286 349 266.5 334.5Q247 320 222 313Q197 306 172 306Z" glyph-name="zero.numr" horiz-adv-x="341" unicode="&#58390;" /></font>
</defs>
</svg>
