<?xml version="1.0" standalone="no"?><!DOCTYPE svg PUBLIC "-//W3C//DTD SVG 1.1//EN" "http://www.w3.org/Graphics/SVG/1.1/DTD/svg11.dtd" ><svg version="1.1" xmlns="http://www.w3.org/2000/svg"><defs><font horiz-adv-x="0" id="font"><font-face ascent="750" bbox="-150 -225 1176 997" cap-height="713" descent="-250" font-family="Flama Condensed Black" font-stretch="normal" font-style="normal" font-weight="600" units-per-em="1000" x-height="528" /><missing-glyph d="M707 42V638H115V42ZM55 698H767V-18H55ZM195 158 380 343 195 528 235 568 420 383 605 568 645 528 460 343 645 158 605 118 420 303 235 118Z" horiz-adv-x="967" /><glyph glyph-name=".null" horiz-adv-x="0" /><glyph d="M307 270 268 522H265L223 270ZM160 714H394L530 0H358L334 133H196L173 0H16Z" glyph-name="A" horiz-adv-x="546" unicode="A" /><glyph d="M347 280V535H342L268 280ZM252 713H720V569H518V434H678V289H518V145H721V0H347V152H222L181 0H12Z" glyph-name="AE" horiz-adv-x="749" unicode="&#198;" /><glyph d="M433 908H587L479 755H367ZM347 280V535H342L268 280ZM252 713H720V569H518V434H678V289H518V145H721V0H347V152H222L181 0H12Z" glyph-name="AEacute" horiz-adv-x="749" unicode="&#508;" /><glyph d="M281 908H435L327 755H215ZM307 270 268 522H265L223 270ZM160 714H394L530 0H358L334 133H196L173 0H16Z" glyph-name="Aacute" horiz-adv-x="546" unicode="&#193;" /><glyph d="M276 753Q205 753 163.5 793Q122 833 120 916H222Q227 879 237.5 861.5Q248 844 278 844Q303 844 313.5 861.5Q324 879 326 916H425Q425 873 413 842Q401 811 380.5 791.5Q360 772 333 762.5Q306 753 276 753ZM307 270 268 522H265L223 270ZM160 714H394L530 0H358L334 133H196L173 0H16Z" glyph-name="Abreve" horiz-adv-x="546" unicode="&#258;" /><glyph d="M221 913H334L433 755H313L275 824L237 755H122ZM307 270 268 522H265L223 270ZM160 714H394L530 0H358L334 133H196L173 0H16Z" glyph-name="Acircumflex" horiz-adv-x="546" unicode="&#194;" /><glyph d="M297 906H417V753H297ZM129 906H249V753H129ZM307 270 268 522H265L223 270ZM160 714H394L530 0H358L334 133H196L173 0H16Z" glyph-name="Adieresis" horiz-adv-x="546" unicode="&#196;" /><glyph d="M112 908H266L332 755H220ZM307 270 268 522H265L223 270ZM160 714H394L530 0H358L334 133H196L173 0H16Z" glyph-name="Agrave" horiz-adv-x="546" unicode="&#192;" /><glyph d="M146 871H400V763H146ZM307 270 268 522H265L223 270ZM160 714H394L530 0H358L334 133H196L173 0H16Z" glyph-name="Amacron" horiz-adv-x="546" unicode="&#256;" /><glyph d="M307 270 268 522H265L223 270ZM472 -206Q448 -206 426 -200.5Q404 -195 387.5 -182.5Q371 -170 361 -150.5Q351 -131 351 -104Q351 -72 365.5 -46Q380 -20 403 0H358L334 133H196L173 0H16L160 714H394L530 0H521Q481 -12 463 -33Q445 -54 445 -77Q445 -100 458.5 -109.5Q472 -119 490 -119Q505 -119 522 -112Q539 -105 552 -96L592 -166Q571 -182 542.5 -194Q514 -206 472 -206Z" glyph-name="Aogonek" horiz-adv-x="546" unicode="&#260;" /><glyph d="M281 800Q301 800 312.5 813Q324 826 324 846Q324 866 312.5 879Q301 892 281 892Q262 892 250.5 879Q239 866 239 846Q239 826 251 813Q263 800 281 800ZM280 745Q237 745 207.5 772Q178 799 178 844Q178 889 207.5 917.5Q237 946 281 946Q326 946 354.5 919.5Q383 893 383 847Q383 825 375 806.5Q367 788 352.5 774.5Q338 761 319.5 753Q301 745 280 745ZM307 270 268 522H265L223 270ZM160 714H394L530 0H358L334 133H196L173 0H16Z" glyph-name="Aring" horiz-adv-x="546" unicode="&#197;" /><glyph d="M281 796Q300 796 310 808.5Q320 821 320 841Q320 862 309.5 874Q299 886 282 886Q264 886 254 873Q244 860 244 841Q244 820 253.5 808Q263 796 281 796ZM280 747Q232 747 207 774.5Q182 802 182 838Q182 854 187.5 870Q193 886 205 900L279 997L382 972L320 924Q347 914 364 892Q381 870 381 841Q381 800 352 773.5Q323 747 280 747ZM307 270 268 522H265L223 270ZM160 714H394L530 0H358L334 133H196L173 0H16Z" glyph-name="Aringacute" horiz-adv-x="546" unicode="&#506;" /><glyph d="M99 773Q103 800 112 823.5Q121 847 134 865Q147 883 164.5 893.5Q182 904 204 904Q221 904 237.5 899.5Q254 895 270 889Q286 883 301.5 878.5Q317 874 333 874Q348 874 356 883.5Q364 893 372 913L442 894Q438 869 430 845.5Q422 822 409 803.5Q396 785 378 774Q360 763 336 763Q321 763 304.5 767.5Q288 772 271.5 777.5Q255 783 239.5 787.5Q224 792 212 792Q198 792 190 785Q182 778 175 754ZM307 270 268 522H265L223 270ZM160 714H394L530 0H358L334 133H196L173 0H16Z" glyph-name="Atilde" horiz-adv-x="546" unicode="&#195;" /><glyph d="M249 427Q275 427 286 446Q297 465 297 506Q297 577 254 577H205V427ZM253 138Q276 138 287 158Q298 178 298 213Q298 252 286 269.5Q274 287 251 287H205V138ZM35 713H292Q331 713 363 703Q395 693 418 670.5Q441 648 453.5 613Q466 578 466 529Q466 491 459 462.5Q452 434 439 414Q426 394 409 381.5Q392 369 373 362V358Q415 345 442.5 307.5Q470 270 470 202Q470 101 422 50.5Q374 0 298 0H35Z" glyph-name="B" horiz-adv-x="498" unicode="B" /><glyph d="M250 -11Q203 -11 163 1Q123 13 93.5 37.5Q64 62 47 99Q30 136 30 187V530Q30 578 48 614Q66 650 96 674.5Q126 699 166.5 711.5Q207 724 252 724Q293 724 330.5 712.5Q368 701 396 677.5Q424 654 440.5 619Q457 584 457 538V461H302V526Q302 550 287.5 563Q273 576 252 576Q203 576 203 526V192Q203 167 215.5 152.5Q228 138 253 138Q273 138 287.5 151Q302 164 302 188V251H457V179Q457 133 441 97.5Q425 62 397 38Q369 14 331 1.5Q293 -11 250 -11Z" glyph-name="C" horiz-adv-x="482" unicode="C" /><glyph d="M244 908H398L290 755H178ZM250 -11Q203 -11 163 1Q123 13 93.5 37.5Q64 62 47 99Q30 136 30 187V530Q30 578 48 614Q66 650 96 674.5Q126 699 166.5 711.5Q207 724 252 724Q293 724 330.5 712.5Q368 701 396 677.5Q424 654 440.5 619Q457 584 457 538V461H302V526Q302 550 287.5 563Q273 576 252 576Q203 576 203 526V192Q203 167 215.5 152.5Q228 138 253 138Q273 138 287.5 151Q302 164 302 188V251H457V179Q457 133 441 97.5Q425 62 397 38Q369 14 331 1.5Q293 -11 250 -11Z" glyph-name="Cacute" horiz-adv-x="482" unicode="&#262;" /><glyph d="M84 917H204L242 848L280 917H398L297 759H183ZM250 -11Q203 -11 163 1Q123 13 93.5 37.5Q64 62 47 99Q30 136 30 187V530Q30 578 48 614Q66 650 96 674.5Q126 699 166.5 711.5Q207 724 252 724Q293 724 330.5 712.5Q368 701 396 677.5Q424 654 440.5 619Q457 584 457 538V461H302V526Q302 550 287.5 563Q273 576 252 576Q203 576 203 526V192Q203 167 215.5 152.5Q228 138 253 138Q273 138 287.5 151Q302 164 302 188V251H457V179Q457 133 441 97.5Q425 62 397 38Q369 14 331 1.5Q293 -11 250 -11Z" glyph-name="Ccaron" horiz-adv-x="482" unicode="&#268;" /><glyph d="M254 -199Q236 -199 211.5 -197Q187 -195 162 -188V-123Q185 -129 209 -132.5Q233 -136 247 -136Q264 -136 270.5 -130.5Q277 -125 277 -117Q277 -106 266 -103Q255 -100 246 -99L203 -96L223 -10Q181 -7 145.5 7Q110 21 84.5 45Q59 69 44.5 104.5Q30 140 30 187V530Q30 578 48 614Q66 650 96 674.5Q126 699 166.5 711.5Q207 724 252 724Q293 724 330.5 712.5Q368 701 396 677.5Q424 654 440.5 619Q457 584 457 538V461H302V526Q302 550 287.5 563Q273 576 252 576Q203 576 203 526V192Q203 167 215.5 152.5Q228 138 253 138Q273 138 287.5 151Q302 164 302 188V251H457V179Q457 137 443.5 104Q430 71 407 47.5Q384 24 351.5 9.5Q319 -5 282 -9L274 -47Q289 -47 307.5 -49Q326 -51 342 -58Q358 -65 368.5 -78Q379 -91 379 -112Q379 -133 368.5 -149.5Q358 -166 341 -177Q324 -188 301 -193.5Q278 -199 254 -199Z" glyph-name="Ccedilla" horiz-adv-x="482" unicode="&#199;" /><glyph d="M184 913H297L396 755H276L238 824L200 755H85ZM250 -11Q203 -11 163 1Q123 13 93.5 37.5Q64 62 47 99Q30 136 30 187V530Q30 578 48 614Q66 650 96 674.5Q126 699 166.5 711.5Q207 724 252 724Q293 724 330.5 712.5Q368 701 396 677.5Q424 654 440.5 619Q457 584 457 538V461H302V526Q302 550 287.5 563Q273 576 252 576Q203 576 203 526V192Q203 167 215.5 152.5Q228 138 253 138Q273 138 287.5 151Q302 164 302 188V251H457V179Q457 133 441 97.5Q425 62 397 38Q369 14 331 1.5Q293 -11 250 -11Z" glyph-name="Ccircumflex" horiz-adv-x="482" unicode="&#264;" /><glyph d="M176 906H305V753H176ZM250 -11Q203 -11 163 1Q123 13 93.5 37.5Q64 62 47 99Q30 136 30 187V530Q30 578 48 614Q66 650 96 674.5Q126 699 166.5 711.5Q207 724 252 724Q293 724 330.5 712.5Q368 701 396 677.5Q424 654 440.5 619Q457 584 457 538V461H302V526Q302 550 287.5 563Q273 576 252 576Q203 576 203 526V192Q203 167 215.5 152.5Q228 138 253 138Q273 138 287.5 151Q302 164 302 188V251H457V179Q457 133 441 97.5Q425 62 397 38Q369 14 331 1.5Q293 -11 250 -11Z" glyph-name="Cdotaccent" horiz-adv-x="482" unicode="&#266;" /><glyph d="M244 145Q273 145 285 162Q297 179 297 202V514Q297 538 283.5 553Q270 568 242 568H205V145ZM35 713H260Q303 713 341.5 701.5Q380 690 408 667.5Q436 645 452.5 610.5Q469 576 469 530V190Q469 141 452.5 105Q436 69 408 46Q380 23 341.5 11.5Q303 0 260 0H35Z" glyph-name="D" horiz-adv-x="499" unicode="D" /><glyph d="M81 917H201L239 848L277 917H395L294 759H180ZM244 145Q273 145 285 162Q297 179 297 202V514Q297 538 283.5 553Q270 568 242 568H205V145ZM35 713H260Q303 713 341.5 701.5Q380 690 408 667.5Q436 645 452.5 610.5Q469 576 469 530V190Q469 141 452.5 105Q436 69 408 46Q380 23 341.5 11.5Q303 0 260 0H35Z" glyph-name="Dcaron" horiz-adv-x="499" unicode="&#270;" /><glyph d="M265 145Q294 145 306 162Q318 179 318 202V514Q318 538 304.5 553Q291 568 263 568H226V419H297V318H226V145ZM20 419H56V713H281Q324 713 362.5 701.5Q401 690 429 667.5Q457 645 473.5 610.5Q490 576 490 530V190Q490 141 473.5 105Q457 69 429 46Q401 23 362.5 11.5Q324 0 281 0H56V318H20Z" glyph-name="Dcroat" horiz-adv-x="520" unicode="&#272;" /><glyph d="M341 147 266 531H263L193 147ZM22 106 162 714H379L521 107V0H22Z" glyph-name="Delta" horiz-adv-x="543" unicode="&#8710;" /><glyph d="M35 713H408V569H205V435H366V290H205V145H409V0H35Z" glyph-name="E" horiz-adv-x="437" unicode="E" /><glyph d="M35 713H408V569H205V435H366V290H205V145H409V0H35ZM223 908H377L269 755H157Z" glyph-name="Eacute" horiz-adv-x="437" unicode="&#201;" /><glyph d="M222 753Q151 753 109.5 793Q68 833 66 916H168Q173 879 183.5 861.5Q194 844 224 844Q249 844 259.5 861.5Q270 879 272 916H371Q371 873 359 842Q347 811 326.5 791.5Q306 772 279 762.5Q252 753 222 753ZM35 713H408V569H205V435H366V290H205V145H409V0H35Z" glyph-name="Ebreve" horiz-adv-x="437" unicode="&#276;" /><glyph d="M61 917H181L219 848L257 917H375L274 759H160ZM35 713H408V569H205V435H366V290H205V145H409V0H35Z" glyph-name="Ecaron" horiz-adv-x="437" unicode="&#282;" /><glyph d="M35 713H408V569H205V435H366V290H205V145H409V0H35ZM165 913H278L377 755H257L219 824L181 755H66Z" glyph-name="Ecircumflex" horiz-adv-x="437" unicode="&#202;" /><glyph d="M35 713H408V569H205V435H366V290H205V145H409V0H35ZM255 906H375V753H255ZM87 906H207V753H87Z" glyph-name="Edieresis" horiz-adv-x="437" unicode="&#203;" /><glyph d="M165 906H294V753H165ZM35 713H408V569H205V435H366V290H205V145H409V0H35Z" glyph-name="Edotaccent" horiz-adv-x="437" unicode="&#278;" /><glyph d="M78 908H232L298 755H186ZM35 713H408V569H205V435H366V290H205V145H409V0H35Z" glyph-name="Egrave" horiz-adv-x="437" unicode="&#200;" /><glyph d="M97 871H351V763H97ZM35 713H408V569H205V435H366V290H205V145H409V0H35Z" glyph-name="Emacron" horiz-adv-x="437" unicode="&#274;" /><glyph d="M352 -168Q334 -168 321 -166.5Q308 -165 292 -162V-40Q293 -41 300 -41Q307 -41 310 -41Q327 -41 332.5 -32.5Q338 -24 338 -7V12L189 367H186V0H35V713H207L341 393H344V713H495V-27Q495 -97 455 -132.5Q415 -168 352 -168Z" glyph-name="Eng" horiz-adv-x="530" unicode="&#330;" /><glyph d="M35 713H408V569H205V435H366V290H205V145H409V0H402Q362 -12 344 -33Q326 -54 326 -77Q326 -100 339.5 -109.5Q353 -119 371 -119Q386 -119 403 -112Q420 -105 433 -96L473 -166Q452 -182 423.5 -194Q395 -206 353 -206Q329 -206 307 -200.5Q285 -195 268.5 -182.5Q252 -170 242 -150.5Q232 -131 232 -104Q232 -72 246.5 -46Q261 -20 284 0H35Z" glyph-name="Eogonek" horiz-adv-x="437" unicode="&#280;" /><glyph d="M265 145Q294 145 306 162Q318 179 318 202V514Q318 538 304.5 553Q291 568 263 568H226V419H297V318H226V145ZM20 419H56V713H281Q324 713 362.5 701.5Q401 690 429 667.5Q457 645 473.5 610.5Q490 576 490 530V190Q490 141 473.5 105Q457 69 429 46Q401 23 362.5 11.5Q324 0 281 0H56V318H20Z" glyph-name="Eth" horiz-adv-x="520" unicode="&#208;" /><glyph d="M286 -12Q241 -12 201.5 0Q162 12 133.5 36Q105 60 88.5 95.5Q72 131 72 178V242H24V332H72V382H24V471H72V536Q72 580 89.5 615Q107 650 136.5 674.5Q166 699 205 712Q244 725 288 725Q329 725 366 714Q403 703 430.5 680Q458 657 474.5 622.5Q491 588 491 542V509H336V536Q336 560 322 573Q308 586 287 586Q267 586 255.5 573Q244 560 244 541V471H362V382H244V332H362V242H244V178Q244 155 257 141.5Q270 128 292 128Q312 128 324 141Q336 154 336 178V200H491V175Q491 129 475 94Q459 59 431.5 35.5Q404 12 366.5 0Q329 -12 286 -12Z" glyph-name="Euro" horiz-adv-x="514" unicode="&#8364;" /><glyph d="M35 713H408V569H205V430H366V284H205V0H35Z" glyph-name="F" horiz-adv-x="431" unicode="F" /><glyph d="M253 -11Q206 -11 165.5 1.5Q125 14 95 39Q65 64 47.5 101.5Q30 139 30 190V530Q30 578 47.5 614Q65 650 95.5 674.5Q126 699 166 711.5Q206 724 251 724Q292 724 331 713Q370 702 400 679.5Q430 657 448 622.5Q466 588 466 542V469H310V531Q310 555 292.5 567Q275 579 254 579Q231 579 217 566Q203 553 203 527V191Q203 166 215.5 150.5Q228 135 253 135Q300 135 300 184V252H237V379H466V176Q466 84 407.5 36.5Q349 -11 253 -11Z" glyph-name="G" horiz-adv-x="496" unicode="G" /><glyph d="M260 753Q189 753 147.5 793Q106 833 104 916H206Q211 879 221.5 861.5Q232 844 262 844Q287 844 297.5 861.5Q308 879 310 916H409Q409 873 397 842Q385 811 364.5 791.5Q344 772 317 762.5Q290 753 260 753ZM253 -11Q206 -11 165.5 1.5Q125 14 95 39Q65 64 47.5 101.5Q30 139 30 190V530Q30 578 47.5 614Q65 650 95.5 674.5Q126 699 166 711.5Q206 724 251 724Q292 724 331 713Q370 702 400 679.5Q430 657 448 622.5Q466 588 466 542V469H310V531Q310 555 292.5 567Q275 579 254 579Q231 579 217 566Q203 553 203 527V191Q203 166 215.5 150.5Q228 135 253 135Q300 135 300 184V252H237V379H466V176Q466 84 407.5 36.5Q349 -11 253 -11Z" glyph-name="Gbreve" horiz-adv-x="496" unicode="&#286;" /><glyph d="M191 913H304L403 755H283L245 824L207 755H92ZM253 -11Q206 -11 165.5 1.5Q125 14 95 39Q65 64 47.5 101.5Q30 139 30 190V530Q30 578 47.5 614Q65 650 95.5 674.5Q126 699 166 711.5Q206 724 251 724Q292 724 331 713Q370 702 400 679.5Q430 657 448 622.5Q466 588 466 542V469H310V531Q310 555 292.5 567Q275 579 254 579Q231 579 217 566Q203 553 203 527V191Q203 166 215.5 150.5Q228 135 253 135Q300 135 300 184V252H237V379H466V176Q466 84 407.5 36.5Q349 -11 253 -11Z" glyph-name="Gcircumflex" horiz-adv-x="496" unicode="&#284;" /><glyph d="M196 -33H331L291 -193H184ZM253 -11Q206 -11 165.5 1.5Q125 14 95 39Q65 64 47.5 101.5Q30 139 30 190V530Q30 578 47.5 614Q65 650 95.5 674.5Q126 699 166 711.5Q206 724 251 724Q292 724 331 713Q370 702 400 679.5Q430 657 448 622.5Q466 588 466 542V469H310V531Q310 555 292.5 567Q275 579 254 579Q231 579 217 566Q203 553 203 527V191Q203 166 215.5 150.5Q228 135 253 135Q300 135 300 184V252H237V379H466V176Q466 84 407.5 36.5Q349 -11 253 -11Z" glyph-name="Gcommaaccent" horiz-adv-x="496" unicode="&#290;" /><glyph d="M191 906H320V753H191ZM253 -11Q206 -11 165.5 1.5Q125 14 95 39Q65 64 47.5 101.5Q30 139 30 190V530Q30 578 47.5 614Q65 650 95.5 674.5Q126 699 166 711.5Q206 724 251 724Q292 724 331 713Q370 702 400 679.5Q430 657 448 622.5Q466 588 466 542V469H310V531Q310 555 292.5 567Q275 579 254 579Q231 579 217 566Q203 553 203 527V191Q203 166 215.5 150.5Q228 135 253 135Q300 135 300 184V252H237V379H466V176Q466 84 407.5 36.5Q349 -11 253 -11Z" glyph-name="Gdotaccent" horiz-adv-x="496" unicode="&#288;" /><glyph d="M35 713H206V434H303V713H473V0H303V280H206V0H35Z" glyph-name="H" horiz-adv-x="508" unicode="H" /><glyph d="M317 434V549H220V434ZM12 620H49V713H220V620H317V713H487V620H524V549H487V0H317V280H220V0H49V549H12Z" glyph-name="Hbar" horiz-adv-x="536" unicode="&#294;" /><glyph d="M197 913H310L409 755H289L251 824L213 755H98ZM35 713H206V434H303V713H473V0H303V280H206V0H35Z" glyph-name="Hcircumflex" horiz-adv-x="508" unicode="&#292;" /><glyph d="M35 713H206V0H35Z" glyph-name="I" horiz-adv-x="241" unicode="I" /><glyph d="M30 144H134V569H30V713H409V569H305V144H409V0H30Z" glyph-name="I.alt" horiz-adv-x="439" unicode="&#58504;" /><glyph d="M453 -11Q352 -11 298 37.5Q244 86 244 188V266H406V182Q406 162 415.5 148Q425 134 449 134Q474 134 483 149Q492 164 492 185V713H663V195Q663 96 607.5 42.5Q552 -11 453 -11ZM35 713H206V0H35Z" glyph-name="IJ" horiz-adv-x="695" unicode="&#306;" /><glyph d="M30 144H134V569H30V713H409V569H305V144H409V0H30ZM642 -11Q541 -11 487 37.5Q433 86 433 188V266H595V182Q595 162 604.5 148Q614 134 638 134Q663 134 672 149Q681 164 681 185V713H852V195Q852 96 796.5 42.5Q741 -11 642 -11Z" glyph-name="IJ.alt" horiz-adv-x="884" /><glyph d="M126 908H280L172 755H60ZM35 713H206V0H35Z" glyph-name="Iacute" horiz-adv-x="241" unicode="&#205;" /><glyph d="M30 144H134V569H30V713H409V569H305V144H409V0H30ZM225 908H379L271 755H159Z" glyph-name="Iacute.alt" horiz-adv-x="439" unicode="&#57651;" /><glyph d="M124 753Q53 753 11.5 793Q-30 833 -32 916H70Q75 879 85.5 861.5Q96 844 126 844Q151 844 161.5 861.5Q172 879 174 916H273Q273 873 261 842Q249 811 228.5 791.5Q208 772 181 762.5Q154 753 124 753ZM35 713H206V0H35Z" glyph-name="Ibreve" horiz-adv-x="241" unicode="&#300;" /><glyph d="M223 753Q152 753 110.5 793Q69 833 67 916H169Q174 879 184.5 861.5Q195 844 225 844Q250 844 260.5 861.5Q271 879 273 916H372Q372 873 360 842Q348 811 327.5 791.5Q307 772 280 762.5Q253 753 223 753ZM30 144H134V569H30V713H409V569H305V144H409V0H30Z" glyph-name="Ibreve.alt" horiz-adv-x="439" unicode="&#57657;" /><glyph d="M64 913H177L276 755H156L118 824L80 755H-35ZM35 713H206V0H35Z" glyph-name="Icircumflex" horiz-adv-x="241" unicode="&#206;" /><glyph d="M30 144H134V569H30V713H409V569H305V144H409V0H30ZM163 913H276L375 755H255L217 824L179 755H64Z" glyph-name="Icircumflex.alt" horiz-adv-x="439" unicode="&#57652;" /><glyph d="M144 906H264V753H144ZM-24 906H96V753H-24ZM35 713H206V0H35Z" glyph-name="Idieresis" horiz-adv-x="241" unicode="&#207;" /><glyph d="M30 144H134V569H30V713H409V569H305V144H409V0H30ZM243 906H363V753H243ZM75 906H195V753H75Z" glyph-name="Idieresis.alt" horiz-adv-x="439" unicode="&#57653;" /><glyph d="M56 906H185V753H56ZM35 713H206V0H35Z" glyph-name="Idotaccent" horiz-adv-x="241" unicode="&#304;" /><glyph d="M155 906H284V753H155ZM409 569H305V144H409V0H30V144H134V569H30V713H409Z" glyph-name="Idotaccent.alt" horiz-adv-x="439" unicode="&#57660;" /><glyph d="M-47 908H107L173 755H61ZM35 713H206V0H35Z" glyph-name="Igrave" horiz-adv-x="241" unicode="&#204;" /><glyph d="M52 908H206L272 755H160ZM409 569H305V144H409V0H30V144H134V569H30V713H409Z" glyph-name="Igrave.alt" horiz-adv-x="439" unicode="&#57650;" /><glyph d="M-6 871H248V763H-6ZM35 713H206V0H35Z" glyph-name="Imacron" horiz-adv-x="241" unicode="&#298;" /><glyph d="M93 871H347V763H93ZM409 569H305V144H409V0H30V144H134V569H30V713H409Z" glyph-name="Imacron.alt" horiz-adv-x="439" unicode="&#57656;" /><glyph d="M35 713H206V0H200Q167 -12 149.5 -33Q132 -54 132 -77Q132 -100 145.5 -107.5Q159 -115 177 -115Q185 -115 199.5 -111Q214 -107 228 -99L265 -174Q240 -191 211.5 -198Q183 -205 151 -205Q130 -205 109.5 -199Q89 -193 73.5 -180Q58 -167 48 -147Q38 -127 38 -100Q38 -69 52 -44Q66 -19 86 0H35Z" glyph-name="Iogonek" horiz-adv-x="241" unicode="&#302;" /><glyph d="M30 144H134V569H30V713H409V569H305V144H409V0H399Q366 -12 348.5 -33Q331 -54 331 -77Q331 -100 344.5 -107.5Q358 -115 376 -115Q384 -115 398.5 -111Q413 -107 427 -99L464 -174Q439 -191 410.5 -198Q382 -205 350 -205Q329 -205 308.5 -199Q288 -193 272.5 -180Q257 -167 247 -147Q237 -127 237 -100Q237 -69 251 -44Q265 -19 285 0H30Z" glyph-name="Iogonek.alt" horiz-adv-x="439" unicode="&#57662;" /><glyph d="M-51 773Q-47 800 -38 823.5Q-29 847 -16 865Q-3 883 14.5 893.5Q32 904 54 904Q71 904 87.5 899.5Q104 895 120 889Q136 883 151.5 878.5Q167 874 183 874Q198 874 206 883.5Q214 893 222 913L292 894Q288 869 280 845.5Q272 822 259 803.5Q246 785 228 774Q210 763 186 763Q171 763 154.5 767.5Q138 772 121.5 777.5Q105 783 89.5 787.5Q74 792 62 792Q48 792 40 785Q32 778 25 754ZM35 713H206V0H35Z" glyph-name="Itilde" horiz-adv-x="241" unicode="&#296;" /><glyph d="M48 773Q52 800 61 823.5Q70 847 83 865Q96 883 113.5 893.5Q131 904 153 904Q170 904 186.5 899.5Q203 895 219 889Q235 883 250.5 878.5Q266 874 282 874Q297 874 305 883.5Q313 893 321 913L391 894Q387 869 379 845.5Q371 822 358 803.5Q345 785 327 774Q309 763 285 763Q270 763 253.5 767.5Q237 772 220.5 777.5Q204 783 188.5 787.5Q173 792 161 792Q147 792 139 785Q131 778 124 754ZM30 144H134V569H30V713H409V569H305V144H409V0H30Z" glyph-name="Itilde.alt" horiz-adv-x="439" unicode="&#57654;" /><glyph d="M230 -11Q129 -11 75 37.5Q21 86 21 188V266H183V182Q183 162 192.5 148Q202 134 226 134Q251 134 260 149Q269 164 269 185V713H440V195Q440 96 384.5 42.5Q329 -11 230 -11Z" glyph-name="J" horiz-adv-x="472" unicode="J" /><glyph d="M268 913H381L480 755H360L322 824L284 755H169ZM230 -11Q129 -11 75 37.5Q21 86 21 188V266H183V182Q183 162 192.5 148Q202 134 226 134Q251 134 260 149Q269 164 269 185V713H440V195Q440 96 384.5 42.5Q329 -11 230 -11Z" glyph-name="Jcircumflex" horiz-adv-x="472" unicode="&#308;" /><glyph d="M35 713H206V416L323 713H490L368 431L492 0H310L242 293L206 223V0H35Z" glyph-name="K" horiz-adv-x="504" unicode="K" /><glyph d="M190 -33H325L285 -193H178ZM35 713H206V416L323 713H490L368 431L492 0H310L242 293L206 223V0H35Z" glyph-name="Kcommaaccent" horiz-adv-x="504" unicode="&#310;" /><glyph d="M35 713H205V145H409V0H35Z" glyph-name="L" horiz-adv-x="432" unicode="L" /><glyph d="M137 908H291L183 755H71ZM35 713H205V145H409V0H35Z" glyph-name="Lacute" horiz-adv-x="432" unicode="&#313;" /><glyph d="M242 713H361L321 512H236ZM35 713H205V145H409V0H35Z" glyph-name="Lcaron" horiz-adv-x="432" unicode="&#317;" /><glyph d="M170 -33H305L265 -193H158ZM35 713H205V145H409V0H35Z" glyph-name="Lcommaaccent" horiz-adv-x="432" unicode="&#315;" /><glyph d="M259 484H388V331H259ZM35 713H205V145H409V0H35Z" glyph-name="Ldot" horiz-adv-x="432" unicode="&#319;" /><glyph d="M20 366 54 387V713H224V492L293 535V428L224 385V145H428V0H54V280L20 259Z" glyph-name="Lslash" horiz-adv-x="451" unicode="&#321;" /><glyph d="M35 713H255L317 441H320L386 713H595V0H445V468H443L375 161H258L187 468H185V0H35Z" glyph-name="M" horiz-adv-x="630" unicode="M" /><glyph d="M35 713H207L341 393H344V713H495V0H343L189 367H186V0H35Z" glyph-name="N" horiz-adv-x="530" unicode="N" /><glyph d="M281 908H435L327 755H215ZM35 713H207L341 393H344V713H495V0H343L189 367H186V0H35Z" glyph-name="Nacute" horiz-adv-x="530" unicode="&#323;" /><glyph d="M108 917H228L266 848L304 917H422L321 759H207ZM35 713H207L341 393H344V713H495V0H343L189 367H186V0H35Z" glyph-name="Ncaron" horiz-adv-x="530" unicode="&#327;" /><glyph d="M203 -33H338L298 -193H191ZM35 713H207L341 393H344V713H495V0H343L189 367H186V0H35Z" glyph-name="Ncommaaccent" horiz-adv-x="530" unicode="&#325;" /><glyph d="M110 773Q114 800 123 823.5Q132 847 145 865Q158 883 175.5 893.5Q193 904 215 904Q232 904 248.5 899.5Q265 895 281 889Q297 883 312.5 878.5Q328 874 344 874Q359 874 367 883.5Q375 893 383 913L453 894Q449 869 441 845.5Q433 822 420 803.5Q407 785 389 774Q371 763 347 763Q332 763 315.5 767.5Q299 772 282.5 777.5Q266 783 250.5 787.5Q235 792 223 792Q209 792 201 785Q193 778 186 754ZM35 713H207L341 393H344V713H495V0H343L189 367H186V0H35Z" glyph-name="Ntilde" horiz-adv-x="530" unicode="&#209;" /><glyph d="M253 138Q276 138 289.5 152.5Q303 167 303 192V523Q303 549 288.5 562Q274 575 252 575Q203 575 203 523V193Q203 168 215.5 153Q228 138 253 138ZM253 -11Q203 -11 162 1Q121 13 92 38.5Q63 64 46.5 103Q30 142 30 196V517Q30 568 47 606.5Q64 645 94 671.5Q124 698 164.5 711Q205 724 252 724Q298 724 339 712Q380 700 410 674.5Q440 649 457.5 610Q475 571 475 517V197Q475 144 457.5 105Q440 66 410 40Q380 14 339.5 1.5Q299 -11 253 -11Z" glyph-name="O" horiz-adv-x="505" unicode="O" /><glyph d="M254 141Q277 141 291 155.5Q305 170 305 195V520Q305 546 290 559Q275 572 253 572Q203 572 203 520V196Q203 171 216 156Q229 141 254 141ZM227 -8Q127 -8 78.5 41.5Q30 91 30 199V514Q30 617 81.5 669Q133 721 228 721Q246 721 268.5 715.5Q291 710 305 701V713H679V569H475V434H637V289H475V145H680V0H305V13Q291 3 268 -2.5Q245 -8 227 -8Z" glyph-name="OE" horiz-adv-x="708" unicode="&#338;" /><glyph d="M253 138Q276 138 289.5 152.5Q303 167 303 192V523Q303 549 288.5 562Q274 575 252 575Q203 575 203 523V193Q203 168 215.5 153Q228 138 253 138ZM253 -11Q203 -11 162 1Q121 13 92 38.5Q63 64 46.5 103Q30 142 30 196V517Q30 568 47 606.5Q64 645 94 671.5Q124 698 164.5 711Q205 724 252 724Q298 724 339 712Q380 700 410 674.5Q440 649 457.5 610Q475 571 475 517V197Q475 144 457.5 105Q440 66 410 40Q380 14 339.5 1.5Q299 -11 253 -11ZM260 908H414L306 755H194Z" glyph-name="Oacute" horiz-adv-x="505" unicode="&#211;" /><glyph d="M256 753Q185 753 143.5 793Q102 833 100 916H202Q207 879 217.5 861.5Q228 844 258 844Q283 844 293.5 861.5Q304 879 306 916H405Q405 873 393 842Q381 811 360.5 791.5Q340 772 313 762.5Q286 753 256 753ZM253 138Q276 138 289.5 152.5Q303 167 303 192V523Q303 549 288.5 562Q274 575 252 575Q203 575 203 523V193Q203 168 215.5 153Q228 138 253 138ZM253 -11Q203 -11 162 1Q121 13 92 38.5Q63 64 46.5 103Q30 142 30 196V517Q30 568 47 606.5Q64 645 94 671.5Q124 698 164.5 711Q205 724 252 724Q298 724 339 712Q380 700 410 674.5Q440 649 457.5 610Q475 571 475 517V197Q475 144 457.5 105Q440 66 410 40Q380 14 339.5 1.5Q299 -11 253 -11Z" glyph-name="Obreve" horiz-adv-x="505" unicode="&#334;" /><glyph d="M253 138Q276 138 289.5 152.5Q303 167 303 192V523Q303 549 288.5 562Q274 575 252 575Q203 575 203 523V193Q203 168 215.5 153Q228 138 253 138ZM253 -11Q203 -11 162 1Q121 13 92 38.5Q63 64 46.5 103Q30 142 30 196V517Q30 568 47 606.5Q64 645 94 671.5Q124 698 164.5 711Q205 724 252 724Q298 724 339 712Q380 700 410 674.5Q440 649 457.5 610Q475 571 475 517V197Q475 144 457.5 105Q440 66 410 40Q380 14 339.5 1.5Q299 -11 253 -11ZM194 913H307L406 755H286L248 824L210 755H95Z" glyph-name="Ocircumflex" horiz-adv-x="505" unicode="&#212;" /><glyph d="M253 138Q276 138 289.5 152.5Q303 167 303 192V523Q303 549 288.5 562Q274 575 252 575Q203 575 203 523V193Q203 168 215.5 153Q228 138 253 138ZM253 -11Q203 -11 162 1Q121 13 92 38.5Q63 64 46.5 103Q30 142 30 196V517Q30 568 47 606.5Q64 645 94 671.5Q124 698 164.5 711Q205 724 252 724Q298 724 339 712Q380 700 410 674.5Q440 649 457.5 610Q475 571 475 517V197Q475 144 457.5 105Q440 66 410 40Q380 14 339.5 1.5Q299 -11 253 -11ZM275 906H395V753H275ZM107 906H227V753H107Z" glyph-name="Odieresis" horiz-adv-x="505" unicode="&#214;" /><glyph d="M96 908H250L316 755H204ZM253 138Q276 138 289.5 152.5Q303 167 303 192V523Q303 549 288.5 562Q274 575 252 575Q203 575 203 523V193Q203 168 215.5 153Q228 138 253 138ZM253 -11Q203 -11 162 1Q121 13 92 38.5Q63 64 46.5 103Q30 142 30 196V517Q30 568 47 606.5Q64 645 94 671.5Q124 698 164.5 711Q205 724 252 724Q298 724 339 712Q380 700 410 674.5Q440 649 457.5 610Q475 571 475 517V197Q475 144 457.5 105Q440 66 410 40Q380 14 339.5 1.5Q299 -11 253 -11Z" glyph-name="Ograve" horiz-adv-x="505" unicode="&#210;" /><glyph d="M331 906H457L379 754H274ZM159 906H285L213 754H106ZM253 138Q276 138 289.5 152.5Q303 167 303 192V523Q303 549 288.5 562Q274 575 252 575Q203 575 203 523V193Q203 168 215.5 153Q228 138 253 138ZM253 -11Q203 -11 162 1Q121 13 92 38.5Q63 64 46.5 103Q30 142 30 196V517Q30 568 47 606.5Q64 645 94 671.5Q124 698 164.5 711Q205 724 252 724Q298 724 339 712Q380 700 410 674.5Q440 649 457.5 610Q475 571 475 517V197Q475 144 457.5 105Q440 66 410 40Q380 14 339.5 1.5Q299 -11 253 -11Z" glyph-name="Ohungarumlaut" horiz-adv-x="505" unicode="&#336;" /><glyph d="M125 871H379V763H125ZM253 138Q276 138 289.5 152.5Q303 167 303 192V523Q303 549 288.5 562Q274 575 252 575Q203 575 203 523V193Q203 168 215.5 153Q228 138 253 138ZM253 -11Q203 -11 162 1Q121 13 92 38.5Q63 64 46.5 103Q30 142 30 196V517Q30 568 47 606.5Q64 645 94 671.5Q124 698 164.5 711Q205 724 252 724Q298 724 339 712Q380 700 410 674.5Q440 649 457.5 610Q475 571 475 517V197Q475 144 457.5 105Q440 66 410 40Q380 14 339.5 1.5Q299 -11 253 -11Z" glyph-name="Omacron" horiz-adv-x="505" unicode="&#332;" /><glyph d="M35 146 155 141V151Q136 157 113.5 170.5Q91 184 71.5 210Q52 236 39 276.5Q26 317 26 377V500Q26 613 84.5 668.5Q143 724 248 724Q356 724 414 669.5Q472 615 472 506V377Q472 319 459 279.5Q446 240 426.5 213.5Q407 187 384.5 172.5Q362 158 343 151V141L464 146V0H265V153Q274 167 280.5 180.5Q287 194 291 215Q295 236 297 268Q299 300 299 351V523Q299 547 285 561Q271 575 248 575Q225 575 212 560.5Q199 546 199 513V354Q199 312 199.5 283Q200 254 203 232Q206 210 213 191.5Q220 173 233 153V0H35Z" glyph-name="Omega" horiz-adv-x="498" unicode="&#8486;" /><glyph d="M253 138Q276 138 289.5 152.5Q303 167 303 192V401L212 156Q225 138 253 138ZM203 310 294 555Q280 575 252 575Q203 575 203 523ZM75 -35 100 32Q67 58 48.5 98.5Q30 139 30 196V517Q30 568 47 606.5Q64 645 94 671.5Q124 698 164.5 711Q205 724 252 724Q278 724 303 720Q328 716 350 708L372 766L431 748L405 678Q437 652 456 612.5Q475 573 475 517V197Q475 144 457.5 105Q440 66 410 40Q380 14 339.5 1.5Q299 -11 253 -11Q200 -11 156 3L135 -53Z" glyph-name="Oslash" horiz-adv-x="505" unicode="&#216;" /><glyph d="M253 138Q276 138 289.5 152.5Q303 167 303 192V401L212 156Q225 138 253 138ZM203 310 294 555Q280 575 252 575Q203 575 203 523ZM260 908H414L306 755H194ZM75 -35 100 32Q67 58 48.5 98.5Q30 139 30 196V517Q30 568 47 606.5Q64 645 94 671.5Q124 698 164.5 711Q205 724 252 724Q278 724 303 720Q328 716 350 708L372 766L431 748L405 678Q437 652 456 612.5Q475 573 475 517V197Q475 144 457.5 105Q440 66 410 40Q380 14 339.5 1.5Q299 -11 253 -11Q200 -11 156 3L135 -53Z" glyph-name="Oslashacute" horiz-adv-x="505" unicode="&#510;" /><glyph d="M76 773Q80 800 89 823.5Q98 847 111 865Q124 883 141.5 893.5Q159 904 181 904Q198 904 214.5 899.5Q231 895 247 889Q263 883 278.5 878.5Q294 874 310 874Q325 874 333 883.5Q341 893 349 913L419 894Q415 869 407 845.5Q399 822 386 803.5Q373 785 355 774Q337 763 313 763Q298 763 281.5 767.5Q265 772 248.5 777.5Q232 783 216.5 787.5Q201 792 189 792Q175 792 167 785Q159 778 152 754ZM253 138Q276 138 289.5 152.5Q303 167 303 192V523Q303 549 288.5 562Q274 575 252 575Q203 575 203 523V193Q203 168 215.5 153Q228 138 253 138ZM253 -11Q203 -11 162 1Q121 13 92 38.5Q63 64 46.5 103Q30 142 30 196V517Q30 568 47 606.5Q64 645 94 671.5Q124 698 164.5 711Q205 724 252 724Q298 724 339 712Q380 700 410 674.5Q440 649 457.5 610Q475 571 475 517V197Q475 144 457.5 105Q440 66 410 40Q380 14 339.5 1.5Q299 -11 253 -11Z" glyph-name="Otilde" horiz-adv-x="505" unicode="&#213;" /><glyph d="M248 384Q271 384 283 408Q295 432 295 485Q295 535 283 554Q271 573 248 573H206V384ZM35 713H279Q368 713 415 658Q462 603 462 489Q462 375 417.5 310.5Q373 246 275 246H206V0H35Z" glyph-name="P" horiz-adv-x="487" unicode="P" /><glyph d="M254 138Q277 138 291 152.5Q305 167 305 192V523Q305 549 290 562Q275 575 253 575Q203 575 203 523V193Q203 168 216 153Q229 138 254 138ZM284 -9Q276 -10 269 -10.5Q262 -11 254 -11Q204 -11 163 1Q122 13 92.5 38.5Q63 64 46.5 103Q30 142 30 196V517Q30 568 47 606.5Q64 645 94 671.5Q124 698 165 711Q206 724 253 724Q299 724 340 712Q381 700 411.5 674.5Q442 649 459.5 610Q477 571 477 517V197Q477 159 467.5 128.5Q458 98 441 75L503 35L397 -95Z" glyph-name="Q" horiz-adv-x="505" unicode="Q" /><glyph d="M248 394Q271 394 285.5 412.5Q300 431 300 485Q300 535 285.5 553.5Q271 572 248 572H206V394ZM35 713H265Q311 713 349 700.5Q387 688 414 662Q441 636 455.5 594.5Q470 553 470 495Q470 417 448.5 373Q427 329 392 306L479 0H302L240 269H206V0H35Z" glyph-name="R" horiz-adv-x="499" unicode="R" /><glyph d="M238 908H392L284 755H172ZM248 394Q271 394 285.5 412.5Q300 431 300 485Q300 535 285.5 553.5Q271 572 248 572H206V394ZM35 713H265Q311 713 349 700.5Q387 688 414 662Q441 636 455.5 594.5Q470 553 470 495Q470 417 448.5 373Q427 329 392 306L479 0H302L240 269H206V0H35Z" glyph-name="Racute" horiz-adv-x="499" unicode="&#340;" /><glyph d="M77 917H197L235 848L273 917H391L290 759H176ZM248 394Q271 394 285.5 412.5Q300 431 300 485Q300 535 285.5 553.5Q271 572 248 572H206V394ZM35 713H265Q311 713 349 700.5Q387 688 414 662Q441 636 455.5 594.5Q470 553 470 495Q470 417 448.5 373Q427 329 392 306L479 0H302L240 269H206V0H35Z" glyph-name="Rcaron" horiz-adv-x="499" unicode="&#344;" /><glyph d="M187 -33H322L282 -193H175ZM248 394Q271 394 285.5 412.5Q300 431 300 485Q300 535 285.5 553.5Q271 572 248 572H206V394ZM35 713H265Q311 713 349 700.5Q387 688 414 662Q441 636 455.5 594.5Q470 553 470 495Q470 417 448.5 373Q427 329 392 306L479 0H302L240 269H206V0H35Z" glyph-name="Rcommaaccent" horiz-adv-x="499" unicode="&#342;" /><glyph d="M232 -11Q135 -11 81 48.5Q27 108 22 208L180 213Q181 201 183 186Q185 171 190.5 158Q196 145 206 136Q216 127 234 127Q257 127 265 142.5Q273 158 273 177Q273 203 254.5 222.5Q236 242 204 270L145 322Q92 369 62 417.5Q32 466 32 529Q32 568 45 603.5Q58 639 83.5 666Q109 693 147.5 709Q186 725 238 725Q274 725 307.5 715Q341 705 368 680Q395 655 412.5 612.5Q430 570 432 506L283 501Q281 517 278.5 533Q276 549 270.5 561.5Q265 574 255.5 581.5Q246 589 230 589Q208 589 199 573.5Q190 558 190 542Q190 529 197 516.5Q204 504 215.5 492Q227 480 240 468.5Q253 457 265 447L323 396Q380 345 410 296Q440 247 440 184Q440 144 425.5 108.5Q411 73 384 46.5Q357 20 318.5 4.5Q280 -11 232 -11Z" glyph-name="S" horiz-adv-x="462" unicode="S" /><glyph d="M236 908H390L282 755H170ZM232 -11Q135 -11 81 48.5Q27 108 22 208L180 213Q181 201 183 186Q185 171 190.5 158Q196 145 206 136Q216 127 234 127Q257 127 265 142.5Q273 158 273 177Q273 203 254.5 222.5Q236 242 204 270L145 322Q92 369 62 417.5Q32 466 32 529Q32 568 45 603.5Q58 639 83.5 666Q109 693 147.5 709Q186 725 238 725Q274 725 307.5 715Q341 705 368 680Q395 655 412.5 612.5Q430 570 432 506L283 501Q281 517 278.5 533Q276 549 270.5 561.5Q265 574 255.5 581.5Q246 589 230 589Q208 589 199 573.5Q190 558 190 542Q190 529 197 516.5Q204 504 215.5 492Q227 480 240 468.5Q253 457 265 447L323 396Q380 345 410 296Q440 247 440 184Q440 144 425.5 108.5Q411 73 384 46.5Q357 20 318.5 4.5Q280 -11 232 -11Z" glyph-name="Sacute" horiz-adv-x="462" unicode="&#346;" /><glyph d="M67 917H187L225 848L263 917H381L280 759H166ZM232 -11Q135 -11 81 48.5Q27 108 22 208L180 213Q181 201 183 186Q185 171 190.5 158Q196 145 206 136Q216 127 234 127Q257 127 265 142.5Q273 158 273 177Q273 203 254.5 222.5Q236 242 204 270L145 322Q92 369 62 417.5Q32 466 32 529Q32 568 45 603.5Q58 639 83.5 666Q109 693 147.5 709Q186 725 238 725Q274 725 307.5 715Q341 705 368 680Q395 655 412.5 612.5Q430 570 432 506L283 501Q281 517 278.5 533Q276 549 270.5 561.5Q265 574 255.5 581.5Q246 589 230 589Q208 589 199 573.5Q190 558 190 542Q190 529 197 516.5Q204 504 215.5 492Q227 480 240 468.5Q253 457 265 447L323 396Q380 345 410 296Q440 247 440 184Q440 144 425.5 108.5Q411 73 384 46.5Q357 20 318.5 4.5Q280 -11 232 -11Z" glyph-name="Scaron" horiz-adv-x="462" unicode="&#352;" /><glyph d="M237 -199Q219 -199 194.5 -197Q170 -195 145 -188V-123Q168 -129 192 -132.5Q216 -136 230 -136Q247 -136 253.5 -130.5Q260 -125 260 -117Q260 -106 249 -103Q238 -100 229 -99L186 -96L206 -9Q121 -1 73.5 56.5Q26 114 22 208L180 213Q181 201 183 186Q185 171 190.5 158Q196 145 206 136Q216 127 234 127Q257 127 265 142.5Q273 158 273 177Q273 203 254.5 222.5Q236 242 204 270L145 322Q92 369 62 417.5Q32 466 32 529Q32 568 45 603.5Q58 639 83.5 666Q109 693 147.5 709Q186 725 238 725Q274 725 307.5 715Q341 705 368 680Q395 655 412.5 612.5Q430 570 432 506L283 501Q281 517 278.5 533Q276 549 270.5 561.5Q265 574 255.5 581.5Q246 589 230 589Q208 589 199 573.5Q190 558 190 542Q190 529 197 516.5Q204 504 215.5 492Q227 480 240 468.5Q253 457 265 447L323 396Q380 345 410 296Q440 247 440 184Q440 147 428 114.5Q416 82 393.5 56Q371 30 338.5 13Q306 -4 265 -9L257 -47Q272 -47 290.5 -49Q309 -51 325 -58Q341 -65 351.5 -78Q362 -91 362 -112Q362 -133 351.5 -149.5Q341 -166 324 -177Q307 -188 284 -193.5Q261 -199 237 -199Z" glyph-name="Scedilla" horiz-adv-x="462" unicode="&#350;" /><glyph d="M174 913H287L386 755H266L228 824L190 755H75ZM232 -11Q135 -11 81 48.5Q27 108 22 208L180 213Q181 201 183 186Q185 171 190.5 158Q196 145 206 136Q216 127 234 127Q257 127 265 142.5Q273 158 273 177Q273 203 254.5 222.5Q236 242 204 270L145 322Q92 369 62 417.5Q32 466 32 529Q32 568 45 603.5Q58 639 83.5 666Q109 693 147.5 709Q186 725 238 725Q274 725 307.5 715Q341 705 368 680Q395 655 412.5 612.5Q430 570 432 506L283 501Q281 517 278.5 533Q276 549 270.5 561.5Q265 574 255.5 581.5Q246 589 230 589Q208 589 199 573.5Q190 558 190 542Q190 529 197 516.5Q204 504 215.5 492Q227 480 240 468.5Q253 457 265 447L323 396Q380 345 410 296Q440 247 440 184Q440 144 425.5 108.5Q411 73 384 46.5Q357 20 318.5 4.5Q280 -11 232 -11Z" glyph-name="Scircumflex" horiz-adv-x="462" unicode="&#348;" /><glyph d="M183 -33H318L278 -193H171ZM232 -11Q135 -11 81 48.5Q27 108 22 208L180 213Q181 201 183 186Q185 171 190.5 158Q196 145 206 136Q216 127 234 127Q257 127 265 142.5Q273 158 273 177Q273 203 254.5 222.5Q236 242 204 270L145 322Q92 369 62 417.5Q32 466 32 529Q32 568 45 603.5Q58 639 83.5 666Q109 693 147.5 709Q186 725 238 725Q274 725 307.5 715Q341 705 368 680Q395 655 412.5 612.5Q430 570 432 506L283 501Q281 517 278.5 533Q276 549 270.5 561.5Q265 574 255.5 581.5Q246 589 230 589Q208 589 199 573.5Q190 558 190 542Q190 529 197 516.5Q204 504 215.5 492Q227 480 240 468.5Q253 457 265 447L323 396Q380 345 410 296Q440 247 440 184Q440 144 425.5 108.5Q411 73 384 46.5Q357 20 318.5 4.5Q280 -11 232 -11Z" glyph-name="Scommaaccent" horiz-adv-x="462" unicode="&#536;" /><glyph d="M150 569H16V713H455V569H322V0H150Z" glyph-name="T" horiz-adv-x="471" unicode="T" /><glyph d="M98 383H150V569H16V713H455V569H322V383H372V282H322V0H150V282H98Z" glyph-name="Tbar" horiz-adv-x="471" unicode="&#358;" /><glyph d="M78 917H198L236 848L274 917H392L291 759H177ZM150 569H16V713H455V569H322V0H150Z" glyph-name="Tcaron" horiz-adv-x="471" unicode="&#356;" /><glyph d="M173 -33H308L268 -193H161ZM150 569H16V713H455V569H322V0H150Z" glyph-name="Tcommaaccent" horiz-adv-x="471" unicode="&#354;" /><glyph d="M252 272Q275 272 287 295.5Q299 319 299 370Q299 419 287 437Q275 455 252 455H206V272ZM35 713H206V590H283Q372 590 419 538.5Q466 487 466 376Q466 266 421.5 203Q377 140 279 140H206V0H35Z" glyph-name="Thorn" horiz-adv-x="491" unicode="&#222;" /><glyph d="M245 -11Q144 -11 88 37.5Q32 86 32 191V713H204V194Q204 166 218 151.5Q232 137 255 137Q278 137 291 152Q304 167 304 194V713H467V194Q467 143 449.5 105Q432 67 402 41Q372 15 331.5 2Q291 -11 245 -11Z" glyph-name="U" horiz-adv-x="499" unicode="U" /><glyph d="M245 -11Q144 -11 88 37.5Q32 86 32 191V713H204V194Q204 166 218 151.5Q232 137 255 137Q278 137 291 152Q304 167 304 194V713H467V194Q467 143 449.5 105Q432 67 402 41Q372 15 331.5 2Q291 -11 245 -11ZM262 908H416L308 755H196Z" glyph-name="Uacute" horiz-adv-x="499" unicode="&#218;" /><glyph d="M253 753Q182 753 140.5 793Q99 833 97 916H199Q204 879 214.5 861.5Q225 844 255 844Q280 844 290.5 861.5Q301 879 303 916H402Q402 873 390 842Q378 811 357.5 791.5Q337 772 310 762.5Q283 753 253 753ZM245 -11Q144 -11 88 37.5Q32 86 32 191V713H204V194Q204 166 218 151.5Q232 137 255 137Q278 137 291 152Q304 167 304 194V713H467V194Q467 143 449.5 105Q432 67 402 41Q372 15 331.5 2Q291 -11 245 -11Z" glyph-name="Ubreve" horiz-adv-x="499" unicode="&#364;" /><glyph d="M245 -11Q144 -11 88 37.5Q32 86 32 191V713H204V194Q204 166 218 151.5Q232 137 255 137Q278 137 291 152Q304 167 304 194V713H467V194Q467 143 449.5 105Q432 67 402 41Q372 15 331.5 2Q291 -11 245 -11ZM199 913H312L411 755H291L253 824L215 755H100Z" glyph-name="Ucircumflex" horiz-adv-x="499" unicode="&#219;" /><glyph d="M245 -11Q144 -11 88 37.5Q32 86 32 191V713H204V194Q204 166 218 151.5Q232 137 255 137Q278 137 291 152Q304 167 304 194V713H467V194Q467 143 449.5 105Q432 67 402 41Q372 15 331.5 2Q291 -11 245 -11ZM281 906H401V753H281ZM113 906H233V753H113Z" glyph-name="Udieresis" horiz-adv-x="499" unicode="&#220;" /><glyph d="M102 908H256L322 755H210ZM245 -11Q144 -11 88 37.5Q32 86 32 191V713H204V194Q204 166 218 151.5Q232 137 255 137Q278 137 291 152Q304 167 304 194V713H467V194Q467 143 449.5 105Q432 67 402 41Q372 15 331.5 2Q291 -11 245 -11Z" glyph-name="Ugrave" horiz-adv-x="499" unicode="&#217;" /><glyph d="M335 906H461L383 754H278ZM163 906H289L217 754H110ZM245 -11Q144 -11 88 37.5Q32 86 32 191V713H204V194Q204 166 218 151.5Q232 137 255 137Q278 137 291 152Q304 167 304 194V713H467V194Q467 143 449.5 105Q432 67 402 41Q372 15 331.5 2Q291 -11 245 -11Z" glyph-name="Uhungarumlaut" horiz-adv-x="499" unicode="&#368;" /><glyph d="M130 871H384V763H130ZM245 -11Q144 -11 88 37.5Q32 86 32 191V713H204V194Q204 166 218 151.5Q232 137 255 137Q278 137 291 152Q304 167 304 194V713H467V194Q467 143 449.5 105Q432 67 402 41Q372 15 331.5 2Q291 -11 245 -11Z" glyph-name="Umacron" horiz-adv-x="499" unicode="&#362;" /><glyph d="M314 -206Q290 -206 268 -199.5Q246 -193 229.5 -180Q213 -167 203 -146.5Q193 -126 193 -99Q193 -73 203.5 -50.5Q214 -28 231 -11Q136 -7 84 41.5Q32 90 32 191V713H204V194Q204 166 218 151.5Q232 137 255 137Q278 137 291 152Q304 167 304 194V713H467V194Q467 118 429.5 70Q392 22 332 2Q313 -12 300 -31.5Q287 -51 287 -77Q287 -100 300.5 -109.5Q314 -119 332 -119Q347 -119 364 -113Q381 -107 394 -98L433 -169Q412 -185 384 -195.5Q356 -206 314 -206Z" glyph-name="Uogonek" horiz-adv-x="499" unicode="&#370;" /><glyph d="M250 800Q270 800 281.5 813Q293 826 293 846Q293 866 281.5 879Q270 892 250 892Q231 892 219.5 879Q208 866 208 846Q208 826 220 813Q232 800 250 800ZM249 745Q206 745 176.5 772Q147 799 147 844Q147 889 176.5 917.5Q206 946 250 946Q295 946 323.5 919.5Q352 893 352 847Q352 825 344 806.5Q336 788 321.5 774.5Q307 761 288.5 753Q270 745 249 745ZM245 -11Q144 -11 88 37.5Q32 86 32 191V713H204V194Q204 166 218 151.5Q232 137 255 137Q278 137 291 152Q304 167 304 194V713H467V194Q467 143 449.5 105Q432 67 402 41Q372 15 331.5 2Q291 -11 245 -11Z" glyph-name="Uring" horiz-adv-x="499" unicode="&#366;" /><glyph d="M78 773Q82 800 91 823.5Q100 847 113 865Q126 883 143.5 893.5Q161 904 183 904Q200 904 216.5 899.5Q233 895 249 889Q265 883 280.5 878.5Q296 874 312 874Q327 874 335 883.5Q343 893 351 913L421 894Q417 869 409 845.5Q401 822 388 803.5Q375 785 357 774Q339 763 315 763Q300 763 283.5 767.5Q267 772 250.5 777.5Q234 783 218.5 787.5Q203 792 191 792Q177 792 169 785Q161 778 154 754ZM245 -11Q144 -11 88 37.5Q32 86 32 191V713H204V194Q204 166 218 151.5Q232 137 255 137Q278 137 291 152Q304 167 304 194V713H467V194Q467 143 449.5 105Q432 67 402 41Q372 15 331.5 2Q291 -11 245 -11Z" glyph-name="Utilde" horiz-adv-x="499" unicode="&#360;" /><glyph d="M0 713H168L235 300H239L305 713H458L320 -2H139Z" glyph-name="V" horiz-adv-x="458" unicode="V" /><glyph d="M3 713H171L223 335H226L282 713H443L495 337H497L549 713H699L577 -2H419L357 406H352L287 -2H126Z" glyph-name="W" horiz-adv-x="702" unicode="W" /><glyph d="M380 908H534L426 755H314ZM3 713H171L223 335H226L282 713H443L495 337H497L549 713H699L577 -2H419L357 406H352L287 -2H126Z" glyph-name="Wacute" horiz-adv-x="702" unicode="&#7810;" /><glyph d="M294 913H407L506 755H386L348 824L310 755H195ZM3 713H171L223 335H226L282 713H443L495 337H497L549 713H699L577 -2H419L357 406H352L287 -2H126Z" glyph-name="Wcircumflex" horiz-adv-x="702" unicode="&#372;" /><glyph d="M381 906H501V753H381ZM213 906H333V753H213ZM3 713H171L223 335H226L282 713H443L495 337H497L549 713H699L577 -2H419L357 406H352L287 -2H126Z" glyph-name="Wdieresis" horiz-adv-x="702" unicode="&#7812;" /><glyph d="M198 908H352L418 755H306ZM3 713H171L223 335H226L282 713H443L495 337H497L549 713H699L577 -2H419L357 406H352L287 -2H126Z" glyph-name="Wgrave" horiz-adv-x="702" unicode="&#7808;" /><glyph d="M145 357 7 713H185L247 544L309 713H470L333 370L477 0H300L231 181L163 0H0Z" glyph-name="X" horiz-adv-x="477" unicode="X" /><glyph d="M156 269 0 713H182L252 466L320 713H483L327 269V0H156Z" glyph-name="Y" horiz-adv-x="483" unicode="Y" /><glyph d="M260 908H414L306 755H194ZM156 269 0 713H182L252 466L320 713H483L327 269V0H156Z" glyph-name="Yacute" horiz-adv-x="483" unicode="&#221;" /><glyph d="M200 913H313L412 755H292L254 824L216 755H101ZM156 269 0 713H182L252 466L320 713H483L327 269V0H156Z" glyph-name="Ycircumflex" horiz-adv-x="483" unicode="&#374;" /><glyph d="M275 906H395V753H275ZM107 906H227V753H107ZM156 269 0 713H182L252 466L320 713H483L327 269V0H156Z" glyph-name="Ydieresis" horiz-adv-x="483" unicode="&#376;" /><glyph d="M92 908H246L312 755H200ZM156 269 0 713H182L252 466L320 713H483L327 269V0H156Z" glyph-name="Ygrave" horiz-adv-x="483" unicode="&#7922;" /><glyph d="M28 108 232 569H30V713H421V586L223 145H415V0H28Z" glyph-name="Z" horiz-adv-x="443" unicode="Z" /><glyph d="M231 908H385L277 755H165ZM28 108 232 569H30V713H421V586L223 145H415V0H28Z" glyph-name="Zacute" horiz-adv-x="443" unicode="&#377;" /><glyph d="M80 917H200L238 848L276 917H394L293 759H179ZM28 108 232 569H30V713H421V586L223 145H415V0H28Z" glyph-name="Zcaron" horiz-adv-x="443" unicode="&#381;" /><glyph d="M169 906H298V753H169ZM28 108 232 569H30V713H421V586L223 145H415V0H28Z" glyph-name="Zdotaccent" horiz-adv-x="443" unicode="&#379;" /><glyph d="M211 111Q223 111 234 120.5Q245 130 245 148V240H228Q205 240 193 221.5Q181 203 181 173Q181 140 188.5 125.5Q196 111 211 111ZM147 -10Q122 -10 99.5 -1Q77 8 60 28Q43 48 33 79Q23 110 23 154Q23 199 40 232.5Q57 266 85 288Q113 310 149.5 321Q186 332 225 332H245V394Q245 408 236.5 418Q228 428 209 428Q187 428 181 416.5Q175 405 175 393V356H34V397Q34 433 47.5 461.5Q61 490 86 510.5Q111 531 144.5 542Q178 553 219 553Q303 553 352.5 510Q402 467 402 386V120Q402 102 403 81.5Q404 61 405 43.5Q406 26 407 13.5Q408 1 408 0H263Q262 4 261 12Q260 18 258.5 28Q257 38 256 52H253Q244 34 231 22Q218 10 203 3Q188 -4 173 -7Q158 -10 147 -10Z" glyph-name="a" horiz-adv-x="434" unicode="a" /><glyph d="M218 743H372L264 590H152ZM211 111Q223 111 234 120.5Q245 130 245 148V240H228Q205 240 193 221.5Q181 203 181 173Q181 140 188.5 125.5Q196 111 211 111ZM147 -10Q122 -10 99.5 -1Q77 8 60 28Q43 48 33 79Q23 110 23 154Q23 199 40 232.5Q57 266 85 288Q113 310 149.5 321Q186 332 225 332H245V394Q245 408 236.5 418Q228 428 209 428Q187 428 181 416.5Q175 405 175 393V356H34V397Q34 433 47.5 461.5Q61 490 86 510.5Q111 531 144.5 542Q178 553 219 553Q303 553 352.5 510Q402 467 402 386V120Q402 102 403 81.5Q404 61 405 43.5Q406 26 407 13.5Q408 1 408 0H263Q262 4 261 12Q260 18 258.5 28Q257 38 256 52H253Q244 34 231 22Q218 10 203 3Q188 -4 173 -7Q158 -10 147 -10Z" glyph-name="aacute" horiz-adv-x="434" unicode="&#225;" /><glyph d="M220 588Q149 588 107.5 628Q66 668 64 751H166Q171 714 181.5 696.5Q192 679 222 679Q247 679 257.5 696.5Q268 714 270 751H369Q369 708 357 677Q345 646 324.5 626.5Q304 607 277 597.5Q250 588 220 588ZM211 111Q223 111 234 120.5Q245 130 245 148V240H228Q205 240 193 221.5Q181 203 181 173Q181 140 188.5 125.5Q196 111 211 111ZM147 -10Q122 -10 99.5 -1Q77 8 60 28Q43 48 33 79Q23 110 23 154Q23 199 40 232.5Q57 266 85 288Q113 310 149.5 321Q186 332 225 332H245V394Q245 408 236.5 418Q228 428 209 428Q187 428 181 416.5Q175 405 175 393V356H34V397Q34 433 47.5 461.5Q61 490 86 510.5Q111 531 144.5 542Q178 553 219 553Q303 553 352.5 510Q402 467 402 386V120Q402 102 403 81.5Q404 61 405 43.5Q406 26 407 13.5Q408 1 408 0H263Q262 4 261 12Q260 18 258.5 28Q257 38 256 52H253Q244 34 231 22Q218 10 203 3Q188 -4 173 -7Q158 -10 147 -10Z" glyph-name="abreve" horiz-adv-x="434" unicode="&#259;" /><glyph d="M157 748H270L369 590H249L211 659L173 590H58ZM211 111Q223 111 234 120.5Q245 130 245 148V240H228Q205 240 193 221.5Q181 203 181 173Q181 140 188.5 125.5Q196 111 211 111ZM147 -10Q122 -10 99.5 -1Q77 8 60 28Q43 48 33 79Q23 110 23 154Q23 199 40 232.5Q57 266 85 288Q113 310 149.5 321Q186 332 225 332H245V394Q245 408 236.5 418Q228 428 209 428Q187 428 181 416.5Q175 405 175 393V356H34V397Q34 433 47.5 461.5Q61 490 86 510.5Q111 531 144.5 542Q178 553 219 553Q303 553 352.5 510Q402 467 402 386V120Q402 102 403 81.5Q404 61 405 43.5Q406 26 407 13.5Q408 1 408 0H263Q262 4 261 12Q260 18 258.5 28Q257 38 256 52H253Q244 34 231 22Q218 10 203 3Q188 -4 173 -7Q158 -10 147 -10Z" glyph-name="acircumflex" horiz-adv-x="434" unicode="&#226;" /><glyph d="M97 743H251L143 590H31Z" glyph-name="acute" horiz-adv-x="272" unicode="&#180;" /><glyph d="M238 741H358V588H238ZM70 741H190V588H70ZM211 111Q223 111 234 120.5Q245 130 245 148V240H228Q205 240 193 221.5Q181 203 181 173Q181 140 188.5 125.5Q196 111 211 111ZM147 -10Q122 -10 99.5 -1Q77 8 60 28Q43 48 33 79Q23 110 23 154Q23 199 40 232.5Q57 266 85 288Q113 310 149.5 321Q186 332 225 332H245V394Q245 408 236.5 418Q228 428 209 428Q187 428 181 416.5Q175 405 175 393V356H34V397Q34 433 47.5 461.5Q61 490 86 510.5Q111 531 144.5 542Q178 553 219 553Q303 553 352.5 510Q402 467 402 386V120Q402 102 403 81.5Q404 61 405 43.5Q406 26 407 13.5Q408 1 408 0H263Q262 4 261 12Q260 18 258.5 28Q257 38 256 52H253Q244 34 231 22Q218 10 203 3Q188 -4 173 -7Q158 -10 147 -10Z" glyph-name="adieresis" horiz-adv-x="434" unicode="&#228;" /><glyph d="M471 320V393Q471 410 461.5 419.5Q452 429 437 429Q421 429 412.5 419Q404 409 404 393V320ZM211 111Q223 111 234 120.5Q245 130 245 148V240H228Q205 240 193 221.5Q181 203 181 173Q181 140 188.5 125.5Q196 111 211 111ZM147 -12Q122 -12 99.5 -2.5Q77 7 60 27Q43 47 33 78.5Q23 110 23 154Q23 199 40 232.5Q57 266 85 288Q113 310 149.5 321Q186 332 225 332H245V394Q245 408 236.5 418Q228 428 209 428Q187 428 181 416.5Q175 405 175 393V356H34V397Q34 433 47.5 461.5Q61 490 86 510.5Q111 531 144.5 542Q178 553 219 553Q285 553 329 526Q352 539 379.5 546Q407 553 436 553Q515 553 562 509.5Q609 466 609 388V210H404V172Q404 143 423 129Q442 115 468 115Q497 115 525.5 121.5Q554 128 576 135L603 22Q583 13 564.5 6.5Q546 0 526.5 -4Q507 -8 485.5 -10Q464 -12 438 -12Q388 -12 347 4Q306 20 280 53Q266 31 247 18Q228 5 209 -1.5Q190 -8 173.5 -10Q157 -12 147 -12Z" glyph-name="ae" horiz-adv-x="637" unicode="&#230;" /><glyph d="M322 743H476L368 590H256ZM471 320V393Q471 410 461.5 419.5Q452 429 437 429Q421 429 412.5 419Q404 409 404 393V320ZM211 111Q223 111 234 120.5Q245 130 245 148V240H228Q205 240 193 221.5Q181 203 181 173Q181 140 188.5 125.5Q196 111 211 111ZM147 -12Q122 -12 99.5 -2.5Q77 7 60 27Q43 47 33 78.5Q23 110 23 154Q23 199 40 232.5Q57 266 85 288Q113 310 149.5 321Q186 332 225 332H245V394Q245 408 236.5 418Q228 428 209 428Q187 428 181 416.5Q175 405 175 393V356H34V397Q34 433 47.5 461.5Q61 490 86 510.5Q111 531 144.5 542Q178 553 219 553Q285 553 329 526Q352 539 379.5 546Q407 553 436 553Q515 553 562 509.5Q609 466 609 388V210H404V172Q404 143 423 129Q442 115 468 115Q497 115 525.5 121.5Q554 128 576 135L603 22Q583 13 564.5 6.5Q546 0 526.5 -4Q507 -8 485.5 -10Q464 -12 438 -12Q388 -12 347 4Q306 20 280 53Q266 31 247 18Q228 5 209 -1.5Q190 -8 173.5 -10Q157 -12 147 -12Z" glyph-name="aeacute" horiz-adv-x="637" unicode="&#509;" /><glyph d="M62 743H216L282 590H170ZM211 111Q223 111 234 120.5Q245 130 245 148V240H228Q205 240 193 221.5Q181 203 181 173Q181 140 188.5 125.5Q196 111 211 111ZM147 -10Q122 -10 99.5 -1Q77 8 60 28Q43 48 33 79Q23 110 23 154Q23 199 40 232.5Q57 266 85 288Q113 310 149.5 321Q186 332 225 332H245V394Q245 408 236.5 418Q228 428 209 428Q187 428 181 416.5Q175 405 175 393V356H34V397Q34 433 47.5 461.5Q61 490 86 510.5Q111 531 144.5 542Q178 553 219 553Q303 553 352.5 510Q402 467 402 386V120Q402 102 403 81.5Q404 61 405 43.5Q406 26 407 13.5Q408 1 408 0H263Q262 4 261 12Q260 18 258.5 28Q257 38 256 52H253Q244 34 231 22Q218 10 203 3Q188 -4 173 -7Q158 -10 147 -10Z" glyph-name="agrave" horiz-adv-x="434" unicode="&#224;" /><glyph d="M160 -205Q139 -205 118.5 -199Q98 -193 82.5 -180Q67 -167 57 -147Q47 -127 47 -100Q47 -73 58 -50Q69 -27 86 -9Q103 9 123.5 21.5Q144 34 163 41L215 2Q179 -10 160 -32Q141 -54 141 -77Q141 -100 154.5 -107.5Q168 -115 186 -115Q194 -115 208.5 -111Q223 -107 237 -99L274 -174Q249 -191 220.5 -198Q192 -205 160 -205Z" glyph-name="altogonek" horiz-adv-x="276" /><glyph d="M90 706H344V598H90ZM211 111Q223 111 234 120.5Q245 130 245 148V240H228Q205 240 193 221.5Q181 203 181 173Q181 140 188.5 125.5Q196 111 211 111ZM147 -10Q122 -10 99.5 -1Q77 8 60 28Q43 48 33 79Q23 110 23 154Q23 199 40 232.5Q57 266 85 288Q113 310 149.5 321Q186 332 225 332H245V394Q245 408 236.5 418Q228 428 209 428Q187 428 181 416.5Q175 405 175 393V356H34V397Q34 433 47.5 461.5Q61 490 86 510.5Q111 531 144.5 542Q178 553 219 553Q303 553 352.5 510Q402 467 402 386V120Q402 102 403 81.5Q404 61 405 43.5Q406 26 407 13.5Q408 1 408 0H263Q262 4 261 12Q260 18 258.5 28Q257 38 256 52H253Q244 34 231 22Q218 10 203 3Q188 -4 173 -7Q158 -10 147 -10Z" glyph-name="amacron" horiz-adv-x="434" unicode="&#257;" /><glyph d="M271 475Q285 488 293.5 510.5Q302 533 302 559Q302 582 293.5 594.5Q285 607 271 607Q253 607 245.5 593Q238 579 238 565Q238 548 246 527Q254 506 271 475ZM233 126Q262 126 280 150Q276 159 265 178Q254 197 241 218Q228 239 217 258Q206 277 202 286Q181 260 181 207Q181 192 184 177Q187 162 193 151Q199 140 209 133Q219 126 233 126ZM197 -13Q113 -13 69.5 41Q26 95 26 193Q26 265 57.5 315Q89 365 140 397Q122 432 105 470Q88 508 88 551Q88 587 99 618.5Q110 650 132.5 674Q155 698 188 711.5Q221 725 265 725Q344 725 389.5 682Q435 639 435 558Q435 501 408 451.5Q381 402 331 370Q334 364 341.5 351.5Q349 339 358 325Q367 311 375 298Q383 285 386 279Q390 293 392.5 310.5Q395 328 399 354L522 341Q518 312 510.5 282.5Q503 253 494.5 226.5Q486 200 477 178.5Q468 157 461 143Q464 135 476.5 114.5Q489 94 503 71.5Q517 49 529 28.5Q541 8 544 0H368L341 46Q309 14 272 0.5Q235 -13 197 -13Z" glyph-name="ampersand" horiz-adv-x="553" unicode="&amp;" /><glyph d="M211 111Q223 111 234 120.5Q245 130 245 148V240H228Q205 240 193 221.5Q181 203 181 173Q181 140 188.5 125.5Q196 111 211 111ZM331 -206Q307 -206 285 -200.5Q263 -195 246.5 -182.5Q230 -170 220 -150.5Q210 -131 210 -104Q210 -72 225 -46Q240 -20 263 0Q262 2 260 14Q258 26 256 52H253Q244 34 231 22Q218 10 203 3Q188 -4 173 -7Q158 -10 147 -10Q122 -10 99.5 -1Q77 8 60 28Q43 48 33 79Q23 110 23 154Q23 199 40 232.5Q57 266 85 288Q113 310 149.5 321Q186 332 225 332H245V394Q245 408 236.5 418Q228 428 209 428Q187 428 181 416.5Q175 405 175 393V356H34V397Q34 433 47.5 461.5Q61 490 86 510.5Q111 531 144.5 542Q178 553 219 553Q303 553 352.5 510Q402 467 402 386V120Q402 102 403 81.5Q404 61 405 43.5Q406 26 407 13.5Q408 1 408 0H380Q340 -12 322 -33Q304 -54 304 -77Q304 -100 317.5 -109.5Q331 -119 349 -119Q364 -119 381 -112Q398 -105 411 -96L451 -166Q430 -182 401.5 -194Q373 -206 331 -206Z" glyph-name="aogonek" horiz-adv-x="434" unicode="&#261;" /><glyph d="M567 -166 545 -170 537 -161Q555 -157 573 -151.5Q591 -146 607 -137.5Q623 -129 634.5 -115.5Q646 -102 651 -81Q653 -66 655 -40Q657 -14 659.5 19Q662 52 663.5 90.5Q665 129 667 168L551 165L553 178L668 184Q671 223 673 261Q675 299 676.5 332Q678 365 679 391.5Q680 418 681 433L726 459Q675 461 621.5 462.5Q568 464 516 466Q515 424 512.5 381Q510 338 508 309Q503 220 475.5 160Q448 100 412.5 63.5Q377 27 340 11.5Q303 -4 278 -4Q260 -4 234 1Q208 6 182 13.5Q156 21 133.5 29Q111 37 100 43L128 86Q134 84 156 75.5Q178 67 206.5 57Q235 47 265 39Q295 31 315 32Q343 32 370.5 52Q398 72 418.5 104Q439 136 451 176.5Q463 217 462 258Q462 267 463 288Q464 309 464.5 337Q465 365 466 398.5Q467 432 468 467Q450 467 432 468Q414 469 395 469Q362 469 329 456Q296 443 270.5 420.5Q245 398 229 367.5Q213 337 213 302Q223 281 246 261Q269 241 305 226Q305 223 302.5 217Q300 211 297 204Q294 197 290.5 191.5Q287 186 285 184Q260 194 244 208Q228 222 218.5 236.5Q209 251 204.5 266Q200 281 199 293Q199 335 216.5 371Q234 407 265 435.5Q296 464 339 483Q382 502 433 511H469L475 699L523 719Q455 722 383.5 725.5Q312 729 235 729Q201 729 168 716.5Q135 704 109 682Q83 660 67 629.5Q51 599 51 564Q74 521 144 493Q144 490 140.5 484Q137 478 133 471Q129 464 124.5 458.5Q120 453 119 451Q93 461 77 474.5Q61 488 51 503Q41 518 37 532.5Q33 547 32 560Q32 602 52 637Q72 672 104 699Q136 726 176 744.5Q216 763 255 772Q374 772 493.5 767.5Q613 763 735 757Q751 757 767 758Q783 759 798 762Q813 765 825.5 772Q838 779 847 791L857 787Q848 765 829.5 751Q811 737 788.5 729Q766 721 741.5 718Q717 715 694 715Q653 715 611.5 716Q570 717 528 719Q526 709 525 687Q524 665 523.5 641Q523 617 522 596Q521 575 520 566L518 510Q627 506 748 500Q869 494 987 494Q990 494 1011 495Q1032 496 1060.5 498Q1089 500 1120 504.5Q1151 509 1172 515L1176 504Q1114 478 1052 466.5Q990 455 911 455Q871 455 827.5 456Q784 457 736 459Q734 444 731.5 412.5Q729 381 727 347.5Q725 314 723.5 285Q722 256 721 246Q721 235 720 220.5Q719 206 718 186L897 199L902 195L861 135L852 140L879 180Q844 177 802.5 174Q761 171 717 169Q715 140 713 109Q711 78 709 48Q707 18 705 -7.5Q703 -33 701 -50Q700 -59 693.5 -72Q687 -85 678 -97.5Q669 -110 658 -120.5Q647 -131 636 -135L637 -136Q684 -128 736 -129.5Q788 -131 833 -127V-128Q833 -142 826 -150.5Q819 -159 807 -163.5Q795 -168 780 -169.5Q765 -171 749 -171Z" glyph-name="apple" horiz-adv-x="1198" unicode="&#63743;" /><glyph d="M22 362Q26 389 33.5 414Q41 439 53 458Q65 477 83 488.5Q101 500 125 500Q143 500 165 496Q187 492 210 486.5Q233 481 254.5 477Q276 473 293 473Q308 473 315.5 483.5Q323 494 331 514L395 500Q392 475 386 450.5Q380 426 368.5 406Q357 386 339.5 373.5Q322 361 296 361Q280 361 257 365.5Q234 370 210 376Q186 382 164 386.5Q142 391 129 391Q113 391 105 381.5Q97 372 91 349ZM22 150Q26 177 33.5 202Q41 227 53 246Q65 265 83 276.5Q101 288 125 288Q143 288 165 284Q187 280 210 274.5Q233 269 254.5 265Q276 261 293 261Q308 261 315.5 271.5Q323 282 331 302L395 288Q392 263 386 238.5Q380 214 368.5 194Q357 174 339.5 161.5Q322 149 296 149Q280 149 257 153.5Q234 158 210 164Q186 170 164 174.5Q142 179 129 179Q113 179 105 169.5Q97 160 91 137Z" glyph-name="approxequal" horiz-adv-x="417" unicode="&#8776;" /><glyph d="M221 635Q241 635 252.5 648Q264 661 264 681Q264 701 252.5 714Q241 727 221 727Q202 727 190.5 714Q179 701 179 681Q179 661 191 648Q203 635 221 635ZM220 580Q177 580 147.5 607Q118 634 118 679Q118 724 147.5 752.5Q177 781 221 781Q266 781 294.5 754.5Q323 728 323 682Q323 660 315 641.5Q307 623 292.5 609.5Q278 596 259.5 588Q241 580 220 580ZM211 111Q223 111 234 120.5Q245 130 245 148V240H228Q205 240 193 221.5Q181 203 181 173Q181 140 188.5 125.5Q196 111 211 111ZM147 -10Q122 -10 99.5 -1Q77 8 60 28Q43 48 33 79Q23 110 23 154Q23 199 40 232.5Q57 266 85 288Q113 310 149.5 321Q186 332 225 332H245V394Q245 408 236.5 418Q228 428 209 428Q187 428 181 416.5Q175 405 175 393V356H34V397Q34 433 47.5 461.5Q61 490 86 510.5Q111 531 144.5 542Q178 553 219 553Q303 553 352.5 510Q402 467 402 386V120Q402 102 403 81.5Q404 61 405 43.5Q406 26 407 13.5Q408 1 408 0H263Q262 4 261 12Q260 18 258.5 28Q257 38 256 52H253Q244 34 231 22Q218 10 203 3Q188 -4 173 -7Q158 -10 147 -10Z" glyph-name="aring" horiz-adv-x="434" unicode="&#229;" /><glyph d="M221 631Q240 631 250 643.5Q260 656 260 676Q260 697 249.5 709Q239 721 222 721Q204 721 194 708Q184 695 184 676Q184 655 193.5 643Q203 631 221 631ZM220 582Q172 582 147 609.5Q122 637 122 673Q122 689 127.5 705Q133 721 145 735L219 832L322 807L260 759Q287 749 304 727Q321 705 321 676Q321 635 292 608.5Q263 582 220 582ZM211 111Q223 111 234 120.5Q245 130 245 148V240H228Q205 240 193 221.5Q181 203 181 173Q181 140 188.5 125.5Q196 111 211 111ZM147 -10Q122 -10 99.5 -1Q77 8 60 28Q43 48 33 79Q23 110 23 154Q23 199 40 232.5Q57 266 85 288Q113 310 149.5 321Q186 332 225 332H245V394Q245 408 236.5 418Q228 428 209 428Q187 428 181 416.5Q175 405 175 393V356H34V397Q34 433 47.5 461.5Q61 490 86 510.5Q111 531 144.5 542Q178 553 219 553Q303 553 352.5 510Q402 467 402 386V120Q402 102 403 81.5Q404 61 405 43.5Q406 26 407 13.5Q408 1 408 0H263Q262 4 261 12Q260 18 258.5 28Q257 38 256 52H253Q244 34 231 22Q218 10 203 3Q188 -4 173 -7Q158 -10 147 -10Z" glyph-name="aringacute" horiz-adv-x="434" unicode="&#507;" /><glyph d="M30 330 94 397 174 315V543H277V315L357 397L421 330L231 152H220Z" glyph-name="arrowdown" horiz-adv-x="454" unicode="&#8595;" /><glyph d="M24 343V353L201 543L269 476L186 399H414V296H186L267 213L201 152Z" glyph-name="arrowleft" horiz-adv-x="454" unicode="&#8592;" /><glyph d="M177 213 258 296H30V399H258L175 476L243 543L421 353V343L243 152Z" glyph-name="arrowright" horiz-adv-x="454" unicode="&#8594;" /><glyph d="M174 380 97 297 30 365 220 543H230L421 365L360 299L277 380V152H174Z" glyph-name="arrowup" horiz-adv-x="454" unicode="&#8593;" /><glyph d="M160 592H265L364 157H257L210 391L158 157H51Z" glyph-name="asciicircum" horiz-adv-x="430" unicode="^" /><glyph d="M22 249Q26 276 33.5 301Q41 326 53 345Q65 364 83 375.5Q101 387 125 387Q143 387 165 383Q187 379 210 373.5Q233 368 254.5 364Q276 360 293 360Q308 360 315.5 370.5Q323 381 331 401L395 387Q392 362 386 337.5Q380 313 368.5 293Q357 273 339.5 260.5Q322 248 296 248Q280 248 257 252.5Q234 257 210 263Q186 269 164 273.5Q142 278 129 278Q113 278 105 268.5Q97 259 91 236Z" glyph-name="asciitilde" horiz-adv-x="417" unicode="~" /><glyph d="M51 437 117 534 17 591 59 661 146 613V713H231V612L317 661L360 591L259 534L326 437L255 392L189 489L121 392Z" glyph-name="asterisk" horiz-adv-x="377" unicode="*" /><glyph d="M349 209Q372 209 384 226.5Q396 244 399 269L415 387V400Q415 441 381 441Q361 441 350.5 425Q340 409 337 386L321 266Q320 263 319.5 255Q319 247 319 243Q319 229 325.5 219Q332 209 349 209ZM396 -74Q333 -74 276.5 -60Q220 -46 176 -17Q108 27 69 105.5Q30 184 30 302Q30 402 59 479Q88 556 138 609Q188 662 255.5 689.5Q323 717 400 717Q457 717 511.5 699.5Q566 682 608.5 644.5Q651 607 676.5 549Q702 491 702 411Q702 355 686 304Q670 253 643.5 212Q617 171 581.5 142Q546 113 507 102H380L387 155H383Q364 127 336.5 109Q309 91 277 91Q232 91 203.5 117.5Q175 144 175 198Q175 207 175.5 221Q176 235 178 244Q179 252 183 276Q187 300 191 328.5Q195 357 199 384Q203 411 206 426Q215 486 254 518.5Q293 551 345 551Q368 551 393 541Q418 531 432 507H434L438 542H569L519 170Q541 182 561 205.5Q581 229 596 261Q611 293 620 331Q629 369 629 410Q629 480 609.5 528Q590 576 557 605.5Q524 635 481 647.5Q438 660 392 660Q321 660 267 633Q213 606 176.5 558Q140 510 121.5 444Q103 378 103 301Q103 205 135.5 136Q168 67 231 30Q263 10 304 -0.5Q345 -11 392 -11Q457 -11 505 -1Q553 9 606 25L622 -27Q602 -37 575.5 -45.5Q549 -54 519 -60.5Q489 -67 457.5 -70.5Q426 -74 396 -74Z" glyph-name="at" horiz-adv-x="732" unicode="@" /><glyph d="M43 608Q47 635 56 658.5Q65 682 78 700Q91 718 108.5 728.5Q126 739 148 739Q165 739 181.5 734.5Q198 730 214 724Q230 718 245.5 713.5Q261 709 277 709Q292 709 300 718.5Q308 728 316 748L386 729Q382 704 374 680.5Q366 657 353 638.5Q340 620 322 609Q304 598 280 598Q265 598 248.5 602.5Q232 607 215.5 612.5Q199 618 183.5 622.5Q168 627 156 627Q142 627 134 620Q126 613 119 589ZM211 111Q223 111 234 120.5Q245 130 245 148V240H228Q205 240 193 221.5Q181 203 181 173Q181 140 188.5 125.5Q196 111 211 111ZM147 -10Q122 -10 99.5 -1Q77 8 60 28Q43 48 33 79Q23 110 23 154Q23 199 40 232.5Q57 266 85 288Q113 310 149.5 321Q186 332 225 332H245V394Q245 408 236.5 418Q228 428 209 428Q187 428 181 416.5Q175 405 175 393V356H34V397Q34 433 47.5 461.5Q61 490 86 510.5Q111 531 144.5 542Q178 553 219 553Q303 553 352.5 510Q402 467 402 386V120Q402 102 403 81.5Q404 61 405 43.5Q406 26 407 13.5Q408 1 408 0H263Q262 4 261 12Q260 18 258.5 28Q257 38 256 52H253Q244 34 231 22Q218 10 203 3Q188 -4 173 -7Q158 -10 147 -10Z" glyph-name="atilde" horiz-adv-x="434" unicode="&#227;" /><glyph d="M229 112Q243 112 252.5 122Q262 132 262 150V388Q262 408 252 417.5Q242 427 228 427Q214 427 203 418.5Q192 410 192 384V150Q192 128 203.5 120Q215 112 229 112ZM272 -9Q246 -9 222 3Q198 15 181 37H179L177 0H34V713H192V506H194Q214 531 239.5 543Q265 555 291 555Q326 555 350.5 544Q375 533 390 514.5Q405 496 412 471.5Q419 447 419 420V131Q419 102 409 76.5Q399 51 380 32Q361 13 333.5 2Q306 -9 272 -9Z" glyph-name="b" horiz-adv-x="449" unicode="b" /><glyph d="M14 716H113L278 -169H176Z" glyph-name="backslash" horiz-adv-x="269" unicode="\" /><glyph d="M86 719H185V-105H86Z" glyph-name="bar" horiz-adv-x="270" unicode="|" /><glyph d="M45 553H443V0H45Z" glyph-name="blacksmallsquare" horiz-adv-x="488" unicode="&#9642;" /><glyph d="M42 714H505V0H42Z" glyph-name="blacksquare" horiz-adv-x="547" unicode="&#9632;" /><glyph d="M165 -168Q120 -168 91.5 -144.5Q63 -121 63 -59V189Q63 224 56 238Q49 252 26 255V341Q50 347 56.5 356.5Q63 366 63 392V601Q63 663 91.5 688Q120 713 165 713H239V628H210Q202 628 195.5 623.5Q189 619 189 607V414Q189 368 180 342Q171 316 138 303V297Q156 289 166.5 280.5Q177 272 182 259.5Q187 247 188 229.5Q189 212 189 187V-63Q189 -77 195.5 -81Q202 -85 210 -85H239V-168Z" glyph-name="braceleft" horiz-adv-x="259" unicode="{" /><glyph d="M21 -85H50Q58 -85 64 -81Q70 -77 70 -63V187Q70 212 71 229.5Q72 247 77.5 259.5Q83 272 93 280.5Q103 289 121 297V303Q89 316 79.5 342Q70 368 70 414V607Q70 620 64 624.5Q58 629 50 629H21V714H95Q140 714 168 689Q196 664 196 602V392Q196 366 202.5 356.5Q209 347 233 341V255Q210 252 203 238Q196 224 196 189V-59Q196 -121 168 -144.5Q140 -168 95 -168H21Z" glyph-name="braceright" horiz-adv-x="259" unicode="}" /><glyph d="M56 713H232V630H182V-87H232V-168H56Z" glyph-name="bracketleft" horiz-adv-x="255" unicode="[" /><glyph d="M23 -87H73V630H23V713H199V-168H23Z" glyph-name="bracketright" horiz-adv-x="255" unicode="]" /><glyph d="M180 588Q109 588 67.5 628Q26 668 24 751H126Q131 714 141.5 696.5Q152 679 182 679Q207 679 217.5 696.5Q228 714 230 751H329Q329 708 317 677Q305 646 284.5 626.5Q264 607 237 597.5Q210 588 180 588Z" glyph-name="breve" horiz-adv-x="353" unicode="&#728;" /><glyph d="M94 714H203V387H94ZM94 316H203V-47H94Z" glyph-name="brokenbar" horiz-adv-x="320" unicode="&#166;" /><glyph d="M198 211Q167 211 140 223Q113 235 92.5 255Q72 275 60.5 302.5Q49 330 49 361Q49 392 60.5 419Q72 446 92.5 466Q113 486 140 497.5Q167 509 198 509Q229 509 255.5 497.5Q282 486 302 466Q322 446 333.5 419Q345 392 345 361Q345 330 333.5 302.5Q322 275 302 255Q282 235 255.5 223Q229 211 198 211Z" glyph-name="bullet" horiz-adv-x="394" unicode="&#8226;" /><glyph d="M217 -11Q178 -11 144 -0.5Q110 10 84.5 30.5Q59 51 44.5 82Q30 113 30 155V379Q30 421 45.5 453.5Q61 486 87 508Q113 530 147 541.5Q181 553 218 553Q257 553 289.5 542Q322 531 345.5 511Q369 491 381.5 462.5Q394 434 394 400V354H255V391Q255 408 246 416.5Q237 425 222 425Q189 425 189 388V153Q189 135 197.5 124Q206 113 222 113Q237 113 246 122.5Q255 132 255 148V186H394V141Q394 65 344.5 27Q295 -11 217 -11Z" glyph-name="c" horiz-adv-x="420" unicode="c" /><glyph d="M225 743H379L271 590H159ZM217 -11Q178 -11 144 -0.5Q110 10 84.5 30.5Q59 51 44.5 82Q30 113 30 155V379Q30 421 45.5 453.5Q61 486 87 508Q113 530 147 541.5Q181 553 218 553Q257 553 289.5 542Q322 531 345.5 511Q369 491 381.5 462.5Q394 434 394 400V354H255V391Q255 408 246 416.5Q237 425 222 425Q189 425 189 388V153Q189 135 197.5 124Q206 113 222 113Q237 113 246 122.5Q255 132 255 148V186H394V141Q394 65 344.5 27Q295 -11 217 -11Z" glyph-name="cacute" horiz-adv-x="420" unicode="&#263;" /><glyph d="M12 752H132L170 683L208 752H326L225 594H111Z" glyph-name="caron" horiz-adv-x="309" unicode="&#711;" /><glyph d="M47 713H166L126 512H41Z" glyph-name="caronSlovak" horiz-adv-x="232" unicode="&#58387;" /><glyph d="M53 752H173L211 683L249 752H367L266 594H152ZM217 -11Q178 -11 144 -0.5Q110 10 84.5 30.5Q59 51 44.5 82Q30 113 30 155V379Q30 421 45.5 453.5Q61 486 87 508Q113 530 147 541.5Q181 553 218 553Q257 553 289.5 542Q322 531 345.5 511Q369 491 381.5 462.5Q394 434 394 400V354H255V391Q255 408 246 416.5Q237 425 222 425Q189 425 189 388V153Q189 135 197.5 124Q206 113 222 113Q237 113 246 122.5Q255 132 255 148V186H394V141Q394 65 344.5 27Q295 -11 217 -11Z" glyph-name="ccaron" horiz-adv-x="420" unicode="&#269;" /><glyph d="M216 -199Q198 -199 173.5 -197Q149 -195 124 -188V-123Q147 -129 171 -132.5Q195 -136 209 -136Q226 -136 232.5 -130.5Q239 -125 239 -117Q239 -106 228 -103Q217 -100 208 -99L165 -96L185 -9Q152 -6 123.5 6Q95 18 74.5 38.5Q54 59 42 88Q30 117 30 155V379Q30 421 45.5 453.5Q61 486 87 508Q113 530 147 541.5Q181 553 218 553Q257 553 289.5 542Q322 531 345.5 511Q369 491 381.5 462.5Q394 434 394 400V354H255V391Q255 408 246 416.5Q237 425 222 425Q189 425 189 388V153Q189 135 197.5 124Q206 113 222 113Q237 113 246 122.5Q255 132 255 148V186H394V141Q394 72 352.5 34.5Q311 -3 244 -9L236 -47Q251 -47 269.5 -49Q288 -51 304 -58Q320 -65 330.5 -78Q341 -91 341 -112Q341 -133 330.5 -149.5Q320 -166 303 -177Q286 -188 263 -193.5Q240 -199 216 -199Z" glyph-name="ccedilla" horiz-adv-x="420" unicode="&#231;" /><glyph d="M153 748H266L365 590H245L207 659L169 590H54ZM217 -11Q178 -11 144 -0.5Q110 10 84.5 30.5Q59 51 44.5 82Q30 113 30 155V379Q30 421 45.5 453.5Q61 486 87 508Q113 530 147 541.5Q181 553 218 553Q257 553 289.5 542Q322 531 345.5 511Q369 491 381.5 462.5Q394 434 394 400V354H255V391Q255 408 246 416.5Q237 425 222 425Q189 425 189 388V153Q189 135 197.5 124Q206 113 222 113Q237 113 246 122.5Q255 132 255 148V186H394V141Q394 65 344.5 27Q295 -11 217 -11Z" glyph-name="ccircumflex" horiz-adv-x="420" unicode="&#265;" /><glyph d="M145 741H274V588H145ZM217 -11Q178 -11 144 -0.5Q110 10 84.5 30.5Q59 51 44.5 82Q30 113 30 155V379Q30 421 45.5 453.5Q61 486 87 508Q113 530 147 541.5Q181 553 218 553Q257 553 289.5 542Q322 531 345.5 511Q369 491 381.5 462.5Q394 434 394 400V354H255V391Q255 408 246 416.5Q237 425 222 425Q189 425 189 388V153Q189 135 197.5 124Q206 113 222 113Q237 113 246 122.5Q255 132 255 148V186H394V141Q394 65 344.5 27Q295 -11 217 -11Z" glyph-name="cdotaccent" horiz-adv-x="420" unicode="&#267;" /><glyph d="M131 -199Q113 -199 88.5 -197Q64 -195 39 -188V-123Q62 -129 86 -132.5Q110 -136 124 -136Q141 -136 147.5 -130.5Q154 -125 154 -117Q154 -106 143 -103Q132 -100 123 -99L80 -96L106 15H165L151 -47Q166 -47 184.5 -49Q203 -51 219 -58Q235 -65 245.5 -78Q256 -91 256 -112Q256 -133 245.5 -149.5Q235 -166 218 -177Q201 -188 178 -193.5Q155 -199 131 -199Z" glyph-name="cedilla" horiz-adv-x="291" unicode="&#184;" /><glyph d="M152 15Q98 29 62.5 67.5Q27 106 27 172V392Q27 457 63 497.5Q99 538 152 555V627H282V555Q334 541 364.5 504Q395 467 395 413V358H255V404Q255 423 245.5 432.5Q236 442 219 442Q202 442 192.5 431Q183 420 183 401V171Q183 151 192.5 139.5Q202 128 219 128Q235 128 245 138Q255 148 255 165V213H395V158Q395 100 364.5 65Q334 30 282 16V-58H152Z" glyph-name="cent" horiz-adv-x="422" unicode="&#162;" /><glyph d="M106 748H219L318 590H198L160 659L122 590H7Z" glyph-name="circumflex" horiz-adv-x="325" unicode="&#710;" /><glyph d="M31 173H179V0H31ZM31 543H179V370H31Z" glyph-name="colon" horiz-adv-x="210" unicode=":" /><glyph d="M88 10H31V173H179V19L128 -137H50Z" glyph-name="comma" horiz-adv-x="210" unicode="," /><glyph d="M79 4H39V114H146V9L102 -92H52Z" glyph-name="comma.dnom" horiz-adv-x="185" unicode="&#58381;" /><glyph d="M79 322H39V432H146V327L102 226H52Z" glyph-name="comma.numr" horiz-adv-x="185" unicode="&#58401;" /><glyph d="M79 -129H39V-19H146V-124L102 -225H52Z" glyph-name="comma.sub" horiz-adv-x="185" /><glyph d="M79 384H39V494H146V389L102 288H52Z" glyph-name="comma.sup" horiz-adv-x="185" /><glyph d="M42 -33H177L137 -193H30Z" glyph-name="commaaccent" horiz-adv-x="207" unicode="&#58388;" /><glyph d="M49 658 90 769H157L138 687H181V587H49Z" glyph-name="commatop" horiz-adv-x="232" /><glyph d="M374 15Q427 15 473.5 38Q520 61 554 104.5Q588 148 607.5 209Q627 270 627 347Q627 423 608 485Q589 547 555.5 590.5Q522 634 475.5 657.5Q429 681 374 681Q318 681 271.5 658Q225 635 192 591.5Q159 548 140.5 486Q122 424 122 347Q122 269 141.5 207.5Q161 146 195 103.5Q229 61 275 38Q321 15 374 15ZM374 -56Q290 -56 226.5 -24Q163 8 120.5 63Q78 118 56.5 191Q35 264 35 347Q35 429 58.5 501.5Q82 574 125.5 628.5Q169 683 232 715Q295 747 374 747Q456 747 519.5 715Q583 683 626 628.5Q669 574 691 501.5Q713 429 713 347Q713 265 690.5 191.5Q668 118 625 63Q582 8 518.5 -24Q455 -56 374 -56ZM378 63Q343 63 312.5 72Q282 81 258.5 99Q235 117 221.5 144.5Q208 172 208 209V480Q208 516 221.5 544Q235 572 258.5 591Q282 610 312.5 619.5Q343 629 378 629Q412 629 442 619.5Q472 610 494 592Q516 574 528.5 547.5Q541 521 541 487V406H416V479Q416 495 407 505.5Q398 516 381 516Q362 516 353.5 505.5Q345 495 345 478V215Q345 198 352.5 187Q360 176 380 176Q398 176 407 186Q416 196 416 211V288H541V206Q541 171 528 144Q515 117 493 99Q471 81 441.5 72Q412 63 378 63Z" glyph-name="copyright" horiz-adv-x="748" unicode="&#169;" /><glyph d="M217 252Q262 252 283 281Q304 310 304 346Q304 383 282 412Q260 441 217 441Q194 441 178 433Q162 425 151 412Q140 399 135 381.5Q130 364 130 346Q130 310 152.5 281Q175 252 217 252ZM49 215 95 260Q82 279 75 300.5Q68 322 68 346Q68 367 73.5 387Q79 407 89 424L42 472L84 514L130 468Q148 482 170 489.5Q192 497 217 497Q238 497 258 491Q278 485 295 474L342 521L385 478L339 432Q352 414 359.5 392Q367 370 367 346Q367 324 361 304Q355 284 344 267L391 221L349 178L303 223Q265 196 217 196Q173 196 139 219L92 172Z" glyph-name="currency" horiz-adv-x="433" unicode="&#164;" /><glyph d="M221 116Q235 116 247 126Q259 136 259 158V395Q259 415 247 424Q235 433 222 433Q208 433 198 422Q188 411 188 391V157Q188 138 197.5 127Q207 116 221 116ZM160 -10Q125 -10 100.5 1Q76 12 60 30.5Q44 49 37 74.5Q30 100 30 130V422Q30 447 38.5 470.5Q47 494 63.5 512.5Q80 531 105 542Q130 553 163 553Q189 553 213 543.5Q237 534 257 514H258V713H415V0H266L264 46H261Q242 20 215 5Q188 -10 160 -10Z" glyph-name="d" horiz-adv-x="448" unicode="d" /><glyph d="M142 433H28V549H142V713H268V549H381V433H268V-122H142Z" glyph-name="dagger" horiz-adv-x="409" unicode="&#8224;" /><glyph d="M142 48H28V165H142V433H28V549H142V713H268V549H381V433H268V165H381V48H268V-122H142Z" glyph-name="daggerdbl" horiz-adv-x="409" unicode="&#8225;" /><glyph d="M444 713H563L523 512H438ZM221 116Q235 116 247 126Q259 136 259 158V395Q259 415 247 424Q235 433 222 433Q208 433 198 422Q188 411 188 391V157Q188 138 197.5 127Q207 116 221 116ZM160 -10Q125 -10 100.5 1Q76 12 60 30.5Q44 49 37 74.5Q30 100 30 130V422Q30 447 38.5 470.5Q47 494 63.5 512.5Q80 531 105 542Q130 553 163 553Q189 553 213 543.5Q237 534 257 514H258V713H415V0H266L264 46H261Q242 20 215 5Q188 -10 160 -10Z" glyph-name="dcaron" horiz-adv-x="448" unicode="&#271;" /><glyph d="M221 116Q235 116 247 126Q259 136 259 158V395Q259 415 247 424Q235 433 222 433Q208 433 198 422Q188 411 188 391V157Q188 138 197.5 127Q207 116 221 116ZM189 675H258V713H415V675H448V581H415V0H266L264 46H261Q242 20 215 5Q188 -10 160 -10Q125 -10 100.5 1Q76 12 60 30.5Q44 49 37 74.5Q30 100 30 130V422Q30 447 38.5 470.5Q47 494 63.5 512.5Q80 531 105 542Q130 553 163 553Q189 553 213 543.5Q237 534 257 514H258V581H189Z" glyph-name="dcroat" horiz-adv-x="448" unicode="&#273;" /><glyph d="M130 593Q146 593 156.5 604Q167 615 167 632Q167 647 157 658.5Q147 670 130 670Q114 670 104.5 659.5Q95 649 95 632Q95 615 105 604Q115 593 130 593ZM130 538Q85 538 58 566Q31 594 31 632Q31 651 38.5 667.5Q46 684 59.5 697Q73 710 91 717.5Q109 725 130 725Q174 725 201.5 697.5Q229 670 229 633Q229 613 221 596Q213 579 199.5 566Q186 553 168 545.5Q150 538 130 538Z" glyph-name="degree" horiz-adv-x="260" unicode="&#176;" /><glyph d="M197 741H317V588H197ZM29 741H149V588H29Z" glyph-name="dieresis" horiz-adv-x="346" unicode="&#168;" /><glyph d="M164 544H286V413H164ZM43 372H407V266H43ZM164 223H286V91H164Z" glyph-name="divide" horiz-adv-x="450" unicode="&#247;" /><glyph d="M192 29Q163 33 134 44Q105 55 81 76Q57 97 41 128.5Q25 160 24 205L177 210Q179 187 189 169.5Q199 152 225 152Q239 152 249 160.5Q259 169 259 186Q259 206 241 229.5Q223 253 194 279L143 324Q95 367 65 410Q35 453 35 510Q35 576 74.5 624Q114 672 192 683V741H292V680Q316 675 338.5 664Q361 653 378 632.5Q395 612 406 582Q417 552 419 509L281 507Q273 570 234 570Q211 570 202 555.5Q193 541 193 527Q193 504 213 483.5Q233 463 254 444L309 391Q329 372 348.5 350.5Q368 329 383 305.5Q398 282 407.5 256.5Q417 231 417 203Q417 175 408.5 149.5Q400 124 383.5 102Q367 80 344 64Q321 48 292 39V-35H192Z" glyph-name="dollar" horiz-adv-x="439" unicode="$" /><glyph d="M70 741H199V588H70Z" glyph-name="dotaccent" horiz-adv-x="269" unicode="&#729;" /><glyph d="M34 541H191V0H34Z" glyph-name="dotlessi" horiz-adv-x="225" unicode="&#305;" /><glyph d="M56 -168Q38 -168 25 -166.5Q12 -165 -4 -162V-40Q-3 -41 4 -41Q11 -41 14 -41Q31 -41 36.5 -32.5Q42 -24 42 -7V541H199V-27Q199 -97 159 -132.5Q119 -168 56 -168Z" glyph-name="dotlessj" horiz-adv-x="230" unicode="&#567;" /><glyph d="M255 320V393Q255 410 246.5 419.5Q238 429 222 429Q205 429 196.5 419Q188 409 188 393V320ZM220 -12Q179 -12 144.5 -1.5Q110 9 84.5 30Q59 51 44.5 82.5Q30 114 30 156V374Q30 417 45 450.5Q60 484 86 507Q112 530 146.5 541.5Q181 553 219 553Q301 553 347.5 508Q394 463 394 386V210H188V172Q188 143 207.5 129Q227 115 253 115Q282 115 311 121.5Q340 128 361 135L387 22Q350 5 310 -3.5Q270 -12 220 -12Z" glyph-name="e" horiz-adv-x="422" unicode="e" /><glyph d="M255 320V393Q255 410 246.5 419.5Q238 429 222 429Q205 429 196.5 419Q188 409 188 393V320ZM220 -12Q179 -12 144.5 -1.5Q110 9 84.5 30Q59 51 44.5 82.5Q30 114 30 156V374Q30 417 45 450.5Q60 484 86 507Q112 530 146.5 541.5Q181 553 219 553Q301 553 347.5 508Q394 463 394 386V210H188V172Q188 143 207.5 129Q227 115 253 115Q282 115 311 121.5Q340 128 361 135L387 22Q350 5 310 -3.5Q270 -12 220 -12ZM225 743H379L271 590H159Z" glyph-name="eacute" horiz-adv-x="422" unicode="&#233;" /><glyph d="M214 588Q143 588 101.5 628Q60 668 58 751H160Q165 714 175.5 696.5Q186 679 216 679Q241 679 251.5 696.5Q262 714 264 751H363Q363 708 351 677Q339 646 318.5 626.5Q298 607 271 597.5Q244 588 214 588ZM255 320V393Q255 410 246.5 419.5Q238 429 222 429Q205 429 196.5 419Q188 409 188 393V320ZM220 -12Q179 -12 144.5 -1.5Q110 9 84.5 30Q59 51 44.5 82.5Q30 114 30 156V374Q30 417 45 450.5Q60 484 86 507Q112 530 146.5 541.5Q181 553 219 553Q301 553 347.5 508Q394 463 394 386V210H188V172Q188 143 207.5 129Q227 115 253 115Q282 115 311 121.5Q340 128 361 135L387 22Q350 5 310 -3.5Q270 -12 220 -12Z" glyph-name="ebreve" horiz-adv-x="422" unicode="&#277;" /><glyph d="M54 752H174L212 683L250 752H368L267 594H153ZM255 320V393Q255 410 246.5 419.5Q238 429 222 429Q205 429 196.5 419Q188 409 188 393V320ZM220 -12Q179 -12 144.5 -1.5Q110 9 84.5 30Q59 51 44.5 82.5Q30 114 30 156V374Q30 417 45 450.5Q60 484 86 507Q112 530 146.5 541.5Q181 553 219 553Q301 553 347.5 508Q394 463 394 386V210H188V172Q188 143 207.5 129Q227 115 253 115Q282 115 311 121.5Q340 128 361 135L387 22Q350 5 310 -3.5Q270 -12 220 -12Z" glyph-name="ecaron" horiz-adv-x="422" unicode="&#283;" /><glyph d="M255 320V393Q255 410 246.5 419.5Q238 429 222 429Q205 429 196.5 419Q188 409 188 393V320ZM220 -12Q179 -12 144.5 -1.5Q110 9 84.5 30Q59 51 44.5 82.5Q30 114 30 156V374Q30 417 45 450.5Q60 484 86 507Q112 530 146.5 541.5Q181 553 219 553Q301 553 347.5 508Q394 463 394 386V210H188V172Q188 143 207.5 129Q227 115 253 115Q282 115 311 121.5Q340 128 361 135L387 22Q350 5 310 -3.5Q270 -12 220 -12ZM168 748H281L380 590H260L222 659L184 590H69Z" glyph-name="ecircumflex" horiz-adv-x="422" unicode="&#234;" /><glyph d="M255 320V393Q255 410 246.5 419.5Q238 429 222 429Q205 429 196.5 419Q188 409 188 393V320ZM220 -12Q179 -12 144.5 -1.5Q110 9 84.5 30Q59 51 44.5 82.5Q30 114 30 156V374Q30 417 45 450.5Q60 484 86 507Q112 530 146.5 541.5Q181 553 219 553Q301 553 347.5 508Q394 463 394 386V210H188V172Q188 143 207.5 129Q227 115 253 115Q282 115 311 121.5Q340 128 361 135L387 22Q350 5 310 -3.5Q270 -12 220 -12ZM240 741H360V588H240ZM72 741H192V588H72Z" glyph-name="edieresis" horiz-adv-x="422" unicode="&#235;" /><glyph d="M146 741H275V588H146ZM255 320V393Q255 410 246.5 419.5Q238 429 222 429Q205 429 196.5 419Q188 409 188 393V320ZM220 -12Q179 -12 144.5 -1.5Q110 9 84.5 30Q59 51 44.5 82.5Q30 114 30 156V374Q30 417 45 450.5Q60 484 86 507Q112 530 146.5 541.5Q181 553 219 553Q301 553 347.5 508Q394 463 394 386V210H188V172Q188 143 207.5 129Q227 115 253 115Q282 115 311 121.5Q340 128 361 135L387 22Q350 5 310 -3.5Q270 -12 220 -12Z" glyph-name="edotaccent" horiz-adv-x="422" unicode="&#279;" /><glyph d="M69 743H223L289 590H177ZM255 320V393Q255 410 246.5 419.5Q238 429 222 429Q205 429 196.5 419Q188 409 188 393V320ZM220 -12Q179 -12 144.5 -1.5Q110 9 84.5 30Q59 51 44.5 82.5Q30 114 30 156V374Q30 417 45 450.5Q60 484 86 507Q112 530 146.5 541.5Q181 553 219 553Q301 553 347.5 508Q394 463 394 386V210H188V172Q188 143 207.5 129Q227 115 253 115Q282 115 311 121.5Q340 128 361 135L387 22Q350 5 310 -3.5Q270 -12 220 -12Z" glyph-name="egrave" horiz-adv-x="422" unicode="&#232;" /><glyph d="M225 420Q262 420 262 455V558Q262 577 251.5 585Q241 593 225 593Q209 593 199 585.5Q189 578 189 562V454Q189 420 225 420ZM225 117Q262 117 262 151V266Q262 285 251.5 294Q241 303 225 303Q209 303 199 294.5Q189 286 189 270V151Q189 117 225 117ZM225 -11Q184 -11 148 -2Q112 7 85.5 26Q59 45 43.5 75.5Q28 106 28 148V247Q28 285 43.5 314Q59 343 86 360Q60 375 47.5 403Q35 431 35 458V558Q35 597 49 628Q63 659 88.5 680.5Q114 702 148.5 713.5Q183 725 224 725Q263 725 297.5 714.5Q332 704 357.5 683.5Q383 663 398 632.5Q413 602 413 561V466Q413 429 399 402.5Q385 376 361 359Q388 344 404.5 316.5Q421 289 421 253V149Q421 110 405.5 80Q390 50 363.5 30Q337 10 301.5 -0.5Q266 -11 225 -11Z" glyph-name="eight" horiz-adv-x="449" unicode="8" /><glyph d="M226 420Q263 420 263 455V558Q263 577 252.5 585Q242 593 226 593Q210 593 200 585.5Q190 578 190 562V454Q190 420 226 420ZM226 117Q263 117 263 151V266Q263 285 252.5 294Q242 303 226 303Q210 303 200 294.5Q190 286 190 270V151Q190 117 226 117ZM226 -11Q185 -11 149 -2Q113 7 86.5 26Q60 45 44.5 75.5Q29 106 29 148V247Q29 285 44.5 314Q60 343 87 360Q61 375 48.5 403Q36 431 36 458V558Q36 597 50 628Q64 659 89.5 680.5Q115 702 149.5 713.5Q184 725 225 725Q264 725 298.5 714.5Q333 704 358.5 683.5Q384 663 399 632.5Q414 602 414 561V466Q414 429 400 402.5Q386 376 362 359Q389 344 405.5 316.5Q422 289 422 253V149Q422 110 406.5 80Q391 50 364.5 30Q338 10 302.5 -0.5Q267 -11 226 -11Z" glyph-name="eight.LT" horiz-adv-x="450" unicode="&#58696;" /><glyph d="M151 236Q172 236 172 257V298Q172 309 165 314Q158 319 150 319Q142 319 135 314.5Q128 310 128 302V256Q128 236 151 236ZM151 71Q172 71 172 91V135Q172 147 165 152Q158 157 150 157Q142 157 135 152.5Q128 148 128 139V90Q128 80 134.5 75.5Q141 71 151 71ZM151 -12Q123 -12 99 -6.5Q75 -1 57.5 11.5Q40 24 30 44Q20 64 20 92V128Q20 152 29 169Q38 186 54 197Q40 207 32.5 224Q25 241 25 258V297Q25 348 60.5 375.5Q96 403 150 403Q176 403 199 396.5Q222 390 239 377Q256 364 266 344Q276 324 276 298V261Q276 220 247 197Q261 186 271 169Q281 152 281 132V90Q281 41 243.5 14.5Q206 -12 151 -12Z" glyph-name="eight.dnom" horiz-adv-x="301" unicode="&#58378;" /><glyph d="M151 554Q172 554 172 575V616Q172 627 165 632Q158 637 150 637Q142 637 135 632.5Q128 628 128 620V574Q128 554 151 554ZM151 389Q172 389 172 409V453Q172 465 165 470Q158 475 150 475Q142 475 135 470.5Q128 466 128 457V408Q128 398 134.5 393.5Q141 389 151 389ZM151 306Q123 306 99 311.5Q75 317 57.5 329.5Q40 342 30 362Q20 382 20 410V446Q20 470 29 487Q38 504 54 515Q40 525 32.5 542Q25 559 25 576V615Q25 666 60.5 693.5Q96 721 150 721Q176 721 199 714.5Q222 708 239 695Q256 682 266 662Q276 642 276 616V579Q276 538 247 515Q261 504 271 487Q281 470 281 450V408Q281 359 243.5 332.5Q206 306 151 306Z" glyph-name="eight.numr" horiz-adv-x="301" unicode="&#58398;" /><glyph d="M428 173H576V0H428ZM230 173H378V0H230ZM31 173H179V0H31Z" glyph-name="ellipsis" horiz-adv-x="607" unicode="&#8230;" /><glyph d="M84 706H338V598H84ZM255 320V393Q255 410 246.5 419.5Q238 429 222 429Q205 429 196.5 419Q188 409 188 393V320ZM220 -12Q179 -12 144.5 -1.5Q110 9 84.5 30Q59 51 44.5 82.5Q30 114 30 156V374Q30 417 45 450.5Q60 484 86 507Q112 530 146.5 541.5Q181 553 219 553Q301 553 347.5 508Q394 463 394 386V210H188V172Q188 143 207.5 129Q227 115 253 115Q282 115 311 121.5Q340 128 361 135L387 22Q350 5 310 -3.5Q270 -12 220 -12Z" glyph-name="emacron" horiz-adv-x="422" unicode="&#275;" /><glyph d="M0 358H648V258H0Z" glyph-name="emdash" horiz-adv-x="648" unicode="&#8212;" /><glyph d="M0 358H372V258H0Z" glyph-name="endash" horiz-adv-x="372" unicode="&#8211;" /><glyph d="M276 -168Q258 -168 245 -166.5Q232 -165 216 -162V-40Q217 -41 224 -41Q231 -41 234 -41Q251 -41 256.5 -32.5Q262 -24 262 -7V377Q262 391 255.5 406Q249 421 226 421Q211 421 201.5 408Q192 395 192 373V0H34V541H190V497H192Q233 553 304 553Q328 553 348.5 545Q369 537 385 522Q401 507 410 485Q419 463 419 435V-27Q419 -97 379 -132.5Q339 -168 276 -168Z" glyph-name="eng" horiz-adv-x="451" unicode="&#331;" /><glyph d="M255 320V393Q255 410 246.5 419.5Q238 429 222 429Q205 429 196.5 419Q188 409 188 393V320ZM220 -12Q179 -12 144.5 -1.5Q110 9 84.5 30Q59 51 44.5 82.5Q30 114 30 156V374Q30 417 45 450.5Q60 484 86 507Q112 530 146.5 541.5Q181 553 219 553Q301 553 347.5 508Q394 463 394 386V210H188V172Q188 143 207.5 129Q227 115 253 115Q282 115 311 121.5Q340 128 361 135L387 22Q381 19 375.5 17Q370 15 365 13Q340 -1 321.5 -23Q303 -45 303 -77Q303 -100 316.5 -109.5Q330 -119 348 -119Q363 -119 380 -113Q397 -107 410 -98L449 -169Q428 -185 400 -195.5Q372 -206 330 -206Q306 -206 284 -199.5Q262 -193 245.5 -180Q229 -167 219 -146.5Q209 -126 209 -99Q209 -73 219 -50.5Q229 -28 246 -11Q240 -12 233.5 -12Q227 -12 220 -12Z" glyph-name="eogonek" horiz-adv-x="422" unicode="&#281;" /><glyph d="M33 455H409V349H33ZM33 275H409V169H33Z" glyph-name="equal" horiz-adv-x="442" unicode="=" /><glyph d="M222 114Q240 114 247.5 124.5Q255 135 255 150V372Q255 389 245.5 399.5Q236 410 221 410Q205 410 197 399Q189 388 189 372V149Q189 133 197 123.5Q205 114 222 114ZM30 644 95 656 64 708 226 738 255 686 324 699 365 617 301 605 390 448Q399 433 406 412.5Q413 392 413 369V159Q413 115 397.5 83Q382 51 355.5 30Q329 9 294.5 -1Q260 -11 222 -11Q183 -11 148 -1.5Q113 8 86.5 28.5Q60 49 45 81Q30 113 30 158V365Q30 433 64.5 477.5Q99 522 163 532L169 533L144 574L69 560Z" glyph-name="eth" horiz-adv-x="443" unicode="&#240;" /><glyph d="M42 173H190V0H42ZM38 454V714H194V454L169 217H64Z" glyph-name="exclam" horiz-adv-x="232" unicode="!" /><glyph d="M42 564H190V391H42ZM38 110 63 347H168L194 110V-150H38Z" glyph-name="exclamdown" horiz-adv-x="232" unicode="&#161;" /><glyph d="M72 413H26V535H72V591Q72 655 112.5 688.5Q153 722 216 722Q234 722 257.5 720Q281 718 300 713V596Q291 598 282 599Q273 600 258 600Q245 600 237 591Q229 582 229 565V535H285V413H229V0H72Z" glyph-name="f" horiz-adv-x="314" unicode="f" /><glyph d="M72 413H26V535H72V591Q72 655 112.5 688.5Q153 722 216 722Q234 722 257.5 720Q281 718 300 713V596Q291 598 282 599Q273 600 258 600Q245 600 237 591Q229 582 229 565V535H285V413H229V0H72ZM339 739H497V591H339ZM339 541H497V0H339Z" glyph-name="fi" horiz-adv-x="530" unicode="&#64257;" /><glyph d="M216 -12Q128 -12 79 29Q30 70 30 148V226H177V159Q177 143 186 133Q195 123 216 123Q236 123 243.5 134.5Q251 146 251 165V304Q251 320 241.5 331.5Q232 343 212 343Q198 343 189 334Q180 325 173 313L35 323L48 713H384V573H180L174 433Q218 463 274 463Q302 463 326.5 455.5Q351 448 370 431.5Q389 415 400 388Q411 361 411 321V159Q411 115 395 83Q379 51 352.5 30Q326 9 290.5 -1.5Q255 -12 216 -12Z" glyph-name="five" horiz-adv-x="443" unicode="5" /><glyph d="M221 -12Q133 -12 84 29Q35 70 35 148V226H182V159Q182 143 191 133Q200 123 221 123Q241 123 248.5 134.5Q256 146 256 165V304Q256 320 246.5 331.5Q237 343 217 343Q203 343 194 334Q185 325 178 313L40 323L53 713H389V573H185L179 433Q223 463 279 463Q307 463 331.5 455.5Q356 448 375 431.5Q394 415 405 388Q416 361 416 321V159Q416 115 400 83Q384 51 357.5 30Q331 9 295.5 -1.5Q260 -12 221 -12Z" glyph-name="five.LT" horiz-adv-x="450" unicode="&#58693;" /><glyph d="M147 -11Q91 -11 55.5 13Q20 37 20 86V127H127V96Q127 76 148 76Q169 76 169 98V156Q169 178 147 178Q132 178 125 163L24 172L32 396H259V300H125Q125 297 124.5 287.5Q124 278 124 267.5Q124 257 123.5 247Q123 237 123 233Q149 251 185 251Q202 251 219 246.5Q236 242 249.5 231.5Q263 221 271.5 204.5Q280 188 280 163V95Q280 68 268.5 48Q257 28 238 15Q219 2 195.5 -4.5Q172 -11 147 -11Z" glyph-name="five.dnom" horiz-adv-x="300" unicode="&#58375;" /><glyph d="M147 307Q91 307 55.5 331Q20 355 20 404V445H127V414Q127 394 148 394Q169 394 169 416V474Q169 496 147 496Q132 496 125 481L24 490L32 714H259V618H125Q125 615 124.5 605.5Q124 596 124 585.5Q124 575 123.5 565Q123 555 123 551Q149 569 185 569Q202 569 219 564.5Q236 560 249.5 549.5Q263 539 271.5 522.5Q280 506 280 481V413Q280 386 268.5 366Q257 346 238 333Q219 320 195.5 313.5Q172 307 147 307Z" glyph-name="five.numr" horiz-adv-x="300" unicode="&#58395;" /><glyph d="M72 413H26V535H72V591Q72 655 112.5 688.5Q153 722 216 722Q234 722 257.5 720Q281 718 300 713V596Q291 598 282 599Q273 600 258 600Q245 600 237 591Q229 582 229 565V535H285V413H229V0H72ZM463 -9Q395 -9 366 24Q337 57 337 108V713H495V160Q495 150 499.5 143Q504 136 519 136Q524 136 529.5 136.5Q535 137 543 138V5Q507 -9 463 -9Z" glyph-name="fl" horiz-adv-x="559" unicode="&#64258;" /><glyph d="M84 -170Q46 -170 14 -162L23 -41Q25 -41 33.5 -41.5Q42 -42 45 -42Q61 -42 64 -33.5Q67 -25 68 -9L93 361H43L51 483H100L107 587Q111 653 150 690Q189 727 252 727Q270 727 293.5 724Q317 721 336 715L328 599Q323 600 308.5 600Q294 600 287 600Q259 600 259 572L253 483H313L306 361H246L222 -26Q220 -96 183.5 -133Q147 -170 84 -170Z" glyph-name="florin" horiz-adv-x="344" unicode="&#402;" /><glyph d="M232 148H20V272L179 713H349L166 283H232V368L378 463V283H423V148H378V0H232Z" glyph-name="four" horiz-adv-x="447" unicode="4" /><glyph d="M236 148H24V272L183 713H353L170 283H236V368L382 463V283H427V148H382V0H236Z" glyph-name="four.LT" horiz-adv-x="450" unicode="&#58692;" /><glyph d="M154 77H11V156L127 398H240L116 164H154V206L259 281V164H289V77H259V0H154Z" glyph-name="four.dnom" horiz-adv-x="300" unicode="&#58374;" /><glyph d="M154 395H11V474L127 716H240L116 482H154V524L259 599V482H289V395H259V318H154Z" glyph-name="four.numr" horiz-adv-x="300" unicode="&#58394;" /><glyph d="M170 716H243L-76 -1H-150Z" glyph-name="fraction" horiz-adv-x="92" unicode="&#8260;" /><glyph d="M222 145Q236 145 246.5 154.5Q257 164 257 185V391Q257 412 245 420.5Q233 429 220 429Q206 429 197 418.5Q188 408 188 388V183Q188 164 197.5 154.5Q207 145 222 145ZM208 -170Q157 -170 119.5 -162Q82 -154 50 -141L86 -20Q117 -31 141.5 -36.5Q166 -42 196 -42Q231 -42 244.5 -28Q258 -14 258 12V84H256Q238 54 210.5 38.5Q183 23 156 23Q91 23 60.5 60Q30 97 30 151V411Q30 440 39.5 465.5Q49 491 66.5 510.5Q84 530 109.5 541Q135 552 167 552Q193 552 219.5 539.5Q246 527 262 504H264L265 544H415V22Q415 -74 361.5 -122Q308 -170 208 -170Z" glyph-name="g" horiz-adv-x="448" unicode="g" /><glyph d="M227 588Q156 588 114.5 628Q73 668 71 751H173Q178 714 188.5 696.5Q199 679 229 679Q254 679 264.5 696.5Q275 714 277 751H376Q376 708 364 677Q352 646 331.5 626.5Q311 607 284 597.5Q257 588 227 588ZM222 145Q236 145 246.5 154.5Q257 164 257 185V391Q257 412 245 420.5Q233 429 220 429Q206 429 197 418.5Q188 408 188 388V183Q188 164 197.5 154.5Q207 145 222 145ZM208 -170Q157 -170 119.5 -162Q82 -154 50 -141L86 -20Q117 -31 141.5 -36.5Q166 -42 196 -42Q231 -42 244.5 -28Q258 -14 258 12V84H256Q238 54 210.5 38.5Q183 23 156 23Q91 23 60.5 60Q30 97 30 151V411Q30 440 39.5 465.5Q49 491 66.5 510.5Q84 530 109.5 541Q135 552 167 552Q193 552 219.5 539.5Q246 527 262 504H264L265 544H415V22Q415 -74 361.5 -122Q308 -170 208 -170Z" glyph-name="gbreve" horiz-adv-x="448" unicode="&#287;" /><glyph d="M176 748H289L388 590H268L230 659L192 590H77ZM222 145Q236 145 246.5 154.5Q257 164 257 185V391Q257 412 245 420.5Q233 429 220 429Q206 429 197 418.5Q188 408 188 388V183Q188 164 197.5 154.5Q207 145 222 145ZM208 -170Q157 -170 119.5 -162Q82 -154 50 -141L86 -20Q117 -31 141.5 -36.5Q166 -42 196 -42Q231 -42 244.5 -28Q258 -14 258 12V84H256Q238 54 210.5 38.5Q183 23 156 23Q91 23 60.5 60Q30 97 30 151V411Q30 440 39.5 465.5Q49 491 66.5 510.5Q84 530 109.5 541Q135 552 167 552Q193 552 219.5 539.5Q246 527 262 504H264L265 544H415V22Q415 -74 361.5 -122Q308 -170 208 -170Z" glyph-name="gcircumflex" horiz-adv-x="448" unicode="&#285;" /><glyph d="M171 658 212 769H279L260 687H303V587H171ZM222 145Q236 145 246.5 154.5Q257 164 257 185V391Q257 412 245 420.5Q233 429 220 429Q206 429 197 418.5Q188 408 188 388V183Q188 164 197.5 154.5Q207 145 222 145ZM208 -170Q157 -170 119.5 -162Q82 -154 50 -141L86 -20Q117 -31 141.5 -36.5Q166 -42 196 -42Q231 -42 244.5 -28Q258 -14 258 12V84H256Q238 54 210.5 38.5Q183 23 156 23Q91 23 60.5 60Q30 97 30 151V411Q30 440 39.5 465.5Q49 491 66.5 510.5Q84 530 109.5 541Q135 552 167 552Q193 552 219.5 539.5Q246 527 262 504H264L265 544H415V22Q415 -74 361.5 -122Q308 -170 208 -170Z" glyph-name="gcommaaccent" horiz-adv-x="448" unicode="&#291;" /><glyph d="M159 741H288V588H159ZM222 145Q236 145 246.5 154.5Q257 164 257 185V391Q257 412 245 420.5Q233 429 220 429Q206 429 197 418.5Q188 408 188 388V183Q188 164 197.5 154.5Q207 145 222 145ZM208 -170Q157 -170 119.5 -162Q82 -154 50 -141L86 -20Q117 -31 141.5 -36.5Q166 -42 196 -42Q231 -42 244.5 -28Q258 -14 258 12V84H256Q238 54 210.5 38.5Q183 23 156 23Q91 23 60.5 60Q30 97 30 151V411Q30 440 39.5 465.5Q49 491 66.5 510.5Q84 530 109.5 541Q135 552 167 552Q193 552 219.5 539.5Q246 527 262 504H264L265 544H415V22Q415 -74 361.5 -122Q308 -170 208 -170Z" glyph-name="gdotaccent" horiz-adv-x="448" unicode="&#289;" /><glyph d="M346 -7Q324 -7 299.5 -5Q275 -3 255 2L267 127Q277 125 284.5 124Q292 123 303 123Q325 123 333 140Q341 157 341 174Q341 207 323 241.5Q305 276 265 296V421H278Q295 444 305 472Q315 500 315 529Q315 556 304 575Q293 594 270 594Q228 594 228 541V0H71V414H26V535H71V540Q71 577 83 610Q95 643 121 668Q147 693 187 707Q227 721 284 721Q333 721 369.5 707.5Q406 694 430 670.5Q454 647 465.5 616Q477 585 477 550Q477 527 473 502.5Q469 478 460.5 455Q452 432 439 412Q426 392 408 378V375Q453 328 476.5 272.5Q500 217 500 168Q500 132 490 100Q480 68 460.5 44Q441 20 412 6.5Q383 -7 346 -7Z" glyph-name="germandbls" horiz-adv-x="518" unicode="&#223;" /><glyph d="M23 743H177L243 590H131Z" glyph-name="grave" horiz-adv-x="262" unicode="`" /><glyph d="M36 220 258 320 37 420 83 514 407 359V280L82 126Z" glyph-name="greater" horiz-adv-x="442" unicode="&gt;" /><glyph d="M39 118H413V12H39ZM39 259 267 351 37 443 83 537 411 391V312L85 165Z" glyph-name="greaterequal" horiz-adv-x="450" unicode="&#8805;" /><glyph d="M214 272 344 436 423 390 369 272 425 153 344 109ZM18 272 150 442 229 396 174 272 231 147 150 103Z" glyph-name="guillemotleft" horiz-adv-x="443" unicode="&#171;" /><glyph d="M214 150 269 274 212 398 293 442 425 274 293 103ZM20 156 73 274 18 392 99 436 229 274 99 109Z" glyph-name="guillemotright" horiz-adv-x="443" unicode="&#187;" /><glyph d="M18 272 150 442 229 396 174 272 231 147 150 103Z" glyph-name="guilsinglleft" horiz-adv-x="249" unicode="&#8249;" /><glyph d="M20 150 75 274 18 398 100 442 232 274 100 103Z" glyph-name="guilsinglright" horiz-adv-x="250" unicode="&#8250;" /><glyph d="M34 713H192V495H193Q234 553 304 553Q328 553 348.5 545Q369 537 385 522Q401 507 410 485Q419 463 419 435V0H262V377Q262 391 255.5 406Q249 421 226 421Q211 421 201.5 408Q192 395 192 373V0H34Z" glyph-name="h" horiz-adv-x="451" unicode="h" /><glyph d="M0 675H34V713H192V675H262V581H192V495H193Q234 553 304 553Q328 553 348.5 545Q369 537 385 522Q401 507 410 485Q419 463 419 435V0H262V377Q262 391 255.5 406Q249 421 226 421Q211 421 201.5 408Q192 395 192 373V0H34V581H0Z" glyph-name="hbar" horiz-adv-x="451" unicode="&#295;" /><glyph d="M59 913H172L271 755H151L113 824L75 755H-40ZM34 713H192V495H193Q234 553 304 553Q328 553 348.5 545Q369 537 385 522Q401 507 410 485Q419 463 419 435V0H262V377Q262 391 255.5 406Q249 421 226 421Q211 421 201.5 408Q192 395 192 373V0H34Z" glyph-name="hcircumflex" horiz-adv-x="451" unicode="&#293;" /><glyph d="M264 741H390L312 589H207ZM92 741H218L146 589H39Z" glyph-name="hungarumlaut" horiz-adv-x="438" unicode="&#733;" /><glyph d="M22 360H226V241H22Z" glyph-name="hyphen" horiz-adv-x="248" unicode="-" /><glyph d="M34 739H192V591H34ZM34 541H192V0H34Z" glyph-name="i" horiz-adv-x="225" unicode="i" /><glyph d="M120 743H274L166 590H54ZM34 541H191V0H34Z" glyph-name="iacute" horiz-adv-x="225" unicode="&#237;" /><glyph d="M116 588Q45 588 3.5 628Q-38 668 -40 751H62Q67 714 77.5 696.5Q88 679 118 679Q143 679 153.5 696.5Q164 714 166 751H265Q265 708 253 677Q241 646 220.5 626.5Q200 607 173 597.5Q146 588 116 588ZM34 541H191V0H34Z" glyph-name="ibreve" horiz-adv-x="225" unicode="&#301;" /><glyph d="M55 748H168L267 590H147L109 659L71 590H-44ZM34 541H191V0H34Z" glyph-name="icircumflex" horiz-adv-x="225" unicode="&#238;" /><glyph d="M136 741H256V588H136ZM-32 741H88V588H-32ZM34 541H191V0H34Z" glyph-name="idieresis" horiz-adv-x="225" unicode="&#239;" /><glyph d="M34 739H192V591H34ZM34 541H192V0H34Z" glyph-name="idotaccent" horiz-adv-x="225" /><glyph d="M-54 743H100L166 590H54ZM34 541H191V0H34Z" glyph-name="igrave" horiz-adv-x="225" unicode="&#236;" /><glyph d="M252 739H410V591H252ZM267 -168Q249 -168 236 -166.5Q223 -165 207 -162V-40Q208 -41 215 -41Q222 -41 225 -41Q242 -41 247.5 -32.5Q253 -24 253 -7V541H410V-27Q410 -97 370 -132.5Q330 -168 267 -168ZM34 739H192V591H34ZM34 541H192V0H34Z" glyph-name="ij" horiz-adv-x="441" unicode="&#307;" /><glyph d="M-14 706H240V598H-14ZM34 541H191V0H34Z" glyph-name="imacron" horiz-adv-x="225" unicode="&#299;" /><glyph d="M446 265Q472 265 488.5 282.5Q505 300 505 326Q505 350 493.5 367Q482 384 454 384Q433 384 410 365Q387 346 365 323Q382 300 401 282.5Q420 265 446 265ZM172 269Q195 269 219 287Q243 305 263 328Q249 349 227 369Q205 389 180 389Q156 389 139.5 372Q123 355 123 332Q123 306 136.5 287.5Q150 269 172 269ZM450 180Q400 180 366.5 201Q333 222 309 251Q282 223 248.5 204Q215 185 173 185Q140 185 113 196Q86 207 67 225.5Q48 244 38 269.5Q28 295 28 325Q28 357 39.5 383.5Q51 410 71 429.5Q91 449 117.5 459.5Q144 470 175 470Q220 470 255.5 451Q291 432 318 400Q342 424 375.5 444.5Q409 465 455 465Q486 465 512.5 456.5Q539 448 558.5 431Q578 414 589 389Q600 364 600 331Q600 298 589 270.5Q578 243 558 222.5Q538 202 510.5 191Q483 180 450 180Z" glyph-name="infinity" horiz-adv-x="628" unicode="&#8734;" /><glyph d="M80 -170Q63 -170 42 -167.5Q21 -165 1 -159L11 -41Q19 -43 28.5 -43.5Q38 -44 46 -44Q60 -44 65.5 -36Q71 -28 73 -12L120 593Q122 622 133 647Q144 672 162 691Q180 710 205 720.5Q230 731 262 731Q279 731 302.5 729Q326 727 346 721L335 603Q330 604 315.5 605Q301 606 294 606Q268 606 265 577L218 -26Q213 -95 177 -132.5Q141 -170 80 -170Z" glyph-name="integral" horiz-adv-x="358" unicode="&#8747;" /><glyph d="M34 739H192V591H34ZM34 541H192V0H179Q146 -12 128.5 -33Q111 -54 111 -77Q111 -100 124.5 -107.5Q138 -115 156 -115Q164 -115 178.5 -111Q193 -107 207 -99L244 -174Q219 -191 190.5 -198Q162 -205 130 -205Q109 -205 88.5 -199Q68 -193 52.5 -180Q37 -167 27 -147Q17 -127 17 -100Q17 -69 31 -44Q45 -19 65 0H34Z" glyph-name="iogonek" horiz-adv-x="225" unicode="&#303;" /><glyph d="M-59 608Q-55 635 -46 658.5Q-37 682 -24 700Q-11 718 6.5 728.5Q24 739 46 739Q63 739 79.5 734.5Q96 730 112 724Q128 718 143.5 713.5Q159 709 175 709Q190 709 198 718.5Q206 728 214 748L284 729Q280 704 272 680.5Q264 657 251 638.5Q238 620 220 609Q202 598 178 598Q163 598 146.5 602.5Q130 607 113.5 612.5Q97 618 81.5 622.5Q66 627 54 627Q40 627 32 620Q24 613 17 589ZM34 541H191V0H34Z" glyph-name="itilde" horiz-adv-x="225" unicode="&#297;" /><glyph d="M41 739H199V591H41ZM56 -168Q38 -168 25 -166.5Q12 -165 -4 -162V-40Q-3 -41 4 -41Q11 -41 14 -41Q31 -41 36.5 -32.5Q42 -24 42 -7V541H199V-27Q199 -97 159 -132.5Q119 -168 56 -168Z" glyph-name="j" horiz-adv-x="230" unicode="j" /><glyph d="M58 748H171L270 590H150L112 659L74 590H-41ZM56 -168Q38 -168 25 -166.5Q12 -165 -4 -162V-40Q-3 -41 4 -41Q11 -41 14 -41Q31 -41 36.5 -32.5Q42 -24 42 -7V541H199V-27Q199 -97 159 -132.5Q119 -168 56 -168Z" glyph-name="jcircumflex" horiz-adv-x="230" unicode="&#309;" /><glyph d="M34 713H192V338L281 541H436L346 357L437 0H270L222 229L192 172V0H34Z" glyph-name="k" horiz-adv-x="443" unicode="k" /><glyph d="M169 -33H304L264 -193H157ZM34 713H192V338L281 541H436L346 357L437 0H270L222 229L192 172V0H34Z" glyph-name="kcommaaccent" horiz-adv-x="443" unicode="&#311;" /><glyph d="M34 541H192V338L281 541H436L346 357L437 0H270L222 229L192 172V0H34Z" glyph-name="kgreenlandic" horiz-adv-x="443" unicode="&#312;" /><glyph d="M158 -9Q90 -9 61 24Q32 57 32 108V713H190V160Q190 150 194.5 143Q199 136 214 136Q219 136 224.5 136.5Q230 137 238 138V5Q202 -9 158 -9Z" glyph-name="l" horiz-adv-x="254" unicode="l" /><glyph d="M122 908H276L168 755H56ZM158 -9Q90 -9 61 24Q32 57 32 108V713H190V160Q190 150 194.5 143Q199 136 214 136Q219 136 224.5 136.5Q230 137 238 138V5Q202 -9 158 -9Z" glyph-name="lacute" horiz-adv-x="254" unicode="&#314;" /><glyph d="M222 713H341L301 512H216ZM158 -9Q90 -9 61 24Q32 57 32 108V713H190V160Q190 150 194.5 143Q199 136 214 136Q219 136 224.5 136.5Q230 137 238 138V5Q202 -9 158 -9Z" glyph-name="lcaron" horiz-adv-x="254" unicode="&#318;" /><glyph d="M65 -33H200L160 -193H53ZM158 -9Q90 -9 61 24Q32 57 32 108V713H190V160Q190 150 194.5 143Q199 136 214 136Q219 136 224.5 136.5Q230 137 238 138V5Q202 -9 158 -9Z" glyph-name="lcommaaccent" horiz-adv-x="254" unicode="&#316;" /><glyph d="M212 464H341V311H212ZM158 -9Q90 -9 61 24Q32 57 32 108V713H190V160Q190 150 194.5 143Q199 136 214 136Q219 136 224.5 136.5Q230 137 238 138V5Q202 -9 158 -9Z" glyph-name="ldot" horiz-adv-x="334" unicode="&#320;" /><glyph d="M35 279V359L360 514L405 419L184 319L406 219L360 125Z" glyph-name="less" horiz-adv-x="442" unicode="&lt;" /><glyph d="M37 118H412V12H37ZM40 312V391L368 537L413 443L183 351L411 259L365 165Z" glyph-name="lessequal" horiz-adv-x="450" unicode="&#8804;" /><glyph d="M361 267H34V372H470V147H361Z" glyph-name="logicalnot" horiz-adv-x="514" unicode="&#172;" /><glyph d="M302 339 220 527 146 351 227 167ZM27 335V352L183 713H265L420 352V335L265 -3H183Z" glyph-name="lozenge" horiz-adv-x="447" unicode="&#9674;" /><glyph d="M17 375 52 397V713H210V500L258 531V419L210 388V160Q210 150 214.5 143Q219 136 234 136Q239 136 244.5 136.5Q250 137 258 138V5Q222 -9 178 -9Q110 -9 81 24Q52 57 52 108V285L17 263Z" glyph-name="lslash" horiz-adv-x="274" unicode="&#322;" /><glyph d="M34 541H190V495H192Q232 553 304 553Q338 553 366.5 538Q395 523 409 491H411Q461 553 533 553Q556 553 577 545Q598 537 613.5 522Q629 507 638.5 485Q648 463 648 435V0H491V377Q491 391 484.5 406Q478 421 455 421Q439 421 429.5 408Q420 395 420 373V0H262V377Q262 391 255.5 406Q249 421 226 421Q211 421 201.5 408Q192 395 192 373V0H34Z" glyph-name="m" horiz-adv-x="680" unicode="m" /><glyph d="M51 706H305V598H51Z" glyph-name="macron" horiz-adv-x="356" unicode="&#175;" /><glyph d="M42 370H408V265H42Z" glyph-name="minus" horiz-adv-x="450" unicode="&#8722;" /><glyph d="M31 541H188V166Q188 149 194.5 134.5Q201 120 224 120Q239 120 251 132.5Q263 145 263 170V541H421V202Q421 175 429.5 164.5Q438 154 456 151L455 -3Q408 -2 373 12Q338 26 324 68Q316 38 295.5 13.5Q275 -11 235 -11Q221 -11 205 -7Q189 -3 175.5 5Q162 13 151.5 26Q141 39 137 56L131 54L181 -169L31 -179Z" glyph-name="mu" horiz-adv-x="471" unicode="&#181;" /><glyph d="M33 199 151 319 31 439 107 515 226 396 343 515 419 438 302 320Q310 311 326.5 294.5Q343 278 360.5 260Q378 242 394.5 225.5Q411 209 419 200L343 124L226 243L109 124Z" glyph-name="multiply" horiz-adv-x="450" unicode="&#215;" /><glyph d="M34 541H190V497H192Q233 553 304 553Q328 553 348.5 545Q369 537 385 522Q401 507 410 485Q419 463 419 435V0H262V377Q262 391 255.5 406Q249 421 226 421Q211 421 201.5 408Q192 395 192 373V0H34Z" glyph-name="n" horiz-adv-x="451" unicode="n" /><glyph d="M233 743H387L279 590H167ZM34 541H190V497H192Q233 553 304 553Q328 553 348.5 545Q369 537 385 522Q401 507 410 485Q419 463 419 435V0H262V377Q262 391 255.5 406Q249 421 226 421Q211 421 201.5 408Q192 395 192 373V0H34Z" glyph-name="nacute" horiz-adv-x="451" unicode="&#324;" /><glyph d="M68 752H188L226 683L264 752H382L281 594H167ZM34 541H190V497H192Q233 553 304 553Q328 553 348.5 545Q369 537 385 522Q401 507 410 485Q419 463 419 435V0H262V377Q262 391 255.5 406Q249 421 226 421Q211 421 201.5 408Q192 395 192 373V0H34Z" glyph-name="ncaron" horiz-adv-x="451" unicode="&#328;" /><glyph d="M163 -33H298L258 -193H151ZM34 541H190V497H192Q233 553 304 553Q328 553 348.5 545Q369 537 385 522Q401 507 410 485Q419 463 419 435V0H262V377Q262 391 255.5 406Q249 421 226 421Q211 421 201.5 408Q192 395 192 373V0H34Z" glyph-name="ncommaaccent" horiz-adv-x="451" unicode="&#326;" /><glyph d="M220 381Q234 381 245 391Q256 401 256 422V557Q256 574 247 583.5Q238 593 221 593Q202 593 193.5 582Q185 571 185 556V415Q185 396 196.5 388.5Q208 381 220 381ZM225 -11Q182 -11 147 0.5Q112 12 87.5 33.5Q63 55 49.5 85Q36 115 36 153V208H188V161Q188 145 196 135.5Q204 126 220 126Q239 126 247.5 135.5Q256 145 256 162V313Q236 292 212.5 281.5Q189 271 160 271Q94 271 61 306.5Q28 342 28 401V556Q28 593 42 624Q56 655 81.5 677.5Q107 700 143 712Q179 724 223 724Q268 724 304.5 711.5Q341 699 366.5 676Q392 653 406 620.5Q420 588 420 549V180Q420 137 406 102Q392 67 366.5 42Q341 17 305 3Q269 -11 225 -11Z" glyph-name="nine" horiz-adv-x="452" unicode="9" /><glyph d="M221 381Q235 381 246 391Q257 401 257 422V557Q257 574 248 583.5Q239 593 222 593Q203 593 194.5 582Q186 571 186 556V415Q186 396 197.5 388.5Q209 381 221 381ZM226 -11Q183 -11 148 0.5Q113 12 88.5 33.5Q64 55 50.5 85Q37 115 37 153V208H189V161Q189 145 197 135.5Q205 126 221 126Q240 126 248.5 135.5Q257 145 257 162V313Q237 292 213.5 281.5Q190 271 161 271Q95 271 62 306.5Q29 342 29 401V556Q29 593 43 624Q57 655 82.5 677.5Q108 700 144 712Q180 724 224 724Q269 724 305.5 711.5Q342 699 367.5 676Q393 653 407 620.5Q421 588 421 549V180Q421 137 407 102Q393 67 367.5 42Q342 17 306 3Q270 -11 226 -11Z" glyph-name="nine.LT" horiz-adv-x="450" unicode="&#58697;" /><glyph d="M149 214Q157 214 163 219Q169 224 169 237V298Q169 316 148 316Q137 316 133 311Q129 306 129 298V233Q129 222 135 218Q141 214 149 214ZM147 -11Q91 -11 57 16.5Q23 44 23 92V117H128V97Q128 86 134 81.5Q140 77 149 77Q169 77 169 96V165Q157 155 140.5 149Q124 143 105 143Q62 143 40 166.5Q18 190 18 226V296Q18 321 28.5 341Q39 361 57 374.5Q75 388 99 395Q123 402 150 402Q177 402 201 395.5Q225 389 243 375.5Q261 362 271.5 342Q282 322 282 296V101Q282 72 271 51Q260 30 241.5 16Q223 2 198.5 -4.5Q174 -11 147 -11Z" glyph-name="nine.dnom" horiz-adv-x="300" unicode="&#58379;" /><glyph d="M149 532Q157 532 163 537Q169 542 169 555V616Q169 634 148 634Q137 634 133 629Q129 624 129 616V551Q129 540 135 536Q141 532 149 532ZM147 307Q91 307 57 334.5Q23 362 23 410V435H128V415Q128 404 134 399.5Q140 395 149 395Q169 395 169 414V483Q157 473 140.5 467Q124 461 105 461Q62 461 40 484.5Q18 508 18 544V614Q18 639 28.5 659Q39 679 57 692.5Q75 706 99 713Q123 720 150 720Q177 720 201 713.5Q225 707 243 693.5Q261 680 271.5 660Q282 640 282 614V419Q282 390 271 369Q260 348 241.5 334Q223 320 198.5 313.5Q174 307 147 307Z" glyph-name="nine.numr" horiz-adv-x="300" unicode="&#58399;" /><glyph glyph-name="nonmarkingreturn" horiz-adv-x="200" /><glyph d="M108 99 133 169H37V275H173L201 349H37V455H240L274 540L352 514L330 455H413V349H290L262 275H413V169H223L186 73Z" glyph-name="notequal" horiz-adv-x="450" unicode="&#8800;" /><glyph d="M72 608Q76 635 85 658.5Q94 682 107 700Q120 718 137.5 728.5Q155 739 177 739Q194 739 210.5 734.5Q227 730 243 724Q259 718 274.5 713.5Q290 709 306 709Q321 709 329 718.5Q337 728 345 748L415 729Q411 704 403 680.5Q395 657 382 638.5Q369 620 351 609Q333 598 309 598Q294 598 277.5 602.5Q261 607 244.5 612.5Q228 618 212.5 622.5Q197 627 185 627Q171 627 163 620Q155 613 148 589ZM34 541H190V497H192Q233 553 304 553Q328 553 348.5 545Q369 537 385 522Q401 507 410 485Q419 463 419 435V0H262V377Q262 391 255.5 406Q249 421 226 421Q211 421 201.5 408Q192 395 192 373V0H34Z" glyph-name="ntilde" horiz-adv-x="451" unicode="&#241;" /><glyph d="M249 273 267 457H200L184 273ZM91 179H18L27 273H99L118 457H44L52 550H125L141 716H225L210 550H275L291 716H374L359 550H431L423 457H350L333 273H406L398 179H324L307 -2H223L239 179H175L158 -2H75Z" glyph-name="numbersign" horiz-adv-x="445" unicode="#" /><glyph d="M240 273 258 457H191L175 273ZM82 179H17L26 273H90L109 457H43L51 550H116L132 716H216L201 550H266L282 716H365L350 550H414L406 457H341L324 273H389L381 179H315L298 -2H214L230 179H166L149 -2H66Z" glyph-name="numbersign.LP" horiz-adv-x="430" unicode="&#58675;" /><glyph d="M222 114Q240 114 247.5 124.5Q255 135 255 150V387Q255 404 245.5 414.5Q236 425 221 425Q205 425 197 414Q189 403 189 386V149Q189 133 197 123.5Q205 114 222 114ZM222 -11Q183 -11 148 -1.5Q113 8 86.5 28.5Q60 49 45 81Q30 113 30 158V380Q30 423 45.5 455Q61 487 87.5 509Q114 531 148.5 542Q183 553 221 553Q258 553 292.5 543Q327 533 354 512Q381 491 397 459Q413 427 413 383V159Q413 115 397.5 83Q382 51 355.5 30Q329 9 294.5 -1Q260 -11 222 -11Z" glyph-name="o" horiz-adv-x="443" unicode="o" /><glyph d="M222 114Q240 114 247.5 124.5Q255 135 255 150V387Q255 404 245.5 414.5Q236 425 221 425Q205 425 197 414Q189 403 189 386V149Q189 133 197 123.5Q205 114 222 114ZM222 -11Q183 -11 148 -1.5Q113 8 86.5 28.5Q60 49 45 81Q30 113 30 158V380Q30 423 45.5 455Q61 487 87.5 509Q114 531 148.5 542Q183 553 221 553Q258 553 292.5 543Q327 533 354 512Q381 491 397 459Q413 427 413 383V159Q413 115 397.5 83Q382 51 355.5 30Q329 9 294.5 -1Q260 -11 222 -11ZM224 743H378L270 590H158Z" glyph-name="oacute" horiz-adv-x="443" unicode="&#243;" /><glyph d="M225 588Q154 588 112.5 628Q71 668 69 751H171Q176 714 186.5 696.5Q197 679 227 679Q252 679 262.5 696.5Q273 714 275 751H374Q374 708 362 677Q350 646 329.5 626.5Q309 607 282 597.5Q255 588 225 588ZM222 114Q240 114 247.5 124.5Q255 135 255 150V387Q255 404 245.5 414.5Q236 425 221 425Q205 425 197 414Q189 403 189 386V149Q189 133 197 123.5Q205 114 222 114ZM222 -11Q183 -11 148 -1.5Q113 8 86.5 28.5Q60 49 45 81Q30 113 30 158V380Q30 423 45.5 455Q61 487 87.5 509Q114 531 148.5 542Q183 553 221 553Q258 553 292.5 543Q327 533 354 512Q381 491 397 459Q413 427 413 383V159Q413 115 397.5 83Q382 51 355.5 30Q329 9 294.5 -1Q260 -11 222 -11Z" glyph-name="obreve" horiz-adv-x="443" unicode="&#335;" /><glyph d="M222 114Q240 114 247.5 124.5Q255 135 255 150V387Q255 404 245.5 414.5Q236 425 221 425Q205 425 197 414Q189 403 189 386V149Q189 133 197 123.5Q205 114 222 114ZM222 -11Q183 -11 148 -1.5Q113 8 86.5 28.5Q60 49 45 81Q30 113 30 158V380Q30 423 45.5 455Q61 487 87.5 509Q114 531 148.5 542Q183 553 221 553Q258 553 292.5 543Q327 533 354 512Q381 491 397 459Q413 427 413 383V159Q413 115 397.5 83Q382 51 355.5 30Q329 9 294.5 -1Q260 -11 222 -11ZM169 748H282L381 590H261L223 659L185 590H70Z" glyph-name="ocircumflex" horiz-adv-x="443" unicode="&#244;" /><glyph d="M222 114Q240 114 247.5 124.5Q255 135 255 150V387Q255 404 245.5 414.5Q236 425 221 425Q205 425 197 414Q189 403 189 386V149Q189 133 197 123.5Q205 114 222 114ZM222 -11Q183 -11 148 -1.5Q113 8 86.5 28.5Q60 49 45 81Q30 113 30 158V380Q30 423 45.5 455Q61 487 87.5 509Q114 531 148.5 542Q183 553 221 553Q258 553 292.5 543Q327 533 354 512Q381 491 397 459Q413 427 413 383V159Q413 115 397.5 83Q382 51 355.5 30Q329 9 294.5 -1Q260 -11 222 -11ZM245 741H365V588H245ZM77 741H197V588H77Z" glyph-name="odieresis" horiz-adv-x="443" unicode="&#246;" /><glyph d="M482 320V393Q482 429 448 429Q431 429 423 419Q415 409 415 393V320ZM222 114Q240 114 247.5 124.5Q255 135 255 150V387Q255 404 245.5 414.5Q236 425 221 425Q205 425 197 414Q189 403 189 386V149Q189 133 197 123.5Q205 114 222 114ZM222 -12Q183 -12 148 -2Q113 8 86.5 28.5Q60 49 45 81Q30 113 30 158V380Q30 423 45.5 455Q61 487 87.5 509Q114 531 148.5 542Q183 553 221 553Q252 553 281.5 546Q311 539 336 524Q359 538 387.5 545.5Q416 553 446 553Q529 553 574.5 508Q620 463 620 386V210H415V172Q415 143 434 129Q453 115 479 115Q508 115 536.5 121.5Q565 128 587 135L614 22Q594 13 575.5 6.5Q557 0 537.5 -4Q518 -8 496.5 -10Q475 -12 449 -12Q382 -12 335 16Q310 2 281 -5Q252 -12 222 -12Z" glyph-name="oe" horiz-adv-x="648" unicode="&#339;" /><glyph d="M158 -206Q134 -206 112 -200.5Q90 -195 73.5 -182.5Q57 -170 47 -150.5Q37 -131 37 -104Q37 -77 48 -54Q59 -31 76.5 -12Q94 7 116.5 20Q139 33 163 41L215 2Q170 -9 150.5 -31.5Q131 -54 131 -77Q131 -100 144.5 -109.5Q158 -119 176 -119Q191 -119 208 -112Q225 -105 238 -96L278 -166Q257 -182 228.5 -194Q200 -206 158 -206Z" glyph-name="ogonek" horiz-adv-x="295" unicode="&#731;" /><glyph d="M158 -206Q134 -206 112 -199.5Q90 -193 73.5 -180Q57 -167 47 -146.5Q37 -126 37 -99Q37 -72 48 -49.5Q59 -27 76.5 -9.5Q94 8 116.5 20.5Q139 33 163 41L195 14Q169 0 150 -22.5Q131 -45 131 -77Q131 -100 144.5 -109.5Q158 -119 176 -119Q191 -119 208 -113Q225 -107 238 -98L277 -169Q256 -185 228 -195.5Q200 -206 158 -206Z" glyph-name="ogonekplus" horiz-adv-x="295" /><glyph d="M63 743H217L283 590H171ZM222 114Q240 114 247.5 124.5Q255 135 255 150V387Q255 404 245.5 414.5Q236 425 221 425Q205 425 197 414Q189 403 189 386V149Q189 133 197 123.5Q205 114 222 114ZM222 -11Q183 -11 148 -1.5Q113 8 86.5 28.5Q60 49 45 81Q30 113 30 158V380Q30 423 45.5 455Q61 487 87.5 509Q114 531 148.5 542Q183 553 221 553Q258 553 292.5 543Q327 533 354 512Q381 491 397 459Q413 427 413 383V159Q413 115 397.5 83Q382 51 355.5 30Q329 9 294.5 -1Q260 -11 222 -11Z" glyph-name="ograve" horiz-adv-x="443" unicode="&#242;" /><glyph d="M312 741H438L360 589H255ZM140 741H266L194 589H87ZM222 114Q240 114 247.5 124.5Q255 135 255 150V387Q255 404 245.5 414.5Q236 425 221 425Q205 425 197 414Q189 403 189 386V149Q189 133 197 123.5Q205 114 222 114ZM222 -11Q183 -11 148 -1.5Q113 8 86.5 28.5Q60 49 45 81Q30 113 30 158V380Q30 423 45.5 455Q61 487 87.5 509Q114 531 148.5 542Q183 553 221 553Q258 553 292.5 543Q327 533 354 512Q381 491 397 459Q413 427 413 383V159Q413 115 397.5 83Q382 51 355.5 30Q329 9 294.5 -1Q260 -11 222 -11Z" glyph-name="ohungarumlaut" horiz-adv-x="443" unicode="&#337;" /><glyph d="M94 706H348V598H94ZM222 114Q240 114 247.5 124.5Q255 135 255 150V387Q255 404 245.5 414.5Q236 425 221 425Q205 425 197 414Q189 403 189 386V149Q189 133 197 123.5Q205 114 222 114ZM222 -11Q183 -11 148 -1.5Q113 8 86.5 28.5Q60 49 45 81Q30 113 30 158V380Q30 423 45.5 455Q61 487 87.5 509Q114 531 148.5 542Q183 553 221 553Q258 553 292.5 543Q327 533 354 512Q381 491 397 459Q413 427 413 383V159Q413 115 397.5 83Q382 51 355.5 30Q329 9 294.5 -1Q260 -11 222 -11Z" glyph-name="omacron" horiz-adv-x="443" unicode="&#333;" /><glyph d="M90 550 40 542 18 664 158 715H249V0H90Z" glyph-name="one" horiz-adv-x="314" unicode="1" /><glyph d="M156 550 106 542 84 664 224 715H315V0H156Z" glyph-name="one.LT" horiz-adv-x="450" unicode="&#58689;" /><glyph d="M66 298 30 291 17 370 111 400H172V0H66Z" glyph-name="one.dnom" horiz-adv-x="223" unicode="&#58371;" /><glyph d="M66 616 30 609 17 688 111 718H172V318H66Z" glyph-name="one.numr" horiz-adv-x="223" unicode="&#58391;" /><glyph d="M438 716H511L192 -1H118ZM392 70 489 193Q506 216 518.5 238.5Q531 261 531 280V284Q531 294 526.5 301.5Q522 309 511 309Q499 309 494 301Q489 293 489 280V257H384V286Q384 341 418.5 371Q453 401 512 401Q575 401 608 369.5Q641 338 641 284Q641 262 634 241.5Q627 221 615.5 201.5Q604 182 590 164Q576 146 563 130L533 91H640V0H392ZM98 614 62 607 49 686 143 716H204V316H98Z" glyph-name="onehalf" horiz-adv-x="686" unicode="&#189;" /><glyph d="M447 716H520L201 -1H127ZM504 77H361V156L477 398H590L466 164H504V206L609 281V164H639V77H609V0H504ZM100 614 64 607 51 686 145 716H206V316H100Z" glyph-name="onequarter" horiz-adv-x="686" unicode="&#188;" /><glyph d="M66 678 30 671 17 750 111 780H172V380H66Z" glyph-name="onesuperior" horiz-adv-x="223" unicode="&#185;" /><glyph d="M43 357H254V278H43ZM138 458Q145 458 151 463Q157 468 157 479V532H148Q134 532 127 521Q120 510 120 493Q120 474 123.5 466Q127 458 138 458ZM99 386Q67 386 44.5 408.5Q22 431 22 483Q22 509 32.5 528.5Q43 548 60 561Q77 574 99.5 580.5Q122 587 146 587H157V622Q157 630 152.5 636Q148 642 136 642Q124 642 121 635Q118 628 118 622V599H29V624Q29 666 60.5 691Q92 716 143 716Q195 716 225 691Q255 666 255 619V463Q255 452 255.5 440.5Q256 429 257 418.5Q258 408 259 401Q260 394 260 393H168Q167 395 166.5 401.5Q166 408 164 422Q153 402 133 394Q113 386 99 386Z" glyph-name="ordfeminine" horiz-adv-x="287" unicode="&#170;" /><glyph d="M42 357H253V278H42ZM145 462Q156 462 160.5 468Q165 474 165 482V621Q165 642 145 642Q135 642 130.5 636Q126 630 126 621V482Q126 462 145 462ZM146 387Q121 387 99.5 393Q78 399 61.5 411Q45 423 35.5 441.5Q26 460 26 486V617Q26 642 35.5 661Q45 680 61.5 693Q78 706 99.5 712.5Q121 719 145 719Q168 719 189.5 713Q211 707 228 695Q245 683 255 664Q265 645 265 619V487Q265 461 255.5 442.5Q246 424 229.5 411.5Q213 399 191.5 393Q170 387 146 387Z" glyph-name="ordmasculine" horiz-adv-x="293" unicode="&#186;" /><glyph d="M189 263 245 414Q236 425 221 425Q205 425 197 414Q189 403 189 386ZM222 114Q240 114 247.5 124.5Q255 135 255 150V286L195 126Q204 114 222 114ZM76 -40 98 20Q67 40 48.5 74Q30 108 30 158V380Q30 423 45.5 455Q61 487 87.5 509Q114 531 148.5 542Q183 553 221 553Q239 553 257.5 550.5Q276 548 293 543L315 602L366 585L342 520Q374 500 393.5 466Q413 432 413 383V159Q413 115 397.5 83Q382 51 355.5 30Q329 9 294.5 -1Q260 -11 222 -11Q181 -11 148 -1L127 -58Z" glyph-name="oslash" horiz-adv-x="443" unicode="&#248;" /><glyph d="M189 263 245 414Q236 425 221 425Q205 425 197 414Q189 403 189 386ZM222 114Q240 114 247.5 124.5Q255 135 255 150V286L195 126V125Q204 114 222 114ZM224 743H378L270 590H158ZM76 -40 98 20Q67 40 48.5 74Q30 108 30 158V380Q30 423 45.5 455Q61 487 87.5 509Q114 531 148.5 542Q183 553 221 553Q239 553 257.5 550.5Q276 548 293 543L315 602L366 585L342 520Q374 500 393.5 466Q413 432 413 383V159Q413 115 397.5 83Q382 51 355.5 30Q329 9 294.5 -1Q260 -11 222 -11Q181 -11 148 -1L127 -58Z" glyph-name="oslashacute" horiz-adv-x="443" unicode="&#511;" /><glyph d="M49 608Q53 635 62 658.5Q71 682 84 700Q97 718 114.5 728.5Q132 739 154 739Q171 739 187.5 734.5Q204 730 220 724Q236 718 251.5 713.5Q267 709 283 709Q298 709 306 718.5Q314 728 322 748L392 729Q388 704 380 680.5Q372 657 359 638.5Q346 620 328 609Q310 598 286 598Q271 598 254.5 602.5Q238 607 221.5 612.5Q205 618 189.5 622.5Q174 627 162 627Q148 627 140 620Q132 613 125 589ZM222 114Q240 114 247.5 124.5Q255 135 255 150V387Q255 404 245.5 414.5Q236 425 221 425Q205 425 197 414Q189 403 189 386V149Q189 133 197 123.5Q205 114 222 114ZM222 -11Q183 -11 148 -1.5Q113 8 86.5 28.5Q60 49 45 81Q30 113 30 158V380Q30 423 45.5 455Q61 487 87.5 509Q114 531 148.5 542Q183 553 221 553Q258 553 292.5 543Q327 533 354 512Q381 491 397 459Q413 427 413 383V159Q413 115 397.5 83Q382 51 355.5 30Q329 9 294.5 -1Q260 -11 222 -11Z" glyph-name="otilde" horiz-adv-x="443" unicode="&#245;" /><glyph d="M227 112Q241 112 251.5 121.5Q262 131 262 150V389Q262 408 252 418Q242 428 229 428Q214 428 203 419Q192 410 192 384V150Q192 129 203.5 120.5Q215 112 227 112ZM34 541H190V494H192Q210 519 239 535.5Q268 552 297 552Q330 552 353 541Q376 530 391 511Q406 492 412.5 466Q419 440 419 410V121Q419 95 410.5 71Q402 47 385 29Q368 11 342.5 0Q317 -11 283 -11Q260 -11 235.5 -0.5Q211 10 194 30H192V-160H34Z" glyph-name="p" horiz-adv-x="449" unicode="p" /><glyph d="M155 213Q117 222 92 244.5Q67 267 52.5 299.5Q38 332 32 372Q26 412 26 456Q26 510 37.5 557.5Q49 605 73 639.5Q97 674 133.5 694Q170 714 220 714H422V631H385V-66H290V631H250V-66H155Z" glyph-name="paragraph" horiz-adv-x="448" unicode="&#182;" /><glyph d="M164 -172Q137 -131 114.5 -77.5Q92 -24 76.5 35Q61 94 52 157Q43 220 43 280Q43 342 51.5 403.5Q60 465 75.5 522Q91 579 113.5 630Q136 681 164 723L253 716Q235 659 221 610.5Q207 562 198 512.5Q189 463 184 407Q179 351 179 279Q179 158 200 49.5Q221 -59 253 -165Z" glyph-name="parenleft" horiz-adv-x="263" unicode="(" /><glyph d="M120 -70Q102 -48 87 -19Q72 10 61 43Q50 76 44 112Q38 148 38 184Q38 253 60 318.5Q82 384 120 430L171 429Q158 395 149 366Q140 337 134.5 308.5Q129 280 126.5 250Q124 220 124 184Q124 119 136 55Q148 -9 171 -69Z" glyph-name="parenleft.dnom" horiz-adv-x="183" unicode="&#58383;" /><glyph d="M120 248Q102 270 87 299Q72 328 61 361Q50 394 44 430Q38 466 38 502Q38 571 60 636.5Q82 702 120 748L171 747Q158 713 149 684Q140 655 134.5 626.5Q129 598 126.5 568Q124 538 124 502Q124 437 136 373Q148 309 171 249Z" glyph-name="parenleft.numr" horiz-adv-x="183" unicode="&#58403;" /><glyph d="M10 -165Q42 -59 63 49.5Q84 158 84 279Q84 351 79 407Q74 463 65 512.5Q56 562 42 610.5Q28 659 10 716L99 723Q127 681 149 630Q171 579 187 522Q203 465 211.5 403.5Q220 342 220 280Q220 220 211 157Q202 94 186.5 35Q171 -24 148.5 -77.5Q126 -131 99 -172Z" glyph-name="parenright" horiz-adv-x="263" unicode=")" /><glyph d="M28 -69Q51 -9 63.5 55Q76 119 76 184Q76 220 73.5 250Q71 280 65 308.5Q59 337 50 366Q41 395 28 429L80 430Q118 384 140 318.5Q162 253 162 184Q162 111 138.5 43Q115 -25 80 -70Z" glyph-name="parenright.dnom" horiz-adv-x="183" unicode="&#58384;" /><glyph d="M28 249Q51 309 63.5 373Q76 437 76 502Q76 538 73.5 568Q71 598 65 626.5Q59 655 50 684Q41 713 28 747L80 748Q118 702 140 636.5Q162 571 162 502Q162 429 138.5 361Q115 293 80 248Z" glyph-name="parenright.numr" horiz-adv-x="183" unicode="&#58404;" /><glyph d="M221 114Q239 114 246.5 124.5Q254 135 254 150V372Q254 389 244.5 399.5Q235 410 220 410Q204 410 196 399Q188 388 188 372V149Q188 133 196 123.5Q204 114 221 114ZM221 -11Q182 -11 147 -1.5Q112 8 85.5 28.5Q59 49 44 81Q29 113 29 158V365Q29 428 61.5 467.5Q94 507 143 526Q153 530 166 533L55 713L229 720L381 467Q395 444 403.5 414Q412 384 412 355V159Q412 115 396.5 83Q381 51 354.5 30Q328 9 293.5 -1Q259 -11 221 -11Z" glyph-name="partialdiff" horiz-adv-x="441" unicode="&#8706;" /><glyph d="M501 73Q515 73 520 81Q525 89 525 99V267Q525 276 519.5 283.5Q514 291 501 291Q488 291 482.5 283.5Q477 276 477 267V98Q477 88 482 80.5Q487 73 501 73ZM502 -12Q476 -12 453 -4.5Q430 3 412.5 17Q395 31 384.5 52Q374 73 374 100V256Q374 284 384 306.5Q394 329 411 344.5Q428 360 451 368Q474 376 501 376Q527 376 550 368.5Q573 361 590.5 346Q608 331 618 309.5Q628 288 628 260V102Q628 77 617.5 56Q607 35 589.5 20Q572 5 549 -3.5Q526 -12 502 -12ZM437 716H514L225 0H147ZM156 424Q170 424 175 431.5Q180 439 180 449V617Q180 627 174 634Q168 641 155 641Q141 641 135.5 634Q130 627 130 617V448Q130 439 136 431.5Q142 424 156 424ZM156 338Q131 338 108 345.5Q85 353 67 367Q49 381 38.5 402Q28 423 28 450V609Q28 637 38 659Q48 681 65 696Q82 711 105 718.5Q128 726 155 726Q181 726 204 718.5Q227 711 244.5 696Q262 681 272 659.5Q282 638 282 610V450Q282 425 271.5 404.5Q261 384 243.5 369Q226 354 203.5 346Q181 338 156 338Z" glyph-name="percent" horiz-adv-x="656" unicode="%" /><glyph d="M31 173H179V0H31Z" glyph-name="period" horiz-adv-x="210" unicode="." /><glyph d="M39 114H146V0H39Z" glyph-name="period.dnom" horiz-adv-x="185" unicode="&#58382;" /><glyph d="M39 432H146V318H39Z" glyph-name="period.numr" horiz-adv-x="185" unicode="&#58402;" /><glyph d="M39 -19H146V-133H39Z" glyph-name="period.sub" horiz-adv-x="185" /><glyph d="M39 494H146V380H39Z" glyph-name="period.sup" horiz-adv-x="185" /><glyph d="M31 452H179V279H31Z" glyph-name="periodcentered" horiz-adv-x="210" unicode="&#8901;" /><glyph d="M501 73Q515 73 520 81Q525 89 525 99V267Q525 276 519.5 283.5Q514 291 501 291Q488 291 482.5 283.5Q477 276 477 267V98Q477 88 482 80.5Q487 73 501 73ZM502 -12Q476 -12 453 -4.5Q430 3 412.5 17Q395 31 384.5 52Q374 73 374 100V256Q374 284 384 306.5Q394 329 411 344.5Q428 360 451 368Q474 376 501 376Q527 376 550 368.5Q573 361 590.5 346Q608 331 618 309.5Q628 288 628 260V102Q628 77 617.5 56Q607 35 589.5 20Q572 5 549 -3.5Q526 -12 502 -12ZM437 716H514L225 0H147ZM156 424Q170 424 175 431.5Q180 439 180 449V617Q180 627 174 634Q168 641 155 641Q141 641 135.5 634Q130 627 130 617V448Q130 439 136 431.5Q142 424 156 424ZM156 338Q131 338 108 345.5Q85 353 67 367Q49 381 38.5 402Q28 423 28 450V609Q28 637 38 659Q48 681 65 696Q82 711 105 718.5Q128 726 155 726Q181 726 204 718.5Q227 711 244.5 696Q262 681 272 659.5Q282 638 282 610V450Q282 425 271.5 404.5Q261 384 243.5 369Q226 354 203.5 346Q181 338 156 338ZM789 73Q803 73 808 81Q813 89 813 99V267Q813 276 807.5 283.5Q802 291 789 291Q776 291 770.5 283.5Q765 276 765 267V98Q765 88 770 80.5Q775 73 789 73ZM790 -12Q764 -12 741 -4.5Q718 3 700.5 17Q683 31 672.5 52Q662 73 662 100V256Q662 284 672 306.5Q682 329 699 344.5Q716 360 739 368Q762 376 789 376Q815 376 838 368.5Q861 361 878.5 346Q896 331 906 309.5Q916 288 916 260V102Q916 77 905.5 56Q895 35 877.5 20Q860 5 837 -3.5Q814 -12 790 -12Z" glyph-name="perthousand" horiz-adv-x="944" unicode="&#8240;" /><glyph d="M427 -4Q399 -4 367.5 0Q336 4 309.5 21Q283 38 265.5 72.5Q248 107 248 167V400H194Q193 345 191.5 296.5Q190 248 188 200.5Q186 153 183 104Q180 55 176 0H30Q36 55 40 104Q44 153 47 200Q50 247 52 295.5Q54 344 56 400H12L25 541H427V400L392 401V177Q392 161 398.5 149.5Q405 138 427 138Z" glyph-name="pi" horiz-adv-x="452" unicode="&#960;" /><glyph d="M172 265H33V370H172V516H278V370H417V265H278V120H172Z" glyph-name="plus" horiz-adv-x="450" unicode="+" /><glyph d="M37 118H412V12H37ZM172 297H33V403H172V529H279V403H417V297H279V177H172Z" glyph-name="plusminus" horiz-adv-x="450" unicode="&#177;" /><glyph d="M86 561H26V713H538V561H479V-133H323V561H243V-133H86Z" glyph-name="product" horiz-adv-x="564" unicode="&#8719;" /><glyph d="M222 117Q236 117 247 127Q258 137 258 158V394Q258 415 246.5 423.5Q235 432 222 432Q208 432 198 421.5Q188 411 188 390V157Q188 138 198 127.5Q208 117 222 117ZM258 39H256Q234 13 209.5 1Q185 -11 159 -11Q124 -11 99.5 0Q75 11 59.5 29Q44 47 37 71.5Q30 96 30 123V411Q30 471 68 511.5Q106 552 175 552Q201 552 226.5 540.5Q252 529 270 506H271L272 543H416V-160H258Z" glyph-name="q" horiz-adv-x="449" unicode="q" /><glyph d="M115 173H271V0H115ZM119 235Q119 283 132 323.5Q145 364 165 394Q175 410 186 426.5Q197 443 206 461.5Q215 480 221 501Q227 522 227 548Q227 565 218.5 575.5Q210 586 193 586Q175 586 167.5 574.5Q160 563 160 545V490H24V548Q24 587 37 619Q50 651 73.5 674.5Q97 698 130 710.5Q163 723 204 723Q288 723 336.5 677Q385 631 386 543Q386 512 379.5 486Q373 460 363 437.5Q353 415 340.5 395.5Q328 376 316 360Q307 347 297.5 332.5Q288 318 280 302Q272 286 266.5 269.5Q261 253 261 237V217H119Z" glyph-name="question" horiz-adv-x="407" unicode="?" /><glyph d="M141 564H296V391H141ZM207 -160Q123 -160 74.5 -113.5Q26 -67 25 21Q25 83 47.5 127.5Q70 172 95 204Q114 230 132 262.5Q150 295 150 333V352H292V334Q292 286 279.5 243Q267 200 246 170Q235 154 224 137.5Q213 121 204 102.5Q195 84 189.5 63Q184 42 184 16Q184 -2 192.5 -12.5Q201 -23 218 -23Q236 -23 243.5 -11.5Q251 0 251 19V74H387V16Q387 -23 374 -55.5Q361 -88 337.5 -111.5Q314 -135 280.5 -147.5Q247 -160 207 -160Z" glyph-name="questiondown" horiz-adv-x="409" unicode="&#191;" /><glyph d="M223 576V714H361V576L341 412H244ZM37 576V714H175V576L154 412H58Z" glyph-name="quotedbl" horiz-adv-x="398" unicode="&quot;" /><glyph d="M276 10H225V173H373V19L316 -130H243ZM82 10H31V173H179V19L123 -130H50Z" glyph-name="quotedblbase" horiz-adv-x="404" unicode="&#8222;" /><glyph d="M225 566 281 714H354L322 574H373V411H225ZM31 566 88 714H161L128 574H179V411H31Z" glyph-name="quotedblleft" horiz-adv-x="404" unicode="&#8220;" /><glyph d="M276 550H225V713H373V559L316 411H243ZM82 550H31V713H179V559L123 411H50Z" glyph-name="quotedblright" horiz-adv-x="404" unicode="&#8221;" /><glyph d="M31 566 88 714H161L128 574H179V411H31Z" glyph-name="quoteleft" horiz-adv-x="210" unicode="&#8216;" /><glyph d="M82 550H31V713H179V559L123 411H50Z" glyph-name="quoteright" horiz-adv-x="210" unicode="&#8217;" /><glyph d="M82 10H31V173H179V19L123 -130H50Z" glyph-name="quotesinglbase" horiz-adv-x="210" unicode="&#8218;" /><glyph d="M37 576V714H175V576L154 412H58Z" glyph-name="quotesingle" horiz-adv-x="216" unicode="&apos;" /><glyph d="M34 541H190V478H191Q204 507 225.5 527Q247 547 281 547Q289 547 302.5 546Q316 545 325 542V396Q311 398 293 399.5Q275 401 267 401Q254 401 241 398.5Q228 396 217 390Q206 384 199 373Q192 362 192 346V0H34Z" glyph-name="r" horiz-adv-x="339" unicode="r" /><glyph d="M134 743H288L180 590H68ZM34 541H190V478H191Q204 507 225.5 527Q247 547 281 547Q289 547 302.5 546Q316 545 325 542V396Q311 398 293 399.5Q275 401 267 401Q254 401 241 398.5Q228 396 217 390Q206 384 199 373Q192 362 192 346V0H34Z" glyph-name="racute" horiz-adv-x="339" unicode="&#341;" /><glyph d="M10 541H175L220 254H222L304 714H456L291 -3H138Z" glyph-name="radical" horiz-adv-x="464" unicode="&#8730;" /><glyph d="M12 752H132L170 683L208 752H326L225 594H111ZM34 541H190V478H191Q204 507 225.5 527Q247 547 281 547Q289 547 302.5 546Q316 545 325 542V396Q311 398 293 399.5Q275 401 267 401Q254 401 241 398.5Q228 396 217 390Q206 384 199 373Q192 362 192 346V0H34Z" glyph-name="rcaron" horiz-adv-x="339" unicode="&#345;" /><glyph d="M52 -33H187L147 -193H40ZM34 541H190V478H191Q204 507 225.5 527Q247 547 281 547Q289 547 302.5 546Q316 545 325 542V396Q311 398 293 399.5Q275 401 267 401Q254 401 241 398.5Q228 396 217 390Q206 384 199 373Q192 362 192 346V0H34Z" glyph-name="rcommaaccent" horiz-adv-x="339" unicode="&#343;" /><glyph d="M225 538Q238 538 245.5 546.5Q253 555 253 568Q253 582 245.5 589.5Q238 597 226 597H204V538ZM141 647H238Q273 647 294 626.5Q315 606 315 572Q315 550 305.5 531Q296 512 276 502L321 409H254L218 492H204V409H141ZM222 350Q250 350 276 362Q302 374 322 396.5Q342 419 354 451Q366 483 366 523Q366 563 354.5 595Q343 627 323.5 649.5Q304 672 277.5 684.5Q251 697 222 697Q193 697 167.5 685Q142 673 122.5 650.5Q103 628 92 595.5Q81 563 81 523Q81 482 92.5 450Q104 418 123.5 396Q143 374 168.5 362Q194 350 222 350ZM222 303Q176 303 140 320.5Q104 338 78.5 368Q53 398 39.5 438Q26 478 26 523Q26 568 40.5 607.5Q55 647 81 677Q107 707 143 724.5Q179 742 222 742Q267 742 303.5 724.5Q340 707 365.5 677Q391 647 405 607.5Q419 568 419 523Q419 478 405 438Q391 398 365 368Q339 338 302.5 320.5Q266 303 222 303Z" glyph-name="registered" horiz-adv-x="445" unicode="&#174;" /><glyph d="M129 635Q149 635 160.5 648Q172 661 172 681Q172 701 160.5 714Q149 727 129 727Q110 727 98.5 714Q87 701 87 681Q87 661 99 648Q111 635 129 635ZM128 580Q85 580 55.5 607Q26 634 26 679Q26 724 55.5 752.5Q85 781 129 781Q174 781 202.5 754.5Q231 728 231 682Q231 660 223 641.5Q215 623 200.5 609.5Q186 596 167.5 588Q149 580 128 580Z" glyph-name="ring" horiz-adv-x="257" unicode="&#730;" /><glyph d="M129 631Q148 631 158 643.5Q168 656 168 676Q168 697 157.5 709Q147 721 130 721Q112 721 102 708Q92 695 92 676Q92 655 101.5 643Q111 631 129 631ZM128 582Q80 582 55 609.5Q30 637 30 673Q30 689 35.5 705Q41 721 53 735L127 832L230 807L168 759Q195 749 212 727Q229 705 229 676Q229 635 200 608.5Q171 582 128 582Z" glyph-name="ringacute" horiz-adv-x="258" /><glyph d="M196 -11Q166 -11 136 -3Q106 5 81 24Q56 43 39.5 75Q23 107 20 155L164 159Q165 135 173.5 120.5Q182 106 199 106Q223 106 223 135Q223 151 209.5 166.5Q196 182 163 205L125 232Q83 261 57 298.5Q31 336 31 390Q31 418 40 447Q49 476 69.5 499.5Q90 523 123 538Q156 553 203 553Q237 553 266.5 544Q296 535 318 515.5Q340 496 353.5 463.5Q367 431 369 385L237 381Q235 408 227 423.5Q219 439 201 439Q184 439 178.5 430Q173 421 173 409Q173 394 188.5 380.5Q204 367 227 350L273 315Q321 279 346.5 241Q372 203 372 149Q372 118 362 89.5Q352 61 331 38.5Q310 16 276.5 2.5Q243 -11 196 -11Z" glyph-name="s" horiz-adv-x="392" unicode="s" /><glyph d="M205 743H359L251 590H139ZM196 -11Q166 -11 136 -3Q106 5 81 24Q56 43 39.5 75Q23 107 20 155L164 159Q165 135 173.5 120.5Q182 106 199 106Q223 106 223 135Q223 151 209.5 166.5Q196 182 163 205L125 232Q83 261 57 298.5Q31 336 31 390Q31 418 40 447Q49 476 69.5 499.5Q90 523 123 538Q156 553 203 553Q237 553 266.5 544Q296 535 318 515.5Q340 496 353.5 463.5Q367 431 369 385L237 381Q235 408 227 423.5Q219 439 201 439Q184 439 178.5 430Q173 421 173 409Q173 394 188.5 380.5Q204 367 227 350L273 315Q321 279 346.5 241Q372 203 372 149Q372 118 362 89.5Q352 61 331 38.5Q310 16 276.5 2.5Q243 -11 196 -11Z" glyph-name="sacute" horiz-adv-x="392" unicode="&#347;" /><glyph d="M54 752H174L212 683L250 752H368L267 594H153ZM196 -11Q166 -11 136 -3Q106 5 81 24Q56 43 39.5 75Q23 107 20 155L164 159Q165 135 173.5 120.5Q182 106 199 106Q223 106 223 135Q223 151 209.5 166.5Q196 182 163 205L125 232Q83 261 57 298.5Q31 336 31 390Q31 418 40 447Q49 476 69.5 499.5Q90 523 123 538Q156 553 203 553Q237 553 266.5 544Q296 535 318 515.5Q340 496 353.5 463.5Q367 431 369 385L237 381Q235 408 227 423.5Q219 439 201 439Q184 439 178.5 430Q173 421 173 409Q173 394 188.5 380.5Q204 367 227 350L273 315Q321 279 346.5 241Q372 203 372 149Q372 118 362 89.5Q352 61 331 38.5Q310 16 276.5 2.5Q243 -11 196 -11Z" glyph-name="scaron" horiz-adv-x="393" unicode="&#353;" /><glyph d="M212 -199Q194 -199 169.5 -197Q145 -195 120 -188V-123Q143 -129 167 -132.5Q191 -136 205 -136Q222 -136 228.5 -130.5Q235 -125 235 -117Q235 -106 224 -103Q213 -100 204 -99L161 -96L181 -10Q152 -9 124.5 0.5Q97 10 74.5 29Q52 48 37.5 79Q23 110 20 155L164 159Q165 135 173.5 120.5Q182 106 199 106Q223 106 223 135Q223 151 209.5 166.5Q196 182 163 205L125 232Q83 261 57 298.5Q31 336 31 390Q31 418 40 447Q49 476 69.5 499.5Q90 523 123 538Q156 553 203 553Q237 553 266.5 544Q296 535 318 515.5Q340 496 353.5 463.5Q367 431 369 385L237 381Q235 408 227 423.5Q219 439 201 439Q184 439 178.5 430Q173 421 173 409Q173 394 188.5 380.5Q204 367 227 350L273 315Q321 279 346.5 241Q372 203 372 149Q372 122 364.5 96.5Q357 71 341.5 50Q326 29 301 14Q276 -1 241 -7L232 -47Q247 -47 265.5 -49Q284 -51 300 -58Q316 -65 326.5 -78Q337 -91 337 -112Q337 -133 326.5 -149.5Q316 -166 299 -177Q282 -188 259 -193.5Q236 -199 212 -199Z" glyph-name="scedilla" horiz-adv-x="392" unicode="&#351;" /><glyph d="M143 748H256L355 590H235L197 659L159 590H44ZM196 -11Q166 -11 136 -3Q106 5 81 24Q56 43 39.5 75Q23 107 20 155L164 159Q165 135 173.5 120.5Q182 106 199 106Q223 106 223 135Q223 151 209.5 166.5Q196 182 163 205L125 232Q83 261 57 298.5Q31 336 31 390Q31 418 40 447Q49 476 69.5 499.5Q90 523 123 538Q156 553 203 553Q237 553 266.5 544Q296 535 318 515.5Q340 496 353.5 463.5Q367 431 369 385L237 381Q235 408 227 423.5Q219 439 201 439Q184 439 178.5 430Q173 421 173 409Q173 394 188.5 380.5Q204 367 227 350L273 315Q321 279 346.5 241Q372 203 372 149Q372 118 362 89.5Q352 61 331 38.5Q310 16 276.5 2.5Q243 -11 196 -11Z" glyph-name="scircumflex" horiz-adv-x="392" unicode="&#349;" /><glyph d="M147 -33H282L242 -193H135ZM196 -11Q166 -11 136 -3Q106 5 81 24Q56 43 39.5 75Q23 107 20 155L164 159Q165 135 173.5 120.5Q182 106 199 106Q223 106 223 135Q223 151 209.5 166.5Q196 182 163 205L125 232Q83 261 57 298.5Q31 336 31 390Q31 418 40 447Q49 476 69.5 499.5Q90 523 123 538Q156 553 203 553Q237 553 266.5 544Q296 535 318 515.5Q340 496 353.5 463.5Q367 431 369 385L237 381Q235 408 227 423.5Q219 439 201 439Q184 439 178.5 430Q173 421 173 409Q173 394 188.5 380.5Q204 367 227 350L273 315Q321 279 346.5 241Q372 203 372 149Q372 118 362 89.5Q352 61 331 38.5Q310 16 276.5 2.5Q243 -11 196 -11Z" glyph-name="scommaaccent" horiz-adv-x="392" unicode="&#537;" /><glyph d="M238 298Q261 311 261 332Q261 343 253 353.5Q245 364 225 372Q216 375 208 378Q193 383 183 387Q175 380 169 372Q163 364 163 347Q163 339 167.5 333Q172 327 178.5 322Q185 317 192 314Q199 311 204 309ZM205 -45Q177 -45 147 -39Q117 -33 92.5 -16.5Q68 0 52.5 29Q37 58 37 105V145H165V118Q165 95 174 76Q183 57 214 57Q227 57 234.5 63Q242 69 246 77Q250 85 251 94.5Q252 104 252 111Q252 137 236 152Q220 167 204 174L155 193Q133 201 111.5 213Q90 225 73 242.5Q56 260 45.5 284.5Q35 309 35 341Q35 374 50.5 400Q66 426 86 448Q63 469 50 494.5Q37 520 37 565Q37 635 82.5 678.5Q128 722 212 722Q247 722 277.5 713.5Q308 705 330.5 686.5Q353 668 366 639.5Q379 611 379 572V534H256V566Q256 585 246.5 601.5Q237 618 213 618Q189 618 180 602.5Q171 587 171 570Q171 547 186 532Q201 517 218 511L273 491Q292 483 313 472.5Q334 462 351.5 445.5Q369 429 380 406Q391 383 391 352Q391 314 376 287Q361 260 341 237Q359 218 375.5 193Q392 168 392 123Q392 84 378.5 53Q365 22 340 0.5Q315 -21 281 -33Q247 -45 205 -45Z" glyph-name="section" horiz-adv-x="422" unicode="&#167;" /><glyph d="M31 543H179V370H31ZM88 10H31V173H179V19L128 -137H50Z" glyph-name="semicolon" horiz-adv-x="210" unicode=";" /><glyph d="M88 0Q88 79 100.5 158.5Q113 238 133.5 312.5Q154 387 179.5 453Q205 519 232 571H25V713H400V591Q331 460 291 314Q251 168 252 0Z" glyph-name="seven" horiz-adv-x="424" unicode="7" /><glyph d="M101 0Q101 79 113.5 158.5Q126 238 146.5 312.5Q167 387 192.5 453Q218 519 245 571H38V713H413V591Q344 460 304 314Q264 168 265 0Z" glyph-name="seven.LT" horiz-adv-x="450" unicode="&#58695;" /><glyph d="M61 0Q61 41 70 82.5Q79 124 93 163Q107 202 125 237Q143 272 163 301H19V396H282V317Q240 260 209.5 180Q179 100 179 0Z" glyph-name="seven.dnom" horiz-adv-x="300" unicode="&#58377;" /><glyph d="M61 318Q61 359 70 400.5Q79 442 93 481Q107 520 125 555Q143 590 163 619H19V714H282V635Q240 578 209.5 498Q179 418 179 318Z" glyph-name="seven.numr" horiz-adv-x="300" unicode="&#58397;" /><glyph d="M232 122Q251 122 259 133.5Q267 145 267 160V299Q267 317 256.5 324.5Q246 332 234 332Q220 332 208.5 322.5Q197 313 196 293V159Q196 122 232 122ZM230 -11Q185 -11 148.5 1.5Q112 14 86 36.5Q60 59 46 91.5Q32 124 32 163V541Q32 586 47.5 620Q63 654 90.5 677.5Q118 701 155 713Q192 725 235 725Q320 725 368.5 680Q417 635 417 560V503H265V554Q265 570 257 579.5Q249 589 233 589Q196 589 196 552V405Q238 441 295 441Q361 441 393.5 405.5Q426 370 426 312V158Q426 121 412 90Q398 59 372 36.5Q346 14 310 1.5Q274 -11 230 -11Z" glyph-name="six" horiz-adv-x="454" unicode="6" /><glyph d="M228 122Q247 122 255 133.5Q263 145 263 160V299Q263 317 252.5 324.5Q242 332 230 332Q216 332 204.5 322.5Q193 313 192 293V159Q192 122 228 122ZM226 -11Q181 -11 144.5 1.5Q108 14 82 36.5Q56 59 42 91.5Q28 124 28 163V541Q28 586 43.5 620Q59 654 86.5 677.5Q114 701 151 713Q188 725 231 725Q316 725 364.5 680Q413 635 413 560V503H261V554Q261 570 253 579.5Q245 589 229 589Q192 589 192 552V405Q234 441 291 441Q357 441 389.5 405.5Q422 370 422 312V158Q422 121 408 90Q394 59 368 36.5Q342 14 306 1.5Q270 -11 226 -11Z" glyph-name="six.LT" horiz-adv-x="450" unicode="&#58694;" /><glyph d="M152 75Q163 75 167 80Q171 85 171 93V158Q171 169 165 173Q159 177 151 177Q143 177 137 172Q131 167 131 154V93Q131 75 152 75ZM150 -11Q123 -11 99 -4.5Q75 2 57 15.5Q39 29 28.5 49Q18 69 18 95V290Q18 319 29 340Q40 361 58.5 375Q77 389 101.5 395.5Q126 402 153 402Q209 402 243 374.5Q277 347 277 299V271H172V294Q172 305 166 309.5Q160 314 151 314Q131 314 131 295V222Q143 232 159.5 238Q176 244 195 244Q238 244 260 220.5Q282 197 282 161V95Q282 70 271.5 50Q261 30 243 16.5Q225 3 201 -4Q177 -11 150 -11Z" glyph-name="six.dnom" horiz-adv-x="300" unicode="&#58376;" /><glyph d="M152 393Q163 393 167 398Q171 403 171 411V476Q171 487 165 491Q159 495 151 495Q143 495 137 490Q131 485 131 472V411Q131 393 152 393ZM150 307Q123 307 99 313.5Q75 320 57 333.5Q39 347 28.5 367Q18 387 18 413V608Q18 637 29 658Q40 679 58.5 693Q77 707 101.5 713.5Q126 720 153 720Q209 720 243 692.5Q277 665 277 617V589H172V612Q172 623 166 627.5Q160 632 151 632Q131 632 131 613V540Q143 550 159.5 556Q176 562 195 562Q238 562 260 538.5Q282 515 282 479V413Q282 388 271.5 368Q261 348 243 334.5Q225 321 201 314Q177 307 150 307Z" glyph-name="six.numr" horiz-adv-x="300" unicode="&#58396;" /><glyph d="M145 718H245L96 -160H-6Z" glyph-name="slash" horiz-adv-x="269" unicode="/" /><glyph glyph-name="space" horiz-adv-x="150" unicode=" " /><glyph d="M33 135H82V296H42V404H82V539Q82 587 98 622Q114 657 141 680Q168 703 203.5 714Q239 725 278 725Q316 725 348 714Q380 703 403 682Q426 661 439 630Q452 599 452 558V495H313V558Q313 574 304.5 584Q296 594 279 594Q262 594 254 582.5Q246 571 246 558V404H375V296H246V135H467L444 0H33Z" glyph-name="sterling" horiz-adv-x="495" unicode="&#163;" /><glyph d="M33 -1 188 300 29 586V713H419V564H239L372 322V287L231 16H419V-133H33Z" glyph-name="summation" horiz-adv-x="452" unicode="&#8721;" /><glyph d="M202 -8Q145 -8 106 21Q67 50 67 112V413H22V535H67V657H225V535H296V413H225V159Q225 145 231.5 137Q238 129 255 129Q280 129 297 132V6Q276 -1 250.5 -4.5Q225 -8 202 -8Z" glyph-name="t" horiz-adv-x="318" unicode="t" /><glyph d="M40 331H67V413H22V535H67V657H225V535H296V413H225V331H263V237H225V159Q225 145 231.5 137Q238 129 255 129Q280 129 297 132V6Q276 -1 250.5 -4.5Q225 -8 202 -8Q145 -8 106 21Q67 50 67 112V237H40Z" glyph-name="tbar" horiz-adv-x="318" unicode="&#359;" /><glyph d="M202 -8Q145 -8 106 21Q67 50 67 112V413H22V535H67V657H225V535H296V413H225V159Q225 145 231.5 137Q238 129 255 129Q280 129 297 132V6Q276 -1 250.5 -4.5Q225 -8 202 -8ZM256 714H366L335 561H250Z" glyph-name="tcaron" horiz-adv-x="318" unicode="&#357;" /><glyph d="M108 -33H243L203 -193H96ZM202 -8Q145 -8 106 21Q67 50 67 112V413H22V535H67V657H225V535H296V413H225V159Q225 145 231.5 137Q238 129 255 129Q280 129 297 132V6Q276 -1 250.5 -4.5Q225 -8 202 -8Z" glyph-name="tcommaaccent" horiz-adv-x="318" unicode="&#355;" /><glyph d="M227 112Q241 112 251.5 121.5Q262 131 262 150V389Q262 408 252 418Q242 428 229 428Q214 428 203 419Q192 410 192 384V150Q192 129 203.5 120.5Q215 112 227 112ZM34 713H192V494H193Q211 519 241 535.5Q271 552 300 552Q333 552 355.5 541Q378 530 392.5 511Q407 492 413 466Q419 440 419 410V121Q419 95 410.5 71Q402 47 385 29Q368 11 342.5 0Q317 -11 283 -11Q260 -11 235.5 -0.5Q211 10 194 30H192V-160H34Z" glyph-name="thorn" horiz-adv-x="449" unicode="&#254;" /><glyph d="M218 -11Q166 -11 130 2.5Q94 16 71.5 40Q49 64 38.5 96.5Q28 129 28 166V217H176V162Q176 121 212 121Q219 121 226 124Q233 127 238.5 136Q244 145 247 161Q250 177 250 203Q250 230 245 245.5Q240 261 231.5 269.5Q223 278 212 280.5Q201 283 190 283H138V429H193Q206 429 216 431.5Q226 434 232.5 442Q239 450 242.5 466.5Q246 483 246 511Q246 555 236 570.5Q226 586 210 586Q190 586 183.5 572Q177 558 177 539V492H30V537Q30 621 79 672.5Q128 724 223 724Q260 724 292.5 714Q325 704 349.5 681Q374 658 388 621.5Q402 585 402 533Q402 472 381.5 426Q361 380 312 363V358Q412 324 412 202Q412 143 395 102.5Q378 62 350.5 37Q323 12 288 0.5Q253 -11 218 -11Z" glyph-name="three" horiz-adv-x="440" unicode="3" /><glyph d="M223 -11Q171 -11 135 2.5Q99 16 76.5 40Q54 64 43.5 96.5Q33 129 33 166V217H181V162Q181 121 217 121Q224 121 231 124Q238 127 243.5 136Q249 145 252 161Q255 177 255 203Q255 230 250 245.5Q245 261 236.5 269.5Q228 278 217 280.5Q206 283 195 283H143V429H198Q211 429 221 431.5Q231 434 237.5 442Q244 450 247.5 466.5Q251 483 251 511Q251 555 241 570.5Q231 586 215 586Q195 586 188.5 572Q182 558 182 539V492H35V537Q35 621 84 672.5Q133 724 228 724Q265 724 297.5 714Q330 704 354.5 681Q379 658 393 621.5Q407 585 407 533Q407 472 386.5 426Q366 380 317 363V358Q417 324 417 202Q417 143 400 102.5Q383 62 355.5 37Q328 12 293 0.5Q258 -11 223 -11Z" glyph-name="three.LT" horiz-adv-x="450" unicode="&#58691;" /><glyph d="M150 -12Q84 -12 52 18Q20 48 20 100V127H125V98Q125 86 131 81.5Q137 77 147 77Q158 77 163 85Q168 93 168 114Q168 139 158.5 146Q149 153 140 153H106V235H136Q150 235 158.5 242.5Q167 250 167 274Q167 309 145 309Q133 309 129 300.5Q125 292 125 283V263H22V286Q22 338 54 369.5Q86 401 149 401Q204 401 239 373.5Q274 346 274 289Q274 258 261 233Q248 208 221 197V195Q251 186 266.5 162Q282 138 282 107Q282 73 271 50Q260 27 242 13.5Q224 0 200 -6Q176 -12 150 -12Z" glyph-name="three.dnom" horiz-adv-x="302" unicode="&#58373;" /><glyph d="M150 306Q84 306 52 336Q20 366 20 418V445H125V416Q125 404 131 399.5Q137 395 147 395Q158 395 163 403Q168 411 168 432Q168 457 158.5 464Q149 471 140 471H106V553H136Q150 553 158.5 560.5Q167 568 167 592Q167 627 145 627Q133 627 129 618.5Q125 610 125 601V581H22V604Q22 656 54 687.5Q86 719 149 719Q204 719 239 691.5Q274 664 274 607Q274 576 261 551Q248 526 221 515V513Q251 504 266.5 480Q282 456 282 425Q282 391 271 368Q260 345 242 331.5Q224 318 200 312Q176 306 150 306Z" glyph-name="three.numr" horiz-adv-x="302" unicode="&#58393;" /><glyph d="M479 716H552L233 -1H159ZM155 304Q89 304 57 334Q25 364 25 416V443H130V414Q130 402 136 397.5Q142 393 152 393Q163 393 168 401Q173 409 173 430Q173 455 163.5 462Q154 469 145 469H111V551H141Q155 551 163.5 558.5Q172 566 172 590Q172 625 150 625Q138 625 134 616.5Q130 608 130 599V579H27V602Q27 654 59 685.5Q91 717 154 717Q209 717 244 689.5Q279 662 279 605Q279 574 266 549Q253 524 226 513V511Q256 502 271.5 478Q287 454 287 423Q287 389 276 366Q265 343 247 329.5Q229 316 205 310Q181 304 155 304ZM523 77H380V156L496 398H609L485 164H523V206L628 281V164H658V77H628V0H523Z" glyph-name="threequarters" horiz-adv-x="686" unicode="&#190;" /><glyph d="M150 368Q84 368 52 398Q20 428 20 480V507H125V478Q125 466 131 461.5Q137 457 147 457Q158 457 163 465Q168 473 168 494Q168 519 158.5 526Q149 533 140 533H106V615H136Q150 615 158.5 622.5Q167 630 167 654Q167 689 145 689Q133 689 129 680.5Q125 672 125 663V643H22V666Q22 718 54 749.5Q86 781 149 781Q204 781 239 753.5Q274 726 274 669Q274 638 261 613Q248 588 221 577V575Q251 566 266.5 542Q282 518 282 487Q282 453 271 430Q260 407 242 393.5Q224 380 200 374Q176 368 150 368Z" glyph-name="threesuperior" horiz-adv-x="302" unicode="&#179;" /><glyph d="M21 608Q25 635 34 658.5Q43 682 56 700Q69 718 86.5 728.5Q104 739 126 739Q143 739 159.5 734.5Q176 730 192 724Q208 718 223.5 713.5Q239 709 255 709Q270 709 278 718.5Q286 728 294 748L364 729Q360 704 352 680.5Q344 657 331 638.5Q318 620 300 609Q282 598 258 598Q243 598 226.5 602.5Q210 607 193.5 612.5Q177 618 161.5 622.5Q146 627 134 627Q120 627 112 620Q104 613 97 589Z" glyph-name="tilde" horiz-adv-x="380" unicode="&#732;" /><glyph d="M87 646H26V717H231V646H170V416H87ZM253 717H359L385 595L410 717H513V416H438V587L412 473H354L327 587V416H253Z" glyph-name="trademark" horiz-adv-x="552" unicode="&#8482;" /><glyph d="M39 519V527H393V519L224 190H217Z" glyph-name="triagdn" horiz-adv-x="432" unicode="&#9660;" /><glyph d="M47 350V357L376 535H384V181H376Z" glyph-name="triaglf" horiz-adv-x="432" unicode="&#9668;" /><glyph d="M47 535H55L384 357V350L55 181H47Z" glyph-name="triagrt" horiz-adv-x="432" unicode="&#9658;" /><glyph d="M39 198 208 527H215L393 198V190H39Z" glyph-name="triagup" horiz-adv-x="432" unicode="&#9650;" /><glyph d="M36 103 176 335Q206 385 224.5 433.5Q243 482 243 519V543Q243 559 235.5 573.5Q228 588 209 588Q188 588 181.5 573.5Q175 559 175 538V494H32V545Q32 626 79.5 675.5Q127 725 218 725Q265 725 299 711Q333 697 355.5 672Q378 647 388.5 613Q399 579 399 539Q399 499 388 458.5Q377 418 360 378.5Q343 339 321.5 302Q300 265 279 233L223 144V141H398V0H36Z" glyph-name="two" horiz-adv-x="428" unicode="2" /><glyph d="M46 103 186 335Q216 385 234.5 433.5Q253 482 253 519V543Q253 559 245.5 573.5Q238 588 219 588Q198 588 191.5 573.5Q185 559 185 538V494H42V545Q42 626 89.5 675.5Q137 725 228 725Q275 725 309 711Q343 697 365.5 672Q388 647 398.5 613Q409 579 409 539Q409 499 398 458.5Q387 418 370 378.5Q353 339 331.5 302Q310 265 289 233L233 144V141H408V0H46Z" glyph-name="two.LT" horiz-adv-x="450" unicode="&#58690;" /><glyph d="M31 70 128 193Q145 216 157.5 238.5Q170 261 170 280V284Q170 294 165.5 301.5Q161 309 150 309Q138 309 133 301Q128 293 128 280V257H23V286Q23 341 57.5 371Q92 401 151 401Q214 401 247 369.5Q280 338 280 284Q280 262 273 241.5Q266 221 254.5 201.5Q243 182 229 164Q215 146 202 130L172 91H279V0H31Z" glyph-name="two.dnom" horiz-adv-x="300" unicode="&#58372;" /><glyph d="M31 388 128 511Q145 534 157.5 556.5Q170 579 170 598V602Q170 612 165.5 619.5Q161 627 150 627Q138 627 133 619Q128 611 128 598V575H23V604Q23 659 57.5 689Q92 719 151 719Q214 719 247 687.5Q280 656 280 602Q280 580 273 559.5Q266 539 254.5 519.5Q243 500 229 482Q215 464 202 448L172 409H279V318H31Z" glyph-name="two.numr" horiz-adv-x="300" unicode="&#58392;" /><glyph d="M31 450 128 573Q145 596 157.5 618.5Q170 641 170 660V664Q170 674 165.5 681.5Q161 689 150 689Q138 689 133 681Q128 673 128 660V637H23V666Q23 721 57.5 751Q92 781 151 781Q214 781 247 749.5Q280 718 280 664Q280 642 273 621.5Q266 601 254.5 581.5Q243 562 229 544Q215 526 202 510L172 471H279V380H31Z" glyph-name="twosuperior" horiz-adv-x="300" unicode="&#178;" /><glyph d="M147 -12Q123 -12 102.5 -4Q82 4 66 19.5Q50 35 41 57Q32 79 32 107V541H189V164Q189 150 195.5 135Q202 120 225 120Q241 120 250.5 133Q260 146 260 168V541H417V0H261V49H260Q240 20 211.5 4Q183 -12 147 -12Z" glyph-name="u" horiz-adv-x="450" unicode="u" /><glyph d="M147 -12Q123 -12 102.5 -4Q82 4 66 19.5Q50 35 41 57Q32 79 32 107V541H189V164Q189 150 195.5 135Q202 120 225 120Q241 120 250.5 133Q260 146 260 168V541H417V0H261V49H260Q240 20 211.5 4Q183 -12 147 -12ZM233 743H387L279 590H167Z" glyph-name="uacute" horiz-adv-x="450" unicode="&#250;" /><glyph d="M228 588Q157 588 115.5 628Q74 668 72 751H174Q179 714 189.5 696.5Q200 679 230 679Q255 679 265.5 696.5Q276 714 278 751H377Q377 708 365 677Q353 646 332.5 626.5Q312 607 285 597.5Q258 588 228 588ZM147 -12Q123 -12 102.5 -4Q82 4 66 19.5Q50 35 41 57Q32 79 32 107V541H189V164Q189 150 195.5 135Q202 120 225 120Q241 120 250.5 133Q260 146 260 168V541H417V0H261V49H260Q240 20 211.5 4Q183 -12 147 -12Z" glyph-name="ubreve" horiz-adv-x="450" unicode="&#365;" /><glyph d="M147 -12Q123 -12 102.5 -4Q82 4 66 19.5Q50 35 41 57Q32 79 32 107V541H189V164Q189 150 195.5 135Q202 120 225 120Q241 120 250.5 133Q260 146 260 168V541H417V0H261V49H260Q240 20 211.5 4Q183 -12 147 -12ZM169 748H282L381 590H261L223 659L185 590H70Z" glyph-name="ucircumflex" horiz-adv-x="450" unicode="&#251;" /><glyph d="M147 -12Q123 -12 102.5 -4Q82 4 66 19.5Q50 35 41 57Q32 79 32 107V541H189V164Q189 150 195.5 135Q202 120 225 120Q241 120 250.5 133Q260 146 260 168V541H417V0H261V49H260Q240 20 211.5 4Q183 -12 147 -12ZM249 741H369V588H249ZM81 741H201V588H81Z" glyph-name="udieresis" horiz-adv-x="450" unicode="&#252;" /><glyph d="M59 743H213L279 590H167ZM147 -12Q123 -12 102.5 -4Q82 4 66 19.5Q50 35 41 57Q32 79 32 107V541H189V164Q189 150 195.5 135Q202 120 225 120Q241 120 250.5 133Q260 146 260 168V541H417V0H261V49H260Q240 20 211.5 4Q183 -12 147 -12Z" glyph-name="ugrave" horiz-adv-x="450" unicode="&#249;" /><glyph d="M319 741H445L367 589H262ZM147 741H273L201 589H94ZM147 -12Q123 -12 102.5 -4Q82 4 66 19.5Q50 35 41 57Q32 79 32 107V541H189V164Q189 150 195.5 135Q202 120 225 120Q241 120 250.5 133Q260 146 260 168V541H417V0H261V49H260Q240 20 211.5 4Q183 -12 147 -12Z" glyph-name="uhungarumlaut" horiz-adv-x="450" unicode="&#369;" /><glyph d="M98 706H352V598H98ZM147 -12Q123 -12 102.5 -4Q82 4 66 19.5Q50 35 41 57Q32 79 32 107V541H189V164Q189 150 195.5 135Q202 120 225 120Q241 120 250.5 133Q260 146 260 168V541H417V0H261V49H260Q240 20 211.5 4Q183 -12 147 -12Z" glyph-name="umacron" horiz-adv-x="450" unicode="&#363;" /><glyph d="M0 -50H405V-152H0Z" glyph-name="underscore" horiz-adv-x="405" unicode="_" /><glyph glyph-name="uni00A0" horiz-adv-x="150" unicode="&#160;" /><glyph d="M173 -33H308L268 -193H161ZM150 569H16V713H455V569H322V0H150Z" glyph-name="uni021A" horiz-adv-x="471" unicode="&#538;" /><glyph d="M108 -33H243L203 -193H96ZM202 -8Q145 -8 106 21Q67 50 67 112V413H22V535H67V657H225V535H296V413H225V159Q225 145 231.5 137Q238 129 255 129Q280 129 297 132V6Q276 -1 250.5 -4.5Q225 -8 202 -8Z" glyph-name="uni021B" horiz-adv-x="318" unicode="&#539;" /><glyph d="M150 456Q161 456 166 462Q171 468 171 476V676Q171 684 166 689Q161 694 150 694Q140 694 134.5 689Q129 684 129 676V475Q129 467 134 461.5Q139 456 150 456ZM151 369Q125 369 101.5 375Q78 381 60 394Q42 407 31.5 427.5Q21 448 21 477V674Q21 702 32 722.5Q43 743 61 756Q79 769 102 775.5Q125 782 150 782Q174 782 197.5 776Q221 770 239 757Q257 744 268.5 723Q280 702 280 673V477Q280 450 269 429.5Q258 409 240 395.5Q222 382 199 375.5Q176 369 151 369Z" glyph-name="uni2070" horiz-adv-x="300" unicode="&#8304;" /><glyph d="M154 457H11V536L127 778H240L116 544H154V586L259 661V544H289V457H259V380H154Z" glyph-name="uni2074" horiz-adv-x="300" unicode="&#8308;" /><glyph d="M147 369Q91 369 55.5 393Q20 417 20 466V507H127V476Q127 456 148 456Q169 456 169 478V536Q169 558 147 558Q132 558 125 543L24 552L32 776H259V680H125Q125 677 124.5 667.5Q124 658 124 647.5Q124 637 123.5 627Q123 617 123 613Q149 631 185 631Q202 631 219 626.5Q236 622 249.5 611.5Q263 601 271.5 584.5Q280 568 280 543V475Q280 448 268.5 428Q257 408 238 395Q219 382 195.5 375.5Q172 369 147 369Z" glyph-name="uni2075" horiz-adv-x="300" unicode="&#8309;" /><glyph d="M152 455Q163 455 167 460Q171 465 171 473V538Q171 549 165 553Q159 557 151 557Q143 557 137 552Q131 547 131 534V473Q131 455 152 455ZM150 369Q123 369 99 375.5Q75 382 57 395.5Q39 409 28.5 429Q18 449 18 475V670Q18 699 29 720Q40 741 58.5 755Q77 769 101.5 775.5Q126 782 153 782Q209 782 243 754.5Q277 727 277 679V651H172V674Q172 685 166 689.5Q160 694 151 694Q131 694 131 675V602Q143 612 159.5 618Q176 624 195 624Q238 624 260 600.5Q282 577 282 541V475Q282 450 271.5 430Q261 410 243 396.5Q225 383 201 376Q177 369 150 369Z" glyph-name="uni2076" horiz-adv-x="300" unicode="&#8310;" /><glyph d="M61 380Q61 421 70 462.5Q79 504 93 543Q107 582 125 617Q143 652 163 681H19V776H282V697Q240 640 209.5 560Q179 480 179 380Z" glyph-name="uni2077" horiz-adv-x="300" unicode="&#8311;" /><glyph d="M151 616Q172 616 172 637V678Q172 689 165 694Q158 699 150 699Q142 699 135 694.5Q128 690 128 682V636Q128 616 151 616ZM151 451Q172 451 172 471V515Q172 527 165 532Q158 537 150 537Q142 537 135 532.5Q128 528 128 519V470Q128 460 134.5 455.5Q141 451 151 451ZM151 368Q123 368 99 373.5Q75 379 57.5 391.5Q40 404 30 424Q20 444 20 472V508Q20 532 29 549Q38 566 54 577Q40 587 32.5 604Q25 621 25 638V677Q25 728 60.5 755.5Q96 783 150 783Q176 783 199 776.5Q222 770 239 757Q256 744 266 724Q276 704 276 678V641Q276 600 247 577Q261 566 271 549Q281 532 281 512V470Q281 421 243.5 394.5Q206 368 151 368Z" glyph-name="uni2078" horiz-adv-x="301" unicode="&#8312;" /><glyph d="M149 594Q157 594 163 599Q169 604 169 617V678Q169 696 148 696Q137 696 133 691Q129 686 129 678V613Q129 602 135 598Q141 594 149 594ZM147 369Q91 369 57 396.5Q23 424 23 472V497H128V477Q128 466 134 461.5Q140 457 149 457Q169 457 169 476V545Q157 535 140.5 529Q124 523 105 523Q62 523 40 546.5Q18 570 18 606V676Q18 701 28.5 721Q39 741 57 754.5Q75 768 99 775Q123 782 150 782Q177 782 201 775.5Q225 769 243 755.5Q261 742 271.5 722Q282 702 282 676V481Q282 452 271 431Q260 410 241.5 396Q223 382 198.5 375.5Q174 369 147 369Z" glyph-name="uni2079" horiz-adv-x="300" unicode="&#8313;" /><glyph d="M120 310Q102 332 87 361Q72 390 61 423Q50 456 44 492Q38 528 38 564Q38 633 60 698.5Q82 764 120 810L171 809Q158 775 149 746Q140 717 134.5 688.5Q129 660 126.5 630Q124 600 124 564Q124 499 136 435Q148 371 171 311Z" glyph-name="uni207D" horiz-adv-x="183" unicode="&#8317;" /><glyph d="M28 311Q51 371 63.5 435Q76 499 76 564Q76 600 73.5 630Q71 660 65 688.5Q59 717 50 746Q41 775 28 809L80 810Q118 764 140 698.5Q162 633 162 564Q162 491 138.5 423Q115 355 80 310Z" glyph-name="uni207E" horiz-adv-x="183" unicode="&#8318;" /><glyph d="M150 -57Q161 -57 166 -51Q171 -45 171 -37V163Q171 171 166 176Q161 181 150 181Q140 181 134.5 176Q129 171 129 163V-38Q129 -46 134 -51.5Q139 -57 150 -57ZM151 -144Q125 -144 101.5 -138Q78 -132 60 -119Q42 -106 31.5 -85.5Q21 -65 21 -36V161Q21 189 32 209.5Q43 230 61 243Q79 256 102 262.5Q125 269 150 269Q174 269 197.5 263Q221 257 239 244Q257 231 268.5 210Q280 189 280 160V-36Q280 -63 269 -83.5Q258 -104 240 -117.5Q222 -131 199 -137.5Q176 -144 151 -144Z" glyph-name="uni2080" horiz-adv-x="300" unicode="&#8320;" /><glyph d="M66 165 30 158 17 237 111 267H172V-133H66Z" glyph-name="uni2081" horiz-adv-x="223" unicode="&#8321;" /><glyph d="M31 -63 128 60Q145 83 157.5 105.5Q170 128 170 147V151Q170 161 165.5 168.5Q161 176 150 176Q138 176 133 168Q128 160 128 147V124H23V153Q23 208 57.5 238Q92 268 151 268Q214 268 247 236.5Q280 205 280 151Q280 129 273 108.5Q266 88 254.5 68.5Q243 49 229 31Q215 13 202 -3L172 -42H279V-133H31Z" glyph-name="uni2082" horiz-adv-x="300" unicode="&#8322;" /><glyph d="M150 -145Q84 -145 52 -115Q20 -85 20 -33V-6H125V-35Q125 -47 131 -51.5Q137 -56 147 -56Q158 -56 163 -48Q168 -40 168 -19Q168 6 158.5 13Q149 20 140 20H106V102H136Q150 102 158.5 109.5Q167 117 167 141Q167 176 145 176Q133 176 129 167.5Q125 159 125 150V130H22V153Q22 205 54 236.5Q86 268 149 268Q204 268 239 240.5Q274 213 274 156Q274 125 261 100Q248 75 221 64V62Q251 53 266.5 29Q282 5 282 -26Q282 -60 271 -83Q260 -106 242 -119.5Q224 -133 200 -139Q176 -145 150 -145Z" glyph-name="uni2083" horiz-adv-x="302" unicode="&#8323;" /><glyph d="M154 -56H11V23L127 265H240L116 31H154V73L259 148V31H289V-56H259V-133H154Z" glyph-name="uni2084" horiz-adv-x="300" unicode="&#8324;" /><glyph d="M147 -144Q91 -144 55.5 -120Q20 -96 20 -47V-6H127V-37Q127 -57 148 -57Q169 -57 169 -35V23Q169 45 147 45Q132 45 125 30L24 39L32 263H259V167H125Q125 164 124.5 154.5Q124 145 124 134.5Q124 124 123.5 114Q123 104 123 100Q149 118 185 118Q202 118 219 113.5Q236 109 249.5 98.5Q263 88 271.5 71.5Q280 55 280 30V-38Q280 -65 268.5 -85Q257 -105 238 -118Q219 -131 195.5 -137.5Q172 -144 147 -144Z" glyph-name="uni2085" horiz-adv-x="300" unicode="&#8325;" /><glyph d="M152 -58Q163 -58 167 -53Q171 -48 171 -40V25Q171 36 165 40Q159 44 151 44Q143 44 137 39Q131 34 131 21V-40Q131 -58 152 -58ZM150 -144Q123 -144 99 -137.5Q75 -131 57 -117.5Q39 -104 28.5 -84Q18 -64 18 -38V157Q18 186 29 207Q40 228 58.5 242Q77 256 101.5 262.5Q126 269 153 269Q209 269 243 241.5Q277 214 277 166V138H172V161Q172 172 166 176.5Q160 181 151 181Q131 181 131 162V89Q143 99 159.5 105Q176 111 195 111Q238 111 260 87.5Q282 64 282 28V-38Q282 -63 271.5 -83Q261 -103 243 -116.5Q225 -130 201 -137Q177 -144 150 -144Z" glyph-name="uni2086" horiz-adv-x="300" unicode="&#8326;" /><glyph d="M61 -133Q61 -92 70 -50.5Q79 -9 93 30Q107 69 125 104Q143 139 163 168H19V263H282V184Q240 127 209.5 47Q179 -33 179 -133Z" glyph-name="uni2087" horiz-adv-x="300" unicode="&#8327;" /><glyph d="M151 103Q172 103 172 124V165Q172 176 165 181Q158 186 150 186Q142 186 135 181.5Q128 177 128 169V123Q128 103 151 103ZM151 -62Q172 -62 172 -42V2Q172 14 165 19Q158 24 150 24Q142 24 135 19.5Q128 15 128 6V-43Q128 -53 134.5 -57.5Q141 -62 151 -62ZM151 -145Q123 -145 99 -139.5Q75 -134 57.5 -121.5Q40 -109 30 -89Q20 -69 20 -41V-5Q20 19 29 36Q38 53 54 64Q40 74 32.5 91Q25 108 25 125V164Q25 215 60.5 242.5Q96 270 150 270Q176 270 199 263.5Q222 257 239 244Q256 231 266 211Q276 191 276 165V128Q276 87 247 64Q261 53 271 36Q281 19 281 -1V-43Q281 -92 243.5 -118.5Q206 -145 151 -145Z" glyph-name="uni2088" horiz-adv-x="301" unicode="&#8328;" /><glyph d="M149 81Q157 81 163 86Q169 91 169 104V165Q169 183 148 183Q137 183 133 178Q129 173 129 165V100Q129 89 135 85Q141 81 149 81ZM147 -144Q91 -144 57 -116.5Q23 -89 23 -41V-16H128V-36Q128 -47 134 -51.5Q140 -56 149 -56Q169 -56 169 -37V32Q157 22 140.5 16Q124 10 105 10Q62 10 40 33.5Q18 57 18 93V163Q18 188 28.5 208Q39 228 57 241.5Q75 255 99 262Q123 269 150 269Q177 269 201 262.5Q225 256 243 242.5Q261 229 271.5 209Q282 189 282 163V-32Q282 -61 271 -82Q260 -103 241.5 -117Q223 -131 198.5 -137.5Q174 -144 147 -144Z" glyph-name="uni2089" horiz-adv-x="300" unicode="&#8329;" /><glyph d="M120 -203Q102 -181 87 -152Q72 -123 61 -90Q50 -57 44 -21Q38 15 38 51Q38 120 60 185.5Q82 251 120 297L171 296Q158 262 149 233Q140 204 134.5 175.5Q129 147 126.5 117Q124 87 124 51Q124 -14 136 -78Q148 -142 171 -202Z" glyph-name="uni208D" horiz-adv-x="183" unicode="&#8333;" /><glyph d="M28 -202Q51 -142 63.5 -78Q76 -14 76 51Q76 87 73.5 117Q71 147 65 175.5Q59 204 50 233Q41 262 28 296L80 297Q118 251 140 185.5Q162 120 162 51Q162 -22 138.5 -90Q115 -158 80 -203Z" glyph-name="uni208E" horiz-adv-x="183" unicode="&#8334;" /><glyph d="M126 583H191V94H280Q310 94 310 142V705H394V163Q394 115 386 84Q378 53 363 34Q348 15 325.5 7.5Q303 0 274 0H126ZM26 705H164Q193 705 215.5 699.5Q238 694 253 678.5Q268 663 276 634Q284 605 284 557V122H218V563Q218 612 189 612H100V0H26Z" glyph-name="uni20AA" horiz-adv-x="420" unicode="&#8362;" /><glyph d="M511 -12Q445 -12 413 18Q381 48 381 100V127H486V98Q486 86 492 81.5Q498 77 508 77Q519 77 524 85Q529 93 529 114Q529 139 519.5 146Q510 153 501 153H467V235H497Q511 235 519.5 242.5Q528 250 528 274Q528 309 506 309Q494 309 490 300.5Q486 292 486 283V263H383V286Q383 338 415 369.5Q447 401 510 401Q565 401 600 373.5Q635 346 635 289Q635 258 622 233Q609 208 582 197V195Q612 186 627.5 162Q643 138 643 107Q643 73 632 50Q621 27 603 13.5Q585 0 561 -6Q537 -12 511 -12ZM438 716H511L192 -1H118ZM98 614 62 607 49 686 143 716H204V316H98Z" glyph-name="uni2153" horiz-adv-x="686" unicode="&#8531;" /><glyph d="M527 -12Q461 -12 429 18Q397 48 397 100V127H502V98Q502 86 508 81.5Q514 77 524 77Q535 77 540 85Q545 93 545 114Q545 139 535.5 146Q526 153 517 153H483V235H513Q527 235 535.5 242.5Q544 250 544 274Q544 309 522 309Q510 309 506 300.5Q502 292 502 283V263H399V286Q399 338 431 369.5Q463 401 526 401Q581 401 616 373.5Q651 346 651 289Q651 258 638 233Q625 208 598 197V195Q628 186 643.5 162Q659 138 659 107Q659 73 648 50Q637 27 619 13.5Q601 0 577 -6Q553 -12 527 -12ZM466 716H539L220 -1H146ZM15 386 112 509Q129 532 141.5 554.5Q154 577 154 596V600Q154 610 149.5 617.5Q145 625 134 625Q122 625 117 617Q112 609 112 596V573H7V602Q7 657 41.5 687Q76 717 135 717Q198 717 231 685.5Q264 654 264 600Q264 578 257 557.5Q250 537 238.5 517.5Q227 498 213 480Q199 462 186 446L156 407H263V316H15Z" glyph-name="uni2154" horiz-adv-x="686" unicode="&#8532;" /><glyph d="M440 716H513L194 -1H120ZM518 -11Q462 -11 426.5 13Q391 37 391 86V127H498V96Q498 76 519 76Q540 76 540 98V156Q540 178 518 178Q503 178 496 163L395 172L403 396H630V300H496Q496 297 495.5 287.5Q495 278 495 267.5Q495 257 494.5 247Q494 237 494 233Q520 251 556 251Q573 251 590 246.5Q607 242 620.5 231.5Q634 221 642.5 204.5Q651 188 651 163V95Q651 68 639.5 48Q628 28 609 15Q590 2 566.5 -4.5Q543 -11 518 -11ZM85 614 49 607 36 686 130 716H191V316H85Z" glyph-name="uni2155" horiz-adv-x="686" unicode="&#8533;" /><glyph d="M460 716H533L214 -1H140ZM528 -11Q472 -11 436.5 13Q401 37 401 86V127H508V96Q508 76 529 76Q550 76 550 98V156Q550 178 528 178Q513 178 506 163L405 172L413 396H640V300H506Q506 297 505.5 287.5Q505 278 505 267.5Q505 257 504.5 247Q504 237 504 233Q530 251 566 251Q583 251 600 246.5Q617 242 630.5 231.5Q644 221 652.5 204.5Q661 188 661 163V95Q661 68 649.5 48Q638 28 619 15Q600 2 576.5 -4.5Q553 -11 528 -11ZM15 386 112 509Q129 532 141.5 554.5Q154 577 154 596V600Q154 610 149.5 617.5Q145 625 134 625Q122 625 117 617Q112 609 112 596V573H7V602Q7 657 41.5 687Q76 717 135 717Q198 717 231 685.5Q264 654 264 600Q264 578 257 557.5Q250 537 238.5 517.5Q227 498 213 480Q199 462 186 446L156 407H263V316H15Z" glyph-name="uni2156" horiz-adv-x="686" unicode="&#8534;" /><glyph d="M528 -11Q472 -11 436.5 13Q401 37 401 86V127H508V96Q508 76 529 76Q550 76 550 98V156Q550 178 528 178Q513 178 506 163L405 172L413 396H640V300H506Q506 297 505.5 287.5Q505 278 505 267.5Q505 257 504.5 247Q504 237 504 233Q530 251 566 251Q583 251 600 246.5Q617 242 630.5 231.5Q644 221 652.5 204.5Q661 188 661 163V95Q661 68 649.5 48Q638 28 619 15Q600 2 576.5 -4.5Q553 -11 528 -11ZM458 716H531L212 -1H138ZM137 304Q71 304 39 334Q7 364 7 416V443H112V414Q112 402 118 397.5Q124 393 134 393Q145 393 150 401Q155 409 155 430Q155 455 145.5 462Q136 469 127 469H93V551H123Q137 551 145.5 558.5Q154 566 154 590Q154 625 132 625Q120 625 116 616.5Q112 608 112 599V579H9V602Q9 654 41 685.5Q73 717 136 717Q191 717 226 689.5Q261 662 261 605Q261 574 248 549Q235 524 208 513V511Q238 502 253.5 478Q269 454 269 423Q269 389 258 366Q247 343 229 329.5Q211 316 187 310Q163 304 137 304Z" glyph-name="uni2157" horiz-adv-x="686" unicode="&#8535;" /><glyph d="M459 716H532L213 -1H139ZM528 -11Q472 -11 436.5 13Q401 37 401 86V127H508V96Q508 76 529 76Q550 76 550 98V156Q550 178 528 178Q513 178 506 163L405 172L413 396H640V300H506Q506 297 505.5 287.5Q505 278 505 267.5Q505 257 504.5 247Q504 237 504 233Q530 251 566 251Q583 251 600 246.5Q617 242 630.5 231.5Q644 221 652.5 204.5Q661 188 661 163V95Q661 68 649.5 48Q638 28 619 15Q600 2 576.5 -4.5Q553 -11 528 -11ZM138 393H-5V472L111 714H224L100 480H138V522L243 597V480H273V393H243V316H138Z" glyph-name="uni2158" horiz-adv-x="686" unicode="&#8536;" /><glyph d="M441 716H514L195 -1H121ZM516 75Q527 75 531 80Q535 85 535 93V158Q535 169 529 173Q523 177 515 177Q507 177 501 172Q495 167 495 154V93Q495 75 516 75ZM514 -11Q487 -11 463 -4.5Q439 2 421 15.5Q403 29 392.5 49Q382 69 382 95V290Q382 319 393 340Q404 361 422.5 375Q441 389 465.5 395.5Q490 402 517 402Q573 402 607 374.5Q641 347 641 299V271H536V294Q536 305 530 309.5Q524 314 515 314Q495 314 495 295V222Q507 232 523.5 238Q540 244 559 244Q602 244 624 220.5Q646 197 646 161V95Q646 70 635.5 50Q625 30 607 16.5Q589 3 565 -4Q541 -11 514 -11ZM98 614 62 607 49 686 143 716H204V316H98Z" glyph-name="uni2159" horiz-adv-x="686" unicode="&#8537;" /><glyph d="M452 716H525L206 -1H132ZM139 305Q83 305 47.5 329Q12 353 12 402V443H119V412Q119 392 140 392Q161 392 161 414V472Q161 494 139 494Q124 494 117 479L16 488L24 712H251V616H117Q117 613 116.5 603.5Q116 594 116 583.5Q116 573 115.5 563Q115 553 115 549Q141 567 177 567Q194 567 211 562.5Q228 558 241.5 547.5Q255 537 263.5 520.5Q272 504 272 479V411Q272 384 260.5 364Q249 344 230 331Q211 318 187.5 311.5Q164 305 139 305ZM517 75Q528 75 532 80Q536 85 536 93V158Q536 169 530 173Q524 177 516 177Q508 177 502 172Q496 167 496 154V93Q496 75 517 75ZM515 -11Q488 -11 464 -4.5Q440 2 422 15.5Q404 29 393.5 49Q383 69 383 95V290Q383 319 394 340Q405 361 423.5 375Q442 389 466.5 395.5Q491 402 518 402Q574 402 608 374.5Q642 347 642 299V271H537V294Q537 305 531 309.5Q525 314 516 314Q496 314 496 295V222Q508 232 524.5 238Q541 244 560 244Q603 244 625 220.5Q647 197 647 161V95Q647 70 636.5 50Q626 30 608 16.5Q590 3 566 -4Q542 -11 515 -11Z" glyph-name="uni215A" horiz-adv-x="686" unicode="&#8538;" /><glyph d="M444 716H517L198 -1H124ZM515 236Q536 236 536 257V298Q536 309 529 314Q522 319 514 319Q506 319 499 314.5Q492 310 492 302V256Q492 236 515 236ZM515 71Q536 71 536 91V135Q536 147 529 152Q522 157 514 157Q506 157 499 152.5Q492 148 492 139V90Q492 80 498.5 75.5Q505 71 515 71ZM515 -12Q487 -12 463 -6.5Q439 -1 421.5 11.5Q404 24 394 44Q384 64 384 92V128Q384 152 393 169Q402 186 418 197Q404 207 396.5 224Q389 241 389 258V297Q389 348 424.5 375.5Q460 403 514 403Q540 403 563 396.5Q586 390 603 377Q620 364 630 344Q640 324 640 298V261Q640 220 611 197Q625 186 635 169Q645 152 645 132V90Q645 41 607.5 14.5Q570 -12 515 -12ZM98 614 62 607 49 686 143 716H204V316H98Z" glyph-name="uni215B" horiz-adv-x="686" unicode="&#8539;" /><glyph d="M457 716H530L211 -1H137ZM142 304Q76 304 44 334Q12 364 12 416V443H117V414Q117 402 123 397.5Q129 393 139 393Q150 393 155 401Q160 409 160 430Q160 455 150.5 462Q141 469 132 469H98V551H128Q142 551 150.5 558.5Q159 566 159 590Q159 625 137 625Q125 625 121 616.5Q117 608 117 599V579H14V602Q14 654 46 685.5Q78 717 141 717Q196 717 231 689.5Q266 662 266 605Q266 574 253 549Q240 524 213 513V511Q243 502 258.5 478Q274 454 274 423Q274 389 263 366Q252 343 234 329.5Q216 316 192 310Q168 304 142 304ZM518 236Q539 236 539 257V298Q539 309 532 314Q525 319 517 319Q509 319 502 314.5Q495 310 495 302V256Q495 236 518 236ZM518 71Q539 71 539 91V135Q539 147 532 152Q525 157 517 157Q509 157 502 152.5Q495 148 495 139V90Q495 80 501.5 75.5Q508 71 518 71ZM518 -12Q490 -12 466 -6.5Q442 -1 424.5 11.5Q407 24 397 44Q387 64 387 92V128Q387 152 396 169Q405 186 421 197Q407 207 399.5 224Q392 241 392 258V297Q392 348 427.5 375.5Q463 403 517 403Q543 403 566 396.5Q589 390 606 377Q623 364 633 344Q643 324 643 298V261Q643 220 614 197Q628 186 638 169Q648 152 648 132V90Q648 41 610.5 14.5Q573 -12 518 -12Z" glyph-name="uni215C" horiz-adv-x="686" unicode="&#8540;" /><glyph d="M452 716H525L206 -1H132ZM140 305Q84 305 48.5 329Q13 353 13 402V443H120V412Q120 392 141 392Q162 392 162 414V472Q162 494 140 494Q125 494 118 479L17 488L25 712H252V616H118Q118 613 117.5 603.5Q117 594 117 583.5Q117 573 116.5 563Q116 553 116 549Q142 567 178 567Q195 567 212 562.5Q229 558 242.5 547.5Q256 537 264.5 520.5Q273 504 273 479V411Q273 384 261.5 364Q250 344 231 331Q212 318 188.5 311.5Q165 305 140 305ZM515 236Q536 236 536 257V298Q536 309 529 314Q522 319 514 319Q506 319 499 314.5Q492 310 492 302V256Q492 236 515 236ZM515 71Q536 71 536 91V135Q536 147 529 152Q522 157 514 157Q506 157 499 152.5Q492 148 492 139V90Q492 80 498.5 75.5Q505 71 515 71ZM515 -12Q487 -12 463 -6.5Q439 -1 421.5 11.5Q404 24 394 44Q384 64 384 92V128Q384 152 393 169Q402 186 418 197Q404 207 396.5 224Q389 241 389 258V297Q389 348 424.5 375.5Q460 403 514 403Q540 403 563 396.5Q586 390 603 377Q620 364 630 344Q640 324 640 298V261Q640 220 611 197Q625 186 635 169Q645 152 645 132V90Q645 41 607.5 14.5Q570 -12 515 -12Z" glyph-name="uni215D" horiz-adv-x="686" unicode="&#8541;" /><glyph d="M437 716H510L191 -1H117ZM65 316Q65 357 74 398.5Q83 440 97 479Q111 518 129 553Q147 588 167 617H23V712H286V633Q244 576 213.5 496Q183 416 183 316ZM515 236Q536 236 536 257V298Q536 309 529 314Q522 319 514 319Q506 319 499 314.5Q492 310 492 302V256Q492 236 515 236ZM515 71Q536 71 536 91V135Q536 147 529 152Q522 157 514 157Q506 157 499 152.5Q492 148 492 139V90Q492 80 498.5 75.5Q505 71 515 71ZM515 -12Q487 -12 463 -6.5Q439 -1 421.5 11.5Q404 24 394 44Q384 64 384 92V128Q384 152 393 169Q402 186 418 197Q404 207 396.5 224Q389 241 389 258V297Q389 348 424.5 375.5Q460 403 514 403Q540 403 563 396.5Q586 390 603 377Q620 364 630 344Q640 324 640 298V261Q640 220 611 197Q625 186 635 169Q645 152 645 132V90Q645 41 607.5 14.5Q570 -12 515 -12Z" glyph-name="uni215E" horiz-adv-x="686" unicode="&#8542;" /><glyph d="M166 334 171 221H75L83 482L91 488L352 498L354 408L239 407L400 245L327 173Z" glyph-name="uni2196" horiz-adv-x="454" unicode="&#8598;" /><glyph d="M75 245 237 407 121 408 124 498 385 488 392 482 400 221H305L310 334L148 173Z" glyph-name="uni2197" horiz-adv-x="454" unicode="&#8599;" /><glyph d="M121 262 237 264 75 425 148 498 310 337 305 450 400 449 392 189 385 182 124 173Z" glyph-name="uni2198" horiz-adv-x="454" unicode="&#8600;" /><glyph d="M91 182 83 189 75 449 171 450 166 337 327 498 400 425 239 264 354 262 352 173Z" glyph-name="uni2199" horiz-adv-x="454" unicode="&#8601;" /><glyph d="M39 281 35 286 285 538 291 532 397 174 392 168Z" glyph-name="uni25E2" horiz-adv-x="432" unicode="&#9698;" /><glyph d="M35 174 141 532 147 538 397 286 393 281 40 168Z" glyph-name="uni25E3" horiz-adv-x="432" unicode="&#9699;" /><glyph d="M141 174 35 532 40 538 393 425 397 420 147 168Z" glyph-name="uni25E4" horiz-adv-x="432" unicode="&#9700;" /><glyph d="M35 420 39 425 392 538 397 532 291 174 285 168Z" glyph-name="uni25E5" horiz-adv-x="432" unicode="&#9701;" /><glyph d="M325 -205Q304 -205 283.5 -199Q263 -193 247.5 -180Q232 -167 222 -147Q212 -127 212 -100Q212 -69 226 -43.5Q240 -18 261 0V49H260Q240 20 211.5 4Q183 -12 147 -12Q123 -12 102.5 -4Q82 4 66 19.5Q50 35 41 57Q32 79 32 107V541H189V164Q189 150 195.5 135Q202 120 225 120Q241 120 250.5 133Q260 146 260 168V541H417V0H374Q341 -12 323.5 -33Q306 -54 306 -77Q306 -100 319.5 -107.5Q333 -115 351 -115Q359 -115 373.5 -111Q388 -107 402 -99L439 -174Q414 -191 385.5 -198Q357 -205 325 -205Z" glyph-name="uogonek" horiz-adv-x="450" unicode="&#371;" /><glyph d="M225 635Q245 635 256.5 648Q268 661 268 681Q268 701 256.5 714Q245 727 225 727Q206 727 194.5 714Q183 701 183 681Q183 661 195 648Q207 635 225 635ZM224 580Q181 580 151.5 607Q122 634 122 679Q122 724 151.5 752.5Q181 781 225 781Q270 781 298.5 754.5Q327 728 327 682Q327 660 319 641.5Q311 623 296.5 609.5Q282 596 263.5 588Q245 580 224 580ZM147 -12Q123 -12 102.5 -4Q82 4 66 19.5Q50 35 41 57Q32 79 32 107V541H189V164Q189 150 195.5 135Q202 120 225 120Q241 120 250.5 133Q260 146 260 168V541H417V0H261V49H260Q240 20 211.5 4Q183 -12 147 -12Z" glyph-name="uring" horiz-adv-x="450" unicode="&#367;" /><glyph d="M53 608Q57 635 66 658.5Q75 682 88 700Q101 718 118.5 728.5Q136 739 158 739Q175 739 191.5 734.5Q208 730 224 724Q240 718 255.5 713.5Q271 709 287 709Q302 709 310 718.5Q318 728 326 748L396 729Q392 704 384 680.5Q376 657 363 638.5Q350 620 332 609Q314 598 290 598Q275 598 258.5 602.5Q242 607 225.5 612.5Q209 618 193.5 622.5Q178 627 166 627Q152 627 144 620Q136 613 129 589ZM147 -12Q123 -12 102.5 -4Q82 4 66 19.5Q50 35 41 57Q32 79 32 107V541H189V164Q189 150 195.5 135Q202 120 225 120Q241 120 250.5 133Q260 146 260 168V541H417V0H261V49H260Q240 20 211.5 4Q183 -12 147 -12Z" glyph-name="utilde" horiz-adv-x="450" unicode="&#361;" /><glyph d="M0 541H168L215 237H218L271 541H414L290 -2H127Z" glyph-name="v" horiz-adv-x="414" unicode="v" /><glyph d="M12 541H176L209 292H213L250 541H392L426 292H430L467 541H612L498 -1H363L315 272H312L265 -1H124Z" glyph-name="w" horiz-adv-x="614" unicode="w" /><glyph d="M327 743H481L373 590H261ZM12 541H176L209 292H213L250 541H392L426 292H430L467 541H612L498 -1H363L315 272H312L265 -1H124Z" glyph-name="wacute" horiz-adv-x="614" unicode="&#7811;" /><glyph d="M250 748H363L462 590H342L304 659L266 590H151ZM12 541H176L209 292H213L250 541H392L426 292H430L467 541H612L498 -1H363L315 272H312L265 -1H124Z" glyph-name="wcircumflex" horiz-adv-x="614" unicode="&#373;" /><glyph d="M331 741H451V588H331ZM163 741H283V588H163ZM12 541H176L209 292H213L250 541H392L426 292H430L467 541H612L498 -1H363L315 272H312L265 -1H124Z" glyph-name="wdieresis" horiz-adv-x="614" unicode="&#7813;" /><glyph d="M197 743H351L417 590H305ZM12 541H176L209 292H213L250 541H392L426 292H430L467 541H612L498 -1H363L315 272H312L265 -1H124Z" glyph-name="wgrave" horiz-adv-x="614" unicode="&#7809;" /><glyph d="M419 85V629H129V85ZM43 713H505V0H43Z" glyph-name="whitesquare" horiz-adv-x="548" unicode="&#9633;" /><glyph d="M121 274 7 541H171L219 420L264 541H406L292 282L413 1H248L196 135L142 1H0Z" glyph-name="x" horiz-adv-x="413" unicode="x" /><glyph d="M123 -169Q97 -169 78 -166.5Q59 -164 43 -160L57 -37Q71 -40 83 -42Q95 -44 103 -44Q119 -44 127 -38Q135 -32 138 -22L144 0L0 541H165L222 244H225L272 541H415L282 -26Q262 -101 222.5 -135Q183 -169 123 -169Z" glyph-name="y" horiz-adv-x="415" unicode="y" /><glyph d="M223 743H377L269 590H157ZM123 -169Q97 -169 78 -166.5Q59 -164 43 -160L57 -37Q71 -40 83 -42Q95 -44 103 -44Q119 -44 127 -38Q135 -32 138 -22L144 0L0 541H165L222 244H225L272 541H415L282 -26Q262 -101 222.5 -135Q183 -169 123 -169Z" glyph-name="yacute" horiz-adv-x="415" unicode="&#253;" /><glyph d="M158 748H271L370 590H250L212 659L174 590H59ZM123 -169Q97 -169 78 -166.5Q59 -164 43 -160L57 -37Q71 -40 83 -42Q95 -44 103 -44Q119 -44 127 -38Q135 -32 138 -22L144 0L0 541H165L222 244H225L272 541H415L282 -26Q262 -101 222.5 -135Q183 -169 123 -169Z" glyph-name="ycircumflex" horiz-adv-x="415" unicode="&#375;" /><glyph d="M242 741H362V588H242ZM74 741H194V588H74ZM123 -169Q97 -169 78 -166.5Q59 -164 43 -160L57 -37Q71 -40 83 -42Q95 -44 103 -44Q119 -44 127 -38Q135 -32 138 -22L144 0L0 541H165L222 244H225L272 541H415L282 -26Q262 -101 222.5 -135Q183 -169 123 -169Z" glyph-name="ydieresis" horiz-adv-x="415" unicode="&#255;" /><glyph d="M156 208H39V312H137L0 713H179L250 469L318 713H483L346 312H445V208H327V0H156Z" glyph-name="yen" horiz-adv-x="483" unicode="&#165;" /><glyph d="M58 743H212L278 590H166ZM123 -169Q97 -169 78 -166.5Q59 -164 43 -160L57 -37Q71 -40 83 -42Q95 -44 103 -44Q119 -44 127 -38Q135 -32 138 -22L144 0L0 541H165L222 244H225L272 541H415L282 -26Q262 -101 222.5 -135Q183 -169 123 -169Z" glyph-name="ygrave" horiz-adv-x="415" unicode="&#7923;" /><glyph d="M25 111 179 411H28V541H359L358 426L207 132H357V0H25Z" glyph-name="z" horiz-adv-x="383" unicode="z" /><glyph d="M204 743H358L250 590H138ZM25 111 179 411H28V541H359L358 426L207 132H357V0H25Z" glyph-name="zacute" horiz-adv-x="383" unicode="&#378;" /><glyph d="M43 752H163L201 683L239 752H357L256 594H142ZM25 111 179 411H28V541H359L358 426L207 132H357V0H25Z" glyph-name="zcaron" horiz-adv-x="383" unicode="&#382;" /><glyph d="M127 741H256V588H127ZM25 111 179 411H28V541H359L358 426L207 132H357V0H25Z" glyph-name="zdotaccent" horiz-adv-x="383" unicode="&#380;" /><glyph d="M231 124Q250 124 258.5 134.5Q267 145 267 158V555Q267 569 257 577.5Q247 586 231 586Q215 586 205.5 577.5Q196 569 196 556V157Q196 143 205 133.5Q214 124 231 124ZM232 -11Q192 -11 156.5 -1Q121 9 94 30Q67 51 51 83.5Q35 116 35 161V552Q35 596 51 628.5Q67 661 94 682Q121 703 156.5 713.5Q192 724 231 724Q269 724 304.5 713.5Q340 703 367 681.5Q394 660 410.5 627.5Q427 595 427 551V161Q427 117 411 84.5Q395 52 368.5 31Q342 10 306.5 -0.5Q271 -11 232 -11Z" glyph-name="zero" horiz-adv-x="462" unicode="0" /><glyph d="M225 124Q244 124 252.5 134.5Q261 145 261 158V555Q261 569 251 577.5Q241 586 225 586Q209 586 199.5 577.5Q190 569 190 556V157Q190 143 199 133.5Q208 124 225 124ZM226 -11Q186 -11 150.5 -1Q115 9 88 30Q61 51 45 83.5Q29 116 29 161V552Q29 596 45 628.5Q61 661 88 682Q115 703 150.5 713.5Q186 724 225 724Q263 724 298.5 713.5Q334 703 361 681.5Q388 660 404.5 627.5Q421 595 421 551V161Q421 117 405 84.5Q389 52 362.5 31Q336 10 300.5 -0.5Q265 -11 226 -11Z" glyph-name="zero.LT" horiz-adv-x="450" unicode="&#58687;" /><glyph d="M150 76Q161 76 166 82Q171 88 171 96V296Q171 304 166 309Q161 314 150 314Q140 314 134.5 309Q129 304 129 296V95Q129 87 134 81.5Q139 76 150 76ZM151 -11Q125 -11 101.5 -5Q78 1 60 14Q42 27 31.5 47.5Q21 68 21 97V294Q21 322 32 342.5Q43 363 61 376Q79 389 102 395.5Q125 402 150 402Q174 402 197.5 396Q221 390 239 377Q257 364 268.5 343Q280 322 280 293V97Q280 70 269 49.5Q258 29 240 15.5Q222 2 199 -4.5Q176 -11 151 -11Z" glyph-name="zero.dnom" horiz-adv-x="300" unicode="&#58370;" /><glyph d="M150 394Q161 394 166 400Q171 406 171 414V614Q171 622 166 627Q161 632 150 632Q140 632 134.5 627Q129 622 129 614V413Q129 405 134 399.5Q139 394 150 394ZM151 307Q125 307 101.5 313Q78 319 60 332Q42 345 31.5 365.5Q21 386 21 415V612Q21 640 32 660.5Q43 681 61 694Q79 707 102 713.5Q125 720 150 720Q174 720 197.5 714Q221 708 239 695Q257 682 268.5 661Q280 640 280 611V415Q280 388 269 367.5Q258 347 240 333.5Q222 320 199 313.5Q176 307 151 307Z" glyph-name="zero.numr" horiz-adv-x="300" unicode="&#58390;" /></font>
</defs>
</svg>
