<?xml version="1.0" standalone="no"?><!DOCTYPE svg PUBLIC "-//W3C//DTD SVG 1.1//EN" "http://www.w3.org/Graphics/SVG/1.1/DTD/svg11.dtd" ><svg version="1.1" xmlns="http://www.w3.org/2000/svg"><defs><font horiz-adv-x="0" id="font"><font-face ascent="750" bbox="-113 -205 1000 973" cap-height="713" descent="-250" font-family="Flama Condensed Light" font-stretch="normal" font-style="normal" font-weight="600" units-per-em="1000" x-height="528" /><missing-glyph d="M707 42V638H115V42ZM55 698H767V-18H55ZM195 158 380 343 195 528 235 568 420 383 605 568 645 528 460 343 645 158 605 118 420 303 235 118Z" horiz-adv-x="946" /><glyph glyph-name=".null" horiz-adv-x="0" /><glyph d="M283 284 212 653H209L137 284ZM178 715H247L392 0H339L292 239H128L82 0H32Z" glyph-name="A" horiz-adv-x="424" unicode="A" /><glyph d="M272 289V667H270L159 289ZM238 714H523V668H323V398H484V352H323V47H524V0H272V245H145L75 0H22Z" glyph-name="AE" horiz-adv-x="564" unicode="&#198;" /><glyph d="M382 912H442L355 773H313ZM272 289V667H270L159 289ZM238 714H523V668H323V398H484V352H323V47H524V0H272V245H145L75 0H22Z" glyph-name="AEacute" horiz-adv-x="564" unicode="&#508;" /><glyph d="M265 912H325L238 773H196ZM283 284 212 653H209L137 284ZM178 715H247L392 0H339L292 239H128L82 0H32Z" glyph-name="Aacute" horiz-adv-x="424" unicode="&#193;" /><glyph d="M212 778Q162 778 136 807.5Q110 837 109 891H150Q151 877 154.5 863.5Q158 850 165 839Q172 828 184 821.5Q196 815 215 815Q247 815 261 837Q275 859 275 891H315Q313 833 283.5 805.5Q254 778 212 778ZM283 284 212 653H209L137 284ZM178 715H247L392 0H339L292 239H128L82 0H32Z" glyph-name="Abreve" horiz-adv-x="424" unicode="&#258;" /><glyph d="M193 913H233L301 774H254L211 867L168 774H123ZM283 284 212 653H209L137 284ZM178 715H247L392 0H339L292 239H128L82 0H32Z" glyph-name="Acircumflex" horiz-adv-x="424" unicode="&#194;" /><glyph d="M246 900H294V791H246ZM130 900H178V791H130ZM283 284 212 653H209L137 284ZM178 715H247L392 0H339L292 239H128L82 0H32Z" glyph-name="Adieresis" horiz-adv-x="424" unicode="&#196;" /><glyph d="M107 912H167L236 773H194ZM283 284 212 653H209L137 284ZM178 715H247L392 0H339L292 239H128L82 0H32Z" glyph-name="Agrave" horiz-adv-x="424" unicode="&#192;" /><glyph d="M124 838H300V792H124ZM283 284 212 653H209L137 284ZM178 715H247L392 0H339L292 239H128L82 0H32Z" glyph-name="Amacron" horiz-adv-x="424" unicode="&#256;" /><glyph d="M283 284 212 653H209L137 284ZM370 -179Q339 -179 316 -161Q293 -143 293 -105Q293 -70 307 -44Q321 -18 341 0H339L292 239H128L82 0H32L178 715H247L392 0H383Q360 -16 348 -37Q336 -58 336 -87Q336 -110 348 -122.5Q360 -135 379 -135Q390 -135 399 -132.5Q408 -130 416 -126L432 -162Q422 -168 407.5 -173.5Q393 -179 370 -179Z" glyph-name="Aogonek" horiz-adv-x="424" unicode="&#260;" /><glyph d="M212 782Q232 782 243.5 794.5Q255 807 255 829Q255 849 244.5 863Q234 877 211 877Q191 877 181 863.5Q171 850 171 828Q171 805 182.5 793.5Q194 782 212 782ZM212 753Q174 753 155.5 775.5Q137 798 137 827Q137 859 157.5 882.5Q178 906 212 906Q249 906 268 884.5Q287 863 287 832Q287 798 266 775.5Q245 753 212 753ZM283 284 212 653H209L137 284ZM178 715H247L392 0H339L292 239H128L82 0H32Z" glyph-name="Aring" horiz-adv-x="424" unicode="&#197;" /><glyph d="M212 781Q231 781 243 793.5Q255 806 255 829Q255 849 244.5 862.5Q234 876 212 876Q192 876 181.5 862.5Q171 849 171 827Q171 804 182.5 792.5Q194 781 212 781ZM212 753Q173 753 155 776Q137 799 137 826Q137 840 141.5 854Q146 868 154 879L218 973L270 965L215 903Q252 901 269.5 880.5Q287 860 287 831Q287 798 266 775.5Q245 753 212 753ZM283 284 212 653H209L137 284ZM178 715H247L392 0H339L292 239H128L82 0H32Z" glyph-name="Aringacute" horiz-adv-x="424" unicode="&#506;" /><glyph d="M94 789Q98 820 114.5 842Q131 864 160 864Q173 864 186 859.5Q199 855 212 850Q225 845 238 840.5Q251 836 264 836Q278 836 284.5 845Q291 854 296 871L330 864Q326 833 308.5 811.5Q291 790 264 790Q250 790 236 794.5Q222 799 208.5 804.5Q195 810 182.5 814.5Q170 819 160 819Q145 819 139 810Q133 801 129 784ZM283 284 212 653H209L137 284ZM178 715H247L392 0H339L292 239H128L82 0H32Z" glyph-name="Atilde" horiz-adv-x="424" unicode="&#195;" /><glyph d="M189 388Q233 388 263.5 422Q294 456 294 532Q294 604 269 636Q244 668 203 668H118V388ZM205 45Q250 45 274 83.5Q298 122 298 199Q298 277 267.5 311.5Q237 346 190 346H118V45ZM66 713H208Q245 713 271 700.5Q297 688 313.5 665Q330 642 337.5 609.5Q345 577 345 537Q345 471 320 425.5Q295 380 249 372V368Q278 362 297.5 346.5Q317 331 329 308Q341 285 346 256Q351 227 351 196Q351 142 341 104.5Q331 67 312.5 43.5Q294 20 268.5 10Q243 0 213 0H66Z" glyph-name="B" horiz-adv-x="401" unicode="B" /><glyph d="M213 -9Q139 -9 96.5 29.5Q54 68 54 138V571Q54 639 95.5 681.5Q137 724 212 724Q248 724 275.5 713.5Q303 703 321.5 685Q340 667 349.5 643Q359 619 359 592V510H312V580Q312 624 287.5 651.5Q263 679 211 679Q182 679 162 670Q142 661 130 646Q118 631 112.5 610.5Q107 590 107 568V148Q107 92 135.5 65Q164 38 213 38Q264 38 288 66.5Q312 95 312 135V207H359V132Q359 70 320.5 30.5Q282 -9 213 -9Z" glyph-name="C" horiz-adv-x="407" unicode="C" /><glyph d="M257 912H317L230 773H188ZM213 -9Q139 -9 96.5 29.5Q54 68 54 138V571Q54 639 95.5 681.5Q137 724 212 724Q248 724 275.5 713.5Q303 703 321.5 685Q340 667 349.5 643Q359 619 359 592V510H312V580Q312 624 287.5 651.5Q263 679 211 679Q182 679 162 670Q142 661 130 646Q118 631 112.5 610.5Q107 590 107 568V148Q107 92 135.5 65Q164 38 213 38Q264 38 288 66.5Q312 95 312 135V207H359V132Q359 70 320.5 30.5Q282 -9 213 -9Z" glyph-name="Cacute" horiz-adv-x="407" unicode="&#262;" /><glyph d="M114 914H161L204 821L247 914H292L222 774H182ZM213 -9Q139 -9 96.5 29.5Q54 68 54 138V571Q54 639 95.5 681.5Q137 724 212 724Q248 724 275.5 713.5Q303 703 321.5 685Q340 667 349.5 643Q359 619 359 592V510H312V580Q312 624 287.5 651.5Q263 679 211 679Q182 679 162 670Q142 661 130 646Q118 631 112.5 610.5Q107 590 107 568V148Q107 92 135.5 65Q164 38 213 38Q264 38 288 66.5Q312 95 312 135V207H359V132Q359 70 320.5 30.5Q282 -9 213 -9Z" glyph-name="Ccaron" horiz-adv-x="407" unicode="&#268;" /><glyph d="M208 -179Q195 -179 177.5 -177Q160 -175 143 -170V-131Q160 -135 174 -137Q188 -139 205 -139Q224 -139 235.5 -133Q247 -127 247 -112Q247 -86 198 -83L174 -81L191 -8Q127 -2 90.5 35.5Q54 73 54 138V571Q54 639 95.5 681.5Q137 724 212 724Q248 724 275.5 713.5Q303 703 321.5 685Q340 667 349.5 643Q359 619 359 592V510H312V580Q312 624 287.5 651.5Q263 679 211 679Q182 679 162 670Q142 661 130 646Q118 631 112.5 610.5Q107 590 107 568V148Q107 92 135.5 65Q164 38 213 38Q264 38 288 66.5Q312 95 312 135V207H359V132Q359 72 323.5 33Q288 -6 222 -9L212 -54Q227 -55 241.5 -58Q256 -61 267.5 -67.5Q279 -74 286 -85Q293 -96 293 -112Q293 -141 268.5 -160Q244 -179 208 -179Z" glyph-name="Ccedilla" horiz-adv-x="407" unicode="&#199;" /><glyph d="M184 913H224L292 774H245L202 867L159 774H114ZM213 -9Q139 -9 96.5 29.5Q54 68 54 138V571Q54 639 95.5 681.5Q137 724 212 724Q248 724 275.5 713.5Q303 703 321.5 685Q340 667 349.5 643Q359 619 359 592V510H312V580Q312 624 287.5 651.5Q263 679 211 679Q182 679 162 670Q142 661 130 646Q118 631 112.5 610.5Q107 590 107 568V148Q107 92 135.5 65Q164 38 213 38Q264 38 288 66.5Q312 95 312 135V207H359V132Q359 70 320.5 30.5Q282 -9 213 -9Z" glyph-name="Ccircumflex" horiz-adv-x="407" unicode="&#264;" /><glyph d="M189 902H238V791H189ZM213 -9Q139 -9 96.5 29.5Q54 68 54 138V571Q54 639 95.5 681.5Q137 724 212 724Q248 724 275.5 713.5Q303 703 321.5 685Q340 667 349.5 643Q359 619 359 592V510H312V580Q312 624 287.5 651.5Q263 679 211 679Q182 679 162 670Q142 661 130 646Q118 631 112.5 610.5Q107 590 107 568V148Q107 92 135.5 65Q164 38 213 38Q264 38 288 66.5Q312 95 312 135V207H359V132Q359 70 320.5 30.5Q282 -9 213 -9Z" glyph-name="Cdotaccent" horiz-adv-x="407" unicode="&#266;" /><glyph d="M210 47Q239 47 259 56.5Q279 66 291 81Q303 96 308 114.5Q313 133 313 150V568Q313 588 307 606Q301 624 288.5 637.5Q276 651 257 659Q238 667 211 667H118V47ZM66 713H216Q248 713 275.5 704.5Q303 696 323.5 679Q344 662 355.5 636Q367 610 367 574V152Q367 75 323.5 37.5Q280 0 213 0H66Z" glyph-name="D" horiz-adv-x="421" unicode="D" /><glyph glyph-name="DEL" horiz-adv-x="0" /><glyph d="M112 914H159L202 821L245 914H290L220 774H180ZM210 47Q239 47 259 56.5Q279 66 291 81Q303 96 308 114.5Q313 133 313 150V568Q313 588 307 606Q301 624 288.5 637.5Q276 651 257 659Q238 667 211 667H118V47ZM66 713H216Q248 713 275.5 704.5Q303 696 323.5 679Q344 662 355.5 636Q367 610 367 574V152Q367 75 323.5 37.5Q280 0 213 0H66Z" glyph-name="Dcaron" horiz-adv-x="421" unicode="&#270;" /><glyph d="M215 47Q244 47 264 56.5Q284 66 296 81Q308 96 313 114.5Q318 133 318 150V568Q318 588 312 606Q306 624 293.5 637.5Q281 651 262 659Q243 667 216 667H123V397H254V353H123V47ZM23 397H71V713H221Q253 713 280.5 704.5Q308 696 328.5 679Q349 662 360.5 636Q372 610 372 574V152Q372 75 328.5 37.5Q285 0 218 0H71V353H23Z" glyph-name="Dcroat" horiz-adv-x="426" unicode="&#272;" /><glyph d="M338 47 214 649H211L87 47ZM30 29 179 715H252L400 29V0H30Z" glyph-name="Delta" horiz-adv-x="414" unicode="&#8710;" /><glyph d="M66 713H318V668H118V399H279V353H118V47H319V0H66Z" glyph-name="E" horiz-adv-x="359" unicode="E" /><glyph d="M240 912H300L213 773H171ZM66 713H318V668H118V399H279V353H118V47H319V0H66Z" glyph-name="Eacute" horiz-adv-x="359" unicode="&#201;" /><glyph d="M197 778Q147 778 121 807.5Q95 837 94 891H135Q136 877 139.5 863.5Q143 850 150 839Q157 828 169 821.5Q181 815 200 815Q232 815 246 837Q260 859 260 891H300Q298 833 268.5 805.5Q239 778 197 778ZM66 713H318V668H118V399H279V353H118V47H319V0H66Z" glyph-name="Ebreve" horiz-adv-x="359" unicode="&#276;" /><glyph d="M90 914H137L180 821L223 914H268L198 774H158ZM66 713H318V668H118V399H279V353H118V47H319V0H66Z" glyph-name="Ecaron" horiz-adv-x="359" unicode="&#282;" /><glyph d="M160 913H200L268 774H221L178 867L135 774H90ZM66 713H318V668H118V399H279V353H118V47H319V0H66Z" glyph-name="Ecircumflex" horiz-adv-x="359" unicode="&#202;" /><glyph d="M231 900H279V791H231ZM115 900H163V791H115ZM66 713H318V668H118V399H279V353H118V47H319V0H66Z" glyph-name="Edieresis" horiz-adv-x="359" unicode="&#203;" /><glyph d="M155 902H204V791H155ZM66 713H318V668H118V399H279V353H118V47H319V0H66Z" glyph-name="Edotaccent" horiz-adv-x="359" unicode="&#278;" /><glyph d="M98 912H158L227 773H185ZM66 713H318V668H118V399H279V353H118V47H319V0H66Z" glyph-name="Egrave" horiz-adv-x="359" unicode="&#200;" /><glyph d="M108 838H284V792H108ZM66 713H318V668H118V399H279V353H118V47H319V0H66Z" glyph-name="Emacron" horiz-adv-x="359" unicode="&#274;" /><glyph d="M293 -170Q274 -170 258 -167V-126H281Q305 -126 314.5 -112Q324 -98 324 -73V-3L115 607H113V0H66V713H127L326 148H328V713H374V-81Q374 -119 354.5 -144.5Q335 -170 293 -170Z" glyph-name="Eng" horiz-adv-x="440" unicode="&#330;" /><glyph d="M66 713H318V668H118V399H279V353H118V47H319V0H314Q291 -16 279 -37Q267 -58 267 -87Q267 -110 279 -122.5Q291 -135 310 -135Q321 -135 330 -132.5Q339 -130 347 -126L363 -162Q353 -168 338.5 -173.5Q324 -179 301 -179Q270 -179 247 -161Q224 -143 224 -105Q224 -70 238 -44Q252 -18 272 0H66Z" glyph-name="Eogonek" horiz-adv-x="359" unicode="&#280;" /><glyph d="M215 47Q244 47 264 56.5Q284 66 296 81Q308 96 313 114.5Q318 133 318 150V568Q318 588 312 606Q306 624 293.5 637.5Q281 651 262 659Q243 667 216 667H123V397H254V353H123V47ZM23 397H71V713H221Q253 713 280.5 704.5Q308 696 328.5 679Q349 662 360.5 636Q372 610 372 574V152Q372 75 328.5 37.5Q285 0 218 0H71V353H23Z" glyph-name="Eth" horiz-adv-x="426" unicode="&#208;" /><glyph d="M241 -9Q169 -9 127.5 29Q86 67 86 136V274H33V315H86V405H33V445H86V572Q86 605 96.5 633Q107 661 126.5 681.5Q146 702 175 713.5Q204 725 241 725Q277 725 304.5 714Q332 703 350 685Q368 667 377.5 643Q387 619 387 592V492H340V585Q340 628 315.5 654Q291 680 239 680Q211 680 192 671Q173 662 161 647Q149 632 144 611.5Q139 591 139 569V445H292V405H139V315H292V274H139V147Q139 96 164.5 66Q190 36 241 36Q294 36 317 65.5Q340 95 340 135V219H387V131Q387 69 348.5 30Q310 -9 241 -9Z" glyph-name="Euro" horiz-adv-x="423" unicode="&#8364;" /><glyph d="M66 713H317V668H118V398H277V351H118V0H66Z" glyph-name="F" horiz-adv-x="347" unicode="F" /><glyph d="M213 -9Q139 -9 96.5 29.5Q54 68 54 138V570Q54 604 64.5 632.5Q75 661 95.5 681.5Q116 702 145 713.5Q174 725 212 725Q248 725 275.5 714Q303 703 321.5 685Q340 667 349.5 643Q359 619 359 592V512H311V583Q311 626 285.5 653Q260 680 211 680Q182 680 162 670.5Q142 661 130 645.5Q118 630 112.5 609Q107 588 107 565V146Q107 95 134 66.5Q161 38 212 38Q241 38 260.5 46Q280 54 291.5 67.5Q303 81 308 99Q313 117 313 137V328H209V373H362V132Q362 71 323.5 31Q285 -9 213 -9Z" glyph-name="G" horiz-adv-x="414" unicode="G" /><glyph d="M207 778Q157 778 131 807.5Q105 837 104 891H145Q146 877 149.5 863.5Q153 850 160 839Q167 828 179 821.5Q191 815 210 815Q242 815 256 837Q270 859 270 891H310Q308 833 278.5 805.5Q249 778 207 778ZM213 -9Q139 -9 96.5 29.5Q54 68 54 138V570Q54 604 64.5 632.5Q75 661 95.5 681.5Q116 702 145 713.5Q174 725 212 725Q248 725 275.5 714Q303 703 321.5 685Q340 667 349.5 643Q359 619 359 592V512H311V583Q311 626 285.5 653Q260 680 211 680Q182 680 162 670.5Q142 661 130 645.5Q118 630 112.5 609Q107 588 107 565V146Q107 95 134 66.5Q161 38 212 38Q241 38 260.5 46Q280 54 291.5 67.5Q303 81 308 99Q313 117 313 137V328H209V373H362V132Q362 71 323.5 31Q285 -9 213 -9Z" glyph-name="Gbreve" horiz-adv-x="414" unicode="&#286;" /><glyph d="M188 913H228L296 774H249L206 867L163 774H118ZM213 -9Q139 -9 96.5 29.5Q54 68 54 138V570Q54 604 64.5 632.5Q75 661 95.5 681.5Q116 702 145 713.5Q174 725 212 725Q248 725 275.5 714Q303 703 321.5 685Q340 667 349.5 643Q359 619 359 592V512H311V583Q311 626 285.5 653Q260 680 211 680Q182 680 162 670.5Q142 661 130 645.5Q118 630 112.5 609Q107 588 107 565V146Q107 95 134 66.5Q161 38 212 38Q241 38 260.5 46Q280 54 291.5 67.5Q303 81 308 99Q313 117 313 137V328H209V373H362V132Q362 71 323.5 31Q285 -9 213 -9Z" glyph-name="Gcircumflex" horiz-adv-x="414" unicode="&#284;" /><glyph d="M187 -39H241L222 -172H185ZM213 -9Q139 -9 96.5 29.5Q54 68 54 138V570Q54 604 64.5 632.5Q75 661 95.5 681.5Q116 702 145 713.5Q174 725 212 725Q248 725 275.5 714Q303 703 321.5 685Q340 667 349.5 643Q359 619 359 592V512H311V583Q311 626 285.5 653Q260 680 211 680Q182 680 162 670.5Q142 661 130 645.5Q118 630 112.5 609Q107 588 107 565V146Q107 95 134 66.5Q161 38 212 38Q241 38 260.5 46Q280 54 291.5 67.5Q303 81 308 99Q313 117 313 137V328H209V373H362V132Q362 71 323.5 31Q285 -9 213 -9Z" glyph-name="Gcommaaccent" horiz-adv-x="414" unicode="&#290;" /><glyph d="M182 902H231V791H182ZM213 -9Q139 -9 96.5 29.5Q54 68 54 138V570Q54 604 64.5 632.5Q75 661 95.5 681.5Q116 702 145 713.5Q174 725 212 725Q248 725 275.5 714Q303 703 321.5 685Q340 667 349.5 643Q359 619 359 592V512H311V583Q311 626 285.5 653Q260 680 211 680Q182 680 162 670.5Q142 661 130 645.5Q118 630 112.5 609Q107 588 107 565V146Q107 95 134 66.5Q161 38 212 38Q241 38 260.5 46Q280 54 291.5 67.5Q303 81 308 99Q313 117 313 137V328H209V373H362V132Q362 71 323.5 31Q285 -9 213 -9Z" glyph-name="Gdotaccent" horiz-adv-x="414" unicode="&#288;" /><glyph d="M66 713H119V393H323V713H375V0H323V343H119V0H66Z" glyph-name="H" horiz-adv-x="441" unicode="H" /><glyph d="M336 393V564H132V393ZM25 606H79V713H132V606H336V713H388V606H442V564H388V0H336V343H132V0H79V564H25Z" glyph-name="Hbar" horiz-adv-x="467" unicode="&#294;" /><glyph d="M201 913H241L309 774H262L219 867L176 774H131ZM66 713H119V393H323V713H375V0H323V343H119V0H66Z" glyph-name="Hcircumflex" horiz-adv-x="441" unicode="&#292;" /><glyph d="M66 713H119V0H66Z" glyph-name="I" horiz-adv-x="185" unicode="I" /><glyph d="M41 46H134V667H41V713H279V667H186V46H279V0H41Z" glyph-name="I.alt" horiz-adv-x="320" unicode="&#58504;" /><glyph d="M339 -10Q270 -10 234 28Q198 66 198 132V260H249V138Q249 119 253 101Q257 83 267.5 68.5Q278 54 296 45.5Q314 37 341 37Q367 37 384 45.5Q401 54 411.5 67.5Q422 81 426.5 99Q431 117 431 137V713H483V140Q483 74 447 32Q411 -10 339 -10ZM66 713H119V0H66Z" glyph-name="IJ" horiz-adv-x="545" unicode="&#306;" /><glyph d="M41 46H138V667H41V713H287V667H190V46H287V0H41ZM451 -10Q382 -10 346 28Q310 66 310 132V260H361V138Q361 119 365 101Q369 83 379.5 68.5Q390 54 408 45.5Q426 37 453 37Q479 37 496 45.5Q513 54 523.5 67.5Q534 81 538.5 99Q543 117 543 137V713H595V140Q595 74 559 32Q523 -10 451 -10Z" glyph-name="IJ.alt" horiz-adv-x="657" /><glyph d="M141 912H201L114 773H72ZM66 713H119V0H66Z" glyph-name="Iacute" horiz-adv-x="185" unicode="&#205;" /><glyph d="M41 46H134V667H41V713H279V667H186V46H279V0H41ZM209 912H269L182 773H140Z" glyph-name="Iacute.alt" horiz-adv-x="320" unicode="&#57651;" /><glyph d="M93 778Q43 778 17 807.5Q-9 837 -10 891H31Q32 877 35.5 863.5Q39 850 46 839Q53 828 65 821.5Q77 815 96 815Q128 815 142 837Q156 859 156 891H196Q194 833 164.5 805.5Q135 778 93 778ZM66 713H119V0H66Z" glyph-name="Ibreve" horiz-adv-x="185" unicode="&#300;" /><glyph d="M41 46H134V667H41V713H279V667H186V46H279V0H41ZM161 778Q111 778 85 807.5Q59 837 58 891H99Q100 877 103.5 863.5Q107 850 114 839Q121 828 133 821.5Q145 815 164 815Q196 815 210 837Q224 859 224 891H264Q262 833 232.5 805.5Q203 778 161 778Z" glyph-name="Ibreve.alt" horiz-adv-x="320" unicode="&#57657;" /><glyph d="M74 913H114L182 774H135L92 867L49 774H4ZM66 713H119V0H66Z" glyph-name="Icircumflex" horiz-adv-x="185" unicode="&#206;" /><glyph d="M41 46H134V667H41V713H279V667H186V46H279V0H41ZM142 913H182L250 774H203L160 867L117 774H72Z" glyph-name="Icircumflex.alt" horiz-adv-x="320" unicode="&#57652;" /><glyph d="M127 900H175V791H127ZM11 900H59V791H11ZM66 713H119V0H66Z" glyph-name="Idieresis" horiz-adv-x="185" unicode="&#207;" /><glyph d="M41 46H134V667H41V713H279V667H186V46H279V0H41ZM195 900H243V791H195ZM79 900H127V791H79Z" glyph-name="Idieresis.alt" horiz-adv-x="320" unicode="&#57653;" /><glyph d="M68 902H117V791H68ZM66 713H119V0H66Z" glyph-name="Idotaccent" horiz-adv-x="185" unicode="&#304;" /><glyph d="M41 46H134V667H41V713H279V667H186V46H279V0H41ZM136 902H185V791H136Z" glyph-name="Idotaccent.alt" horiz-adv-x="320" unicode="&#57660;" /><glyph d="M-13 912H47L116 773H74ZM66 713H119V0H66Z" glyph-name="Igrave" horiz-adv-x="185" unicode="&#204;" /><glyph d="M41 46H134V667H41V713H279V667H186V46H279V0H41ZM55 912H115L184 773H142Z" glyph-name="Igrave.alt" horiz-adv-x="320" unicode="&#57650;" /><glyph d="M5 838H181V792H5ZM66 713H119V0H66Z" glyph-name="Imacron" horiz-adv-x="185" unicode="&#298;" /><glyph d="M41 46H134V667H41V713H279V667H186V46H279V0H41ZM73 838H249V792H73Z" glyph-name="Imacron.alt" horiz-adv-x="320" unicode="&#57656;" /><glyph d="M66 713H119V6H120Q119 5 119 5V0H111Q91 -16 80 -38Q69 -60 69 -87Q69 -110 78 -122.5Q87 -135 106 -135Q119 -135 135 -127L149 -163Q139 -169 127 -173.5Q115 -178 99 -178Q68 -178 47 -160.5Q26 -143 26 -105Q26 -71 39.5 -44.5Q53 -18 72 0H66Z" glyph-name="Iogonek" horiz-adv-x="185" unicode="&#302;" /><glyph d="M41 46H134V667H41V713H279V667H186V46H279V0H270Q250 -16 239 -38Q228 -60 228 -87Q228 -110 237 -122.5Q246 -135 265 -135Q278 -135 294 -127L308 -163Q298 -169 286 -173.5Q274 -178 258 -178Q227 -178 206.5 -160.5Q186 -143 186 -105Q186 -71 199 -44.5Q212 -18 231 0H41Z" glyph-name="Iogonek.alt" horiz-adv-x="320" unicode="&#57662;" /><glyph d="M-25 789Q-21 820 -4.5 842Q12 864 41 864Q54 864 67 859.5Q80 855 93 850Q106 845 119 840.5Q132 836 145 836Q159 836 165.5 845Q172 854 177 871L211 864Q207 833 189.5 811.5Q172 790 145 790Q131 790 117 794.5Q103 799 89.5 804.5Q76 810 63.5 814.5Q51 819 41 819Q26 819 20 810Q14 801 10 784ZM66 713H119V0H66Z" glyph-name="Itilde" horiz-adv-x="185" unicode="&#296;" /><glyph d="M41 46H134V667H41V713H279V667H186V46H279V0H41ZM43 789Q47 820 63.5 842Q80 864 109 864Q122 864 135 859.5Q148 855 161 850Q174 845 187 840.5Q200 836 213 836Q227 836 233.5 845Q240 854 245 871L279 864Q275 833 257.5 811.5Q240 790 213 790Q199 790 185 794.5Q171 799 157.5 804.5Q144 810 131.5 814.5Q119 819 109 819Q94 819 88 810Q82 801 78 784Z" glyph-name="Itilde.alt" horiz-adv-x="320" unicode="&#57654;" /><glyph d="M185 -10Q116 -10 80 28Q44 66 44 132V260H95V138Q95 119 99 101Q103 83 113.5 68.5Q124 54 142 45.5Q160 37 187 37Q213 37 230 45.5Q247 54 257.5 67.5Q268 81 272.5 99Q277 117 277 137V713H329V140Q329 74 293 32Q257 -10 185 -10Z" glyph-name="J" horiz-adv-x="391" unicode="J" /><glyph d="M263 913H303L371 774H324L281 867L238 774H193ZM185 -10Q116 -10 80 28Q44 66 44 132V260H95V138Q95 119 99 101Q103 83 113.5 68.5Q124 54 142 45.5Q160 37 187 37Q213 37 230 45.5Q247 54 257.5 67.5Q268 81 272.5 99Q277 117 277 137V713H329V140Q329 74 293 32Q257 -10 185 -10Z" glyph-name="Jcircumflex" horiz-adv-x="391" unicode="&#308;" /><glyph d="M66 713H119V344L316 713H371L227 444L373 0H316L189 388L119 259V0H66Z" glyph-name="K" horiz-adv-x="404" unicode="K" /><glyph d="M186 -39H240L221 -172H184ZM66 713H119V344L316 713H371L227 444L373 0H316L189 388L119 259V0H66Z" glyph-name="Kcommaaccent" horiz-adv-x="404" unicode="&#310;" /><glyph d="M66 713H118V47H319V0H66Z" glyph-name="L" horiz-adv-x="344" unicode="L" /><glyph glyph-name="LF" horiz-adv-x="35" /><glyph d="M147 912H207L120 773H78ZM66 713H118V47H319V0H66Z" glyph-name="Lacute" horiz-adv-x="344" unicode="&#313;" /><glyph d="M197 713H251L228 568H193ZM66 713H118V47H319V0H66Z" glyph-name="Lcaron" horiz-adv-x="344" unicode="&#317;" /><glyph d="M178 -39H232L213 -172H176ZM66 713H118V47H319V0H66Z" glyph-name="Lcommaaccent" horiz-adv-x="344" unicode="&#315;" /><glyph d="M212 438H262V337H212ZM66 713H118V47H319V0H66Z" glyph-name="Ldot" horiz-adv-x="344" unicode="&#319;" /><glyph d="M23 310 79 362V713H131V411L246 520V465L131 356V47H332V0H79V307L23 255Z" glyph-name="Lslash" horiz-adv-x="357" unicode="&#321;" /><glyph d="M66 713H125L249 393H251L375 713H433V0H384V598H382L266 306H230L116 597H114V0H66Z" glyph-name="M" horiz-adv-x="499" unicode="M" /><glyph d="M66 713H127L326 148H328V713H374V0H323L115 607H113V0H66Z" glyph-name="N" horiz-adv-x="440" unicode="N" /><glyph d="M275 912H335L248 773H206ZM66 713H127L326 148H328V713H374V0H323L115 607H113V0H66Z" glyph-name="Nacute" horiz-adv-x="440" unicode="&#323;" /><glyph d="M131 914H178L221 821L264 914H309L239 774H199ZM66 713H127L326 148H328V713H374V0H323L115 607H113V0H66Z" glyph-name="Ncaron" horiz-adv-x="440" unicode="&#327;" /><glyph d="M195 -39H249L230 -172H193ZM66 713H127L326 148H328V713H374V0H323L115 607H113V0H66Z" glyph-name="Ncommaaccent" horiz-adv-x="440" unicode="&#325;" /><glyph d="M102 789Q106 820 122.5 842Q139 864 168 864Q181 864 194 859.5Q207 855 220 850Q233 845 246 840.5Q259 836 272 836Q286 836 292.5 845Q299 854 304 871L338 864Q334 833 316.5 811.5Q299 790 272 790Q258 790 244 794.5Q230 799 216.5 804.5Q203 810 190.5 814.5Q178 819 168 819Q153 819 147 810Q141 801 137 784ZM66 713H127L326 148H328V713H374V0H323L115 607H113V0H66Z" glyph-name="Ntilde" horiz-adv-x="440" unicode="&#209;" /><glyph d="M213 39Q241 39 260.5 48Q280 57 292.5 72Q305 87 311 107Q317 127 317 148V576Q317 621 290 649.5Q263 678 211 678Q185 678 165.5 669.5Q146 661 133 646.5Q120 632 114 612.5Q108 593 108 572V147Q108 125 114.5 105.5Q121 86 134 71Q147 56 166.5 47.5Q186 39 213 39ZM210 -9Q139 -9 96.5 30.5Q54 70 54 148V567Q54 605 66 634.5Q78 664 99.5 684Q121 704 150 714Q179 724 214 724Q247 724 275.5 715Q304 706 325 688Q346 670 358 642.5Q370 615 370 578V153Q370 72 325 31.5Q280 -9 210 -9Z" glyph-name="O" horiz-adv-x="424" unicode="O" /><glyph d="M213 38Q241 38 260.5 47.5Q280 57 292.5 72.5Q305 88 311 108Q317 128 317 149V578Q317 623 290 650.5Q263 678 211 678Q185 678 165.5 669.5Q146 661 133 646.5Q120 632 114 612.5Q108 593 108 572V147Q108 125 114.5 105.5Q121 86 134 71Q147 56 166.5 47Q186 38 213 38ZM204 -8Q133 -8 93.5 31Q54 70 54 148V568Q54 645 97.5 685Q141 725 210 725Q245 725 273 712.5Q301 700 318 675V713H569V668H370V399H531V352H370V47H571V0H318V49Q304 26 273.5 9Q243 -8 204 -8Z" glyph-name="OE" horiz-adv-x="611" unicode="&#338;" /><glyph d="M266 912H326L239 773H197ZM213 39Q241 39 260.5 48Q280 57 292.5 72Q305 87 311 107Q317 127 317 148V576Q317 621 290 649.5Q263 678 211 678Q185 678 165.5 669.5Q146 661 133 646.5Q120 632 114 612.5Q108 593 108 572V147Q108 125 114.5 105.5Q121 86 134 71Q147 56 166.5 47.5Q186 39 213 39ZM210 -9Q139 -9 96.5 30.5Q54 70 54 148V567Q54 605 66 634.5Q78 664 99.5 684Q121 704 150 714Q179 724 214 724Q247 724 275.5 715Q304 706 325 688Q346 670 358 642.5Q370 615 370 578V153Q370 72 325 31.5Q280 -9 210 -9Z" glyph-name="Oacute" horiz-adv-x="424" unicode="&#211;" /><glyph d="M212 778Q162 778 136 807.5Q110 837 109 891H150Q151 877 154.5 863.5Q158 850 165 839Q172 828 184 821.5Q196 815 215 815Q247 815 261 837Q275 859 275 891H315Q313 833 283.5 805.5Q254 778 212 778ZM213 39Q241 39 260.5 48Q280 57 292.5 72Q305 87 311 107Q317 127 317 148V576Q317 621 290 649.5Q263 678 211 678Q185 678 165.5 669.5Q146 661 133 646.5Q120 632 114 612.5Q108 593 108 572V147Q108 125 114.5 105.5Q121 86 134 71Q147 56 166.5 47.5Q186 39 213 39ZM210 -9Q139 -9 96.5 30.5Q54 70 54 148V567Q54 605 66 634.5Q78 664 99.5 684Q121 704 150 714Q179 724 214 724Q247 724 275.5 715Q304 706 325 688Q346 670 358 642.5Q370 615 370 578V153Q370 72 325 31.5Q280 -9 210 -9Z" glyph-name="Obreve" horiz-adv-x="424" unicode="&#334;" /><glyph d="M193 913H233L301 774H254L211 867L168 774H123ZM213 39Q241 39 260.5 48Q280 57 292.5 72Q305 87 311 107Q317 127 317 148V576Q317 621 290 649.5Q263 678 211 678Q185 678 165.5 669.5Q146 661 133 646.5Q120 632 114 612.5Q108 593 108 572V147Q108 125 114.5 105.5Q121 86 134 71Q147 56 166.5 47.5Q186 39 213 39ZM210 -9Q139 -9 96.5 30.5Q54 70 54 148V567Q54 605 66 634.5Q78 664 99.5 684Q121 704 150 714Q179 724 214 724Q247 724 275.5 715Q304 706 325 688Q346 670 358 642.5Q370 615 370 578V153Q370 72 325 31.5Q280 -9 210 -9Z" glyph-name="Ocircumflex" horiz-adv-x="424" unicode="&#212;" /><glyph d="M246 900H294V791H246ZM130 900H178V791H130ZM213 39Q241 39 260.5 48Q280 57 292.5 72Q305 87 311 107Q317 127 317 148V576Q317 621 290 649.5Q263 678 211 678Q185 678 165.5 669.5Q146 661 133 646.5Q120 632 114 612.5Q108 593 108 572V147Q108 125 114.5 105.5Q121 86 134 71Q147 56 166.5 47.5Q186 39 213 39ZM210 -9Q139 -9 96.5 30.5Q54 70 54 148V567Q54 605 66 634.5Q78 664 99.5 684Q121 704 150 714Q179 724 214 724Q247 724 275.5 715Q304 706 325 688Q346 670 358 642.5Q370 615 370 578V153Q370 72 325 31.5Q280 -9 210 -9Z" glyph-name="Odieresis" horiz-adv-x="424" unicode="&#214;" /><glyph d="M106 912H166L235 773H193ZM213 39Q241 39 260.5 48Q280 57 292.5 72Q305 87 311 107Q317 127 317 148V576Q317 621 290 649.5Q263 678 211 678Q185 678 165.5 669.5Q146 661 133 646.5Q120 632 114 612.5Q108 593 108 572V147Q108 125 114.5 105.5Q121 86 134 71Q147 56 166.5 47.5Q186 39 213 39ZM210 -9Q139 -9 96.5 30.5Q54 70 54 148V567Q54 605 66 634.5Q78 664 99.5 684Q121 704 150 714Q179 724 214 724Q247 724 275.5 715Q304 706 325 688Q346 670 358 642.5Q370 615 370 578V153Q370 72 325 31.5Q280 -9 210 -9Z" glyph-name="Ograve" horiz-adv-x="424" unicode="&#210;" /><glyph d="M261 901H314L254 777H213ZM157 901H211L151 777H110ZM213 39Q241 39 260.5 48Q280 57 292.5 72Q305 87 311 107Q317 127 317 148V576Q317 621 290 649.5Q263 678 211 678Q185 678 165.5 669.5Q146 661 133 646.5Q120 632 114 612.5Q108 593 108 572V147Q108 125 114.5 105.5Q121 86 134 71Q147 56 166.5 47.5Q186 39 213 39ZM210 -9Q139 -9 96.5 30.5Q54 70 54 148V567Q54 605 66 634.5Q78 664 99.5 684Q121 704 150 714Q179 724 214 724Q247 724 275.5 715Q304 706 325 688Q346 670 358 642.5Q370 615 370 578V153Q370 72 325 31.5Q280 -9 210 -9Z" glyph-name="Ohungarumlaut" horiz-adv-x="424" unicode="&#336;" /><glyph d="M124 838H300V792H124ZM213 39Q241 39 260.5 48Q280 57 292.5 72Q305 87 311 107Q317 127 317 148V576Q317 621 290 649.5Q263 678 211 678Q185 678 165.5 669.5Q146 661 133 646.5Q120 632 114 612.5Q108 593 108 572V147Q108 125 114.5 105.5Q121 86 134 71Q147 56 166.5 47.5Q186 39 213 39ZM210 -9Q139 -9 96.5 30.5Q54 70 54 148V567Q54 605 66 634.5Q78 664 99.5 684Q121 704 150 714Q179 724 214 724Q247 724 275.5 715Q304 706 325 688Q346 670 358 642.5Q370 615 370 578V153Q370 72 325 31.5Q280 -9 210 -9Z" glyph-name="Omacron" horiz-adv-x="424" unicode="&#332;" /><glyph d="M43 52 138 49V54Q92 117 69.5 195.5Q47 274 47 363V520Q47 617 91 670.5Q135 724 217 724Q261 724 292.5 708.5Q324 693 344.5 665.5Q365 638 375 601Q385 564 385 522V364Q385 316 376.5 269Q368 222 355.5 180.5Q343 139 327 106.5Q311 74 296 54V49L390 52V0H242V33Q258 61 273.5 95.5Q289 130 301 171Q313 212 320 260.5Q327 309 327 366V531Q327 561 320.5 587.5Q314 614 300 633Q286 652 265 663Q244 674 215 674Q163 674 133.5 636Q104 598 104 530V368Q104 300 112 249Q120 198 132.5 158.5Q145 119 160.5 89Q176 59 192 33V0H43Z" glyph-name="Omega" horiz-adv-x="433" unicode="&#8486;" /><glyph d="M213 39Q241 39 260.5 48Q280 57 292.5 72Q305 87 311 107Q317 127 317 148V576Q317 581 316.5 584.5Q316 588 316 593L139 66Q166 39 213 39ZM108 147Q108 130 111 114L291 648Q263 678 211 678Q185 678 165.5 669.5Q146 661 133 646.5Q120 632 114 612.5Q108 593 108 572ZM63 -31 87 41Q71 61 62.5 87Q54 113 54 148V567Q54 605 66 634.5Q78 664 99.5 684Q121 704 150 714Q179 724 214 724Q270 724 309 700L327 754L367 745L342 670Q370 634 370 578V153Q370 72 325 31.5Q280 -9 210 -9Q184 -9 161.5 -3.5Q139 2 121 12L103 -41Z" glyph-name="Oslash" horiz-adv-x="424" unicode="&#216;" /><glyph d="M266 912H326L239 773H197ZM213 39Q241 39 260.5 48Q280 57 292.5 72Q305 87 311 107Q317 127 317 148V576Q317 581 316.5 584.5Q316 588 316 593L139 66Q166 39 213 39ZM108 147Q108 130 111 114L291 648Q263 678 211 678Q185 678 165.5 669.5Q146 661 133 646.5Q120 632 114 612.5Q108 593 108 572ZM63 -31 87 41Q71 61 62.5 87Q54 113 54 148V567Q54 605 66 634.5Q78 664 99.5 684Q121 704 150 714Q179 724 214 724Q270 724 309 700L327 754L367 745L342 670Q370 634 370 578V153Q370 72 325 31.5Q280 -9 210 -9Q184 -9 161.5 -3.5Q139 2 121 12L103 -41Z" glyph-name="Oslashacute" horiz-adv-x="424" unicode="&#510;" /><glyph d="M94 789Q98 820 114.5 842Q131 864 160 864Q173 864 186 859.5Q199 855 212 850Q225 845 238 840.5Q251 836 264 836Q278 836 284.5 845Q291 854 296 871L330 864Q326 833 308.5 811.5Q291 790 264 790Q250 790 236 794.5Q222 799 208.5 804.5Q195 810 182.5 814.5Q170 819 160 819Q145 819 139 810Q133 801 129 784ZM213 39Q241 39 260.5 48Q280 57 292.5 72Q305 87 311 107Q317 127 317 148V576Q317 621 290 649.5Q263 678 211 678Q185 678 165.5 669.5Q146 661 133 646.5Q120 632 114 612.5Q108 593 108 572V147Q108 125 114.5 105.5Q121 86 134 71Q147 56 166.5 47.5Q186 39 213 39ZM210 -9Q139 -9 96.5 30.5Q54 70 54 148V567Q54 605 66 634.5Q78 664 99.5 684Q121 704 150 714Q179 724 214 724Q247 724 275.5 715Q304 706 325 688Q346 670 358 642.5Q370 615 370 578V153Q370 72 325 31.5Q280 -9 210 -9Z" glyph-name="Otilde" horiz-adv-x="424" unicode="&#213;" /><glyph d="M186 348Q245 348 272 390.5Q299 433 299 512Q299 543 294 571Q289 599 276.5 620Q264 641 243.5 653Q223 665 193 665H119V348ZM66 713H197Q240 713 269.5 697.5Q299 682 317 655Q335 628 343 591Q351 554 351 512Q351 465 341 426Q331 387 311 359.5Q291 332 260.5 317Q230 302 189 302H119V0H66Z" glyph-name="P" horiz-adv-x="399" unicode="P" /><glyph d="M213 39Q241 39 260.5 48Q280 57 292.5 72Q305 87 311 107Q317 127 317 148V576Q317 621 290 649.5Q263 678 211 678Q185 678 165.5 669.5Q146 661 133 646.5Q120 632 114 612.5Q108 593 108 572V147Q108 125 114.5 105.5Q121 86 134 71Q147 56 166.5 47.5Q186 39 213 39ZM264 0Q241 -9 210 -9Q139 -9 96.5 30.5Q54 70 54 148V567Q54 605 66 634.5Q78 664 99.5 684Q121 704 150 714Q179 724 214 724Q247 724 275.5 715Q304 706 325 688Q346 670 358 642.5Q370 615 370 578V153Q370 109 354.5 77.5Q339 46 312 29L395 -27L362 -70Z" glyph-name="Q" horiz-adv-x="424" unicode="Q" /><glyph d="M201 368Q253 368 277 407.5Q301 447 301 515Q301 542 296.5 569Q292 596 280 617.5Q268 639 248 652.5Q228 666 197 666H119V368ZM66 713H198Q280 713 317.5 661Q355 609 355 522Q355 447 328 398Q301 349 254 338L362 0H308L203 325H119V0H66Z" glyph-name="R" horiz-adv-x="408" unicode="R" /><glyph glyph-name="RS" horiz-adv-x="35" /><glyph d="M217 912H277L190 773H148ZM201 368Q253 368 277 407.5Q301 447 301 515Q301 542 296.5 569Q292 596 280 617.5Q268 639 248 652.5Q228 666 197 666H119V368ZM66 713H198Q280 713 317.5 661Q355 609 355 522Q355 447 328 398Q301 349 254 338L362 0H308L203 325H119V0H66Z" glyph-name="Racute" horiz-adv-x="408" unicode="&#340;" /><glyph d="M115 914H162L205 821L248 914H293L223 774H183ZM201 368Q253 368 277 407.5Q301 447 301 515Q301 542 296.5 569Q292 596 280 617.5Q268 639 248 652.5Q228 666 197 666H119V368ZM66 713H198Q280 713 317.5 661Q355 609 355 522Q355 447 328 398Q301 349 254 338L362 0H308L203 325H119V0H66Z" glyph-name="Rcaron" horiz-adv-x="408" unicode="&#344;" /><glyph d="M179 -39H233L214 -172H177ZM201 368Q253 368 277 407.5Q301 447 301 515Q301 542 296.5 569Q292 596 280 617.5Q268 639 248 652.5Q228 666 197 666H119V368ZM66 713H198Q280 713 317.5 661Q355 609 355 522Q355 447 328 398Q301 349 254 338L362 0H308L203 325H119V0H66Z" glyph-name="Rcommaaccent" horiz-adv-x="408" unicode="&#342;" /><glyph d="M187 -9Q121 -9 83 32.5Q45 74 39 155L90 157Q95 100 118.5 67Q142 34 187 34Q213 34 230.5 44.5Q248 55 258.5 71.5Q269 88 273.5 108.5Q278 129 278 150Q278 187 262.5 226Q247 265 218 299L126 409Q92 448 71.5 489.5Q51 531 51 576Q51 639 85.5 681.5Q120 724 188 724Q243 724 279.5 690Q316 656 321 574L272 573Q265 631 243.5 655.5Q222 680 185 680Q146 680 123 656Q100 632 100 580Q100 544 120 510Q140 476 169 441L248 347Q286 301 306.5 255Q327 209 327 155Q327 81 291.5 36Q256 -9 187 -9Z" glyph-name="S" horiz-adv-x="366" unicode="S" /><glyph d="M235 912H295L208 773H166ZM187 -9Q121 -9 83 32.5Q45 74 39 155L90 157Q95 100 118.5 67Q142 34 187 34Q213 34 230.5 44.5Q248 55 258.5 71.5Q269 88 273.5 108.5Q278 129 278 150Q278 187 262.5 226Q247 265 218 299L126 409Q92 448 71.5 489.5Q51 531 51 576Q51 639 85.5 681.5Q120 724 188 724Q243 724 279.5 690Q316 656 321 574L272 573Q265 631 243.5 655.5Q222 680 185 680Q146 680 123 656Q100 632 100 580Q100 544 120 510Q140 476 169 441L248 347Q286 301 306.5 255Q327 209 327 155Q327 81 291.5 36Q256 -9 187 -9Z" glyph-name="Sacute" horiz-adv-x="366" unicode="&#346;" /><glyph d="M94 914H141L184 821L227 914H272L202 774H162ZM187 -9Q121 -9 83 32.5Q45 74 39 155L90 157Q95 100 118.5 67Q142 34 187 34Q213 34 230.5 44.5Q248 55 258.5 71.5Q269 88 273.5 108.5Q278 129 278 150Q278 187 262.5 226Q247 265 218 299L126 409Q92 448 71.5 489.5Q51 531 51 576Q51 639 85.5 681.5Q120 724 188 724Q243 724 279.5 690Q316 656 321 574L272 573Q265 631 243.5 655.5Q222 680 185 680Q146 680 123 656Q100 632 100 580Q100 544 120 510Q140 476 169 441L248 347Q286 301 306.5 255Q327 209 327 155Q327 81 291.5 36Q256 -9 187 -9Z" glyph-name="Scaron" horiz-adv-x="366" unicode="&#352;" /><glyph d="M196 -179Q183 -179 165.5 -177Q148 -175 131 -170V-131Q148 -135 162 -137Q176 -139 193 -139Q212 -139 223.5 -133Q235 -127 235 -112Q235 -86 186 -83L162 -81L178 -9Q116 -6 80 35Q44 76 39 155L90 157Q95 100 118.5 67Q142 34 187 34Q213 34 230.5 44.5Q248 55 258.5 71.5Q269 88 273.5 108.5Q278 129 278 150Q278 187 262.5 226Q247 265 218 299L126 409Q92 448 71.5 489.5Q51 531 51 576Q51 639 85.5 681.5Q120 724 188 724Q243 724 279.5 690Q316 656 321 574L272 573Q265 631 243.5 655.5Q222 680 185 680Q146 680 123 656Q100 632 100 580Q100 544 120 510Q140 476 169 441L248 347Q286 301 306.5 255Q327 209 327 155Q327 88 297.5 44.5Q268 1 211 -7L200 -54Q215 -55 229.5 -58Q244 -61 255.5 -67.5Q267 -74 274 -85Q281 -96 281 -112Q281 -141 256.5 -160Q232 -179 196 -179Z" glyph-name="Scedilla" horiz-adv-x="366" unicode="&#350;" /><glyph d="M164 913H204L272 774H225L182 867L139 774H94ZM187 -9Q121 -9 83 32.5Q45 74 39 155L90 157Q95 100 118.5 67Q142 34 187 34Q213 34 230.5 44.5Q248 55 258.5 71.5Q269 88 273.5 108.5Q278 129 278 150Q278 187 262.5 226Q247 265 218 299L126 409Q92 448 71.5 489.5Q51 531 51 576Q51 639 85.5 681.5Q120 724 188 724Q243 724 279.5 690Q316 656 321 574L272 573Q265 631 243.5 655.5Q222 680 185 680Q146 680 123 656Q100 632 100 580Q100 544 120 510Q140 476 169 441L248 347Q286 301 306.5 255Q327 209 327 155Q327 81 291.5 36Q256 -9 187 -9Z" glyph-name="Scircumflex" horiz-adv-x="366" unicode="&#348;" /><glyph d="M165 -39H219L200 -172H163ZM187 -9Q121 -9 83 32.5Q45 74 39 155L90 157Q95 100 118.5 67Q142 34 187 34Q213 34 230.5 44.5Q248 55 258.5 71.5Q269 88 273.5 108.5Q278 129 278 150Q278 187 262.5 226Q247 265 218 299L126 409Q92 448 71.5 489.5Q51 531 51 576Q51 639 85.5 681.5Q120 724 188 724Q243 724 279.5 690Q316 656 321 574L272 573Q265 631 243.5 655.5Q222 680 185 680Q146 680 123 656Q100 632 100 580Q100 544 120 510Q140 476 169 441L248 347Q286 301 306.5 255Q327 209 327 155Q327 81 291.5 36Q256 -9 187 -9Z" glyph-name="Scommaaccent" horiz-adv-x="366" unicode="&#536;" /><glyph d="M161 667H24V713H349V667H213V0H161Z" glyph-name="T" horiz-adv-x="373" unicode="T" /><glyph d="M98 365H161V667H24V713H349V667H213V365H275V325H213V0H161V325H98Z" glyph-name="Tbar" horiz-adv-x="373" unicode="&#358;" /><glyph d="M97 914H144L187 821L230 914H275L205 774H165ZM161 667H24V713H349V667H213V0H161Z" glyph-name="Tcaron" horiz-adv-x="373" unicode="&#356;" /><glyph d="M162 -39H216L197 -172H160ZM161 667H24V713H349V667H213V0H161Z" glyph-name="Tcommaaccent" horiz-adv-x="373" unicode="&#354;" /><glyph d="M176 203Q236 203 263 245Q290 287 290 366Q290 397 285 425Q280 453 268 474Q256 495 235.5 507Q215 519 185 519H109V203ZM56 713H109V566H189Q232 566 261.5 550.5Q291 535 309 508Q327 481 335 444.5Q343 408 343 366Q343 319 333 280.5Q323 242 303 214.5Q283 187 252.5 172Q222 157 181 157H109V0H56Z" glyph-name="Thorn" horiz-adv-x="381" unicode="&#222;" /><glyph d="M213 -10Q181 -10 153.5 -1Q126 8 105.5 26.5Q85 45 73.5 73.5Q62 102 62 140V713H115V150Q115 120 123 99Q131 78 145 64.5Q159 51 177.5 44.5Q196 38 217 38Q270 38 293.5 69.5Q317 101 316 148V713H366V147Q367 75 326 32.5Q285 -10 213 -10Z" glyph-name="U" horiz-adv-x="429" unicode="U" /><glyph glyph-name="US" horiz-adv-x="33" /><glyph d="M269 912H329L242 773H200ZM213 -10Q181 -10 153.5 -1Q126 8 105.5 26.5Q85 45 73.5 73.5Q62 102 62 140V713H115V150Q115 120 123 99Q131 78 145 64.5Q159 51 177.5 44.5Q196 38 217 38Q270 38 293.5 69.5Q317 101 316 148V713H366V147Q367 75 326 32.5Q285 -10 213 -10Z" glyph-name="Uacute" horiz-adv-x="429" unicode="&#218;" /><glyph d="M214 778Q164 778 138 807.5Q112 837 111 891H152Q153 877 156.5 863.5Q160 850 167 839Q174 828 186 821.5Q198 815 217 815Q249 815 263 837Q277 859 277 891H317Q315 833 285.5 805.5Q256 778 214 778ZM213 -10Q181 -10 153.5 -1Q126 8 105.5 26.5Q85 45 73.5 73.5Q62 102 62 140V713H115V150Q115 120 123 99Q131 78 145 64.5Q159 51 177.5 44.5Q196 38 217 38Q270 38 293.5 69.5Q317 101 316 148V713H366V147Q367 75 326 32.5Q285 -10 213 -10Z" glyph-name="Ubreve" horiz-adv-x="429" unicode="&#364;" /><glyph d="M195 913H235L303 774H256L213 867L170 774H125ZM213 -10Q181 -10 153.5 -1Q126 8 105.5 26.5Q85 45 73.5 73.5Q62 102 62 140V713H115V150Q115 120 123 99Q131 78 145 64.5Q159 51 177.5 44.5Q196 38 217 38Q270 38 293.5 69.5Q317 101 316 148V713H366V147Q367 75 326 32.5Q285 -10 213 -10Z" glyph-name="Ucircumflex" horiz-adv-x="429" unicode="&#219;" /><glyph d="M248 900H296V791H248ZM132 900H180V791H132ZM213 -10Q181 -10 153.5 -1Q126 8 105.5 26.5Q85 45 73.5 73.5Q62 102 62 140V713H115V150Q115 120 123 99Q131 78 145 64.5Q159 51 177.5 44.5Q196 38 217 38Q270 38 293.5 69.5Q317 101 316 148V713H366V147Q367 75 326 32.5Q285 -10 213 -10Z" glyph-name="Udieresis" horiz-adv-x="429" unicode="&#220;" /><glyph d="M114 912H174L243 773H201ZM213 -10Q181 -10 153.5 -1Q126 8 105.5 26.5Q85 45 73.5 73.5Q62 102 62 140V713H115V150Q115 120 123 99Q131 78 145 64.5Q159 51 177.5 44.5Q196 38 217 38Q270 38 293.5 69.5Q317 101 316 148V713H366V147Q367 75 326 32.5Q285 -10 213 -10Z" glyph-name="Ugrave" horiz-adv-x="429" unicode="&#217;" /><glyph d="M300 901H353L293 777H252ZM196 901H250L190 777H149ZM213 -10Q181 -10 153.5 -1Q126 8 105.5 26.5Q85 45 73.5 73.5Q62 102 62 140V713H115V150Q115 120 123 99Q131 78 145 64.5Q159 51 177.5 44.5Q196 38 217 38Q270 38 293.5 69.5Q317 101 316 148V713H366V147Q367 75 326 32.5Q285 -10 213 -10Z" glyph-name="Uhungarumlaut" horiz-adv-x="429" unicode="&#368;" /><glyph d="M126 838H302V792H126ZM213 -10Q181 -10 153.5 -1Q126 8 105.5 26.5Q85 45 73.5 73.5Q62 102 62 140V713H115V150Q115 120 123 99Q131 78 145 64.5Q159 51 177.5 44.5Q196 38 217 38Q270 38 293.5 69.5Q317 101 316 148V713H366V147Q367 75 326 32.5Q285 -10 213 -10Z" glyph-name="Umacron" horiz-adv-x="429" unicode="&#362;" /><glyph d="M275 -179Q244 -179 221 -161Q198 -143 198 -105Q198 -75 208.5 -50.5Q219 -26 236 -8Q230 -9 224.5 -9.5Q219 -10 213 -10Q181 -10 153.5 -1Q126 8 105.5 26.5Q85 45 73.5 73.5Q62 102 62 140V713H115V150Q115 120 123 99Q131 78 145 64.5Q159 51 177.5 44.5Q196 38 217 38Q270 38 293.5 69.5Q317 101 316 148V713H366V147Q367 91 341.5 52Q316 13 270 -1Q254 -18 247.5 -40.5Q241 -63 241 -87Q241 -110 253 -122.5Q265 -135 284 -135Q295 -135 304 -132.5Q313 -130 321 -126L337 -162Q327 -168 312.5 -173.5Q298 -179 275 -179Z" glyph-name="Uogonek" horiz-adv-x="429" unicode="&#370;" /><glyph d="M214 797Q234 797 245.5 809.5Q257 822 257 844Q257 864 246.5 878Q236 892 213 892Q193 892 183 878.5Q173 865 173 843Q173 820 184.5 808.5Q196 797 214 797ZM214 768Q176 768 157.5 790.5Q139 813 139 842Q139 874 159.5 897.5Q180 921 214 921Q251 921 270 899.5Q289 878 289 847Q289 813 268 790.5Q247 768 214 768ZM213 -10Q181 -10 153.5 -1Q126 8 105.5 26.5Q85 45 73.5 73.5Q62 102 62 140V713H115V150Q115 120 123 99Q131 78 145 64.5Q159 51 177.5 44.5Q196 38 217 38Q270 38 293.5 69.5Q317 101 316 148V713H366V147Q367 75 326 32.5Q285 -10 213 -10Z" glyph-name="Uring" horiz-adv-x="429" unicode="&#366;" /><glyph d="M106 789Q110 820 126.5 842Q143 864 172 864Q185 864 198 859.5Q211 855 224 850Q237 845 250 840.5Q263 836 276 836Q290 836 296.5 845Q303 854 308 871L342 864Q338 833 320.5 811.5Q303 790 276 790Q262 790 248 794.5Q234 799 220.5 804.5Q207 810 194.5 814.5Q182 819 172 819Q157 819 151 810Q145 801 141 784ZM213 -10Q181 -10 153.5 -1Q126 8 105.5 26.5Q85 45 73.5 73.5Q62 102 62 140V713H115V150Q115 120 123 99Q131 78 145 64.5Q159 51 177.5 44.5Q196 38 217 38Q270 38 293.5 69.5Q317 101 316 148V713H366V147Q367 75 326 32.5Q285 -10 213 -10Z" glyph-name="Utilde" horiz-adv-x="429" unicode="&#360;" /><glyph d="M25 713H79L188 110H190L301 713H350L216 -6H162Z" glyph-name="V" horiz-adv-x="375" unicode="V" /><glyph d="M34 713H87L158 144H160L246 713H302L388 145H390L459 713H508L414 -6H364L273 585H271L182 -6H132Z" glyph-name="W" horiz-adv-x="542" unicode="W" /><glyph d="M327 912H387L300 773H258ZM34 713H87L158 144H160L246 713H302L388 145H390L459 713H508L414 -6H364L273 585H271L182 -6H132Z" glyph-name="Wacute" horiz-adv-x="542" unicode="&#7810;" /><glyph d="M252 913H292L360 774H313L270 867L227 774H182ZM34 713H87L158 144H160L246 713H302L388 145H390L459 713H508L414 -6H364L273 585H271L182 -6H132Z" glyph-name="Wcircumflex" horiz-adv-x="542" unicode="&#372;" /><glyph d="M305 900H353V791H305ZM189 900H237V791H189ZM34 713H87L158 144H160L246 713H302L388 145H390L459 713H508L414 -6H364L273 585H271L182 -6H132Z" glyph-name="Wdieresis" horiz-adv-x="542" unicode="&#7812;" /><glyph d="M163 912H223L292 773H250ZM34 713H87L158 144H160L246 713H302L388 145H390L459 713H508L414 -6H364L273 585H271L182 -6H132Z" glyph-name="Wgrave" horiz-adv-x="542" unicode="&#7808;" /><glyph d="M154 362 32 713H88L186 425L284 713H333L211 366L342 0H287L181 302L76 0H25Z" glyph-name="X" horiz-adv-x="367" unicode="X" /><glyph d="M153 315 22 714H76L182 385L284 714H334L205 313V0H153Z" glyph-name="Y" horiz-adv-x="356" unicode="Y" /><glyph d="M233 912H293L206 773H164ZM153 315 22 714H76L182 385L284 714H334L205 313V0H153Z" glyph-name="Yacute" horiz-adv-x="356" unicode="&#221;" /><glyph d="M159 913H199L267 774H220L177 867L134 774H89ZM153 315 22 714H76L182 385L284 714H334L205 313V0H153Z" glyph-name="Ycircumflex" horiz-adv-x="356" unicode="&#374;" /><glyph d="M212 900H260V791H212ZM96 900H144V791H96ZM153 315 22 714H76L182 385L284 714H334L205 313V0H153Z" glyph-name="Ydieresis" horiz-adv-x="356" unicode="&#376;" /><glyph d="M73 912H133L202 773H160ZM153 315 22 714H76L182 385L284 714H334L205 313V0H153Z" glyph-name="Ygrave" horiz-adv-x="356" unicode="&#7922;" /><glyph d="M33 42 235 667H40V713H294V678L91 47H292V0H33Z" glyph-name="Z" horiz-adv-x="326" unicode="Z" /><glyph d="M210 912H270L183 773H141ZM33 42 235 667H40V713H294V678L91 47H292V0H33Z" glyph-name="Zacute" horiz-adv-x="326" unicode="&#377;" /><glyph d="M82 914H129L172 821L215 914H260L190 774H150ZM33 42 235 667H40V713H294V678L91 47H292V0H33Z" glyph-name="Zcaron" horiz-adv-x="326" unicode="&#381;" /><glyph d="M138 902H187V791H138ZM33 42 235 667H40V713H294V678L91 47H292V0H33Z" glyph-name="Zdotaccent" horiz-adv-x="326" unicode="&#379;" /><glyph d="M154 33Q170 33 184.5 41.5Q199 50 209.5 64.5Q220 79 226 97Q232 115 232 135V274H184Q167 274 150.5 268.5Q134 263 121 248.5Q108 234 99.5 210.5Q91 187 91 151Q91 88 109 60.5Q127 33 154 33ZM143 -9Q100 -9 70 28.5Q40 66 40 146Q40 220 79.5 265Q119 310 182 312H232V426Q232 455 215 471Q198 487 166 487Q137 487 118 472Q99 457 99 428V369H51V427Q51 472 83 500Q115 528 172 528Q223 528 252.5 500.5Q282 473 282 429V129Q282 116 282.5 98.5Q283 81 283.5 62.5Q284 44 284.5 27Q285 10 285 0H240Q240 8 239 26Q238 44 238 58H235Q222 22 194.5 6.5Q167 -9 143 -9Z" glyph-name="a" horiz-adv-x="342" unicode="a" /><glyph d="M210 717H270L183 578H141ZM154 33Q170 33 184.5 41.5Q199 50 209.5 64.5Q220 79 226 97Q232 115 232 135V274H184Q167 274 150.5 268.5Q134 263 121 248.5Q108 234 99.5 210.5Q91 187 91 151Q91 88 109 60.5Q127 33 154 33ZM143 -9Q100 -9 70 28.5Q40 66 40 146Q40 220 79.5 265Q119 310 182 312H232V426Q232 455 215 471Q198 487 166 487Q137 487 118 472Q99 457 99 428V369H51V427Q51 472 83 500Q115 528 172 528Q223 528 252.5 500.5Q282 473 282 429V129Q282 116 282.5 98.5Q283 81 283.5 62.5Q284 44 284.5 27Q285 10 285 0H240Q240 8 239 26Q238 44 238 58H235Q222 22 194.5 6.5Q167 -9 143 -9Z" glyph-name="aacute" horiz-adv-x="342" unicode="&#225;" /><glyph d="M171 583Q121 583 95 612.5Q69 642 68 696H109Q110 682 113.5 668.5Q117 655 124 644Q131 633 143 626.5Q155 620 174 620Q206 620 220 642Q234 664 234 696H274Q272 638 242.5 610.5Q213 583 171 583ZM154 33Q170 33 184.5 41.5Q199 50 209.5 64.5Q220 79 226 97Q232 115 232 135V274H184Q167 274 150.5 268.5Q134 263 121 248.5Q108 234 99.5 210.5Q91 187 91 151Q91 88 109 60.5Q127 33 154 33ZM143 -9Q100 -9 70 28.5Q40 66 40 146Q40 220 79.5 265Q119 310 182 312H232V426Q232 455 215 471Q198 487 166 487Q137 487 118 472Q99 457 99 428V369H51V427Q51 472 83 500Q115 528 172 528Q223 528 252.5 500.5Q282 473 282 429V129Q282 116 282.5 98.5Q283 81 283.5 62.5Q284 44 284.5 27Q285 10 285 0H240Q240 8 239 26Q238 44 238 58H235Q222 22 194.5 6.5Q167 -9 143 -9Z" glyph-name="abreve" horiz-adv-x="342" unicode="&#259;" /><glyph d="M152 718H192L260 579H213L170 672L127 579H82ZM154 33Q170 33 184.5 41.5Q199 50 209.5 64.5Q220 79 226 97Q232 115 232 135V274H184Q167 274 150.5 268.5Q134 263 121 248.5Q108 234 99.5 210.5Q91 187 91 151Q91 88 109 60.5Q127 33 154 33ZM143 -9Q100 -9 70 28.5Q40 66 40 146Q40 220 79.5 265Q119 310 182 312H232V426Q232 455 215 471Q198 487 166 487Q137 487 118 472Q99 457 99 428V369H51V427Q51 472 83 500Q115 528 172 528Q223 528 252.5 500.5Q282 473 282 429V129Q282 116 282.5 98.5Q283 81 283.5 62.5Q284 44 284.5 27Q285 10 285 0H240Q240 8 239 26Q238 44 238 58H235Q222 22 194.5 6.5Q167 -9 143 -9Z" glyph-name="acircumflex" horiz-adv-x="342" unicode="&#226;" /><glyph d="M124 717H184L97 578H55Z" glyph-name="acute" horiz-adv-x="207" unicode="&#180;" /><glyph d="M206 705H254V596H206ZM90 705H138V596H90ZM154 33Q170 33 184.5 41.5Q199 50 209.5 64.5Q220 79 226 97Q232 115 232 135V274H184Q167 274 150.5 268.5Q134 263 121 248.5Q108 234 99.5 210.5Q91 187 91 151Q91 88 109 60.5Q127 33 154 33ZM143 -9Q100 -9 70 28.5Q40 66 40 146Q40 220 79.5 265Q119 310 182 312H232V426Q232 455 215 471Q198 487 166 487Q137 487 118 472Q99 457 99 428V369H51V427Q51 472 83 500Q115 528 172 528Q223 528 252.5 500.5Q282 473 282 429V129Q282 116 282.5 98.5Q283 81 283.5 62.5Q284 44 284.5 27Q285 10 285 0H240Q240 8 239 26Q238 44 238 58H235Q222 22 194.5 6.5Q167 -9 143 -9Z" glyph-name="adieresis" horiz-adv-x="342" unicode="&#228;" /><glyph d="M428 291V398Q428 413 425 428.5Q422 444 413.5 456.5Q405 469 391 476.5Q377 484 356 484Q336 484 322 476Q308 468 299.5 456Q291 444 287 428.5Q283 413 283 398V291ZM159 33Q191 33 211.5 59Q232 85 232 125V274H184Q167 274 150.5 268.5Q134 263 121 248.5Q108 234 99.5 210.5Q91 187 91 151Q91 88 111.5 60.5Q132 33 159 33ZM144 -10Q100 -10 70 28Q40 66 40 146Q40 221 79.5 265.5Q119 310 182 312H232V426Q232 455 215 471Q198 487 166 487Q137 487 118 472Q99 457 99 428V369H51V427Q51 472 83 500Q115 528 172 528Q203 528 227.5 516.5Q252 505 263 482Q278 505 303 516.5Q328 528 360 528Q419 528 448 491.5Q477 455 477 395V249H283V142Q283 92 301 64Q319 36 373 36Q399 36 420.5 42.5Q442 49 458 58L473 20Q454 6 425 -1.5Q396 -9 367 -9Q323 -9 293 7.5Q263 24 249 59Q240 38 227 25Q214 12 200 4Q186 -4 171.5 -7Q157 -10 144 -10Z" glyph-name="ae" horiz-adv-x="522" unicode="&#230;" /><glyph d="M312 717H372L285 578H243ZM428 291V398Q428 413 425 428.5Q422 444 413.5 456.5Q405 469 391 476.5Q377 484 356 484Q336 484 322 476Q308 468 299.5 456Q291 444 287 428.5Q283 413 283 398V291ZM159 33Q191 33 211.5 59Q232 85 232 125V274H184Q167 274 150.5 268.5Q134 263 121 248.5Q108 234 99.5 210.5Q91 187 91 151Q91 88 111.5 60.5Q132 33 159 33ZM144 -10Q100 -10 70 28Q40 66 40 146Q40 221 79.5 265.5Q119 310 182 312H232V426Q232 455 215 471Q198 487 166 487Q137 487 118 472Q99 457 99 428V369H51V427Q51 472 83 500Q115 528 172 528Q203 528 227.5 516.5Q252 505 263 482Q278 505 303 516.5Q328 528 360 528Q419 528 448 491.5Q477 455 477 395V249H283V142Q283 92 301 64Q319 36 373 36Q399 36 420.5 42.5Q442 49 458 58L473 20Q454 6 425 -1.5Q396 -9 367 -9Q323 -9 293 7.5Q263 24 249 59Q240 38 227 25Q214 12 200 4Q186 -4 171.5 -7Q157 -10 144 -10Z" glyph-name="aeacute" horiz-adv-x="522" unicode="&#509;" /><glyph d="M69 717H129L198 578H156ZM154 33Q170 33 184.5 41.5Q199 50 209.5 64.5Q220 79 226 97Q232 115 232 135V274H184Q167 274 150.5 268.5Q134 263 121 248.5Q108 234 99.5 210.5Q91 187 91 151Q91 88 109 60.5Q127 33 154 33ZM143 -9Q100 -9 70 28.5Q40 66 40 146Q40 220 79.5 265Q119 310 182 312H232V426Q232 455 215 471Q198 487 166 487Q137 487 118 472Q99 457 99 428V369H51V427Q51 472 83 500Q115 528 172 528Q223 528 252.5 500.5Q282 473 282 429V129Q282 116 282.5 98.5Q283 81 283.5 62.5Q284 44 284.5 27Q285 10 285 0H240Q240 8 239 26Q238 44 238 58H235Q222 22 194.5 6.5Q167 -9 143 -9Z" glyph-name="agrave" horiz-adv-x="342" unicode="&#224;" /><glyph d="M125 -178Q94 -178 73 -160.5Q52 -143 52 -105Q52 -83 58.5 -63Q65 -43 75.5 -27Q86 -11 99 1Q112 13 125 21L146 6Q122 -10 108.5 -34Q95 -58 95 -87Q95 -110 104 -122.5Q113 -135 132 -135Q145 -135 161 -127L175 -163Q165 -169 153 -173.5Q141 -178 125 -178Z" glyph-name="altogonek" horiz-adv-x="214" /><glyph d="M83 643H259V597H83ZM154 33Q170 33 184.5 41.5Q199 50 209.5 64.5Q220 79 226 97Q232 115 232 135V274H184Q167 274 150.5 268.5Q134 263 121 248.5Q108 234 99.5 210.5Q91 187 91 151Q91 88 109 60.5Q127 33 154 33ZM143 -9Q100 -9 70 28.5Q40 66 40 146Q40 220 79.5 265Q119 310 182 312H232V426Q232 455 215 471Q198 487 166 487Q137 487 118 472Q99 457 99 428V369H51V427Q51 472 83 500Q115 528 172 528Q223 528 252.5 500.5Q282 473 282 429V129Q282 116 282.5 98.5Q283 81 283.5 62.5Q284 44 284.5 27Q285 10 285 0H240Q240 8 239 26Q238 44 238 58H235Q222 22 194.5 6.5Q167 -9 143 -9Z" glyph-name="amacron" horiz-adv-x="342" unicode="&#257;" /><glyph d="M201 414Q252 445 273.5 485.5Q295 526 295 583Q295 625 275 654.5Q255 684 218 684Q197 684 182.5 675.5Q168 667 159 652.5Q150 638 145.5 619Q141 600 141 580Q141 545 158 503.5Q175 462 201 414ZM198 36Q234 36 262.5 61.5Q291 87 308 118Q307 119 297.5 136Q288 153 273.5 178.5Q259 204 242 233Q225 262 211 287.5Q197 313 187 330Q177 347 177 348Q153 334 137.5 315Q122 296 113 274.5Q104 253 100.5 229.5Q97 206 97 182Q97 156 103 130Q109 104 121.5 83Q134 62 153 49Q172 36 198 36ZM192 -12Q153 -12 124.5 3.5Q96 19 78 45.5Q60 72 51.5 107Q43 142 43 180Q43 210 48.5 240Q54 270 67 297.5Q80 325 101.5 348.5Q123 372 155 390Q128 434 108.5 482.5Q89 531 89 576Q89 602 95.5 629Q102 656 118 677.5Q134 699 159 712.5Q184 726 222 726Q253 726 276.5 714Q300 702 315.5 682.5Q331 663 338.5 638Q346 613 346 586Q346 450 222 377Q222 376 230.5 361Q239 346 252 324Q265 302 279.5 276.5Q294 251 307 229Q320 207 328.5 192Q337 177 337 177Q347 209 355 241.5Q363 274 370 313L415 307Q407 260 394 215Q381 170 363 125Q363 124 374.5 105Q386 86 399 63Q412 40 423.5 20.5Q435 1 435 0H376L330 77Q307 38 272 13Q237 -12 192 -12Z" glyph-name="ampersand" horiz-adv-x="458" unicode="&amp;" /><glyph d="M154 33Q170 33 184.5 41.5Q199 50 209.5 64.5Q220 79 226 97Q232 115 232 135V274H184Q167 274 150.5 268.5Q134 263 121 248.5Q108 234 99.5 210.5Q91 187 91 151Q91 88 109 60.5Q127 33 154 33ZM267 -179Q236 -179 213 -161Q190 -143 190 -105Q190 -70 205 -43.5Q220 -17 240 1Q240 9 239 26.5Q238 44 238 58H235Q222 22 194.5 6.5Q167 -9 143 -9Q100 -9 70 28.5Q40 66 40 146Q40 220 79.5 265Q119 310 182 312H232V426Q232 455 215 471Q198 487 166 487Q137 487 118 472Q99 457 99 428V369H51V427Q51 472 83 500Q115 528 172 528Q223 528 252.5 500.5Q282 473 282 429V129Q282 116 282.5 98.5Q283 81 283.5 62.5Q284 44 284.5 27Q285 10 285 0H280Q257 -16 245 -37Q233 -58 233 -87Q233 -110 245 -122.5Q257 -135 276 -135Q287 -135 296 -132.5Q305 -130 313 -126L329 -162Q319 -168 304.5 -173.5Q290 -179 267 -179Z" glyph-name="aogonek" horiz-adv-x="342" unicode="&#261;" /><glyph d="M480 -81 462 -83 455 -76Q472 -71 479.5 -69.5Q487 -68 496 -65Q514 -59 524.5 -50.5Q535 -42 540.5 -33.5Q546 -25 548.5 -17Q551 -9 552 -4Q553 10 555 33Q557 56 559 85.5Q561 115 562.5 148.5Q564 182 566 217L467 214L469 226L567 232Q569 267 570.5 300.5Q572 334 573.5 363.5Q575 393 576 416Q577 439 577 453L616 476Q572 478 526.5 479.5Q481 481 436 483Q435 445 433 407Q431 369 429 343Q425 264 401.5 210.5Q378 157 348 124.5Q318 92 286.5 78Q255 64 234 64Q218 64 196 68.5Q174 73 151.5 79.5Q129 86 110 93.5Q91 101 82 106L105 144Q110 143 129 135Q148 127 172.5 118.5Q197 110 222 103Q247 96 265 96Q289 96 312.5 114Q336 132 353.5 160.5Q371 189 381.5 224.5Q392 260 391 297L396 484Q380 484 365 484.5Q350 485 334 485Q305 485 277 473.5Q249 462 227 442Q205 422 191.5 395Q178 368 178 337Q196 296 256 269Q256 266 254 261Q252 256 249.5 250Q247 244 244.5 239Q242 234 240 232Q219 241 205 253Q191 265 182.5 278Q174 291 170.5 304.5Q167 318 166 329Q166 366 181 398Q196 430 222.5 455Q249 480 285.5 497Q322 514 365 522H397L402 690L442 708Q384 710 323 713Q262 716 196 716Q167 716 139 705Q111 694 89 674.5Q67 655 53.5 628Q40 601 40 570Q58 532 119 506Q119 504 116 498.5Q113 493 109.5 487Q106 481 102.5 476Q99 471 98 469Q76 478 62 490Q48 502 40 515Q32 528 28 541.5Q24 555 23 566Q23 603 40 634Q57 665 84.5 689Q112 713 146 729.5Q180 746 213 755Q300 755 382.5 750Q465 745 561 743Q579 743 592 742.5Q605 742 624 741Q631 741 644.5 740.5Q658 740 664 740Q677 739 683 740Q689 741 698 743Q704 748 710.5 756Q717 764 720 771L728 768Q724 758 716.5 747.5Q709 737 704 733Q674 718 649 711Q624 704 589 704Q554 704 518.5 705Q483 706 447 708Q445 699 444 679.5Q443 660 442.5 638.5Q442 617 441.5 598.5Q441 580 440 572L438 521Q532 518 635 512.5Q738 507 839 507Q837 507 855 506.5Q873 506 899.5 507Q926 508 953 511Q980 514 996 522L1000 516Q947 493 894.5 483Q842 473 774 473Q704 473 625 476Q623 463 621 435Q619 407 617 377Q615 347 613.5 321Q612 295 611 287Q611 277 610.5 264Q610 251 609 234L758 244H762L766 241L731 188L724 192L747 228Q717 226 681.5 223Q646 220 608 218L595 24Q594 15 588.5 4Q583 -7 575 -18.5Q567 -30 557.5 -39Q548 -48 539 -52L540 -53Q580 -46 624.5 -47Q669 -48 708 -45V-46Q708 -57 699.5 -68.5Q691 -80 679 -82Q671 -84 660.5 -84Q650 -84 636 -84Z" glyph-name="apple" horiz-adv-x="1022" unicode="&#63743;" /><glyph d="M54 348Q58 379 72.5 401.5Q87 424 117 424Q131 424 153 420Q175 416 198.5 410.5Q222 405 243.5 401Q265 397 277 397Q291 397 297.5 406.5Q304 416 308 432L341 426Q337 394 322 372Q307 350 279 350Q265 350 242.5 354.5Q220 359 196 364Q172 369 150.5 373.5Q129 378 117 378Q103 378 96.5 369Q90 360 86 343ZM54 225Q58 256 72.5 278.5Q87 301 117 301Q131 301 153 297Q175 293 198.5 287.5Q222 282 243.5 278Q265 274 277 274Q291 274 297.5 283Q304 292 308 309L341 303Q337 271 322 249Q307 227 279 227Q265 227 242.5 231.5Q220 236 196 241Q172 246 150.5 250.5Q129 255 117 255Q103 255 96.5 246Q90 237 86 220Z" glyph-name="approxequal" horiz-adv-x="395" unicode="&#8776;" /><glyph d="M167 602Q187 602 198.5 614.5Q210 627 210 649Q210 669 199.5 683Q189 697 166 697Q146 697 136 683.5Q126 670 126 648Q126 625 137.5 613.5Q149 602 167 602ZM167 573Q129 573 110.5 595.5Q92 618 92 647Q92 679 112.5 702.5Q133 726 167 726Q204 726 223 704.5Q242 683 242 652Q242 618 221 595.5Q200 573 167 573ZM154 33Q170 33 184.5 41.5Q199 50 209.5 64.5Q220 79 226 97Q232 115 232 135V274H184Q167 274 150.5 268.5Q134 263 121 248.5Q108 234 99.5 210.5Q91 187 91 151Q91 88 109 60.5Q127 33 154 33ZM143 -9Q100 -9 70 28.5Q40 66 40 146Q40 220 79.5 265Q119 310 182 312H232V426Q232 455 215 471Q198 487 166 487Q137 487 118 472Q99 457 99 428V369H51V427Q51 472 83 500Q115 528 172 528Q223 528 252.5 500.5Q282 473 282 429V129Q282 116 282.5 98.5Q283 81 283.5 62.5Q284 44 284.5 27Q285 10 285 0H240Q240 8 239 26Q238 44 238 58H235Q222 22 194.5 6.5Q167 -9 143 -9Z" glyph-name="aring" horiz-adv-x="342" unicode="&#229;" /><glyph d="M173 601Q192 601 204 613.5Q216 626 216 649Q216 669 205.5 682.5Q195 696 173 696Q153 696 142.5 682.5Q132 669 132 647Q132 624 143.5 612.5Q155 601 173 601ZM173 573Q134 573 116 596Q98 619 98 646Q98 660 102.5 674Q107 688 115 699L179 793L231 785L176 723Q213 721 230.5 700.5Q248 680 248 651Q248 618 227 595.5Q206 573 173 573ZM154 33Q170 33 184.5 41.5Q199 50 209.5 64.5Q220 79 226 97Q232 115 232 135V274H184Q167 274 150.5 268.5Q134 263 121 248.5Q108 234 99.5 210.5Q91 187 91 151Q91 88 109 60.5Q127 33 154 33ZM143 -9Q100 -9 70 28.5Q40 66 40 146Q40 220 79.5 265Q119 310 182 312H232V426Q232 455 215 471Q198 487 166 487Q137 487 118 472Q99 457 99 428V369H51V427Q51 472 83 500Q115 528 172 528Q223 528 252.5 500.5Q282 473 282 429V129Q282 116 282.5 98.5Q283 81 283.5 62.5Q284 44 284.5 27Q285 10 285 0H240Q240 8 239 26Q238 44 238 58H235Q222 22 194.5 6.5Q167 -9 143 -9Z" glyph-name="aringacute" horiz-adv-x="342" unicode="&#507;" /><glyph d="M74 329 101 356 190 269V520H228V269L316 357L343 329L211 201H206Z" glyph-name="arrowdown" horiz-adv-x="418" unicode="&#8595;" /><glyph d="M48 358V363L176 495L204 468L116 379H367V341H116L203 252L176 226Z" glyph-name="arrowleft" horiz-adv-x="418" unicode="&#8592;" /><glyph d="M212 252 300 341H49V379H300L212 468L239 495L368 363V358L239 226Z" glyph-name="arrowright" horiz-adv-x="418" unicode="&#8594;" /><glyph d="M190 452 101 364 74 391 206 520H211L343 391L317 364L228 452V201H190Z" glyph-name="arrowup" horiz-adv-x="418" unicode="&#8593;" /><glyph d="M144 502H188L247 220H205L165 427Q153 369 143 324Q139 304 135 285.5Q131 267 128 252.5Q125 238 123 229Q121 220 121 220H78Z" glyph-name="asciicircum" horiz-adv-x="327" unicode="^" /><glyph d="M54 277Q58 309 72.5 331Q87 353 117 353Q131 353 153 349Q175 345 198.5 339.5Q222 334 243.5 330Q265 326 277 326Q291 326 297.5 335Q304 344 308 361L341 355Q337 323 322 301Q307 279 279 279Q265 279 242.5 283.5Q220 288 196 293Q172 298 150.5 302.5Q129 307 117 307Q103 307 96.5 298Q90 289 86 272Z" glyph-name="asciitilde" horiz-adv-x="395" unicode="~" /><glyph d="M54 489 112 577 23 632 42 663 131 610V714H168V610L255 663L275 632L185 577L244 489L213 468L149 561L85 468Z" glyph-name="asterisk" horiz-adv-x="297" unicode="*" /><glyph d="M295 100Q312 100 328.5 108.5Q345 117 358.5 132Q372 147 381.5 166.5Q391 186 395 209L423 395Q424 400 424.5 405Q425 410 425 414Q425 452 406 471.5Q387 491 358 491Q324 491 302.5 469Q281 447 274 408L240 176Q239 171 238.5 164.5Q238 158 238 153Q238 130 250.5 115Q263 100 295 100ZM348 -78Q297 -78 253 -66Q209 -54 174 -29Q110 12 75 87Q40 162 41 268Q41 355 63.5 428.5Q86 502 128 556Q170 610 230 640Q290 670 364 670Q417 670 465 652Q513 634 549.5 596.5Q586 559 607.5 501.5Q629 444 629 366Q629 295 610.5 240.5Q592 186 562 148.5Q532 111 493.5 90.5Q455 70 415 67H375L384 130H382Q358 88 327 73.5Q296 59 272 59Q229 59 208.5 82Q188 105 188 139Q188 145 188.5 150.5Q189 156 190 161Q190 162 194.5 191Q199 220 205 260Q211 300 217.5 343.5Q224 387 229 419Q238 473 274 502Q310 531 352 531Q379 531 402 518Q425 505 432 476H433L443 528H490L424 104Q461 105 491.5 127Q522 149 544 185Q566 221 578.5 267Q591 313 591 363Q591 433 573 485Q555 537 524 571Q493 605 451.5 621.5Q410 638 362 638Q294 638 241.5 609.5Q189 581 153 531Q117 481 98 414Q79 347 79 271Q79 173 109.5 102.5Q140 32 202 -6Q233 -25 270.5 -35Q308 -45 353 -45Q394 -45 430 -39.5Q466 -34 503 -23L508 -52Q473 -65 432.5 -71.5Q392 -78 348 -78Z" glyph-name="at" horiz-adv-x="668" unicode="@" /><glyph d="M55 594Q59 625 75.5 647Q92 669 121 669Q134 669 147 664.5Q160 660 173 655Q186 650 199 645.5Q212 641 225 641Q239 641 245.5 650Q252 659 257 676L291 669Q287 638 269.5 616.5Q252 595 225 595Q211 595 197 599.5Q183 604 169.5 609.5Q156 615 143.5 619.5Q131 624 121 624Q106 624 100 615Q94 606 90 589ZM154 33Q170 33 184.5 41.5Q199 50 209.5 64.5Q220 79 226 97Q232 115 232 135V274H184Q167 274 150.5 268.5Q134 263 121 248.5Q108 234 99.5 210.5Q91 187 91 151Q91 88 109 60.5Q127 33 154 33ZM143 -9Q100 -9 70 28.5Q40 66 40 146Q40 220 79.5 265Q119 310 182 312H232V426Q232 455 215 471Q198 487 166 487Q137 487 118 472Q99 457 99 428V369H51V427Q51 472 83 500Q115 528 172 528Q223 528 252.5 500.5Q282 473 282 429V129Q282 116 282.5 98.5Q283 81 283.5 62.5Q284 44 284.5 27Q285 10 285 0H240Q240 8 239 26Q238 44 238 58H235Q222 22 194.5 6.5Q167 -9 143 -9Z" glyph-name="atilde" horiz-adv-x="342" unicode="&#227;" /><glyph d="M200 36Q264 36 264 110V411Q264 440 250 461.5Q236 483 198 483Q181 483 166.5 473.5Q152 464 140.5 448Q129 432 122.5 410.5Q116 389 116 366V146Q116 125 122.5 105Q129 85 140.5 70Q152 55 167 45.5Q182 36 200 36ZM205 -9Q175 -9 149 8Q123 25 113 54H112L110 0H66V713H116V463H118Q135 499 163 513.5Q191 528 216 528Q241 528 260 519Q279 510 291 495.5Q303 481 309 462.5Q315 444 315 425V105Q315 76 306 54.5Q297 33 282 19Q267 5 247 -2Q227 -9 205 -9Z" glyph-name="b" horiz-adv-x="365" unicode="b" /><glyph d="M14 716H56L231 -169H187Z" glyph-name="backslash" horiz-adv-x="230" unicode="\" /><glyph d="M93 714H132V-104H93Z" glyph-name="bar" horiz-adv-x="225" unicode="|" /><glyph d="M45 541H406V0H45Z" glyph-name="blacksmallsquare" horiz-adv-x="451" unicode="&#9642;" /><glyph d="M42 714H482L483 0H42Z" glyph-name="blacksquare" horiz-adv-x="525" unicode="&#9632;" /><glyph d="M115 -168Q89 -168 74.5 -154.5Q60 -141 60 -113V232Q60 252 53.5 263.5Q47 275 28 277V317Q48 320 54 331Q60 342 60 359V652Q60 680 75 696.5Q90 713 116 713H187V677H124Q116 677 112 672Q108 667 108 653V364Q108 342 100 325Q92 308 72 300V297Q92 289 100 272.5Q108 256 108 233V-108Q108 -122 112 -127Q116 -132 124 -132H187V-168Z" glyph-name="braceleft" horiz-adv-x="205" unicode="{" /><glyph d="M14 -132H77Q85 -132 89.5 -127Q94 -122 94 -108V233Q94 256 102 272.5Q110 289 130 297V300Q110 308 102 325Q94 342 94 364V654Q94 668 89.5 673Q85 678 77 678H14V714H86Q112 714 126.5 697.5Q141 681 141 653V359Q141 342 147 331Q153 320 173 317V277Q154 275 147.5 263.5Q141 252 141 232V-113Q141 -168 86 -168H14Z" glyph-name="braceright" horiz-adv-x="205" unicode="}" /><glyph d="M52 713H178V676H100V-131H178V-168H52Z" glyph-name="bracketleft" horiz-adv-x="195" unicode="[" /><glyph d="M17 -130H95V676H17V713H144V-168H17Z" glyph-name="bracketright" horiz-adv-x="195" unicode="]" /><glyph d="M146 583Q96 583 70 612.5Q44 642 43 696H84Q85 682 88.5 668.5Q92 655 99 644Q106 633 118 626.5Q130 620 149 620Q181 620 195 642Q209 664 209 696H249Q247 638 217.5 610.5Q188 583 146 583Z" glyph-name="breve" horiz-adv-x="291" unicode="&#728;" /><glyph d="M94 719H135V381H94ZM94 310H135V-43H94Z" glyph-name="brokenbar" horiz-adv-x="246" unicode="&#166;" /><glyph d="M173 235Q150 235 129.5 244Q109 253 94 268Q79 283 70 303Q61 323 61 346Q61 369 70 389Q79 409 94 424Q109 439 129.5 448Q150 457 173 457Q195 457 215 448Q235 439 250 424Q265 409 274 389Q283 369 283 346Q283 323 274.5 303Q266 283 251 268Q236 253 216 244Q196 235 173 235Z" glyph-name="bullet" horiz-adv-x="345" unicode="&#8226;" /><glyph d="M174 -9Q114 -9 82 26Q50 61 50 127V393Q50 460 86 494Q122 528 177 528Q207 528 229 519Q251 510 265.5 495Q280 480 287 460.5Q294 441 294 420V364H248V416Q248 428 244.5 440Q241 452 233 462Q225 472 211.5 478.5Q198 485 177 485Q156 485 141.5 477.5Q127 470 118 458Q109 446 105 430.5Q101 415 101 399V123Q101 106 104.5 90Q108 74 116.5 62Q125 50 139.5 42.5Q154 35 176 35Q200 35 214 43Q228 51 235.5 62Q243 73 245.5 86Q248 99 248 109V157H294V104Q294 54 264 22.5Q234 -9 174 -9Z" glyph-name="c" horiz-adv-x="336" unicode="c" /><glyph d="M213 717H273L186 578H144ZM174 -9Q114 -9 82 26Q50 61 50 127V393Q50 460 86 494Q122 528 177 528Q207 528 229 519Q251 510 265.5 495Q280 480 287 460.5Q294 441 294 420V364H248V416Q248 428 244.5 440Q241 452 233 462Q225 472 211.5 478.5Q198 485 177 485Q156 485 141.5 477.5Q127 470 118 458Q109 446 105 430.5Q101 415 101 399V123Q101 106 104.5 90Q108 74 116.5 62Q125 50 139.5 42.5Q154 35 176 35Q200 35 214 43Q228 51 235.5 62Q243 73 245.5 86Q248 99 248 109V157H294V104Q294 54 264 22.5Q234 -9 174 -9Z" glyph-name="cacute" horiz-adv-x="336" unicode="&#263;" /><glyph d="M50 719H97L140 626L183 719H228L158 579H118Z" glyph-name="caron" horiz-adv-x="275" unicode="&#711;" /><glyph d="M54 713H108L85 568H50Z" glyph-name="caronSlovak" horiz-adv-x="157" unicode="&#58387;" /><glyph d="M87 719H134L177 626L220 719H265L195 579H155ZM174 -9Q114 -9 82 26Q50 61 50 127V393Q50 460 86 494Q122 528 177 528Q207 528 229 519Q251 510 265.5 495Q280 480 287 460.5Q294 441 294 420V364H248V416Q248 428 244.5 440Q241 452 233 462Q225 472 211.5 478.5Q198 485 177 485Q156 485 141.5 477.5Q127 470 118 458Q109 446 105 430.5Q101 415 101 399V123Q101 106 104.5 90Q108 74 116.5 62Q125 50 139.5 42.5Q154 35 176 35Q200 35 214 43Q228 51 235.5 62Q243 73 245.5 86Q248 99 248 109V157H294V104Q294 54 264 22.5Q234 -9 174 -9Z" glyph-name="ccaron" horiz-adv-x="336" unicode="&#269;" /><glyph d="M180 -179Q167 -179 149.5 -177Q132 -175 115 -170V-131Q132 -135 146 -137Q160 -139 177 -139Q196 -139 207.5 -133Q219 -127 219 -112Q219 -86 170 -83L146 -81L162 -8Q108 -5 79 29.5Q50 64 50 127V393Q50 460 86 494Q122 528 177 528Q207 528 229 519Q251 510 265.5 495Q280 480 287 460.5Q294 441 294 420V364H248V416Q248 428 244.5 440Q241 452 233 462Q225 472 211.5 478.5Q198 485 177 485Q156 485 141.5 477.5Q127 470 118 458Q109 446 105 430.5Q101 415 101 399V123Q101 106 104.5 90Q108 74 116.5 62Q125 50 139.5 42.5Q154 35 176 35Q200 35 214 43Q228 51 235.5 62Q243 73 245.5 86Q248 99 248 109V157H294V104Q294 59 269 28.5Q244 -2 195 -7L184 -54Q199 -55 213.5 -58Q228 -61 239.5 -67.5Q251 -74 258 -85Q265 -96 265 -112Q265 -141 240.5 -160Q216 -179 180 -179Z" glyph-name="ccedilla" horiz-adv-x="336" unicode="&#231;" /><glyph d="M158 718H198L266 579H219L176 672L133 579H88ZM174 -9Q114 -9 82 26Q50 61 50 127V393Q50 460 86 494Q122 528 177 528Q207 528 229 519Q251 510 265.5 495Q280 480 287 460.5Q294 441 294 420V364H248V416Q248 428 244.5 440Q241 452 233 462Q225 472 211.5 478.5Q198 485 177 485Q156 485 141.5 477.5Q127 470 118 458Q109 446 105 430.5Q101 415 101 399V123Q101 106 104.5 90Q108 74 116.5 62Q125 50 139.5 42.5Q154 35 176 35Q200 35 214 43Q228 51 235.5 62Q243 73 245.5 86Q248 99 248 109V157H294V104Q294 54 264 22.5Q234 -9 174 -9Z" glyph-name="ccircumflex" horiz-adv-x="336" unicode="&#265;" /><glyph d="M150 707H199V596H150ZM174 -9Q114 -9 82 26Q50 61 50 127V393Q50 460 86 494Q122 528 177 528Q207 528 229 519Q251 510 265.5 495Q280 480 287 460.5Q294 441 294 420V364H248V416Q248 428 244.5 440Q241 452 233 462Q225 472 211.5 478.5Q198 485 177 485Q156 485 141.5 477.5Q127 470 118 458Q109 446 105 430.5Q101 415 101 399V123Q101 106 104.5 90Q108 74 116.5 62Q125 50 139.5 42.5Q154 35 176 35Q200 35 214 43Q228 51 235.5 62Q243 73 245.5 86Q248 99 248 109V157H294V104Q294 54 264 22.5Q234 -9 174 -9Z" glyph-name="cdotaccent" horiz-adv-x="336" unicode="&#267;" /><glyph d="M108 -179Q95 -179 77.5 -177Q60 -175 43 -170V-131Q60 -135 74 -137Q88 -139 105 -139Q124 -139 135.5 -133Q147 -127 147 -112Q147 -86 98 -83L74 -81L95 10H127L112 -54Q127 -55 141.5 -58Q156 -61 167.5 -67.5Q179 -74 186 -85Q193 -96 193 -112Q193 -141 168.5 -160Q144 -179 108 -179Z" glyph-name="cedilla" horiz-adv-x="246" unicode="&#184;" /><glyph d="M149 25Q97 30 70.5 64Q44 98 44 158V405Q44 465 72.5 498Q101 531 149 536V618H194V536Q243 529 266 498Q289 467 289 426V370H242V427Q242 438 239 450Q236 462 227.5 472Q219 482 205.5 488.5Q192 495 171 495Q149 495 134.5 488Q120 481 111.5 469Q103 457 99.5 441.5Q96 426 96 410V155Q96 138 99.5 121.5Q103 105 111.5 92.5Q120 80 134.5 72.5Q149 65 171 65Q195 65 209 73Q223 81 230.5 92Q238 103 240 116Q242 129 242 140V200H289V135Q289 91 265.5 61Q242 31 194 26V-54H149Z" glyph-name="cent" horiz-adv-x="331" unicode="&#162;" /><glyph d="M120 718H160L228 579H181L138 672L95 579H50Z" glyph-name="circumflex" horiz-adv-x="275" unicode="&#710;" /><glyph d="M52 509H104V409H52ZM51 100H104V0H51Z" glyph-name="colon" horiz-adv-x="154" unicode=":" /><glyph d="M69 3H51V100H104V6L80 -94H51Z" glyph-name="comma" horiz-adv-x="154" unicode="," /><glyph d="M54 1H38V73H81V3L64 -68H40Z" glyph-name="comma.dnom" horiz-adv-x="119" unicode="&#58381;" /><glyph d="M54 319H38V391H81V321L64 250H40Z" glyph-name="comma.numr" horiz-adv-x="119" unicode="&#58401;" /><glyph d="M54 -132H38V-60H81V-130L64 -201H40Z" glyph-name="comma.sub" horiz-adv-x="119" /><glyph d="M54 381H38V453H81V383L64 312H40Z" glyph-name="comma.sup" horiz-adv-x="119" /><glyph d="M53 -39H107L88 -172H51Z" glyph-name="commaaccent" horiz-adv-x="155" unicode="&#58388;" /><glyph d="M55 660 77 723H103L88 663H103V596H55Z" glyph-name="commatop" horiz-adv-x="158" /><glyph d="M342 11Q399 11 446 35Q493 59 526.5 104Q560 149 578 212Q596 275 596 353Q596 432 577.5 495.5Q559 559 525.5 602.5Q492 646 444.5 669.5Q397 693 340 693Q282 693 235 669Q188 645 154.5 601Q121 557 103 494Q85 431 85 353Q85 272 103 208.5Q121 145 155 101Q189 57 236 34Q283 11 342 11ZM340 -24Q264 -24 208 5Q152 34 115.5 84.5Q79 135 61.5 204Q44 273 44 353Q44 429 63.5 497Q83 565 120.5 616Q158 667 213 696.5Q268 726 340 726Q415 726 470.5 695.5Q526 665 562.5 613Q599 561 617.5 493.5Q636 426 636 353Q636 276 617.5 207.5Q599 139 562.5 87.5Q526 36 470.5 6Q415 -24 340 -24ZM340 83Q278 83 245.5 117.5Q213 152 213 214V483Q213 545 246.5 581Q280 617 341 617Q401 617 431 585Q461 553 461 505V421H413V502Q413 514 409.5 525.5Q406 537 397.5 547Q389 557 375.5 563Q362 569 342 569Q320 569 305.5 561.5Q291 554 282 541.5Q273 529 269.5 513Q266 497 266 480V219Q266 181 282.5 156.5Q299 132 341 132Q362 132 376 138.5Q390 145 398.5 155.5Q407 166 410 178Q413 190 413 201V279H461V200Q461 150 430.5 116.5Q400 83 340 83Z" glyph-name="copyright" horiz-adv-x="680" unicode="&#169;" /><glyph d="M152 267Q187 267 207.5 288.5Q228 310 228 348Q228 385 205 406.5Q182 428 153 428Q118 428 97 407Q76 386 76 345Q76 314 97 290.5Q118 267 152 267ZM32 250 62 280Q50 296 44.5 313.5Q39 331 39 348Q39 383 61 413Q55 418 45.5 427.5Q36 437 31 442L58 469L87 440Q101 451 117.5 456Q134 461 151 461Q188 461 217 441L247 471L274 444L244 415Q255 399 261 381.5Q267 364 267 347Q267 312 244 280L274 251L248 225L218 254Q187 234 153 234Q120 234 88 253L59 223Z" glyph-name="currency" horiz-adv-x="305" unicode="&#164;" /><glyph d="M166 37Q184 37 199.5 47Q215 57 226.5 74Q238 91 244 112.5Q250 134 250 157V372Q250 393 243 413.5Q236 434 224.5 449.5Q213 465 198 474.5Q183 484 166 484Q136 484 118.5 466Q101 448 101 406V111Q101 79 115 58Q129 37 166 37ZM150 -8Q124 -8 105 0.5Q86 9 74 23.5Q62 38 56 56.5Q50 75 50 95V414Q50 441 58.5 462Q67 483 82 498Q97 513 117 520.5Q137 528 159 528Q186 528 210.5 514.5Q235 501 248 472H249V713H300V0H259L256 63H253Q244 42 231.5 28.5Q219 15 205 6.5Q191 -2 176.5 -5Q162 -8 150 -8Z" glyph-name="d" horiz-adv-x="366" unicode="d" /><glyph d="M158 498H42V541H158V714H205V541H320V498H205V-108H158Z" glyph-name="dagger" horiz-adv-x="362" unicode="&#8224;" /><glyph d="M158 80H42V124H158V498H42V541H158V714H205V541H320V498H205V124H320V80H205V-108H158Z" glyph-name="daggerdbl" horiz-adv-x="362" unicode="&#8225;" /><glyph d="M337 713H391L368 568H333ZM166 37Q184 37 199.5 47Q215 57 226.5 74Q238 91 244 112.5Q250 134 250 157V372Q250 393 243 413.5Q236 434 224.5 449.5Q213 465 198 474.5Q183 484 166 484Q136 484 118.5 466Q101 448 101 406V111Q101 79 115 58Q129 37 166 37ZM150 -8Q124 -8 105 0.5Q86 9 74 23.5Q62 38 56 56.5Q50 75 50 95V414Q50 441 58.5 462Q67 483 82 498Q97 513 117 520.5Q137 528 159 528Q186 528 210.5 514.5Q235 501 248 472H249V713H300V0H259L256 63H253Q244 42 231.5 28.5Q219 15 205 6.5Q191 -2 176.5 -5Q162 -8 150 -8Z" glyph-name="dcaron" horiz-adv-x="366" unicode="&#271;" /><glyph d="M166 37Q184 37 199.5 47Q215 57 226.5 74Q238 91 244 112.5Q250 134 250 157V372Q250 393 243 413.5Q236 434 224.5 449.5Q213 465 198 474.5Q183 484 166 484Q136 484 118.5 466Q101 448 101 406V111Q101 79 115 58Q129 37 166 37ZM154 641H249V713H300V641H336V602H300V0H259L256 63H253Q244 42 231.5 28.5Q219 15 205 6.5Q191 -2 176.5 -5Q162 -8 150 -8Q124 -8 105 0.5Q86 9 74 23.5Q62 38 56 56.5Q50 75 50 95V414Q50 441 58.5 462Q67 483 82 498Q97 513 117 520.5Q137 528 159 528Q186 528 210.5 514.5Q235 501 248 472H249V602H154Z" glyph-name="dcroat" horiz-adv-x="366" unicode="&#273;" /><glyph d="M113 587Q134 587 148 602.5Q162 618 162 639Q162 662 148 677Q134 692 113 692Q92 692 78 677Q64 662 64 639Q64 618 78 602.5Q92 587 113 587ZM113 558Q78 558 56 582Q34 606 34 639Q34 673 56.5 697.5Q79 722 113 722Q148 722 170.5 697.5Q193 673 193 639Q193 606 170 582Q147 558 113 558Z" glyph-name="degree" horiz-adv-x="227" unicode="&#176;" /><glyph d="M173 705H221V596H173ZM57 705H105V596H57Z" glyph-name="dieresis" horiz-adv-x="277" unicode="&#168;" /><glyph d="M174 487H223V399H174ZM55 341H340V298H55ZM174 232H223V143H174Z" glyph-name="divide" horiz-adv-x="395" unicode="&#247;" /><glyph d="M158 26Q104 32 70.5 69Q37 106 32 173L80 175Q85 124 107.5 94.5Q130 65 178 65Q202 65 218 74Q234 83 244.5 97.5Q255 112 259.5 130.5Q264 149 264 168Q264 200 249 235.5Q234 271 207 301L120 399Q90 434 68 471.5Q46 509 46 548Q46 599 75 635.5Q104 672 158 678V747H200V679Q245 674 274 644Q303 614 308 546L264 545Q260 599 235.5 620Q211 641 176 641Q139 641 116 619.5Q93 598 93 552Q93 520 112.5 489Q132 458 159 426L237 341Q271 299 291 260Q311 221 311 173Q311 112 282.5 73.5Q254 35 200 27V-34H158Z" glyph-name="dollar" horiz-adv-x="341" unicode="$" /><glyph d="M57 707H106V596H57Z" glyph-name="dotaccent" horiz-adv-x="163" unicode="&#729;" /><glyph d="M66 518H116V0H66Z" glyph-name="dotlessi" horiz-adv-x="182" unicode="&#305;" /><glyph d="M35 -170Q16 -170 0 -167V-126H23Q47 -126 56.5 -112Q66 -98 66 -73V518H116V-81Q116 -119 96.5 -144.5Q77 -170 35 -170Z" glyph-name="dotlessj" horiz-adv-x="182" unicode="&#567;" /><glyph d="M247 291V398Q247 413 243.5 428.5Q240 444 232 456.5Q224 469 209.5 476.5Q195 484 174 484Q154 484 140 476Q126 468 117.5 455.5Q109 443 105 427.5Q101 412 101 396V291ZM185 -9Q121 -9 85.5 25Q50 59 50 133V385Q50 453 85 490.5Q120 528 179 528Q238 528 266.5 491Q295 454 295 395V249H101V142Q101 90 120 63Q139 36 192 36Q217 36 238.5 43Q260 50 276 58L291 20Q270 6 242 -1.5Q214 -9 185 -9Z" glyph-name="e" horiz-adv-x="340" unicode="e" /><glyph d="M247 291V398Q247 413 243.5 428.5Q240 444 232 456.5Q224 469 209.5 476.5Q195 484 174 484Q154 484 140 476Q126 468 117.5 455.5Q109 443 105 427.5Q101 412 101 396V291ZM185 -9Q121 -9 85.5 25Q50 59 50 133V385Q50 453 85 490.5Q120 528 179 528Q238 528 266.5 491Q295 454 295 395V249H101V142Q101 90 120 63Q139 36 192 36Q217 36 238.5 43Q260 50 276 58L291 20Q270 6 242 -1.5Q214 -9 185 -9ZM222 717H282L195 578H153Z" glyph-name="eacute" horiz-adv-x="340" unicode="&#233;" /><glyph d="M178 583Q128 583 102 612.5Q76 642 75 696H116Q117 682 120.5 668.5Q124 655 131 644Q138 633 150 626.5Q162 620 181 620Q213 620 227 642Q241 664 241 696H281Q279 638 249.5 610.5Q220 583 178 583ZM247 291V398Q247 413 243.5 428.5Q240 444 232 456.5Q224 469 209.5 476.5Q195 484 174 484Q154 484 140 476Q126 468 117.5 455.5Q109 443 105 427.5Q101 412 101 396V291ZM185 -9Q121 -9 85.5 25Q50 59 50 133V385Q50 453 85 490.5Q120 528 179 528Q238 528 266.5 491Q295 454 295 395V249H101V142Q101 90 120 63Q139 36 192 36Q217 36 238.5 43Q260 50 276 58L291 20Q270 6 242 -1.5Q214 -9 185 -9Z" glyph-name="ebreve" horiz-adv-x="340" unicode="&#277;" /><glyph d="M81 719H128L171 626L214 719H259L189 579H149ZM247 291V398Q247 413 243.5 428.5Q240 444 232 456.5Q224 469 209.5 476.5Q195 484 174 484Q154 484 140 476Q126 468 117.5 455.5Q109 443 105 427.5Q101 412 101 396V291ZM185 -9Q121 -9 85.5 25Q50 59 50 133V385Q50 453 85 490.5Q120 528 179 528Q238 528 266.5 491Q295 454 295 395V249H101V142Q101 90 120 63Q139 36 192 36Q217 36 238.5 43Q260 50 276 58L291 20Q270 6 242 -1.5Q214 -9 185 -9Z" glyph-name="ecaron" horiz-adv-x="340" unicode="&#283;" /><glyph d="M247 291V398Q247 413 243.5 428.5Q240 444 232 456.5Q224 469 209.5 476.5Q195 484 174 484Q154 484 140 476Q126 468 117.5 455.5Q109 443 105 427.5Q101 412 101 396V291ZM185 -9Q121 -9 85.5 25Q50 59 50 133V385Q50 453 85 490.5Q120 528 179 528Q238 528 266.5 491Q295 454 295 395V249H101V142Q101 90 120 63Q139 36 192 36Q217 36 238.5 43Q260 50 276 58L291 20Q270 6 242 -1.5Q214 -9 185 -9ZM167 718H207L275 579H228L185 672L142 579H97Z" glyph-name="ecircumflex" horiz-adv-x="340" unicode="&#234;" /><glyph d="M247 291V398Q247 413 243.5 428.5Q240 444 232 456.5Q224 469 209.5 476.5Q195 484 174 484Q154 484 140 476Q126 468 117.5 455.5Q109 443 105 427.5Q101 412 101 396V291ZM185 -9Q121 -9 85.5 25Q50 59 50 133V385Q50 453 85 490.5Q120 528 179 528Q238 528 266.5 491Q295 454 295 395V249H101V142Q101 90 120 63Q139 36 192 36Q217 36 238.5 43Q260 50 276 58L291 20Q270 6 242 -1.5Q214 -9 185 -9ZM218 705H266V596H218ZM102 705H150V596H102Z" glyph-name="edieresis" horiz-adv-x="340" unicode="&#235;" /><glyph d="M152 707H201V596H152ZM247 291V398Q247 413 243.5 428.5Q240 444 232 456.5Q224 469 209.5 476.5Q195 484 174 484Q154 484 140 476Q126 468 117.5 455.5Q109 443 105 427.5Q101 412 101 396V291ZM185 -9Q121 -9 85.5 25Q50 59 50 133V385Q50 453 85 490.5Q120 528 179 528Q238 528 266.5 491Q295 454 295 395V249H101V142Q101 90 120 63Q139 36 192 36Q217 36 238.5 43Q260 50 276 58L291 20Q270 6 242 -1.5Q214 -9 185 -9Z" glyph-name="edotaccent" horiz-adv-x="340" unicode="&#279;" /><glyph d="M81 717H141L210 578H168ZM247 291V398Q247 413 243.5 428.5Q240 444 232 456.5Q224 469 209.5 476.5Q195 484 174 484Q154 484 140 476Q126 468 117.5 455.5Q109 443 105 427.5Q101 412 101 396V291ZM185 -9Q121 -9 85.5 25Q50 59 50 133V385Q50 453 85 490.5Q120 528 179 528Q238 528 266.5 491Q295 454 295 395V249H101V142Q101 90 120 63Q139 36 192 36Q217 36 238.5 43Q260 50 276 58L291 20Q270 6 242 -1.5Q214 -9 185 -9Z" glyph-name="egrave" horiz-adv-x="340" unicode="&#232;" /><glyph d="M181 390Q199 390 214 397Q229 404 239 416Q249 428 254.5 443Q260 458 260 474V605Q260 638 237 659Q214 680 180 680Q145 680 123 658Q101 636 101 604V474Q101 439 124.5 414.5Q148 390 181 390ZM180 37Q222 37 242 61.5Q262 86 262 120V267Q262 303 238 326.5Q214 350 180 350Q144 350 120.5 326.5Q97 303 97 268V119Q97 87 119 62Q141 37 180 37ZM177 -8Q116 -8 80 27Q44 62 44 123V262Q44 300 63 328Q82 356 112 370Q82 384 66.5 412.5Q51 441 51 475V598Q51 629 61.5 653Q72 677 90 692.5Q108 708 132 716Q156 724 182 724Q208 724 231 717Q254 710 271.5 695Q289 680 299.5 657.5Q310 635 310 604V478Q310 442 294 413.5Q278 385 247 371Q276 360 295.5 333Q315 306 315 266V124Q315 58 276 25Q237 -8 177 -8Z" glyph-name="eight" horiz-adv-x="359" unicode="8" /><glyph d="M199 390Q217 390 232 397Q247 404 257 416Q267 428 272.5 443Q278 458 278 474V605Q278 638 255 659Q232 680 198 680Q163 680 141 658Q119 636 119 604V474Q119 439 142.5 414.5Q166 390 199 390ZM198 37Q240 37 260 61.5Q280 86 280 120V267Q280 303 256 326.5Q232 350 198 350Q162 350 138.5 326.5Q115 303 115 268V119Q115 87 137 62Q159 37 198 37ZM195 -8Q134 -8 98 27Q62 62 62 123V262Q62 300 81 328Q100 356 130 370Q100 384 84.5 412.5Q69 441 69 475V598Q69 629 79.5 653Q90 677 108 692.5Q126 708 150 716Q174 724 200 724Q226 724 249 717Q272 710 289.5 695Q307 680 317.5 657.5Q328 635 328 604V478Q328 442 312 413.5Q296 385 265 371Q294 360 313.5 333Q333 306 333 266V124Q333 58 294 25Q255 -8 195 -8Z" glyph-name="eight.LT" horiz-adv-x="395" unicode="&#58696;" /><glyph d="M121 219Q141 219 152 231.5Q163 244 163 261V326Q163 345 150.5 355.5Q138 366 120 366Q102 366 90 354.5Q78 343 78 326V261Q78 242 91 230.5Q104 219 121 219ZM121 26Q143 26 154 38.5Q165 51 165 70V142Q165 162 151.5 173.5Q138 185 121 185Q101 185 88.5 173.5Q76 162 76 143V69Q76 51 88 38.5Q100 26 121 26ZM120 -9Q81 -9 57 11.5Q33 32 33 71V138Q33 160 44.5 176Q56 192 74 202Q56 210 46.5 226.5Q37 243 37 262V323Q37 361 61.5 381Q86 401 121 401Q156 401 180.5 382.5Q205 364 205 325V264Q205 244 195 227.5Q185 211 166 203Q184 195 196.5 179Q209 163 209 140V71Q209 31 183.5 11Q158 -9 120 -9Z" glyph-name="eight.dnom" horiz-adv-x="242" unicode="&#58378;" /><glyph d="M121 537Q141 537 152 549.5Q163 562 163 579V644Q163 663 150.5 673.5Q138 684 120 684Q102 684 90 672.5Q78 661 78 644V579Q78 560 91 548.5Q104 537 121 537ZM121 344Q143 344 154 356.5Q165 369 165 388V460Q165 480 151.5 491.5Q138 503 121 503Q101 503 88.5 491.5Q76 480 76 461V387Q76 369 88 356.5Q100 344 121 344ZM120 309Q81 309 57 329.5Q33 350 33 389V456Q33 478 44.5 494Q56 510 74 520Q56 528 46.5 544.5Q37 561 37 580V641Q37 679 61.5 699Q86 719 121 719Q156 719 180.5 700.5Q205 682 205 643V582Q205 562 195 545.5Q185 529 166 521Q184 513 196.5 497Q209 481 209 458V389Q209 349 183.5 329Q158 309 120 309Z" glyph-name="eight.numr" horiz-adv-x="242" unicode="&#58398;" /><glyph d="M340 100H392V0H340ZM195 100H247V0H195ZM51 100H102V0H51Z" glyph-name="ellipsis" horiz-adv-x="442" unicode="&#8230;" /><glyph d="M90 643H266V597H90ZM247 291V398Q247 413 243.5 428.5Q240 444 232 456.5Q224 469 209.5 476.5Q195 484 174 484Q154 484 140 476Q126 468 117.5 455.5Q109 443 105 427.5Q101 412 101 396V291ZM185 -9Q121 -9 85.5 25Q50 59 50 133V385Q50 453 85 490.5Q120 528 179 528Q238 528 266.5 491Q295 454 295 395V249H101V142Q101 90 120 63Q139 36 192 36Q217 36 238.5 43Q260 50 276 58L291 20Q270 6 242 -1.5Q214 -9 185 -9Z" glyph-name="emacron" horiz-adv-x="340" unicode="&#275;" /><glyph d="M0 320H600V278H0Z" glyph-name="emdash" horiz-adv-x="600" unicode="&#8212;" /><glyph d="M0 320H358V278H0Z" glyph-name="endash" horiz-adv-x="358" unicode="&#8211;" /><glyph d="M231 -170Q212 -170 196 -167V-126H219Q243 -126 252.5 -112Q262 -98 262 -73V415Q262 450 246 467.5Q230 485 201 485Q182 485 166.5 475Q151 465 139.5 449Q128 433 122 412.5Q116 392 116 372V0H66V518H112V459H113Q129 493 158.5 510.5Q188 528 222 528Q262 528 287 504Q312 480 312 439V-81Q312 -119 292.5 -144.5Q273 -170 231 -170Z" glyph-name="eng" horiz-adv-x="372" unicode="&#331;" /><glyph d="M247 291V398Q247 413 243.5 428.5Q240 444 232 456.5Q224 469 209.5 476.5Q195 484 174 484Q154 484 140 476Q126 468 117.5 455.5Q109 443 105 427.5Q101 412 101 396V291ZM185 -9Q121 -9 85.5 25Q50 59 50 133V385Q50 453 85 490.5Q120 528 179 528Q238 528 266.5 491Q295 454 295 395V249H101V142Q101 90 120 63Q139 36 192 36Q217 36 238.5 43Q260 50 276 58L291 20Q281 13 271 9Q248 -8 239 -33Q230 -58 230 -87Q230 -110 242 -122.5Q254 -135 273 -135Q284 -135 293 -132.5Q302 -130 310 -126L326 -162Q316 -168 301.5 -173.5Q287 -179 264 -179Q233 -179 210 -161Q187 -143 187 -105Q187 -73 199 -47.5Q211 -22 228 -4Q205 -9 185 -9Z" glyph-name="eogonek" horiz-adv-x="340" unicode="&#281;" /><glyph d="M53 400H341V355H53ZM53 275H341V230H53Z" glyph-name="equal" horiz-adv-x="395" unicode="=" /><glyph d="M178 35Q202 35 216.5 42.5Q231 50 239.5 62Q248 74 251 90Q254 106 254 123V397Q254 414 250.5 429.5Q247 445 238.5 456.5Q230 468 216 475Q202 482 181 482Q139 482 120 456.5Q101 431 101 396V119Q101 103 105 88Q109 73 118.5 61Q128 49 142.5 42Q157 35 178 35ZM50 621 133 642 98 703 146 720 183 654 257 673 270 640 202 622 285 479Q294 464 299.5 442.5Q305 421 305 397V128Q305 58 270.5 24.5Q236 -9 176 -9Q116 -9 83 25Q50 59 50 125V393Q50 456 85.5 490Q121 524 175 525Q177 525 187 524Q197 523 206 518L152 610L64 588Z" glyph-name="eth" horiz-adv-x="346" unicode="&#240;" /><glyph d="M60 100H113V0H60ZM61 443V714H111V443L104 185H70Z" glyph-name="exclam" horiz-adv-x="171" unicode="!" /><glyph d="M113 459H60V559H113ZM112 116V-155H62V116L69 374H103Z" glyph-name="exclamdown" horiz-adv-x="171" unicode="&#161;" /><glyph d="M90 476H36V517H90V631Q90 671 113.5 696.5Q137 722 179 722Q188 722 198 721.5Q208 721 219 717V677Q202 680 184 680Q166 680 153 668Q140 656 140 631V517H209V476H140V0H90Z" glyph-name="f" horiz-adv-x="237" unicode="f" /><glyph d="M85 476H31V517H85V631Q85 671 108.5 696.5Q132 722 174 722Q183 722 193 721.5Q203 721 214 717V677Q197 680 179 680Q161 680 148 668Q135 656 135 631V517H204V476H135V0H85ZM274 717H324V619H274ZM274 518H324V0H274Z" glyph-name="fi" horiz-adv-x="379" unicode="&#64257;" /><glyph d="M177 -9Q142 -9 118 2.5Q94 14 78 33Q62 52 55 77.5Q48 103 48 131V172H98V139Q98 97 119 68Q140 39 178 39Q213 39 237.5 68.5Q262 98 262 161V295Q262 352 241.5 379Q221 406 183 406Q157 406 137 391Q117 376 104 356L59 358L73 713H295V667H116Q116 666 115.5 643.5Q115 621 114 585Q113 549 111.5 504Q110 459 107 413Q125 432 147.5 442Q170 452 199 452Q222 452 243 444Q264 436 279.5 419Q295 402 304 376.5Q313 351 313 315V160Q313 84 277 37.5Q241 -9 177 -9Z" glyph-name="five" horiz-adv-x="361" unicode="5" /><glyph d="M194 -9Q159 -9 135 2.5Q111 14 95 33Q79 52 72 77.5Q65 103 65 131V172H115V139Q115 97 136 68Q157 39 195 39Q230 39 254.5 68.5Q279 98 279 161V295Q279 352 258.5 379Q238 406 200 406Q174 406 154 391Q134 376 121 356L76 358L90 713H312V667H133Q133 666 132.5 643.5Q132 621 131 585Q130 549 128.5 504Q127 459 124 413Q142 432 164.5 442Q187 452 216 452Q239 452 260 444Q281 436 296.5 419Q312 402 321 376.5Q330 351 330 315V160Q330 84 294 37.5Q258 -9 194 -9Z" glyph-name="five.LT" horiz-adv-x="395" unicode="&#58693;" /><glyph d="M118 -10Q75 -10 54.5 14Q34 38 34 73V104H75V77Q75 55 87 40.5Q99 26 119 26Q139 26 151 40.5Q163 55 163 87V159Q163 188 152 201Q141 214 121 214Q107 214 96 205.5Q85 197 78 186L39 190L48 396H194V358H84Q84 356 83 335.5Q82 315 81 290.5Q80 266 79 245Q78 224 78 222Q89 235 103.5 241.5Q118 248 135 248Q164 248 185.5 229.5Q207 211 207 168V86Q207 41 182 15.5Q157 -10 118 -10Z" glyph-name="five.dnom" horiz-adv-x="241" unicode="&#58375;" /><glyph d="M118 308Q75 308 54.5 332Q34 356 34 391V422H75V395Q75 373 87 358.5Q99 344 119 344Q139 344 151 358.5Q163 373 163 405V477Q163 506 152 519Q141 532 121 532Q107 532 96 523.5Q85 515 78 504L39 508L48 714H194V676H84Q84 674 83 653.5Q82 633 81 608.5Q80 584 79 563Q78 542 78 540Q89 553 103.5 559.5Q118 566 135 566Q164 566 185.5 547.5Q207 529 207 486V404Q207 359 182 333.5Q157 308 118 308Z" glyph-name="five.numr" horiz-adv-x="241" unicode="&#58395;" /><glyph d="M85 476H31V517H85V631Q85 671 108.5 696.5Q132 722 174 722Q183 722 193 721.5Q203 721 214 717V677Q197 680 179 680Q161 680 148 668Q135 656 135 631V517H204V476H135V0H85ZM343 -5Q307 -5 290 14Q273 33 273 66V713H323V76Q323 61 331.5 51Q340 41 359 41Q372 41 386 44V2Q365 -5 343 -5Z" glyph-name="fl" horiz-adv-x="412" unicode="&#64258;" /><glyph d="M39 -169Q19 -169 3 -166L5 -121Q7 -121 15.5 -121.5Q24 -122 28 -122Q54 -122 62.5 -107.5Q71 -93 73 -67L111 449H54L56 494H113L123 626Q127 669 152 695.5Q177 722 220 722Q230 722 241 721Q252 720 263 717L260 674Q245 677 225 677Q205 677 191.5 664.5Q178 652 175 626L165 494H233L230 449H163L125 -75Q122 -115 102.5 -142Q83 -169 39 -169Z" glyph-name="florin" horiz-adv-x="267" unicode="&#402;" /><glyph d="M220 195H32V240L205 713H258L81 242H220V408L269 450V242H329V195H269V0H220Z" glyph-name="four" horiz-adv-x="367" unicode="4" /><glyph d="M237 195H49V240L222 713H275L98 242H237V408L286 450V242H346V195H286V0H237Z" glyph-name="four.LT" horiz-adv-x="395" unicode="&#58692;" /><glyph d="M135 105H21V139L124 400H169L62 141H135V222L176 256V141H211V105H176V0H135Z" glyph-name="four.dnom" horiz-adv-x="230" unicode="&#58374;" /><glyph d="M135 423H21V457L124 718H169L62 459H135V540L176 574V459H211V423H176V318H135Z" glyph-name="four.numr" horiz-adv-x="230" unicode="&#58394;" /><glyph d="M162 716H199L-75 -2H-113Z" glyph-name="fraction" horiz-adv-x="89" unicode="&#8260;" /><glyph d="M166 53Q182 53 197.5 62Q213 71 224 86Q235 101 242 121Q249 141 249 163V377Q249 399 241.5 419Q234 439 222 454Q210 469 195 478Q180 487 164 487Q134 487 117 466Q100 445 100 407V129Q100 115 103 101.5Q106 88 113.5 77.5Q121 67 133.5 60Q146 53 166 53ZM157 -170Q97 -170 50 -147L68 -105Q92 -116 113.5 -121Q135 -126 158 -126Q249 -126 249 -28V75H247Q233 41 205.5 24.5Q178 8 152 8Q126 8 106.5 17Q87 26 74.5 42Q62 58 56 78.5Q50 99 50 122V411Q50 441 59 463Q68 485 83 499.5Q98 514 118 521Q138 528 159 528Q171 528 185.5 524.5Q200 521 213 514Q226 507 236.5 495Q247 483 253 467H254V519H299V-24Q299 -97 260 -133.5Q221 -170 157 -170Z" glyph-name="g" horiz-adv-x="365" unicode="g" /><glyph d="M173 583Q123 583 97 612.5Q71 642 70 696H111Q112 682 115.5 668.5Q119 655 126 644Q133 633 145 626.5Q157 620 176 620Q208 620 222 642Q236 664 236 696H276Q274 638 244.5 610.5Q215 583 173 583ZM166 53Q182 53 197.5 62Q213 71 224 86Q235 101 242 121Q249 141 249 163V377Q249 399 241.5 419Q234 439 222 454Q210 469 195 478Q180 487 164 487Q134 487 117 466Q100 445 100 407V129Q100 115 103 101.5Q106 88 113.5 77.5Q121 67 133.5 60Q146 53 166 53ZM157 -170Q97 -170 50 -147L68 -105Q92 -116 113.5 -121Q135 -126 158 -126Q249 -126 249 -28V75H247Q233 41 205.5 24.5Q178 8 152 8Q126 8 106.5 17Q87 26 74.5 42Q62 58 56 78.5Q50 99 50 122V411Q50 441 59 463Q68 485 83 499.5Q98 514 118 521Q138 528 159 528Q171 528 185.5 524.5Q200 521 213 514Q226 507 236.5 495Q247 483 253 467H254V519H299V-24Q299 -97 260 -133.5Q221 -170 157 -170Z" glyph-name="gbreve" horiz-adv-x="365" unicode="&#287;" /><glyph d="M156 718H196L264 579H217L174 672L131 579H86ZM166 53Q182 53 197.5 62Q213 71 224 86Q235 101 242 121Q249 141 249 163V377Q249 399 241.5 419Q234 439 222 454Q210 469 195 478Q180 487 164 487Q134 487 117 466Q100 445 100 407V129Q100 115 103 101.5Q106 88 113.5 77.5Q121 67 133.5 60Q146 53 166 53ZM157 -170Q97 -170 50 -147L68 -105Q92 -116 113.5 -121Q135 -126 158 -126Q249 -126 249 -28V75H247Q233 41 205.5 24.5Q178 8 152 8Q126 8 106.5 17Q87 26 74.5 42Q62 58 56 78.5Q50 99 50 122V411Q50 441 59 463Q68 485 83 499.5Q98 514 118 521Q138 528 159 528Q171 528 185.5 524.5Q200 521 213 514Q226 507 236.5 495Q247 483 253 467H254V519H299V-24Q299 -97 260 -133.5Q221 -170 157 -170Z" glyph-name="gcircumflex" horiz-adv-x="365" unicode="&#285;" /><glyph d="M141 660 163 723H189L174 663H189V596H141ZM166 53Q182 53 197.5 62Q213 71 224 86Q235 101 242 121Q249 141 249 163V377Q249 399 241.5 419Q234 439 222 454Q210 469 195 478Q180 487 164 487Q134 487 117 466Q100 445 100 407V129Q100 115 103 101.5Q106 88 113.5 77.5Q121 67 133.5 60Q146 53 166 53ZM157 -170Q97 -170 50 -147L68 -105Q92 -116 113.5 -121Q135 -126 158 -126Q249 -126 249 -28V75H247Q233 41 205.5 24.5Q178 8 152 8Q126 8 106.5 17Q87 26 74.5 42Q62 58 56 78.5Q50 99 50 122V411Q50 441 59 463Q68 485 83 499.5Q98 514 118 521Q138 528 159 528Q171 528 185.5 524.5Q200 521 213 514Q226 507 236.5 495Q247 483 253 467H254V519H299V-24Q299 -97 260 -133.5Q221 -170 157 -170Z" glyph-name="gcommaaccent" horiz-adv-x="365" unicode="&#291;" /><glyph d="M147 707H196V596H147ZM166 53Q182 53 197.5 62Q213 71 224 86Q235 101 242 121Q249 141 249 163V377Q249 399 241.5 419Q234 439 222 454Q210 469 195 478Q180 487 164 487Q134 487 117 466Q100 445 100 407V129Q100 115 103 101.5Q106 88 113.5 77.5Q121 67 133.5 60Q146 53 166 53ZM157 -170Q97 -170 50 -147L68 -105Q92 -116 113.5 -121Q135 -126 158 -126Q249 -126 249 -28V75H247Q233 41 205.5 24.5Q178 8 152 8Q126 8 106.5 17Q87 26 74.5 42Q62 58 56 78.5Q50 99 50 122V411Q50 441 59 463Q68 485 83 499.5Q98 514 118 521Q138 528 159 528Q171 528 185.5 524.5Q200 521 213 514Q226 507 236.5 495Q247 483 253 467H254V519H299V-24Q299 -97 260 -133.5Q221 -170 157 -170Z" glyph-name="gdotaccent" horiz-adv-x="365" unicode="&#289;" /><glyph d="M239 -5Q213 -5 194 -0.5Q175 4 163 11L176 51Q190 45 208 41Q226 37 237 37Q259 37 272 47.5Q285 58 292.5 75Q300 92 302.5 113.5Q305 135 305 156Q305 195 294.5 225.5Q284 256 268 279Q252 302 232.5 317Q213 332 195 340V377H202Q221 392 236.5 415.5Q252 439 263 465Q274 491 280 517Q286 543 286 564Q286 586 281 606.5Q276 627 266.5 643Q257 659 242.5 668Q228 677 209 677Q187 677 171.5 666.5Q156 656 146.5 639.5Q137 623 133 602.5Q129 582 129 561V0H79V476H25V517H79V558Q79 633 114 676.5Q149 720 212 720Q242 720 265 708.5Q288 697 304 677.5Q320 658 328 631Q336 604 336 573Q336 516 313.5 460.5Q291 405 246 368V366Q296 337 325 281Q354 225 354 160Q354 128 348 98.5Q342 69 328.5 46Q315 23 293 9Q271 -5 239 -5Z" glyph-name="germandbls" horiz-adv-x="385" unicode="&#223;" /><glyph d="M29 717H89L158 578H116Z" glyph-name="grave" horiz-adv-x="206" unicode="`" /><glyph d="M64 215 271 320 62 423 83 461 332 338V302L84 176Z" glyph-name="greater" horiz-adv-x="395" unicode="&gt;" /><glyph d="M54 147H341V104H54ZM64 249 276 354Q262 361 232 375.5Q202 390 169 405.5Q136 421 106 435.5Q76 450 62 456L82 493L332 371V337L84 212Z" glyph-name="greaterequal" horiz-adv-x="395" unicode="&#8805;" /><glyph d="M148 276 234 411 267 390 206 277 270 163 235 142ZM22 276 108 412 141 391 80 277 144 162 110 142Z" glyph-name="guillemotleft" horiz-adv-x="314" unicode="&#171;" /><glyph d="M150 163 211 277 147 391 182 412 270 278 184 142ZM24 163 85 277 22 391 56 411 144 278 58 143Z" glyph-name="guillemotright" horiz-adv-x="314" unicode="&#187;" /><glyph d="M29 276 114 412 148 391 87 277 151 162 117 142Z" glyph-name="guilsinglleft" horiz-adv-x="191" unicode="&#8249;" /><glyph d="M31 163 92 277 29 391 63 412 151 278 65 142Z" glyph-name="guilsinglright" horiz-adv-x="191" unicode="&#8250;" /><glyph d="M66 713H116V461H117Q134 496 161 512Q188 528 222 528Q262 528 287 504Q312 480 312 439V0H262V415Q262 450 246 467.5Q230 485 201 485Q182 485 166.5 474.5Q151 464 139.5 447.5Q128 431 122 410.5Q116 390 116 370V0H66Z" glyph-name="h" horiz-adv-x="372" unicode="h" /><glyph d="M40 641H73V713H123V641H209V602H123V461H124Q141 496 168 512Q195 528 229 528Q269 528 294 504Q319 480 319 439V0H269V415Q269 450 253 467.5Q237 485 208 485Q189 485 173.5 474.5Q158 464 146.5 447.5Q135 431 129 410.5Q123 390 123 370V0H73V602H40Z" glyph-name="hbar" horiz-adv-x="379" unicode="&#295;" /><glyph d="M86 908H126L194 769H147L104 862L61 769H16ZM66 713H116V461H117Q134 496 161 512Q188 528 222 528Q262 528 287 504Q312 480 312 439V0H262V415Q262 450 246 467.5Q230 485 201 485Q182 485 166.5 474.5Q151 464 139.5 447.5Q128 431 122 410.5Q116 390 116 370V0H66Z" glyph-name="hcircumflex" horiz-adv-x="372" unicode="&#293;" /><glyph d="M207 706H260L200 582H159ZM103 706H157L97 582H56Z" glyph-name="hungarumlaut" horiz-adv-x="311" unicode="&#733;" /><glyph d="M28 322H190V274H28Z" glyph-name="hyphen" horiz-adv-x="219" unicode="-" /><glyph d="M66 717H116V619H66ZM66 518H116V0H66Z" glyph-name="i" horiz-adv-x="182" unicode="i" /><glyph d="M66 518H116V0H66ZM140 717H200L113 578H71Z" glyph-name="iacute" horiz-adv-x="182" unicode="&#237;" /><glyph d="M91 583Q41 583 15 612.5Q-11 642 -12 696H29Q30 682 33.5 668.5Q37 655 44 644Q51 633 63 626.5Q75 620 94 620Q126 620 140 642Q154 664 154 696H194Q192 638 162.5 610.5Q133 583 91 583ZM66 518H116V0H66Z" glyph-name="ibreve" horiz-adv-x="182" unicode="&#301;" /><glyph d="M66 518H116V0H66ZM77 718H117L185 579H138L95 672L52 579H7Z" glyph-name="icircumflex" horiz-adv-x="182" unicode="&#238;" /><glyph d="M66 518H116V0H66ZM129 705H177V596H129ZM13 705H61V596H13Z" glyph-name="idieresis" horiz-adv-x="182" unicode="&#239;" /><glyph d="M66 717H116V619H66ZM66 518H116V0H66Z" glyph-name="idotaccent" horiz-adv-x="182" /><glyph d="M-15 717H45L114 578H72ZM66 518H116V0H66Z" glyph-name="igrave" horiz-adv-x="182" unicode="&#236;" /><glyph d="M66 717H116V619H66ZM223 717H273V619H223ZM66 518H116V0H66ZM192 -170Q173 -170 157 -167V-126H180Q204 -126 213.5 -112Q223 -98 223 -73V518H273V-81Q273 -119 253.5 -144.5Q234 -170 192 -170Z" glyph-name="ij" horiz-adv-x="339" unicode="&#307;" /><glyph d="M3 643H179V597H3ZM66 518H116V0H66Z" glyph-name="imacron" horiz-adv-x="182" unicode="&#299;" /><glyph d="M464 231Q504 231 530 257Q556 283 556 321Q556 359 535 383.5Q514 408 469 408Q437 408 403 381Q369 354 337 320Q363 285 393.5 258Q424 231 464 231ZM156 232Q194 232 226.5 258.5Q259 285 291 320Q280 336 266 352.5Q252 369 235.5 382Q219 395 200 403.5Q181 412 161 412Q123 412 97.5 388Q72 364 72 328Q72 309 77.5 292Q83 275 93.5 261.5Q104 248 119.5 240Q135 232 156 232ZM462 192Q414 192 377.5 220Q341 248 312 285Q296 267 278.5 250.5Q261 234 241.5 221.5Q222 209 201 201Q180 193 159 193Q129 193 105 203Q81 213 63.5 230.5Q46 248 37 271Q28 294 28 320Q28 348 38.5 372Q49 396 67 413Q85 430 109.5 440Q134 450 162 450Q208 450 245.5 423.5Q283 397 316 357Q331 372 348.5 387.5Q366 403 385.5 415.5Q405 428 426.5 436Q448 444 471 444Q530 444 564.5 412Q599 380 599 326Q599 297 589 272.5Q579 248 560.5 230Q542 212 517 202Q492 192 462 192Z" glyph-name="infinity" horiz-adv-x="627" unicode="&#8734;" /><glyph d="M37 -169Q27 -169 17 -168Q7 -167 -2 -165L1 -121Q5 -122 13.5 -122.5Q22 -123 26 -123Q52 -123 59.5 -108Q67 -93 69 -68L112 626Q114 668 138.5 695.5Q163 723 207 723Q217 723 227.5 722Q238 721 249 718L246 675Q231 678 210 678Q191 678 177.5 665.5Q164 653 162 627L120 -75Q118 -114 99.5 -141.5Q81 -169 37 -169Z" glyph-name="integral" horiz-adv-x="268" unicode="&#8747;" /><glyph d="M66 717H116V619H66ZM66 518H116V0H107Q87 -16 76 -38Q65 -60 65 -87Q65 -110 74 -122.5Q83 -135 102 -135Q115 -135 131 -127L145 -163Q135 -169 123 -173.5Q111 -178 95 -178Q64 -178 43 -160.5Q22 -143 22 -105Q22 -71 35.5 -44.5Q49 -18 68 0H66Z" glyph-name="iogonek" horiz-adv-x="182" unicode="&#303;" /><glyph d="M-27 594Q-23 625 -6.5 647Q10 669 39 669Q52 669 65 664.5Q78 660 91 655Q104 650 117 645.5Q130 641 143 641Q157 641 163.5 650Q170 659 175 676L209 669Q205 638 187.5 616.5Q170 595 143 595Q129 595 115 599.5Q101 604 87.5 609.5Q74 615 61.5 619.5Q49 624 39 624Q24 624 18 615Q12 606 8 589ZM66 518H116V0H66Z" glyph-name="itilde" horiz-adv-x="182" unicode="&#297;" /><glyph d="M66 717H116V619H66ZM35 -170Q16 -170 0 -167V-126H23Q47 -126 56.5 -112Q66 -98 66 -73V518H116V-81Q116 -119 96.5 -144.5Q77 -170 35 -170Z" glyph-name="j" horiz-adv-x="182" unicode="j" /><glyph d="M72 718H112L180 579H133L90 672L47 579H2ZM35 -170Q16 -170 0 -167V-126H23Q47 -126 56.5 -112Q66 -98 66 -73V518H116V-81Q116 -119 96.5 -144.5Q77 -170 35 -170Z" glyph-name="jcircumflex" horiz-adv-x="182" unicode="&#309;" /><glyph d="M66 713H116V265L253 518H307L205 339L306 0H254L170 289L116 195V0H66Z" glyph-name="k" horiz-adv-x="333" unicode="k" /><glyph d="M159 -39H213L194 -172H157ZM66 713H116V265L253 518H307L205 339L306 0H254L170 289L116 195V0H66Z" glyph-name="kcommaaccent" horiz-adv-x="333" unicode="&#311;" /><glyph d="M66 518H116V265L253 518H307L205 339L306 0H254L170 289L116 195V0H66Z" glyph-name="kgreenlandic" horiz-adv-x="333" unicode="&#312;" /><glyph d="M134 -5Q98 -5 81 14Q64 33 64 66V713H114V76Q114 61 122.5 51Q131 41 150 41Q163 41 177 44V2Q156 -5 134 -5Z" glyph-name="l" horiz-adv-x="199" unicode="l" /><glyph d="M138 907H198L111 768H69ZM134 -5Q98 -5 81 14Q64 33 64 66V713H114V76Q114 61 122.5 51Q131 41 150 41Q163 41 177 44V2Q156 -5 134 -5Z" glyph-name="lacute" horiz-adv-x="199" unicode="&#314;" /><glyph d="M152 713H206L183 568H148ZM134 -5Q98 -5 81 14Q64 33 64 66V713H114V76Q114 61 122.5 51Q131 41 150 41Q163 41 177 44V2Q156 -5 134 -5Z" glyph-name="lcaron" horiz-adv-x="199" unicode="&#318;" /><glyph d="M75 -39H129L110 -172H73ZM134 -5Q98 -5 81 14Q64 33 64 66V713H114V76Q114 61 122.5 51Q131 41 150 41Q163 41 177 44V2Q156 -5 134 -5Z" glyph-name="lcommaaccent" horiz-adv-x="199" unicode="&#316;" /><glyph d="M181 437H231V339H181ZM134 -5Q98 -5 81 14Q64 33 64 66V713H114V76Q114 61 122.5 51Q131 41 150 41Q163 41 177 44V2Q156 -5 134 -5Z" glyph-name="ldot" horiz-adv-x="238" unicode="&#320;" /><glyph d="M62 302 63 337 312 461 332 422 123 320 331 214 310 176Z" glyph-name="less" horiz-adv-x="395" unicode="&lt;" /><glyph d="M54 147H340V104H54ZM63 337V371L313 493L332 456L119 354L330 249L310 212Z" glyph-name="lessequal" horiz-adv-x="395" unicode="&#8804;" /><glyph d="M312 290H32V330H355V184H312Z" glyph-name="logicalnot" horiz-adv-x="392" unicode="&#172;" /><glyph d="M300 345 188 649 83 347 192 60ZM35 339V354L169 714H210L346 354V340L210 -2H169Z" glyph-name="lozenge" horiz-adv-x="381" unicode="&#9674;" /><glyph d="M23 310 64 371V713H114V445L164 520V458L114 383V76Q114 61 122.5 51Q131 41 150 41Q163 41 177 44V2Q156 -5 134 -5Q98 -5 81 14Q64 33 64 66V309L23 248Z" glyph-name="lslash" horiz-adv-x="199" unicode="&#322;" /><glyph d="M66 518H112V459H113Q129 494 158.5 511Q188 528 222 528Q257 528 280 509.5Q303 491 309 461H310Q327 495 356 511.5Q385 528 419 528Q458 528 483.5 504Q509 480 509 439V0H459V415Q459 485 397 485Q379 485 363.5 476Q348 467 337 452.5Q326 438 319.5 419.5Q313 401 312 382V0H262V417Q260 485 201 485Q182 485 166.5 475Q151 465 139.5 449Q128 433 122 412.5Q116 392 116 372V0H66Z" glyph-name="m" horiz-adv-x="569" unicode="m" /><glyph d="M60 643H236V597H60Z" glyph-name="macron" horiz-adv-x="296" unicode="&#175;" /><glyph d="M54 341H340V298H54Z" glyph-name="minus" horiz-adv-x="395" unicode="&#8722;" /><glyph d="M54 517H107V105Q107 69 126.5 52.5Q146 36 175 36Q191 36 206 42.5Q221 49 233 62Q245 75 252.5 94.5Q260 114 260 140V517H313V112Q313 91 318.5 75Q324 59 344 51V-2Q318 5 299 22Q280 39 275 67Q261 32 235.5 11Q210 -10 173 -10Q147 -10 126.5 2Q106 14 96 39H94L108 -168L54 -178Z" glyph-name="mu" horiz-adv-x="370" unicode="&#181;" /><glyph d="M60 210 169 321Q162 328 146.5 343.5Q131 359 114 376.5Q97 394 81.5 409Q66 424 59 431L88 460L198 350L308 460L336 431L226 322Q233 314 248.5 298.5Q264 283 281 266Q298 249 313 233.5Q328 218 336 211L308 182L198 292Q190 285 174.5 269.5Q159 254 142.5 236.5Q126 219 110.5 203.5Q95 188 87 180Z" glyph-name="multiply" horiz-adv-x="395" unicode="&#215;" /><glyph d="M66 518H112V459H113Q129 493 158.5 510.5Q188 528 222 528Q262 528 287 504Q312 480 312 439V0H262V415Q262 450 246 467.5Q230 485 201 485Q182 485 166.5 475Q151 465 139.5 449Q128 433 122 412.5Q116 392 116 372V0H66Z" glyph-name="n" horiz-adv-x="372" unicode="n" /><glyph d="M248 715H308L221 576H179ZM66 518H112V459H113Q129 493 158.5 510.5Q188 528 222 528Q262 528 287 504Q312 480 312 439V0H262V415Q262 450 246 467.5Q230 485 201 485Q182 485 166.5 475Q151 465 139.5 449Q128 433 122 412.5Q116 392 116 372V0H66Z" glyph-name="nacute" horiz-adv-x="372" unicode="&#324;" /><glyph d="M97 719H144L187 626L230 719H275L205 579H165ZM66 518H112V459H113Q129 493 158.5 510.5Q188 528 222 528Q262 528 287 504Q312 480 312 439V0H262V415Q262 450 246 467.5Q230 485 201 485Q182 485 166.5 475Q151 465 139.5 449Q128 433 122 412.5Q116 392 116 372V0H66Z" glyph-name="ncaron" horiz-adv-x="372" unicode="&#328;" /><glyph d="M163 -39H217L198 -172H161ZM66 518H112V459H113Q129 493 158.5 510.5Q188 528 222 528Q262 528 287 504Q312 480 312 439V0H262V415Q262 450 246 467.5Q230 485 201 485Q182 485 166.5 475Q151 465 139.5 449Q128 433 122 412.5Q116 392 116 372V0H66Z" glyph-name="ncommaaccent" horiz-adv-x="372" unicode="&#326;" /><glyph d="M174 324Q191 324 207 331.5Q223 339 235 351.5Q247 364 254.5 380.5Q262 397 262 414V593Q262 608 257 623.5Q252 639 242.5 651.5Q233 664 217.5 672.5Q202 681 181 681Q158 681 143 672.5Q128 664 118.5 650.5Q109 637 105 621Q101 605 101 591V402Q101 364 121.5 344Q142 324 174 324ZM180 -9Q120 -9 87 25Q54 59 54 115V172H103V124Q103 86 123 62Q143 38 181 38Q221 38 241.5 66Q262 94 262 132V336Q245 307 217.5 294Q190 281 163 281Q113 281 81.5 310.5Q50 340 50 394V588Q50 654 87.5 689Q125 724 185 724Q248 724 281.5 685Q315 646 315 584V142Q315 68 276.5 29.5Q238 -9 180 -9Z" glyph-name="nine" horiz-adv-x="365" unicode="9" /><glyph d="M189 324Q206 324 222 331.5Q238 339 250 351.5Q262 364 269.5 380.5Q277 397 277 414V593Q277 608 272 623.5Q267 639 257.5 651.5Q248 664 232.5 672.5Q217 681 196 681Q173 681 158 672.5Q143 664 133.5 650.5Q124 637 120 621Q116 605 116 591V402Q116 364 136.5 344Q157 324 189 324ZM195 -9Q135 -9 102 25Q69 59 69 115V172H118V124Q118 86 138 62Q158 38 196 38Q236 38 256.5 66Q277 94 277 132V336Q260 307 232.5 294Q205 281 178 281Q128 281 96.5 310.5Q65 340 65 394V588Q65 654 102.5 689Q140 724 200 724Q263 724 296.5 685Q330 646 330 584V142Q330 68 291.5 29.5Q253 -9 195 -9Z" glyph-name="nine.LT" horiz-adv-x="395" unicode="&#58697;" /><glyph d="M116 183Q133 183 147.5 197Q162 211 163 230V320Q163 337 152 351.5Q141 366 118 366Q95 366 85.5 351Q76 336 76 319V224Q76 204 87.5 193.5Q99 183 116 183ZM118 -10Q80 -10 58.5 11.5Q37 33 37 68V101H77V72Q77 51 89 39Q101 27 121 27Q141 27 152 41Q163 55 163 76V181Q152 166 135 158.5Q118 151 102 151Q71 151 52.5 169.5Q34 188 34 220V318Q34 357 58.5 379Q83 401 121 401Q161 401 183.5 377.5Q206 354 206 316V82Q206 37 181 13.5Q156 -10 118 -10Z" glyph-name="nine.dnom" horiz-adv-x="240" unicode="&#58379;" /><glyph d="M116 501Q133 501 147.5 515Q162 529 163 548V638Q163 655 152 669.5Q141 684 118 684Q95 684 85.5 669Q76 654 76 637V542Q76 522 87.5 511.5Q99 501 116 501ZM118 308Q80 308 58.5 329.5Q37 351 37 386V419H77V390Q77 369 89 357Q101 345 121 345Q141 345 152 359Q163 373 163 394V499Q152 484 135 476.5Q118 469 102 469Q71 469 52.5 487.5Q34 506 34 538V636Q34 675 58.5 697Q83 719 121 719Q161 719 183.5 695.5Q206 672 206 634V400Q206 355 181 331.5Q156 308 118 308Z" glyph-name="nine.numr" horiz-adv-x="240" unicode="&#58399;" /><glyph glyph-name="nonmarkingreturn" horiz-adv-x="98" /><glyph d="M133 149 158 230H54V273H171L199 356H54V398H213Q214 402 217.5 413Q221 424 225 436.5Q229 449 232 460.5Q235 472 237 476L276 467L254 398H341V356H241Q239 351 235 339Q231 327 226.5 314.5Q222 302 218 290Q214 278 212 273H341V230H199L171 142Z" glyph-name="notequal" horiz-adv-x="395" unicode="&#8800;" /><glyph d="M79 594Q83 625 99.5 647Q116 669 145 669Q158 669 171 664.5Q184 660 197 655Q210 650 223 645.5Q236 641 249 641Q263 641 269.5 650Q276 659 281 676L315 669Q311 638 293.5 616.5Q276 595 249 595Q235 595 221 599.5Q207 604 193.5 609.5Q180 615 167.5 619.5Q155 624 145 624Q130 624 124 615Q118 606 114 589ZM66 518H112V459H113Q129 493 158.5 510.5Q188 528 222 528Q262 528 287 504Q312 480 312 439V0H262V415Q262 450 246 467.5Q230 485 201 485Q182 485 166.5 475Q151 465 139.5 449Q128 433 122 412.5Q116 392 116 372V0H66Z" glyph-name="ntilde" horiz-adv-x="372" unicode="&#241;" /><glyph d="M240 239 267 486H164L137 239ZM92 199H27L30 239H96L124 486H55L59 525H126L149 716H187L166 525H270L290 716H329L309 525H375L372 486H306L279 239H346L344 199H276L256 -2H215L236 199H133L113 -2H73Z" glyph-name="numbersign" horiz-adv-x="398" unicode="#" /><glyph d="M238 239 266 486H162L135 239ZM91 199H26L30 239H95L122 486H55L59 525H125L147 716H186L165 525H268L289 716H328L308 525H373L369 486H305L278 239H343L341 199H274L254 -2H214L234 199H131L111 -2H71Z" glyph-name="numbersign.LP" horiz-adv-x="395" unicode="&#58675;" /><glyph d="M179 35Q202 35 216.5 43Q231 51 239.5 63.5Q248 76 251.5 92.5Q255 109 255 126V398Q255 433 237 459Q219 485 177 485Q135 485 118 458.5Q101 432 101 397V126Q101 109 105 92.5Q109 76 118.5 63Q128 50 143 42.5Q158 35 179 35ZM177 -9Q116 -9 83 26.5Q50 62 50 128V393Q50 459 87 493.5Q124 528 179 528Q236 528 271 495Q306 462 306 398V130Q306 59 270 25Q234 -9 177 -9Z" glyph-name="o" horiz-adv-x="356" unicode="o" /><glyph d="M179 35Q202 35 216.5 43Q231 51 239.5 63.5Q248 76 251.5 92.5Q255 109 255 126V398Q255 433 237 459Q219 485 177 485Q135 485 118 458.5Q101 432 101 397V126Q101 109 105 92.5Q109 76 118.5 63Q128 50 143 42.5Q158 35 179 35ZM177 -9Q116 -9 83 26.5Q50 62 50 128V393Q50 459 87 493.5Q124 528 179 528Q236 528 271 495Q306 462 306 398V130Q306 59 270 25Q234 -9 177 -9ZM225 717H285L198 578H156Z" glyph-name="oacute" horiz-adv-x="356" unicode="&#243;" /><glyph d="M178 583Q128 583 102 612.5Q76 642 75 696H116Q117 682 120.5 668.5Q124 655 131 644Q138 633 150 626.5Q162 620 181 620Q213 620 227 642Q241 664 241 696H281Q279 638 249.5 610.5Q220 583 178 583ZM179 35Q202 35 216.5 43Q231 51 239.5 63.5Q248 76 251.5 92.5Q255 109 255 126V398Q255 433 237 459Q219 485 177 485Q135 485 118 458.5Q101 432 101 397V126Q101 109 105 92.5Q109 76 118.5 63Q128 50 143 42.5Q158 35 179 35ZM177 -9Q116 -9 83 26.5Q50 62 50 128V393Q50 459 87 493.5Q124 528 179 528Q236 528 271 495Q306 462 306 398V130Q306 59 270 25Q234 -9 177 -9Z" glyph-name="obreve" horiz-adv-x="356" unicode="&#335;" /><glyph d="M179 35Q202 35 216.5 43Q231 51 239.5 63.5Q248 76 251.5 92.5Q255 109 255 126V398Q255 433 237 459Q219 485 177 485Q135 485 118 458.5Q101 432 101 397V126Q101 109 105 92.5Q109 76 118.5 63Q128 50 143 42.5Q158 35 179 35ZM177 -9Q116 -9 83 26.5Q50 62 50 128V393Q50 459 87 493.5Q124 528 179 528Q236 528 271 495Q306 462 306 398V130Q306 59 270 25Q234 -9 177 -9ZM164 718H204L272 579H225L182 672L139 579H94Z" glyph-name="ocircumflex" horiz-adv-x="356" unicode="&#244;" /><glyph d="M179 35Q202 35 216.5 43Q231 51 239.5 63.5Q248 76 251.5 92.5Q255 109 255 126V398Q255 433 237 459Q219 485 177 485Q135 485 118 458.5Q101 432 101 397V126Q101 109 105 92.5Q109 76 118.5 63Q128 50 143 42.5Q158 35 179 35ZM177 -9Q116 -9 83 26.5Q50 62 50 128V393Q50 459 87 493.5Q124 528 179 528Q236 528 271 495Q306 462 306 398V130Q306 59 270 25Q234 -9 177 -9ZM216 705H264V596H216ZM100 705H148V596H100Z" glyph-name="odieresis" horiz-adv-x="356" unicode="&#246;" /><glyph d="M452 291V398Q452 413 448.5 428.5Q445 444 437 456.5Q429 469 414.5 476.5Q400 484 379 484Q359 484 345 476.5Q331 469 322.5 456.5Q314 444 310 428.5Q306 413 306 398V291ZM179 35Q202 35 216.5 43Q231 51 239.5 63.5Q248 76 251.5 92.5Q255 109 255 126V398Q255 433 237 459Q219 485 177 485Q135 485 118 458.5Q101 432 101 397V126Q101 109 105 92.5Q109 76 118.5 63Q128 50 143 42.5Q158 35 179 35ZM177 -9Q116 -9 83 26.5Q50 62 50 128V393Q50 459 87 493.5Q124 528 179 528Q212 528 238.5 516Q265 504 282 481Q318 528 384 528Q443 528 471.5 491Q500 454 500 395V249H306V142Q306 90 325 63Q344 36 397 36Q422 36 443.5 43Q465 50 481 58L496 20Q475 6 447 -1.5Q419 -9 390 -9Q313 -9 280 37Q263 14 236 2.5Q209 -9 177 -9Z" glyph-name="oe" horiz-adv-x="545" unicode="&#339;" /><glyph d="M129 -179Q98 -179 75 -161Q52 -143 52 -105Q52 -83 59 -63.5Q66 -44 76.5 -28.5Q87 -13 100 -1Q113 11 126 19L145 2Q95 -31 95 -87Q95 -110 107 -122.5Q119 -135 138 -135Q149 -135 158 -132.5Q167 -130 175 -126L191 -162Q181 -168 166.5 -173.5Q152 -179 129 -179Z" glyph-name="ogonek" horiz-adv-x="238" unicode="&#731;" /><glyph d="M129 -179Q98 -179 75 -161Q52 -143 52 -105Q52 -83 58.5 -63Q65 -43 75.5 -27Q86 -11 99 1Q112 13 125 21L140 12Q115 -5 105 -31.5Q95 -58 95 -87Q95 -110 107 -122.5Q119 -135 138 -135Q149 -135 158 -132.5Q167 -130 175 -126L191 -162Q181 -168 166.5 -173.5Q152 -179 129 -179Z" glyph-name="ogonekplus" horiz-adv-x="238" /><glyph d="M72 717H132L201 578H159ZM179 35Q202 35 216.5 43Q231 51 239.5 63.5Q248 76 251.5 92.5Q255 109 255 126V398Q255 433 237 459Q219 485 177 485Q135 485 118 458.5Q101 432 101 397V126Q101 109 105 92.5Q109 76 118.5 63Q128 50 143 42.5Q158 35 179 35ZM177 -9Q116 -9 83 26.5Q50 62 50 128V393Q50 459 87 493.5Q124 528 179 528Q236 528 271 495Q306 462 306 398V130Q306 59 270 25Q234 -9 177 -9Z" glyph-name="ograve" horiz-adv-x="356" unicode="&#242;" /><glyph d="M254 706H307L247 582H206ZM150 706H204L144 582H103ZM179 35Q202 35 216.5 43Q231 51 239.5 63.5Q248 76 251.5 92.5Q255 109 255 126V398Q255 433 237 459Q219 485 177 485Q135 485 118 458.5Q101 432 101 397V126Q101 109 105 92.5Q109 76 118.5 63Q128 50 143 42.5Q158 35 179 35ZM177 -9Q116 -9 83 26.5Q50 62 50 128V393Q50 459 87 493.5Q124 528 179 528Q236 528 271 495Q306 462 306 398V130Q306 59 270 25Q234 -9 177 -9Z" glyph-name="ohungarumlaut" horiz-adv-x="356" unicode="&#337;" /><glyph d="M90 643H266V597H90ZM179 35Q202 35 216.5 43Q231 51 239.5 63.5Q248 76 251.5 92.5Q255 109 255 126V398Q255 433 237 459Q219 485 177 485Q135 485 118 458.5Q101 432 101 397V126Q101 109 105 92.5Q109 76 118.5 63Q128 50 143 42.5Q158 35 179 35ZM177 -9Q116 -9 83 26.5Q50 62 50 128V393Q50 459 87 493.5Q124 528 179 528Q236 528 271 495Q306 462 306 398V130Q306 59 270 25Q234 -9 177 -9Z" glyph-name="omacron" horiz-adv-x="356" unicode="&#333;" /><glyph d="M101 656 42 636 36 675 120 713H153V0H101Z" glyph-name="one" horiz-adv-x="238" unicode="1" /><glyph d="M168 656 109 636 103 675 187 713H220V0H168Z" glyph-name="one.LT" horiz-adv-x="395" unicode="&#58689;" /><glyph d="M81 353 45 341 38 374 98 400H124V0H81Z" glyph-name="one.dnom" horiz-adv-x="194" unicode="&#58371;" /><glyph d="M81 671 45 659 38 692 98 718H124V318H81Z" glyph-name="one.numr" horiz-adv-x="194" unicode="&#58391;" /><glyph d="M372 716H409L135 -2H97ZM332 28 392 130Q418 177 433 216Q448 255 448 295V303Q448 329 439 346Q430 363 408 363Q387 363 378 347.5Q369 332 369 312V289H329V313Q329 352 350 376.5Q371 401 410 401Q450 401 471 375Q492 349 492 301Q492 243 472 198.5Q452 154 424 107L384 37H496V0H332ZM100 669 64 657 57 690 117 716H143V316H100Z" glyph-name="onehalf" horiz-adv-x="541" unicode="&#189;" /><glyph d="M380 716H417L143 -2H105ZM423 105H309V139L412 400H457L350 141H423V222L464 256V141H499V105H464V0H423ZM101 669 65 657 58 690 118 716H144V316H101Z" glyph-name="onequarter" horiz-adv-x="541" unicode="&#188;" /><glyph d="M81 733 45 721 38 754 98 780H124V380H81Z" glyph-name="onesuperior" horiz-adv-x="194" unicode="&#185;" /><glyph d="M44 361H198V320H44ZM113 431Q131 431 143 445.5Q155 460 155 478V554H127Q107 554 91.5 540.5Q76 527 76 492Q76 459 87 445Q98 431 113 431ZM99 396Q73 396 54 417.5Q35 439 35 487Q35 532 60.5 557.5Q86 583 127 583H155V645Q155 660 145.5 669Q136 678 119 678Q102 678 91.5 669Q81 660 81 646V615H42V644Q42 676 63.5 693.5Q85 711 122 711Q158 711 177.5 693.5Q197 676 197 645V473Q197 458 197.5 435Q198 412 199 402H160Q159 406 159 410Q158 414 158 420Q158 426 157 434Q147 413 130.5 404.5Q114 396 99 396Z" glyph-name="ordfeminine" horiz-adv-x="252" unicode="&#170;" /><glyph d="M46 360H200V320H46ZM122 431Q147 431 155.5 444.5Q164 458 164 477V629Q164 648 154.5 661Q145 674 122 674Q99 674 89.5 661Q80 648 80 629V477Q80 458 89.5 444.5Q99 431 122 431ZM121 397Q81 397 59.5 417.5Q38 438 38 480V628Q38 668 62 688.5Q86 709 123 709Q159 709 182.5 689Q206 669 206 629V479Q206 437 182.5 417Q159 397 121 397Z" glyph-name="ordmasculine" horiz-adv-x="245" unicode="&#186;" /><glyph d="M179 35Q202 35 216.5 43Q231 51 239.5 63.5Q248 76 251.5 92.5Q255 109 255 126V398Q255 406 254 410L129 51Q148 35 179 35ZM101 126Q101 107 105 92L234 461Q215 485 177 485Q135 485 118 458.5Q101 432 101 397ZM63 -29 82 27Q50 64 50 128V393Q50 459 87 493.5Q124 528 179 528Q221 528 251 510L267 554L301 543L280 484Q306 452 306 398V130Q306 59 270 25Q234 -9 177 -9Q142 -9 113 4L98 -40Z" glyph-name="oslash" horiz-adv-x="356" unicode="&#248;" /><glyph d="M179 35Q202 35 216.5 43Q231 51 239.5 63.5Q248 76 251.5 92.5Q255 109 255 126V398Q255 406 254 410L129 51Q148 35 179 35ZM101 126Q101 107 105 92L234 461Q215 485 177 485Q135 485 118 458.5Q101 432 101 397ZM63 -29 82 27Q50 64 50 128V393Q50 459 87 493.5Q124 528 179 528Q221 528 251 510L267 554L301 543L280 484Q306 452 306 398V130Q306 59 270 25Q234 -9 177 -9Q142 -9 113 4L98 -40Z" glyph-name="oslashacute" horiz-adv-x="356" unicode="&#511;" /><glyph d="M65 594Q69 625 85.5 647Q102 669 131 669Q144 669 157 664.5Q170 660 183 655Q196 650 209 645.5Q222 641 235 641Q249 641 255.5 650Q262 659 267 676L301 669Q297 638 279.5 616.5Q262 595 235 595Q221 595 207 599.5Q193 604 179.5 609.5Q166 615 153.5 619.5Q141 624 131 624Q116 624 110 615Q104 606 100 589ZM179 35Q202 35 216.5 43Q231 51 239.5 63.5Q248 76 251.5 92.5Q255 109 255 126V398Q255 433 237 459Q219 485 177 485Q135 485 118 458.5Q101 432 101 397V126Q101 109 105 92.5Q109 76 118.5 63Q128 50 143 42.5Q158 35 179 35ZM177 -9Q116 -9 83 26.5Q50 62 50 128V393Q50 459 87 493.5Q124 528 179 528Q236 528 271 495Q306 462 306 398V130Q306 59 270 25Q234 -9 177 -9Z" glyph-name="otilde" horiz-adv-x="356" unicode="&#245;" /><glyph d="M201 37Q231 37 247.5 55Q264 73 264 112V410Q264 440 250 460.5Q236 481 198 481Q162 481 139 449Q116 417 116 370V139Q116 96 139 66.5Q162 37 201 37ZM66 518H112V462H114Q121 480 133.5 492.5Q146 505 159.5 513Q173 521 187.5 524.5Q202 528 214 528Q240 528 259 519.5Q278 511 290.5 496.5Q303 482 309 463.5Q315 445 315 425V107Q315 53 285 22Q255 -9 207 -9Q180 -9 154.5 4.5Q129 18 117 47H116V-162H66Z" glyph-name="p" horiz-adv-x="365" unicode="p" /><glyph d="M177 255Q142 262 117 281.5Q92 301 76 329.5Q60 358 52 394.5Q44 431 44 473Q44 524 53.5 568Q63 612 83 644Q103 676 134 694.5Q165 713 207 713H388V675H334V-64H297V675H214V-64H177Z" glyph-name="paragraph" horiz-adv-x="421" unicode="&#182;" /><glyph d="M134 -172Q111 -126 94.5 -69Q78 -12 67 48Q56 108 50.5 167Q45 226 45 277Q45 331 50.5 389.5Q56 448 67 506Q78 564 94.5 619Q111 674 134 722L167 719Q150 660 136 610.5Q122 561 112.5 510.5Q103 460 98 404Q93 348 93 276Q93 157 113 47.5Q133 -62 167 -168Z" glyph-name="parenleft" horiz-adv-x="177" unicode="(" /><glyph d="M99 -72Q84 -47 73.5 -15.5Q63 16 55.5 50Q48 84 44.5 117.5Q41 151 41 181Q41 244 55.5 310.5Q70 377 99 430L125 428Q114 395 106 367.5Q98 340 92 311.5Q86 283 83 251.5Q80 220 80 180Q80 114 92 52.5Q104 -9 125 -69Z" glyph-name="parenleft.dnom" horiz-adv-x="138" unicode="&#58383;" /><glyph d="M99 246Q84 271 73.5 302.5Q63 334 55.5 368Q48 402 44.5 435.5Q41 469 41 499Q41 562 55.5 628.5Q70 695 99 748L125 746Q114 713 106 685.5Q98 658 92 629.5Q86 601 83 569.5Q80 538 80 498Q80 432 92 370.5Q104 309 125 249Z" glyph-name="parenleft.numr" horiz-adv-x="138" unicode="&#58403;" /><glyph d="M9 -168Q44 -62 63.5 47.5Q83 157 83 276Q83 348 78 404Q73 460 63.5 510.5Q54 561 40.5 610.5Q27 660 10 719L42 722Q65 674 82 619Q99 564 110 506Q121 448 126.5 389.5Q132 331 132 277Q132 226 126.5 167Q121 108 110 48Q99 -12 82 -69Q65 -126 42 -172Z" glyph-name="parenright" horiz-adv-x="177" unicode=")" /><glyph d="M15 -69Q36 -9 48 52.5Q60 114 60 180Q60 220 57 251.5Q54 283 48 311.5Q42 340 33.5 367.5Q25 395 15 428L42 430Q71 377 85 310.5Q99 244 99 181Q99 151 95.5 117.5Q92 84 85 50Q78 16 67 -15.5Q56 -47 42 -72Z" glyph-name="parenright.dnom" horiz-adv-x="138" unicode="&#58384;" /><glyph d="M15 249Q36 309 48 370.5Q60 432 60 498Q60 538 57 569.5Q54 601 48 629.5Q42 658 33.5 685.5Q25 713 15 746L42 748Q71 695 85 628.5Q99 562 99 499Q99 469 95.5 435.5Q92 402 85 368Q78 334 67 302.5Q56 271 42 246Z" glyph-name="parenright.numr" horiz-adv-x="138" unicode="&#58404;" /><glyph d="M178 35Q202 35 216.5 42.5Q231 50 239.5 62Q248 74 251 90Q254 106 254 123V397Q254 414 250.5 429.5Q247 445 238.5 456.5Q230 468 216 475Q202 482 181 482Q139 482 120 456.5Q101 431 101 396V119Q101 103 105 88Q109 73 118.5 61Q128 49 142.5 42Q157 35 178 35ZM176 -9Q116 -9 83 25Q50 59 50 125V393Q50 456 85.5 490Q121 524 175 525Q177 525 187 524Q197 523 206 518L98 703L147 720L285 479Q294 464 299.5 442.5Q305 421 305 397V128Q305 58 270.5 24.5Q236 -9 176 -9Z" glyph-name="partialdiff" horiz-adv-x="346" unicode="&#8706;" /><glyph d="M396 27Q425 27 437 45.5Q449 64 449 84V245Q449 264 437 282.5Q425 301 396 301Q368 301 356.5 283Q345 265 345 245V84Q345 61 356.5 44Q368 27 396 27ZM396 -10Q354 -10 329 14.5Q304 39 304 86V233Q304 281 329.5 310Q355 339 397 339Q438 339 464.5 313Q491 287 491 239V86Q491 40 464 15Q437 -10 396 -10ZM384 716H423L153 -3H111ZM132 411Q161 411 173 429.5Q185 448 185 468V628Q185 648 172.5 666.5Q160 685 132 685Q103 685 91.5 666.5Q80 648 80 628V468Q80 445 91.5 428Q103 411 132 411ZM132 374Q89 374 64.5 399.5Q40 425 40 472V623Q40 671 65.5 696.5Q91 722 132 722Q174 722 200 697Q226 672 226 623V470Q226 423 199.5 398.5Q173 374 132 374Z" glyph-name="percent" horiz-adv-x="531" unicode="%" /><glyph d="M51 100H104V0H51Z" glyph-name="period" horiz-adv-x="154" unicode="." /><glyph d="M38 73H81V0H38Z" glyph-name="period.dnom" horiz-adv-x="119" unicode="&#58382;" /><glyph d="M38 391H81V318H38Z" glyph-name="period.numr" horiz-adv-x="119" unicode="&#58402;" /><glyph d="M38 -60H81V-133H38Z" glyph-name="period.sub" horiz-adv-x="119" /><glyph d="M38 453H81V380H38Z" glyph-name="period.sup" horiz-adv-x="119" /><glyph d="M51 384H104V285H51Z" glyph-name="periodcentered" horiz-adv-x="154" unicode="&#8901;" /><glyph d="M396 27Q425 27 437 45.5Q449 64 449 84V245Q449 264 437 282.5Q425 301 396 301Q368 301 356.5 283Q345 265 345 245V84Q345 61 356.5 44Q368 27 396 27ZM396 -10Q354 -10 329 14.5Q304 39 304 86V233Q304 281 329.5 310Q355 339 397 339Q438 339 464.5 313Q491 287 491 239V86Q491 40 464 15Q437 -10 396 -10ZM384 716H423L153 -3H111ZM132 411Q161 411 173 429.5Q185 448 185 468V628Q185 648 172.5 666.5Q160 685 132 685Q103 685 91.5 666.5Q80 648 80 628V468Q80 445 91.5 428Q103 411 132 411ZM132 374Q89 374 64.5 399.5Q40 425 40 472V623Q40 671 65.5 696.5Q91 722 132 722Q174 722 200 697Q226 672 226 623V470Q226 423 199.5 398.5Q173 374 132 374ZM628 27Q657 27 669 45.5Q681 64 681 84V245Q681 264 668.5 282.5Q656 301 628 301Q600 301 588 283Q576 265 576 245V84Q576 61 587.5 44Q599 27 628 27ZM628 -10Q587 -10 561.5 14.5Q536 39 536 86V233Q536 281 561.5 310Q587 339 629 339Q670 339 696 313Q722 287 722 239V86Q722 40 695.5 15Q669 -10 628 -10Z" glyph-name="perthousand" horiz-adv-x="762" unicode="&#8240;" /><glyph d="M326 -4Q291 -4 267.5 15Q244 34 244 79V471H130Q128 416 126.5 356.5Q125 297 122.5 236Q120 175 117 115Q114 55 110 0H57Q61 55 64.5 115Q68 175 70.5 235.5Q73 296 75 355.5Q77 415 78 471H22L28 517H355V471H295V101Q295 79 300.5 61.5Q306 44 326 44Z" glyph-name="pi" horiz-adv-x="381" unicode="&#960;" /><glyph d="M178 298H53V341H178V475H218L217 341H341V298H218V164H178Z" glyph-name="plus" horiz-adv-x="395" unicode="+" /><glyph d="M54 147H341V105H54ZM178 335H53V378H178V509H218L217 378H341V335H218V206H178Z" glyph-name="plusminus" horiz-adv-x="395" unicode="&#177;" /><glyph d="M89 663H27V713H421V663H363V-133H309V663H143V-133H89Z" glyph-name="product" horiz-adv-x="448" unicode="&#8719;" /><glyph d="M168 34Q184 34 198.5 43Q213 52 224.5 67.5Q236 83 242.5 103Q249 123 249 145V374Q249 396 242 416.5Q235 437 223.5 453Q212 469 196.5 478Q181 487 164 487Q132 487 116 464.5Q100 442 100 407V113Q100 80 116.5 57Q133 34 168 34ZM249 50H248Q229 17 202.5 3.5Q176 -10 151 -10Q102 -10 76 21Q50 52 50 97V418Q50 467 80.5 497.5Q111 528 158 528Q171 528 185.5 524.5Q200 521 213 513.5Q226 506 236.5 494Q247 482 253 464H255L256 518H299V-162H249Z" glyph-name="q" horiz-adv-x="365" unicode="q" /><glyph d="M128 100H181V0H128ZM129 226Q131 284 146.5 321.5Q162 359 182 391Q192 407 201.5 424Q211 441 218.5 459.5Q226 478 230 499.5Q234 521 234 547Q234 570 230.5 593.5Q227 617 218.5 636Q210 655 196 667Q182 679 160 679Q128 679 108 651.5Q88 624 88 575V529H43V568Q43 643 73.5 683.5Q104 724 164 724Q226 724 255 675.5Q284 627 284 551Q284 520 278.5 494Q273 468 264 446Q255 424 244 405Q233 386 222 369Q205 340 191 310.5Q177 281 176 242V186H129Z" glyph-name="question" horiz-adv-x="324" unicode="?" /><glyph d="M200 459H147V559H200ZM199 333Q198 304 193 280.5Q188 257 181 237.5Q174 218 165 201Q156 184 146 168Q125 135 109.5 99.5Q94 64 94 12Q94 -11 97.5 -34.5Q101 -58 109.5 -77Q118 -96 132 -108Q146 -120 168 -120Q200 -120 220 -92.5Q240 -65 240 -16V30H285V-9Q285 -84 254.5 -124.5Q224 -165 164 -165Q102 -165 73 -116.5Q44 -68 44 8Q44 39 49.5 65Q55 91 64 113Q73 135 84 154Q95 173 106 190Q123 219 137 248.5Q151 278 152 317V373H199Z" glyph-name="questiondown" horiz-adv-x="325" unicode="&#191;" /><glyph d="M161 624V714H211V624L203 524H169ZM47 624V714H97V624L89 524H56Z" glyph-name="quotedbl" horiz-adv-x="258" unicode="&quot;" /><glyph d="M182 3H165V101H217V6L196 -91H167ZM67 3H50V101H102V6L81 -91H52Z" glyph-name="quotedblbase" horiz-adv-x="266" unicode="&#8222;" /><glyph d="M164 618 186 715H214L199 622H216V525H164ZM49 618 69 715H99L83 622H100V525H49Z" glyph-name="quotedblleft" horiz-adv-x="266" unicode="&#8220;" /><glyph d="M182 616H165V714H217V620L196 524H167ZM67 616H50V714H102V620L81 524H52Z" glyph-name="quotedblright" horiz-adv-x="266" unicode="&#8221;" /><glyph d="M49 618 69 715H99L83 622H100V525H49Z" glyph-name="quoteleft" horiz-adv-x="151" unicode="&#8216;" /><glyph d="M67 616H51V714H102V620L81 524H52Z" glyph-name="quoteright" horiz-adv-x="152" unicode="&#8217;" /><glyph d="M62 3 50 39 64 101 102 65 95 -32 73 -91 57 -53Z" glyph-name="quotesinglbase" horiz-adv-x="151" unicode="&#8218;" /><glyph d="M47 624V714H97V624L89 524H56Z" glyph-name="quotesingle" horiz-adv-x="144" unicode="&apos;" /><glyph d="M66 518H115V461H116Q132 496 157 509Q182 522 208 522Q213 522 218.5 522Q224 522 229 520V469Q221 470 213 470.5Q205 471 200 471Q162 471 139.5 448.5Q117 426 116 382V0H66Z" glyph-name="r" horiz-adv-x="250" unicode="r" /><glyph d="M184 717H244L157 578H115ZM66 518H115V461H116Q132 496 157 509Q182 522 208 522Q213 522 218.5 522Q224 522 229 520V469Q221 470 213 470.5Q205 471 200 471Q162 471 139.5 448.5Q117 426 116 382V0H66Z" glyph-name="racute" horiz-adv-x="250" unicode="&#341;" /><glyph d="M21 517H76L157 98H158L329 714H381L180 -2H129Z" glyph-name="radical" horiz-adv-x="393" unicode="&#8730;" /><glyph d="M51 719H98L141 626L184 719H229L159 579H119ZM66 518H115V461H116Q132 496 157 509Q182 522 208 522Q213 522 218.5 522Q224 522 229 520V469Q221 470 213 470.5Q205 471 200 471Q162 471 139.5 448.5Q117 426 116 382V0H66Z" glyph-name="rcaron" horiz-adv-x="250" unicode="&#345;" /><glyph d="M67 -39H121L102 -172H65ZM66 518H115V461H116Q132 496 157 509Q182 522 208 522Q213 522 218.5 522Q224 522 229 520V469Q221 470 213 470.5Q205 471 200 471Q162 471 139.5 448.5Q117 426 116 382V0H66Z" glyph-name="rcommaaccent" horiz-adv-x="250" unicode="&#343;" /><glyph d="M195 538Q230 538 230 587Q230 607 222 623Q214 639 194 639H171V538ZM137 670H197Q231 670 248 649Q265 628 265 590Q265 562 254.5 542.5Q244 523 227 516L272 391H235L194 509H171V391H137ZM196 345Q252 345 289.5 393Q327 441 327 528Q327 571 316.5 605.5Q306 640 288 664Q270 688 246.5 700.5Q223 713 196 713Q170 713 146.5 700.5Q123 688 105.5 664Q88 640 77.5 605.5Q67 571 67 528Q67 484 77.5 450Q88 416 105.5 392.5Q123 369 146.5 357Q170 345 196 345ZM196 316Q157 316 127 333Q97 350 76.5 378.5Q56 407 45.5 445.5Q35 484 35 528Q35 574 46 613Q57 652 78 680.5Q99 709 129.5 725Q160 741 199 741Q235 741 265 725Q295 709 316.5 681Q338 653 349.5 613.5Q361 574 361 528Q361 485 350 446.5Q339 408 318 379Q297 350 266.5 333Q236 316 196 316Z" glyph-name="registered" horiz-adv-x="387" unicode="&#174;" /><glyph d="M118 602Q138 602 149.5 614.5Q161 627 161 649Q161 669 150.5 683Q140 697 117 697Q97 697 87 683.5Q77 670 77 648Q77 625 88.5 613.5Q100 602 118 602ZM118 573Q80 573 61.5 595.5Q43 618 43 647Q43 679 63.5 702.5Q84 726 118 726Q155 726 174 704.5Q193 683 193 652Q193 618 172 595.5Q151 573 118 573Z" glyph-name="ring" horiz-adv-x="231" unicode="&#730;" /><glyph d="M118 601Q137 601 149 613.5Q161 626 161 649Q161 669 150.5 682.5Q140 696 118 696Q98 696 87.5 682.5Q77 669 77 647Q77 624 88.5 612.5Q100 601 118 601ZM118 573Q79 573 61 596Q43 619 43 646Q43 660 47.5 674Q52 688 60 699L124 793L176 785L121 723Q158 721 175.5 700.5Q193 680 193 651Q193 618 172 595.5Q151 573 118 573Z" glyph-name="ringacute" horiz-adv-x="231" /><glyph d="M157 -8Q100 -8 70 26.5Q40 61 36 118H86Q91 78 107 56.5Q123 35 158 35Q187 35 204.5 52.5Q222 70 222 106Q222 122 216 138.5Q210 155 200.5 170.5Q191 186 180 200Q169 214 159 227L110 287Q83 322 66.5 352.5Q50 383 50 419Q50 441 57 460.5Q64 480 78 495Q92 510 113 518.5Q134 527 163 527Q209 527 239 497.5Q269 468 272 406L224 404Q219 449 204 467Q189 485 160 485Q130 485 114 467Q98 449 98 423Q98 402 108 379Q118 356 143 327L203 255Q238 210 254 175Q270 140 270 108Q270 86 263 65.5Q256 45 242 28.5Q228 12 207 2Q186 -8 157 -8Z" glyph-name="s" horiz-adv-x="304" unicode="s" /><glyph d="M204 717H264L177 578H135ZM157 -8Q100 -8 70 26.5Q40 61 36 118H86Q91 78 107 56.5Q123 35 158 35Q187 35 204.5 52.5Q222 70 222 106Q222 122 216 138.5Q210 155 200.5 170.5Q191 186 180 200Q169 214 159 227L110 287Q83 322 66.5 352.5Q50 383 50 419Q50 441 57 460.5Q64 480 78 495Q92 510 113 518.5Q134 527 163 527Q209 527 239 497.5Q269 468 272 406L224 404Q219 449 204 467Q189 485 160 485Q130 485 114 467Q98 449 98 423Q98 402 108 379Q118 356 143 327L203 255Q238 210 254 175Q270 140 270 108Q270 86 263 65.5Q256 45 242 28.5Q228 12 207 2Q186 -8 157 -8Z" glyph-name="sacute" horiz-adv-x="304" unicode="&#347;" /><glyph d="M63 719H110L153 626L196 719H241L171 579H131ZM157 -8Q100 -8 70 26.5Q40 61 36 118H86Q91 78 107 56.5Q123 35 158 35Q187 35 204.5 52.5Q222 70 222 106Q222 122 216 138.5Q210 155 200.5 170.5Q191 186 180 200Q169 214 159 227L110 287Q83 322 66.5 352.5Q50 383 50 419Q50 441 57 460.5Q64 480 78 495Q92 510 113 518.5Q134 527 163 527Q209 527 239 497.5Q269 468 272 406L224 404Q219 449 204 467Q189 485 160 485Q130 485 114 467Q98 449 98 423Q98 402 108 379Q118 356 143 327L203 255Q238 210 254 175Q270 140 270 108Q270 86 263 65.5Q256 45 242 28.5Q228 12 207 2Q186 -8 157 -8Z" glyph-name="scaron" horiz-adv-x="304" unicode="&#353;" /><glyph d="M163 -179Q150 -179 132.5 -177Q115 -175 98 -170V-131Q115 -135 129 -137Q143 -139 160 -139Q179 -139 190.5 -133Q202 -127 202 -112Q202 -86 153 -83L129 -81L146 -7Q95 -4 67 30Q39 64 36 118H86Q91 78 107 56.5Q123 35 158 35Q187 35 204.5 52.5Q222 70 222 106Q222 122 216 138.5Q210 155 200.5 170.5Q191 186 180 200Q169 214 159 227L110 287Q83 322 66.5 352.5Q50 383 50 419Q50 441 57 460.5Q64 480 78 495Q92 510 113 518.5Q134 527 163 527Q209 527 239 497.5Q269 468 272 406L224 404Q219 449 204 467Q189 485 160 485Q130 485 114 467Q98 449 98 423Q98 402 108 379Q118 356 143 327L203 255Q238 210 254 175Q270 140 270 108Q270 68 247.5 34.5Q225 1 178 -6L167 -54Q182 -55 196.5 -58Q211 -61 222.5 -67.5Q234 -74 241 -85Q248 -96 248 -112Q248 -141 223.5 -160Q199 -179 163 -179Z" glyph-name="scedilla" horiz-adv-x="304" unicode="&#351;" /><glyph d="M133 718H173L241 579H194L151 672L108 579H63ZM157 -8Q100 -8 70 26.5Q40 61 36 118H86Q91 78 107 56.5Q123 35 158 35Q187 35 204.5 52.5Q222 70 222 106Q222 122 216 138.5Q210 155 200.5 170.5Q191 186 180 200Q169 214 159 227L110 287Q83 322 66.5 352.5Q50 383 50 419Q50 441 57 460.5Q64 480 78 495Q92 510 113 518.5Q134 527 163 527Q209 527 239 497.5Q269 468 272 406L224 404Q219 449 204 467Q189 485 160 485Q130 485 114 467Q98 449 98 423Q98 402 108 379Q118 356 143 327L203 255Q238 210 254 175Q270 140 270 108Q270 86 263 65.5Q256 45 242 28.5Q228 12 207 2Q186 -8 157 -8Z" glyph-name="scircumflex" horiz-adv-x="304" unicode="&#349;" /><glyph d="M140 -39H194L175 -172H138ZM157 -8Q100 -8 70 26.5Q40 61 36 118H86Q91 78 107 56.5Q123 35 158 35Q187 35 204.5 52.5Q222 70 222 106Q222 122 216 138.5Q210 155 200.5 170.5Q191 186 180 200Q169 214 159 227L110 287Q83 322 66.5 352.5Q50 383 50 419Q50 441 57 460.5Q64 480 78 495Q92 510 113 518.5Q134 527 163 527Q209 527 239 497.5Q269 468 272 406L224 404Q219 449 204 467Q189 485 160 485Q130 485 114 467Q98 449 98 423Q98 402 108 379Q118 356 143 327L203 255Q238 210 254 175Q270 140 270 108Q270 86 263 65.5Q256 45 242 28.5Q228 12 207 2Q186 -8 157 -8Z" glyph-name="scommaaccent" horiz-adv-x="304" unicode="&#537;" /><glyph d="M207 239Q233 252 251 276Q269 300 269 335Q269 368 248.5 387.5Q228 407 207 418Q191 426 180 431Q169 436 161 439.5Q153 443 152 444Q131 433 111 407.5Q91 382 91 347Q91 329 97 315.5Q103 302 112 291.5Q121 281 132 274.5Q143 268 152 264ZM178 -40Q154 -40 129.5 -33Q105 -26 84.5 -10.5Q64 5 51.5 30Q39 55 39 92V122H83V100Q83 52 110 26Q137 0 181 0Q227 0 249.5 28Q272 56 272 94Q272 116 266 132Q260 148 249.5 159.5Q239 171 226 179.5Q213 188 199 194L183 202Q167 210 140 219Q122 227 104.5 238.5Q87 250 74 265Q61 280 53 300Q45 320 45 345Q45 380 63.5 411.5Q82 443 116 467Q78 490 62.5 519Q47 548 47 587Q47 613 55 636.5Q63 660 79.5 677.5Q96 695 121 705.5Q146 716 180 716Q241 716 274.5 682Q308 648 308 591V560H266V587Q266 629 243.5 652.5Q221 676 179 676Q141 676 116.5 654.5Q92 633 92 590Q92 554 112 530.5Q132 507 156 494L219 463Q236 454 253 443Q270 432 284 417Q298 402 306.5 382.5Q315 363 315 338Q315 302 298 270.5Q281 239 246 217Q283 199 302.5 166.5Q322 134 320 95Q320 65 310 40.5Q300 16 281 -2Q262 -20 236 -30Q210 -40 178 -40Z" glyph-name="section" horiz-adv-x="357" unicode="&#167;" /><glyph d="M52 509H104V409H52ZM69 3H52V100H104V6L80 -94H51Z" glyph-name="semicolon" horiz-adv-x="155" unicode=";" /><glyph d="M98 0Q99 108 110.5 206.5Q122 305 141.5 390.5Q161 476 186 546Q211 616 238 666H36V713H293V673Q255 608 228 526.5Q201 445 183.5 356Q166 267 158 176Q150 85 149 0Z" glyph-name="seven" horiz-adv-x="321" unicode="7" /><glyph d="M131 0Q132 108 143.5 206.5Q155 305 174.5 390.5Q194 476 219 546Q244 616 271 666H69V713H326V673Q288 608 261 526.5Q234 445 216.5 356Q199 267 191 176Q183 85 182 0Z" glyph-name="seven.LT" horiz-adv-x="395" unicode="&#58695;" /><glyph d="M63 0Q63 57 71 109Q79 161 91 207Q103 253 118.5 291Q134 329 150 358H26V396H195V363Q173 328 156.5 284.5Q140 241 129 193.5Q118 146 112.5 96.5Q107 47 107 0Z" glyph-name="seven.dnom" horiz-adv-x="219" unicode="&#58377;" /><glyph d="M63 318Q63 375 71 427Q79 479 91 525Q103 571 118.5 609Q134 647 150 676H26V714H195V681Q173 646 156.5 602.5Q140 559 129 511.5Q118 464 112.5 414.5Q107 365 107 318Z" glyph-name="seven.numr" horiz-adv-x="219" unicode="&#58397;" /><glyph d="M184 37Q206 37 221.5 45Q237 53 246.5 65.5Q256 78 260 93Q264 108 264 123V318Q264 356 244 374.5Q224 393 191 393Q170 393 154 385Q138 377 126.5 363.5Q115 350 109 333.5Q103 317 103 300V125Q103 110 108 94.5Q113 79 122.5 66Q132 53 147.5 45Q163 37 184 37ZM180 -9Q117 -9 83.5 30.5Q50 70 50 133V587Q50 656 89 690Q128 724 186 724Q246 724 278.5 690.5Q311 657 311 607V549H262V598Q262 630 243.5 654.5Q225 679 184 679Q161 679 146 671Q131 663 121 650Q111 637 107 620.5Q103 604 103 588V386Q120 412 148 425Q176 438 203 438Q252 438 284 409Q316 380 316 325V126Q316 60 278 25.5Q240 -9 180 -9Z" glyph-name="six" horiz-adv-x="366" unicode="6" /><glyph d="M198 37Q220 37 235.5 45Q251 53 260.5 65.5Q270 78 274 93Q278 108 278 123V318Q278 356 258 374.5Q238 393 205 393Q184 393 168 385Q152 377 140.5 363.5Q129 350 123 333.5Q117 317 117 300V125Q117 110 122 94.5Q127 79 136.5 66Q146 53 161.5 45Q177 37 198 37ZM194 -9Q131 -9 97.5 30.5Q64 70 64 133V587Q64 656 103 690Q142 724 200 724Q260 724 292.5 690.5Q325 657 325 607V549H276V598Q276 630 257.5 654.5Q239 679 198 679Q175 679 160 671Q145 663 135 650Q125 637 121 620.5Q117 604 117 588V386Q134 412 162 425Q190 438 217 438Q266 438 298 409Q330 380 330 325V126Q330 60 292 25.5Q254 -9 194 -9Z" glyph-name="six.LT" horiz-adv-x="395" unicode="&#58694;" /><glyph d="M121 26Q144 26 154 41Q164 56 164 73V168Q164 189 152.5 199Q141 209 124 209Q107 209 92.5 195Q78 181 78 162V72Q78 55 88.5 40.5Q99 26 121 26ZM119 -10Q79 -10 56.5 14Q34 38 34 76V313Q34 355 59 378Q84 401 122 401Q160 401 182 379.5Q204 358 204 325V291H163V321Q163 340 151.5 352.5Q140 365 119 365Q97 365 87.5 350Q78 335 78 317V210Q89 227 105 234Q121 241 137 241Q169 241 188 222.5Q207 204 207 172V74Q207 35 182 12.5Q157 -10 119 -10Z" glyph-name="six.dnom" horiz-adv-x="240" unicode="&#58376;" /><glyph d="M121 344Q144 344 154 359Q164 374 164 391V486Q164 507 152.5 517Q141 527 124 527Q107 527 92.5 513Q78 499 78 480V390Q78 373 88.5 358.5Q99 344 121 344ZM119 308Q79 308 56.5 332Q34 356 34 394V631Q34 673 59 696Q84 719 122 719Q160 719 182 697.5Q204 676 204 643V609H163V639Q163 658 151.5 670.5Q140 683 119 683Q97 683 87.5 668Q78 653 78 635V528Q89 545 105 552Q121 559 137 559Q169 559 188 540.5Q207 522 207 490V392Q207 353 182 330.5Q157 308 119 308Z" glyph-name="six.numr" horiz-adv-x="240" unicode="&#58396;" /><glyph d="M168 716H210L39 -169H-6Z" glyph-name="slash" horiz-adv-x="230" unicode="/" /><glyph glyph-name="space" horiz-adv-x="140" unicode=" " /><glyph d="M38 45H90V344H43V386H90V590Q90 625 101 650.5Q112 676 131 692Q150 708 175 715.5Q200 723 227 723Q285 723 316.5 692Q348 661 348 612V546H300V607Q300 645 278.5 662.5Q257 680 223 680Q209 680 195 676.5Q181 673 169.5 663Q158 653 150.5 636Q143 619 143 592V386H271V344H143V45H353L343 0H38Z" glyph-name="sterling" horiz-adv-x="386" unicode="&#163;" /><glyph d="M35 -93 228 305 34 675V714H304V663H101L281 322V288L99 -83H305V-133H35Z" glyph-name="summation" horiz-adv-x="338" unicode="&#8721;" /><glyph d="M158 -6Q145 -6 132 -3Q119 0 109 8Q99 16 93 29Q87 42 87 62V473H32V517H87V635H136V517H222V473H136V76Q136 55 144 46.5Q152 38 168 38Q179 38 191 40.5Q203 43 212 46V5Q198 0 185 -3Q172 -6 158 -6Z" glyph-name="t" horiz-adv-x="245" unicode="t" /><glyph d="M55 313H87V473H32V517H87V635H136V517H222V473H136V313H189V276H136V76Q136 55 144 46.5Q152 38 168 38Q179 38 191 40.5Q203 43 212 46V5Q198 0 185 -3Q172 -6 158 -6Q145 -6 132 -3Q119 0 109 8Q99 16 93 29Q87 42 87 62V276H55Z" glyph-name="tbar" horiz-adv-x="245" unicode="&#359;" /><glyph d="M158 -6Q145 -6 132 -3Q119 0 109 8Q99 16 93 29Q87 42 87 62V473H32V517H87V635H136V517H222V473H136V76Q136 55 144 46.5Q152 38 168 38Q179 38 191 40.5Q203 43 212 46V5Q198 0 185 -3Q172 -6 158 -6ZM179 713H233L210 568H175Z" glyph-name="tcaron" horiz-adv-x="245" unicode="&#357;" /><glyph d="M104 -39H158L139 -172H102ZM158 -6Q145 -6 132 -3Q119 0 109 8Q99 16 93 29Q87 42 87 62V473H32V517H87V635H136V517H222V473H136V76Q136 55 144 46.5Q152 38 168 38Q179 38 191 40.5Q203 43 212 46V5Q198 0 185 -3Q172 -6 158 -6Z" glyph-name="tcommaaccent" horiz-adv-x="245" unicode="&#355;" /><glyph d="M185 35Q216 35 235 54.5Q254 74 254 112V410Q254 440 238 462.5Q222 485 185 485Q151 485 128.5 456Q106 427 106 380V130Q106 87 128.5 61Q151 35 185 35ZM56 713H105V462H107Q123 500 152.5 514Q182 528 206 528Q232 528 250.5 519.5Q269 511 281 496.5Q293 482 299 463.5Q305 445 305 425V105Q305 51 273.5 21Q242 -9 197 -9Q170 -9 144.5 4.5Q119 18 107 47H106V-162H56Z" glyph-name="thorn" horiz-adv-x="346" unicode="&#254;" /><glyph d="M166 -9Q127 -9 101.5 3.5Q76 16 61 37Q46 58 40 86.5Q34 115 34 147V172H85V144Q85 98 105.5 68Q126 38 165 38Q186 38 201.5 46.5Q217 55 227 74Q237 93 242 123.5Q247 154 247 198Q247 242 238 271Q229 300 214.5 316.5Q200 333 183.5 339.5Q167 346 152 346H108V394H152Q194 394 215.5 433Q237 472 237 544Q237 582 231 608Q225 634 214.5 649.5Q204 665 190 672Q176 679 160 679Q124 679 106 654Q88 629 88 581V549H39V579Q39 655 73 689.5Q107 724 165 724Q201 724 225 708.5Q249 693 263.5 668Q278 643 284 611.5Q290 580 290 548Q290 519 286 491Q282 463 272.5 439.5Q263 416 248 399Q233 382 211 375V373Q235 365 252 346.5Q269 328 280 302.5Q291 277 296 248Q301 219 301 192Q301 91 263.5 41Q226 -9 166 -9Z" glyph-name="three" horiz-adv-x="340" unicode="3" /><glyph d="M196 -9Q157 -9 131.5 3.5Q106 16 91 37Q76 58 70 86.5Q64 115 64 147V172H115V144Q115 98 135.5 68Q156 38 195 38Q216 38 231.5 46.5Q247 55 257 74Q267 93 272 123.5Q277 154 277 198Q277 242 268 271Q259 300 244.5 316.5Q230 333 213.5 339.5Q197 346 182 346H138V394H182Q224 394 245.5 433Q267 472 267 544Q267 582 261 608Q255 634 244.5 649.5Q234 665 220 672Q206 679 190 679Q154 679 136 654Q118 629 118 581V549H69V579Q69 655 103 689.5Q137 724 195 724Q231 724 255 708.5Q279 693 293.5 668Q308 643 314 611.5Q320 580 320 548Q320 519 316 491Q312 463 302.5 439.5Q293 416 278 399Q263 382 241 375V373Q265 365 282 346.5Q299 328 310 302.5Q321 277 326 248Q331 219 331 192Q331 91 293.5 41Q256 -9 196 -9Z" glyph-name="three.LT" horiz-adv-x="395" unicode="&#58691;" /><glyph d="M119 -10Q95 -10 79 -2Q63 6 53 19.5Q43 33 38.5 50Q34 67 34 86V103H75V85Q75 61 87 44Q99 27 119 27Q162 27 162 107Q162 128 157 142.5Q152 157 144.5 166Q137 175 128.5 179Q120 183 112 183H85V220H111Q158 220 158 295Q158 334 146 348.5Q134 363 117 363Q97 363 86.5 347.5Q76 332 76 307V290H36V311Q36 354 58 377Q80 400 120 400Q162 400 181.5 371Q201 342 201 300Q201 268 190 240.5Q179 213 153 204V202Q182 193 194.5 164.5Q207 136 207 104Q207 45 182 17.5Q157 -10 119 -10Z" glyph-name="three.dnom" horiz-adv-x="241" unicode="&#58373;" /><glyph d="M119 308Q95 308 79 316Q63 324 53 337.5Q43 351 38.5 368Q34 385 34 404V421H75V403Q75 379 87 362Q99 345 119 345Q162 345 162 425Q162 446 157 460.5Q152 475 144.5 484Q137 493 128.5 497Q120 501 112 501H85V538H111Q158 538 158 613Q158 652 146 666.5Q134 681 117 681Q97 681 86.5 665.5Q76 650 76 625V608H36V629Q36 672 58 695Q80 718 120 718Q162 718 181.5 689Q201 660 201 618Q201 586 190 558.5Q179 531 153 522V520Q182 511 194.5 482.5Q207 454 207 422Q207 363 182 335.5Q157 308 119 308Z" glyph-name="three.numr" horiz-adv-x="241" unicode="&#58393;" /><glyph d="M398 716H435L161 -2H123ZM121 306Q97 306 81 314Q65 322 55 335.5Q45 349 40.5 366Q36 383 36 402V419H77V401Q77 377 89 360Q101 343 121 343Q164 343 164 423Q164 444 159 458.5Q154 473 146.5 482Q139 491 130.5 495Q122 499 114 499H87V536H113Q160 536 160 611Q160 650 148 664.5Q136 679 119 679Q99 679 88.5 663.5Q78 648 78 623V606H38V627Q38 670 60 693Q82 716 122 716Q164 716 183.5 687Q203 658 203 616Q203 584 192 556.5Q181 529 155 520V518Q184 509 196.5 480.5Q209 452 209 420Q209 361 184 333.5Q159 306 121 306ZM426 105H312V139L415 400H460L353 141H426V222L467 256V141H502V105H467V0H426Z" glyph-name="threequarters" horiz-adv-x="541" unicode="&#190;" /><glyph d="M119 370Q95 370 79 378Q63 386 53 399.5Q43 413 38.5 430Q34 447 34 466V483H75V465Q75 441 87 424Q99 407 119 407Q162 407 162 487Q162 508 157 522.5Q152 537 144.5 546Q137 555 128.5 559Q120 563 112 563H85V600H111Q158 600 158 675Q158 714 146 728.5Q134 743 117 743Q97 743 86.5 727.5Q76 712 76 687V670H36V691Q36 734 58 757Q80 780 120 780Q162 780 181.5 751Q201 722 201 680Q201 648 190 620.5Q179 593 153 584V582Q182 573 194.5 544.5Q207 516 207 484Q207 425 182 397.5Q157 370 119 370Z" glyph-name="threesuperior" horiz-adv-x="241" unicode="&#179;" /><glyph d="M40 594Q44 625 60.5 647Q77 669 106 669Q119 669 132 664.5Q145 660 158 655Q171 650 184 645.5Q197 641 210 641Q224 641 230.5 650Q237 659 242 676L276 669Q272 638 254.5 616.5Q237 595 210 595Q196 595 182 599.5Q168 604 154.5 609.5Q141 615 128.5 619.5Q116 624 106 624Q91 624 85 615Q79 606 75 589Z" glyph-name="tilde" horiz-adv-x="308" unicode="&#732;" /><glyph d="M84 682H24V714H180V682H120V392H84ZM213 714H256L307 571L357 714H399V392H365V642L320 514H293L247 643V392H213Z" glyph-name="trademark" horiz-adv-x="441" unicode="&#8482;" /><glyph d="M40 499V506H345V499L199 212H193Z" glyph-name="triagdn" horiz-adv-x="385" unicode="&#9660;" /><glyph d="M45 352V358L332 511H339V206H332Z" glyph-name="triaglf" horiz-adv-x="385" unicode="&#9668;" /><glyph d="M45 511H52L339 358V352L52 206H45Z" glyph-name="triagrt" horiz-adv-x="385" unicode="&#9658;" /><glyph d="M40 218 186 506H192L345 218V212H40Z" glyph-name="triagup" horiz-adv-x="385" unicode="&#9650;" /><glyph d="M41 35 130 201Q181 298 206.5 379Q232 460 232 542V556Q231 581 227 603.5Q223 626 214.5 642.5Q206 659 192.5 668.5Q179 678 158 678Q139 678 125.5 670.5Q112 663 103.5 651Q95 639 91 623Q87 607 87 590V547H38V580Q38 645 70 684.5Q102 724 162 724Q285 724 285 554Q285 498 276.5 448Q268 398 252.5 352Q237 306 216.5 262.5Q196 219 172 174L104 47V46H294V0H41Z" glyph-name="two" horiz-adv-x="329" unicode="2" /><glyph d="M72 35 161 201Q212 298 237.5 379Q263 460 263 542V556Q262 581 258 603.5Q254 626 245.5 642.5Q237 659 223.5 668.5Q210 678 189 678Q170 678 156.5 670.5Q143 663 134.5 651Q126 639 122 623Q118 607 118 590V547H69V580Q69 645 101 684.5Q133 724 193 724Q316 724 316 554Q316 498 307.5 448Q299 398 283.5 352Q268 306 247.5 262.5Q227 219 203 174L135 47V46H325V0H72Z" glyph-name="two.LT" horiz-adv-x="395" unicode="&#58690;" /><glyph d="M38 28 98 130Q124 177 139 216Q154 255 154 295V303Q154 329 145 346Q136 363 114 363Q93 363 84 347.5Q75 332 75 312V289H35V313Q35 352 56 376.5Q77 401 116 401Q156 401 177 375Q198 349 198 301Q198 243 178 198.5Q158 154 130 107L90 37H202V0H38Z" glyph-name="two.dnom" horiz-adv-x="231" unicode="&#58372;" /><glyph d="M38 346 98 448Q124 495 139 534Q154 573 154 613V621Q154 647 145 664Q136 681 114 681Q93 681 84 665.5Q75 650 75 630V607H35V631Q35 670 56 694.5Q77 719 116 719Q156 719 177 693Q198 667 198 619Q198 561 178 516.5Q158 472 130 425L90 355H202V318H38Z" glyph-name="two.numr" horiz-adv-x="231" unicode="&#58392;" /><glyph d="M38 408 98 510Q124 557 139 596Q154 635 154 675V683Q154 709 145 726Q136 743 114 743Q93 743 84 727.5Q75 712 75 692V669H35V693Q35 732 56 756.5Q77 781 116 781Q156 781 177 755Q198 729 198 681Q198 623 178 578.5Q158 534 130 487L90 417H202V380H38Z" glyph-name="twosuperior" horiz-adv-x="231" unicode="&#178;" /><glyph d="M149 -10Q110 -10 85 14Q60 38 60 80V518H110V101Q110 34 171 34Q190 34 205.5 44Q221 54 232 70Q243 86 249.5 106.5Q256 127 256 147V518H306V0H260V60H259Q242 25 212.5 7.5Q183 -10 149 -10Z" glyph-name="u" horiz-adv-x="372" unicode="u" /><glyph d="M149 -10Q110 -10 85 14Q60 38 60 80V518H110V101Q110 34 171 34Q190 34 205.5 44Q221 54 232 70Q243 86 249.5 106.5Q256 127 256 147V518H306V0H260V60H259Q242 25 212.5 7.5Q183 -10 149 -10ZM233 717H293L206 578H164Z" glyph-name="uacute" horiz-adv-x="372" unicode="&#250;" /><glyph d="M186 583Q136 583 110 612.5Q84 642 83 696H124Q125 682 128.5 668.5Q132 655 139 644Q146 633 158 626.5Q170 620 189 620Q221 620 235 642Q249 664 249 696H289Q287 638 257.5 610.5Q228 583 186 583ZM149 -10Q110 -10 85 14Q60 38 60 80V518H110V101Q110 34 171 34Q190 34 205.5 44Q221 54 232 70Q243 86 249.5 106.5Q256 127 256 147V518H306V0H260V60H259Q242 25 212.5 7.5Q183 -10 149 -10Z" glyph-name="ubreve" horiz-adv-x="372" unicode="&#365;" /><glyph d="M149 -10Q110 -10 85 14Q60 38 60 80V518H110V101Q110 34 171 34Q190 34 205.5 44Q221 54 232 70Q243 86 249.5 106.5Q256 127 256 147V518H306V0H260V60H259Q242 25 212.5 7.5Q183 -10 149 -10ZM173 718H213L281 579H234L191 672L148 579H103Z" glyph-name="ucircumflex" horiz-adv-x="372" unicode="&#251;" /><glyph d="M149 -10Q110 -10 85 14Q60 38 60 80V518H110V101Q110 34 171 34Q190 34 205.5 44Q221 54 232 70Q243 86 249.5 106.5Q256 127 256 147V518H306V0H260V60H259Q242 25 212.5 7.5Q183 -10 149 -10ZM220 705H268V596H220ZM104 705H152V596H104Z" glyph-name="udieresis" horiz-adv-x="372" unicode="&#252;" /><glyph d="M82 717H142L211 578H169ZM149 -10Q110 -10 85 14Q60 38 60 80V518H110V101Q110 34 171 34Q190 34 205.5 44Q221 54 232 70Q243 86 249.5 106.5Q256 127 256 147V518H306V0H260V60H259Q242 25 212.5 7.5Q183 -10 149 -10Z" glyph-name="ugrave" horiz-adv-x="372" unicode="&#249;" /><glyph d="M261 706H314L254 582H213ZM157 706H211L151 582H110ZM149 -10Q110 -10 85 14Q60 38 60 80V518H110V101Q110 34 171 34Q190 34 205.5 44Q221 54 232 70Q243 86 249.5 106.5Q256 127 256 147V518H306V0H260V60H259Q242 25 212.5 7.5Q183 -10 149 -10Z" glyph-name="uhungarumlaut" horiz-adv-x="372" unicode="&#369;" /><glyph d="M98 643H274V597H98ZM149 -10Q110 -10 85 14Q60 38 60 80V518H110V101Q110 34 171 34Q190 34 205.5 44Q221 54 232 70Q243 86 249.5 106.5Q256 127 256 147V518H306V0H260V60H259Q242 25 212.5 7.5Q183 -10 149 -10Z" glyph-name="umacron" horiz-adv-x="372" unicode="&#363;" /><glyph d="M0 -60H370V-104H0Z" glyph-name="underscore" horiz-adv-x="370" unicode="_" /><glyph glyph-name="uni00A0" horiz-adv-x="140" unicode="&#160;" /><glyph d="M162 -39H216L197 -172H160ZM161 667H24V713H349V667H213V0H161Z" glyph-name="uni021A" horiz-adv-x="373" unicode="&#538;" /><glyph d="M104 -39H158L139 -172H102ZM158 -6Q145 -6 132 -3Q119 0 109 8Q99 16 93 29Q87 42 87 62V473H32V517H87V635H136V517H222V473H136V76Q136 55 144 46.5Q152 38 168 38Q179 38 191 40.5Q203 43 212 46V5Q198 0 185 -3Q172 -6 158 -6Z" glyph-name="uni021B" horiz-adv-x="245" unicode="&#539;" /><glyph d="M122 407Q146 407 155.5 421Q165 435 165 454V700Q165 717 154.5 730.5Q144 744 121 744Q98 744 87 730.5Q76 717 76 699V454Q76 436 87 421.5Q98 407 122 407ZM121 370Q81 370 57 391.5Q33 413 33 454V697Q33 739 59.5 760Q86 781 122 781Q158 781 183.5 761Q209 741 209 700V455Q209 412 183.5 391Q158 370 121 370Z" glyph-name="uni2070" horiz-adv-x="242" unicode="&#8304;" /><glyph d="M135 485H21V519L124 780H169L62 521H135V602L176 636V521H211V485H176V380H135Z" glyph-name="uni2074" horiz-adv-x="230" unicode="&#8308;" /><glyph d="M118 370Q75 370 54.5 394Q34 418 34 453V484H75V457Q75 435 87 420.5Q99 406 119 406Q139 406 151 420.5Q163 435 163 467V539Q163 568 152 581Q141 594 121 594Q107 594 96 585.5Q85 577 78 566L39 570L48 776H194V738H84Q84 736 83 715.5Q82 695 81 670.5Q80 646 79 625Q78 604 78 602Q89 615 103.5 621.5Q118 628 135 628Q164 628 185.5 609.5Q207 591 207 548V466Q207 421 182 395.5Q157 370 118 370Z" glyph-name="uni2075" horiz-adv-x="241" unicode="&#8309;" /><glyph d="M121 406Q144 406 154 421Q164 436 164 453V548Q164 569 152.5 579Q141 589 124 589Q107 589 92.5 575Q78 561 78 542V452Q78 435 88.5 420.5Q99 406 121 406ZM119 370Q79 370 56.5 394Q34 418 34 456V693Q34 735 59 758Q84 781 122 781Q160 781 182 759.5Q204 738 204 705V671H163V701Q163 720 151.5 732.5Q140 745 119 745Q97 745 87.5 730Q78 715 78 697V590Q89 607 105 614Q121 621 137 621Q169 621 188 602.5Q207 584 207 552V454Q207 415 182 392.5Q157 370 119 370Z" glyph-name="uni2076" horiz-adv-x="240" unicode="&#8310;" /><glyph d="M63 380Q63 437 71 489Q79 541 91 587Q103 633 118.5 671Q134 709 150 738H26V776H195V743Q173 708 156.5 664.5Q140 621 129 573.5Q118 526 112.5 476.5Q107 427 107 380Z" glyph-name="uni2077" horiz-adv-x="219" unicode="&#8311;" /><glyph d="M121 599Q141 599 152 611.5Q163 624 163 641V706Q163 725 150.5 735.5Q138 746 120 746Q102 746 90 734.5Q78 723 78 706V641Q78 622 91 610.5Q104 599 121 599ZM121 406Q143 406 154 418.5Q165 431 165 450V522Q165 542 151.5 553.5Q138 565 121 565Q101 565 88.5 553.5Q76 542 76 523V449Q76 431 88 418.5Q100 406 121 406ZM120 371Q81 371 57 391.5Q33 412 33 451V518Q33 540 44.5 556Q56 572 74 582Q56 590 46.5 606.5Q37 623 37 642V703Q37 741 61.5 761Q86 781 121 781Q156 781 180.5 762.5Q205 744 205 705V644Q205 624 195 607.5Q185 591 166 583Q184 575 196.5 559Q209 543 209 520V451Q209 411 183.5 391Q158 371 120 371Z" glyph-name="uni2078" horiz-adv-x="242" unicode="&#8312;" /><glyph d="M116 563Q133 563 147.5 577Q162 591 163 610V700Q163 717 152 731.5Q141 746 118 746Q95 746 85.5 731Q76 716 76 699V604Q76 584 87.5 573.5Q99 563 116 563ZM118 370Q80 370 58.5 391.5Q37 413 37 448V481H77V452Q77 431 89 419Q101 407 121 407Q141 407 152 421Q163 435 163 456V561Q152 546 135 538.5Q118 531 102 531Q71 531 52.5 549.5Q34 568 34 600V698Q34 737 58.5 759Q83 781 121 781Q161 781 183.5 757.5Q206 734 206 696V462Q206 417 181 393.5Q156 370 118 370Z" glyph-name="uni2079" horiz-adv-x="240" unicode="&#8313;" /><glyph d="M99 308Q84 333 73.5 364.5Q63 396 55.5 430Q48 464 44.5 497.5Q41 531 41 561Q41 624 55.5 690.5Q70 757 99 810L125 808Q114 775 106 747.5Q98 720 92 691.5Q86 663 83 631.5Q80 600 80 560Q80 494 92 432.5Q104 371 125 311Z" glyph-name="uni207D" horiz-adv-x="138" unicode="&#8317;" /><glyph d="M15 311Q36 371 48 432.5Q60 494 60 560Q60 600 57 631.5Q54 663 48 691.5Q42 720 33.5 747.5Q25 775 15 808L42 810Q71 757 85 690.5Q99 624 99 561Q99 531 95.5 497.5Q92 464 85 430Q78 396 67 364.5Q56 333 42 308Z" glyph-name="uni207E" horiz-adv-x="138" unicode="&#8318;" /><glyph d="M122 -106Q146 -106 155.5 -92Q165 -78 165 -59V187Q165 204 154.5 217.5Q144 231 121 231Q98 231 87 217.5Q76 204 76 186V-59Q76 -77 87 -91.5Q98 -106 122 -106ZM121 -143Q81 -143 57 -121.5Q33 -100 33 -59V184Q33 226 59.5 247Q86 268 122 268Q158 268 183.5 248Q209 228 209 187V-58Q209 -101 183.5 -122Q158 -143 121 -143Z" glyph-name="uni2080" horiz-adv-x="242" unicode="&#8320;" /><glyph d="M81 220 45 208 38 241 98 267H124V-133H81Z" glyph-name="uni2081" horiz-adv-x="194" unicode="&#8321;" /><glyph d="M38 -105 98 -3Q124 44 139 83Q154 122 154 162V170Q154 196 145 213Q136 230 114 230Q93 230 84 214.5Q75 199 75 179V156H35V180Q35 219 56 243.5Q77 268 116 268Q156 268 177 242Q198 216 198 168Q198 110 178 65.5Q158 21 130 -26L90 -96H202V-133H38Z" glyph-name="uni2082" horiz-adv-x="231" unicode="&#8322;" /><glyph d="M119 -143Q95 -143 79 -135Q63 -127 53 -113.5Q43 -100 38.5 -83Q34 -66 34 -47V-30H75V-48Q75 -72 87 -89Q99 -106 119 -106Q162 -106 162 -26Q162 -5 157 9.5Q152 24 144.5 33Q137 42 128.5 46Q120 50 112 50H85V87H111Q158 87 158 162Q158 201 146 215.5Q134 230 117 230Q97 230 86.5 214.5Q76 199 76 174V157H36V178Q36 221 58 244Q80 267 120 267Q162 267 181.5 238Q201 209 201 167Q201 135 190 107.5Q179 80 153 71V69Q182 60 194.5 31.5Q207 3 207 -29Q207 -88 182 -115.5Q157 -143 119 -143Z" glyph-name="uni2083" horiz-adv-x="241" unicode="&#8323;" /><glyph d="M135 -28H21V6L124 267H169L62 8H135V89L176 123V8H211V-28H176V-133H135Z" glyph-name="uni2084" horiz-adv-x="230" unicode="&#8324;" /><glyph d="M118 -143Q75 -143 54.5 -119Q34 -95 34 -60V-29H75V-56Q75 -78 87 -92.5Q99 -107 119 -107Q139 -107 151 -92.5Q163 -78 163 -46V26Q163 55 152 68Q141 81 121 81Q107 81 96 72.5Q85 64 78 53L39 57L48 263H194V225H84Q84 223 83 202.5Q82 182 81 157.5Q80 133 79 112Q78 91 78 89Q89 102 103.5 108.5Q118 115 135 115Q164 115 185.5 96.5Q207 78 207 35V-47Q207 -92 182 -117.5Q157 -143 118 -143Z" glyph-name="uni2085" horiz-adv-x="241" unicode="&#8325;" /><glyph d="M121 -107Q144 -107 154 -92Q164 -77 164 -60V35Q164 56 152.5 66Q141 76 124 76Q107 76 92.5 62Q78 48 78 29V-61Q78 -78 88.5 -92.5Q99 -107 121 -107ZM119 -143Q79 -143 56.5 -119Q34 -95 34 -57V180Q34 222 59 245Q84 268 122 268Q160 268 182 246.5Q204 225 204 192V158H163V188Q163 207 151.5 219.5Q140 232 119 232Q97 232 87.5 217Q78 202 78 184V77Q89 94 105 101Q121 108 137 108Q169 108 188 89.5Q207 71 207 39V-59Q207 -98 182 -120.5Q157 -143 119 -143Z" glyph-name="uni2086" horiz-adv-x="240" unicode="&#8326;" /><glyph d="M63 -133Q63 -76 71 -24Q79 28 91 74Q103 120 118.5 158Q134 196 150 225H26V263H195V230Q173 195 156.5 151.5Q140 108 129 60.5Q118 13 112.5 -36.5Q107 -86 107 -133Z" glyph-name="uni2087" horiz-adv-x="219" unicode="&#8327;" /><glyph d="M121 86Q141 86 152 98.5Q163 111 163 128V193Q163 212 150.5 222.5Q138 233 120 233Q102 233 90 221.5Q78 210 78 193V128Q78 109 91 97.5Q104 86 121 86ZM121 -107Q143 -107 154 -94.5Q165 -82 165 -63V9Q165 29 151.5 40.5Q138 52 121 52Q101 52 88.5 40.5Q76 29 76 10V-64Q76 -82 88 -94.5Q100 -107 121 -107ZM120 -142Q81 -142 57 -121.5Q33 -101 33 -62V5Q33 27 44.5 43Q56 59 74 69Q56 77 46.5 93.5Q37 110 37 129V190Q37 228 61.5 248Q86 268 121 268Q156 268 180.5 249.5Q205 231 205 192V131Q205 111 195 94.5Q185 78 166 70Q184 62 196.5 46Q209 30 209 7V-62Q209 -102 183.5 -122Q158 -142 120 -142Z" glyph-name="uni2088" horiz-adv-x="242" unicode="&#8328;" /><glyph d="M116 50Q133 50 147.5 64Q162 78 163 97V187Q163 204 152 218.5Q141 233 118 233Q95 233 85.5 218Q76 203 76 186V91Q76 71 87.5 60.5Q99 50 116 50ZM118 -143Q80 -143 58.5 -121.5Q37 -100 37 -65V-32H77V-61Q77 -82 89 -94Q101 -106 121 -106Q141 -106 152 -92Q163 -78 163 -57V48Q152 33 135 25.5Q118 18 102 18Q71 18 52.5 36.5Q34 55 34 87V185Q34 224 58.5 246Q83 268 121 268Q161 268 183.5 244.5Q206 221 206 183V-51Q206 -96 181 -119.5Q156 -143 118 -143Z" glyph-name="uni2089" horiz-adv-x="240" unicode="&#8329;" /><glyph d="M99 -205Q84 -180 73.5 -148.5Q63 -117 55.5 -83Q48 -49 44.5 -15.5Q41 18 41 48Q41 111 55.5 177.5Q70 244 99 297L125 295Q114 262 106 234.5Q98 207 92 178.5Q86 150 83 118.5Q80 87 80 47Q80 -19 92 -80.5Q104 -142 125 -202Z" glyph-name="uni208D" horiz-adv-x="138" unicode="&#8333;" /><glyph d="M15 -202Q36 -142 48 -80.5Q60 -19 60 47Q60 87 57 118.5Q54 150 48 178.5Q42 207 33.5 234.5Q25 262 15 295L42 297Q71 244 85 177.5Q99 111 99 48Q99 18 95.5 -15.5Q92 -49 85 -83Q78 -117 67 -148.5Q56 -180 42 -205Z" glyph-name="uni208E" horiz-adv-x="138" unicode="&#8334;" /><glyph d="M126 583H191V94H280Q310 94 310 142V705H394V163Q394 115 386 84Q378 53 363 34Q348 15 325.5 7.5Q303 0 274 0H126ZM26 705H164Q193 705 215.5 699.5Q238 694 253 678.5Q268 663 276 634Q284 605 284 557V122H218V563Q218 612 189 612H100V0H26Z" glyph-name="uni20AA" horiz-adv-x="420" unicode="&#8362;" /><glyph d="M407 -10Q383 -10 367 -2Q351 6 341 19.5Q331 33 326.5 50Q322 67 322 86V103H363V85Q363 61 375 44Q387 27 407 27Q450 27 450 107Q450 128 445 142.5Q440 157 432.5 166Q425 175 416.5 179Q408 183 400 183H373V220H399Q446 220 446 295Q446 334 434 348.5Q422 363 405 363Q385 363 374.5 347.5Q364 332 364 307V290H324V311Q324 354 346 377Q368 400 408 400Q450 400 469.5 371Q489 342 489 300Q489 268 478 240.5Q467 213 441 204V202Q470 193 482.5 164.5Q495 136 495 104Q495 45 470 17.5Q445 -10 407 -10ZM372 716H409L135 -2H97ZM100 669 64 657 57 690 117 716H143V316H100Z" glyph-name="uni2153" horiz-adv-x="541" unicode="&#8531;" /><glyph d="M410 -10Q386 -10 370 -2Q354 6 344 19.5Q334 33 329.5 50Q325 67 325 86V103H366V85Q366 61 378 44Q390 27 410 27Q453 27 453 107Q453 128 448 142.5Q443 157 435.5 166Q428 175 419.5 179Q411 183 403 183H376V220H402Q449 220 449 295Q449 334 437 348.5Q425 363 408 363Q388 363 377.5 347.5Q367 332 367 307V290H327V311Q327 354 349 377Q371 400 411 400Q453 400 472.5 371Q492 342 492 300Q492 268 481 240.5Q470 213 444 204V202Q473 193 485.5 164.5Q498 136 498 104Q498 45 473 17.5Q448 -10 410 -10ZM389 716H426L152 -2H114ZM26 344 86 446Q112 493 127 532Q142 571 142 611V619Q142 645 133 662Q124 679 102 679Q81 679 72 663.5Q63 648 63 628V605H23V629Q23 668 44 692.5Q65 717 104 717Q144 717 165 691Q186 665 186 617Q186 559 166 514.5Q146 470 118 423L78 353H190V316H26Z" glyph-name="uni2154" horiz-adv-x="541" unicode="&#8532;" /><glyph d="M381 716H418L144 -2H106ZM411 -10Q368 -10 347.5 14Q327 38 327 73V104H368V77Q368 55 380 40.5Q392 26 412 26Q432 26 444 40.5Q456 55 456 87V159Q456 188 445 201Q434 214 414 214Q400 214 389 205.5Q378 197 371 186L332 190L341 396H487V358H377Q377 356 376 335.5Q375 315 374 290.5Q373 266 372 245Q371 224 371 222Q382 235 396.5 241.5Q411 248 428 248Q457 248 478.5 229.5Q500 211 500 168V86Q500 41 475 15.5Q450 -10 411 -10ZM114 669 78 657 71 690 131 716H157V316H114Z" glyph-name="uni2155" horiz-adv-x="541" unicode="&#8533;" /><glyph d="M386 716H423L149 -2H111ZM412 -10Q369 -10 348.5 14Q328 38 328 73V104H369V77Q369 55 381 40.5Q393 26 413 26Q433 26 445 40.5Q457 55 457 87V159Q457 188 446 201Q435 214 415 214Q401 214 390 205.5Q379 197 372 186L333 190L342 396H488V358H378Q378 356 377 335.5Q376 315 375 290.5Q374 266 373 245Q372 224 372 222Q383 235 397.5 241.5Q412 248 429 248Q458 248 479.5 229.5Q501 211 501 168V86Q501 41 476 15.5Q451 -10 412 -10ZM26 344 86 446Q112 493 127 532Q142 571 142 611V619Q142 645 133 662Q124 679 102 679Q81 679 72 663.5Q63 648 63 628V605H23V629Q23 668 44 692.5Q65 717 104 717Q144 717 165 691Q186 665 186 617Q186 559 166 514.5Q146 470 118 423L78 353H190V316H26Z" glyph-name="uni2156" horiz-adv-x="541" unicode="&#8534;" /><glyph d="M412 -10Q369 -10 348.5 14Q328 38 328 73V104H369V77Q369 55 381 40.5Q393 26 413 26Q433 26 445 40.5Q457 55 457 87V159Q457 188 446 201Q435 214 415 214Q401 214 390 205.5Q379 197 372 186L333 190L342 396H488V358H378Q378 356 377 335.5Q376 315 375 290.5Q374 266 373 245Q372 224 372 222Q383 235 397.5 241.5Q412 248 429 248Q458 248 479.5 229.5Q501 211 501 168V86Q501 41 476 15.5Q451 -10 412 -10ZM384 716H421L147 -2H109ZM114 306Q90 306 74 314Q58 322 48 335.5Q38 349 33.5 366Q29 383 29 402V419H70V401Q70 377 82 360Q94 343 114 343Q157 343 157 423Q157 444 152 458.5Q147 473 139.5 482Q132 491 123.5 495Q115 499 107 499H80V536H106Q153 536 153 611Q153 650 141 664.5Q129 679 112 679Q92 679 81.5 663.5Q71 648 71 623V606H31V627Q31 670 53 693Q75 716 115 716Q157 716 176.5 687Q196 658 196 616Q196 584 185 556.5Q174 529 148 520V518Q177 509 189.5 480.5Q202 452 202 420Q202 361 177 333.5Q152 306 114 306Z" glyph-name="uni2157" horiz-adv-x="541" unicode="&#8535;" /><glyph d="M384 716H421L147 -2H109ZM412 -10Q369 -10 348.5 14Q328 38 328 73V104H369V77Q369 55 381 40.5Q393 26 413 26Q433 26 445 40.5Q457 55 457 87V159Q457 188 446 201Q435 214 415 214Q401 214 390 205.5Q379 197 372 186L333 190L342 396H488V358H378Q378 356 377 335.5Q376 315 375 290.5Q374 266 373 245Q372 224 372 222Q383 235 397.5 241.5Q412 248 429 248Q458 248 479.5 229.5Q501 211 501 168V86Q501 41 476 15.5Q451 -10 412 -10ZM130 421H16V455L119 716H164L57 457H130V538L171 572V457H206V421H171V316H130Z" glyph-name="uni2158" horiz-adv-x="541" unicode="&#8536;" /><glyph d="M381 716H418L144 -2H106ZM412 26Q435 26 445 41Q455 56 455 73V168Q455 189 443.5 199Q432 209 415 209Q398 209 383.5 195Q369 181 369 162V72Q369 55 379.5 40.5Q390 26 412 26ZM410 -10Q370 -10 347.5 14Q325 38 325 76V313Q325 355 350 378Q375 401 413 401Q451 401 473 379.5Q495 358 495 325V291H454V321Q454 340 442.5 352.5Q431 365 410 365Q388 365 378.5 350Q369 335 369 317V210Q380 227 396 234Q412 241 428 241Q460 241 479 222.5Q498 204 498 172V74Q498 35 473 12.5Q448 -10 410 -10ZM117 669 81 657 74 690 134 716H160V316H117Z" glyph-name="uni2159" horiz-adv-x="541" unicode="&#8537;" /><glyph d="M394 716H431L157 -2H119ZM129 306Q86 306 65.5 330Q45 354 45 389V420H86V393Q86 371 98 356.5Q110 342 130 342Q150 342 162 356.5Q174 371 174 403V475Q174 504 163 517Q152 530 132 530Q118 530 107 521.5Q96 513 89 502L50 506L59 712H205V674H95Q95 672 94 651.5Q93 631 92 606.5Q91 582 90 561Q89 540 89 538Q100 551 114.5 557.5Q129 564 146 564Q175 564 196.5 545.5Q218 527 218 484V402Q218 357 193 331.5Q168 306 129 306ZM419 26Q442 26 452 41Q462 56 462 73V168Q462 189 450.5 199Q439 209 422 209Q405 209 390.5 195Q376 181 376 162V72Q376 55 386.5 40.5Q397 26 419 26ZM417 -10Q377 -10 354.5 14Q332 38 332 76V313Q332 355 357 378Q382 401 420 401Q458 401 480 379.5Q502 358 502 325V291H461V321Q461 340 449.5 352.5Q438 365 417 365Q395 365 385.5 350Q376 335 376 317V210Q387 227 403 234Q419 241 435 241Q467 241 486 222.5Q505 204 505 172V74Q505 35 480 12.5Q455 -10 417 -10Z" glyph-name="uni215A" horiz-adv-x="541" unicode="&#8538;" /><glyph d="M382 716H419L145 -2H107ZM412 219Q432 219 443 231.5Q454 244 454 261V326Q454 345 441.5 355.5Q429 366 411 366Q393 366 381 354.5Q369 343 369 326V261Q369 242 382 230.5Q395 219 412 219ZM412 26Q434 26 445 38.5Q456 51 456 70V142Q456 162 442.5 173.5Q429 185 412 185Q392 185 379.5 173.5Q367 162 367 143V69Q367 51 379 38.5Q391 26 412 26ZM411 -9Q372 -9 348 11.5Q324 32 324 71V138Q324 160 335.5 176Q347 192 365 202Q347 210 337.5 226.5Q328 243 328 262V323Q328 361 352.5 381Q377 401 412 401Q447 401 471.5 382.5Q496 364 496 325V264Q496 244 486 227.5Q476 211 457 203Q475 195 487.5 179Q500 163 500 140V71Q500 31 474.5 11Q449 -9 411 -9ZM117 669 81 657 74 690 134 716H160V316H117Z" glyph-name="uni215B" horiz-adv-x="541" unicode="&#8539;" /><glyph d="M395 716H432L158 -2H120ZM130 306Q106 306 90 314Q74 322 64 335.5Q54 349 49.5 366Q45 383 45 402V419H86V401Q86 377 98 360Q110 343 130 343Q173 343 173 423Q173 444 168 458.5Q163 473 155.5 482Q148 491 139.5 495Q131 499 123 499H96V536H122Q169 536 169 611Q169 650 157 664.5Q145 679 128 679Q108 679 97.5 663.5Q87 648 87 623V606H47V627Q47 670 69 693Q91 716 131 716Q173 716 192.5 687Q212 658 212 616Q212 584 201 556.5Q190 529 164 520V518Q193 509 205.5 480.5Q218 452 218 420Q218 361 193 333.5Q168 306 130 306ZM419 219Q439 219 450 231.5Q461 244 461 261V326Q461 345 448.5 355.5Q436 366 418 366Q400 366 388 354.5Q376 343 376 326V261Q376 242 389 230.5Q402 219 419 219ZM419 26Q441 26 452 38.5Q463 51 463 70V142Q463 162 449.5 173.5Q436 185 419 185Q399 185 386.5 173.5Q374 162 374 143V69Q374 51 386 38.5Q398 26 419 26ZM418 -9Q379 -9 355 11.5Q331 32 331 71V138Q331 160 342.5 176Q354 192 372 202Q354 210 344.5 226.5Q335 243 335 262V323Q335 361 359.5 381Q384 401 419 401Q454 401 478.5 382.5Q503 364 503 325V264Q503 244 493 227.5Q483 211 464 203Q482 195 494.5 179Q507 163 507 140V71Q507 31 481.5 11Q456 -9 418 -9Z" glyph-name="uni215C" horiz-adv-x="541" unicode="&#8540;" /><glyph d="M394 716H431L157 -2H119ZM129 306Q86 306 65.5 330Q45 354 45 389V420H86V393Q86 371 98 356.5Q110 342 130 342Q150 342 162 356.5Q174 371 174 403V475Q174 504 163 517Q152 530 132 530Q118 530 107 521.5Q96 513 89 502L50 506L59 712H205V674H95Q95 672 94 651.5Q93 631 92 606.5Q91 582 90 561Q89 540 89 538Q100 551 114.5 557.5Q129 564 146 564Q175 564 196.5 545.5Q218 527 218 484V402Q218 357 193 331.5Q168 306 129 306ZM418 219Q438 219 449 231.5Q460 244 460 261V326Q460 345 447.5 355.5Q435 366 417 366Q399 366 387 354.5Q375 343 375 326V261Q375 242 388 230.5Q401 219 418 219ZM418 26Q440 26 451 38.5Q462 51 462 70V142Q462 162 448.5 173.5Q435 185 418 185Q398 185 385.5 173.5Q373 162 373 143V69Q373 51 385 38.5Q397 26 418 26ZM417 -9Q378 -9 354 11.5Q330 32 330 71V138Q330 160 341.5 176Q353 192 371 202Q353 210 343.5 226.5Q334 243 334 262V323Q334 361 358.5 381Q383 401 418 401Q453 401 477.5 382.5Q502 364 502 325V264Q502 244 492 227.5Q482 211 463 203Q481 195 493.5 179Q506 163 506 140V71Q506 31 480.5 11Q455 -9 417 -9Z" glyph-name="uni215D" horiz-adv-x="541" unicode="&#8541;" /><glyph d="M387 716H424L150 -2H112ZM103 316Q103 373 111 425Q119 477 131 523Q143 569 158.5 607Q174 645 190 674H66V712H235V679Q213 644 196.5 600.5Q180 557 169 509.5Q158 462 152.5 412.5Q147 363 147 316ZM418 219Q438 219 449 231.5Q460 244 460 261V326Q460 345 447.5 355.5Q435 366 417 366Q399 366 387 354.5Q375 343 375 326V261Q375 242 388 230.5Q401 219 418 219ZM418 26Q440 26 451 38.5Q462 51 462 70V142Q462 162 448.5 173.5Q435 185 418 185Q398 185 385.5 173.5Q373 162 373 143V69Q373 51 385 38.5Q397 26 418 26ZM417 -9Q378 -9 354 11.5Q330 32 330 71V138Q330 160 341.5 176Q353 192 371 202Q353 210 343.5 226.5Q334 243 334 262V323Q334 361 358.5 381Q383 401 418 401Q453 401 477.5 382.5Q502 364 502 325V264Q502 244 492 227.5Q482 211 463 203Q481 195 493.5 179Q506 163 506 140V71Q506 31 480.5 11Q455 -9 417 -9Z" glyph-name="uni215E" horiz-adv-x="541" unicode="&#8542;" /><glyph d="M131 412 130 288H92L93 472L97 475L281 477L282 440L158 439L336 261L308 234Z" glyph-name="uni2196" horiz-adv-x="418" unicode="&#8598;" /><glyph d="M92 261 270 439 146 440V477L330 475L334 472L336 288H297V412L119 234Z" glyph-name="uni2197" horiz-adv-x="418" unicode="&#8599;" /><glyph d="M146 272H270L92 450L119 477L297 299V424H336Q336 413 335.5 387Q335 361 335 331.5Q335 302 334.5 276Q334 250 334 240L330 236L146 234Z" glyph-name="uni2198" horiz-adv-x="418" unicode="&#8600;" /><glyph d="M97 236 93 240 92 424H130L131 299L308 477L336 450L158 272H282L281 234Z" glyph-name="uni2199" horiz-adv-x="418" unicode="&#8601;" /><glyph d="M42 293 37 298 253 513 258 508 358 202 353 198Z" glyph-name="uni25E2" horiz-adv-x="385" unicode="&#9698;" /><glyph d="M37 202 137 508 142 513 358 298 353 293 42 198Z" glyph-name="uni25E3" horiz-adv-x="385" unicode="&#9699;" /><glyph d="M137 203 37 509 42 513 353 418 358 413 142 198Z" glyph-name="uni25E4" horiz-adv-x="385" unicode="&#9700;" /><glyph d="M37 413 42 418 353 513 358 509 258 203 253 198Z" glyph-name="uni25E5" horiz-adv-x="385" unicode="&#9701;" /><glyph d="M289 -178Q258 -178 235 -160Q212 -142 212 -104Q212 -70 226 -43.5Q240 -17 260 0V60H259Q242 25 212.5 7.5Q183 -10 149 -10Q110 -10 85 14Q60 38 60 80V518H110V101Q110 34 171 34Q190 34 205.5 44Q221 54 232 70Q243 86 249.5 106.5Q256 127 256 147V518H306V0H300Q255 -31 255 -86Q255 -109 267 -121.5Q279 -134 298 -134Q309 -134 318 -131.5Q327 -129 335 -125L351 -161Q341 -167 326.5 -172.5Q312 -178 289 -178Z" glyph-name="uogonek" horiz-adv-x="372" unicode="&#371;" /><glyph d="M186 602Q206 602 217.5 614.5Q229 627 229 649Q229 669 218.5 683Q208 697 185 697Q165 697 155 683.5Q145 670 145 648Q145 625 156.5 613.5Q168 602 186 602ZM186 573Q148 573 129.5 595.5Q111 618 111 647Q111 679 131.5 702.5Q152 726 186 726Q223 726 242 704.5Q261 683 261 652Q261 618 240 595.5Q219 573 186 573ZM149 -10Q110 -10 85 14Q60 38 60 80V518H110V101Q110 34 171 34Q190 34 205.5 44Q221 54 232 70Q243 86 249.5 106.5Q256 127 256 147V518H306V0H260V60H259Q242 25 212.5 7.5Q183 -10 149 -10Z" glyph-name="uring" horiz-adv-x="372" unicode="&#367;" /><glyph d="M68 594Q72 625 88.5 647Q105 669 134 669Q147 669 160 664.5Q173 660 186 655Q199 650 212 645.5Q225 641 238 641Q252 641 258.5 650Q265 659 270 676L304 669Q300 638 282.5 616.5Q265 595 238 595Q224 595 210 599.5Q196 604 182.5 609.5Q169 615 156.5 619.5Q144 624 134 624Q119 624 113 615Q107 606 103 589ZM149 -10Q110 -10 85 14Q60 38 60 80V518H110V101Q110 34 171 34Q190 34 205.5 44Q221 54 232 70Q243 86 249.5 106.5Q256 127 256 147V518H306V0H260V60H259Q242 25 212.5 7.5Q183 -10 149 -10Z" glyph-name="utilde" horiz-adv-x="372" unicode="&#361;" /><glyph d="M22 518H74L155 93H157L239 518H287L180 -2H128Z" glyph-name="v" horiz-adv-x="309" unicode="v" /><glyph d="M25 518H78L138 112H141L213 518H267L340 112H343L402 518H449L364 -1H316L240 427H237L159 -1H111Z" glyph-name="w" horiz-adv-x="474" unicode="w" /><glyph d="M290 717H350L263 578H221ZM25 518H78L138 112H141L213 518H267L340 112H343L402 518H449L364 -1H316L240 427H237L159 -1H111Z" glyph-name="wacute" horiz-adv-x="474" unicode="&#7811;" /><glyph d="M218 718H258L326 579H279L236 672L193 579H148ZM25 518H78L138 112H141L213 518H267L340 112H343L402 518H449L364 -1H316L240 427H237L159 -1H111Z" glyph-name="wcircumflex" horiz-adv-x="474" unicode="&#373;" /><glyph d="M271 705H319V596H271ZM155 705H203V596H155ZM25 518H78L138 112H141L213 518H267L340 112H343L402 518H449L364 -1H316L240 427H237L159 -1H111Z" glyph-name="wdieresis" horiz-adv-x="474" unicode="&#7813;" /><glyph d="M130 717H190L259 578H217ZM25 518H78L138 112H141L213 518H267L340 112H343L402 518H449L364 -1H316L240 427H237L159 -1H111Z" glyph-name="wgrave" horiz-adv-x="474" unicode="&#7809;" /><glyph d="M433 39V675H84V39ZM43 713H474V0H43Z" glyph-name="whitesquare" horiz-adv-x="517" unicode="&#9633;" /><glyph d="M126 265 25 518H79L157 310L235 518H281L183 268L290 0H237L152 219L66 0H18Z" glyph-name="x" horiz-adv-x="308" unicode="x" /><glyph d="M69 -173Q59 -173 47.5 -172Q36 -171 22 -167L29 -124Q39 -126 47.5 -127.5Q56 -129 66 -129Q82 -129 96 -119.5Q110 -110 118 -77L138 14L23 518H74L161 119H163L241 518H288L167 -47Q155 -110 133 -141.5Q111 -173 69 -173Z" glyph-name="y" horiz-adv-x="310" unicode="y" /><glyph d="M216 717H276L189 578H147ZM69 -173Q59 -173 47.5 -172Q36 -171 22 -167L29 -124Q39 -126 47.5 -127.5Q56 -129 66 -129Q82 -129 96 -119.5Q110 -110 118 -77L138 14L23 518H74L161 119H163L241 518H288L167 -47Q155 -110 133 -141.5Q111 -173 69 -173Z" glyph-name="yacute" horiz-adv-x="310" unicode="&#253;" /><glyph d="M143 718H183L251 579H204L161 672L118 579H73ZM69 -173Q59 -173 47.5 -172Q36 -171 22 -167L29 -124Q39 -126 47.5 -127.5Q56 -129 66 -129Q82 -129 96 -119.5Q110 -110 118 -77L138 14L23 518H74L161 119H163L241 518H288L167 -47Q155 -110 133 -141.5Q111 -173 69 -173Z" glyph-name="ycircumflex" horiz-adv-x="310" unicode="&#375;" /><glyph d="M195 705H243V596H195ZM79 705H127V596H79ZM69 -173Q59 -173 47.5 -172Q36 -171 22 -167L29 -124Q39 -126 47.5 -127.5Q56 -129 66 -129Q82 -129 96 -119.5Q110 -110 118 -77L138 14L23 518H74L161 119H163L241 518H288L167 -47Q155 -110 133 -141.5Q111 -173 69 -173Z" glyph-name="ydieresis" horiz-adv-x="310" unicode="&#255;" /><glyph d="M145 283H40V323H142L15 714H70L174 386L275 714H326L202 323H302V283H197V0H145Z" glyph-name="yen" horiz-adv-x="341" unicode="&#165;" /><glyph d="M61 717H121L190 578H148ZM69 -173Q59 -173 47.5 -172Q36 -171 22 -167L29 -124Q39 -126 47.5 -127.5Q56 -129 66 -129Q82 -129 96 -119.5Q110 -110 118 -77L138 14L23 518H74L161 119H163L241 518H288L167 -47Q155 -110 133 -141.5Q111 -173 69 -173Z" glyph-name="ygrave" horiz-adv-x="310" unicode="&#7923;" /><glyph d="M31 34 194 476H35V518H248V478L88 42H250V0H31Z" glyph-name="z" horiz-adv-x="277" unicode="z" /><glyph d="M189 717H249L162 578H120ZM31 34 194 476H35V518H248V478L88 42H250V0H31Z" glyph-name="zacute" horiz-adv-x="277" unicode="&#378;" /><glyph d="M50 719H97L140 626L183 719H228L158 579H118ZM31 34 194 476H35V518H248V478L88 42H250V0H31Z" glyph-name="zcaron" horiz-adv-x="277" unicode="&#382;" /><glyph d="M121 707H170V596H121ZM31 34 194 476H35V518H248V478L88 42H250V0H31Z" glyph-name="zdotaccent" horiz-adv-x="277" unicode="&#380;" /><glyph d="M192 38Q238 38 257.5 65.5Q277 93 277 127V594Q277 610 271.5 625.5Q266 641 255.5 653Q245 665 228.5 672Q212 679 191 679Q169 679 152.5 672Q136 665 125.5 653Q115 641 109.5 625.5Q104 610 104 594V126Q104 93 125.5 65.5Q147 38 192 38ZM189 -9Q126 -9 88 27Q50 63 50 130V591Q50 624 61.5 649Q73 674 92.5 690.5Q112 707 138 715.5Q164 724 192 724Q220 724 245.5 716Q271 708 289.5 692Q308 676 319 651.5Q330 627 330 595V129Q330 94 319 68Q308 42 289 25Q270 8 244.5 -0.5Q219 -9 189 -9Z" glyph-name="zero" horiz-adv-x="380" unicode="0" /><glyph d="M199 38Q245 38 264.5 65.5Q284 93 284 127V594Q284 610 278.5 625.5Q273 641 262.5 653Q252 665 235.5 672Q219 679 198 679Q176 679 159.5 672Q143 665 132.5 653Q122 641 116.5 625.5Q111 610 111 594V126Q111 93 132.5 65.5Q154 38 199 38ZM196 -9Q133 -9 95 27Q57 63 57 130V591Q57 624 68.5 649Q80 674 99.5 690.5Q119 707 145 715.5Q171 724 199 724Q227 724 252.5 716Q278 708 296.5 692Q315 676 326 651.5Q337 627 337 595V129Q337 94 326 68Q315 42 296 25Q277 8 251.5 -0.5Q226 -9 196 -9Z" glyph-name="zero.LT" horiz-adv-x="395" unicode="&#58687;" /><glyph d="M122 27Q146 27 155.5 41Q165 55 165 74V320Q165 337 154.5 350.5Q144 364 121 364Q98 364 87 350.5Q76 337 76 319V74Q76 56 87 41.5Q98 27 122 27ZM121 -10Q81 -10 57 11.5Q33 33 33 74V317Q33 359 59.5 380Q86 401 122 401Q158 401 183.5 381Q209 361 209 320V75Q209 32 183.5 11Q158 -10 121 -10Z" glyph-name="zero.dnom" horiz-adv-x="242" unicode="&#58370;" /><glyph d="M122 345Q146 345 155.5 359Q165 373 165 392V638Q165 655 154.5 668.5Q144 682 121 682Q98 682 87 668.5Q76 655 76 637V392Q76 374 87 359.5Q98 345 122 345ZM121 308Q81 308 57 329.5Q33 351 33 392V635Q33 677 59.5 698Q86 719 122 719Q158 719 183.5 699Q209 679 209 638V393Q209 350 183.5 329Q158 308 121 308Z" glyph-name="zero.numr" horiz-adv-x="242" unicode="&#58390;" /></font>
</defs>
</svg>
