<?xml version="1.0" standalone="no"?><!DOCTYPE svg PUBLIC "-//W3C//DTD SVG 1.1//EN" "http://www.w3.org/Graphics/SVG/1.1/DTD/svg11.dtd" ><svg version="1.1" xmlns="http://www.w3.org/2000/svg"><defs><font horiz-adv-x="0" id="font"><font-face ascent="750" bbox="-118 -205 767 976" cap-height="713" descent="-250" font-family="Flama Condensed Book" font-stretch="normal" font-style="normal" font-weight="600" units-per-em="1000" x-height="528" /><missing-glyph d="M707 42V638H115V42ZM55 698H767V-18H55ZM195 158 380 343 195 528 235 568 420 383 605 568 645 528 460 343 645 158 605 118 420 303 235 118Z" horiz-adv-x="949" /><glyph glyph-name=".null" horiz-adv-x="0" /><glyph d="M286 282 219 637H216L148 282ZM176 715H265L409 0H341L297 226H137L93 0H30Z" glyph-name="A" horiz-adv-x="439" unicode="A" /><glyph d="M281 288V651H279L173 288ZM240 714H548V656H347V403H508V344H347V59H549V0H281V233H155L88 0H21Z" glyph-name="AE" horiz-adv-x="587" unicode="&#198;" /><glyph d="M281 288V651H279L173 288ZM240 714H548V656H347V403H508V344H347V59H549V0H281V233H155L88 0H21ZM388 911H459L370 771H319Z" glyph-name="AEacute" horiz-adv-x="587" unicode="&#508;" /><glyph d="M267 911H338L249 771H198ZM286 282 219 637H216L148 282ZM176 715H265L409 0H341L297 226H137L93 0H30Z" glyph-name="Aacute" horiz-adv-x="439" unicode="&#193;" /><glyph d="M219 775Q167 775 139 806Q111 837 110 894H158Q160 879 163.5 865.5Q167 852 173.5 841.5Q180 831 192 824.5Q204 818 222 818Q253 818 266.5 839.5Q280 861 281 894H328Q326 832 294.5 803.5Q263 775 219 775ZM286 282 219 637H216L148 282ZM176 715H265L409 0H341L297 226H137L93 0H30Z" glyph-name="Abreve" horiz-adv-x="439" unicode="&#258;" /><glyph d="M196 913H245L317 771H261L219 861L176 771H123ZM286 282 219 637H216L148 282ZM176 715H265L409 0H341L297 226H137L93 0H30Z" glyph-name="Acircumflex" horiz-adv-x="439" unicode="&#194;" /><glyph d="M252 901H309V786H252ZM130 901H187V786H130ZM286 282 219 637H216L148 282ZM176 715H265L409 0H341L297 226H137L93 0H30Z" glyph-name="Adieresis" horiz-adv-x="439" unicode="&#196;" /><glyph d="M107 911H179L248 771H197ZM286 282 219 637H216L148 282ZM176 715H265L409 0H341L297 226H137L93 0H30Z" glyph-name="Agrave" horiz-adv-x="439" unicode="&#192;" /><glyph d="M126 842H312V788H126ZM286 282 219 637H216L148 282ZM176 715H265L409 0H341L297 226H137L93 0H30Z" glyph-name="Amacron" horiz-adv-x="439" unicode="&#256;" /><glyph d="M286 282 219 637H216L148 282ZM383 -182Q350 -182 325 -163.5Q300 -145 300 -105Q300 -70 315 -44Q330 -18 350 0H341L297 226H137L93 0H30L176 715H265L409 0H400Q350 -30 350 -86Q350 -109 362 -121Q374 -133 393 -133Q404 -133 414.5 -130Q425 -127 433 -122L452 -163Q441 -170 425 -176Q409 -182 383 -182Z" glyph-name="Aogonek" horiz-adv-x="439" unicode="&#260;" /><glyph d="M220 784Q240 784 251.5 796.5Q263 809 263 831Q263 851 252.5 865Q242 879 220 879Q200 879 189.5 865.5Q179 852 179 830Q179 808 190.5 796Q202 784 220 784ZM220 752Q182 752 162 775Q142 798 142 829Q142 863 163.5 887Q185 911 220 911Q258 911 278.5 888.5Q299 866 299 834Q299 799 277 775.5Q255 752 220 752ZM286 282 219 637H216L148 282ZM176 715H265L409 0H341L297 226H137L93 0H30Z" glyph-name="Aring" horiz-adv-x="439" unicode="&#197;" /><glyph d="M220 783Q239 783 251 795.5Q263 808 263 830Q263 850 252.5 863.5Q242 877 221 877Q201 877 190.5 863.5Q180 850 180 829Q180 806 191 794.5Q202 783 220 783ZM220 752Q180 752 161 775.5Q142 799 142 827Q142 856 160 882L225 976L284 966L228 906Q263 903 281 882Q299 861 299 832Q299 798 277 775Q255 752 220 752ZM286 282 219 637H216L148 282ZM176 715H265L409 0H341L297 226H137L93 0H30Z" glyph-name="Aringacute" horiz-adv-x="439" unicode="&#506;" /><glyph d="M95 787Q100 821 117.5 845Q135 869 166 869Q179 869 192.5 864.5Q206 860 219.5 855Q233 850 246.5 845.5Q260 841 273 841Q287 841 294 850Q301 859 306 876L344 868Q339 834 320.5 810Q302 786 273 786Q259 786 244.5 790.5Q230 795 216.5 800.5Q203 806 190 810.5Q177 815 167 815Q152 815 145.5 806.5Q139 798 135 780ZM286 282 219 637H216L148 282ZM176 715H265L409 0H341L297 226H137L93 0H30Z" glyph-name="Atilde" horiz-adv-x="439" unicode="&#195;" /><glyph d="M197 393Q238 393 266 425.5Q294 458 294 529Q294 596 270.5 626.5Q247 657 209 657H129V393ZM211 57Q253 57 275.5 93Q298 129 298 201Q298 274 270 306.5Q242 339 198 339H129V57ZM62 713H219Q294 713 327 665.5Q360 618 360 536Q360 469 335 424Q310 379 265 371V367Q293 361 312 346Q331 331 343 308.5Q355 286 360.5 257.5Q366 229 366 197Q366 143 355.5 105.5Q345 68 326 44.5Q307 21 281 10.5Q255 0 224 0H62Z" glyph-name="B" horiz-adv-x="413" unicode="B" /><glyph d="M218 -9Q141 -9 96 30.5Q51 70 51 144V566Q51 638 95.5 681Q140 724 217 724Q254 724 282.5 713Q311 702 330.5 683.5Q350 665 360.5 639.5Q371 614 371 585V504H311V573Q311 615 287.5 640.5Q264 666 216 666Q163 666 141 635.5Q119 605 119 563V154Q119 102 145.5 76.5Q172 51 218 51Q265 51 288 77.5Q311 104 311 142V213H371V138Q371 72 330.5 31.5Q290 -9 218 -9Z" glyph-name="C" horiz-adv-x="416" unicode="C" /><glyph d="M218 -9Q141 -9 96 30.5Q51 70 51 144V566Q51 638 95.5 681Q140 724 217 724Q254 724 282.5 713Q311 702 330.5 683.5Q350 665 360.5 639.5Q371 614 371 585V504H311V573Q311 615 287.5 640.5Q264 666 216 666Q163 666 141 635.5Q119 605 119 563V154Q119 102 145.5 76.5Q172 51 218 51Q265 51 288 77.5Q311 104 311 142V213H371V138Q371 72 330.5 31.5Q290 -9 218 -9ZM255 911H326L237 771H186Z" glyph-name="Cacute" horiz-adv-x="416" unicode="&#262;" /><glyph d="M218 -9Q141 -9 96 30.5Q51 70 51 144V566Q51 638 95.5 681Q140 724 217 724Q254 724 282.5 713Q311 702 330.5 683.5Q350 665 360.5 639.5Q371 614 371 585V504H311V573Q311 615 287.5 640.5Q264 666 216 666Q163 666 141 635.5Q119 605 119 563V154Q119 102 145.5 76.5Q172 51 218 51Q265 51 288 77.5Q311 104 311 142V213H371V138Q371 72 330.5 31.5Q290 -9 218 -9ZM110 914H166L209 824L251 914H305L231 772H182Z" glyph-name="Ccaron" horiz-adv-x="416" unicode="&#268;" /><glyph d="M213 -182Q199 -182 181 -180Q163 -178 145 -172V-130Q162 -134 177.5 -136.5Q193 -139 209 -139Q228 -139 239 -133Q250 -127 250 -113Q250 -99 238 -93Q226 -87 203 -85L177 -83L194 -8Q128 -2 89.5 37Q51 76 51 144V566Q51 638 95.5 681Q140 724 217 724Q254 724 282.5 713Q311 702 330.5 683.5Q350 665 360.5 639.5Q371 614 371 585V504H311V573Q311 615 287.5 640.5Q264 666 216 666Q163 666 141 635.5Q119 605 119 563V154Q119 102 145.5 76.5Q172 51 218 51Q265 51 288 77.5Q311 104 311 142V213H371V138Q371 75 333 35Q295 -5 229 -8L219 -53Q234 -54 249 -57Q264 -60 276 -66.5Q288 -73 295.5 -84Q303 -95 303 -112Q303 -143 277 -162.5Q251 -182 213 -182Z" glyph-name="Ccedilla" horiz-adv-x="416" unicode="&#199;" /><glyph d="M218 -9Q141 -9 96 30.5Q51 70 51 144V566Q51 638 95.5 681Q140 724 217 724Q254 724 282.5 713Q311 702 330.5 683.5Q350 665 360.5 639.5Q371 614 371 585V504H311V573Q311 615 287.5 640.5Q264 666 216 666Q163 666 141 635.5Q119 605 119 563V154Q119 102 145.5 76.5Q172 51 218 51Q265 51 288 77.5Q311 104 311 142V213H371V138Q371 72 330.5 31.5Q290 -9 218 -9ZM183 913H232L304 771H248L206 861L163 771H110Z" glyph-name="Ccircumflex" horiz-adv-x="416" unicode="&#264;" /><glyph d="M187 902H246V786H187ZM218 -9Q141 -9 96 30.5Q51 70 51 144V566Q51 638 95.5 681Q140 724 217 724Q254 724 282.5 713Q311 702 330.5 683.5Q350 665 360.5 639.5Q371 614 371 585V504H311V573Q311 615 287.5 640.5Q264 666 216 666Q163 666 141 635.5Q119 605 119 563V154Q119 102 145.5 76.5Q172 51 218 51Q265 51 288 77.5Q311 104 311 142V213H371V138Q371 72 330.5 31.5Q290 -9 218 -9Z" glyph-name="Cdotaccent" horiz-adv-x="416" unicode="&#266;" /><glyph d="M214 59Q241 59 260 68Q279 77 290 91.5Q301 106 306 123Q311 140 311 157V561Q311 600 288.5 627.5Q266 655 215 655H129V59ZM62 713H222Q255 713 284 704.5Q313 696 334.5 678Q356 660 368 633Q380 606 380 569V157Q380 117 368 87.5Q356 58 334 38.5Q312 19 282.5 9.5Q253 0 219 0H62Z" glyph-name="D" horiz-adv-x="431" unicode="D" /><glyph glyph-name="DEL" horiz-adv-x="0" /><glyph d="M214 59Q241 59 260 68Q279 77 290 91.5Q301 106 306 123Q311 140 311 157V561Q311 600 288.5 627.5Q266 655 215 655H129V59ZM62 713H222Q255 713 284 704.5Q313 696 334.5 678Q356 660 368 633Q380 606 380 569V157Q380 117 368 87.5Q356 58 334 38.5Q312 19 282.5 9.5Q253 0 219 0H62ZM107 914H163L206 824L248 914H302L228 772H179Z" glyph-name="Dcaron" horiz-adv-x="431" unicode="&#270;" /><glyph d="M221 59Q248 59 267 68Q286 77 297 91.5Q308 106 313 123Q318 140 318 157V561Q318 600 295.5 627.5Q273 655 222 655H136V400H259V349H136V59ZM23 400H69V713H229Q262 713 291 704.5Q320 696 341.5 678Q363 660 375 633Q387 606 387 569V157Q387 117 375 87.5Q363 58 341 38.5Q319 19 289.5 9.5Q260 0 226 0H69V349H23Z" glyph-name="Dcroat" horiz-adv-x="438" unicode="&#272;" /><glyph d="M338 60 221 634H218L100 60ZM29 39 177 715H268L415 39V0H29Z" glyph-name="Delta" horiz-adv-x="430" unicode="&#8710;" /><glyph d="M62 713H329V656H129V404H290V345H129V59H330V0H62Z" glyph-name="E" horiz-adv-x="369" unicode="E" /><glyph d="M62 713H329V656H129V404H290V345H129V59H330V0H62ZM238 911H309L220 771H169Z" glyph-name="Eacute" horiz-adv-x="369" unicode="&#201;" /><glyph d="M199 775Q147 775 119 806Q91 837 90 894H138Q140 879 143.5 865.5Q147 852 153.5 841.5Q160 831 172 824.5Q184 818 202 818Q233 818 246.5 839.5Q260 861 261 894H308Q306 832 274.5 803.5Q243 775 199 775ZM62 713H329V656H129V404H290V345H129V59H330V0H62Z" glyph-name="Ebreve" horiz-adv-x="369" unicode="&#276;" /><glyph d="M62 713H329V656H129V404H290V345H129V59H330V0H62ZM86 914H142L185 824L227 914H281L207 772H158Z" glyph-name="Ecaron" horiz-adv-x="369" unicode="&#282;" /><glyph d="M62 713H329V656H129V404H290V345H129V59H330V0H62ZM160 913H209L281 771H225L183 861L140 771H87Z" glyph-name="Ecircumflex" horiz-adv-x="369" unicode="&#202;" /><glyph d="M62 713H329V656H129V404H290V345H129V59H330V0H62ZM234 901H291V786H234ZM112 901H169V786H112Z" glyph-name="Edieresis" horiz-adv-x="369" unicode="&#203;" /><glyph d="M156 902H215V786H156ZM62 713H329V656H129V404H290V345H129V59H330V0H62Z" glyph-name="Edotaccent" horiz-adv-x="369" unicode="&#278;" /><glyph d="M95 911H167L236 771H185ZM62 713H329V656H129V404H290V345H129V59H330V0H62Z" glyph-name="Egrave" horiz-adv-x="369" unicode="&#200;" /><glyph d="M106 842H292V788H106ZM62 713H329V656H129V404H290V345H129V59H330V0H62Z" glyph-name="Emacron" horiz-adv-x="369" unicode="&#274;" /><glyph d="M62 713H137L328 179H330V713H389V-74Q389 -117 367 -143.5Q345 -170 301 -170Q279 -170 262 -166V-115H285Q308 -115 317 -102Q326 -89 326 -65V0L124 577H122V0H62Z" glyph-name="Eng" horiz-adv-x="451" unicode="&#330;" /><glyph d="M62 713H329V656H129V404H290V345H129V59H330V0H324Q274 -30 274 -86Q274 -109 286 -121Q298 -133 317 -133Q328 -133 338.5 -130Q349 -127 357 -122L376 -163Q365 -170 349 -176Q333 -182 307 -182Q274 -182 249 -163.5Q224 -145 224 -105Q224 -70 239 -44Q254 -18 274 0H62Z" glyph-name="Eogonek" horiz-adv-x="369" unicode="&#280;" /><glyph d="M221 59Q248 59 267 68Q286 77 297 91.5Q308 106 313 123Q318 140 318 157V561Q318 600 295.5 627.5Q273 655 222 655H136V400H259V349H136V59ZM23 400H69V713H229Q262 713 291 704.5Q320 696 341.5 678Q363 660 375 633Q387 606 387 569V157Q387 117 375 87.5Q363 58 341 38.5Q319 19 289.5 9.5Q260 0 226 0H69V349H23Z" glyph-name="Eth" horiz-adv-x="438" unicode="&#208;" /><glyph d="M247 -9Q172 -9 128 30Q84 69 84 141V270H32V317H84V402H32V448H84V568Q84 602 95.5 630.5Q107 659 128 680Q149 701 179 713Q209 725 247 725Q284 725 312.5 714Q341 703 360.5 684.5Q380 666 390 640.5Q400 615 400 586V494H340V579Q340 620 316.5 644Q293 668 245 668Q219 668 201.5 660Q184 652 173 638Q162 624 157 605.5Q152 587 152 566V448H301V402H152V317H301V270H152V151Q152 103 176 75.5Q200 48 247 48Q297 48 318.5 75Q340 102 340 140V217H400V137Q400 71 359.5 31Q319 -9 247 -9Z" glyph-name="Euro" horiz-adv-x="434" unicode="&#8364;" /><glyph d="M62 713H328V656H129V402H288V343H129V0H62Z" glyph-name="F" horiz-adv-x="358" unicode="F" /><glyph d="M218 -9Q142 -9 96.5 30.5Q51 70 51 145V565Q51 637 95 681Q139 725 217 725Q254 725 282.5 714Q311 703 331 684.5Q351 666 361.5 640.5Q372 615 372 586V507H311V577Q311 617 286.5 642Q262 667 216 667Q189 667 170.5 658.5Q152 650 140.5 635.5Q129 621 124 601.5Q119 582 119 560V152Q119 104 144 77Q169 50 217 50Q244 50 262 57.5Q280 65 291 77.5Q302 90 306.5 107Q311 124 311 143V319H213V374H375V138Q375 72 334 31.5Q293 -9 218 -9Z" glyph-name="G" horiz-adv-x="424" unicode="G" /><glyph d="M213 775Q161 775 133 806Q105 837 104 894H152Q154 879 157.5 865.5Q161 852 167.5 841.5Q174 831 186 824.5Q198 818 216 818Q247 818 260.5 839.5Q274 861 275 894H322Q320 832 288.5 803.5Q257 775 213 775ZM218 -9Q142 -9 96.5 30.5Q51 70 51 145V565Q51 637 95 681Q139 725 217 725Q254 725 282.5 714Q311 703 331 684.5Q351 666 361.5 640.5Q372 615 372 586V507H311V577Q311 617 286.5 642Q262 667 216 667Q189 667 170.5 658.5Q152 650 140.5 635.5Q129 621 124 601.5Q119 582 119 560V152Q119 104 144 77Q169 50 217 50Q244 50 262 57.5Q280 65 291 77.5Q302 90 306.5 107Q311 124 311 143V319H213V374H375V138Q375 72 334 31.5Q293 -9 218 -9Z" glyph-name="Gbreve" horiz-adv-x="424" unicode="&#286;" /><glyph d="M218 -9Q142 -9 96.5 30.5Q51 70 51 145V565Q51 637 95 681Q139 725 217 725Q254 725 282.5 714Q311 703 331 684.5Q351 666 361.5 640.5Q372 615 372 586V507H311V577Q311 617 286.5 642Q262 667 216 667Q189 667 170.5 658.5Q152 650 140.5 635.5Q129 621 124 601.5Q119 582 119 560V152Q119 104 144 77Q169 50 217 50Q244 50 262 57.5Q280 65 291 77.5Q302 90 306.5 107Q311 124 311 143V319H213V374H375V138Q375 72 334 31.5Q293 -9 218 -9ZM188 913H237L309 771H253L211 861L168 771H115Z" glyph-name="Gcircumflex" horiz-adv-x="424" unicode="&#284;" /><glyph d="M218 -9Q142 -9 96.5 30.5Q51 70 51 145V565Q51 637 95 681Q139 725 217 725Q254 725 282.5 714Q311 703 331 684.5Q351 666 361.5 640.5Q372 615 372 586V507H311V577Q311 617 286.5 642Q262 667 216 667Q189 667 170.5 658.5Q152 650 140.5 635.5Q129 621 124 601.5Q119 582 119 560V152Q119 104 144 77Q169 50 217 50Q244 50 262 57.5Q280 65 291 77.5Q302 90 306.5 107Q311 124 311 143V319H213V374H375V138Q375 72 334 31.5Q293 -9 218 -9ZM188 -38H252L230 -175H184Z" glyph-name="Gcommaaccent" horiz-adv-x="424" unicode="&#290;" /><glyph d="M183 902H242V786H183ZM218 -9Q142 -9 96.5 30.5Q51 70 51 145V565Q51 637 95 681Q139 725 217 725Q254 725 282.5 714Q311 703 331 684.5Q351 666 361.5 640.5Q372 615 372 586V507H311V577Q311 617 286.5 642Q262 667 216 667Q189 667 170.5 658.5Q152 650 140.5 635.5Q129 621 124 601.5Q119 582 119 560V152Q119 104 144 77Q169 50 217 50Q244 50 262 57.5Q280 65 291 77.5Q302 90 306.5 107Q311 124 311 143V319H213V374H375V138Q375 72 334 31.5Q293 -9 218 -9Z" glyph-name="Gdotaccent" horiz-adv-x="424" unicode="&#288;" /><glyph d="M62 713H130V398H321V713H387V0H321V335H130V0H62Z" glyph-name="H" horiz-adv-x="449" unicode="H" /><glyph d="M334 398V562H143V398ZM23 608H75V713H143V608H334V713H400V608H452V562H400V0H334V335H143V0H75V562H23Z" glyph-name="Hbar" horiz-adv-x="476" unicode="&#294;" /><glyph d="M62 713H130V398H321V713H387V0H321V335H130V0H62ZM200 913H249L321 771H265L223 861L180 771H127Z" glyph-name="Hcircumflex" horiz-adv-x="449" unicode="&#292;" /><glyph d="M62 713H130V0H62Z" glyph-name="I" horiz-adv-x="192" unicode="I" /><glyph d="M38 58H128V655H38V713H286V655H196V58H286V0H38Z" glyph-name="I.alt" horiz-adv-x="324" unicode="&#58504;" /><glyph d="M353 -10Q279 -10 241 29.5Q203 69 203 139V261H268V144Q268 126 272 109Q276 92 285.5 78.5Q295 65 311.5 57Q328 49 354 49Q378 49 394 57Q410 65 420 78Q430 91 434 108Q438 125 438 143V713H505V147Q505 77 466.5 33.5Q428 -10 353 -10ZM62 713H130V0H62Z" glyph-name="IJ" horiz-adv-x="564" unicode="&#306;" /><glyph d="M38 58H128V655H38V713H286V655H196V58H286V0H38ZM449 -10Q375 -10 337 29.5Q299 69 299 139V261H364V144Q364 126 368 109Q372 92 381.5 78.5Q391 65 407.5 57Q424 49 450 49Q474 49 490 57Q506 65 516 78Q526 91 530 108Q534 125 534 143V713H601V147Q601 77 562.5 33.5Q524 -10 449 -10Z" glyph-name="IJ.alt" horiz-adv-x="659" /><glyph d="M139 911H210L121 771H70ZM62 713H130V0H62Z" glyph-name="Iacute" horiz-adv-x="192" unicode="&#205;" /><glyph d="M205 911H276L187 771H136ZM38 58H128V655H38V713H286V655H196V58H286V0H38Z" glyph-name="Iacute.alt" horiz-adv-x="324" unicode="&#57651;" /><glyph d="M97 775Q45 775 17 806Q-11 837 -12 894H36Q38 879 41.5 865.5Q45 852 51.5 841.5Q58 831 70 824.5Q82 818 100 818Q131 818 144.5 839.5Q158 861 159 894H206Q204 832 172.5 803.5Q141 775 97 775ZM62 713H130V0H62Z" glyph-name="Ibreve" horiz-adv-x="192" unicode="&#300;" /><glyph d="M163 775Q111 775 83 806Q55 837 54 894H102Q104 879 107.5 865.5Q111 852 117.5 841.5Q124 831 136 824.5Q148 818 166 818Q197 818 210.5 839.5Q224 861 225 894H272Q270 832 238.5 803.5Q207 775 163 775ZM38 58H128V655H38V713H286V655H196V58H286V0H38Z" glyph-name="Ibreve.alt" horiz-adv-x="324" unicode="&#57657;" /><glyph d="M73 913H122L194 771H138L96 861L53 771H0ZM62 713H130V0H62Z" glyph-name="Icircumflex" horiz-adv-x="192" unicode="&#206;" /><glyph d="M139 913H188L260 771H204L162 861L119 771H66ZM38 58H128V655H38V713H286V655H196V58H286V0H38Z" glyph-name="Icircumflex.alt" horiz-adv-x="324" unicode="&#57652;" /><glyph d="M130 901H187V786H130ZM8 901H65V786H8ZM62 713H130V0H62Z" glyph-name="Idieresis" horiz-adv-x="192" unicode="&#207;" /><glyph d="M196 901H253V786H196ZM74 901H131V786H74ZM38 58H128V655H38V713H286V655H196V58H286V0H38Z" glyph-name="Idieresis.alt" horiz-adv-x="324" unicode="&#57653;" /><glyph d="M66 902H125V786H66ZM62 713H130V0H62Z" glyph-name="Idotaccent" horiz-adv-x="192" unicode="&#304;" /><glyph d="M132 902H191V786H132ZM38 58H128V655H38V713H286V655H196V58H286V0H38Z" glyph-name="Idotaccent.alt" horiz-adv-x="324" unicode="&#57660;" /><glyph d="M-17 911H55L124 771H73ZM62 713H130V0H62Z" glyph-name="Igrave" horiz-adv-x="192" unicode="&#204;" /><glyph d="M49 911H121L190 771H139ZM38 58H128V655H38V713H286V655H196V58H286V0H38Z" glyph-name="Igrave.alt" horiz-adv-x="324" unicode="&#57650;" /><glyph d="M4 842H190V788H4ZM62 713H130V0H62Z" glyph-name="Imacron" horiz-adv-x="192" unicode="&#298;" /><glyph d="M70 842H256V788H70ZM38 58H128V655H38V713H286V655H196V58H286V0H38Z" glyph-name="Imacron.alt" horiz-adv-x="324" unicode="&#57656;" /><glyph d="M62 713H130V7L132 6Q130 5 130 5V0H122Q78 -33 78 -86Q78 -133 116 -133Q123 -133 131.5 -130.5Q140 -128 148 -124L164 -164Q153 -172 138.5 -176.5Q124 -181 106 -181Q74 -181 51 -162.5Q28 -144 28 -104Q28 -71 42 -44.5Q56 -18 75 0H62Z" glyph-name="Iogonek" horiz-adv-x="192" unicode="&#302;" /><glyph d="M38 58H128V655H38V713H286V655H196V58H286V0H276Q232 -33 232 -86Q232 -133 270 -133Q277 -133 285.5 -130.5Q294 -128 302 -124L318 -164Q307 -172 292.5 -176.5Q278 -181 260 -181Q228 -181 205 -162.5Q182 -144 182 -104Q182 -71 196 -44.5Q210 -18 229 0H38Z" glyph-name="Iogonek.alt" horiz-adv-x="324" unicode="&#57662;" /><glyph d="M-27 787Q-22 821 -4.5 845Q13 869 44 869Q57 869 70.5 864.5Q84 860 97.5 855Q111 850 124.5 845.5Q138 841 151 841Q165 841 172 850Q179 859 184 876L222 868Q217 834 198.5 810Q180 786 151 786Q137 786 122.5 790.5Q108 795 94.5 800.5Q81 806 68 810.5Q55 815 45 815Q30 815 23.5 806.5Q17 798 13 780ZM62 713H130V0H62Z" glyph-name="Itilde" horiz-adv-x="192" unicode="&#296;" /><glyph d="M39 787Q44 821 61.5 845Q79 869 110 869Q123 869 136.5 864.5Q150 860 163.5 855Q177 850 190.5 845.5Q204 841 217 841Q231 841 238 850Q245 859 250 876L288 868Q283 834 264.5 810Q246 786 217 786Q203 786 188.5 790.5Q174 795 160.5 800.5Q147 806 134 810.5Q121 815 111 815Q96 815 89.5 806.5Q83 798 79 780ZM38 58H128V655H38V713H286V655H196V58H286V0H38Z" glyph-name="Itilde.alt" horiz-adv-x="326" unicode="&#57654;" /><glyph d="M191 -10Q117 -10 79 29.5Q41 69 41 139V261H106V144Q106 126 110 109Q114 92 123.5 78.5Q133 65 149.5 57Q166 49 192 49Q216 49 232 57Q248 65 258 78Q268 91 272 108Q276 125 276 143V713H343V147Q343 77 304.5 33.5Q266 -10 191 -10Z" glyph-name="J" horiz-adv-x="401" unicode="J" /><glyph d="M191 -10Q117 -10 79 29.5Q41 69 41 139V261H106V144Q106 126 110 109Q114 92 123.5 78.5Q133 65 149.5 57Q166 49 192 49Q216 49 232 57Q248 65 258 78Q268 91 272 108Q276 125 276 143V713H343V147Q343 77 304.5 33.5Q266 -10 191 -10ZM263 913H312L384 771H328L286 861L243 771H190Z" glyph-name="Jcircumflex" horiz-adv-x="401" unicode="&#308;" /><glyph d="M62 713H130V353L317 713H386L245 442L388 0H315L196 376L130 255V0H62Z" glyph-name="K" horiz-adv-x="417" unicode="K" /><glyph d="M62 713H130V353L317 713H386L245 442L388 0H315L196 376L130 255V0H62ZM186 -38H250L228 -175H182Z" glyph-name="Kcommaaccent" horiz-adv-x="417" unicode="&#310;" /><glyph d="M62 713H129V59H330V0H62Z" glyph-name="L" horiz-adv-x="355" unicode="L" /><glyph glyph-name="LF" horiz-adv-x="35" /><glyph d="M62 713H129V59H330V0H62ZM146 911H217L128 771H77Z" glyph-name="Lacute" horiz-adv-x="355" unicode="&#313;" /><glyph d="M62 713H129V59H330V0H62ZM202 713H264L239 561H198Z" glyph-name="Lcaron" horiz-adv-x="355" unicode="&#317;" /><glyph d="M62 713H129V59H330V0H62ZM177 -38H241L219 -175H173Z" glyph-name="Lcommaaccent" horiz-adv-x="355" unicode="&#315;" /><glyph d="M218 444H278V337H218ZM62 713H129V59H330V0H62Z" glyph-name="Ldot" horiz-adv-x="355" unicode="&#319;" /><glyph d="M23 317 75 363V713H142V423L252 522V460L142 362V59H343V0H75V302L23 256Z" glyph-name="Lslash" horiz-adv-x="369" unicode="&#321;" /><glyph d="M62 713H141L258 399H260L376 713H453V0H392V582H390L280 288H234L125 581H123V0H62Z" glyph-name="M" horiz-adv-x="515" unicode="M" /><glyph d="M62 713H137L328 179H330V713H389V0H326L124 577H122V0H62Z" glyph-name="N" horiz-adv-x="451" unicode="N" /><glyph d="M62 713H137L328 179H330V713H389V0H326L124 577H122V0H62ZM276 911H347L258 771H207Z" glyph-name="Nacute" horiz-adv-x="451" unicode="&#323;" /><glyph d="M62 713H137L328 179H330V713H389V0H326L124 577H122V0H62ZM127 914H183L226 824L268 914H322L248 772H199Z" glyph-name="Ncaron" horiz-adv-x="451" unicode="&#327;" /><glyph d="M62 713H137L328 179H330V713H389V0H326L124 577H122V0H62ZM196 -38H260L238 -175H192Z" glyph-name="Ncommaaccent" horiz-adv-x="451" unicode="&#325;" /><glyph d="M103 787Q108 821 125.5 845Q143 869 174 869Q187 869 200.5 864.5Q214 860 227.5 855Q241 850 254.5 845.5Q268 841 281 841Q295 841 302 850Q309 859 314 876L352 868Q347 834 328.5 810Q310 786 281 786Q267 786 252.5 790.5Q238 795 224.5 800.5Q211 806 198 810.5Q185 815 175 815Q160 815 153.5 806.5Q147 798 143 780ZM62 713H137L328 179H330V713H389V0H326L124 577H122V0H62Z" glyph-name="Ntilde" horiz-adv-x="451" unicode="&#209;" /><glyph d="M218 51Q244 51 262.5 59.5Q281 68 292.5 82Q304 96 309.5 115Q315 134 315 154V569Q315 612 289.5 638.5Q264 665 216 665Q167 665 143.5 636Q120 607 120 566V153Q120 112 144 81.5Q168 51 218 51ZM215 -9Q141 -9 96 31.5Q51 72 51 154V561Q51 601 63.5 631.5Q76 662 98.5 682.5Q121 703 152 713.5Q183 724 219 724Q253 724 283 714.5Q313 705 335.5 686Q358 667 370.5 638Q383 609 383 570V159Q383 117 370.5 85.5Q358 54 335.5 33Q313 12 282 1.5Q251 -9 215 -9Z" glyph-name="O" horiz-adv-x="434" unicode="O" /><glyph d="M218 51Q244 51 262.5 59.5Q281 68 293 82.5Q305 97 310.5 116Q316 135 316 155V571Q316 614 290 639.5Q264 665 216 665Q167 665 143.5 636Q120 607 120 566V153Q120 112 144 81.5Q168 51 218 51ZM207 -8Q132 -8 91.5 32.5Q51 73 51 154V561Q51 642 95.5 683.5Q140 725 212 725Q245 725 272.5 713Q300 701 316 678V713H583V656H383V403H544V344H383V59H585V0H316V45Q302 23 272.5 7.5Q243 -8 207 -8Z" glyph-name="OE" horiz-adv-x="623" unicode="&#338;" /><glyph d="M218 51Q244 51 262.5 59.5Q281 68 292.5 82Q304 96 309.5 115Q315 134 315 154V569Q315 612 289.5 638.5Q264 665 216 665Q167 665 143.5 636Q120 607 120 566V153Q120 112 144 81.5Q168 51 218 51ZM215 -9Q141 -9 96 31.5Q51 72 51 154V561Q51 601 63.5 631.5Q76 662 98.5 682.5Q121 703 152 713.5Q183 724 219 724Q253 724 283 714.5Q313 705 335.5 686Q358 667 370.5 638Q383 609 383 570V159Q383 117 370.5 85.5Q358 54 335.5 33Q313 12 282 1.5Q251 -9 215 -9ZM265 911H336L247 771H196Z" glyph-name="Oacute" horiz-adv-x="434" unicode="&#211;" /><glyph d="M217 775Q165 775 137 806Q109 837 108 894H156Q158 879 161.5 865.5Q165 852 171.5 841.5Q178 831 190 824.5Q202 818 220 818Q251 818 264.5 839.5Q278 861 279 894H326Q324 832 292.5 803.5Q261 775 217 775ZM218 51Q244 51 262.5 59.5Q281 68 292.5 82Q304 96 309.5 115Q315 134 315 154V569Q315 612 289.5 638.5Q264 665 216 665Q167 665 143.5 636Q120 607 120 566V153Q120 112 144 81.5Q168 51 218 51ZM215 -9Q141 -9 96 31.5Q51 72 51 154V561Q51 601 63.5 631.5Q76 662 98.5 682.5Q121 703 152 713.5Q183 724 219 724Q253 724 283 714.5Q313 705 335.5 686Q358 667 370.5 638Q383 609 383 570V159Q383 117 370.5 85.5Q358 54 335.5 33Q313 12 282 1.5Q251 -9 215 -9Z" glyph-name="Obreve" horiz-adv-x="434" unicode="&#334;" /><glyph d="M218 51Q244 51 262.5 59.5Q281 68 292.5 82Q304 96 309.5 115Q315 134 315 154V569Q315 612 289.5 638.5Q264 665 216 665Q167 665 143.5 636Q120 607 120 566V153Q120 112 144 81.5Q168 51 218 51ZM215 -9Q141 -9 96 31.5Q51 72 51 154V561Q51 601 63.5 631.5Q76 662 98.5 682.5Q121 703 152 713.5Q183 724 219 724Q253 724 283 714.5Q313 705 335.5 686Q358 667 370.5 638Q383 609 383 570V159Q383 117 370.5 85.5Q358 54 335.5 33Q313 12 282 1.5Q251 -9 215 -9ZM192 913H241L313 771H257L215 861L172 771H119Z" glyph-name="Ocircumflex" horiz-adv-x="434" unicode="&#212;" /><glyph d="M218 51Q244 51 262.5 59.5Q281 68 292.5 82Q304 96 309.5 115Q315 134 315 154V569Q315 612 289.5 638.5Q264 665 216 665Q167 665 143.5 636Q120 607 120 566V153Q120 112 144 81.5Q168 51 218 51ZM215 -9Q141 -9 96 31.5Q51 72 51 154V561Q51 601 63.5 631.5Q76 662 98.5 682.5Q121 703 152 713.5Q183 724 219 724Q253 724 283 714.5Q313 705 335.5 686Q358 667 370.5 638Q383 609 383 570V159Q383 117 370.5 85.5Q358 54 335.5 33Q313 12 282 1.5Q251 -9 215 -9ZM249 901H306V786H249ZM127 901H184V786H127Z" glyph-name="Odieresis" horiz-adv-x="434" unicode="&#214;" /><glyph d="M104 911H176L245 771H194ZM218 51Q244 51 262.5 59.5Q281 68 292.5 82Q304 96 309.5 115Q315 134 315 154V569Q315 612 289.5 638.5Q264 665 216 665Q167 665 143.5 636Q120 607 120 566V153Q120 112 144 81.5Q168 51 218 51ZM215 -9Q141 -9 96 31.5Q51 72 51 154V561Q51 601 63.5 631.5Q76 662 98.5 682.5Q121 703 152 713.5Q183 724 219 724Q253 724 283 714.5Q313 705 335.5 686Q358 667 370.5 638Q383 609 383 570V159Q383 117 370.5 85.5Q358 54 335.5 33Q313 12 282 1.5Q251 -9 215 -9Z" glyph-name="Ograve" horiz-adv-x="434" unicode="&#210;" /><glyph d="M218 51Q244 51 262.5 59.5Q281 68 292.5 82Q304 96 309.5 115Q315 134 315 154V569Q315 612 289.5 638.5Q264 665 216 665Q167 665 143.5 636Q120 607 120 566V153Q120 112 144 81.5Q168 51 218 51ZM215 -9Q141 -9 96 31.5Q51 72 51 154V561Q51 601 63.5 631.5Q76 662 98.5 682.5Q121 703 152 713.5Q183 724 219 724Q253 724 283 714.5Q313 705 335.5 686Q358 667 370.5 638Q383 609 383 570V159Q383 117 370.5 85.5Q358 54 335.5 33Q313 12 282 1.5Q251 -9 215 -9ZM269 901H331L269 774H220ZM157 901H220L158 774H109Z" glyph-name="Ohungarumlaut" horiz-adv-x="434" unicode="&#336;" /><glyph d="M218 51Q244 51 262.5 59.5Q281 68 292.5 82Q304 96 309.5 115Q315 134 315 154V569Q315 612 289.5 638.5Q264 665 216 665Q167 665 143.5 636Q120 607 120 566V153Q120 112 144 81.5Q168 51 218 51ZM215 -9Q141 -9 96 31.5Q51 72 51 154V561Q51 601 63.5 631.5Q76 662 98.5 682.5Q121 703 152 713.5Q183 724 219 724Q253 724 283 714.5Q313 705 335.5 686Q358 667 370.5 638Q383 609 383 570V159Q383 117 370.5 85.5Q358 54 335.5 33Q313 12 282 1.5Q251 -9 215 -9ZM124 842H310V788H124Z" glyph-name="Omacron" horiz-adv-x="434" unicode="&#332;" /><glyph d="M42 64 140 61V66Q95 123 70 197Q45 271 44 365V518Q44 616 90 670Q136 724 221 724Q266 724 299 708.5Q332 693 353.5 666Q375 639 385.5 601.5Q396 564 396 520V366Q396 316 387 270Q378 224 364.5 185Q351 146 334 115Q317 84 302 66V61L399 64V0H245V48Q260 75 274.5 106.5Q289 138 300 176Q311 214 317.5 260.5Q324 307 324 364V530Q324 558 317.5 582Q311 606 298 624Q285 642 265.5 652Q246 662 219 662Q171 662 143.5 626.5Q116 591 116 528V366Q116 301 123 253Q130 205 141 168Q152 131 167 102Q182 73 197 48V0H42Z" glyph-name="Omega" horiz-adv-x="441" unicode="&#8486;" /><glyph d="M218 51Q244 51 262.5 59.5Q281 68 292.5 82Q304 96 309.5 115Q315 134 315 154V568L148 77Q174 51 218 51ZM120 153Q120 148 120 143.5Q120 139 121 134L292 636Q265 665 216 665Q167 665 143.5 636Q120 607 120 566ZM65 -32 89 39Q71 59 61 87.5Q51 116 51 154V561Q51 601 63.5 631.5Q76 662 98.5 682.5Q121 703 152 713.5Q183 724 219 724Q246 724 270 718.5Q294 713 314 701L333 756L375 745L350 671Q383 633 383 570V159Q383 117 370.5 85.5Q358 54 335.5 33Q313 12 282 1.5Q251 -9 215 -9Q163 -9 125 11L107 -43Z" glyph-name="Oslash" horiz-adv-x="434" unicode="&#216;" /><glyph d="M265 911H336L247 771H196ZM218 51Q244 51 262.5 59.5Q281 68 292.5 82Q304 96 309.5 115Q315 134 315 154V568L148 77Q174 51 218 51ZM120 153Q120 148 120 143.5Q120 139 121 134L292 636Q265 665 216 665Q167 665 143.5 636Q120 607 120 566ZM65 -32 89 39Q71 59 61 87.5Q51 116 51 154V561Q51 601 63.5 631.5Q76 662 98.5 682.5Q121 703 152 713.5Q183 724 219 724Q246 724 270 718.5Q294 713 314 701L333 756L375 745L350 671Q383 633 383 570V159Q383 117 370.5 85.5Q358 54 335.5 33Q313 12 282 1.5Q251 -9 215 -9Q163 -9 125 11L107 -43Z" glyph-name="Oslashacute" horiz-adv-x="434" unicode="&#510;" /><glyph d="M92 787Q97 821 114.5 845Q132 869 163 869Q176 869 189.5 864.5Q203 860 216.5 855Q230 850 243.5 845.5Q257 841 270 841Q284 841 291 850Q298 859 303 876L341 868Q336 834 317.5 810Q299 786 270 786Q256 786 241.5 790.5Q227 795 213.5 800.5Q200 806 187 810.5Q174 815 164 815Q149 815 142.5 806.5Q136 798 132 780ZM218 51Q244 51 262.5 59.5Q281 68 292.5 82Q304 96 309.5 115Q315 134 315 154V569Q315 612 289.5 638.5Q264 665 216 665Q167 665 143.5 636Q120 607 120 566V153Q120 112 144 81.5Q168 51 218 51ZM215 -9Q141 -9 96 31.5Q51 72 51 154V561Q51 601 63.5 631.5Q76 662 98.5 682.5Q121 703 152 713.5Q183 724 219 724Q253 724 283 714.5Q313 705 335.5 686Q358 667 370.5 638Q383 609 383 570V159Q383 117 370.5 85.5Q358 54 335.5 33Q313 12 282 1.5Q251 -9 215 -9Z" glyph-name="Otilde" horiz-adv-x="434" unicode="&#213;" /><glyph d="M194 353Q248 353 273.5 393Q299 433 299 509Q299 539 294 565.5Q289 592 277.5 611.5Q266 631 247 642.5Q228 654 200 654H130V353ZM62 713H207Q250 713 280.5 697.5Q311 682 329.5 655Q348 628 356.5 590.5Q365 553 365 509Q365 412 324.5 353.5Q284 295 200 295H130V0H62Z" glyph-name="P" horiz-adv-x="410" unicode="P" /><glyph d="M218 51Q244 51 262.5 59.5Q281 68 293 82Q305 96 310.5 115Q316 134 316 154V569Q316 612 290 638.5Q264 665 216 665Q167 665 143.5 636Q120 607 120 566V153Q120 112 144 81.5Q168 51 218 51ZM267 -1Q256 -6 243 -7.5Q230 -9 216 -9Q141 -9 96 31.5Q51 72 51 154V561Q51 601 63.5 631.5Q76 662 98.5 682.5Q121 703 152 713.5Q183 724 219 724Q253 724 283 714.5Q313 705 335.5 686Q358 667 370.5 638Q383 609 383 570V159Q383 115 368.5 84Q354 53 328 35L409 -19L366 -73Z" glyph-name="Q" horiz-adv-x="434" unicode="Q" /><glyph d="M207 371Q255 371 278 408Q301 445 301 511Q301 538 296.5 563.5Q292 589 281 609.5Q270 630 251 642Q232 654 203 654H130V371ZM62 713H206Q291 713 330 661.5Q369 610 369 519Q369 443 342.5 395Q316 347 271 334L377 0H307L208 318H130V0H62Z" glyph-name="R" horiz-adv-x="419" unicode="R" /><glyph glyph-name="RS" horiz-adv-x="35" /><glyph d="M207 371Q255 371 278 408Q301 445 301 511Q301 538 296.5 563.5Q292 589 281 609.5Q270 630 251 642Q232 654 203 654H130V371ZM62 713H206Q291 713 330 661.5Q369 610 369 519Q369 443 342.5 395Q316 347 271 334L377 0H307L208 318H130V0H62ZM220 911H291L202 771H151Z" glyph-name="Racute" horiz-adv-x="419" unicode="&#340;" /><glyph d="M207 371Q255 371 278 408Q301 445 301 511Q301 538 296.5 563.5Q292 589 281 609.5Q270 630 251 642Q232 654 203 654H130V371ZM62 713H206Q291 713 330 661.5Q369 610 369 519Q369 443 342.5 395Q316 347 271 334L377 0H307L208 318H130V0H62ZM110 914H166L209 824L251 914H305L231 772H182Z" glyph-name="Rcaron" horiz-adv-x="419" unicode="&#344;" /><glyph d="M207 371Q255 371 278 408Q301 445 301 511Q301 538 296.5 563.5Q292 589 281 609.5Q270 630 251 642Q232 654 203 654H130V371ZM62 713H206Q291 713 330 661.5Q369 610 369 519Q369 443 342.5 395Q316 347 271 334L377 0H307L208 318H130V0H62ZM180 -38H244L222 -175H176Z" glyph-name="Rcommaaccent" horiz-adv-x="419" unicode="&#342;" /><glyph d="M193 -9Q123 -9 83 34.5Q43 78 37 162L101 164Q106 110 127.5 78Q149 46 193 46Q217 46 233 55.5Q249 65 259 80.5Q269 96 273 115Q277 134 277 153Q277 189 261.5 225.5Q246 262 216 295L128 398Q92 439 70.5 481Q49 523 49 570Q49 603 58 631Q67 659 85 679.5Q103 700 130.5 712Q158 724 194 724Q223 724 247.5 715.5Q272 707 290.5 688.5Q309 670 320.5 639.5Q332 609 335 566L273 564Q267 619 247 644Q227 669 191 669Q154 669 132.5 646Q111 623 111 575Q111 540 131.5 507.5Q152 475 181 442L257 353Q298 306 319.5 260Q341 214 341 159Q341 122 331 91Q321 60 302.5 38Q284 16 256.5 3.5Q229 -9 193 -9Z" glyph-name="S" horiz-adv-x="378" unicode="S" /><glyph d="M193 -9Q123 -9 83 34.5Q43 78 37 162L101 164Q106 110 127.5 78Q149 46 193 46Q217 46 233 55.5Q249 65 259 80.5Q269 96 273 115Q277 134 277 153Q277 189 261.5 225.5Q246 262 216 295L128 398Q92 439 70.5 481Q49 523 49 570Q49 603 58 631Q67 659 85 679.5Q103 700 130.5 712Q158 724 194 724Q223 724 247.5 715.5Q272 707 290.5 688.5Q309 670 320.5 639.5Q332 609 335 566L273 564Q267 619 247 644Q227 669 191 669Q154 669 132.5 646Q111 623 111 575Q111 540 131.5 507.5Q152 475 181 442L257 353Q298 306 319.5 260Q341 214 341 159Q341 122 331 91Q321 60 302.5 38Q284 16 256.5 3.5Q229 -9 193 -9ZM235 911H306L217 771H166Z" glyph-name="Sacute" horiz-adv-x="378" unicode="&#346;" /><glyph d="M193 -9Q123 -9 83 34.5Q43 78 37 162L101 164Q106 110 127.5 78Q149 46 193 46Q217 46 233 55.5Q249 65 259 80.5Q269 96 273 115Q277 134 277 153Q277 189 261.5 225.5Q246 262 216 295L128 398Q92 439 70.5 481Q49 523 49 570Q49 603 58 631Q67 659 85 679.5Q103 700 130.5 712Q158 724 194 724Q223 724 247.5 715.5Q272 707 290.5 688.5Q309 670 320.5 639.5Q332 609 335 566L273 564Q267 619 247 644Q227 669 191 669Q154 669 132.5 646Q111 623 111 575Q111 540 131.5 507.5Q152 475 181 442L257 353Q298 306 319.5 260Q341 214 341 159Q341 122 331 91Q321 60 302.5 38Q284 16 256.5 3.5Q229 -9 193 -9ZM90 914H146L189 824L231 914H285L211 772H162Z" glyph-name="Scaron" horiz-adv-x="378" unicode="&#352;" /><glyph d="M201 -182Q187 -182 169 -180Q151 -178 133 -172V-130Q150 -134 165.5 -136.5Q181 -139 197 -139Q216 -139 227 -133Q238 -127 238 -113Q238 -99 226 -93Q214 -87 191 -85L165 -83L181 -8Q116 -4 79 38.5Q42 81 37 162L101 164Q106 110 127.5 78Q149 46 193 46Q217 46 233 55.5Q249 65 259 80.5Q269 96 273 115Q277 134 277 153Q277 189 261.5 225.5Q246 262 216 295L128 398Q92 439 70.5 481Q49 523 49 570Q49 603 58 631Q67 659 85 679.5Q103 700 130.5 712Q158 724 194 724Q223 724 247.5 715.5Q272 707 290.5 688.5Q309 670 320.5 639.5Q332 609 335 566L273 564Q267 619 247 644Q227 669 191 669Q154 669 132.5 646Q111 623 111 575Q111 540 131.5 507.5Q152 475 181 442L257 353Q298 306 319.5 260Q341 214 341 159Q341 91 309 46Q277 1 217 -7L207 -53Q222 -54 237 -57Q252 -60 264 -66.5Q276 -73 283.5 -84Q291 -95 291 -112Q291 -143 265 -162.5Q239 -182 201 -182Z" glyph-name="Scedilla" horiz-adv-x="378" unicode="&#350;" /><glyph d="M193 -9Q123 -9 83 34.5Q43 78 37 162L101 164Q106 110 127.5 78Q149 46 193 46Q217 46 233 55.5Q249 65 259 80.5Q269 96 273 115Q277 134 277 153Q277 189 261.5 225.5Q246 262 216 295L128 398Q92 439 70.5 481Q49 523 49 570Q49 603 58 631Q67 659 85 679.5Q103 700 130.5 712Q158 724 194 724Q223 724 247.5 715.5Q272 707 290.5 688.5Q309 670 320.5 639.5Q332 609 335 566L273 564Q267 619 247 644Q227 669 191 669Q154 669 132.5 646Q111 623 111 575Q111 540 131.5 507.5Q152 475 181 442L257 353Q298 306 319.5 260Q341 214 341 159Q341 122 331 91Q321 60 302.5 38Q284 16 256.5 3.5Q229 -9 193 -9ZM165 913H214L286 771H230L188 861L145 771H92Z" glyph-name="Scircumflex" horiz-adv-x="378" unicode="&#348;" /><glyph d="M193 -9Q123 -9 83 34.5Q43 78 37 162L101 164Q106 110 127.5 78Q149 46 193 46Q217 46 233 55.5Q249 65 259 80.5Q269 96 273 115Q277 134 277 153Q277 189 261.5 225.5Q246 262 216 295L128 398Q92 439 70.5 481Q49 523 49 570Q49 603 58 631Q67 659 85 679.5Q103 700 130.5 712Q158 724 194 724Q223 724 247.5 715.5Q272 707 290.5 688.5Q309 670 320.5 639.5Q332 609 335 566L273 564Q267 619 247 644Q227 669 191 669Q154 669 132.5 646Q111 623 111 575Q111 540 131.5 507.5Q152 475 181 442L257 353Q298 306 319.5 260Q341 214 341 159Q341 122 331 91Q321 60 302.5 38Q284 16 256.5 3.5Q229 -9 193 -9ZM167 -38H231L209 -175H163Z" glyph-name="Scommaaccent" horiz-adv-x="378" unicode="&#536;" /><glyph d="M160 655H23V713H362V655H227V0H160Z" glyph-name="T" horiz-adv-x="385" unicode="T" /><glyph d="M98 367H160V655H23V713H362V655H227V367H287V320H227V0H160V320H98Z" glyph-name="Tbar" horiz-adv-x="385" unicode="&#358;" /><glyph d="M160 655H23V713H362V655H227V0H160ZM94 914H150L193 824L235 914H289L215 772H166Z" glyph-name="Tcaron" horiz-adv-x="385" unicode="&#356;" /><glyph d="M160 655H23V713H362V655H227V0H160ZM163 -38H227L205 -175H159Z" glyph-name="Tcommaaccent" horiz-adv-x="385" unicode="&#354;" /><glyph d="M186 212Q241 212 266 251.5Q291 291 291 367Q291 397 286 423.5Q281 450 270 469.5Q259 489 240 500Q221 511 193 511H121V212ZM53 713H121V569H201Q244 569 274 554Q304 539 323 512Q342 485 350 448Q358 411 358 367Q358 319 348 280Q338 241 318 213.5Q298 186 266.5 170.5Q235 155 193 155H121V0H53Z" glyph-name="Thorn" horiz-adv-x="395" unicode="&#222;" /><glyph d="M217 -10Q183 -10 154 -0.5Q125 9 103.5 28.5Q82 48 70 77Q58 106 58 146V713H126V156Q126 100 154.5 75Q183 50 222 50Q272 50 294 79.5Q316 109 315 154V713H379V153Q380 78 335.5 34Q291 -10 217 -10Z" glyph-name="U" horiz-adv-x="438" unicode="U" /><glyph glyph-name="US" horiz-adv-x="33" /><glyph d="M217 -10Q183 -10 154 -0.5Q125 9 103.5 28.5Q82 48 70 77Q58 106 58 146V713H126V156Q126 100 154.5 75Q183 50 222 50Q272 50 294 79.5Q316 109 315 154V713H379V153Q380 78 335.5 34Q291 -10 217 -10ZM268 911H339L250 771H199Z" glyph-name="Uacute" horiz-adv-x="438" unicode="&#218;" /><glyph d="M218 775Q166 775 138 806Q110 837 109 894H157Q159 879 162.5 865.5Q166 852 172.5 841.5Q179 831 191 824.5Q203 818 221 818Q252 818 265.5 839.5Q279 861 280 894H327Q325 832 293.5 803.5Q262 775 218 775ZM217 -10Q183 -10 154 -0.5Q125 9 103.5 28.5Q82 48 70 77Q58 106 58 146V713H126V156Q126 100 154.5 75Q183 50 222 50Q272 50 294 79.5Q316 109 315 154V713H379V153Q380 78 335.5 34Q291 -10 217 -10Z" glyph-name="Ubreve" horiz-adv-x="438" unicode="&#364;" /><glyph d="M217 -10Q183 -10 154 -0.5Q125 9 103.5 28.5Q82 48 70 77Q58 106 58 146V713H126V156Q126 100 154.5 75Q183 50 222 50Q272 50 294 79.5Q316 109 315 154V713H379V153Q380 78 335.5 34Q291 -10 217 -10ZM195 913H244L316 771H260L218 861L175 771H122Z" glyph-name="Ucircumflex" horiz-adv-x="438" unicode="&#219;" /><glyph d="M217 -10Q183 -10 154 -0.5Q125 9 103.5 28.5Q82 48 70 77Q58 106 58 146V713H126V156Q126 100 154.5 75Q183 50 222 50Q272 50 294 79.5Q316 109 315 154V713H379V153Q380 78 335.5 34Q291 -10 217 -10ZM252 901H309V786H252ZM130 901H187V786H130Z" glyph-name="Udieresis" horiz-adv-x="438" unicode="&#220;" /><glyph d="M112 911H184L253 771H202ZM217 -10Q183 -10 154 -0.5Q125 9 103.5 28.5Q82 48 70 77Q58 106 58 146V713H126V156Q126 100 154.5 75Q183 50 222 50Q272 50 294 79.5Q316 109 315 154V713H379V153Q380 78 335.5 34Q291 -10 217 -10Z" glyph-name="Ugrave" horiz-adv-x="438" unicode="&#217;" /><glyph d="M304 901H366L304 774H255ZM192 901H255L193 774H144ZM217 -10Q183 -10 154 -0.5Q125 9 103.5 28.5Q82 48 70 77Q58 106 58 146V713H126V156Q126 100 154.5 75Q183 50 222 50Q272 50 294 79.5Q316 109 315 154V713H379V153Q380 78 335.5 34Q291 -10 217 -10Z" glyph-name="Uhungarumlaut" horiz-adv-x="438" unicode="&#368;" /><glyph d="M126 842H312V788H126ZM217 -10Q183 -10 154 -0.5Q125 9 103.5 28.5Q82 48 70 77Q58 106 58 146V713H126V156Q126 100 154.5 75Q183 50 222 50Q272 50 294 79.5Q316 109 315 154V713H379V153Q380 78 335.5 34Q291 -10 217 -10Z" glyph-name="Umacron" horiz-adv-x="438" unicode="&#362;" /><glyph d="M217 -10Q183 -10 154 -0.5Q125 9 103.5 28.5Q82 48 70 77Q58 106 58 146V713H126V156Q126 100 154.5 75Q183 50 222 50Q272 50 294 79.5Q316 109 315 154V713H379V153Q380 95 353.5 55.5Q327 16 279 0Q262 -17 254.5 -38.5Q247 -60 247 -86Q247 -109 259 -121Q271 -133 290 -133Q301 -133 311.5 -130Q322 -127 330 -123L349 -163Q338 -171 322 -176.5Q306 -182 280 -182Q247 -182 222 -163Q197 -144 197 -104Q197 -75 207.5 -51Q218 -27 235 -9Q230 -9 226 -9.5Q222 -10 217 -10Z" glyph-name="Uogonek" horiz-adv-x="438" unicode="&#370;" /><glyph d="M217 -10Q183 -10 154 -0.5Q125 9 103.5 28.5Q82 48 70 77Q58 106 58 146V713H126V156Q126 100 154.5 75Q183 50 222 50Q272 50 294 79.5Q316 109 315 154V713H379V153Q380 78 335.5 34Q291 -10 217 -10ZM218 797Q238 797 249.5 809.5Q261 822 261 844Q261 864 250.5 878Q240 892 218 892Q198 892 187.5 878.5Q177 865 177 843Q177 821 188.5 809Q200 797 218 797ZM218 765Q180 765 160 788Q140 811 140 842Q140 876 161.5 900Q183 924 218 924Q256 924 276.5 901.5Q297 879 297 847Q297 812 275 788.5Q253 765 218 765Z" glyph-name="Uring" horiz-adv-x="438" unicode="&#366;" /><glyph d="M102 787Q107 821 124.5 845Q142 869 173 869Q186 869 199.5 864.5Q213 860 226.5 855Q240 850 253.5 845.5Q267 841 280 841Q294 841 301 850Q308 859 313 876L351 868Q346 834 327.5 810Q309 786 280 786Q266 786 251.5 790.5Q237 795 223.5 800.5Q210 806 197 810.5Q184 815 174 815Q159 815 152.5 806.5Q146 798 142 780ZM217 -10Q183 -10 154 -0.5Q125 9 103.5 28.5Q82 48 70 77Q58 106 58 146V713H126V156Q126 100 154.5 75Q183 50 222 50Q272 50 294 79.5Q316 109 315 154V713H379V153Q380 78 335.5 34Q291 -10 217 -10Z" glyph-name="Utilde" horiz-adv-x="438" unicode="&#360;" /><glyph d="M22 713H90L194 134H196L302 713H364L229 -6H159Z" glyph-name="V" horiz-adv-x="385" unicode="V" /><glyph d="M30 713H98L166 168H168L251 713H320L401 169H403L470 713H532L434 -6H371L284 563H281L195 -6H131Z" glyph-name="W" horiz-adv-x="562" unicode="W" /><glyph d="M30 713H98L166 168H168L251 713H320L401 169H403L470 713H532L434 -6H371L284 563H281L195 -6H131ZM334 911H405L316 771H265Z" glyph-name="Wacute" horiz-adv-x="562" unicode="&#7810;" /><glyph d="M30 713H98L166 168H168L251 713H320L401 169H403L470 713H532L434 -6H371L284 563H281L195 -6H131ZM257 913H306L378 771H322L280 861L237 771H184Z" glyph-name="Wcircumflex" horiz-adv-x="562" unicode="&#372;" /><glyph d="M30 713H98L166 168H168L251 713H320L401 169H403L470 713H532L434 -6H371L284 563H281L195 -6H131ZM314 901H371V786H314ZM192 901H249V786H192Z" glyph-name="Wdieresis" horiz-adv-x="562" unicode="&#7812;" /><glyph d="M167 911H239L308 771H257ZM30 713H98L166 168H168L251 713H320L401 169H403L470 713H532L434 -6H371L284 563H281L195 -6H131Z" glyph-name="Wgrave" horiz-adv-x="562" unicode="&#7808;" /><glyph d="M153 361 29 713H100L194 440L287 713H350L226 367L359 0H289L187 287L87 0H22Z" glyph-name="X" horiz-adv-x="381" unicode="X" /><glyph d="M153 309 19 714H89L191 395L289 714H353L220 308V0H153Z" glyph-name="Y" horiz-adv-x="372" unicode="Y" /><glyph d="M236 911H307L218 771H167ZM153 309 19 714H89L191 395L289 714H353L220 308V0H153Z" glyph-name="Yacute" horiz-adv-x="372" unicode="&#221;" /><glyph d="M163 913H212L284 771H228L186 861L143 771H90ZM153 309 19 714H89L191 395L289 714H353L220 308V0H153Z" glyph-name="Ycircumflex" horiz-adv-x="372" unicode="&#374;" /><glyph d="M219 901H276V786H219ZM97 901H154V786H97ZM153 309 19 714H89L191 395L289 714H353L220 308V0H153Z" glyph-name="Ydieresis" horiz-adv-x="372" unicode="&#376;" /><glyph d="M75 911H147L216 771H165ZM153 309 19 714H89L191 395L289 714H353L220 308V0H153Z" glyph-name="Ygrave" horiz-adv-x="372" unicode="&#7922;" /><glyph d="M32 50 235 655H39V713H310V667L108 59H307V0H32Z" glyph-name="Z" horiz-adv-x="341" unicode="Z" /><glyph d="M32 50 235 655H39V713H310V667L108 59H307V0H32ZM213 911H284L195 771H144Z" glyph-name="Zacute" horiz-adv-x="341" unicode="&#377;" /><glyph d="M32 50 235 655H39V713H310V667L108 59H307V0H32ZM81 914H137L180 824L222 914H276L202 772H153Z" glyph-name="Zcaron" horiz-adv-x="341" unicode="&#381;" /><glyph d="M142 902H201V786H142ZM32 50 235 655H39V713H310V667L108 59H307V0H32Z" glyph-name="Zdotaccent" horiz-adv-x="341" unicode="&#379;" /><glyph d="M161 43Q176 43 189.5 51Q203 59 213 72Q223 85 228.5 102Q234 119 234 137V270H190Q174 270 158 264.5Q142 259 129.5 245.5Q117 232 109.5 209.5Q102 187 102 154Q102 95 118.5 69Q135 43 161 43ZM144 -9Q100 -9 69 29Q38 67 38 147Q38 224 80 268.5Q122 313 187 315H234V422Q234 449 218 464.5Q202 480 171 480Q143 480 126 465.5Q109 451 109 424V367H49V423Q49 471 83.5 501Q118 531 178 531Q233 531 265 501.5Q297 472 297 424V128Q297 114 297.5 96Q298 78 298.5 60Q299 42 299.5 25.5Q300 9 300 0H243Q243 8 242 25Q241 42 240 57H237Q231 39 220 26.5Q209 14 196 6Q183 -2 169.5 -5.5Q156 -9 144 -9Z" glyph-name="a" horiz-adv-x="354" unicode="a" /><glyph d="M211 720H282L193 580H142ZM161 43Q176 43 189.5 51Q203 59 213 72Q223 85 228.5 102Q234 119 234 137V270H190Q174 270 158 264.5Q142 259 129.5 245.5Q117 232 109.5 209.5Q102 187 102 154Q102 95 118.5 69Q135 43 161 43ZM144 -9Q100 -9 69 29Q38 67 38 147Q38 224 80 268.5Q122 313 187 315H234V422Q234 449 218 464.5Q202 480 171 480Q143 480 126 465.5Q109 451 109 424V367H49V423Q49 471 83.5 501Q118 531 178 531Q233 531 265 501.5Q297 472 297 424V128Q297 114 297.5 96Q298 78 298.5 60Q299 42 299.5 25.5Q300 9 300 0H243Q243 8 242 25Q241 42 240 57H237Q231 39 220 26.5Q209 14 196 6Q183 -2 169.5 -5.5Q156 -9 144 -9Z" glyph-name="aacute" horiz-adv-x="354" unicode="&#225;" /><glyph d="M176 584Q124 584 96 615Q68 646 67 703H115Q117 688 120.5 674.5Q124 661 130.5 650.5Q137 640 149 633.5Q161 627 179 627Q210 627 223.5 648.5Q237 670 238 703H285Q283 641 251.5 612.5Q220 584 176 584ZM161 43Q176 43 189.5 51Q203 59 213 72Q223 85 228.5 102Q234 119 234 137V270H190Q174 270 158 264.5Q142 259 129.5 245.5Q117 232 109.5 209.5Q102 187 102 154Q102 95 118.5 69Q135 43 161 43ZM144 -9Q100 -9 69 29Q38 67 38 147Q38 224 80 268.5Q122 313 187 315H234V422Q234 449 218 464.5Q202 480 171 480Q143 480 126 465.5Q109 451 109 424V367H49V423Q49 471 83.5 501Q118 531 178 531Q233 531 265 501.5Q297 472 297 424V128Q297 114 297.5 96Q298 78 298.5 60Q299 42 299.5 25.5Q300 9 300 0H243Q243 8 242 25Q241 42 240 57H237Q231 39 220 26.5Q209 14 196 6Q183 -2 169.5 -5.5Q156 -9 144 -9Z" glyph-name="abreve" horiz-adv-x="354" unicode="&#259;" /><glyph d="M152 722H201L273 580H217L175 670L132 580H79ZM161 43Q176 43 189.5 51Q203 59 213 72Q223 85 228.5 102Q234 119 234 137V270H190Q174 270 158 264.5Q142 259 129.5 245.5Q117 232 109.5 209.5Q102 187 102 154Q102 95 118.5 69Q135 43 161 43ZM144 -9Q100 -9 69 29Q38 67 38 147Q38 224 80 268.5Q122 313 187 315H234V422Q234 449 218 464.5Q202 480 171 480Q143 480 126 465.5Q109 451 109 424V367H49V423Q49 471 83.5 501Q118 531 178 531Q233 531 265 501.5Q297 472 297 424V128Q297 114 297.5 96Q298 78 298.5 60Q299 42 299.5 25.5Q300 9 300 0H243Q243 8 242 25Q241 42 240 57H237Q231 39 220 26.5Q209 14 196 6Q183 -2 169.5 -5.5Q156 -9 144 -9Z" glyph-name="acircumflex" horiz-adv-x="354" unicode="&#226;" /><glyph d="M121 720H192L103 580H52Z" glyph-name="acute" horiz-adv-x="215" unicode="&#180;" /><glyph d="M210 710H267V595H210ZM88 710H145V595H88ZM161 43Q176 43 189.5 51Q203 59 213 72Q223 85 228.5 102Q234 119 234 137V270H190Q174 270 158 264.5Q142 259 129.5 245.5Q117 232 109.5 209.5Q102 187 102 154Q102 95 118.5 69Q135 43 161 43ZM144 -9Q100 -9 69 29Q38 67 38 147Q38 224 80 268.5Q122 313 187 315H234V422Q234 449 218 464.5Q202 480 171 480Q143 480 126 465.5Q109 451 109 424V367H49V423Q49 471 83.5 501Q118 531 178 531Q233 531 265 501.5Q297 472 297 424V128Q297 114 297.5 96Q298 78 298.5 60Q299 42 299.5 25.5Q300 9 300 0H243Q243 8 242 25Q241 42 240 57H237Q231 39 220 26.5Q209 14 196 6Q183 -2 169.5 -5.5Q156 -9 144 -9Z" glyph-name="adieresis" horiz-adv-x="354" unicode="&#228;" /><glyph d="M433 295V397Q433 412 430 426Q427 440 419.5 451.5Q412 463 399 470Q386 477 366 477Q347 477 334 470Q321 463 313 451.5Q305 440 301.5 425.5Q298 411 298 397V295ZM166 43Q195 43 214.5 67Q234 91 234 128V270H190Q174 270 158 264.5Q142 259 129.5 245.5Q117 232 109.5 209.5Q102 187 102 154Q102 95 121 69Q140 43 166 43ZM144 -10Q100 -10 69 28.5Q38 67 38 147Q38 185 49 216Q60 247 80 268.5Q100 290 127.5 302Q155 314 187 315H234V422Q234 449 218 464.5Q202 480 171 480Q143 480 126 465.5Q109 451 109 424V367H49V423Q49 471 83.5 501Q118 531 178 531Q209 531 234 520.5Q259 510 271 488Q305 531 370 531Q431 531 462.5 493.5Q494 456 494 394V244H298V146Q298 99 316.5 72.5Q335 46 385 46Q411 46 433.5 52.5Q456 59 473 68L489 20Q468 6 438 -1.5Q408 -9 376 -9Q331 -9 300 7Q269 23 253 58Q243 37 229.5 24Q216 11 201 3.5Q186 -4 171.5 -7Q157 -10 144 -10Z" glyph-name="ae" horiz-adv-x="536" unicode="&#230;" /><glyph d="M433 295V397Q433 412 430 426Q427 440 419.5 451.5Q412 463 399 470Q386 477 366 477Q347 477 334 470Q321 463 313 451.5Q305 440 301.5 425.5Q298 411 298 397V295ZM166 43Q195 43 214.5 67Q234 91 234 128V270H190Q174 270 158 264.5Q142 259 129.5 245.5Q117 232 109.5 209.5Q102 187 102 154Q102 95 121 69Q140 43 166 43ZM144 -10Q100 -10 69 28.5Q38 67 38 147Q38 185 49 216Q60 247 80 268.5Q100 290 127.5 302Q155 314 187 315H234V422Q234 449 218 464.5Q202 480 171 480Q143 480 126 465.5Q109 451 109 424V367H49V423Q49 471 83.5 501Q118 531 178 531Q209 531 234 520.5Q259 510 271 488Q305 531 370 531Q431 531 462.5 493.5Q494 456 494 394V244H298V146Q298 99 316.5 72.5Q335 46 385 46Q411 46 433.5 52.5Q456 59 473 68L489 20Q468 6 438 -1.5Q408 -9 376 -9Q331 -9 300 7Q269 23 253 58Q243 37 229.5 24Q216 11 201 3.5Q186 -4 171.5 -7Q157 -10 144 -10ZM313 720H384L295 580H244Z" glyph-name="aeacute" horiz-adv-x="536" unicode="&#509;" /><glyph d="M67 720H139L208 580H157ZM161 43Q176 43 189.5 51Q203 59 213 72Q223 85 228.5 102Q234 119 234 137V270H190Q174 270 158 264.5Q142 259 129.5 245.5Q117 232 109.5 209.5Q102 187 102 154Q102 95 118.5 69Q135 43 161 43ZM144 -9Q100 -9 69 29Q38 67 38 147Q38 224 80 268.5Q122 313 187 315H234V422Q234 449 218 464.5Q202 480 171 480Q143 480 126 465.5Q109 451 109 424V367H49V423Q49 471 83.5 501Q118 531 178 531Q233 531 265 501.5Q297 472 297 424V128Q297 114 297.5 96Q298 78 298.5 60Q299 42 299.5 25.5Q300 9 300 0H243Q243 8 242 25Q241 42 240 57H237Q231 39 220 26.5Q209 14 196 6Q183 -2 169.5 -5.5Q156 -9 144 -9Z" glyph-name="agrave" horiz-adv-x="354" unicode="&#224;" /><glyph d="M129 -181Q97 -181 74 -162.5Q51 -144 51 -104Q51 -81 58.5 -61Q66 -41 77 -25Q88 -9 102 3.5Q116 16 130 24L155 6Q129 -10 115 -33.5Q101 -57 101 -86Q101 -133 139 -133Q146 -133 154.5 -130.5Q163 -128 171 -124L187 -164Q176 -172 161.5 -176.5Q147 -181 129 -181Z" glyph-name="altogonek" horiz-adv-x="222" /><glyph d="M84 651H270V597H84ZM161 43Q176 43 189.5 51Q203 59 213 72Q223 85 228.5 102Q234 119 234 137V270H190Q174 270 158 264.5Q142 259 129.5 245.5Q117 232 109.5 209.5Q102 187 102 154Q102 95 118.5 69Q135 43 161 43ZM144 -9Q100 -9 69 29Q38 67 38 147Q38 224 80 268.5Q122 313 187 315H234V422Q234 449 218 464.5Q202 480 171 480Q143 480 126 465.5Q109 451 109 424V367H49V423Q49 471 83.5 501Q118 531 178 531Q233 531 265 501.5Q297 472 297 424V128Q297 114 297.5 96Q298 78 298.5 60Q299 42 299.5 25.5Q300 9 300 0H243Q243 8 242 25Q241 42 240 57H237Q231 39 220 26.5Q209 14 196 6Q183 -2 169.5 -5.5Q156 -9 144 -9Z" glyph-name="amacron" horiz-adv-x="354" unicode="&#257;" /><glyph d="M210 422Q256 451 276 489Q296 527 296 580Q296 619 277.5 646.5Q259 674 225 674Q206 674 192.5 666Q179 658 170 644.5Q161 631 157 614Q153 597 153 578Q153 545 169 506Q185 467 210 422ZM202 47Q236 47 262 70Q288 93 305 122Q304 123 294.5 139.5Q285 156 271.5 180Q258 204 242 231.5Q226 259 212.5 282.5Q199 306 189.5 322.5Q180 339 180 340Q159 327 145 309.5Q131 292 122.5 272Q114 252 111 229.5Q108 207 108 185Q108 160 113.5 135.5Q119 111 130.5 91.5Q142 72 159.5 59.5Q177 47 202 47ZM193 -12Q153 -12 124.5 3.5Q96 19 77.5 45.5Q59 72 50 107Q41 142 41 182Q41 244 66 300Q91 356 153 391Q127 433 108 480.5Q89 528 89 573Q89 600 96 627.5Q103 655 119.5 677Q136 699 162.5 712.5Q189 726 227 726Q260 726 284 714.5Q308 703 324.5 683Q341 663 349 637Q357 611 357 583Q357 449 236 376Q236 375 244 361Q252 347 263.5 327Q275 307 289 283Q303 259 314.5 239Q326 219 334.5 205Q343 191 343 190Q352 220 359.5 250Q367 280 374 318L428 311Q420 263 406.5 216.5Q393 170 375 127Q376 125 387 106Q398 87 411.5 64Q425 41 436.5 21.5Q448 2 449 0H375L331 73Q308 35 272.5 11.5Q237 -12 193 -12Z" glyph-name="ampersand" horiz-adv-x="470" unicode="&amp;" /><glyph d="M161 43Q176 43 189.5 51Q203 59 213 72Q223 85 228.5 102Q234 119 234 137V270H190Q174 270 158 264.5Q142 259 129.5 245.5Q117 232 109.5 209.5Q102 187 102 154Q102 95 118.5 69Q135 43 161 43ZM275 -182Q242 -182 217 -163.5Q192 -145 192 -105Q192 -70 207 -43.5Q222 -17 243 1Q243 9 242 25.5Q241 42 240 57H237Q231 39 220 26.5Q209 14 196 6Q183 -2 169.5 -5.5Q156 -9 144 -9Q100 -9 69 29Q38 67 38 147Q38 224 80 268.5Q122 313 187 315H234V422Q234 449 218 464.5Q202 480 171 480Q143 480 126 465.5Q109 451 109 424V367H49V423Q49 471 83.5 501Q118 531 178 531Q233 531 265 501.5Q297 472 297 424V128Q297 114 297.5 96Q298 78 298.5 60Q299 42 299.5 25.5Q300 9 300 0H292Q242 -30 242 -86Q242 -109 254 -121Q266 -133 285 -133Q296 -133 306.5 -130Q317 -127 325 -122L344 -163Q333 -170 317 -176Q301 -182 275 -182Z" glyph-name="aogonek" horiz-adv-x="354" unicode="&#261;" /><glyph d="M50 350Q55 384 70.5 409Q86 434 118 434Q132 434 154.5 430Q177 426 200 420.5Q223 415 244.5 411Q266 407 279 407Q293 407 299.5 416.5Q306 426 311 442L348 435Q343 401 327.5 376Q312 351 281 351Q267 351 244 355.5Q221 360 197 365.5Q173 371 152 375.5Q131 380 119 380Q104 380 97.5 370.5Q91 361 87 344ZM50 216Q55 250 70.5 274.5Q86 299 118 299Q132 299 154.5 295Q177 291 200 285.5Q223 280 244.5 276Q266 272 279 272Q293 272 299.5 281.5Q306 291 311 308L348 301Q343 267 327.5 242Q312 217 281 217Q267 217 244 221.5Q221 226 197 231.5Q173 237 152 241.5Q131 246 119 246Q104 246 97.5 236.5Q91 227 87 210Z" glyph-name="approxequal" horiz-adv-x="398" unicode="&#8776;" /><glyph d="M173 606Q193 606 204.5 618.5Q216 631 216 653Q216 673 205.5 687Q195 701 173 701Q153 701 142.5 687.5Q132 674 132 652Q132 630 143.5 618Q155 606 173 606ZM173 574Q135 574 115 597Q95 620 95 651Q95 685 116.5 709Q138 733 173 733Q211 733 231.5 710.5Q252 688 252 656Q252 621 230 597.5Q208 574 173 574ZM161 43Q176 43 189.5 51Q203 59 213 72Q223 85 228.5 102Q234 119 234 137V270H190Q174 270 158 264.5Q142 259 129.5 245.5Q117 232 109.5 209.5Q102 187 102 154Q102 95 118.5 69Q135 43 161 43ZM144 -9Q100 -9 69 29Q38 67 38 147Q38 224 80 268.5Q122 313 187 315H234V422Q234 449 218 464.5Q202 480 171 480Q143 480 126 465.5Q109 451 109 424V367H49V423Q49 471 83.5 501Q118 531 178 531Q233 531 265 501.5Q297 472 297 424V128Q297 114 297.5 96Q298 78 298.5 60Q299 42 299.5 25.5Q300 9 300 0H243Q243 8 242 25Q241 42 240 57H237Q231 39 220 26.5Q209 14 196 6Q183 -2 169.5 -5.5Q156 -9 144 -9Z" glyph-name="aring" horiz-adv-x="354" unicode="&#229;" /><glyph d="M178 605Q197 605 209 617.5Q221 630 221 652Q221 672 210.5 685.5Q200 699 179 699Q159 699 148.5 685.5Q138 672 138 651Q138 628 149 616.5Q160 605 178 605ZM178 574Q138 574 119 597.5Q100 621 100 649Q100 678 118 704L183 798L242 788L186 728Q221 725 239 704Q257 683 257 654Q257 620 235 597Q213 574 178 574ZM161 43Q176 43 189.5 51Q203 59 213 72Q223 85 228.5 102Q234 119 234 137V270H190Q174 270 158 264.5Q142 259 129.5 245.5Q117 232 109.5 209.5Q102 187 102 154Q102 95 118.5 69Q135 43 161 43ZM144 -9Q100 -9 69 29Q38 67 38 147Q38 224 80 268.5Q122 313 187 315H234V422Q234 449 218 464.5Q202 480 171 480Q143 480 126 465.5Q109 451 109 424V367H49V423Q49 471 83.5 501Q118 531 178 531Q233 531 265 501.5Q297 472 297 424V128Q297 114 297.5 96Q298 78 298.5 60Q299 42 299.5 25.5Q300 9 300 0H243Q243 8 242 25Q241 42 240 57H237Q231 39 220 26.5Q209 14 196 6Q183 -2 169.5 -5.5Q156 -9 144 -9Z" glyph-name="aringacute" horiz-adv-x="354" unicode="&#507;" /><glyph d="M69 329 100 361 188 275V523H234V275L321 362L353 329L214 195H208Z" glyph-name="arrowdown" horiz-adv-x="423" unicode="&#8595;" /><glyph d="M45 356V362L179 501L212 469L125 382H373V335H125L211 247L179 217Z" glyph-name="arrowleft" horiz-adv-x="423" unicode="&#8592;" /><glyph d="M208 247 295 335H47V382H295L207 469L240 501L375 362V356L240 217Z" glyph-name="arrowright" horiz-adv-x="423" unicode="&#8594;" /><glyph d="M188 443 101 356 69 388 208 523H213L353 388L322 356L234 443V195H188Z" glyph-name="arrowup" horiz-adv-x="423" unicode="&#8593;" /><glyph d="M146 513H198L262 212H212L171 423Q158 364 148 318Q144 298 140 279Q136 260 133 245.5Q130 231 128 221.5Q126 212 126 212H75Z" glyph-name="asciicircum" horiz-adv-x="340" unicode="^" /><glyph d="M50 274Q55 308 70.5 332.5Q86 357 118 357Q132 357 154.5 353Q177 349 200 343.5Q223 338 244.5 334Q266 330 279 330Q293 330 299.5 339.5Q306 349 311 366L348 359Q343 325 327.5 300Q312 275 281 275Q267 275 244 279.5Q221 284 197 289Q173 294 152 298.5Q131 303 119 303Q104 303 97.5 294Q91 285 87 268Z" glyph-name="asciitilde" horiz-adv-x="398" unicode="~" /><glyph d="M54 483 113 572 22 627 44 663 133 610V714H176V610L263 663L286 627L194 572L254 483L218 459L154 552L90 459Z" glyph-name="asterisk" horiz-adv-x="307" unicode="*" /><glyph d="M302 114Q335 114 361.5 144Q388 174 396 217L422 394Q423 399 423.5 403.5Q424 408 424 412Q424 447 406.5 466Q389 485 361 485Q329 485 308.5 464Q288 443 282 405L250 187Q248 177 248 164Q248 142 259.5 128Q271 114 302 114ZM354 -78Q248 -78 174 -28Q110 14 74.5 89Q39 164 40 272Q40 361 63.5 435Q87 509 130 562.5Q173 616 233.5 646Q294 676 369 676Q422 676 471 658Q520 640 557 602.5Q594 565 616 507.5Q638 450 638 372Q638 303 620 248.5Q602 194 572.5 156Q543 118 505 96.5Q467 75 427 71H376L384 133H382Q359 93 328.5 78Q298 63 273 63Q229 63 207.5 86.5Q186 110 186 146Q186 160 189 171Q189 174 193 202Q197 230 203 268.5Q209 307 215 348.5Q221 390 226 420Q235 475 271.5 504.5Q308 534 351 534Q377 534 400.5 521Q424 508 432 480H433L442 530H500L436 112Q471 115 500.5 137Q530 159 551 194.5Q572 230 584 275Q596 320 596 369Q596 439 578 490.5Q560 542 528.5 575.5Q497 609 455 625Q413 641 366 641Q298 641 245 612.5Q192 584 156 534.5Q120 485 101 418Q82 351 82 275Q82 177 113 106.5Q144 36 206 -2Q237 -21 275 -31Q313 -41 358 -41Q402 -41 439.5 -34.5Q477 -28 516 -17L522 -49Q487 -63 443.5 -70.5Q400 -78 354 -78Z" glyph-name="at" horiz-adv-x="676" unicode="@" /><glyph d="M53 596Q58 630 75.5 654Q93 678 124 678Q137 678 150.5 673.5Q164 669 177.5 664Q191 659 204.5 654.5Q218 650 231 650Q245 650 252 659Q259 668 264 685L302 677Q297 643 278.5 619Q260 595 231 595Q217 595 202.5 599.5Q188 604 174.5 609.5Q161 615 148 619.5Q135 624 125 624Q110 624 103.5 615.5Q97 607 93 589ZM161 43Q176 43 189.5 51Q203 59 213 72Q223 85 228.5 102Q234 119 234 137V270H190Q174 270 158 264.5Q142 259 129.5 245.5Q117 232 109.5 209.5Q102 187 102 154Q102 95 118.5 69Q135 43 161 43ZM144 -9Q100 -9 69 29Q38 67 38 147Q38 224 80 268.5Q122 313 187 315H234V422Q234 449 218 464.5Q202 480 171 480Q143 480 126 465.5Q109 451 109 424V367H49V423Q49 471 83.5 501Q118 531 178 531Q233 531 265 501.5Q297 472 297 424V128Q297 114 297.5 96Q298 78 298.5 60Q299 42 299.5 25.5Q300 9 300 0H243Q243 8 242 25Q241 42 240 57H237Q231 39 220 26.5Q209 14 196 6Q183 -2 169.5 -5.5Q156 -9 144 -9Z" glyph-name="atilde" horiz-adv-x="354" unicode="&#227;" /><glyph d="M204 46Q233 46 248.5 62.5Q264 79 264 115V408Q264 437 250.5 456.5Q237 476 202 476Q187 476 173 467.5Q159 459 148.5 444Q138 429 132 409.5Q126 390 126 368V147Q126 127 132 109Q138 91 148.5 77Q159 63 173 54.5Q187 46 204 46ZM213 -9Q184 -9 158.5 7Q133 23 122 52H120L118 0H62V713H126V468H128Q145 503 172.5 517Q200 531 225 531Q252 531 271.5 522Q291 513 303.5 498Q316 483 322 463.5Q328 444 328 424V108Q328 50 294.5 20.5Q261 -9 213 -9Z" glyph-name="b" horiz-adv-x="376" unicode="b" /><glyph d="M14 716H63L237 -169H186Z" glyph-name="backslash" horiz-adv-x="235" unicode="\" /><glyph d="M92 715H139V-104H92Z" glyph-name="bar" horiz-adv-x="231" unicode="|" /><glyph d="M45 543H411V0H45Z" glyph-name="blacksmallsquare" horiz-adv-x="456" unicode="&#9642;" /><glyph d="M42 714H485L486 0H42Z" glyph-name="blacksquare" horiz-adv-x="528" unicode="&#9632;" /><glyph d="M121 -168Q93 -168 76.5 -153Q60 -138 60 -106V227Q60 248 54 260Q48 272 28 274V320Q48 324 54 335Q60 346 60 363V646Q60 678 76.5 695.5Q93 713 122 713H194V671H135Q127 671 122.5 666Q118 661 118 647V370Q118 345 110 327Q102 309 80 300V297Q102 288 110 271Q118 254 118 227V-102Q118 -116 122.5 -121Q127 -126 135 -126H194V-168Z" glyph-name="braceleft" horiz-adv-x="212" unicode="{" /><glyph d="M15 -126H74Q82 -126 86.5 -121Q91 -116 91 -102V227Q91 254 99 271Q107 288 129 297V300Q107 309 99 327Q91 345 91 370V648Q91 662 86.5 667Q82 672 74 672H15V714H87Q116 714 132 696.5Q148 679 148 647V363Q148 346 154.5 335Q161 324 181 320V274Q161 272 154.5 260Q148 248 148 227V-106Q148 -138 132 -153Q116 -168 87 -168H15Z" glyph-name="braceright" horiz-adv-x="212" unicode="}" /><glyph d="M53 713H185V670H110V-126H185V-168H53Z" glyph-name="bracketleft" horiz-adv-x="203" unicode="[" /><glyph d="M18 -125H92V670H18V713H151V-168H18Z" glyph-name="bracketright" horiz-adv-x="203" unicode="]" /><glyph d="M150 584Q98 584 70 615Q42 646 41 703H89Q91 688 94.5 674.5Q98 661 104.5 650.5Q111 640 123 633.5Q135 627 153 627Q184 627 197.5 648.5Q211 670 212 703H259Q257 641 225.5 612.5Q194 584 150 584Z" glyph-name="breve" horiz-adv-x="299" unicode="&#728;" /><glyph d="M94 718H144V382H94ZM94 311H144V-44H94Z" glyph-name="brokenbar" horiz-adv-x="255" unicode="&#166;" /><glyph d="M176 232Q152 232 131 241Q110 250 94 266Q78 282 69 303Q60 324 60 348Q60 372 69 393Q78 414 94 430Q110 446 131 455Q152 464 176 464Q200 464 220.5 455Q241 446 257 430Q273 414 282 393Q291 372 291 348Q291 324 282 303Q273 282 257.5 266Q242 250 221 241Q200 232 176 232Z" glyph-name="bullet" horiz-adv-x="351" unicode="&#8226;" /><glyph d="M179 -9Q117 -9 82.5 27Q48 63 48 131V391Q48 460 86.5 495.5Q125 531 182 531Q213 531 236.5 522Q260 513 275.5 497.5Q291 482 299 461.5Q307 441 307 418V363H249V413Q249 424 245.5 435.5Q242 447 234.5 456.5Q227 466 214.5 472Q202 478 183 478Q163 478 149.5 471.5Q136 465 127.5 453.5Q119 442 115.5 427.5Q112 413 112 398V127Q112 111 115.5 96Q119 81 127 70Q135 59 148.5 52Q162 45 182 45Q204 45 217 52Q230 59 237 69.5Q244 80 246.5 92Q249 104 249 114V161H307V109Q307 55 274.5 23Q242 -9 179 -9Z" glyph-name="c" horiz-adv-x="347" unicode="c" /><glyph d="M179 -9Q117 -9 82.5 27Q48 63 48 131V391Q48 460 86.5 495.5Q125 531 182 531Q213 531 236.5 522Q260 513 275.5 497.5Q291 482 299 461.5Q307 441 307 418V363H249V413Q249 424 245.5 435.5Q242 447 234.5 456.5Q227 466 214.5 472Q202 478 183 478Q163 478 149.5 471.5Q136 465 127.5 453.5Q119 442 115.5 427.5Q112 413 112 398V127Q112 111 115.5 96Q119 81 127 70Q135 59 148.5 52Q162 45 182 45Q204 45 217 52Q230 59 237 69.5Q244 80 246.5 92Q249 104 249 114V161H307V109Q307 55 274.5 23Q242 -9 179 -9ZM214 720H285L196 580H145Z" glyph-name="cacute" horiz-adv-x="347" unicode="&#263;" /><glyph d="M45 723H101L144 633L186 723H240L166 581H117Z" glyph-name="caron" horiz-adv-x="279" unicode="&#711;" /><glyph d="M53 713H115L90 561H49Z" glyph-name="caronSlovak" horiz-adv-x="166" unicode="&#58387;" /><glyph d="M179 -9Q117 -9 82.5 27Q48 63 48 131V391Q48 460 86.5 495.5Q125 531 182 531Q213 531 236.5 522Q260 513 275.5 497.5Q291 482 299 461.5Q307 441 307 418V363H249V413Q249 424 245.5 435.5Q242 447 234.5 456.5Q227 466 214.5 472Q202 478 183 478Q163 478 149.5 471.5Q136 465 127.5 453.5Q119 442 115.5 427.5Q112 413 112 398V127Q112 111 115.5 96Q119 81 127 70Q135 59 148.5 52Q162 45 182 45Q204 45 217 52Q230 59 237 69.5Q244 80 246.5 92Q249 104 249 114V161H307V109Q307 55 274.5 23Q242 -9 179 -9ZM82 723H138L181 633L223 723H277L203 581H154Z" glyph-name="ccaron" horiz-adv-x="347" unicode="&#269;" /><glyph d="M184 -182Q170 -182 152 -180Q134 -178 116 -172V-130Q133 -134 148.5 -136.5Q164 -139 180 -139Q199 -139 210 -133Q221 -127 221 -113Q221 -99 209 -93Q197 -87 174 -85L148 -83L164 -8Q109 -4 78.5 31.5Q48 67 48 131V391Q48 460 86.5 495.5Q125 531 182 531Q213 531 236.5 522Q260 513 275.5 497.5Q291 482 299 461.5Q307 441 307 418V363H249V413Q249 424 245.5 435.5Q242 447 234.5 456.5Q227 466 214.5 472Q202 478 183 478Q163 478 149.5 471.5Q136 465 127.5 453.5Q119 442 115.5 427.5Q112 413 112 398V127Q112 111 115.5 96Q119 81 127 70Q135 59 148.5 52Q162 45 182 45Q204 45 217 52Q230 59 237 69.5Q244 80 246.5 92Q249 104 249 114V161H307V109Q307 60 280 29Q253 -2 200 -7L190 -53Q205 -54 220 -57Q235 -60 247 -66.5Q259 -73 266.5 -84Q274 -95 274 -112Q274 -143 248 -162.5Q222 -182 184 -182Z" glyph-name="ccedilla" horiz-adv-x="347" unicode="&#231;" /><glyph d="M179 -9Q117 -9 82.5 27Q48 63 48 131V391Q48 460 86.5 495.5Q125 531 182 531Q213 531 236.5 522Q260 513 275.5 497.5Q291 482 299 461.5Q307 441 307 418V363H249V413Q249 424 245.5 435.5Q242 447 234.5 456.5Q227 466 214.5 472Q202 478 183 478Q163 478 149.5 471.5Q136 465 127.5 453.5Q119 442 115.5 427.5Q112 413 112 398V127Q112 111 115.5 96Q119 81 127 70Q135 59 148.5 52Q162 45 182 45Q204 45 217 52Q230 59 237 69.5Q244 80 246.5 92Q249 104 249 114V161H307V109Q307 55 274.5 23Q242 -9 179 -9ZM157 722H206L278 580H222L180 670L137 580H84Z" glyph-name="ccircumflex" horiz-adv-x="347" unicode="&#265;" /><glyph d="M149 711H208V595H149ZM179 -9Q117 -9 82.5 27Q48 63 48 131V391Q48 460 86.5 495.5Q125 531 182 531Q213 531 236.5 522Q260 513 275.5 497.5Q291 482 299 461.5Q307 441 307 418V363H249V413Q249 424 245.5 435.5Q242 447 234.5 456.5Q227 466 214.5 472Q202 478 183 478Q163 478 149.5 471.5Q136 465 127.5 453.5Q119 442 115.5 427.5Q112 413 112 398V127Q112 111 115.5 96Q119 81 127 70Q135 59 148.5 52Q162 45 182 45Q204 45 217 52Q230 59 237 69.5Q244 80 246.5 92Q249 104 249 114V161H307V109Q307 55 274.5 23Q242 -9 179 -9Z" glyph-name="cdotaccent" horiz-adv-x="347" unicode="&#267;" /><glyph d="M111 -182Q97 -182 79 -180Q61 -178 43 -172V-130Q60 -134 75.5 -136.5Q91 -139 107 -139Q126 -139 137 -133Q148 -127 148 -113Q148 -99 136 -93Q124 -87 101 -85L75 -83L96 11H132L117 -53Q132 -54 147 -57Q162 -60 174 -66.5Q186 -73 193.5 -84Q201 -95 201 -112Q201 -143 175 -162.5Q149 -182 111 -182Z" glyph-name="cedilla" horiz-adv-x="252" unicode="&#184;" /><glyph d="M149 24Q97 29 69.5 64.5Q42 100 42 160V403Q42 464 71.5 498Q101 532 149 538V619H205V538Q255 530 278.5 498.5Q302 467 302 424V369H244V424Q244 435 241 446.5Q238 458 230 467Q222 476 209 482Q196 488 177 488Q157 488 143.5 481.5Q130 475 122 464Q114 453 110.5 438.5Q107 424 107 409V157Q107 141 110.5 126Q114 111 122 99Q130 87 143.5 80Q157 73 177 73Q199 73 212 80Q225 87 232 97.5Q239 108 241.5 120.5Q244 133 244 143V202H302V138Q302 93 277.5 62Q253 31 205 25V-55H149Z" glyph-name="cent" horiz-adv-x="342" unicode="&#162;" /><glyph d="M118 722H167L239 580H183L141 670L98 580H45Z" glyph-name="circumflex" horiz-adv-x="281" unicode="&#710;" /><glyph d="M49 513H113V404H49ZM49 109H113V0H49Z" glyph-name="colon" horiz-adv-x="161" unicode=":" /><glyph d="M71 4H49V109H113V8L86 -99H51Z" glyph-name="comma" horiz-adv-x="161" unicode="," /><glyph d="M57 1H38V78H89V4L69 -71H42Z" glyph-name="comma.dnom" horiz-adv-x="127" unicode="&#58381;" /><glyph d="M57 319H38V396H89V322L69 247H42Z" glyph-name="comma.numr" horiz-adv-x="127" unicode="&#58401;" /><glyph d="M57 -132H38V-55H89V-129L69 -204H42Z" glyph-name="comma.sub" horiz-adv-x="127" /><glyph d="M57 381H38V458H89V384L69 309H42Z" glyph-name="comma.sup" horiz-adv-x="127" /><glyph d="M52 -38H116L94 -175H48Z" glyph-name="commaaccent" horiz-adv-x="162" unicode="&#58388;" /><glyph d="M54 660 79 729H110L94 666H113V595H54Z" glyph-name="commatop" horiz-adv-x="167" /><glyph d="M346 12Q403 12 450 36Q497 60 530 104.5Q563 149 581.5 211.5Q600 274 600 352Q600 431 581.5 494Q563 557 529.5 601Q496 645 448.5 668.5Q401 692 344 692Q286 692 239 668Q192 644 159 600Q126 556 108 493Q90 430 90 352Q90 272 108.5 208.5Q127 145 160.5 101.5Q194 58 241 35Q288 12 346 12ZM344 -28Q267 -28 210.5 1.5Q154 31 116.5 82Q79 133 61 202.5Q43 272 43 352Q43 429 63 497.5Q83 566 121 617.5Q159 669 215.5 699Q272 729 344 729Q420 729 476.5 698Q533 667 570.5 615Q608 563 627 495Q646 427 646 352Q646 274 627 205Q608 136 570.5 84.5Q533 33 476.5 2.5Q420 -28 344 -28ZM345 81Q282 81 247 115.5Q212 150 212 213V483Q212 546 247.5 582.5Q283 619 346 619Q407 619 439 586Q471 553 471 503V419H413V499Q413 510 409.5 521.5Q406 533 398.5 542Q391 551 378.5 556.5Q366 562 347 562Q326 562 312.5 555Q299 548 291 537Q283 526 279.5 511Q276 496 276 480V219Q276 184 292 161Q308 138 346 138Q366 138 379 144Q392 150 399.5 159.5Q407 169 410 180Q413 191 413 202V280H471V201Q471 148 438.5 114.5Q406 81 345 81Z" glyph-name="copyright" horiz-adv-x="689" unicode="&#169;" /><glyph d="M160 265Q197 265 217.5 287.5Q238 310 238 348Q238 385 215 407.5Q192 430 161 430Q125 430 104 408Q83 386 83 345Q83 313 104 289Q125 265 160 265ZM34 246 66 278Q54 294 48.5 312Q43 330 43 348Q43 384 65 414Q60 419 48.5 430Q37 441 32 446L61 475L92 444Q123 466 159 466Q195 466 227 445L259 477L288 448L256 417Q267 401 273.5 383Q280 365 280 347Q280 329 274 312Q268 295 257 278L289 247L261 219L229 250Q213 240 196 234.5Q179 229 161 229Q126 229 94 249L63 217Z" glyph-name="currency" horiz-adv-x="321" unicode="&#164;" /><glyph d="M173 47Q190 47 204 56Q218 65 228.5 80.5Q239 96 245 116Q251 136 251 157V375Q251 395 244.5 413.5Q238 432 227.5 446.5Q217 461 203 469.5Q189 478 173 478Q145 478 128.5 461Q112 444 112 404V117Q112 87 125.5 67Q139 47 173 47ZM151 -8Q124 -8 104.5 1Q85 10 72.5 24.5Q60 39 54 58.5Q48 78 48 99V415Q48 469 80 500Q112 531 160 531Q186 531 210.5 518.5Q235 506 249 477H250V713H314V0H260L257 61H254Q245 41 232.5 28Q220 15 206 7Q192 -1 177.5 -4.5Q163 -8 151 -8Z" glyph-name="d" horiz-adv-x="376" unicode="d" /><glyph d="M156 490H40V542H156V714H213V542H328V490H213V-110H156Z" glyph-name="dagger" horiz-adv-x="368" unicode="&#8224;" /><glyph d="M156 76H40V129H156V490H40V542H156V714H213V542H328V490H213V129H328V76H213V-110H156Z" glyph-name="daggerdbl" horiz-adv-x="368" unicode="&#8225;" /><glyph d="M173 47Q190 47 204 56Q218 65 228.5 80.5Q239 96 245 116Q251 136 251 157V375Q251 395 244.5 413.5Q238 432 227.5 446.5Q217 461 203 469.5Q189 478 173 478Q145 478 128.5 461Q112 444 112 404V117Q112 87 125.5 67Q139 47 173 47ZM151 -8Q124 -8 104.5 1Q85 10 72.5 24.5Q60 39 54 58.5Q48 78 48 99V415Q48 469 80 500Q112 531 160 531Q186 531 210.5 518.5Q235 506 249 477H250V713H314V0H260L257 61H254Q245 41 232.5 28Q220 15 206 7Q192 -1 177.5 -4.5Q163 -8 151 -8ZM350 713H412L387 561H346Z" glyph-name="dcaron" horiz-adv-x="376" unicode="&#271;" /><glyph d="M173 47Q190 47 204 56Q218 65 228.5 80.5Q239 96 245 116Q251 136 251 157V375Q251 395 244.5 413.5Q238 432 227.5 446.5Q217 461 203 469.5Q189 478 173 478Q145 478 128.5 461Q112 444 112 404V117Q112 87 125.5 67Q139 47 173 47ZM158 645H250V713H314V645H350V599H314V0H260L257 61H254Q245 41 232.5 28Q220 15 206 7Q192 -1 177.5 -4.5Q163 -8 151 -8Q124 -8 104.5 1Q85 10 72.5 24.5Q60 39 54 58.5Q48 78 48 99V415Q48 469 80 500Q112 531 160 531Q186 531 210.5 518.5Q235 506 249 477H250V599H158Z" glyph-name="dcroat" horiz-adv-x="376" unicode="&#273;" /><glyph d="M115 588Q135 588 149 603Q163 618 163 638Q163 660 149.5 674.5Q136 689 115 689Q95 689 81.5 674.5Q68 660 68 638Q68 618 81.5 603Q95 588 115 588ZM115 556Q80 556 57 580Q34 604 34 638Q34 673 57 697.5Q80 722 115 722Q151 722 174.5 697.5Q198 673 198 638Q198 604 174 580Q150 556 115 556Z" glyph-name="degree" horiz-adv-x="231" unicode="&#176;" /><glyph d="M176 710H233V595H176ZM54 710H111V595H54Z" glyph-name="dieresis" horiz-adv-x="286" unicode="&#168;" /><glyph d="M173 494H231V401H173ZM54 345H348V294H54ZM173 231H231V137H173Z" glyph-name="divide" horiz-adv-x="402" unicode="&#247;" /><glyph d="M162 26Q108 33 72 70Q36 107 31 177L92 179Q97 131 118 103.5Q139 76 184 76Q205 76 220 84Q235 92 244.5 105.5Q254 119 258.5 136Q263 153 263 170Q263 201 248 235Q233 269 205 298L123 390Q91 426 68 463.5Q45 501 45 543Q45 597 75 634.5Q105 672 162 679V746H212V679Q257 673 287 642Q317 611 322 541L266 540Q262 592 239 612Q216 632 183 632Q148 632 127 611.5Q106 591 106 549Q106 518 125.5 488Q145 458 171 428L246 347Q281 305 302.5 265.5Q324 226 324 177Q324 117 295 77Q266 37 212 29V-34H162Z" glyph-name="dollar" horiz-adv-x="353" unicode="$" /><glyph d="M59 711H118V595H59Z" glyph-name="dotaccent" horiz-adv-x="176" unicode="&#729;" /><glyph d="M62 521H125V0H62Z" glyph-name="dotlessi" horiz-adv-x="187" unicode="&#305;" /><glyph d="M38 -170Q16 -170 -1 -166V-115H22Q45 -115 54 -102Q63 -89 63 -65V521H126V-74Q126 -117 104 -143.5Q82 -170 38 -170Z" glyph-name="dotlessj" horiz-adv-x="188" unicode="&#567;" /><glyph d="M248 295V397Q248 412 245 426Q242 440 234 451.5Q226 463 213 470Q200 477 180 477Q161 477 148 470Q135 463 127 451.5Q119 440 115.5 425.5Q112 411 112 396V295ZM189 -9Q123 -9 85.5 26Q48 61 48 136V384Q48 454 85.5 492.5Q123 531 184 531Q246 531 276.5 493Q307 455 307 394V244H112V146Q112 97 131 71.5Q150 46 200 46Q225 46 247.5 53Q270 60 287 68L303 20Q280 6 250.5 -1.5Q221 -9 189 -9Z" glyph-name="e" horiz-adv-x="350" unicode="e" /><glyph d="M248 295V397Q248 412 245 426Q242 440 234 451.5Q226 463 213 470Q200 477 180 477Q161 477 148 470Q135 463 127 451.5Q119 440 115.5 425.5Q112 411 112 396V295ZM189 -9Q123 -9 85.5 26Q48 61 48 136V384Q48 454 85.5 492.5Q123 531 184 531Q246 531 276.5 493Q307 455 307 394V244H112V146Q112 97 131 71.5Q150 46 200 46Q225 46 247.5 53Q270 60 287 68L303 20Q280 6 250.5 -1.5Q221 -9 189 -9ZM222 720H293L204 580H153Z" glyph-name="eacute" horiz-adv-x="350" unicode="&#233;" /><glyph d="M182 584Q130 584 102 615Q74 646 73 703H121Q123 688 126.5 674.5Q130 661 136.5 650.5Q143 640 155 633.5Q167 627 185 627Q216 627 229.5 648.5Q243 670 244 703H291Q289 641 257.5 612.5Q226 584 182 584ZM248 295V397Q248 412 245 426Q242 440 234 451.5Q226 463 213 470Q200 477 180 477Q161 477 148 470Q135 463 127 451.5Q119 440 115.5 425.5Q112 411 112 396V295ZM189 -9Q123 -9 85.5 26Q48 61 48 136V384Q48 454 85.5 492.5Q123 531 184 531Q246 531 276.5 493Q307 455 307 394V244H112V146Q112 97 131 71.5Q150 46 200 46Q225 46 247.5 53Q270 60 287 68L303 20Q280 6 250.5 -1.5Q221 -9 189 -9Z" glyph-name="ebreve" horiz-adv-x="350" unicode="&#277;" /><glyph d="M248 295V397Q248 412 245 426Q242 440 234 451.5Q226 463 213 470Q200 477 180 477Q161 477 148 470Q135 463 127 451.5Q119 440 115.5 425.5Q112 411 112 396V295ZM189 -9Q123 -9 85.5 26Q48 61 48 136V384Q48 454 85.5 492.5Q123 531 184 531Q246 531 276.5 493Q307 455 307 394V244H112V146Q112 97 131 71.5Q150 46 200 46Q225 46 247.5 53Q270 60 287 68L303 20Q280 6 250.5 -1.5Q221 -9 189 -9ZM77 723H133L176 633L218 723H272L198 581H149Z" glyph-name="ecaron" horiz-adv-x="350" unicode="&#283;" /><glyph d="M248 295V397Q248 412 245 426Q242 440 234 451.5Q226 463 213 470Q200 477 180 477Q161 477 148 470Q135 463 127 451.5Q119 440 115.5 425.5Q112 411 112 396V295ZM189 -9Q123 -9 85.5 26Q48 61 48 136V384Q48 454 85.5 492.5Q123 531 184 531Q246 531 276.5 493Q307 455 307 394V244H112V146Q112 97 131 71.5Q150 46 200 46Q225 46 247.5 53Q270 60 287 68L303 20Q280 6 250.5 -1.5Q221 -9 189 -9ZM166 722H215L287 580H231L189 670L146 580H93Z" glyph-name="ecircumflex" horiz-adv-x="350" unicode="&#234;" /><glyph d="M248 295V397Q248 412 245 426Q242 440 234 451.5Q226 463 213 470Q200 477 180 477Q161 477 148 470Q135 463 127 451.5Q119 440 115.5 425.5Q112 411 112 396V295ZM189 -9Q123 -9 85.5 26Q48 61 48 136V384Q48 454 85.5 492.5Q123 531 184 531Q246 531 276.5 493Q307 455 307 394V244H112V146Q112 97 131 71.5Q150 46 200 46Q225 46 247.5 53Q270 60 287 68L303 20Q280 6 250.5 -1.5Q221 -9 189 -9ZM220 710H277V595H220ZM98 710H155V595H98Z" glyph-name="edieresis" horiz-adv-x="350" unicode="&#235;" /><glyph d="M151 711H210V595H151ZM248 295V397Q248 412 245 426Q242 440 234 451.5Q226 463 213 470Q200 477 180 477Q161 477 148 470Q135 463 127 451.5Q119 440 115.5 425.5Q112 411 112 396V295ZM189 -9Q123 -9 85.5 26Q48 61 48 136V384Q48 454 85.5 492.5Q123 531 184 531Q246 531 276.5 493Q307 455 307 394V244H112V146Q112 97 131 71.5Q150 46 200 46Q225 46 247.5 53Q270 60 287 68L303 20Q280 6 250.5 -1.5Q221 -9 189 -9Z" glyph-name="edotaccent" horiz-adv-x="350" unicode="&#279;" /><glyph d="M79 720H151L220 580H169ZM248 295V397Q248 412 245 426Q242 440 234 451.5Q226 463 213 470Q200 477 180 477Q161 477 148 470Q135 463 127 451.5Q119 440 115.5 425.5Q112 411 112 396V295ZM189 -9Q123 -9 85.5 26Q48 61 48 136V384Q48 454 85.5 492.5Q123 531 184 531Q246 531 276.5 493Q307 455 307 394V244H112V146Q112 97 131 71.5Q150 46 200 46Q225 46 247.5 53Q270 60 287 68L303 20Q280 6 250.5 -1.5Q221 -9 189 -9Z" glyph-name="egrave" horiz-adv-x="350" unicode="&#232;" /><glyph d="M187 394Q221 394 240.5 418Q260 442 260 472V599Q260 631 239 650Q218 669 186 669Q154 669 133 648.5Q112 628 112 599V472Q112 440 133.5 417Q155 394 187 394ZM186 47Q225 47 243.5 69.5Q262 92 262 124V267Q262 301 240 322.5Q218 344 186 344Q152 344 130.5 322Q109 300 109 268V123Q109 93 129 70Q149 47 186 47ZM183 -8Q120 -8 81 27Q42 62 42 126V260Q42 298 60.5 326.5Q79 355 109 369Q80 383 64.5 411.5Q49 440 49 473V593Q49 626 60 650.5Q71 675 90 691.5Q109 708 134 716Q159 724 187 724Q215 724 239.5 716.5Q264 709 282.5 693.5Q301 678 312 654.5Q323 631 323 599V477Q323 440 307 412Q291 384 261 370Q290 358 309 331Q328 304 328 264V127Q328 59 287 25.5Q246 -8 183 -8Z" glyph-name="eight" horiz-adv-x="370" unicode="8" /><glyph d="M202 394Q236 394 255.5 418Q275 442 275 472V599Q275 631 254 650Q233 669 201 669Q169 669 148 648.5Q127 628 127 599V472Q127 440 148.5 417Q170 394 202 394ZM201 47Q240 47 258.5 69.5Q277 92 277 124V267Q277 301 255 322.5Q233 344 201 344Q167 344 145.5 322Q124 300 124 268V123Q124 93 144 70Q164 47 201 47ZM198 -8Q135 -8 96 27Q57 62 57 126V260Q57 298 75.5 326.5Q94 355 124 369Q95 383 79.5 411.5Q64 440 64 473V593Q64 626 75 650.5Q86 675 105 691.5Q124 708 149 716Q174 724 202 724Q230 724 254.5 716.5Q279 709 297.5 693.5Q316 678 327 654.5Q338 631 338 599V477Q338 440 322 412Q306 384 276 370Q305 358 324 331Q343 304 343 264V127Q343 59 302 25.5Q261 -8 198 -8Z" glyph-name="eight.LT" horiz-adv-x="402" unicode="&#58696;" /><glyph d="M125 221Q143 221 153.5 232.5Q164 244 164 261V323Q164 340 152.5 350Q141 360 124 360Q107 360 95.5 350Q84 340 84 323V260Q84 243 96 232Q108 221 125 221ZM125 32Q145 32 155.5 43.5Q166 55 166 73V141Q166 161 153.5 171.5Q141 182 125 182Q107 182 95 171Q83 160 83 143V72Q83 55 94 43.5Q105 32 125 32ZM124 -9Q82 -9 56.5 11.5Q31 32 31 74V137Q31 159 42.5 175Q54 191 72 201Q54 210 45 226.5Q36 243 36 262V320Q36 360 62 380.5Q88 401 125 401Q162 401 188 382Q214 363 214 322V264Q214 221 176 202Q194 194 206 178Q218 162 218 139V73Q218 32 191 11.5Q164 -9 124 -9Z" glyph-name="eight.dnom" horiz-adv-x="249" unicode="&#58378;" /><glyph d="M125 539Q143 539 153.5 550.5Q164 562 164 579V641Q164 658 152.5 668Q141 678 124 678Q107 678 95.5 668Q84 658 84 641V578Q84 561 96 550Q108 539 125 539ZM125 350Q145 350 155.5 361.5Q166 373 166 391V459Q166 479 153.5 489.5Q141 500 125 500Q107 500 95 489Q83 478 83 461V390Q83 373 94 361.5Q105 350 125 350ZM124 309Q82 309 56.5 329.5Q31 350 31 392V455Q31 477 42.5 493Q54 509 72 519Q54 528 45 544.5Q36 561 36 580V638Q36 678 62 698.5Q88 719 125 719Q162 719 188 700Q214 681 214 640V582Q214 539 176 520Q194 512 206 496Q218 480 218 457V391Q218 350 191 329.5Q164 309 124 309Z" glyph-name="eight.numr" horiz-adv-x="249" unicode="&#58398;" /><glyph d="M351 109H415V0H351ZM199 109H263V0H199ZM49 109H112V0H49Z" glyph-name="ellipsis" horiz-adv-x="463" unicode="&#8230;" /><glyph d="M89 651H275V597H89ZM248 295V397Q248 412 245 426Q242 440 234 451.5Q226 463 213 470Q200 477 180 477Q161 477 148 470Q135 463 127 451.5Q119 440 115.5 425.5Q112 411 112 396V295ZM189 -9Q123 -9 85.5 26Q48 61 48 136V384Q48 454 85.5 492.5Q123 531 184 531Q246 531 276.5 493Q307 455 307 394V244H112V146Q112 97 131 71.5Q150 46 200 46Q225 46 247.5 53Q270 60 287 68L303 20Q280 6 250.5 -1.5Q221 -9 189 -9Z" glyph-name="emacron" horiz-adv-x="350" unicode="&#275;" /><glyph d="M0 325H606V276H0Z" glyph-name="emdash" horiz-adv-x="606" unicode="&#8212;" /><glyph d="M0 325H360V276H0Z" glyph-name="endash" horiz-adv-x="360" unicode="&#8211;" /><glyph d="M237 -170Q215 -170 198 -166V-115H221Q244 -115 253 -102Q262 -89 262 -65V410Q262 477 204 477Q187 477 172.5 468Q158 459 147.5 444Q137 429 131.5 410Q126 391 126 372V0H62V521H122V464H123Q140 497 169 514Q198 531 232 531Q274 531 299.5 506Q325 481 325 439V-74Q325 -117 303 -143.5Q281 -170 237 -170Z" glyph-name="eng" horiz-adv-x="382" unicode="&#331;" /><glyph d="M248 295V397Q248 412 245 426Q242 440 234 451.5Q226 463 213 470Q200 477 180 477Q161 477 148 470Q135 463 127 451.5Q119 440 115.5 425.5Q112 411 112 396V295ZM189 -9Q123 -9 85.5 26Q48 61 48 136V384Q48 454 85.5 492.5Q123 531 184 531Q246 531 276.5 493Q307 455 307 394V244H112V146Q112 97 131 71.5Q150 46 200 46Q225 46 247.5 53Q270 60 287 68L303 20Q298 17 294 14.5Q290 12 285 10Q260 -6 249.5 -31.5Q239 -57 239 -86Q239 -109 251.5 -121Q264 -133 282 -133Q294 -133 304.5 -130Q315 -127 323 -123L341 -163Q330 -171 314 -176.5Q298 -182 272 -182Q239 -182 214.5 -163Q190 -144 190 -104Q190 -73 202 -48Q214 -23 232 -5Q221 -7 210.5 -8Q200 -9 189 -9Z" glyph-name="eogonek" horiz-adv-x="350" unicode="&#281;" /><glyph d="M51 407H350V354H51ZM51 275H350V222H51Z" glyph-name="equal" horiz-adv-x="401" unicode="=" /><glyph d="M184 45Q206 45 219.5 52Q233 59 240.5 70Q248 81 251 96Q254 111 254 126V394Q254 426 239 449.5Q224 473 186 473Q147 473 129.5 449Q112 425 112 393V123Q112 93 128.5 69Q145 45 184 45ZM48 624 129 643 94 704 156 722 192 658 265 676 282 637 214 620 298 475Q307 460 313 438.5Q319 417 319 394V132Q319 60 281.5 25.5Q244 -9 182 -9Q119 -9 83.5 25.5Q48 60 48 129V390Q48 453 83 488.5Q118 524 174 526Q176 526 184.5 525Q193 524 201 520L151 605L65 585Z" glyph-name="eth" horiz-adv-x="358" unicode="&#240;" /><glyph d="M58 109H122V0H58ZM58 444V714H121V444L112 189H69Z" glyph-name="exclam" horiz-adv-x="179" unicode="!" /><glyph d="M121 451H57V560H121ZM121 116V-154H58V116L67 371H110Z" glyph-name="exclamdown" horiz-adv-x="179" unicode="&#161;" /><glyph d="M88 468H35V519H88V626Q88 669 113.5 695.5Q139 722 184 722Q194 722 206 721.5Q218 721 229 717V667Q212 670 193 670Q176 670 163.5 658Q151 646 151 623V519H219V468H151V0H88Z" glyph-name="f" horiz-adv-x="247" unicode="f" /><glyph d="M84 468H31V519H84V626Q84 669 109.5 695.5Q135 722 180 722Q190 722 202 721.5Q214 721 225 717V667Q208 670 189 670Q172 670 159.5 658Q147 646 147 623V519H215V468H147V0H84ZM282 720H346V616H282ZM282 521H346V0H282Z" glyph-name="fi" horiz-adv-x="398" unicode="&#64257;" /><glyph d="M182 -9Q146 -9 120.5 2Q95 13 78.5 32.5Q62 52 54 78Q46 104 46 133V179H108V142Q108 103 128 76.5Q148 50 183 50Q216 50 238.5 77.5Q261 105 261 162V296Q261 348 241.5 373Q222 398 187 398Q162 398 143.5 383.5Q125 369 113 351L56 354L70 713H306V655H124Q124 654 123.5 631.5Q123 609 122 574.5Q121 540 119.5 498Q118 456 115 416Q134 434 156.5 443.5Q179 453 208 453Q256 453 290.5 420.5Q325 388 325 316V160Q325 82 286.5 36.5Q248 -9 182 -9Z" glyph-name="five" horiz-adv-x="371" unicode="5" /><glyph d="M197 -9Q161 -9 135.5 2Q110 13 93.5 32.5Q77 52 69 78Q61 104 61 133V179H123V142Q123 103 143 76.5Q163 50 198 50Q231 50 253.5 77.5Q276 105 276 162V296Q276 348 256.5 373Q237 398 202 398Q177 398 158.5 383.5Q140 369 128 351L71 354L85 713H321V655H139Q139 654 138.5 631.5Q138 609 137 574.5Q136 540 134.5 498Q133 456 130 416Q149 434 171.5 443.5Q194 453 223 453Q271 453 305.5 420.5Q340 388 340 316V160Q340 82 301.5 36.5Q263 -9 197 -9Z" glyph-name="five.LT" horiz-adv-x="402" unicode="&#58693;" /><glyph d="M122 -10Q77 -10 54.5 14Q32 38 32 75V107H82V79Q82 59 93 45.5Q104 32 123 32Q142 32 153 45.5Q164 59 164 88V159Q164 210 124 210Q111 210 100.5 202Q90 194 84 183L37 188L46 396H202V351H89Q89 349 88 329.5Q87 310 86.5 287.5Q86 265 85 245.5Q84 226 84 223Q95 236 109.5 242Q124 248 141 248Q170 248 193 229.5Q216 211 216 167V87Q216 41 189 15.5Q162 -10 122 -10Z" glyph-name="five.dnom" horiz-adv-x="248" unicode="&#58375;" /><glyph d="M122 308Q77 308 54.5 332Q32 356 32 393V425H82V397Q82 377 93 363.5Q104 350 123 350Q142 350 153 363.5Q164 377 164 406V477Q164 528 124 528Q111 528 100.5 520Q90 512 84 501L37 506L46 714H202V669H89Q89 667 88 647.5Q87 628 86.5 605.5Q86 583 85 563.5Q84 544 84 541Q95 554 109.5 560Q124 566 141 566Q170 566 193 547.5Q216 529 216 485V405Q216 359 189 333.5Q162 308 122 308Z" glyph-name="five.numr" horiz-adv-x="248" unicode="&#58395;" /><glyph d="M84 468H31V519H84V626Q84 669 109.5 695.5Q135 722 180 722Q190 722 202 721.5Q214 721 225 717V667Q208 670 189 670Q172 670 159.5 658Q147 646 147 623V519H215V468H147V0H84ZM358 -6Q318 -6 299.5 15Q281 36 281 71V713H345V87Q345 72 353 62.5Q361 53 379 53Q392 53 406 56V2Q380 -6 358 -6Z" glyph-name="fl" horiz-adv-x="430" unicode="&#64258;" /><glyph d="M45 -169Q23 -169 4 -166L7 -111Q9 -111 17.5 -111.5Q26 -112 30 -112Q55 -112 62.5 -98Q70 -84 72 -60L109 438H53L55 493H111L121 621Q125 667 152 695Q179 723 224 723Q235 723 248 721.5Q261 720 272 717L269 665Q261 667 251 667Q241 667 233 667Q214 667 201 655.5Q188 644 186 619L176 493H243L240 438H173L137 -69Q134 -113 112.5 -141Q91 -169 45 -169Z" glyph-name="florin" horiz-adv-x="277" unicode="&#402;" /><glyph d="M222 189H31V244L202 713H269L92 247H222V403L283 452V247H341V189H283V0H222Z" glyph-name="four" horiz-adv-x="377" unicode="4" /><glyph d="M237 189H46V244L217 713H284L107 247H237V403L298 452V247H356V189H298V0H237Z" glyph-name="four.LT" horiz-adv-x="402" unicode="&#58692;" /><glyph d="M137 102H20V141L124 400H178L69 144H137V220L186 259V144H221V102H186V0H137Z" glyph-name="four.dnom" horiz-adv-x="239" unicode="&#58374;" /><glyph d="M137 420H20V459L124 718H178L69 462H137V538L186 577V462H221V420H186V318H137Z" glyph-name="four.numr" horiz-adv-x="239" unicode="&#58394;" /><glyph d="M163 716H205L-75 -2H-118Z" glyph-name="fraction" horiz-adv-x="89" unicode="&#8260;" /><glyph d="M173 65Q188 65 202 73Q216 81 226.5 95Q237 109 243.5 127Q250 145 250 166V379Q250 400 243 418.5Q236 437 225 450.5Q214 464 200 472Q186 480 171 480Q143 480 127 460.5Q111 441 111 405V136Q111 123 114 110Q117 97 124 87Q131 77 143 71Q155 65 173 65ZM163 -170Q130 -170 103 -164Q76 -158 50 -146L70 -94Q95 -105 117 -110.5Q139 -116 163 -116Q250 -116 250 -23V76H248Q234 43 206.5 26.5Q179 10 153 10Q126 10 106 19.5Q86 29 73 44.5Q60 60 54 81Q48 102 48 126V411Q48 470 81.5 500.5Q115 531 160 531Q185 531 213.5 517Q242 503 254 472H255V522H314V-18Q314 -94 273 -132Q232 -170 163 -170Z" glyph-name="g" horiz-adv-x="375" unicode="g" /><glyph d="M179 584Q127 584 99 615Q71 646 70 703H118Q120 688 123.5 674.5Q127 661 133.5 650.5Q140 640 152 633.5Q164 627 182 627Q213 627 226.5 648.5Q240 670 241 703H288Q286 641 254.5 612.5Q223 584 179 584ZM173 65Q188 65 202 73Q216 81 226.5 95Q237 109 243.5 127Q250 145 250 166V379Q250 400 243 418.5Q236 437 225 450.5Q214 464 200 472Q186 480 171 480Q143 480 127 460.5Q111 441 111 405V136Q111 123 114 110Q117 97 124 87Q131 77 143 71Q155 65 173 65ZM163 -170Q130 -170 103 -164Q76 -158 50 -146L70 -94Q95 -105 117 -110.5Q139 -116 163 -116Q250 -116 250 -23V76H248Q234 43 206.5 26.5Q179 10 153 10Q126 10 106 19.5Q86 29 73 44.5Q60 60 54 81Q48 102 48 126V411Q48 470 81.5 500.5Q115 531 160 531Q185 531 213.5 517Q242 503 254 472H255V522H314V-18Q314 -94 273 -132Q232 -170 163 -170Z" glyph-name="gbreve" horiz-adv-x="375" unicode="&#287;" /><glyph d="M173 65Q188 65 202 73Q216 81 226.5 95Q237 109 243.5 127Q250 145 250 166V379Q250 400 243 418.5Q236 437 225 450.5Q214 464 200 472Q186 480 171 480Q143 480 127 460.5Q111 441 111 405V136Q111 123 114 110Q117 97 124 87Q131 77 143 71Q155 65 173 65ZM163 -170Q130 -170 103 -164Q76 -158 50 -146L70 -94Q95 -105 117 -110.5Q139 -116 163 -116Q250 -116 250 -23V76H248Q234 43 206.5 26.5Q179 10 153 10Q126 10 106 19.5Q86 29 73 44.5Q60 60 54 81Q48 102 48 126V411Q48 470 81.5 500.5Q115 531 160 531Q185 531 213.5 517Q242 503 254 472H255V522H314V-18Q314 -94 273 -132Q232 -170 163 -170ZM158 722H207L279 580H223L181 670L138 580H85Z" glyph-name="gcircumflex" horiz-adv-x="375" unicode="&#285;" /><glyph d="M144 660 169 729H200L184 666H203V595H144ZM173 65Q188 65 202 73Q216 81 226.5 95Q237 109 243.5 127Q250 145 250 166V379Q250 400 243 418.5Q236 437 225 450.5Q214 464 200 472Q186 480 171 480Q143 480 127 460.5Q111 441 111 405V136Q111 123 114 110Q117 97 124 87Q131 77 143 71Q155 65 173 65ZM163 -170Q130 -170 103 -164Q76 -158 50 -146L70 -94Q95 -105 117 -110.5Q139 -116 163 -116Q250 -116 250 -23V76H248Q234 43 206.5 26.5Q179 10 153 10Q126 10 106 19.5Q86 29 73 44.5Q60 60 54 81Q48 102 48 126V411Q48 470 81.5 500.5Q115 531 160 531Q185 531 213.5 517Q242 503 254 472H255V522H314V-18Q314 -94 273 -132Q232 -170 163 -170Z" glyph-name="gcommaaccent" horiz-adv-x="375" unicode="&#291;" /><glyph d="M148 711H207V595H148ZM173 65Q188 65 202 73Q216 81 226.5 95Q237 109 243.5 127Q250 145 250 166V379Q250 400 243 418.5Q236 437 225 450.5Q214 464 200 472Q186 480 171 480Q143 480 127 460.5Q111 441 111 405V136Q111 123 114 110Q117 97 124 87Q131 77 143 71Q155 65 173 65ZM163 -170Q130 -170 103 -164Q76 -158 50 -146L70 -94Q95 -105 117 -110.5Q139 -116 163 -116Q250 -116 250 -23V76H248Q234 43 206.5 26.5Q179 10 153 10Q126 10 106 19.5Q86 29 73 44.5Q60 60 54 81Q48 102 48 126V411Q48 470 81.5 500.5Q115 531 160 531Q185 531 213.5 517Q242 503 254 472H255V522H314V-18Q314 -94 273 -132Q232 -170 163 -170Z" glyph-name="gdotaccent" horiz-adv-x="375" unicode="&#289;" /><glyph d="M252 -5Q226 -5 207 -1Q188 3 175 10L187 61Q201 55 217.5 51.5Q234 48 245 48Q266 48 278.5 58Q291 68 298 83.5Q305 99 307.5 118.5Q310 138 310 158Q310 194 300.5 223Q291 252 275.5 274Q260 296 241 311.5Q222 327 204 335V383H212Q229 398 243.5 420Q258 442 268.5 466.5Q279 491 284.5 515.5Q290 540 290 560Q290 603 271.5 635Q253 667 217 667Q196 667 181.5 657.5Q167 648 158 633Q149 618 145 598.5Q141 579 141 559V0H78V468H25V519H78V556Q78 631 115 675.5Q152 720 221 720Q254 720 278.5 708.5Q303 697 320 676.5Q337 656 345.5 628.5Q354 601 354 570Q354 515 332.5 460Q311 405 266 369V367Q316 335 344 279.5Q372 224 372 161Q372 129 365.5 99Q359 69 344.5 46Q330 23 307.5 9Q285 -5 252 -5Z" glyph-name="germandbls" horiz-adv-x="402" unicode="&#223;" /><glyph d="M28 720H100L169 580H118Z" glyph-name="grave" horiz-adv-x="213" unicode="`" /><glyph d="M61 216 269 320 59 423 83 468 341 341V299L84 170Z" glyph-name="greater" horiz-adv-x="401" unicode="&gt;" /><glyph d="M52 143H350V93H52ZM61 250 275 354Q263 360 232 374Q201 388 167 404Q133 420 102 434.5Q71 449 59 454L82 499L342 374V334L84 206Z" glyph-name="greaterequal" horiz-adv-x="402" unicode="&#8805;" /><glyph d="M156 276 248 414 287 390 226 276 289 162 249 138ZM22 276 113 416 152 392 92 276 155 160 115 137Z" glyph-name="guillemotleft" horiz-adv-x="330" unicode="&#171;" /><glyph d="M158 161 218 277 155 392 196 416 289 278 198 137ZM24 162 84 277 22 391 61 414 155 278 63 139Z" glyph-name="guillemotright" horiz-adv-x="330" unicode="&#187;" /><glyph d="M28 276 119 416 158 392 98 276 161 160 121 137Z" glyph-name="guilsinglleft" horiz-adv-x="198" unicode="&#8249;" /><glyph d="M30 161 90 277 28 392 68 416 161 278 69 137Z" glyph-name="guilsinglright" horiz-adv-x="198" unicode="&#8250;" /><glyph d="M62 713H126V465H127Q144 499 171 515Q198 531 232 531Q274 531 299.5 506Q325 481 325 439V0H262V410Q262 477 204 477Q187 477 172.5 467.5Q158 458 147.5 442.5Q137 427 131.5 408Q126 389 126 370V0H62Z" glyph-name="h" horiz-adv-x="382" unicode="h" /><glyph d="M35 645H68V713H132V645H216V599H132V465H133Q150 499 177 515Q204 531 238 531Q280 531 305.5 506Q331 481 331 439V0H268V410Q268 477 210 477Q193 477 178.5 467.5Q164 458 153.5 442.5Q143 427 137.5 408Q132 389 132 370V0H68V599H35Z" glyph-name="hbar" horiz-adv-x="388" unicode="&#295;" /><glyph d="M62 713H126V465H127Q144 499 171 515Q198 531 232 531Q274 531 299.5 506Q325 481 325 439V0H262V410Q262 477 204 477Q187 477 172.5 467.5Q158 458 147.5 442.5Q137 427 131.5 408Q126 389 126 370V0H62ZM83 908H132L204 766H148L106 856L63 766H10Z" glyph-name="hcircumflex" horiz-adv-x="382" unicode="&#293;" /><glyph d="M214 710H276L214 583H165ZM102 710H165L103 583H54Z" glyph-name="hungarumlaut" horiz-adv-x="327" unicode="&#733;" /><glyph d="M27 327H195V270H27Z" glyph-name="hyphen" horiz-adv-x="223" unicode="-" /><glyph d="M62 720H126V616H62ZM62 521H126V0H62Z" glyph-name="i" horiz-adv-x="187" unicode="i" /><glyph d="M62 521H125V0H62ZM137 720H208L119 580H68Z" glyph-name="iacute" horiz-adv-x="187" unicode="&#237;" /><glyph d="M94 584Q42 584 14 615Q-14 646 -15 703H33Q35 688 38.5 674.5Q42 661 48.5 650.5Q55 640 67 633.5Q79 627 97 627Q128 627 141.5 648.5Q155 670 156 703H203Q201 641 169.5 612.5Q138 584 94 584ZM62 521H125V0H62Z" glyph-name="ibreve" horiz-adv-x="187" unicode="&#301;" /><glyph d="M62 521H125V0H62ZM74 722H123L195 580H139L97 670L54 580H1Z" glyph-name="icircumflex" horiz-adv-x="187" unicode="&#238;" /><glyph d="M62 521H125V0H62ZM130 710H187V595H130ZM8 710H65V595H8Z" glyph-name="idieresis" horiz-adv-x="187" unicode="&#239;" /><glyph d="M62 720H126V616H62ZM62 521H126V0H62Z" glyph-name="idotaccent" horiz-adv-x="187" /><glyph d="M-20 720H52L121 580H70ZM62 521H125V0H62Z" glyph-name="igrave" horiz-adv-x="187" unicode="&#236;" /><glyph d="M226 720H289V616H226ZM62 720H126V616H62ZM62 521H126V0H62ZM201 -170Q179 -170 162 -166V-115H185Q208 -115 217 -102Q226 -89 226 -65V521H289V-74Q289 -117 267 -143.5Q245 -170 201 -170Z" glyph-name="ij" horiz-adv-x="352" unicode="&#307;" /><glyph d="M1 651H187V597H1ZM62 521H125V0H62Z" glyph-name="imacron" horiz-adv-x="187" unicode="&#299;" /><glyph d="M462 235Q500 235 525 260.5Q550 286 550 322Q550 357 529.5 381Q509 405 467 405Q437 405 404.5 379Q372 353 341 320Q365 287 394.5 261Q424 235 462 235ZM158 237Q194 237 226 262.5Q258 288 288 321Q277 336 263.5 352Q250 368 234.5 380.5Q219 393 200.5 401Q182 409 163 409Q128 409 103 386Q78 363 78 329Q78 292 98.5 264.5Q119 237 158 237ZM461 191Q412 191 376.5 218Q341 245 312 281Q280 246 242 219Q204 192 161 192Q131 192 106 202Q81 212 64 229.5Q47 247 37.5 270.5Q28 294 28 321Q28 349 38.5 373.5Q49 398 67.5 415.5Q86 433 110.5 443Q135 453 164 453Q210 453 247 427Q284 401 316 362Q330 377 347.5 392Q365 407 384.5 419Q404 431 425 439Q446 447 469 447Q529 447 564 415Q599 383 599 327Q599 297 589 272Q579 247 560.5 229Q542 211 516.5 201Q491 191 461 191Z" glyph-name="infinity" horiz-adv-x="627" unicode="&#8734;" /><glyph d="M42 -169Q21 -169 -2 -164L2 -111Q7 -112 15.5 -112.5Q24 -113 29 -113Q53 -113 60.5 -99Q68 -85 70 -61L113 622Q115 667 141.5 695.5Q168 724 214 724Q225 724 237.5 723Q250 722 261 718L257 666Q250 668 240 668.5Q230 669 221 669Q202 669 189.5 657.5Q177 646 175 621L132 -69Q130 -112 109 -140.5Q88 -169 42 -169Z" glyph-name="integral" horiz-adv-x="279" unicode="&#8747;" /><glyph d="M62 720H126V616H62ZM62 521H126V0H115Q71 -33 71 -86Q71 -133 109 -133Q116 -133 124.5 -130.5Q133 -128 141 -124L157 -164Q146 -172 131.5 -176.5Q117 -181 99 -181Q67 -181 44 -162.5Q21 -144 21 -104Q21 -71 35 -44.5Q49 -18 68 0H62Z" glyph-name="iogonek" horiz-adv-x="187" unicode="&#303;" /><glyph d="M-30 596Q-25 630 -7.5 654Q10 678 41 678Q54 678 67.5 673.5Q81 669 94.5 664Q108 659 121.5 654.5Q135 650 148 650Q162 650 169 659Q176 668 181 685L219 677Q214 643 195.5 619Q177 595 148 595Q134 595 119.5 599.5Q105 604 91.5 609.5Q78 615 65 619.5Q52 624 42 624Q27 624 20.5 615.5Q14 607 10 589ZM62 521H125V0H62Z" glyph-name="itilde" horiz-adv-x="187" unicode="&#297;" /><glyph d="M63 720H126V616H63ZM38 -170Q16 -170 -1 -166V-115H22Q45 -115 54 -102Q63 -89 63 -65V521H126V-74Q126 -117 104 -143.5Q82 -170 38 -170Z" glyph-name="j" horiz-adv-x="188" unicode="j" /><glyph d="M70 722H119L191 580H135L93 670L50 580H-3ZM38 -170Q16 -170 -1 -166V-115H22Q45 -115 54 -102Q63 -89 63 -65V521H126V-74Q126 -117 104 -143.5Q82 -170 38 -170Z" glyph-name="jcircumflex" horiz-adv-x="188" unicode="&#309;" /><glyph d="M62 713H126V274L257 521H323L223 341L322 0H256L177 282L126 192V0H62Z" glyph-name="k" horiz-adv-x="347" unicode="k" /><glyph d="M62 713H126V274L257 521H323L223 341L322 0H256L177 282L126 192V0H62ZM160 -38H224L202 -175H156Z" glyph-name="kcommaaccent" horiz-adv-x="347" unicode="&#311;" /><glyph d="M62 521H126V274L257 521H323L223 341L322 0H256L177 282L126 192V0H62Z" glyph-name="kgreenlandic" horiz-adv-x="347" unicode="&#312;" /><glyph d="M137 -6Q97 -6 78.5 15Q60 36 60 71V713H124V87Q124 72 132 62.5Q140 53 158 53Q171 53 185 56V2Q159 -6 137 -6Z" glyph-name="l" horiz-adv-x="206" unicode="l" /><glyph d="M137 -6Q97 -6 78.5 15Q60 36 60 71V713H124V87Q124 72 132 62.5Q140 53 158 53Q171 53 185 56V2Q159 -6 137 -6ZM136 906H207L118 766H67Z" glyph-name="lacute" horiz-adv-x="206" unicode="&#314;" /><glyph d="M137 -6Q97 -6 78.5 15Q60 36 60 71V713H124V87Q124 72 132 62.5Q140 53 158 53Q171 53 185 56V2Q159 -6 137 -6ZM160 713H222L197 561H156Z" glyph-name="lcaron" horiz-adv-x="206" unicode="&#318;" /><glyph d="M137 -6Q97 -6 78.5 15Q60 36 60 71V713H124V87Q124 72 132 62.5Q140 53 158 53Q171 53 185 56V2Q159 -6 137 -6ZM74 -38H138L116 -175H70Z" glyph-name="lcommaaccent" horiz-adv-x="206" unicode="&#316;" /><glyph d="M185 440H245V336H185ZM137 -6Q97 -6 78.5 15Q60 36 60 71V713H124V87Q124 72 132 62.5Q140 53 158 53Q171 53 185 56V2Q159 -6 137 -6Z" glyph-name="ldot" horiz-adv-x="250" unicode="&#320;" /><glyph d="M59 299 60 340 318 468 341 422 131 320 340 215 316 170Z" glyph-name="less" horiz-adv-x="401" unicode="&lt;" /><glyph d="M52 143H349V93H52ZM60 334V374L320 499L342 454L127 354L340 250L317 206Z" glyph-name="lessequal" horiz-adv-x="402" unicode="&#8804;" /><glyph d="M318 287H32V335H369V179H318Z" glyph-name="logicalnot" horiz-adv-x="407" unicode="&#172;" /><glyph d="M300 344 192 634 91 348 196 73ZM34 339V354L171 714H217L355 354V339L217 -2H171Z" glyph-name="lozenge" horiz-adv-x="389" unicode="&#9674;" /><glyph d="M22 318 62 370V713H126V455L176 521V453L126 387V87Q126 72 134 62.5Q142 53 160 53Q173 53 187 56V2Q161 -6 139 -6Q99 -6 80.5 15Q62 36 62 71V302L22 250Z" glyph-name="lslash" horiz-adv-x="208" unicode="&#322;" /><glyph d="M62 521H122V464H123Q140 498 169 514.5Q198 531 232 531Q267 531 290.5 513Q314 495 322 465H323Q340 498 369.5 514.5Q399 531 433 531Q474 531 500 506Q526 481 526 439V0H463V410Q463 477 404 477Q387 477 373 468.5Q359 460 348.5 446.5Q338 433 332 416Q326 399 326 381V0H262V412Q260 477 204 477Q187 477 172.5 468Q158 459 147.5 444Q137 429 131.5 410Q126 391 126 372V0H62Z" glyph-name="m" horiz-adv-x="583" unicode="m" /><glyph d="M59 651H245V597H59Z" glyph-name="macron" horiz-adv-x="304" unicode="&#175;" /><glyph d="M53 345H349V294H53Z" glyph-name="minus" horiz-adv-x="402" unicode="&#8722;" /><glyph d="M51 520H117V113Q117 79 134.5 63Q152 47 181 47Q196 47 210 53Q224 59 235 71Q246 83 253 101.5Q260 120 260 144V520H327V123Q327 101 332.5 86Q338 71 358 64V-2Q329 4 308 21Q287 38 281 67Q268 32 243 11Q218 -10 181 -10Q154 -10 132.5 2.5Q111 15 101 41H99L117 -168L51 -178Z" glyph-name="mu" horiz-adv-x="383" unicode="&#181;" /><glyph d="M57 209 167 321Q159 328 143.5 343.5Q128 359 111 376.5Q94 394 78.5 409.5Q63 425 56 432L90 467L202 356L312 467L346 432L236 322Q243 314 258.5 298Q274 282 291 265Q308 248 323 232.5Q338 217 346 210L312 175L202 286Q194 278 178.5 262.5Q163 247 146 230Q129 213 113.5 197Q98 181 90 173Z" glyph-name="multiply" horiz-adv-x="402" unicode="&#215;" /><glyph d="M62 521H122V464H123Q140 497 169 514Q198 531 232 531Q274 531 299.5 506Q325 481 325 439V0H262V410Q262 477 204 477Q187 477 172.5 468Q158 459 147.5 444Q137 429 131.5 410Q126 391 126 372V0H62Z" glyph-name="n" horiz-adv-x="382" unicode="n" /><glyph d="M62 521H122V464H123Q140 497 169 514Q198 531 232 531Q274 531 299.5 506Q325 481 325 439V0H262V410Q262 477 204 477Q187 477 172.5 468Q158 459 147.5 444Q137 429 131.5 410Q126 391 126 372V0H62ZM246 719H317L228 579H177Z" glyph-name="nacute" horiz-adv-x="382" unicode="&#324;" /><glyph d="M62 521H122V464H123Q140 497 169 514Q198 531 232 531Q274 531 299.5 506Q325 481 325 439V0H262V410Q262 477 204 477Q187 477 172.5 468Q158 459 147.5 444Q137 429 131.5 410Q126 391 126 372V0H62ZM93 723H149L192 633L234 723H288L214 581H165Z" glyph-name="ncaron" horiz-adv-x="382" unicode="&#328;" /><glyph d="M62 521H122V464H123Q140 497 169 514Q198 531 232 531Q274 531 299.5 506Q325 481 325 439V0H262V410Q262 477 204 477Q187 477 172.5 468Q158 459 147.5 444Q137 429 131.5 410Q126 391 126 372V0H62ZM163 -38H227L205 -175H159Z" glyph-name="ncommaaccent" horiz-adv-x="382" unicode="&#326;" /><glyph d="M180 331Q196 331 210.5 338Q225 345 236 356.5Q247 368 254 383Q261 398 261 415V589Q261 602 256.5 616.5Q252 631 243 643Q234 655 219.5 662.5Q205 670 186 670Q165 670 151 662Q137 654 128 641.5Q119 629 115.5 614.5Q112 600 112 587V404Q112 369 131 350Q150 331 180 331ZM186 -9Q123 -9 87.5 26.5Q52 62 52 120V177H114V129Q114 93 132.5 71Q151 49 186 49Q223 49 242 74.5Q261 100 261 136V333Q244 305 217 292.5Q190 280 163 280Q111 280 79 310Q47 340 47 395V584Q47 651 87 687.5Q127 724 190 724Q256 724 292 684Q328 644 328 580V147Q328 72 288 31.5Q248 -9 186 -9Z" glyph-name="nine" horiz-adv-x="376" unicode="9" /><glyph d="M193 331Q209 331 223.5 338Q238 345 249 356.5Q260 368 267 383Q274 398 274 415V589Q274 602 269.5 616.5Q265 631 256 643Q247 655 232.5 662.5Q218 670 199 670Q178 670 164 662Q150 654 141 641.5Q132 629 128.5 614.5Q125 600 125 587V404Q125 369 144 350Q163 331 193 331ZM199 -9Q136 -9 100.5 26.5Q65 62 65 120V177H127V129Q127 93 145.5 71Q164 49 199 49Q236 49 255 74.5Q274 100 274 136V333Q257 305 230 292.5Q203 280 176 280Q124 280 92 310Q60 340 60 395V584Q60 651 100 687.5Q140 724 203 724Q269 724 305 684Q341 644 341 580V147Q341 72 301 31.5Q261 -9 199 -9Z" glyph-name="nine.LT" horiz-adv-x="402" unicode="&#58697;" /><glyph d="M120 187Q137 187 150 200Q163 213 164 231V317Q164 333 154 346.5Q144 360 122 360Q101 360 92 346Q83 332 83 316V225Q83 206 94 196.5Q105 187 120 187ZM122 -10Q81 -10 58 12.5Q35 35 35 71V103H83V75Q83 55 94 44Q105 33 125 33Q144 33 154 46Q164 59 164 79V179Q153 165 136 157.5Q119 150 102 150Q70 150 51 169.5Q32 189 32 221V315Q32 356 58 378.5Q84 401 125 401Q167 401 191.5 377.5Q216 354 216 314V84Q216 37 188.5 13.5Q161 -10 122 -10Z" glyph-name="nine.dnom" horiz-adv-x="248" unicode="&#58379;" /><glyph d="M120 505Q137 505 150 518Q163 531 164 549V635Q164 651 154 664.5Q144 678 122 678Q101 678 92 664Q83 650 83 634V543Q83 524 94 514.5Q105 505 120 505ZM122 308Q81 308 58 330.5Q35 353 35 389V421H83V393Q83 373 94 362Q105 351 125 351Q144 351 154 364Q164 377 164 397V497Q153 483 136 475.5Q119 468 102 468Q70 468 51 487.5Q32 507 32 539V633Q32 674 58 696.5Q84 719 125 719Q167 719 191.5 695.5Q216 672 216 632V402Q216 355 188.5 331.5Q161 308 122 308Z" glyph-name="nine.numr" horiz-adv-x="248" unicode="&#58399;" /><glyph glyph-name="nonmarkingreturn" horiz-adv-x="111" /><glyph d="M130 143 155 222H52V273H171Q173 278 177 289.5Q181 301 185.5 314Q190 327 193.5 338.5Q197 350 199 355H52V405H216Q217 408 221 419.5Q225 431 229 444Q233 457 236.5 468.5Q240 480 242 484L286 473L264 405H350V355H247Q245 350 241 338.5Q237 327 232.5 314Q228 301 224 289.5Q220 278 218 273H350V222H202L173 133Z" glyph-name="notequal" horiz-adv-x="402" unicode="&#8800;" /><glyph d="M78 596Q83 630 100.5 654Q118 678 149 678Q162 678 175.5 673.5Q189 669 202.5 664Q216 659 229.5 654.5Q243 650 256 650Q270 650 277 659Q284 668 289 685L327 677Q322 643 303.5 619Q285 595 256 595Q242 595 227.5 599.5Q213 604 199.5 609.5Q186 615 173 619.5Q160 624 150 624Q135 624 128.5 615.5Q122 607 118 589ZM62 521H122V464H123Q140 497 169 514Q198 531 232 531Q274 531 299.5 506Q325 481 325 439V0H262V410Q262 477 204 477Q187 477 172.5 468Q158 459 147.5 444Q137 429 131.5 410Q126 391 126 372V0H62Z" glyph-name="ntilde" horiz-adv-x="382" unicode="&#241;" /><glyph d="M241 243 267 482H169L143 243ZM92 197H26L30 243H96L123 482H54L58 528H126L148 716H192L172 528H271L290 716H335L315 528H382L378 482H312L286 243H354L351 197H282L262 -2H216L236 197H138L119 -2H73Z" glyph-name="numbersign" horiz-adv-x="404" unicode="#" /><glyph d="M238 243 265 482H166L140 243ZM90 197H25L30 243H94L120 482H54L58 528H124L145 716H190L170 528H268L288 716H333L313 528H378L374 482H310L284 243H349L346 197H279L260 -2H214L234 197H135L116 -2H70Z" glyph-name="numbersign.LP" horiz-adv-x="399" unicode="&#58675;" /><glyph d="M184 45Q205 45 219 52Q233 59 241 71Q249 83 252 98Q255 113 255 129V397Q255 429 238 453.5Q221 478 183 478Q144 478 128 453Q112 428 112 396V129Q112 113 116 98Q120 83 128.5 71Q137 59 150.5 52Q164 45 184 45ZM183 -9Q120 -9 84 27Q48 63 48 132V391Q48 425 58.5 451Q69 477 87.5 495Q106 513 130.5 522Q155 531 184 531Q243 531 281 497Q319 463 319 396V134Q319 61 280.5 26Q242 -9 183 -9Z" glyph-name="o" horiz-adv-x="367" unicode="o" /><glyph d="M184 45Q205 45 219 52Q233 59 241 71Q249 83 252 98Q255 113 255 129V397Q255 429 238 453.5Q221 478 183 478Q144 478 128 453Q112 428 112 396V129Q112 113 116 98Q120 83 128.5 71Q137 59 150.5 52Q164 45 184 45ZM183 -9Q120 -9 84 27Q48 63 48 132V391Q48 425 58.5 451Q69 477 87.5 495Q106 513 130.5 522Q155 531 184 531Q243 531 281 497Q319 463 319 396V134Q319 61 280.5 26Q242 -9 183 -9ZM225 720H296L207 580H156Z" glyph-name="oacute" horiz-adv-x="367" unicode="&#243;" /><glyph d="M183 584Q131 584 103 615Q75 646 74 703H122Q124 688 127.5 674.5Q131 661 137.5 650.5Q144 640 156 633.5Q168 627 186 627Q217 627 230.5 648.5Q244 670 245 703H292Q290 641 258.5 612.5Q227 584 183 584ZM184 45Q205 45 219 52Q233 59 241 71Q249 83 252 98Q255 113 255 129V397Q255 429 238 453.5Q221 478 183 478Q144 478 128 453Q112 428 112 396V129Q112 113 116 98Q120 83 128.5 71Q137 59 150.5 52Q164 45 184 45ZM183 -9Q120 -9 84 27Q48 63 48 132V391Q48 425 58.5 451Q69 477 87.5 495Q106 513 130.5 522Q155 531 184 531Q243 531 281 497Q319 463 319 396V134Q319 61 280.5 26Q242 -9 183 -9Z" glyph-name="obreve" horiz-adv-x="367" unicode="&#335;" /><glyph d="M184 45Q205 45 219 52Q233 59 241 71Q249 83 252 98Q255 113 255 129V397Q255 429 238 453.5Q221 478 183 478Q144 478 128 453Q112 428 112 396V129Q112 113 116 98Q120 83 128.5 71Q137 59 150.5 52Q164 45 184 45ZM183 -9Q120 -9 84 27Q48 63 48 132V391Q48 425 58.5 451Q69 477 87.5 495Q106 513 130.5 522Q155 531 184 531Q243 531 281 497Q319 463 319 396V134Q319 61 280.5 26Q242 -9 183 -9ZM164 722H213L285 580H229L187 670L144 580H91Z" glyph-name="ocircumflex" horiz-adv-x="367" unicode="&#244;" /><glyph d="M184 45Q205 45 219 52Q233 59 241 71Q249 83 252 98Q255 113 255 129V397Q255 429 238 453.5Q221 478 183 478Q144 478 128 453Q112 428 112 396V129Q112 113 116 98Q120 83 128.5 71Q137 59 150.5 52Q164 45 184 45ZM183 -9Q120 -9 84 27Q48 63 48 132V391Q48 425 58.5 451Q69 477 87.5 495Q106 513 130.5 522Q155 531 184 531Q243 531 281 497Q319 463 319 396V134Q319 61 280.5 26Q242 -9 183 -9ZM219 710H276V595H219ZM97 710H154V595H97Z" glyph-name="odieresis" horiz-adv-x="367" unicode="&#246;" /><glyph d="M456 295V397Q456 412 452.5 426Q449 440 441.5 451.5Q434 463 420.5 470Q407 477 388 477Q370 477 357 470Q344 463 335.5 451.5Q327 440 323.5 426Q320 412 320 397V295ZM184 45Q205 45 219 52Q233 59 241 71Q249 83 252 98Q255 113 255 129V397Q255 429 238 453.5Q221 478 183 478Q144 478 128 453Q112 428 112 396V129Q112 113 116 98Q120 83 128.5 71Q137 59 150.5 52Q164 45 184 45ZM183 -9Q120 -9 84 27Q48 63 48 132V391Q48 425 58.5 451Q69 477 87.5 495Q106 513 130.5 522Q155 531 184 531Q217 531 244 520Q271 509 289 486Q326 531 392 531Q454 531 484.5 493Q515 455 515 394V244H320V146Q320 97 339 71.5Q358 46 407 46Q433 46 455 53Q477 60 494 68L511 20Q488 6 458.5 -1.5Q429 -9 397 -9Q360 -9 332.5 1Q305 11 287 34Q269 12 242 1.5Q215 -9 183 -9Z" glyph-name="oe" horiz-adv-x="558" unicode="&#339;" /><glyph d="M133 -182Q100 -182 75 -163.5Q50 -145 50 -105Q50 -82 57.5 -62Q65 -42 76.5 -26Q88 -10 102.5 2Q117 14 131 22L154 2Q100 -28 100 -86Q100 -109 112 -121Q124 -133 143 -133Q154 -133 164.5 -130Q175 -127 183 -122L202 -163Q191 -170 175 -176Q159 -182 133 -182Z" glyph-name="ogonek" horiz-adv-x="245" unicode="&#731;" /><glyph d="M133 -182Q100 -182 75 -163Q50 -144 50 -104Q50 -81 57 -61Q64 -41 75.5 -25Q87 -9 101.5 3.5Q116 16 130 24L147 12Q122 -5 111 -30.5Q100 -56 100 -86Q100 -109 112 -121Q124 -133 143 -133Q154 -133 164.5 -130Q175 -127 183 -123L202 -163Q191 -171 175 -176.5Q159 -182 133 -182Z" glyph-name="ogonekplus" horiz-adv-x="245" /><glyph d="M70 720H142L211 580H160ZM184 45Q205 45 219 52Q233 59 241 71Q249 83 252 98Q255 113 255 129V397Q255 429 238 453.5Q221 478 183 478Q144 478 128 453Q112 428 112 396V129Q112 113 116 98Q120 83 128.5 71Q137 59 150.5 52Q164 45 184 45ZM183 -9Q120 -9 84 27Q48 63 48 132V391Q48 425 58.5 451Q69 477 87.5 495Q106 513 130.5 522Q155 531 184 531Q243 531 281 497Q319 463 319 396V134Q319 61 280.5 26Q242 -9 183 -9Z" glyph-name="ograve" horiz-adv-x="367" unicode="&#242;" /><glyph d="M184 45Q205 45 219 52Q233 59 241 71Q249 83 252 98Q255 113 255 129V397Q255 429 238 453.5Q221 478 183 478Q144 478 128 453Q112 428 112 396V129Q112 113 116 98Q120 83 128.5 71Q137 59 150.5 52Q164 45 184 45ZM183 -9Q120 -9 84 27Q48 63 48 132V391Q48 425 58.5 451Q69 477 87.5 495Q106 513 130.5 522Q155 531 184 531Q243 531 281 497Q319 463 319 396V134Q319 61 280.5 26Q242 -9 183 -9ZM261 710H323L261 583H212ZM149 710H212L150 583H101Z" glyph-name="ohungarumlaut" horiz-adv-x="367" unicode="&#337;" /><glyph d="M184 45Q205 45 219 52Q233 59 241 71Q249 83 252 98Q255 113 255 129V397Q255 429 238 453.5Q221 478 183 478Q144 478 128 453Q112 428 112 396V129Q112 113 116 98Q120 83 128.5 71Q137 59 150.5 52Q164 45 184 45ZM183 -9Q120 -9 84 27Q48 63 48 132V391Q48 425 58.5 451Q69 477 87.5 495Q106 513 130.5 522Q155 531 184 531Q243 531 281 497Q319 463 319 396V134Q319 61 280.5 26Q242 -9 183 -9ZM90 651H276V597H90Z" glyph-name="omacron" horiz-adv-x="367" unicode="&#333;" /><glyph d="M100 643 42 624 34 674 125 713H165V0H100Z" glyph-name="one" horiz-adv-x="248" unicode="1" /><glyph d="M166 643 108 624 100 674 191 713H231V0H166Z" glyph-name="one.LT" horiz-adv-x="402" unicode="&#58689;" /><glyph d="M79 346 43 335 35 374 100 400H130V0H79Z" glyph-name="one.dnom" horiz-adv-x="198" unicode="&#58371;" /><glyph d="M79 664 43 653 35 692 100 718H130V318H79Z" glyph-name="one.numr" horiz-adv-x="198" unicode="&#58391;" /><glyph d="M380 716H422L142 -2H99ZM339 33 404 138Q428 182 443 219Q458 256 458 293V301Q458 324 449.5 340Q441 356 421 356Q401 356 392.5 341.5Q384 327 384 308V285H336V310Q336 351 358 376Q380 401 422 401Q465 401 487.5 374.5Q510 348 510 299Q510 243 489.5 199Q469 155 441 110L402 44H514V0H339ZM99 662 63 651 55 690 120 716H150V316H99Z" glyph-name="onehalf" horiz-adv-x="559" unicode="&#189;" /><glyph d="M388 716H430L150 -2H107ZM432 102H315V141L419 400H473L364 144H432V220L481 259V144H516V102H481V0H432ZM100 662 64 651 56 690 121 716H151V316H100Z" glyph-name="onequarter" horiz-adv-x="559" unicode="&#188;" /><glyph d="M79 726 43 715 35 754 100 780H130V380H79Z" glyph-name="onesuperior" horiz-adv-x="198" unicode="&#185;" /><glyph d="M44 361H205V315H44ZM116 434Q133 434 144 447.5Q155 461 155 478V551H130Q110 551 96 538Q82 525 82 492Q82 461 92 447.5Q102 434 116 434ZM99 395Q73 395 53 417Q33 439 33 487Q33 533 60 558.5Q87 584 129 584H155V642Q155 656 146.5 665Q138 674 121 674Q104 674 95 665.5Q86 657 86 643V613H40V642Q40 674 63 693Q86 712 125 712Q163 712 183.5 693Q204 674 204 642V472Q204 456 205 433Q206 410 207 401H161Q160 405 160 409Q159 413 159 419Q159 425 158 433Q148 412 131 403.5Q114 395 99 395Z" glyph-name="ordfeminine" horiz-adv-x="256" unicode="&#170;" /><glyph d="M46 360H207V315H46ZM125 435Q148 435 156 447.5Q164 460 164 478V628Q164 646 155.5 658Q147 670 125 670Q103 670 94.5 657.5Q86 645 86 628V478Q86 460 94.5 447.5Q103 435 125 435ZM124 396Q83 396 60 417Q37 438 37 481V627Q37 668 62.5 689Q88 710 126 710Q163 710 188 690Q213 670 213 628V480Q213 437 188 416.5Q163 396 124 396Z" glyph-name="ordmasculine" horiz-adv-x="251" unicode="&#186;" /><glyph d="M184 45Q205 45 219 52Q233 59 241 71Q249 83 252 98Q255 113 255 129V394L138 60Q156 45 184 45ZM112 129Q112 124 112.5 118.5Q113 113 114 108L236 456Q228 466 214.5 472Q201 478 183 478Q144 478 128 453Q112 428 112 396ZM65 -30 85 26Q48 63 48 132V391Q48 425 58.5 451Q69 477 87.5 495Q106 513 130.5 522Q155 531 184 531Q225 531 257 514L273 560L309 548L288 489Q319 453 319 396V134Q319 61 280.5 26Q242 -9 183 -9Q145 -9 118 3L102 -42Z" glyph-name="oslash" horiz-adv-x="367" unicode="&#248;" /><glyph d="M184 45Q205 45 219 52Q233 59 241 71Q249 83 252 98Q255 113 255 129V394L138 60Q156 45 184 45ZM112 129Q112 124 112.5 118.5Q113 113 114 108L236 456Q228 466 214.5 472Q201 478 183 478Q144 478 128 453Q112 428 112 396ZM65 -30 85 26Q48 63 48 132V391Q48 425 58.5 451Q69 477 87.5 495Q106 513 130.5 522Q155 531 184 531Q225 531 257 514L273 560L309 548L288 489Q319 453 319 396V134Q319 61 280.5 26Q242 -9 183 -9Q145 -9 118 3L102 -42Z" glyph-name="oslashacute" horiz-adv-x="367" unicode="&#511;" /><glyph d="M63 596Q68 630 85.5 654Q103 678 134 678Q147 678 160.5 673.5Q174 669 187.5 664Q201 659 214.5 654.5Q228 650 241 650Q255 650 262 659Q269 668 274 685L312 677Q307 643 288.5 619Q270 595 241 595Q227 595 212.5 599.5Q198 604 184.5 609.5Q171 615 158 619.5Q145 624 135 624Q120 624 113.5 615.5Q107 607 103 589ZM184 45Q205 45 219 52Q233 59 241 71Q249 83 252 98Q255 113 255 129V397Q255 429 238 453.5Q221 478 183 478Q144 478 128 453Q112 428 112 396V129Q112 113 116 98Q120 83 128.5 71Q137 59 150.5 52Q164 45 184 45ZM183 -9Q120 -9 84 27Q48 63 48 132V391Q48 425 58.5 451Q69 477 87.5 495Q106 513 130.5 522Q155 531 184 531Q243 531 281 497Q319 463 319 396V134Q319 61 280.5 26Q242 -9 183 -9Z" glyph-name="otilde" horiz-adv-x="367" unicode="&#245;" /><glyph d="M204 46Q233 46 248.5 63Q264 80 264 117V407Q264 436 250.5 455Q237 474 202 474Q168 474 147 445Q126 416 126 372V140Q126 100 147.5 73Q169 46 204 46ZM62 521H122V466H124Q131 483 143.5 495.5Q156 508 169.5 516Q183 524 197.5 527.5Q212 531 224 531Q251 531 271 522Q291 513 303.5 498Q316 483 322 463.5Q328 444 328 423V109Q328 55 298 23Q268 -9 217 -9Q190 -9 165 4Q140 17 127 45H126V-162H62Z" glyph-name="p" horiz-adv-x="376" unicode="p" /><glyph d="M174 250Q139 257 114 276.5Q89 296 73 325.5Q57 355 49.5 392Q42 429 42 471Q42 522 52 566.5Q62 611 82 643.5Q102 676 133.5 694.5Q165 713 209 713H392V670H340V-64H296V670H219V-64H174Z" glyph-name="paragraph" horiz-adv-x="424" unicode="&#182;" /><glyph d="M138 -172Q114 -127 96.5 -70.5Q79 -14 67.5 46Q56 106 50.5 165.5Q45 225 45 277Q45 332 50.5 391Q56 450 67.5 507.5Q79 565 96.5 620Q114 675 138 722L178 719Q161 660 147 610.5Q133 561 123.5 511Q114 461 109 404.5Q104 348 104 276Q104 157 124 47.5Q144 -62 178 -168Z" glyph-name="parenleft" horiz-adv-x="188" unicode="(" /><glyph d="M102 -72Q87 -47 75.5 -16Q64 15 56.5 48.5Q49 82 45 116Q41 150 41 181Q41 245 56 311.5Q71 378 102 430L131 428Q120 395 111.5 367.5Q103 340 97.5 311.5Q92 283 89 251.5Q86 220 86 181Q86 115 97.5 53Q109 -9 131 -69Z" glyph-name="parenleft.dnom" horiz-adv-x="144" unicode="&#58383;" /><glyph d="M102 246Q87 271 75.5 302Q64 333 56.5 366.5Q49 400 45 434Q41 468 41 499Q41 563 56 629.5Q71 696 102 748L131 746Q120 713 111.5 685.5Q103 658 97.5 629.5Q92 601 89 569.5Q86 538 86 499Q86 433 97.5 371Q109 309 131 249Z" glyph-name="parenleft.numr" horiz-adv-x="144" unicode="&#58403;" /><glyph d="M9 -168Q44 -62 63.5 47.5Q83 157 83 276Q83 348 78 404.5Q73 461 63.5 511Q54 561 40.5 610.5Q27 660 10 719L49 722Q73 675 90.5 620Q108 565 119.5 507.5Q131 450 137 391Q143 332 143 277Q143 225 137 165.5Q131 106 119.5 46Q108 -14 90.5 -70.5Q73 -127 49 -172Z" glyph-name="parenright" horiz-adv-x="188" unicode=")" /><glyph d="M17 -69Q38 -9 50 53Q62 115 62 181Q62 220 59 251.5Q56 283 50.5 311.5Q45 340 36.5 367.5Q28 395 17 428L47 430Q76 378 91.5 311.5Q107 245 107 181Q107 150 103 116Q99 82 91.5 48.5Q84 15 73 -16Q62 -47 47 -72Z" glyph-name="parenright.dnom" horiz-adv-x="144" unicode="&#58384;" /><glyph d="M17 249Q38 309 50 371Q62 433 62 499Q62 538 59 569.5Q56 601 50.5 629.5Q45 658 36.5 685.5Q28 713 17 746L47 748Q76 696 91.5 629.5Q107 563 107 499Q107 468 103 434Q99 400 91.5 366.5Q84 333 73 302Q62 271 47 246Z" glyph-name="parenright.numr" horiz-adv-x="144" unicode="&#58404;" /><glyph d="M183 45Q205 45 219 52Q233 59 240.5 70Q248 81 251 96Q254 111 254 126V394Q254 426 239 449.5Q224 473 186 473Q147 473 129.5 449Q112 425 112 393V123Q112 93 128.5 69Q145 45 183 45ZM182 -9Q119 -9 83 25.5Q47 60 47 129V390Q47 453 82 487.5Q117 522 171 525Q174 526 183.5 525Q193 524 201 520L93 704L157 720L297 478Q307 461 312.5 439Q318 417 318 392V132Q318 60 281 25.5Q244 -9 182 -9Z" glyph-name="partialdiff" horiz-adv-x="358" unicode="&#8706;" /><glyph d="M409 33Q437 33 448 50.5Q459 68 459 86V248Q459 265 447.5 282.5Q436 300 409 300Q383 300 372.5 283Q362 266 362 248V86Q362 65 372.5 49Q383 33 409 33ZM409 -10Q367 -10 340 15Q313 40 313 88V236Q313 284 340 314Q367 344 410 344Q452 344 480 317.5Q508 291 508 242V88Q508 41 479.5 15.5Q451 -10 409 -10ZM391 716H434L162 -3H116ZM135 413Q162 413 173 430Q184 447 184 466V627Q184 645 172.5 662.5Q161 680 135 680Q108 680 97 663Q86 646 86 627V466Q86 444 97 428.5Q108 413 135 413ZM135 370Q91 370 65 395.5Q39 421 39 469V621Q39 671 66 697Q93 723 135 723Q178 723 205.5 697.5Q233 672 233 621V468Q233 420 205 395Q177 370 135 370Z" glyph-name="percent" horiz-adv-x="547" unicode="%" /><glyph d="M49 109H113V0H49Z" glyph-name="period" horiz-adv-x="161" unicode="." /><glyph d="M38 78H89V0H38Z" glyph-name="period.dnom" horiz-adv-x="127" unicode="&#58382;" /><glyph d="M38 396H89V318H38Z" glyph-name="period.numr" horiz-adv-x="127" unicode="&#58402;" /><glyph d="M38 -55H89V-133H38Z" glyph-name="period.sub" horiz-adv-x="127" /><glyph d="M38 458H89V380H38Z" glyph-name="period.sup" horiz-adv-x="127" /><glyph d="M49 393H113V284H49Z" glyph-name="periodcentered" horiz-adv-x="161" unicode="&#8901;" /><glyph d="M409 33Q437 33 448 50.5Q459 68 459 86V248Q459 265 447.5 282.5Q436 300 409 300Q383 300 372.5 283Q362 266 362 248V86Q362 65 372.5 49Q383 33 409 33ZM409 -10Q367 -10 340 15Q313 40 313 88V236Q313 284 340 314Q367 344 410 344Q452 344 480 317.5Q508 291 508 242V88Q508 41 479.5 15.5Q451 -10 409 -10ZM391 716H434L162 -3H116ZM135 413Q162 413 173 430Q184 447 184 466V627Q184 645 172.5 662.5Q161 680 135 680Q108 680 97 663Q86 646 86 627V466Q86 444 97 428.5Q108 413 135 413ZM135 370Q91 370 65 395.5Q39 421 39 469V621Q39 671 66 697Q93 723 135 723Q178 723 205.5 697.5Q233 672 233 621V468Q233 420 205 395Q177 370 135 370ZM648 33Q675 33 686.5 50.5Q698 68 698 86V248Q698 265 686 282.5Q674 300 648 300Q622 300 611 283Q600 266 600 248V86Q600 65 611 49Q622 33 648 33ZM648 -10Q606 -10 579 15Q552 40 552 88V236Q552 284 579 314Q606 344 649 344Q691 344 718.5 317.5Q746 291 746 242V88Q746 41 718 15.5Q690 -10 648 -10Z" glyph-name="perthousand" horiz-adv-x="785" unicode="&#8240;" /><glyph d="M339 -4Q320 -4 303 0.5Q286 5 273 16Q260 27 252.5 45Q245 63 245 90V462H138Q135 351 130.5 231.5Q126 112 118 0H54Q63 112 68 231Q73 350 75 462H21L28 520H364V462H307V111Q307 90 313 73Q319 56 339 56Z" glyph-name="pi" horiz-adv-x="390" unicode="&#960;" /><glyph d="M177 294H51V345H177V480H226L225 345H351V294H226V159H177Z" glyph-name="plus" horiz-adv-x="402" unicode="+" /><glyph d="M52 143H350V93H52ZM177 330H51V381H177V512H226L225 381H351V330H226V202H177Z" glyph-name="plusminus" horiz-adv-x="402" unicode="&#177;" /><glyph d="M89 650H27V713H436V650H378V-133H311V650H156V-133H89Z" glyph-name="product" horiz-adv-x="463" unicode="&#8719;" /><glyph d="M175 44Q190 44 203.5 52.5Q217 61 227.5 75Q238 89 244 107.5Q250 126 250 147V377Q250 398 243.5 416.5Q237 435 226.5 449.5Q216 464 201.5 472Q187 480 171 480Q141 480 126 459.5Q111 439 111 405V119Q111 87 126.5 65.5Q142 44 175 44ZM250 49H249Q230 17 203.5 3.5Q177 -10 152 -10Q100 -10 74 22Q48 54 48 100V417Q48 468 79 499.5Q110 531 160 531Q186 531 214 517.5Q242 504 255 469H257L258 521H314V-162H250Z" glyph-name="q" horiz-adv-x="376" unicode="q" /><glyph d="M127 109H191V0H127ZM128 227Q130 284 145 321.5Q160 359 180 391Q190 407 200 424Q210 441 217 459.5Q224 478 228.5 499.5Q233 521 233 547Q233 568 230 589.5Q227 611 219 628.5Q211 646 197.5 656.5Q184 667 164 667Q134 667 115.5 641.5Q97 616 97 571V524H41V566Q41 641 73.5 682.5Q106 724 169 724Q202 724 226 711.5Q250 699 265.5 676Q281 653 289 621Q297 589 297 550Q297 519 291.5 493Q286 467 277 445Q268 423 256.5 404Q245 385 234 368Q217 339 202.5 309Q188 279 187 241V190H128Z" glyph-name="question" horiz-adv-x="334" unicode="?" /><glyph d="M212 451H148V560H212ZM211 333Q209 276 194 238.5Q179 201 159 169Q138 136 122 100.5Q106 65 106 13Q106 -8 109 -29.5Q112 -51 120 -68.5Q128 -86 141.5 -96.5Q155 -107 175 -107Q205 -107 223.5 -81.5Q242 -56 242 -11V36H298V-6Q298 -81 265.5 -122.5Q233 -164 170 -164Q137 -164 113 -151.5Q89 -139 73.5 -116Q58 -93 50 -61Q42 -29 42 10Q42 41 47.5 67Q53 93 62 115Q71 137 82.5 156Q94 175 105 192Q122 221 136.5 251Q151 281 152 319V370H211Z" glyph-name="questiondown" horiz-adv-x="336" unicode="&#191;" /><glyph d="M169 618V714H230V618L220 510H178ZM46 618V714H107V618L97 510H56Z" glyph-name="quotedbl" horiz-adv-x="276" unicode="&quot;" /><glyph d="M194 4H173V110H237V8L211 -96H177ZM69 4H48V110H112V8L86 -96H52Z" glyph-name="quotedblbase" horiz-adv-x="283" unicode="&#8222;" /><glyph d="M172 612 198 715H232L214 616H236V511H172ZM47 612 71 715H107L89 616H110V511H47Z" glyph-name="quotedblleft" horiz-adv-x="283" unicode="&#8220;" /><glyph d="M194 608H173V714H237V612L211 510H177ZM69 608H48V714H112V612L86 510H52Z" glyph-name="quotedblright" horiz-adv-x="283" unicode="&#8221;" /><glyph d="M47 612 71 715H107L89 616H110V511H47Z" glyph-name="quoteleft" horiz-adv-x="158" unicode="&#8216;" /><glyph d="M69 608H49V714H112V612L86 510H52Z" glyph-name="quoteright" horiz-adv-x="159" unicode="&#8217;" /><glyph d="M65 4 48 35 60 110 112 79 106 -26 79 -96 56 -63Z" glyph-name="quotesinglbase" horiz-adv-x="158" unicode="&#8218;" /><glyph d="M46 618V714H107V618L97 510H56Z" glyph-name="quotesingle" horiz-adv-x="153" unicode="&apos;" /><glyph d="M62 521H124V463H125Q141 498 165.5 511.5Q190 525 217 525Q223 525 229.5 525Q236 525 241 523V460Q232 461 223 461.5Q214 462 208 462Q172 462 149 441Q126 420 126 378V0H62Z" glyph-name="r" horiz-adv-x="261" unicode="r" /><glyph d="M62 521H124V463H125Q141 498 165.5 511.5Q190 525 217 525Q223 525 229.5 525Q236 525 241 523V460Q232 461 223 461.5Q214 462 208 462Q172 462 149 441Q126 420 126 378V0H62ZM178 720H249L160 580H109Z" glyph-name="racute" horiz-adv-x="261" unicode="&#341;" /><glyph d="M20 520H88L165 118H166L326 714H390L194 -2H130Z" glyph-name="radical" horiz-adv-x="402" unicode="&#8730;" /><glyph d="M62 521H124V463H125Q141 498 165.5 511.5Q190 525 217 525Q223 525 229.5 525Q236 525 241 523V460Q232 461 223 461.5Q214 462 208 462Q172 462 149 441Q126 420 126 378V0H62ZM45 723H101L144 633L186 723H240L166 581H117Z" glyph-name="rcaron" horiz-adv-x="261" unicode="&#345;" /><glyph d="M62 521H124V463H125Q141 498 165.5 511.5Q190 525 217 525Q223 525 229.5 525Q236 525 241 523V460Q232 461 223 461.5Q214 462 208 462Q172 462 149 441Q126 420 126 378V0H62ZM65 -38H129L107 -175H61Z" glyph-name="rcommaaccent" horiz-adv-x="261" unicode="&#343;" /><glyph d="M199 538Q233 538 233 585Q233 604 225 619Q217 634 198 634H175V538ZM138 667H202Q236 667 253.5 646Q271 625 271 588Q271 561 261 541.5Q251 522 233 514L278 393H237L197 507H175V393H138ZM199 346Q227 346 251 358Q275 370 293 393.5Q311 417 321.5 450.5Q332 484 332 527Q332 570 321.5 604Q311 638 292.5 662Q274 686 250 698.5Q226 711 199 711Q173 711 149.5 698.5Q126 686 108 662Q90 638 79.5 604Q69 570 69 527Q69 484 79.5 450Q90 416 108 393Q126 370 149.5 358Q173 346 199 346ZM199 314Q159 314 128.5 331Q98 348 77 377Q56 406 45 444.5Q34 483 34 527Q34 573 45.5 612Q57 651 79 679.5Q101 708 132 724.5Q163 741 202 741Q239 741 270 725Q301 709 322.5 680.5Q344 652 356 612.5Q368 573 368 527Q368 484 357 445.5Q346 407 324 377.5Q302 348 270.5 331Q239 314 199 314Z" glyph-name="registered" horiz-adv-x="394" unicode="&#174;" /><glyph d="M119 606Q139 606 150.5 618.5Q162 631 162 653Q162 673 151.5 687Q141 701 119 701Q99 701 88.5 687.5Q78 674 78 652Q78 630 89.5 618Q101 606 119 606ZM119 574Q81 574 61 597Q41 620 41 651Q41 685 62.5 709Q84 733 119 733Q157 733 177.5 710.5Q198 688 198 656Q198 621 176 597.5Q154 574 119 574Z" glyph-name="ring" horiz-adv-x="234" unicode="&#730;" /><glyph d="M119 605Q138 605 150 617.5Q162 630 162 652Q162 672 151.5 685.5Q141 699 120 699Q100 699 89.5 685.5Q79 672 79 651Q79 628 90 616.5Q101 605 119 605ZM119 574Q79 574 60 597.5Q41 621 41 649Q41 678 59 704L124 798L183 788L127 728Q162 725 180 704Q198 683 198 654Q198 620 176 597Q154 574 119 574Z" glyph-name="ringacute" horiz-adv-x="234" /><glyph d="M162 -8Q105 -8 72 26Q39 60 34 123H96Q101 85 115.5 64.5Q130 44 163 44Q190 44 206 60Q222 76 222 110Q222 141 202 170Q182 199 160 224L112 280Q83 314 65.5 345.5Q48 377 48 415Q48 438 55 459Q62 480 77 495.5Q92 511 114.5 520.5Q137 530 168 530Q217 530 249 499.5Q281 469 284 403L226 401Q221 443 207 461Q193 479 165 479Q136 479 121.5 462.5Q107 446 107 421Q107 401 118 379.5Q129 358 154 330L212 263Q248 219 265.5 183.5Q283 148 283 113Q283 90 276 68.5Q269 47 254 30Q239 13 216 2.5Q193 -8 162 -8Z" glyph-name="s" horiz-adv-x="315" unicode="s" /><glyph d="M162 -8Q105 -8 72 26Q39 60 34 123H96Q101 85 115.5 64.5Q130 44 163 44Q190 44 206 60Q222 76 222 110Q222 141 202 170Q182 199 160 224L112 280Q83 314 65.5 345.5Q48 377 48 415Q48 438 55 459Q62 480 77 495.5Q92 511 114.5 520.5Q137 530 168 530Q217 530 249 499.5Q281 469 284 403L226 401Q221 443 207 461Q193 479 165 479Q136 479 121.5 462.5Q107 446 107 421Q107 401 118 379.5Q129 358 154 330L212 263Q248 219 265.5 183.5Q283 148 283 113Q283 90 276 68.5Q269 47 254 30Q239 13 216 2.5Q193 -8 162 -8ZM204 720H275L186 580H135Z" glyph-name="sacute" horiz-adv-x="315" unicode="&#347;" /><glyph d="M162 -8Q105 -8 72 26Q39 60 34 123H96Q101 85 115.5 64.5Q130 44 163 44Q190 44 206 60Q222 76 222 110Q222 141 202 170Q182 199 160 224L112 280Q83 314 65.5 345.5Q48 377 48 415Q48 438 55 459Q62 480 77 495.5Q92 511 114.5 520.5Q137 530 168 530Q217 530 249 499.5Q281 469 284 403L226 401Q221 443 207 461Q193 479 165 479Q136 479 121.5 462.5Q107 446 107 421Q107 401 118 379.5Q129 358 154 330L212 263Q248 219 265.5 183.5Q283 148 283 113Q283 90 276 68.5Q269 47 254 30Q239 13 216 2.5Q193 -8 162 -8ZM61 723H117L160 633L202 723H256L182 581H133Z" glyph-name="scaron" horiz-adv-x="315" unicode="&#353;" /><glyph d="M169 -182Q155 -182 137 -180Q119 -178 101 -172V-130Q118 -134 133.5 -136.5Q149 -139 165 -139Q184 -139 195 -133Q206 -127 206 -113Q206 -99 194 -93Q182 -87 159 -85L133 -83L150 -7Q98 -3 68 30Q38 63 34 123H96Q101 85 115.5 64.5Q130 44 163 44Q190 44 206 60Q222 76 222 110Q222 141 202 170Q182 199 160 224L112 280Q83 314 65.5 345.5Q48 377 48 415Q48 438 55 459Q62 480 77 495.5Q92 511 114.5 520.5Q137 530 168 530Q217 530 249 499.5Q281 469 284 403L226 401Q221 443 207 461Q193 479 165 479Q136 479 121.5 462.5Q107 446 107 421Q107 401 118 379.5Q129 358 154 330L212 263Q248 219 265.5 183.5Q283 148 283 113Q283 71 259.5 36.5Q236 2 186 -6L175 -53Q190 -54 205 -57Q220 -60 232 -66.5Q244 -73 251.5 -84Q259 -95 259 -112Q259 -143 233 -162.5Q207 -182 169 -182Z" glyph-name="scedilla" horiz-adv-x="315" unicode="&#351;" /><glyph d="M162 -8Q105 -8 72 26Q39 60 34 123H96Q101 85 115.5 64.5Q130 44 163 44Q190 44 206 60Q222 76 222 110Q222 141 202 170Q182 199 160 224L112 280Q83 314 65.5 345.5Q48 377 48 415Q48 438 55 459Q62 480 77 495.5Q92 511 114.5 520.5Q137 530 168 530Q217 530 249 499.5Q281 469 284 403L226 401Q221 443 207 461Q193 479 165 479Q136 479 121.5 462.5Q107 446 107 421Q107 401 118 379.5Q129 358 154 330L212 263Q248 219 265.5 183.5Q283 148 283 113Q283 90 276 68.5Q269 47 254 30Q239 13 216 2.5Q193 -8 162 -8ZM134 722H183L255 580H199L157 670L114 580H61Z" glyph-name="scircumflex" horiz-adv-x="315" unicode="&#349;" /><glyph d="M162 -8Q105 -8 72 26Q39 60 34 123H96Q101 85 115.5 64.5Q130 44 163 44Q190 44 206 60Q222 76 222 110Q222 141 202 170Q182 199 160 224L112 280Q83 314 65.5 345.5Q48 377 48 415Q48 438 55 459Q62 480 77 495.5Q92 511 114.5 520.5Q137 530 168 530Q217 530 249 499.5Q281 469 284 403L226 401Q221 443 207 461Q193 479 165 479Q136 479 121.5 462.5Q107 446 107 421Q107 401 118 379.5Q129 358 154 330L212 263Q248 219 265.5 183.5Q283 148 283 113Q283 90 276 68.5Q269 47 254 30Q239 13 216 2.5Q193 -8 162 -8ZM141 -38H205L183 -175H137Z" glyph-name="scommaaccent" horiz-adv-x="315" unicode="&#537;" /><glyph d="M211 246Q236 258 252 280.5Q268 303 268 335Q268 365 249 383.5Q230 402 209 412Q195 419 184 424Q174 429 165.5 432.5Q157 436 156 437Q136 426 118 403Q100 380 100 347Q100 330 106 317.5Q112 305 120.5 295.5Q129 286 139.5 279.5Q150 273 159 270ZM181 -41Q157 -41 131.5 -34.5Q106 -28 85.5 -12Q65 4 52 30Q39 56 39 94V125H93V102Q93 57 118 32Q143 7 185 7Q229 7 249.5 34Q270 61 270 96Q270 117 264 132Q258 147 248 158.5Q238 170 225.5 178Q213 186 200 192Q192 196 183 200Q175 204 164.5 207.5Q154 211 142 216Q123 224 105.5 235.5Q88 247 74.5 262.5Q61 278 52.5 298.5Q44 319 44 345Q44 379 62 410Q80 441 112 465Q77 488 61.5 516Q46 544 46 584Q46 611 54.5 635.5Q63 660 80 678Q97 696 123 706.5Q149 717 184 717Q247 717 282 683Q317 649 317 589V557H265V584Q265 623 243.5 646Q222 669 183 669Q147 669 124.5 648Q102 627 102 588Q102 553 121.5 530.5Q141 508 164 496L226 467Q243 458 260.5 447Q278 436 292.5 420.5Q307 405 316 385Q325 365 325 340Q325 304 308 273Q291 242 258 220Q293 201 312 170Q331 139 329 99Q329 37 288.5 -2Q248 -41 181 -41Z" glyph-name="section" horiz-adv-x="365" unicode="&#167;" /><glyph d="M49 513H113V404H49ZM71 4H49V109H113V8L86 -99H51Z" glyph-name="semicolon" horiz-adv-x="162" unicode=";" /><glyph d="M97 0Q98 104 109.5 200.5Q121 297 140.5 381Q160 465 185 534.5Q210 604 237 654H35V713H306V663Q268 598 241.5 518Q215 438 197.5 351Q180 264 171.5 174.5Q163 85 162 0Z" glyph-name="seven" horiz-adv-x="334" unicode="7" /><glyph d="M127 0Q128 104 139.5 200.5Q151 297 170.5 381Q190 465 215 534.5Q240 604 267 654H65V713H336V663Q298 598 271.5 518Q245 438 227.5 351Q210 264 201.5 174.5Q193 85 192 0Z" glyph-name="seven.LT" horiz-adv-x="402" unicode="&#58695;" /><glyph d="M63 0Q63 55 71 106Q79 157 91.5 202Q104 247 119.5 284.5Q135 322 152 351H25V396H206V357Q184 323 167 280.5Q150 238 139 191.5Q128 145 122 96.5Q116 48 116 0Z" glyph-name="seven.dnom" horiz-adv-x="229" unicode="&#58377;" /><glyph d="M63 318Q63 373 71 424Q79 475 91.5 520Q104 565 119.5 602.5Q135 640 152 669H25V714H206V675Q184 641 167 598.5Q150 556 139 509.5Q128 463 122 414.5Q116 366 116 318Z" glyph-name="seven.numr" horiz-adv-x="229" unicode="&#58397;" /><glyph d="M190 48Q211 48 225 55.5Q239 63 248 74.5Q257 86 260.5 100Q264 114 264 128V316Q264 351 245.5 368Q227 385 196 385Q177 385 162 377.5Q147 370 136.5 358Q126 346 120.5 330.5Q115 315 115 299V129Q115 115 119.5 100.5Q124 86 133 74.5Q142 63 156 55.5Q170 48 190 48ZM186 -9Q120 -9 84 31.5Q48 72 48 137V581Q48 617 59 644Q70 671 89.5 688.5Q109 706 135.5 715Q162 724 192 724Q255 724 289.5 689Q324 654 324 601V543H262V593Q262 622 245 645Q228 668 190 668Q169 668 155 660.5Q141 653 132 641Q123 629 119 614Q115 599 115 584V388Q132 414 159.5 426Q187 438 215 438Q266 438 298 408.5Q330 379 330 323V130Q330 64 290 27.5Q250 -9 186 -9Z" glyph-name="six" horiz-adv-x="377" unicode="6" /><glyph d="M201 48Q222 48 236 55.5Q250 63 259 74.5Q268 86 271.5 100Q275 114 275 128V316Q275 351 256.5 368Q238 385 207 385Q188 385 173 377.5Q158 370 147.5 358Q137 346 131.5 330.5Q126 315 126 299V129Q126 115 130.5 100.5Q135 86 144 74.5Q153 63 167 55.5Q181 48 201 48ZM197 -9Q131 -9 95 31.5Q59 72 59 137V581Q59 617 70 644Q81 671 100.5 688.5Q120 706 146.5 715Q173 724 203 724Q266 724 300.5 689Q335 654 335 601V543H273V593Q273 622 256 645Q239 668 201 668Q180 668 166 660.5Q152 653 143 641Q134 629 130 614Q126 599 126 584V388Q143 414 170.5 426Q198 438 226 438Q277 438 309 408.5Q341 379 341 323V130Q341 64 301 27.5Q261 -9 197 -9Z" glyph-name="six.LT" horiz-adv-x="402" unicode="&#58694;" /><glyph d="M125 32Q147 32 156 46Q165 60 165 76V167Q165 187 154 196Q143 205 127 205Q111 205 98 192Q85 179 85 161V75Q85 59 95 45.5Q105 32 125 32ZM123 -10Q81 -10 56.5 14Q32 38 32 78V310Q32 355 59 378Q86 401 126 401Q167 401 190 379Q213 357 213 322V289H164V318Q164 335 153.5 347Q143 359 123 359Q103 359 94 345Q85 331 85 314V212Q96 227 112 234Q128 241 144 241Q177 241 196.5 222Q216 203 216 171V77Q216 36 190 13Q164 -10 123 -10Z" glyph-name="six.dnom" horiz-adv-x="248" unicode="&#58376;" /><glyph d="M125 350Q147 350 156 364Q165 378 165 394V485Q165 505 154 514Q143 523 127 523Q111 523 98 510Q85 497 85 479V393Q85 377 95 363.5Q105 350 125 350ZM123 308Q81 308 56.5 332Q32 356 32 396V628Q32 673 59 696Q86 719 126 719Q167 719 190 697Q213 675 213 640V607H164V636Q164 653 153.5 665Q143 677 123 677Q103 677 94 663Q85 649 85 632V530Q96 545 112 552Q128 559 144 559Q177 559 196.5 540Q216 521 216 489V395Q216 354 190 331Q164 308 123 308Z" glyph-name="six.numr" horiz-adv-x="248" unicode="&#58396;" /><glyph d="M165 716H214L46 -168H-6Z" glyph-name="slash" horiz-adv-x="235" unicode="/" /><glyph glyph-name="space" horiz-adv-x="141" unicode=" " /><glyph d="M37 56H89V338H43V388H89V584Q89 621 101 647Q113 673 132.5 690Q152 707 178 715Q204 723 233 723Q293 723 327 691Q361 659 361 605V540H302V601Q302 636 282 652.5Q262 669 230 669Q217 669 203.5 665.5Q190 662 179.5 653Q169 644 162.5 628Q156 612 156 588V388H284V338H156V56H367L356 0H37Z" glyph-name="sterling" horiz-adv-x="400" unicode="&#163;" /><glyph d="M35 -82 223 304 33 664V714H318V651H118L292 322V288L116 -71H319V-133H35Z" glyph-name="summation" horiz-adv-x="352" unicode="&#8721;" /><glyph d="M164 -6Q133 -6 109 10Q85 26 85 68V466H31V519H85V638H147V519H231V466H147V86Q147 49 179 49Q190 49 202 51.5Q214 54 223 57V5Q192 -6 164 -6Z" glyph-name="t" horiz-adv-x="254" unicode="t" /><glyph d="M53 315H85V466H31V519H85V638H147V519H231V466H147V315H198V271H147V86Q147 49 179 49Q190 49 202 51.5Q214 54 223 57V5Q192 -6 164 -6Q133 -6 109 10Q85 26 85 68V271H53Z" glyph-name="tbar" horiz-adv-x="254" unicode="&#359;" /><glyph d="M164 -6Q133 -6 109 10Q85 26 85 68V466H31V519H85V638H147V519H231V466H147V86Q147 49 179 49Q190 49 202 51.5Q214 54 223 57V5Q192 -6 164 -6ZM189 713H250L226 567H184Z" glyph-name="tcaron" horiz-adv-x="254" unicode="&#357;" /><glyph d="M164 -6Q133 -6 109 10Q85 26 85 68V466H31V519H85V638H147V519H231V466H147V86Q147 49 179 49Q190 49 202 51.5Q214 54 223 57V5Q192 -6 164 -6ZM104 -38H168L146 -175H100Z" glyph-name="tcommaaccent" horiz-adv-x="254" unicode="&#355;" /><glyph d="M190 45Q219 45 237 63Q255 81 255 117V407Q255 436 240 457Q225 478 191 478Q159 478 138 451.5Q117 425 117 381V133Q117 92 138 68.5Q159 45 190 45ZM53 713H116V466H118Q134 502 163.5 516.5Q193 531 218 531Q245 531 264 522Q283 513 295 498Q307 483 313 463.5Q319 444 319 423V107Q319 53 287.5 22Q256 -9 208 -9Q181 -9 156 4Q131 17 118 45H117V-162H53Z" glyph-name="thorn" horiz-adv-x="359" unicode="&#254;" /><glyph d="M173 -9Q132 -9 105.5 3.5Q79 16 62.5 37.5Q46 59 39.5 88Q33 117 33 149V178H96V146Q96 104 115 76Q134 48 171 48Q209 48 228 81.5Q247 115 247 199Q247 241 238.5 268Q230 295 216.5 310.5Q203 326 187.5 332Q172 338 157 338H112V398H157Q238 398 238 540Q238 576 232.5 600.5Q227 625 217.5 640Q208 655 194.5 661Q181 667 166 667Q132 667 115.5 643.5Q99 620 99 576V542H38V574Q38 651 73.5 687.5Q109 724 172 724Q208 724 233 709.5Q258 695 274 670Q290 645 297 613Q304 581 304 546Q304 517 300 489Q296 461 286.5 438Q277 415 261.5 398Q246 381 224 374V371Q248 363 265 345Q282 327 293 302.5Q304 278 309.5 249.5Q315 221 315 193Q315 91 274 41Q233 -9 173 -9Z" glyph-name="three" horiz-adv-x="353" unicode="3" /><glyph d="M199 -9Q158 -9 131.5 3.5Q105 16 88.5 37.5Q72 59 65.5 88Q59 117 59 149V178H122V146Q122 104 141 76Q160 48 197 48Q235 48 254 81.5Q273 115 273 199Q273 241 264.5 268Q256 295 242.5 310.5Q229 326 213.5 332Q198 338 183 338H138V398H183Q264 398 264 540Q264 576 258.5 600.5Q253 625 243.5 640Q234 655 220.5 661Q207 667 192 667Q158 667 141.5 643.5Q125 620 125 576V542H64V574Q64 651 99.5 687.5Q135 724 198 724Q234 724 259 709.5Q284 695 300 670Q316 645 323 613Q330 581 330 546Q330 517 326 489Q322 461 312.5 438Q303 415 287.5 398Q272 381 250 374V371Q274 363 291 345Q308 327 319 302.5Q330 278 335.5 249.5Q341 221 341 193Q341 91 300 41Q259 -9 199 -9Z" glyph-name="three.LT" horiz-adv-x="402" unicode="&#58691;" /><glyph d="M123 -10Q98 -10 81 -2Q64 6 53 19.5Q42 33 37 50.5Q32 68 32 88V106H81V87Q81 64 92 48.5Q103 33 123 33Q163 33 163 108Q163 128 158.5 141.5Q154 155 147 163.5Q140 172 131.5 175.5Q123 179 116 179H88V222H114Q159 222 159 292Q159 329 147.5 342.5Q136 356 121 356Q101 356 91.5 341.5Q82 327 82 304V287H34V308Q34 352 57.5 376Q81 400 124 400Q168 400 189 371Q210 342 210 299Q210 267 199 240Q188 213 162 203V201Q191 192 203.5 164Q216 136 216 104Q216 44 189.5 17Q163 -10 123 -10Z" glyph-name="three.dnom" horiz-adv-x="249" unicode="&#58373;" /><glyph d="M123 308Q98 308 81 316Q64 324 53 337.5Q42 351 37 368.5Q32 386 32 406V424H81V405Q81 382 92 366.5Q103 351 123 351Q163 351 163 426Q163 446 158.5 459.5Q154 473 147 481.5Q140 490 131.5 493.5Q123 497 116 497H88V540H114Q159 540 159 610Q159 647 147.5 660.5Q136 674 121 674Q101 674 91.5 659.5Q82 645 82 622V605H34V626Q34 670 57.5 694Q81 718 124 718Q168 718 189 689Q210 660 210 617Q210 585 199 558Q188 531 162 521V519Q191 510 203.5 482Q216 454 216 422Q216 362 189.5 335Q163 308 123 308Z" glyph-name="three.numr" horiz-adv-x="249" unicode="&#58393;" /><glyph d="M408 716H450L170 -2H127ZM125 306Q100 306 83 314Q66 322 55 335.5Q44 349 39 366.5Q34 384 34 404V422H83V403Q83 380 94 364.5Q105 349 125 349Q165 349 165 424Q165 444 160.5 457.5Q156 471 149 479.5Q142 488 133.5 491.5Q125 495 118 495H90V538H116Q161 538 161 608Q161 645 149.5 658.5Q138 672 123 672Q103 672 93.5 657.5Q84 643 84 620V603H36V624Q36 668 59.5 692Q83 716 126 716Q170 716 191 687Q212 658 212 615Q212 583 201 556Q190 529 164 519V517Q193 508 205.5 480Q218 452 218 420Q218 360 191.5 333Q165 306 125 306ZM437 102H320V141L424 400H478L369 144H437V220L486 259V144H521V102H486V0H437Z" glyph-name="threequarters" horiz-adv-x="559" unicode="&#190;" /><glyph d="M123 370Q98 370 81 378Q64 386 53 399.5Q42 413 37 430.5Q32 448 32 468V486H81V467Q81 444 92 428.5Q103 413 123 413Q163 413 163 488Q163 508 158.5 521.5Q154 535 147 543.5Q140 552 131.5 555.5Q123 559 116 559H88V602H114Q159 602 159 672Q159 709 147.5 722.5Q136 736 121 736Q101 736 91.5 721.5Q82 707 82 684V667H34V688Q34 732 57.5 756Q81 780 124 780Q168 780 189 751Q210 722 210 679Q210 647 199 620Q188 593 162 583V581Q191 572 203.5 544Q216 516 216 484Q216 424 189.5 397Q163 370 123 370Z" glyph-name="threesuperior" horiz-adv-x="249" unicode="&#179;" /><glyph d="M38 596Q43 630 60.5 654Q78 678 109 678Q122 678 135.5 673.5Q149 669 162.5 664Q176 659 189.5 654.5Q203 650 216 650Q230 650 237 659Q244 668 249 685L287 677Q282 643 263.5 619Q245 595 216 595Q202 595 187.5 599.5Q173 604 159.5 609.5Q146 615 133 619.5Q120 624 110 624Q95 624 88.5 615.5Q82 607 78 589Z" glyph-name="tilde" horiz-adv-x="317" unicode="&#732;" /><glyph d="M84 678H24V714H186V678H126V395H84ZM218 714H269L317 574L364 714H413V395H374V635L332 509H301L257 636V395H218Z" glyph-name="trademark" horiz-adv-x="455" unicode="&#8482;" /><glyph d="M40 502V509H351V502L202 209H196Z" glyph-name="triagdn" horiz-adv-x="391" unicode="&#9660;" /><glyph d="M45 352V358L338 514H345V203H338Z" glyph-name="triaglf" horiz-adv-x="391" unicode="&#9668;" /><glyph d="M45 514H52L345 358V352L52 203H45Z" glyph-name="triagrt" horiz-adv-x="391" unicode="&#9658;" /><glyph d="M40 216 189 509H195L351 216V209H40Z" glyph-name="triagup" horiz-adv-x="391" unicode="&#9650;" /><glyph d="M40 44 136 218Q184 309 208.5 386Q233 463 233 539V554Q233 578 229.5 598.5Q226 619 218 634Q210 649 196.5 658Q183 667 164 667Q129 667 113.5 641.5Q98 616 98 584V540H37V576Q37 642 71.5 683Q106 724 169 724Q235 724 267 680.5Q299 637 299 552Q299 498 290 449.5Q281 401 265.5 355.5Q250 310 229.5 267Q209 224 185 181L119 59V58H307V0H40Z" glyph-name="two" horiz-adv-x="341" unicode="2" /><glyph d="M68 44 164 218Q212 309 236.5 386Q261 463 261 539V554Q261 578 257.5 598.5Q254 619 246 634Q238 649 224.5 658Q211 667 192 667Q157 667 141.5 641.5Q126 616 126 584V540H65V576Q65 642 99.5 683Q134 724 197 724Q263 724 295 680.5Q327 637 327 552Q327 498 318 449.5Q309 401 293.5 355.5Q278 310 257.5 267Q237 224 213 181L147 59V58H335V0H68Z" glyph-name="two.LT" horiz-adv-x="402" unicode="&#58690;" /><glyph d="M37 33 102 138Q126 182 141 219Q156 256 156 293V301Q156 324 147.5 340Q139 356 119 356Q99 356 90.5 341.5Q82 327 82 308V285H34V310Q34 351 56 376Q78 401 120 401Q163 401 185.5 374.5Q208 348 208 299Q208 243 187.5 199Q167 155 139 110L100 44H212V0H37Z" glyph-name="two.dnom" horiz-adv-x="240" unicode="&#58372;" /><glyph d="M37 351 102 456Q126 500 141 537Q156 574 156 611V619Q156 642 147.5 658Q139 674 119 674Q99 674 90.5 659.5Q82 645 82 626V603H34V628Q34 669 56 694Q78 719 120 719Q163 719 185.5 692.5Q208 666 208 617Q208 561 187.5 517Q167 473 139 428L100 362H212V318H37Z" glyph-name="two.numr" horiz-adv-x="240" unicode="&#58392;" /><glyph d="M37 413 102 518Q126 562 141 599Q156 636 156 673V681Q156 704 147.5 720Q139 736 119 736Q99 736 90.5 721.5Q82 707 82 688V665H34V690Q34 731 56 756Q78 781 120 781Q163 781 185.5 754.5Q208 728 208 679Q208 623 187.5 579Q167 535 139 490L100 424H212V380H37Z" glyph-name="twosuperior" horiz-adv-x="240" unicode="&#178;" /><glyph d="M149 -10Q108 -10 82.5 15Q57 40 57 83V521H120V109Q120 45 178 45Q195 45 209.5 54Q224 63 234.5 78Q245 93 251 112Q257 131 257 150V521H320V0H260V59H259Q242 25 212.5 7.5Q183 -10 149 -10Z" glyph-name="u" horiz-adv-x="382" unicode="u" /><glyph d="M149 -10Q108 -10 82.5 15Q57 40 57 83V521H120V109Q120 45 178 45Q195 45 209.5 54Q224 63 234.5 78Q245 93 251 112Q257 131 257 150V521H320V0H260V59H259Q242 25 212.5 7.5Q183 -10 149 -10ZM233 720H304L215 580H164Z" glyph-name="uacute" horiz-adv-x="382" unicode="&#250;" /><glyph d="M191 584Q139 584 111 615Q83 646 82 703H130Q132 688 135.5 674.5Q139 661 145.5 650.5Q152 640 164 633.5Q176 627 194 627Q225 627 238.5 648.5Q252 670 253 703H300Q298 641 266.5 612.5Q235 584 191 584ZM149 -10Q108 -10 82.5 15Q57 40 57 83V521H120V109Q120 45 178 45Q195 45 209.5 54Q224 63 234.5 78Q245 93 251 112Q257 131 257 150V521H320V0H260V59H259Q242 25 212.5 7.5Q183 -10 149 -10Z" glyph-name="ubreve" horiz-adv-x="382" unicode="&#365;" /><glyph d="M149 -10Q108 -10 82.5 15Q57 40 57 83V521H120V109Q120 45 178 45Q195 45 209.5 54Q224 63 234.5 78Q245 93 251 112Q257 131 257 150V521H320V0H260V59H259Q242 25 212.5 7.5Q183 -10 149 -10ZM172 722H221L293 580H237L195 670L152 580H99Z" glyph-name="ucircumflex" horiz-adv-x="382" unicode="&#251;" /><glyph d="M149 -10Q108 -10 82.5 15Q57 40 57 83V521H120V109Q120 45 178 45Q195 45 209.5 54Q224 63 234.5 78Q245 93 251 112Q257 131 257 150V521H320V0H260V59H259Q242 25 212.5 7.5Q183 -10 149 -10ZM223 710H280V595H223ZM101 710H158V595H101Z" glyph-name="udieresis" horiz-adv-x="382" unicode="&#252;" /><glyph d="M78 720H150L219 580H168ZM149 -10Q108 -10 82.5 15Q57 40 57 83V521H120V109Q120 45 178 45Q195 45 209.5 54Q224 63 234.5 78Q245 93 251 112Q257 131 257 150V521H320V0H260V59H259Q242 25 212.5 7.5Q183 -10 149 -10Z" glyph-name="ugrave" horiz-adv-x="382" unicode="&#249;" /><glyph d="M268 710H330L268 583H219ZM156 710H219L157 583H108ZM149 -10Q108 -10 82.5 15Q57 40 57 83V521H120V109Q120 45 178 45Q195 45 209.5 54Q224 63 234.5 78Q245 93 251 112Q257 131 257 150V521H320V0H260V59H259Q242 25 212.5 7.5Q183 -10 149 -10Z" glyph-name="uhungarumlaut" horiz-adv-x="382" unicode="&#369;" /><glyph d="M98 651H284V597H98ZM149 -10Q108 -10 82.5 15Q57 40 57 83V521H120V109Q120 45 178 45Q195 45 209.5 54Q224 63 234.5 78Q245 93 251 112Q257 131 257 150V521H320V0H260V59H259Q242 25 212.5 7.5Q183 -10 149 -10Z" glyph-name="umacron" horiz-adv-x="382" unicode="&#363;" /><glyph d="M0 -59H374V-110H0Z" glyph-name="underscore" horiz-adv-x="374" unicode="_" /><glyph glyph-name="uni00A0" horiz-adv-x="141" unicode="&#160;" /><glyph d="M160 655H23V713H362V655H227V0H160ZM163 -38H227L205 -175H159Z" glyph-name="uni021A" horiz-adv-x="385" unicode="&#538;" /><glyph d="M164 -6Q133 -6 109 10Q85 26 85 68V466H31V519H85V638H147V519H231V466H147V86Q147 49 179 49Q190 49 202 51.5Q214 54 223 57V5Q192 -6 164 -6ZM104 -38H168L146 -175H100Z" glyph-name="uni021B" horiz-adv-x="254" unicode="&#539;" /><glyph d="M126 413Q148 413 157 426.5Q166 440 166 457V697Q166 713 156 725.5Q146 738 125 738Q103 738 93 725.5Q83 713 83 696V457Q83 440 93 426.5Q103 413 126 413ZM125 370Q83 370 57.5 392Q32 414 32 457V694Q32 739 60 760Q88 781 126 781Q164 781 191 760.5Q218 740 218 697V458Q218 413 190.5 391.5Q163 370 125 370Z" glyph-name="uni2070" horiz-adv-x="249" unicode="&#8304;" /><glyph d="M137 482H20V521L124 780H178L69 524H137V600L186 639V524H221V482H186V380H137Z" glyph-name="uni2074" horiz-adv-x="239" unicode="&#8308;" /><glyph d="M122 370Q77 370 54.5 394Q32 418 32 455V487H82V459Q82 439 93 425.5Q104 412 123 412Q142 412 153 425.5Q164 439 164 468V539Q164 590 124 590Q111 590 100.5 582Q90 574 84 563L37 568L46 776H202V731H89Q89 729 88 709.5Q87 690 86.5 667.5Q86 645 85 625.5Q84 606 84 603Q95 616 109.5 622Q124 628 141 628Q170 628 193 609.5Q216 591 216 547V467Q216 421 189 395.5Q162 370 122 370Z" glyph-name="uni2075" horiz-adv-x="248" unicode="&#8309;" /><glyph d="M125 412Q147 412 156 426Q165 440 165 456V547Q165 567 154 576Q143 585 127 585Q111 585 98 572Q85 559 85 541V455Q85 439 95 425.5Q105 412 125 412ZM123 370Q81 370 56.5 394Q32 418 32 458V690Q32 735 59 758Q86 781 126 781Q167 781 190 759Q213 737 213 702V669H164V698Q164 715 153.5 727Q143 739 123 739Q103 739 94 725Q85 711 85 694V592Q96 607 112 614Q128 621 144 621Q177 621 196.5 602Q216 583 216 551V457Q216 416 190 393Q164 370 123 370Z" glyph-name="uni2076" horiz-adv-x="248" unicode="&#8310;" /><glyph d="M63 380Q63 435 71 486Q79 537 91.5 582Q104 627 119.5 664.5Q135 702 152 731H25V776H206V737Q184 703 167 660.5Q150 618 139 571.5Q128 525 122 476.5Q116 428 116 380Z" glyph-name="uni2077" horiz-adv-x="229" unicode="&#8311;" /><glyph d="M125 601Q143 601 153.5 612.5Q164 624 164 641V703Q164 720 152.5 730Q141 740 124 740Q107 740 95.5 730Q84 720 84 703V640Q84 623 96 612Q108 601 125 601ZM125 412Q145 412 155.5 423.5Q166 435 166 453V521Q166 541 153.5 551.5Q141 562 125 562Q107 562 95 551Q83 540 83 523V452Q83 435 94 423.5Q105 412 125 412ZM124 371Q82 371 56.5 391.5Q31 412 31 454V517Q31 539 42.5 555Q54 571 72 581Q54 590 45 606.5Q36 623 36 642V700Q36 740 62 760.5Q88 781 125 781Q162 781 188 762Q214 743 214 702V644Q214 601 176 582Q194 574 206 558Q218 542 218 519V453Q218 412 191 391.5Q164 371 124 371Z" glyph-name="uni2078" horiz-adv-x="249" unicode="&#8312;" /><glyph d="M120 567Q137 567 150 580Q163 593 164 611V697Q164 713 154 726.5Q144 740 122 740Q101 740 92 726Q83 712 83 696V605Q83 586 94 576.5Q105 567 120 567ZM122 370Q81 370 58 392.5Q35 415 35 451V483H83V455Q83 435 94 424Q105 413 125 413Q144 413 154 426Q164 439 164 459V559Q153 545 136 537.5Q119 530 102 530Q70 530 51 549.5Q32 569 32 601V695Q32 736 58 758.5Q84 781 125 781Q167 781 191.5 757.5Q216 734 216 694V464Q216 417 188.5 393.5Q161 370 122 370Z" glyph-name="uni2079" horiz-adv-x="248" unicode="&#8313;" /><glyph d="M102 308Q87 333 75.5 364Q64 395 56.5 428.5Q49 462 45 496Q41 530 41 561Q41 625 56 691.5Q71 758 102 810L131 808Q120 775 111.5 747.5Q103 720 97.5 691.5Q92 663 89 631.5Q86 600 86 561Q86 495 97.5 433Q109 371 131 311Z" glyph-name="uni207D" horiz-adv-x="144" unicode="&#8317;" /><glyph d="M17 311Q38 371 50 433Q62 495 62 561Q62 600 59 631.5Q56 663 50.5 691.5Q45 720 36.5 747.5Q28 775 17 808L47 810Q76 758 91.5 691.5Q107 625 107 561Q107 530 103 496Q99 462 91.5 428.5Q84 395 73 364Q62 333 47 308Z" glyph-name="uni207E" horiz-adv-x="144" unicode="&#8318;" /><glyph d="M126 -100Q148 -100 157 -86.5Q166 -73 166 -56V184Q166 200 156 212.5Q146 225 125 225Q103 225 93 212.5Q83 200 83 183V-56Q83 -73 93 -86.5Q103 -100 126 -100ZM125 -143Q83 -143 57.5 -121Q32 -99 32 -56V181Q32 226 60 247Q88 268 126 268Q164 268 191 247.5Q218 227 218 184V-55Q218 -100 190.5 -121.5Q163 -143 125 -143Z" glyph-name="uni2080" horiz-adv-x="249" unicode="&#8320;" /><glyph d="M79 213 43 202 35 241 100 267H130V-133H79Z" glyph-name="uni2081" horiz-adv-x="198" unicode="&#8321;" /><glyph d="M37 -100 102 5Q126 49 141 86Q156 123 156 160V168Q156 191 147.5 207Q139 223 119 223Q99 223 90.5 208.5Q82 194 82 175V152H34V177Q34 218 56 243Q78 268 120 268Q163 268 185.5 241.5Q208 215 208 166Q208 110 187.5 66Q167 22 139 -23L100 -89H212V-133H37Z" glyph-name="uni2082" horiz-adv-x="240" unicode="&#8322;" /><glyph d="M123 -143Q98 -143 81 -135Q64 -127 53 -113.5Q42 -100 37 -82.5Q32 -65 32 -45V-27H81V-46Q81 -69 92 -84.5Q103 -100 123 -100Q163 -100 163 -25Q163 -5 158.5 8.5Q154 22 147 30.5Q140 39 131.5 42.5Q123 46 116 46H88V89H114Q159 89 159 159Q159 196 147.5 209.5Q136 223 121 223Q101 223 91.5 208.5Q82 194 82 171V154H34V175Q34 219 57.5 243Q81 267 124 267Q168 267 189 238Q210 209 210 166Q210 134 199 107Q188 80 162 70V68Q191 59 203.5 31Q216 3 216 -29Q216 -89 189.5 -116Q163 -143 123 -143Z" glyph-name="uni2083" horiz-adv-x="249" unicode="&#8323;" /><glyph d="M137 -31H20V8L124 267H178L69 11H137V87L186 126V11H221V-31H186V-133H137Z" glyph-name="uni2084" horiz-adv-x="239" unicode="&#8324;" /><glyph d="M122 -143Q77 -143 54.5 -119Q32 -95 32 -58V-26H82V-54Q82 -74 93 -87.5Q104 -101 123 -101Q142 -101 153 -87.5Q164 -74 164 -45V26Q164 77 124 77Q111 77 100.5 69Q90 61 84 50L37 55L46 263H202V218H89Q89 216 88 196.5Q87 177 86.5 154.5Q86 132 85 112.5Q84 93 84 90Q95 103 109.5 109Q124 115 141 115Q170 115 193 96.5Q216 78 216 34V-46Q216 -92 189 -117.5Q162 -143 122 -143Z" glyph-name="uni2085" horiz-adv-x="248" unicode="&#8325;" /><glyph d="M125 -101Q147 -101 156 -87Q165 -73 165 -57V34Q165 54 154 63Q143 72 127 72Q111 72 98 59Q85 46 85 28V-58Q85 -74 95 -87.5Q105 -101 125 -101ZM123 -143Q81 -143 56.5 -119Q32 -95 32 -55V177Q32 222 59 245Q86 268 126 268Q167 268 190 246Q213 224 213 189V156H164V185Q164 202 153.5 214Q143 226 123 226Q103 226 94 212Q85 198 85 181V79Q96 94 112 101Q128 108 144 108Q177 108 196.5 89Q216 70 216 38V-56Q216 -97 190 -120Q164 -143 123 -143Z" glyph-name="uni2086" horiz-adv-x="248" unicode="&#8326;" /><glyph d="M63 -133Q63 -78 71 -27Q79 24 91.5 69Q104 114 119.5 151.5Q135 189 152 218H25V263H206V224Q184 190 167 147.5Q150 105 139 58.5Q128 12 122 -36.5Q116 -85 116 -133Z" glyph-name="uni2087" horiz-adv-x="229" unicode="&#8327;" /><glyph d="M125 88Q143 88 153.5 99.5Q164 111 164 128V190Q164 207 152.5 217Q141 227 124 227Q107 227 95.5 217Q84 207 84 190V127Q84 110 96 99Q108 88 125 88ZM125 -101Q145 -101 155.5 -89.5Q166 -78 166 -60V8Q166 28 153.5 38.5Q141 49 125 49Q107 49 95 38Q83 27 83 10V-61Q83 -78 94 -89.5Q105 -101 125 -101ZM124 -142Q82 -142 56.5 -121.5Q31 -101 31 -59V4Q31 26 42.5 42Q54 58 72 68Q54 77 45 93.5Q36 110 36 129V187Q36 227 62 247.5Q88 268 125 268Q162 268 188 249Q214 230 214 189V131Q214 88 176 69Q194 61 206 45Q218 29 218 6V-60Q218 -101 191 -121.5Q164 -142 124 -142Z" glyph-name="uni2088" horiz-adv-x="249" unicode="&#8328;" /><glyph d="M120 54Q137 54 150 67Q163 80 164 98V184Q164 200 154 213.5Q144 227 122 227Q101 227 92 213Q83 199 83 183V92Q83 73 94 63.5Q105 54 120 54ZM122 -143Q81 -143 58 -120.5Q35 -98 35 -62V-30H83V-58Q83 -78 94 -89Q105 -100 125 -100Q144 -100 154 -87Q164 -74 164 -54V46Q153 32 136 24.5Q119 17 102 17Q70 17 51 36.5Q32 56 32 88V182Q32 223 58 245.5Q84 268 125 268Q167 268 191.5 244.5Q216 221 216 181V-49Q216 -96 188.5 -119.5Q161 -143 122 -143Z" glyph-name="uni2089" horiz-adv-x="248" unicode="&#8329;" /><glyph d="M102 -205Q87 -180 75.5 -149Q64 -118 56.5 -84.5Q49 -51 45 -17Q41 17 41 48Q41 112 56 178.5Q71 245 102 297L131 295Q120 262 111.5 234.5Q103 207 97.5 178.5Q92 150 89 118.5Q86 87 86 48Q86 -18 97.5 -80Q109 -142 131 -202Z" glyph-name="uni208D" horiz-adv-x="144" unicode="&#8333;" /><glyph d="M17 -202Q38 -142 50 -80Q62 -18 62 48Q62 87 59 118.5Q56 150 50.5 178.5Q45 207 36.5 234.5Q28 262 17 295L47 297Q76 245 91.5 178.5Q107 112 107 48Q107 17 103 -17Q99 -51 91.5 -84.5Q84 -118 73 -149Q62 -180 47 -205Z" glyph-name="uni208E" horiz-adv-x="144" unicode="&#8334;" /><glyph d="M126 583H191V94H280Q310 94 310 142V705H394V163Q394 115 386 84Q378 53 363 34Q348 15 325.5 7.5Q303 0 274 0H126ZM26 705H164Q193 705 215.5 699.5Q238 694 253 678.5Q268 663 276 634Q284 605 284 557V122H218V563Q218 612 189 612H100V0H26Z" glyph-name="uni20AA" horiz-adv-x="420" unicode="&#8362;" /><glyph d="M420 -10Q395 -10 378 -2Q361 6 350 19.5Q339 33 334 50.5Q329 68 329 88V106H378V87Q378 64 389 48.5Q400 33 420 33Q460 33 460 108Q460 128 455.5 141.5Q451 155 444 163.5Q437 172 428.5 175.5Q420 179 413 179H385V222H411Q456 222 456 292Q456 329 444.5 342.5Q433 356 418 356Q398 356 388.5 341.5Q379 327 379 304V287H331V308Q331 352 354.5 376Q378 400 421 400Q465 400 486 371Q507 342 507 299Q507 267 496 240Q485 213 459 203V201Q488 192 500.5 164Q513 136 513 104Q513 44 486.5 17Q460 -10 420 -10ZM380 716H422L142 -2H99ZM99 662 63 651 55 690 120 716H150V316H99Z" glyph-name="uni2153" horiz-adv-x="559" unicode="&#8531;" /><glyph d="M424 -10Q399 -10 382 -2Q365 6 354 19.5Q343 33 338 50.5Q333 68 333 88V106H382V87Q382 64 393 48.5Q404 33 424 33Q464 33 464 108Q464 128 459.5 141.5Q455 155 448 163.5Q441 172 432.5 175.5Q424 179 417 179H389V222H415Q460 222 460 292Q460 329 448.5 342.5Q437 356 422 356Q402 356 392.5 341.5Q383 327 383 304V287H335V308Q335 352 358.5 376Q382 400 425 400Q469 400 490 371Q511 342 511 299Q511 267 500 240Q489 213 463 203V201Q492 192 504.5 164Q517 136 517 104Q517 44 490.5 17Q464 -10 424 -10ZM398 716H440L160 -2H117ZM25 349 90 454Q114 498 129 535Q144 572 144 609V617Q144 640 135.5 656Q127 672 107 672Q87 672 78.5 657.5Q70 643 70 624V601H22V626Q22 667 44 692Q66 717 108 717Q151 717 173.5 690.5Q196 664 196 615Q196 559 175.5 515Q155 471 127 426L88 360H200V316H25Z" glyph-name="uni2154" horiz-adv-x="559" unicode="&#8532;" /><glyph d="M388 716H430L150 -2H107ZM424 -10Q379 -10 356.5 14Q334 38 334 75V107H384V79Q384 59 395 45.5Q406 32 425 32Q444 32 455 45.5Q466 59 466 88V159Q466 210 426 210Q413 210 402.5 202Q392 194 386 183L339 188L348 396H504V351H391Q391 349 390 329.5Q389 310 388.5 287.5Q388 265 387 245.5Q386 226 386 223Q397 236 411.5 242Q426 248 443 248Q472 248 495 229.5Q518 211 518 167V87Q518 41 491 15.5Q464 -10 424 -10ZM110 662 74 651 66 690 131 716H161V316H110Z" glyph-name="uni2155" horiz-adv-x="559" unicode="&#8533;" /><glyph d="M395 716H437L157 -2H114ZM426 -10Q381 -10 358.5 14Q336 38 336 75V107H386V79Q386 59 397 45.5Q408 32 427 32Q446 32 457 45.5Q468 59 468 88V159Q468 210 428 210Q415 210 404.5 202Q394 194 388 183L341 188L350 396H506V351H393Q393 349 392 329.5Q391 310 390.5 287.5Q390 265 389 245.5Q388 226 388 223Q399 236 413.5 242Q428 248 445 248Q474 248 497 229.5Q520 211 520 167V87Q520 41 493 15.5Q466 -10 426 -10ZM25 349 90 454Q114 498 129 535Q144 572 144 609V617Q144 640 135.5 656Q127 672 107 672Q87 672 78.5 657.5Q70 643 70 624V601H22V626Q22 667 44 692Q66 717 108 717Q151 717 173.5 690.5Q196 664 196 615Q196 559 175.5 515Q155 471 127 426L88 360H200V316H25Z" glyph-name="uni2156" horiz-adv-x="559" unicode="&#8534;" /><glyph d="M426 -10Q381 -10 358.5 14Q336 38 336 75V107H386V79Q386 59 397 45.5Q408 32 427 32Q446 32 457 45.5Q468 59 468 88V159Q468 210 428 210Q415 210 404.5 202Q394 194 388 183L341 188L350 396H506V351H393Q393 349 392 329.5Q391 310 390.5 287.5Q390 265 389 245.5Q388 226 388 223Q399 236 413.5 242Q428 248 445 248Q474 248 497 229.5Q520 211 520 167V87Q520 41 493 15.5Q466 -10 426 -10ZM393 716H435L155 -2H112ZM117 306Q92 306 75 314Q58 322 47 335.5Q36 349 31 366.5Q26 384 26 404V422H75V403Q75 380 86 364.5Q97 349 117 349Q157 349 157 424Q157 444 152.5 457.5Q148 471 141 479.5Q134 488 125.5 491.5Q117 495 110 495H82V538H108Q153 538 153 608Q153 645 141.5 658.5Q130 672 115 672Q95 672 85.5 657.5Q76 643 76 620V603H28V624Q28 668 51.5 692Q75 716 118 716Q162 716 183 687Q204 658 204 615Q204 583 193 556Q182 529 156 519V517Q185 508 197.5 480Q210 452 210 420Q210 360 183.5 333Q157 306 117 306Z" glyph-name="uni2157" horiz-adv-x="559" unicode="&#8535;" /><glyph d="M393 716H435L155 -2H112ZM426 -10Q381 -10 358.5 14Q336 38 336 75V107H386V79Q386 59 397 45.5Q408 32 427 32Q446 32 457 45.5Q468 59 468 88V159Q468 210 428 210Q415 210 404.5 202Q394 194 388 183L341 188L350 396H506V351H393Q393 349 392 329.5Q391 310 390.5 287.5Q390 265 389 245.5Q388 226 388 223Q399 236 413.5 242Q428 248 445 248Q474 248 497 229.5Q520 211 520 167V87Q520 41 493 15.5Q466 -10 426 -10ZM131 418H14V457L118 716H172L63 460H131V536L180 575V460H215V418H180V316H131Z" glyph-name="uni2158" horiz-adv-x="559" unicode="&#8536;" /><glyph d="M388 716H430L150 -2H107ZM425 32Q447 32 456 46Q465 60 465 76V167Q465 187 454 196Q443 205 427 205Q411 205 398 192Q385 179 385 161V75Q385 59 395 45.5Q405 32 425 32ZM423 -10Q381 -10 356.5 14Q332 38 332 78V310Q332 355 359 378Q386 401 426 401Q467 401 490 379Q513 357 513 322V289H464V318Q464 335 453.5 347Q443 359 423 359Q403 359 394 345Q385 331 385 314V212Q396 227 412 234Q428 241 444 241Q477 241 496.5 222Q516 203 516 171V77Q516 36 490 13Q464 -10 423 -10ZM114 662 78 651 70 690 135 716H165V316H114Z" glyph-name="uni2159" horiz-adv-x="559" unicode="&#8537;" /><glyph d="M401 716H443L163 -2H120ZM130 306Q85 306 62.5 330Q40 354 40 391V423H90V395Q90 375 101 361.5Q112 348 131 348Q150 348 161 361.5Q172 375 172 404V475Q172 526 132 526Q119 526 108.5 518Q98 510 92 499L45 504L54 712H210V667H97Q97 665 96 645.5Q95 626 94.5 603.5Q94 581 93 561.5Q92 542 92 539Q103 552 117.5 558Q132 564 149 564Q178 564 201 545.5Q224 527 224 483V403Q224 357 197 331.5Q170 306 130 306ZM431 32Q453 32 462 46Q471 60 471 76V167Q471 187 460 196Q449 205 433 205Q417 205 404 192Q391 179 391 161V75Q391 59 401 45.5Q411 32 431 32ZM429 -10Q387 -10 362.5 14Q338 38 338 78V310Q338 355 365 378Q392 401 432 401Q473 401 496 379Q519 357 519 322V289H470V318Q470 335 459.5 347Q449 359 429 359Q409 359 400 345Q391 331 391 314V212Q402 227 418 234Q434 241 450 241Q483 241 502.5 222Q522 203 522 171V77Q522 36 496 13Q470 -10 429 -10Z" glyph-name="uni215A" horiz-adv-x="559" unicode="&#8538;" /><glyph d="M389 716H431L151 -2H108ZM425 221Q443 221 453.5 232.5Q464 244 464 261V323Q464 340 452.5 350Q441 360 424 360Q407 360 395.5 350Q384 340 384 323V260Q384 243 396 232Q408 221 425 221ZM425 32Q445 32 455.5 43.5Q466 55 466 73V141Q466 161 453.5 171.5Q441 182 425 182Q407 182 395 171Q383 160 383 143V72Q383 55 394 43.5Q405 32 425 32ZM424 -9Q382 -9 356.5 11.5Q331 32 331 74V137Q331 159 342.5 175Q354 191 372 201Q354 210 345 226.5Q336 243 336 262V320Q336 360 362 380.5Q388 401 425 401Q462 401 488 382Q514 363 514 322V264Q514 221 476 202Q494 194 506 178Q518 162 518 139V73Q518 32 491 11.5Q464 -9 424 -9ZM114 662 78 651 70 690 135 716H165V316H114Z" glyph-name="uni215B" horiz-adv-x="559" unicode="&#8539;" /><glyph d="M402 716H444L164 -2H121ZM131 306Q106 306 89 314Q72 322 61 335.5Q50 349 45 366.5Q40 384 40 404V422H89V403Q89 380 100 364.5Q111 349 131 349Q171 349 171 424Q171 444 166.5 457.5Q162 471 155 479.5Q148 488 139.5 491.5Q131 495 124 495H96V538H122Q167 538 167 608Q167 645 155.5 658.5Q144 672 129 672Q109 672 99.5 657.5Q90 643 90 620V603H42V624Q42 668 65.5 692Q89 716 132 716Q176 716 197 687Q218 658 218 615Q218 583 207 556Q196 529 170 519V517Q199 508 211.5 480Q224 452 224 420Q224 360 197.5 333Q171 306 131 306ZM431 221Q449 221 459.5 232.5Q470 244 470 261V323Q470 340 458.5 350Q447 360 430 360Q413 360 401.5 350Q390 340 390 323V260Q390 243 402 232Q414 221 431 221ZM431 32Q451 32 461.5 43.5Q472 55 472 73V141Q472 161 459.5 171.5Q447 182 431 182Q413 182 401 171Q389 160 389 143V72Q389 55 400 43.5Q411 32 431 32ZM430 -9Q388 -9 362.5 11.5Q337 32 337 74V137Q337 159 348.5 175Q360 191 378 201Q360 210 351 226.5Q342 243 342 262V320Q342 360 368 380.5Q394 401 431 401Q468 401 494 382Q520 363 520 322V264Q520 221 482 202Q500 194 512 178Q524 162 524 139V73Q524 32 497 11.5Q470 -9 430 -9Z" glyph-name="uni215C" horiz-adv-x="559" unicode="&#8540;" /><glyph d="M401 716H443L163 -2H120ZM130 306Q85 306 62.5 330Q40 354 40 391V423H90V395Q90 375 101 361.5Q112 348 131 348Q150 348 161 361.5Q172 375 172 404V475Q172 526 132 526Q119 526 108.5 518Q98 510 92 499L45 504L54 712H210V667H97Q97 665 96 645.5Q95 626 94.5 603.5Q94 581 93 561.5Q92 542 92 539Q103 552 117.5 558Q132 564 149 564Q178 564 201 545.5Q224 527 224 483V403Q224 357 197 331.5Q170 306 130 306ZM430 221Q448 221 458.5 232.5Q469 244 469 261V323Q469 340 457.5 350Q446 360 429 360Q412 360 400.5 350Q389 340 389 323V260Q389 243 401 232Q413 221 430 221ZM430 32Q450 32 460.5 43.5Q471 55 471 73V141Q471 161 458.5 171.5Q446 182 430 182Q412 182 400 171Q388 160 388 143V72Q388 55 399 43.5Q410 32 430 32ZM429 -9Q387 -9 361.5 11.5Q336 32 336 74V137Q336 159 347.5 175Q359 191 377 201Q359 210 350 226.5Q341 243 341 262V320Q341 360 367 380.5Q393 401 430 401Q467 401 493 382Q519 363 519 322V264Q519 221 481 202Q499 194 511 178Q523 162 523 139V73Q523 32 496 11.5Q469 -9 429 -9Z" glyph-name="uni215D" horiz-adv-x="559" unicode="&#8541;" /><glyph d="M393 716H435L155 -2H112ZM98 316Q98 371 106 422Q114 473 126.5 518Q139 563 154.5 600.5Q170 638 187 667H60V712H241V673Q219 639 202 596.5Q185 554 174 507.5Q163 461 157 412.5Q151 364 151 316ZM430 221Q448 221 458.5 232.5Q469 244 469 261V323Q469 340 457.5 350Q446 360 429 360Q412 360 400.5 350Q389 340 389 323V260Q389 243 401 232Q413 221 430 221ZM430 32Q450 32 460.5 43.5Q471 55 471 73V141Q471 161 458.5 171.5Q446 182 430 182Q412 182 400 171Q388 160 388 143V72Q388 55 399 43.5Q410 32 430 32ZM429 -9Q387 -9 361.5 11.5Q336 32 336 74V137Q336 159 347.5 175Q359 191 377 201Q359 210 350 226.5Q341 243 341 262V320Q341 360 367 380.5Q393 401 430 401Q467 401 493 382Q519 363 519 322V264Q519 221 481 202Q499 194 511 178Q523 162 523 139V73Q523 32 496 11.5Q469 -9 429 -9Z" glyph-name="uni215E" horiz-adv-x="559" unicode="&#8542;" /><glyph d="M135 402V280H90L92 473L96 477L290 480L291 436L168 435L344 259L310 226Z" glyph-name="uni2196" horiz-adv-x="423" unicode="&#8598;" /><glyph d="M90 259 266 435 143 436V480L337 477L341 473L344 280H298L299 402L123 226Z" glyph-name="uni2197" horiz-adv-x="423" unicode="&#8599;" /><glyph d="M143 271H266L90 447L123 480L299 304Q299 312 299 329Q299 346 298.5 365.5Q298 385 298 402Q298 419 298 427H344Q344 418 343.5 390Q343 362 342.5 330.5Q342 299 341.5 271Q341 243 341 234L337 229L143 226Z" glyph-name="uni2198" horiz-adv-x="423" unicode="&#8600;" /><glyph d="M96 229 92 234 90 427H135V304L310 480L344 447L168 271H291L290 226Z" glyph-name="uni2199" horiz-adv-x="423" unicode="&#8601;" /><glyph d="M42 292 37 297 257 516 262 511 363 199 358 194Z" glyph-name="uni25E2" horiz-adv-x="391" unicode="&#9698;" /><glyph d="M37 199 138 511 143 516 363 297 358 292 42 194Z" glyph-name="uni25E3" horiz-adv-x="391" unicode="&#9699;" /><glyph d="M138 199 37 512 42 516 358 419 363 414 143 194Z" glyph-name="uni25E4" horiz-adv-x="391" unicode="&#9700;" /><glyph d="M37 414 42 419 358 516 363 512 262 199 257 194Z" glyph-name="uni25E5" horiz-adv-x="391" unicode="&#9701;" /><glyph d="M149 -10Q108 -10 82.5 15Q57 40 57 83V521H120V109Q120 45 178 45Q195 45 209.5 54Q224 63 234.5 78Q245 93 251 112Q257 131 257 150V521H320V0H260V59H259Q242 25 212.5 7.5Q183 -10 149 -10Z" glyph-name="uogonek" horiz-adv-x="382" unicode="&#371;" /><glyph d="M149 -10Q108 -10 82.5 15Q57 40 57 83V521H120V109Q120 45 178 45Q195 45 209.5 54Q224 63 234.5 78Q245 93 251 112Q257 131 257 150V521H320V0H260V59H259Q242 25 212.5 7.5Q183 -10 149 -10ZM190 606Q210 606 221.5 618.5Q233 631 233 653Q233 673 222.5 687Q212 701 190 701Q170 701 159.5 687.5Q149 674 149 652Q149 630 160.5 618Q172 606 190 606ZM190 574Q152 574 132 597Q112 620 112 651Q112 685 133.5 709Q155 733 190 733Q228 733 248.5 710.5Q269 688 269 656Q269 621 247 597.5Q225 574 190 574Z" glyph-name="uring" horiz-adv-x="382" unicode="&#367;" /><glyph d="M66 596Q71 630 88.5 654Q106 678 137 678Q150 678 163.5 673.5Q177 669 190.5 664Q204 659 217.5 654.5Q231 650 244 650Q258 650 265 659Q272 668 277 685L315 677Q310 643 291.5 619Q273 595 244 595Q230 595 215.5 599.5Q201 604 187.5 609.5Q174 615 161 619.5Q148 624 138 624Q123 624 116.5 615.5Q110 607 106 589ZM149 -10Q108 -10 82.5 15Q57 40 57 83V521H120V109Q120 45 178 45Q195 45 209.5 54Q224 63 234.5 78Q245 93 251 112Q257 131 257 150V521H320V0H260V59H259Q242 25 212.5 7.5Q183 -10 149 -10Z" glyph-name="utilde" horiz-adv-x="382" unicode="&#361;" /><glyph d="M19 521H86L163 111H165L243 521H303L194 -2H128Z" glyph-name="v" horiz-adv-x="322" unicode="v" /><glyph d="M23 521H90L147 135H150L218 521H283L351 135H354L410 521H469L381 -1H322L249 408H246L172 -1H113Z" glyph-name="w" horiz-adv-x="492" unicode="w" /><glyph d="M23 521H90L147 135H150L218 521H283L351 135H354L410 521H469L381 -1H322L249 408H246L172 -1H113ZM295 720H366L277 580H226Z" glyph-name="wacute" horiz-adv-x="492" unicode="&#7811;" /><glyph d="M23 521H90L147 135H150L218 521H283L351 135H354L410 521H469L381 -1H322L249 408H246L172 -1H113ZM221 722H270L342 580H286L244 670L201 580H148Z" glyph-name="wcircumflex" horiz-adv-x="492" unicode="&#373;" /><glyph d="M23 521H90L147 135H150L218 521H283L351 135H354L410 521H469L381 -1H322L249 408H246L172 -1H113ZM278 710H335V595H278ZM156 710H213V595H156Z" glyph-name="wdieresis" horiz-adv-x="492" unicode="&#7813;" /><glyph d="M138 720H210L279 580H228ZM23 521H90L147 135H150L218 521H283L351 135H354L410 521H469L381 -1H322L249 408H246L172 -1H113Z" glyph-name="wgrave" horiz-adv-x="492" unicode="&#7809;" /><glyph d="M431 45V669H90V45ZM43 713H478V0H43Z" glyph-name="whitesquare" horiz-adv-x="521" unicode="&#9633;" /><glyph d="M125 266 23 521H91L165 324L239 521H297L197 270L305 0H238L158 209L76 0H16Z" glyph-name="x" horiz-adv-x="321" unicode="x" /><glyph d="M76 -173Q50 -173 25 -166L33 -113Q43 -115 52 -116.5Q61 -118 71 -118Q87 -118 100 -109Q113 -100 121 -70L139 12L20 521H85L169 135H171L245 521H304L181 -44Q168 -108 144 -140.5Q120 -173 76 -173Z" glyph-name="y" horiz-adv-x="323" unicode="y" /><glyph d="M217 720H288L199 580H148ZM76 -173Q50 -173 25 -166L33 -113Q43 -115 52 -116.5Q61 -118 71 -118Q87 -118 100 -109Q113 -100 121 -70L139 12L20 521H85L169 135H171L245 521H304L181 -44Q168 -108 144 -140.5Q120 -173 76 -173Z" glyph-name="yacute" horiz-adv-x="323" unicode="&#253;" /><glyph d="M144 722H193L265 580H209L167 670L124 580H71ZM76 -173Q50 -173 25 -166L33 -113Q43 -115 52 -116.5Q61 -118 71 -118Q87 -118 100 -109Q113 -100 121 -70L139 12L20 521H85L169 135H171L245 521H304L181 -44Q168 -108 144 -140.5Q120 -173 76 -173Z" glyph-name="ycircumflex" horiz-adv-x="323" unicode="&#375;" /><glyph d="M200 710H257V595H200ZM78 710H135V595H78ZM76 -173Q50 -173 25 -166L33 -113Q43 -115 52 -116.5Q61 -118 71 -118Q87 -118 100 -109Q113 -100 121 -70L139 12L20 521H85L169 135H171L245 521H304L181 -44Q168 -108 144 -140.5Q120 -173 76 -173Z" glyph-name="ydieresis" horiz-adv-x="323" unicode="&#255;" /><glyph d="M146 274H40V322H141L13 714H84L184 396L280 714H346L220 322H320V274H213V0H146Z" glyph-name="yen" horiz-adv-x="359" unicode="&#165;" /><glyph d="M60 720H132L201 580H150ZM76 -173Q50 -173 25 -166L33 -113Q43 -115 52 -116.5Q61 -118 71 -118Q87 -118 100 -109Q113 -100 121 -70L139 12L20 521H85L169 135H171L245 521H304L181 -44Q168 -108 144 -140.5Q120 -173 76 -173Z" glyph-name="ygrave" horiz-adv-x="323" unicode="&#7923;" /><glyph d="M30 44 192 468H34V521H262V472L103 53H263V0H30Z" glyph-name="z" horiz-adv-x="290" unicode="z" /><glyph d="M30 44 192 468H34V521H262V472L103 53H263V0H30ZM191 720H262L173 580H122Z" glyph-name="zacute" horiz-adv-x="290" unicode="&#378;" /><glyph d="M30 44 192 468H34V521H262V472L103 53H263V0H30ZM48 723H104L147 633L189 723H243L169 581H120Z" glyph-name="zcaron" horiz-adv-x="290" unicode="&#382;" /><glyph d="M122 711H181V595H122ZM30 44 192 468H34V521H262V472L103 53H263V0H30Z" glyph-name="zdotaccent" horiz-adv-x="290" unicode="&#380;" /><glyph d="M197 49Q218 49 233 56Q248 63 257.5 74.5Q267 86 271.5 100.5Q276 115 276 131V589Q276 619 256 643Q236 667 196 667Q155 667 135.5 643Q116 619 116 589V130Q116 99 136 74Q156 49 197 49ZM194 -9Q130 -9 89 27.5Q48 64 48 134V586Q48 620 60 646Q72 672 92.5 689.5Q113 707 140 715.5Q167 724 197 724Q227 724 253 715.5Q279 707 299 690.5Q319 674 330.5 649Q342 624 342 590V133Q342 97 330.5 70.5Q319 44 299 26Q279 8 252 -0.5Q225 -9 194 -9Z" glyph-name="zero" horiz-adv-x="390" unicode="0" /><glyph d="M202 49Q223 49 238 56Q253 63 262.5 74.5Q272 86 276.5 100.5Q281 115 281 131V589Q281 619 261 643Q241 667 201 667Q160 667 140.5 643Q121 619 121 589V130Q121 99 141 74Q161 49 202 49ZM199 -9Q135 -9 94 27.5Q53 64 53 134V586Q53 620 65 646Q77 672 97.5 689.5Q118 707 145 715.5Q172 724 202 724Q232 724 258 715.5Q284 707 304 690.5Q324 674 335.5 649Q347 624 347 590V133Q347 97 335.5 70.5Q324 44 304 26Q284 8 257 -0.5Q230 -9 199 -9Z" glyph-name="zero.LT" horiz-adv-x="402" unicode="&#58687;" /><glyph d="M126 33Q148 33 157 46.5Q166 60 166 77V317Q166 333 156 345.5Q146 358 125 358Q103 358 93 345.5Q83 333 83 316V77Q83 60 93 46.5Q103 33 126 33ZM125 -10Q83 -10 57.5 12Q32 34 32 77V314Q32 359 60 380Q88 401 126 401Q164 401 191 380.5Q218 360 218 317V78Q218 33 190.5 11.5Q163 -10 125 -10Z" glyph-name="zero.dnom" horiz-adv-x="249" unicode="&#58370;" /><glyph d="M126 351Q148 351 157 364.5Q166 378 166 395V635Q166 651 156 663.5Q146 676 125 676Q103 676 93 663.5Q83 651 83 634V395Q83 378 93 364.5Q103 351 126 351ZM125 308Q83 308 57.5 330Q32 352 32 395V632Q32 677 60 698Q88 719 126 719Q164 719 191 698.5Q218 678 218 635V396Q218 351 190.5 329.5Q163 308 125 308Z" glyph-name="zero.numr" horiz-adv-x="249" unicode="&#58390;" /></font>
</defs>
</svg>
