<?xml version="1.0" standalone="no"?><!DOCTYPE svg PUBLIC "-//W3C//DTD SVG 1.1//EN" "http://www.w3.org/Graphics/SVG/1.1/DTD/svg11.dtd" ><svg version="1.1" xmlns="http://www.w3.org/2000/svg"><defs><font horiz-adv-x="0" id="font"><font-face ascent="750" bbox="-184 -225 1176 1020" cap-height="713" descent="-250" font-family="Flama Semicondensed Black" font-stretch="normal" font-style="normal" font-weight="600" units-per-em="1000" x-height="528" /><missing-glyph d="M707 42V638H115V42ZM55 698H767V-18H55ZM195 158 380 343 195 528 235 568 420 383 605 568 645 528 460 343 645 158 605 118 420 303 235 118Z" horiz-adv-x="822" /><glyph glyph-name=".null" horiz-adv-x="0" /><glyph d="M396 276 336 514H333L274 276ZM217 714H479L679 0H467L437 120H232L202 0H12Z" glyph-name="A" horiz-adv-x="691" unicode="A" /><glyph d="M395 279V583H394L301 279ZM254 713H889V550H601V439H829V276H601V164H890V0H395V127H255L214 0H8Z" glyph-name="AE" horiz-adv-x="930" unicode="&#198;" /><glyph d="M522 922H704L576 759H439ZM395 279V583H394L301 279ZM254 713H889V550H601V439H829V276H601V164H890V0H395V127H255L214 0H8Z" glyph-name="AEacute" horiz-adv-x="930" unicode="&#508;" /><glyph d="M357 922H539L411 759H274ZM396 276 336 514H333L274 276ZM217 714H479L679 0H467L437 120H232L202 0H12Z" glyph-name="Aacute" horiz-adv-x="691" unicode="&#193;" /><glyph d="M352 755Q259 755 211.5 805Q164 855 161 939H285Q288 920 292 906Q296 892 303.5 882.5Q311 873 323 868.5Q335 864 355 864Q386 864 397.5 882.5Q409 901 411 939H530Q529 894 515 859.5Q501 825 477.5 801.5Q454 778 422 766.5Q390 755 352 755ZM396 276 336 514H333L274 276ZM217 714H479L679 0H467L437 120H232L202 0H12Z" glyph-name="Abreve" horiz-adv-x="691" unicode="&#258;" /><glyph d="M279 932H413L534 760H392L342 839L292 760H157ZM396 276 336 514H333L274 276ZM217 714H479L679 0H467L437 120H232L202 0H12Z" glyph-name="Acircumflex" horiz-adv-x="691" unicode="&#194;" /><glyph d="M374 919H529V756H374ZM162 919H317V756H162ZM396 276 336 514H333L274 276ZM217 714H479L679 0H467L437 120H232L202 0H12Z" glyph-name="Adieresis" horiz-adv-x="691" unicode="&#196;" /><glyph d="M156 922H338L421 759H284ZM396 276 336 514H333L274 276ZM217 714H479L679 0H467L437 120H232L202 0H12Z" glyph-name="Agrave" horiz-adv-x="691" unicode="&#192;" /><glyph d="M171 892H519V766H171ZM396 276 336 514H333L274 276ZM217 714H479L679 0H467L437 120H232L202 0H12Z" glyph-name="Amacron" horiz-adv-x="691" unicode="&#256;" /><glyph d="M396 276 336 514H333L274 276ZM600 -220Q576 -220 553.5 -214Q531 -208 513 -195Q495 -182 484 -161Q473 -140 473 -111Q473 -76 488 -48Q503 -20 526 0H467L437 120H232L202 0H12L217 714H479L679 0H656Q616 -13 598 -35.5Q580 -58 580 -82Q580 -106 593.5 -116.5Q607 -127 625 -127Q639 -127 656 -119.5Q673 -112 686 -103L730 -182Q709 -199 675.5 -209.5Q642 -220 600 -220Z" glyph-name="Aogonek" horiz-adv-x="691" unicode="&#260;" /><glyph d="M344 804Q366 804 376 818.5Q386 833 386 854Q386 876 376 890Q366 904 342 904Q320 904 311 889.5Q302 875 302 854Q302 833 312 818.5Q322 804 344 804ZM344 745Q299 745 267 773Q235 801 235 852Q235 876 243.5 896.5Q252 917 267 931.5Q282 946 302 954.5Q322 963 344 963Q391 963 423 936Q455 909 455 858Q455 834 446 813.5Q437 793 422 777.5Q407 762 386.5 753.5Q366 745 344 745ZM396 276 336 514H333L274 276ZM217 714H479L679 0H467L437 120H232L202 0H12Z" glyph-name="Aring" horiz-adv-x="691" unicode="&#197;" /><glyph d="M344 796Q365 796 376 809.5Q387 823 387 846Q387 870 375.5 882.5Q364 895 346 895Q325 895 314 880.5Q303 866 303 845Q303 796 344 796ZM344 745Q315 745 294 753.5Q273 762 259.5 775.5Q246 789 239.5 806.5Q233 824 233 843Q233 894 274 931L375 1020L468 971L404 934Q430 922 443.5 899.5Q457 877 457 848Q457 802 424.5 773.5Q392 745 344 745ZM396 276 336 514H333L274 276ZM217 714H479L679 0H467L437 120H232L202 0H12Z" glyph-name="Aringacute" horiz-adv-x="691" unicode="&#506;" /><glyph d="M136 769Q140 799 150 826.5Q160 854 176 875.5Q192 897 214.5 909.5Q237 922 266 922Q287 922 307.5 916.5Q328 911 348 904.5Q368 898 388 892.5Q408 887 429 887Q448 887 458 900.5Q468 914 476 937L555 916Q552 888 543 861Q534 834 519 813Q504 792 481.5 779.5Q459 767 429 767Q409 767 389 772.5Q369 778 349.5 784Q330 790 310.5 795.5Q291 801 271 801Q251 801 242 789.5Q233 778 225 751ZM396 276 336 514H333L274 276ZM217 714H479L679 0H467L437 120H232L202 0H12Z" glyph-name="Atilde" horiz-adv-x="691" unicode="&#195;" /><glyph d="M339 432Q371 432 387 451.5Q403 471 403 500Q403 526 386.5 541.5Q370 557 341 557H255V432ZM342 158Q371 158 387.5 177.5Q404 197 404 224Q404 252 386 268Q368 284 339 284H255V158ZM50 713H404Q453 713 491 700Q529 687 555 663Q581 639 594.5 606Q608 573 608 533Q608 472 576.5 426.5Q545 381 492 364V361Q519 353 541.5 337.5Q564 322 580 300.5Q596 279 605 252.5Q614 226 614 197Q614 155 600 118.5Q586 82 560 56Q534 30 495.5 15Q457 0 409 0H50Z" glyph-name="B" horiz-adv-x="650" unicode="B" /><glyph d="M326 -12Q271 -12 219.5 1.5Q168 15 128.5 44.5Q89 74 65.5 120.5Q42 167 42 233V476Q42 537 65.5 583.5Q89 630 128.5 661.5Q168 693 219 709Q270 725 325 725Q382 725 431 711.5Q480 698 517 670Q554 642 575 599Q596 556 596 498V445H406V487Q406 523 382 541Q358 559 329 559Q292 559 271 539.5Q250 520 250 482V235Q250 197 270 175.5Q290 154 329 154Q358 154 382 172Q406 190 406 226V268H596V214Q596 156 575.5 113.5Q555 71 518.5 43Q482 15 432.5 1.5Q383 -12 326 -12Z" glyph-name="C" horiz-adv-x="632" unicode="C" /><glyph d="M335 922H517L389 759H252ZM326 -12Q271 -12 219.5 1.5Q168 15 128.5 44.5Q89 74 65.5 120.5Q42 167 42 233V476Q42 537 65.5 583.5Q89 630 128.5 661.5Q168 693 219 709Q270 725 325 725Q382 725 431 711.5Q480 698 517 670Q554 642 575 599Q596 556 596 498V445H406V487Q406 523 382 541Q358 559 329 559Q292 559 271 539.5Q250 520 250 482V235Q250 197 270 175.5Q290 154 329 154Q358 154 382 172Q406 190 406 226V268H596V214Q596 156 575.5 113.5Q555 71 518.5 43Q482 15 432.5 1.5Q383 -12 326 -12Z" glyph-name="Cacute" horiz-adv-x="632" unicode="&#262;" /><glyph d="M128 940H270L320 861L370 940H510L383 768H249ZM326 -12Q271 -12 219.5 1.5Q168 15 128.5 44.5Q89 74 65.5 120.5Q42 167 42 233V476Q42 537 65.5 583.5Q89 630 128.5 661.5Q168 693 219 709Q270 725 325 725Q382 725 431 711.5Q480 698 517 670Q554 642 575 599Q596 556 596 498V445H406V487Q406 523 382 541Q358 559 329 559Q292 559 271 539.5Q250 520 250 482V235Q250 197 270 175.5Q290 154 329 154Q358 154 382 172Q406 190 406 226V268H596V214Q596 156 575.5 113.5Q555 71 518.5 43Q482 15 432.5 1.5Q383 -12 326 -12Z" glyph-name="Ccaron" horiz-adv-x="632" unicode="&#268;" /><glyph d="M327 -218Q305 -218 275.5 -216Q246 -214 217 -206V-132Q244 -139 273 -142.5Q302 -146 319 -146Q339 -146 346.5 -140Q354 -134 354 -125Q354 -112 341 -108.5Q328 -105 317 -104L266 -101L291 -11Q241 -7 196 9Q151 25 116.5 54.5Q82 84 62 128Q42 172 42 233V476Q42 537 65.5 583.5Q89 630 128.5 661.5Q168 693 219 709Q270 725 325 725Q382 725 431 711.5Q480 698 517 670Q554 642 575 599Q596 556 596 498V445H406V487Q406 523 382 541Q358 559 329 559Q292 559 271 539.5Q250 520 250 482V235Q250 197 270 175.5Q290 154 329 154Q358 154 382 172Q406 190 406 226V268H596V214Q596 161 578.5 120.5Q561 80 529.5 52.5Q498 25 455 9Q412 -7 361 -11L351 -49Q369 -49 391 -51Q413 -53 431.5 -60.5Q450 -68 463 -82.5Q476 -97 476 -120Q476 -143 463.5 -161.5Q451 -180 430.5 -192.5Q410 -205 383 -211.5Q356 -218 327 -218Z" glyph-name="Ccedilla" horiz-adv-x="632" unicode="&#199;" /><glyph d="M257 932H391L512 760H370L320 839L270 760H135ZM326 -12Q271 -12 219.5 1.5Q168 15 128.5 44.5Q89 74 65.5 120.5Q42 167 42 233V476Q42 537 65.5 583.5Q89 630 128.5 661.5Q168 693 219 709Q270 725 325 725Q382 725 431 711.5Q480 698 517 670Q554 642 575 599Q596 556 596 498V445H406V487Q406 523 382 541Q358 559 329 559Q292 559 271 539.5Q250 520 250 482V235Q250 197 270 175.5Q290 154 329 154Q358 154 382 172Q406 190 406 226V268H596V214Q596 156 575.5 113.5Q555 71 518.5 43Q482 15 432.5 1.5Q383 -12 326 -12Z" glyph-name="Ccircumflex" horiz-adv-x="632" unicode="&#264;" /><glyph d="M236 918H402V755H236ZM326 -12Q271 -12 219.5 1.5Q168 15 128.5 44.5Q89 74 65.5 120.5Q42 167 42 233V476Q42 537 65.5 583.5Q89 630 128.5 661.5Q168 693 219 709Q270 725 325 725Q382 725 431 711.5Q480 698 517 670Q554 642 575 599Q596 556 596 498V445H406V487Q406 523 382 541Q358 559 329 559Q292 559 271 539.5Q250 520 250 482V235Q250 197 270 175.5Q290 154 329 154Q358 154 382 172Q406 190 406 226V268H596V214Q596 156 575.5 113.5Q555 71 518.5 43Q482 15 432.5 1.5Q383 -12 326 -12Z" glyph-name="Cdotaccent" horiz-adv-x="632" unicode="&#266;" /><glyph d="M321 164Q341 164 355.5 171Q370 178 379.5 189Q389 200 393.5 214Q398 228 398 243V471Q398 506 376.5 527Q355 548 317 548H256V164ZM50 713H339Q394 713 442.5 700Q491 687 527.5 660Q564 633 585 590.5Q606 548 606 490V236Q606 173 585 128Q564 83 527.5 54.5Q491 26 442.5 13Q394 0 340 0H50Z" glyph-name="D" horiz-adv-x="648" unicode="D" /><glyph d="M119 940H261L311 861L361 940H501L374 768H240ZM321 164Q341 164 355.5 171Q370 178 379.5 189Q389 200 393.5 214Q398 228 398 243V471Q398 506 376.5 527Q355 548 317 548H256V164ZM50 713H339Q394 713 442.5 700Q491 687 527.5 660Q564 633 585 590.5Q606 548 606 490V236Q606 173 585 128Q564 83 527.5 54.5Q491 26 442.5 13Q394 0 340 0H50Z" glyph-name="Dcaron" horiz-adv-x="648" unicode="&#270;" /><glyph d="M346 164Q366 164 380.5 171Q395 178 404.5 189Q414 200 418.5 214Q423 228 423 243V471Q423 506 401.5 527Q380 548 342 548H281V420H376V287H281V164ZM32 420H75V713H364Q419 713 467.5 700Q516 687 552.5 660Q589 633 610 590.5Q631 548 631 490V236Q631 173 610 128Q589 83 552.5 54.5Q516 26 467.5 13Q419 0 365 0H75V287H32Z" glyph-name="Dcroat" horiz-adv-x="673" unicode="&#272;" /><glyph d="M460 168 348 531H344L240 168ZM25 84 230 714H473L681 85V0H25Z" glyph-name="Delta" horiz-adv-x="706" unicode="&#8710;" /><glyph d="M50 713H544V550H256V441H484V278H256V164H545V0H50Z" glyph-name="E" horiz-adv-x="585" unicode="E" /><glyph d="M288 922H470L342 759H205ZM50 713H544V550H256V441H484V278H256V164H545V0H50Z" glyph-name="Eacute" horiz-adv-x="585" unicode="&#201;" /><glyph d="M312 755Q219 755 171.5 805Q124 855 121 939H245Q248 920 252 906Q256 892 263.5 882.5Q271 873 283 868.5Q295 864 315 864Q346 864 357.5 882.5Q369 901 371 939H490Q489 894 475 859.5Q461 825 437.5 801.5Q414 778 382 766.5Q350 755 312 755ZM50 713H544V550H256V441H484V278H256V164H545V0H50Z" glyph-name="Ebreve" horiz-adv-x="585" unicode="&#276;" /><glyph d="M106 940H248L298 861L348 940H488L361 768H227ZM50 713H544V550H256V441H484V278H256V164H545V0H50Z" glyph-name="Ecaron" horiz-adv-x="585" unicode="&#282;" /><glyph d="M231 932H365L486 760H344L294 839L244 760H109ZM50 713H544V550H256V441H484V278H256V164H545V0H50Z" glyph-name="Ecircumflex" horiz-adv-x="585" unicode="&#202;" /><glyph d="M326 919H481V756H326ZM114 919H269V756H114ZM50 713H544V550H256V441H484V278H256V164H545V0H50Z" glyph-name="Edieresis" horiz-adv-x="585" unicode="&#203;" /><glyph d="M214 918H380V755H214ZM50 713H544V550H256V441H484V278H256V164H545V0H50Z" glyph-name="Edotaccent" horiz-adv-x="585" unicode="&#278;" /><glyph d="M123 922H305L388 759H251ZM50 713H544V550H256V441H484V278H256V164H545V0H50Z" glyph-name="Egrave" horiz-adv-x="585" unicode="&#200;" /><glyph d="M123 892H471V766H123ZM50 713H544V550H256V441H484V278H256V164H545V0H50Z" glyph-name="Emacron" horiz-adv-x="585" unicode="&#274;" /><glyph d="M455 -188Q429 -188 413.5 -187Q398 -186 378 -183V-22Q382 -23 390.5 -23.5Q399 -24 405 -24Q425 -24 430 -14Q435 -4 435 13V31L237 356H235V0H50V713H252L439 401H441V713H626V-23Q626 -65 612 -96Q598 -127 574 -147.5Q550 -168 519 -178Q488 -188 455 -188Z" glyph-name="Eng" horiz-adv-x="676" unicode="&#330;" /><glyph d="M50 713H544V550H256V441H484V278H256V164H545V0H505Q465 -13 447 -35.5Q429 -58 429 -82Q429 -106 442.5 -116.5Q456 -127 474 -127Q488 -127 505 -119.5Q522 -112 535 -103L579 -182Q558 -199 524.5 -209.5Q491 -220 449 -220Q425 -220 402.5 -214Q380 -208 362 -195Q344 -182 333 -161Q322 -140 322 -111Q322 -76 337 -48Q352 -20 375 0H50Z" glyph-name="Eogonek" horiz-adv-x="585" unicode="&#280;" /><glyph d="M346 164Q366 164 380.5 171Q395 178 404.5 189Q414 200 418.5 214Q423 228 423 243V471Q423 506 401.5 527Q380 548 342 548H281V420H376V287H281V164ZM32 420H75V713H364Q419 713 467.5 700Q516 687 552.5 660Q589 633 610 590.5Q631 548 631 490V236Q631 173 610 128Q589 83 552.5 54.5Q516 26 467.5 13Q419 0 365 0H75V287H32Z" glyph-name="Eth" horiz-adv-x="673" unicode="&#208;" /><glyph d="M374 -12Q321 -12 271.5 1.5Q222 15 184 42.5Q146 70 123 113Q100 156 100 216V241H36V329H100V380H36V467H100V497Q100 551 123 593Q146 635 184.5 664.5Q223 694 272 709.5Q321 725 373 725Q422 725 469.5 713Q517 701 555 674.5Q593 648 616.5 606.5Q640 565 640 507V489H453V506Q453 542 429.5 560Q406 578 376 578Q347 578 327.5 558.5Q308 539 308 513V467H444V380H308V329H444V241H308V206Q308 171 329.5 153Q351 135 384 135Q413 135 433 153Q453 171 453 207V217H640V206Q640 148 617 107Q594 66 556.5 39.5Q519 13 471 0.5Q423 -12 374 -12Z" glyph-name="Euro" horiz-adv-x="676" unicode="&#8364;" /><glyph d="M50 713H544V550H256V431H484V267H256V0H50Z" glyph-name="F" horiz-adv-x="574" unicode="F" /><glyph d="M326 -12Q270 -12 219 1.5Q168 15 128.5 44.5Q89 74 65.5 120.5Q42 167 42 233V485Q42 546 65.5 591Q89 636 128.5 666Q168 696 219 710.5Q270 725 325 725Q374 725 422.5 714.5Q471 704 509 679.5Q547 655 571 615Q595 575 595 517V465H405V487Q405 523 383.5 541Q362 559 333 559Q296 559 273 539Q250 519 250 481V235Q250 197 270 173Q290 149 329 149Q402 149 402 219V255H305V397H595V201Q595 143 571.5 102.5Q548 62 510 36.5Q472 11 424 -0.5Q376 -12 326 -12Z" glyph-name="G" horiz-adv-x="638" unicode="G" /><glyph d="M325 762Q232 762 184.5 812Q137 862 134 946H258Q261 927 265 913Q269 899 276.5 889.5Q284 880 296 875.5Q308 871 328 871Q359 871 370.5 889.5Q382 908 384 946H503Q502 901 488 866.5Q474 832 450.5 808.5Q427 785 395 773.5Q363 762 325 762ZM326 -12Q270 -12 219 1.5Q168 15 128.5 44.5Q89 74 65.5 120.5Q42 167 42 233V485Q42 546 65.5 591Q89 636 128.5 666Q168 696 219 710.5Q270 725 325 725Q374 725 422.5 714.5Q471 704 509 679.5Q547 655 571 615Q595 575 595 517V465H405V487Q405 523 383.5 541Q362 559 333 559Q296 559 273 539Q250 519 250 481V235Q250 197 270 173Q290 149 329 149Q402 149 402 219V255H305V397H595V201Q595 143 571.5 102.5Q548 62 510 36.5Q472 11 424 -0.5Q376 -12 326 -12Z" glyph-name="Gbreve" horiz-adv-x="638" unicode="&#286;" /><glyph d="M251 932H385L506 760H364L314 839L264 760H129ZM326 -12Q270 -12 219 1.5Q168 15 128.5 44.5Q89 74 65.5 120.5Q42 167 42 233V485Q42 546 65.5 591Q89 636 128.5 666Q168 696 219 710.5Q270 725 325 725Q374 725 422.5 714.5Q471 704 509 679.5Q547 655 571 615Q595 575 595 517V465H405V487Q405 523 383.5 541Q362 559 333 559Q296 559 273 539Q250 519 250 481V235Q250 197 270 173Q290 149 329 149Q402 149 402 219V255H305V397H595V201Q595 143 571.5 102.5Q548 62 510 36.5Q472 11 424 -0.5Q376 -12 326 -12Z" glyph-name="Gcircumflex" horiz-adv-x="638" unicode="&#284;" /><glyph d="M271 -33H426L386 -218H259ZM326 -12Q270 -12 219 1.5Q168 15 128.5 44.5Q89 74 65.5 120.5Q42 167 42 233V485Q42 546 65.5 591Q89 636 128.5 666Q168 696 219 710.5Q270 725 325 725Q374 725 422.5 714.5Q471 704 509 679.5Q547 655 571 615Q595 575 595 517V465H405V487Q405 523 383.5 541Q362 559 333 559Q296 559 273 539Q250 519 250 481V235Q250 197 270 173Q290 149 329 149Q402 149 402 219V255H305V397H595V201Q595 143 571.5 102.5Q548 62 510 36.5Q472 11 424 -0.5Q376 -12 326 -12Z" glyph-name="Gcommaaccent" horiz-adv-x="638" unicode="&#290;" /><glyph d="M244 925H410V762H244ZM326 -12Q270 -12 219 1.5Q168 15 128.5 44.5Q89 74 65.5 120.5Q42 167 42 233V485Q42 546 65.5 591Q89 636 128.5 666Q168 696 219 710.5Q270 725 325 725Q374 725 422.5 714.5Q471 704 509 679.5Q547 655 571 615Q595 575 595 517V465H405V487Q405 523 383.5 541Q362 559 333 559Q296 559 273 539Q250 519 250 481V235Q250 197 270 173Q290 149 329 149Q402 149 402 219V255H305V397H595V201Q595 143 571.5 102.5Q548 62 510 36.5Q472 11 424 -0.5Q376 -12 326 -12Z" glyph-name="Gdotaccent" horiz-adv-x="638" unicode="&#288;" /><glyph d="M50 713H256V449H408V713H614V0H408V269H256V0H50Z" glyph-name="H" horiz-adv-x="664" unicode="H" /><glyph d="M421 449V543H269V449ZM12 620H63V713H269V620H421V713H627V620H679V543H627V0H421V269H269V0H63V543H12Z" glyph-name="Hbar" horiz-adv-x="691" unicode="&#294;" /><glyph d="M265 939H399L520 767H378L328 846L278 767H143ZM50 713H256V449H408V713H614V0H408V269H256V0H50Z" glyph-name="Hcircumflex" horiz-adv-x="664" unicode="&#292;" /><glyph d="M50 713H256V0H50Z" glyph-name="I" horiz-adv-x="306" unicode="I" /><glyph d="M30 713H420V549H328V164H420V0H30V164H122V549H30Z" glyph-name="I.alt" horiz-adv-x="450" unicode="&#58504;" /><glyph d="M577 -12Q513 -12 462.5 0Q412 12 376.5 39.5Q341 67 322.5 111Q304 155 304 219V265H507V225Q507 211 510 198Q513 185 520 174.5Q527 164 539.5 157.5Q552 151 572 151Q607 151 620 173.5Q633 196 633 222V713H839V235Q839 117 769.5 52.5Q700 -12 577 -12ZM50 713H256V0H50Z" glyph-name="IJ" horiz-adv-x="887" unicode="&#306;" /><glyph d="M711 -12Q647 -12 596.5 0Q546 12 510.5 39.5Q475 67 456.5 111Q438 155 438 219V265H641V225Q641 211 644 198Q647 185 654 174.5Q661 164 673.5 157.5Q686 151 706 151Q741 151 754 173.5Q767 196 767 222V713H973V235Q973 117 903.5 52.5Q834 -12 711 -12ZM30 713H420V549H328V164H420V0H30V164H122V549H30Z" glyph-name="IJ.alt" horiz-adv-x="1021" /><glyph d="M168 922H350L222 759H85ZM50 713H256V0H50Z" glyph-name="Iacute" horiz-adv-x="306" unicode="&#205;" /><glyph d="M239 922H421L293 759H156ZM30 713H420V549H328V164H420V0H30V164H122V549H30Z" glyph-name="Iacute.alt" horiz-adv-x="450" unicode="&#57651;" /><glyph d="M160 755Q67 755 19.5 805Q-28 855 -31 939H93Q96 920 100 906Q104 892 111.5 882.5Q119 873 131 868.5Q143 864 163 864Q194 864 205.5 882.5Q217 901 219 939H338Q337 894 323 859.5Q309 825 285.5 801.5Q262 778 230 766.5Q198 755 160 755ZM50 713H256V0H50Z" glyph-name="Ibreve" horiz-adv-x="306" unicode="&#300;" /><glyph d="M232 755Q139 755 91.5 805Q44 855 41 939H165Q168 920 172 906Q176 892 183.5 882.5Q191 873 203 868.5Q215 864 235 864Q266 864 277.5 882.5Q289 901 291 939H410Q409 894 395 859.5Q381 825 357.5 801.5Q334 778 302 766.5Q270 755 232 755ZM30 713H420V549H328V164H420V0H30V164H122V549H30Z" glyph-name="Ibreve.alt" horiz-adv-x="450" unicode="&#57657;" /><glyph d="M87 932H221L342 760H200L150 839L100 760H-35ZM50 713H256V0H50Z" glyph-name="Icircumflex" horiz-adv-x="306" unicode="&#206;" /><glyph d="M159 932H293L414 760H272L222 839L172 760H37ZM30 713H420V549H328V164H420V0H30V164H122V549H30Z" glyph-name="Icircumflex.alt" horiz-adv-x="450" unicode="&#57652;" /><glyph d="M182 919H337V756H182ZM-30 919H125V756H-30ZM50 713H256V0H50Z" glyph-name="Idieresis" horiz-adv-x="306" unicode="&#207;" /><glyph d="M254 919H409V756H254ZM42 919H197V756H42ZM30 713H420V549H328V164H420V0H30V164H122V549H30Z" glyph-name="Idieresis.alt" horiz-adv-x="450" unicode="&#57653;" /><glyph d="M70 918H236V755H70ZM50 713H256V0H50Z" glyph-name="Idotaccent" horiz-adv-x="306" unicode="&#304;" /><glyph d="M142 918H308V755H142ZM30 713H420V549H328V164H420V0H30V164H122V549H30Z" glyph-name="Idotaccent.alt" horiz-adv-x="450" unicode="&#57660;" /><glyph d="M-39 922H143L226 759H89ZM50 713H256V0H50Z" glyph-name="Igrave" horiz-adv-x="306" unicode="&#204;" /><glyph d="M45 922H227L310 759H173ZM30 713H420V549H328V164H420V0H30V164H122V549H30Z" glyph-name="Igrave.alt" horiz-adv-x="450" unicode="&#57650;" /><glyph d="M-21 892H327V766H-21ZM50 713H256V0H50Z" glyph-name="Imacron" horiz-adv-x="306" unicode="&#298;" /><glyph d="M51 892H399V766H51ZM30 713H420V549H328V164H420V0H30V164H122V549H30Z" glyph-name="Imacron.alt" horiz-adv-x="450" unicode="&#57656;" /><glyph d="M50 713H256V0H219Q185 -13 170.5 -35Q156 -57 156 -80Q156 -103 170 -111.5Q184 -120 203 -120Q219 -120 247 -103L285 -181Q259 -198 230 -205.5Q201 -213 169 -213Q148 -213 127 -206.5Q106 -200 89 -186.5Q72 -173 61.5 -152.5Q51 -132 51 -103Q51 -68 65 -43Q79 -18 99 0H50Z" glyph-name="Iogonek" horiz-adv-x="306" unicode="&#302;" /><glyph d="M324 -220Q300 -220 277.5 -214Q255 -208 237 -195Q219 -182 208 -161Q197 -140 197 -111Q197 -76 212 -48Q227 -20 250 0H30V164H122V549H30V713H420V549H328V164H420V0H380Q340 -13 322 -35.5Q304 -58 304 -82Q304 -106 317.5 -116.5Q331 -127 349 -127Q363 -127 380 -119.5Q397 -112 410 -103L454 -182Q433 -199 399.5 -209.5Q366 -220 324 -220Z" glyph-name="Iogonek.alt" horiz-adv-x="450" unicode="&#57662;" /><glyph d="M-56 769Q-52 799 -42 826.5Q-32 854 -16 875.5Q0 897 22.5 909.5Q45 922 74 922Q95 922 115.5 916.5Q136 911 156 904.5Q176 898 196 892.5Q216 887 237 887Q256 887 266 900.5Q276 914 284 937L363 916Q360 888 351 861Q342 834 327 813Q312 792 289.5 779.5Q267 767 237 767Q217 767 197 772.5Q177 778 157.5 784Q138 790 118.5 795.5Q99 801 79 801Q59 801 50 789.5Q41 778 33 751ZM50 713H256V0H50Z" glyph-name="Itilde" horiz-adv-x="306" unicode="&#296;" /><glyph d="M16 769Q20 799 30 826.5Q40 854 56 875.5Q72 897 94.5 909.5Q117 922 146 922Q167 922 187.5 916.5Q208 911 228 904.5Q248 898 268 892.5Q288 887 309 887Q328 887 338 900.5Q348 914 356 937L435 916Q432 888 423 861Q414 834 399 813Q384 792 361.5 779.5Q339 767 309 767Q289 767 269 772.5Q249 778 229.5 784Q210 790 190.5 795.5Q171 801 151 801Q131 801 122 789.5Q113 778 105 751ZM30 713H420V549H328V164H420V0H30V164H122V549H30Z" glyph-name="Itilde.alt" horiz-adv-x="450" unicode="&#57654;" /><glyph d="M299 -12Q235 -12 184.5 0Q134 12 98.5 39.5Q63 67 44.5 111Q26 155 26 219V265H229V225Q229 211 232 198Q235 185 242 174.5Q249 164 261.5 157.5Q274 151 294 151Q329 151 342 173.5Q355 196 355 222V713H561V235Q561 117 491.5 52.5Q422 -12 299 -12Z" glyph-name="J" horiz-adv-x="609" unicode="J" /><glyph d="M383 932H517L638 760H496L446 839L396 760H261ZM299 -12Q235 -12 184.5 0Q134 12 98.5 39.5Q63 67 44.5 111Q26 155 26 219V265H229V225Q229 211 232 198Q235 185 242 174.5Q249 164 261.5 157.5Q274 151 294 151Q329 151 342 173.5Q355 196 355 222V713H561V235Q561 117 491.5 52.5Q422 -12 299 -12Z" glyph-name="Jcircumflex" horiz-adv-x="609" unicode="&#308;" /><glyph d="M50 713H256V403L434 713H634L465 431L636 0H413L310 279L256 202V0H50Z" glyph-name="K" horiz-adv-x="650" unicode="K" /><glyph d="M255 -33H410L370 -218H243ZM50 713H256V403L434 713H634L465 431L636 0H413L310 279L256 202V0H50Z" glyph-name="Kcommaaccent" horiz-adv-x="650" unicode="&#310;" /><glyph d="M50 713H256V164H545V0H50Z" glyph-name="L" horiz-adv-x="577" unicode="L" /><glyph d="M178 922H360L232 759H95ZM50 713H256V164H545V0H50Z" glyph-name="Lacute" horiz-adv-x="577" unicode="&#313;" /><glyph d="M308 714H463L423 492H296ZM50 713H256V164H545V0H50Z" glyph-name="Lcaron" horiz-adv-x="577" unicode="&#317;" /><glyph d="M235 -33H390L350 -218H223ZM50 713H256V164H545V0H50Z" glyph-name="Lcommaaccent" horiz-adv-x="577" unicode="&#315;" /><glyph d="M310 512H476V349H310ZM50 713H256V164H545V0H50Z" glyph-name="Ldot" horiz-adv-x="577" unicode="&#319;" /><glyph d="M32 347 82 375V713H288V493L372 541V426L288 378V164H577V0H82V260L32 232Z" glyph-name="Lslash" horiz-adv-x="609" unicode="&#321;" /><glyph d="M50 713H314L401 435H404L491 713H740V0H560V445H558L463 127H329L232 445H229V0H50Z" glyph-name="M" horiz-adv-x="790" unicode="M" /><glyph d="M50 713H252L439 401H441V713H626V0H454L237 356H235V0H50Z" glyph-name="N" horiz-adv-x="676" unicode="N" /><glyph d="M341 922H523L395 759H258ZM50 713H252L439 401H441V713H626V0H454L237 356H235V0H50Z" glyph-name="Nacute" horiz-adv-x="676" unicode="&#323;" /><glyph d="M147 940H289L339 861L389 940H529L402 768H268ZM50 713H252L439 401H441V713H626V0H454L237 356H235V0H50Z" glyph-name="Ncaron" horiz-adv-x="676" unicode="&#327;" /><glyph d="M284 -33H439L399 -218H272ZM50 713H252L439 401H441V713H626V0H454L237 356H235V0H50Z" glyph-name="Ncommaaccent" horiz-adv-x="676" unicode="&#325;" /><glyph d="M139 769Q143 799 153 826.5Q163 854 179 875.5Q195 897 217.5 909.5Q240 922 269 922Q290 922 310.5 916.5Q331 911 351 904.5Q371 898 391 892.5Q411 887 432 887Q451 887 461 900.5Q471 914 479 937L558 916Q555 888 546 861Q537 834 522 813Q507 792 484.5 779.5Q462 767 432 767Q412 767 392 772.5Q372 778 352.5 784Q333 790 313.5 795.5Q294 801 274 801Q254 801 245 789.5Q236 778 228 751ZM50 713H252L439 401H441V713H626V0H454L237 356H235V0H50Z" glyph-name="Ntilde" horiz-adv-x="676" unicode="&#209;" /><glyph d="M330 155Q366 155 387 177Q408 199 408 237V477Q408 518 384 538Q360 558 328 558Q250 558 250 477V240Q250 199 270 177Q290 155 330 155ZM329 -12Q272 -12 220 1Q168 14 128.5 44Q89 74 65.5 122.5Q42 171 42 241V470Q42 535 65 583Q88 631 127.5 662.5Q167 694 218.5 709.5Q270 725 327 725Q383 725 435.5 711.5Q488 698 528 667.5Q568 637 592 588.5Q616 540 616 470V242Q616 173 591.5 125Q567 77 527 46.5Q487 16 435.5 2Q384 -12 329 -12Z" glyph-name="O" horiz-adv-x="658" unicode="O" /><glyph d="M330 156Q366 156 387 178Q408 200 408 238V482Q408 523 384 540Q360 557 328 557Q250 557 250 476V241Q250 200 270 178Q290 156 330 156ZM306 -11Q249 -11 200.5 2Q152 15 116.5 45Q81 75 61.5 123.5Q42 172 42 242V469Q42 534 61.5 582Q81 630 116 661.5Q151 693 199 708.5Q247 724 304 724Q330 724 359 716Q388 708 408 694V713H903V550H614V439H843V276H614V164H903V0H408V17Q388 4 360 -3.5Q332 -11 306 -11Z" glyph-name="OE" horiz-adv-x="943" unicode="&#338;" /><glyph d="M335 922H517L389 759H252ZM330 155Q366 155 387 177Q408 199 408 237V477Q408 518 384 538Q360 558 328 558Q250 558 250 477V240Q250 199 270 177Q290 155 330 155ZM329 -12Q272 -12 220 1Q168 14 128.5 44Q89 74 65.5 122.5Q42 171 42 241V470Q42 535 65 583Q88 631 127.5 662.5Q167 694 218.5 709.5Q270 725 327 725Q383 725 435.5 711.5Q488 698 528 667.5Q568 637 592 588.5Q616 540 616 470V242Q616 173 591.5 125Q567 77 527 46.5Q487 16 435.5 2Q384 -12 329 -12Z" glyph-name="Oacute" horiz-adv-x="658" unicode="&#211;" /><glyph d="M336 755Q243 755 195.5 805Q148 855 145 939H269Q272 920 276 906Q280 892 287.5 882.5Q295 873 307 868.5Q319 864 339 864Q370 864 381.5 882.5Q393 901 395 939H514Q513 894 499 859.5Q485 825 461.5 801.5Q438 778 406 766.5Q374 755 336 755ZM330 155Q366 155 387 177Q408 199 408 237V477Q408 518 384 538Q360 558 328 558Q250 558 250 477V240Q250 199 270 177Q290 155 330 155ZM329 -12Q272 -12 220 1Q168 14 128.5 44Q89 74 65.5 122.5Q42 171 42 241V470Q42 535 65 583Q88 631 127.5 662.5Q167 694 218.5 709.5Q270 725 327 725Q383 725 435.5 711.5Q488 698 528 667.5Q568 637 592 588.5Q616 540 616 470V242Q616 173 591.5 125Q567 77 527 46.5Q487 16 435.5 2Q384 -12 329 -12Z" glyph-name="Obreve" horiz-adv-x="658" unicode="&#334;" /><glyph d="M263 932H397L518 760H376L326 839L276 760H141ZM330 155Q366 155 387 177Q408 199 408 237V477Q408 518 384 538Q360 558 328 558Q250 558 250 477V240Q250 199 270 177Q290 155 330 155ZM329 -12Q272 -12 220 1Q168 14 128.5 44Q89 74 65.5 122.5Q42 171 42 241V470Q42 535 65 583Q88 631 127.5 662.5Q167 694 218.5 709.5Q270 725 327 725Q383 725 435.5 711.5Q488 698 528 667.5Q568 637 592 588.5Q616 540 616 470V242Q616 173 591.5 125Q567 77 527 46.5Q487 16 435.5 2Q384 -12 329 -12Z" glyph-name="Ocircumflex" horiz-adv-x="658" unicode="&#212;" /><glyph d="M358 919H513V756H358ZM146 919H301V756H146ZM330 155Q366 155 387 177Q408 199 408 237V477Q408 518 384 538Q360 558 328 558Q250 558 250 477V240Q250 199 270 177Q290 155 330 155ZM329 -12Q272 -12 220 1Q168 14 128.5 44Q89 74 65.5 122.5Q42 171 42 241V470Q42 535 65 583Q88 631 127.5 662.5Q167 694 218.5 709.5Q270 725 327 725Q383 725 435.5 711.5Q488 698 528 667.5Q568 637 592 588.5Q616 540 616 470V242Q616 173 591.5 125Q567 77 527 46.5Q487 16 435.5 2Q384 -12 329 -12Z" glyph-name="Odieresis" horiz-adv-x="658" unicode="&#214;" /><glyph d="M138 922H320L403 759H266ZM330 155Q366 155 387 177Q408 199 408 237V477Q408 518 384 538Q360 558 328 558Q250 558 250 477V240Q250 199 270 177Q290 155 330 155ZM329 -12Q272 -12 220 1Q168 14 128.5 44Q89 74 65.5 122.5Q42 171 42 241V470Q42 535 65 583Q88 631 127.5 662.5Q167 694 218.5 709.5Q270 725 327 725Q383 725 435.5 711.5Q488 698 528 667.5Q568 637 592 588.5Q616 540 616 470V242Q616 173 591.5 125Q567 77 527 46.5Q487 16 435.5 2Q384 -12 329 -12Z" glyph-name="Ograve" horiz-adv-x="658" unicode="&#210;" /><glyph d="M427 918H578L481 757H358ZM214 918H365L280 757H153ZM330 155Q366 155 387 177Q408 199 408 237V477Q408 518 384 538Q360 558 328 558Q250 558 250 477V240Q250 199 270 177Q290 155 330 155ZM329 -12Q272 -12 220 1Q168 14 128.5 44Q89 74 65.5 122.5Q42 171 42 241V470Q42 535 65 583Q88 631 127.5 662.5Q167 694 218.5 709.5Q270 725 327 725Q383 725 435.5 711.5Q488 698 528 667.5Q568 637 592 588.5Q616 540 616 470V242Q616 173 591.5 125Q567 77 527 46.5Q487 16 435.5 2Q384 -12 329 -12Z" glyph-name="Ohungarumlaut" horiz-adv-x="658" unicode="&#336;" /><glyph d="M155 892H503V766H155ZM330 155Q366 155 387 177Q408 199 408 237V477Q408 518 384 538Q360 558 328 558Q250 558 250 477V240Q250 199 270 177Q290 155 330 155ZM329 -12Q272 -12 220 1Q168 14 128.5 44Q89 74 65.5 122.5Q42 171 42 241V470Q42 535 65 583Q88 631 127.5 662.5Q167 694 218.5 709.5Q270 725 327 725Q383 725 435.5 711.5Q488 698 528 667.5Q568 637 592 588.5Q616 540 616 470V242Q616 173 591.5 125Q567 77 527 46.5Q487 16 435.5 2Q384 -12 329 -12Z" glyph-name="Omacron" horiz-adv-x="658" unicode="&#332;" /><glyph d="M46 167 192 160V172Q169 180 141.5 196.5Q114 213 90.5 241.5Q67 270 50.5 313Q34 356 34 418V456Q34 518 51.5 567.5Q69 617 104 652Q139 687 193 706Q247 725 320 725Q395 725 450 706Q505 687 540.5 652.5Q576 618 593 569Q610 520 610 460V418Q610 359 594 316.5Q578 274 554 245Q530 216 502.5 198.5Q475 181 451 172V160L599 167V0H346V174Q361 188 371.5 199Q382 210 388 227.5Q394 245 397 274.5Q400 304 400 355V481Q400 516 378 537Q356 558 320 558Q283 558 262.5 535.5Q242 513 242 461V364Q242 322 242 294.5Q242 267 247 246.5Q252 226 263.5 210Q275 194 298 174V0H46Z" glyph-name="Omega" horiz-adv-x="644" unicode="&#8486;" /><glyph d="M250 285 381 540Q358 558 328 558Q250 558 250 477ZM330 155Q366 155 387 177Q408 199 408 237V432L274 173Q293 155 330 155ZM88 -30 127 45Q88 75 65 123Q42 171 42 241V470Q42 535 65 583Q88 631 127.5 662.5Q167 694 218.5 709.5Q270 725 327 725Q363 725 397.5 719.5Q432 714 464 702L502 775L570 747L528 667Q568 636 592 588Q616 540 616 470V242Q616 173 591.5 125Q567 77 527 46.5Q487 16 435.5 2Q384 -12 329 -12Q291 -12 256.5 -6.5Q222 -1 191 10L156 -58Z" glyph-name="Oslash" horiz-adv-x="658" unicode="&#216;" /><glyph d="M250 283 382 539Q360 558 328 558Q250 558 250 477ZM330 155Q366 155 387 177Q408 199 408 237V430L275 172Q295 155 330 155ZM335 922H517L389 759H252ZM88 -30 127 45Q88 75 65 123Q42 171 42 241V470Q42 535 65 583Q88 631 127.5 662.5Q167 694 218.5 709.5Q270 725 327 725Q364 725 399 719.5Q434 714 466 701L507 781L575 753L530 666Q569 635 592.5 587Q616 539 616 470V242Q616 173 591.5 125Q567 77 527 46.5Q487 16 435.5 2Q384 -12 329 -12Q253 -12 191 10L156 -58Z" glyph-name="Oslashacute" horiz-adv-x="658" unicode="&#510;" /><glyph d="M120 769Q124 799 134 826.5Q144 854 160 875.5Q176 897 198.5 909.5Q221 922 250 922Q271 922 291.5 916.5Q312 911 332 904.5Q352 898 372 892.5Q392 887 413 887Q432 887 442 900.5Q452 914 460 937L539 916Q536 888 527 861Q518 834 503 813Q488 792 465.5 779.5Q443 767 413 767Q393 767 373 772.5Q353 778 333.5 784Q314 790 294.5 795.5Q275 801 255 801Q235 801 226 789.5Q217 778 209 751ZM330 155Q366 155 387 177Q408 199 408 237V477Q408 518 384 538Q360 558 328 558Q250 558 250 477V240Q250 199 270 177Q290 155 330 155ZM329 -12Q272 -12 220 1Q168 14 128.5 44Q89 74 65.5 122.5Q42 171 42 241V470Q42 535 65 583Q88 631 127.5 662.5Q167 694 218.5 709.5Q270 725 327 725Q383 725 435.5 711.5Q488 698 528 667.5Q568 637 592 588.5Q616 540 616 470V242Q616 173 591.5 125Q567 77 527 46.5Q487 16 435.5 2Q384 -12 329 -12Z" glyph-name="Otilde" horiz-adv-x="658" unicode="&#213;" /><glyph d="M323 387Q357 387 374.5 411Q392 435 392 473Q392 509 375.5 531.5Q359 554 324 554H256V387ZM50 713H361Q420 713 464 695Q508 677 536.5 646Q565 615 579 573Q593 531 593 482Q593 432 580 387Q567 342 539 307.5Q511 273 467 253Q423 233 360 233H256V0H50Z" glyph-name="P" horiz-adv-x="631" unicode="P" /><glyph d="M330 155Q366 155 387 177Q408 199 408 237V477Q408 518 384 538Q360 558 328 558Q250 558 250 477V240Q250 199 270 177Q290 155 330 155ZM365 -10Q356 -11 347 -11.5Q338 -12 329 -12Q272 -12 220 1Q168 14 128.5 44Q89 74 65.5 122.5Q42 171 42 241V470Q42 535 65 583Q88 631 127.5 662.5Q167 694 218.5 709.5Q270 725 327 725Q383 725 435.5 711.5Q488 698 528 667.5Q568 637 592 588.5Q616 540 616 470V242Q616 189 601.5 149Q587 109 562 80L653 34L524 -122Z" glyph-name="Q" horiz-adv-x="658" unicode="Q" /><glyph d="M336 391Q370 391 388.5 412Q407 433 407 473Q407 509 389.5 531.5Q372 554 337 554H256V391ZM50 713H362Q425 713 471 696.5Q517 680 548 650Q579 620 594 579Q609 538 609 489Q609 419 582.5 366Q556 313 500 284L629 0H404L314 247H256V0H50Z" glyph-name="R" horiz-adv-x="651" unicode="R" /><glyph d="M310 922H492L364 759H227ZM336 391Q370 391 388.5 412Q407 433 407 473Q407 509 389.5 531.5Q372 554 337 554H256V391ZM50 713H362Q425 713 471 696.5Q517 680 548 650Q579 620 594 579Q609 538 609 489Q609 419 582.5 366Q556 313 500 284L629 0H404L314 247H256V0H50Z" glyph-name="Racute" horiz-adv-x="651" unicode="&#340;" /><glyph d="M121 940H263L313 861L363 940H503L376 768H242ZM336 391Q370 391 388.5 412Q407 433 407 473Q407 509 389.5 531.5Q372 554 337 554H256V391ZM50 713H362Q425 713 471 696.5Q517 680 548 650Q579 620 594 579Q609 538 609 489Q609 419 582.5 366Q556 313 500 284L629 0H404L314 247H256V0H50Z" glyph-name="Rcaron" horiz-adv-x="651" unicode="&#344;" /><glyph d="M255 -33H410L370 -218H243ZM336 391Q370 391 388.5 412Q407 433 407 473Q407 509 389.5 531.5Q372 554 337 554H256V391ZM50 713H362Q425 713 471 696.5Q517 680 548 650Q579 620 594 579Q609 538 609 489Q609 419 582.5 366Q556 313 500 284L629 0H404L314 247H256V0H50Z" glyph-name="Rcommaaccent" horiz-adv-x="651" unicode="&#342;" /><glyph d="M294 -12Q214 -12 140.5 12Q67 36 16 89L121 218Q136 204 156 191Q176 178 198 167.5Q220 157 243.5 150.5Q267 144 290 144Q319 144 340 156.5Q361 169 361 192Q361 215 341.5 227Q322 239 296 249L202 285Q128 314 89 365Q50 416 50 492Q50 539 68.5 581.5Q87 624 121.5 655.5Q156 687 205 705.5Q254 724 314 724Q347 724 381.5 720Q416 716 449 706.5Q482 697 512 681.5Q542 666 567 642L470 511Q455 523 436.5 534.5Q418 546 397.5 554.5Q377 563 357 568.5Q337 574 320 574Q286 574 267.5 560.5Q249 547 249 524Q249 511 257.5 502Q266 493 280 486Q294 479 310.5 473Q327 467 344 460L422 426Q503 391 541.5 340.5Q580 290 580 221Q580 159 555 115Q530 71 489.5 43Q449 15 397.5 1.5Q346 -12 294 -12Z" glyph-name="S" horiz-adv-x="615" unicode="S" /><glyph d="M310 922H492L364 759H227ZM294 -12Q214 -12 140.5 12Q67 36 16 89L121 218Q136 204 156 191Q176 178 198 167.5Q220 157 243.5 150.5Q267 144 290 144Q319 144 340 156.5Q361 169 361 192Q361 215 341.5 227Q322 239 296 249L202 285Q128 314 89 365Q50 416 50 492Q50 539 68.5 581.5Q87 624 121.5 655.5Q156 687 205 705.5Q254 724 314 724Q347 724 381.5 720Q416 716 449 706.5Q482 697 512 681.5Q542 666 567 642L470 511Q455 523 436.5 534.5Q418 546 397.5 554.5Q377 563 357 568.5Q337 574 320 574Q286 574 267.5 560.5Q249 547 249 524Q249 511 257.5 502Q266 493 280 486Q294 479 310.5 473Q327 467 344 460L422 426Q503 391 541.5 340.5Q580 290 580 221Q580 159 555 115Q530 71 489.5 43Q449 15 397.5 1.5Q346 -12 294 -12Z" glyph-name="Sacute" horiz-adv-x="615" unicode="&#346;" /><glyph d="M107 940H249L299 861L349 940H489L362 768H228ZM294 -12Q214 -12 140.5 12Q67 36 16 89L121 218Q136 204 156 191Q176 178 198 167.5Q220 157 243.5 150.5Q267 144 290 144Q319 144 340 156.5Q361 169 361 192Q361 215 341.5 227Q322 239 296 249L202 285Q128 314 89 365Q50 416 50 492Q50 539 68.5 581.5Q87 624 121.5 655.5Q156 687 205 705.5Q254 724 314 724Q347 724 381.5 720Q416 716 449 706.5Q482 697 512 681.5Q542 666 567 642L470 511Q455 523 436.5 534.5Q418 546 397.5 554.5Q377 563 357 568.5Q337 574 320 574Q286 574 267.5 560.5Q249 547 249 524Q249 511 257.5 502Q266 493 280 486Q294 479 310.5 473Q327 467 344 460L422 426Q503 391 541.5 340.5Q580 290 580 221Q580 159 555 115Q530 71 489.5 43Q449 15 397.5 1.5Q346 -12 294 -12Z" glyph-name="Scaron" horiz-adv-x="615" unicode="&#352;" /><glyph d="M288 -218Q266 -218 236.5 -216Q207 -214 178 -206V-132Q205 -139 234 -142.5Q263 -146 280 -146Q300 -146 307.5 -140Q315 -134 315 -125Q315 -112 302 -108.5Q289 -105 278 -104L227 -101L252 -10Q183 -5 122 19Q61 43 16 89L121 218Q136 204 156 191Q176 178 198 167.5Q220 157 243.5 150.5Q267 144 290 144Q319 144 340 156.5Q361 169 361 192Q361 215 341.5 227Q322 239 296 249L202 285Q128 314 89 365Q50 416 50 492Q50 539 68.5 581.5Q87 624 121.5 655.5Q156 687 205 705.5Q254 724 314 724Q347 724 381.5 720Q416 716 449 706.5Q482 697 512 681.5Q542 666 567 642L470 511Q455 523 436.5 534.5Q418 546 397.5 554.5Q377 563 357 568.5Q337 574 320 574Q286 574 267.5 560.5Q249 547 249 524Q249 511 257.5 502Q266 493 280 486Q294 479 310.5 473Q327 467 344 460L422 426Q503 391 541.5 340.5Q580 290 580 221Q580 164 558 121.5Q536 79 500 51Q464 23 417.5 7.5Q371 -8 322 -11L312 -49Q330 -49 352 -51Q374 -53 392.5 -60.5Q411 -68 424 -82.5Q437 -97 437 -120Q437 -143 424.5 -161.5Q412 -180 391.5 -192.5Q371 -205 344 -211.5Q317 -218 288 -218Z" glyph-name="Scedilla" horiz-adv-x="615" unicode="&#350;" /><glyph d="M232 932H366L487 760H345L295 839L245 760H110ZM294 -12Q214 -12 140.5 12Q67 36 16 89L121 218Q136 204 156 191Q176 178 198 167.5Q220 157 243.5 150.5Q267 144 290 144Q319 144 340 156.5Q361 169 361 192Q361 215 341.5 227Q322 239 296 249L202 285Q128 314 89 365Q50 416 50 492Q50 539 68.5 581.5Q87 624 121.5 655.5Q156 687 205 705.5Q254 724 314 724Q347 724 381.5 720Q416 716 449 706.5Q482 697 512 681.5Q542 666 567 642L470 511Q455 523 436.5 534.5Q418 546 397.5 554.5Q377 563 357 568.5Q337 574 320 574Q286 574 267.5 560.5Q249 547 249 524Q249 511 257.5 502Q266 493 280 486Q294 479 310.5 473Q327 467 344 460L422 426Q503 391 541.5 340.5Q580 290 580 221Q580 159 555 115Q530 71 489.5 43Q449 15 397.5 1.5Q346 -12 294 -12Z" glyph-name="Scircumflex" horiz-adv-x="615" unicode="&#348;" /><glyph d="M237 -33H392L352 -218H225ZM294 -12Q214 -12 140.5 12Q67 36 16 89L121 218Q136 204 156 191Q176 178 198 167.5Q220 157 243.5 150.5Q267 144 290 144Q319 144 340 156.5Q361 169 361 192Q361 215 341.5 227Q322 239 296 249L202 285Q128 314 89 365Q50 416 50 492Q50 539 68.5 581.5Q87 624 121.5 655.5Q156 687 205 705.5Q254 724 314 724Q347 724 381.5 720Q416 716 449 706.5Q482 697 512 681.5Q542 666 567 642L470 511Q455 523 436.5 534.5Q418 546 397.5 554.5Q377 563 357 568.5Q337 574 320 574Q286 574 267.5 560.5Q249 547 249 524Q249 511 257.5 502Q266 493 280 486Q294 479 310.5 473Q327 467 344 460L422 426Q503 391 541.5 340.5Q580 290 580 221Q580 159 555 115Q530 71 489.5 43Q449 15 397.5 1.5Q346 -12 294 -12Z" glyph-name="Scommaaccent" horiz-adv-x="615" unicode="&#536;" /><glyph d="M197 550H20V713H582V550H405V0H197Z" glyph-name="T" horiz-adv-x="602" unicode="T" /><glyph d="M84 388H197V550H20V713H582V550H405V388H517V303H405V0H197V303H84Z" glyph-name="Tbar" horiz-adv-x="602" unicode="&#358;" /><glyph d="M110 940H252L302 861L352 940H492L365 768H231ZM197 550H20V713H582V550H405V0H197Z" glyph-name="Tcaron" horiz-adv-x="602" unicode="&#356;" /><glyph d="M231 -33H386L346 -218H219ZM197 550H20V713H582V550H405V0H197Z" glyph-name="Tcommaaccent" horiz-adv-x="602" unicode="&#354;" /><glyph d="M323 285Q357 285 374.5 307.5Q392 330 392 365Q392 399 375.5 419.5Q359 440 324 440H256V285ZM50 713H256V587H361Q420 587 464 570.5Q508 554 536.5 525.5Q565 497 579 458Q593 419 593 373Q593 326 580 284Q567 242 539 210.5Q511 179 467 160Q423 141 360 141H256V0H50Z" glyph-name="Thorn" horiz-adv-x="631" unicode="&#222;" /><glyph d="M330 -12Q264 -12 211.5 2.5Q159 17 122.5 47.5Q86 78 66 125Q46 172 46 236V713H252V242Q252 196 275.5 174Q299 152 334 152Q368 152 389.5 175.5Q411 199 411 242V713H610V250Q610 186 590.5 137Q571 88 534.5 55Q498 22 446 5Q394 -12 330 -12Z" glyph-name="U" horiz-adv-x="656" unicode="U" /><glyph d="M341 922H523L395 759H258ZM330 -12Q264 -12 211.5 2.5Q159 17 122.5 47.5Q86 78 66 125Q46 172 46 236V713H252V242Q252 196 275.5 174Q299 152 334 152Q368 152 389.5 175.5Q411 199 411 242V713H610V250Q610 186 590.5 137Q571 88 534.5 55Q498 22 446 5Q394 -12 330 -12Z" glyph-name="Uacute" horiz-adv-x="656" unicode="&#218;" /><glyph d="M335 755Q242 755 194.5 805Q147 855 144 939H268Q271 920 275 906Q279 892 286.5 882.5Q294 873 306 868.5Q318 864 338 864Q369 864 380.5 882.5Q392 901 394 939H513Q512 894 498 859.5Q484 825 460.5 801.5Q437 778 405 766.5Q373 755 335 755ZM330 -12Q264 -12 211.5 2.5Q159 17 122.5 47.5Q86 78 66 125Q46 172 46 236V713H252V242Q252 196 275.5 174Q299 152 334 152Q368 152 389.5 175.5Q411 199 411 242V713H610V250Q610 186 590.5 137Q571 88 534.5 55Q498 22 446 5Q394 -12 330 -12Z" glyph-name="Ubreve" horiz-adv-x="656" unicode="&#364;" /><glyph d="M262 932H396L517 760H375L325 839L275 760H140ZM330 -12Q264 -12 211.5 2.5Q159 17 122.5 47.5Q86 78 66 125Q46 172 46 236V713H252V242Q252 196 275.5 174Q299 152 334 152Q368 152 389.5 175.5Q411 199 411 242V713H610V250Q610 186 590.5 137Q571 88 534.5 55Q498 22 446 5Q394 -12 330 -12Z" glyph-name="Ucircumflex" horiz-adv-x="656" unicode="&#219;" /><glyph d="M357 919H512V756H357ZM145 919H300V756H145ZM330 -12Q264 -12 211.5 2.5Q159 17 122.5 47.5Q86 78 66 125Q46 172 46 236V713H252V242Q252 196 275.5 174Q299 152 334 152Q368 152 389.5 175.5Q411 199 411 242V713H610V250Q610 186 590.5 137Q571 88 534.5 55Q498 22 446 5Q394 -12 330 -12Z" glyph-name="Udieresis" horiz-adv-x="656" unicode="&#220;" /><glyph d="M148 922H330L413 759H276ZM330 -12Q264 -12 211.5 2.5Q159 17 122.5 47.5Q86 78 66 125Q46 172 46 236V713H252V242Q252 196 275.5 174Q299 152 334 152Q368 152 389.5 175.5Q411 199 411 242V713H610V250Q610 186 590.5 137Q571 88 534.5 55Q498 22 446 5Q394 -12 330 -12Z" glyph-name="Ugrave" horiz-adv-x="656" unicode="&#217;" /><glyph d="M435 918H586L489 757H366ZM222 918H373L288 757H161ZM330 -12Q264 -12 211.5 2.5Q159 17 122.5 47.5Q86 78 66 125Q46 172 46 236V713H252V242Q252 196 275.5 174Q299 152 334 152Q368 152 389.5 175.5Q411 199 411 242V713H610V250Q610 186 590.5 137Q571 88 534.5 55Q498 22 446 5Q394 -12 330 -12Z" glyph-name="Uhungarumlaut" horiz-adv-x="656" unicode="&#368;" /><glyph d="M154 892H502V766H154ZM330 -12Q264 -12 211.5 2.5Q159 17 122.5 47.5Q86 78 66 125Q46 172 46 236V713H252V242Q252 196 275.5 174Q299 152 334 152Q368 152 389.5 175.5Q411 199 411 242V713H610V250Q610 186 590.5 137Q571 88 534.5 55Q498 22 446 5Q394 -12 330 -12Z" glyph-name="Umacron" horiz-adv-x="656" unicode="&#362;" /><glyph d="M391 -220Q367 -220 344.5 -214Q322 -208 304 -195Q286 -182 275 -161Q264 -140 264 -111Q264 -80 275 -55.5Q286 -31 305 -11Q185 -6 115.5 54Q46 114 46 236V713H252V242Q252 196 275.5 174Q299 152 334 152Q368 152 389.5 175.5Q411 199 411 242V713H610V250Q610 146 560 82.5Q510 19 421 -2Q397 -19 384 -40.5Q371 -62 371 -82Q371 -106 384.5 -116.5Q398 -127 416 -127Q430 -127 447 -119.5Q464 -112 477 -103L521 -182Q500 -199 466.5 -209.5Q433 -220 391 -220Z" glyph-name="Uogonek" horiz-adv-x="656" unicode="&#370;" /><glyph d="M327 804Q349 804 359 818.5Q369 833 369 854Q369 876 359 890Q349 904 325 904Q303 904 294 889.5Q285 875 285 854Q285 833 295 818.5Q305 804 327 804ZM327 745Q282 745 250 773Q218 801 218 852Q218 876 226.5 896.5Q235 917 250 931.5Q265 946 285 954.5Q305 963 327 963Q374 963 406 936Q438 909 438 858Q438 834 429 813.5Q420 793 405 777.5Q390 762 369.5 753.5Q349 745 327 745ZM330 -12Q264 -12 211.5 2.5Q159 17 122.5 47.5Q86 78 66 125Q46 172 46 236V713H252V242Q252 196 275.5 174Q299 152 334 152Q368 152 389.5 175.5Q411 199 411 242V713H610V250Q610 186 590.5 137Q571 88 534.5 55Q498 22 446 5Q394 -12 330 -12Z" glyph-name="Uring" horiz-adv-x="656" unicode="&#366;" /><glyph d="M139 769Q143 799 153 826.5Q163 854 179 875.5Q195 897 217.5 909.5Q240 922 269 922Q290 922 310.5 916.5Q331 911 351 904.5Q371 898 391 892.5Q411 887 432 887Q451 887 461 900.5Q471 914 479 937L558 916Q555 888 546 861Q537 834 522 813Q507 792 484.5 779.5Q462 767 432 767Q412 767 392 772.5Q372 778 352.5 784Q333 790 313.5 795.5Q294 801 274 801Q254 801 245 789.5Q236 778 228 751ZM330 -12Q264 -12 211.5 2.5Q159 17 122.5 47.5Q86 78 66 125Q46 172 46 236V713H252V242Q252 196 275.5 174Q299 152 334 152Q368 152 389.5 175.5Q411 199 411 242V713H610V250Q610 186 590.5 137Q571 88 534.5 55Q498 22 446 5Q394 -12 330 -12Z" glyph-name="Utilde" horiz-adv-x="656" unicode="&#360;" /><glyph d="M14 713H226L327 275H331L427 713H616L424 -1H206Z" glyph-name="V" horiz-adv-x="630" unicode="V" /><glyph d="M12 713H214L288 340H291L369 713H556L628 340H629L702 713H890L733 -1H539L452 400H447L357 -1H169Z" glyph-name="W" horiz-adv-x="902" unicode="W" /><glyph d="M481 922H663L535 759H398ZM12 713H214L288 340H291L369 713H556L628 340H629L702 713H890L733 -1H539L452 400H447L357 -1H169Z" glyph-name="Wacute" horiz-adv-x="902" unicode="&#7810;" /><glyph d="M385 932H519L640 760H498L448 839L398 760H263ZM12 713H214L288 340H291L369 713H556L628 340H629L702 713H890L733 -1H539L452 400H447L357 -1H169Z" glyph-name="Wcircumflex" horiz-adv-x="902" unicode="&#372;" /><glyph d="M480 919H635V756H480ZM268 919H423V756H268ZM12 713H214L288 340H291L369 713H556L628 340H629L702 713H890L733 -1H539L452 400H447L357 -1H169Z" glyph-name="Wdieresis" horiz-adv-x="902" unicode="&#7812;" /><glyph d="M270 922H452L535 759H398ZM12 713H214L288 340H291L369 713H556L628 340H629L702 713H890L733 -1H539L452 400H447L357 -1H169Z" glyph-name="Wgrave" horiz-adv-x="902" unicode="&#7808;" /><glyph d="M199 365 24 713H246L335 520L420 713H623L447 366L635 0H413L314 209L215 0H12Z" glyph-name="X" horiz-adv-x="647" unicode="X" /><glyph d="M214 275 8 713H226L332 455L434 713H627L421 274V0H214Z" glyph-name="Y" horiz-adv-x="635" unicode="Y" /><glyph d="M337 922H519L391 759H254ZM214 275 8 713H226L332 455L434 713H627L421 274V0H214Z" glyph-name="Yacute" horiz-adv-x="635" unicode="&#221;" /><glyph d="M251 932H385L506 760H364L314 839L264 760H129ZM214 275 8 713H226L332 455L434 713H627L421 274V0H214Z" glyph-name="Ycircumflex" horiz-adv-x="635" unicode="&#374;" /><glyph d="M346 919H501V756H346ZM134 919H289V756H134ZM214 275 8 713H226L332 455L434 713H627L421 274V0H214Z" glyph-name="Ydieresis" horiz-adv-x="635" unicode="&#376;" /><glyph d="M135 922H317L400 759H263ZM214 275 8 713H226L332 455L434 713H627L421 274V0H214Z" glyph-name="Ygrave" horiz-adv-x="635" unicode="&#7922;" /><glyph d="M44 122 312 550H44V713H553V571L299 164H551V0H44Z" glyph-name="Z" horiz-adv-x="593" unicode="Z" /><glyph d="M309 922H491L363 759H226ZM44 122 312 550H44V713H553V571L299 164H551V0H44Z" glyph-name="Zacute" horiz-adv-x="593" unicode="&#377;" /><glyph d="M107 940H249L299 861L349 940H489L362 768H228ZM44 122 312 550H44V713H553V571L299 164H551V0H44Z" glyph-name="Zcaron" horiz-adv-x="593" unicode="&#381;" /><glyph d="M215 918H381V755H215ZM44 122 312 550H44V713H553V571L299 164H551V0H44Z" glyph-name="Zdotaccent" horiz-adv-x="593" unicode="&#379;" /><glyph d="M275 122Q283 122 292 124.5Q301 127 309 134Q317 141 322.5 152.5Q328 164 328 181V231H298Q268 231 247.5 218Q227 205 227 174Q227 151 240 136.5Q253 122 275 122ZM190 -11Q158 -11 130 -1.5Q102 8 81 27Q60 46 48 75.5Q36 105 36 145Q36 197 60.5 232Q85 267 122.5 288Q160 309 205 317.5Q250 326 291 326H328V374Q328 394 314.5 408Q301 422 272 422Q255 422 245 416.5Q235 411 229 403Q223 395 221 386Q219 377 219 369V353H49V378Q49 419 68 451Q87 483 119 505.5Q151 528 194.5 540Q238 552 288 552Q334 552 375.5 540.5Q417 529 449 506Q481 483 500 447.5Q519 412 519 363V121Q519 100 520 79.5Q521 59 522.5 42.5Q524 26 525.5 14.5Q527 3 527 0H350Q349 7 347 18Q345 28 344 43Q343 58 341 81H336Q324 52 304.5 34Q285 16 264.5 6Q244 -4 224 -7.5Q204 -11 190 -11Z" glyph-name="a" horiz-adv-x="565" unicode="a" /><glyph d="M296 756H478L350 593H213ZM275 122Q283 122 292 124.5Q301 127 309 134Q317 141 322.5 152.5Q328 164 328 181V231H298Q268 231 247.5 218Q227 205 227 174Q227 151 240 136.5Q253 122 275 122ZM190 -11Q158 -11 130 -1.5Q102 8 81 27Q60 46 48 75.5Q36 105 36 145Q36 197 60.5 232Q85 267 122.5 288Q160 309 205 317.5Q250 326 291 326H328V374Q328 394 314.5 408Q301 422 272 422Q255 422 245 416.5Q235 411 229 403Q223 395 221 386Q219 377 219 369V353H49V378Q49 419 68 451Q87 483 119 505.5Q151 528 194.5 540Q238 552 288 552Q334 552 375.5 540.5Q417 529 449 506Q481 483 500 447.5Q519 412 519 363V121Q519 100 520 79.5Q521 59 522.5 42.5Q524 26 525.5 14.5Q527 3 527 0H350Q349 7 347 18Q345 28 344 43Q343 58 341 81H336Q324 52 304.5 34Q285 16 264.5 6Q244 -4 224 -7.5Q204 -11 190 -11Z" glyph-name="aacute" horiz-adv-x="565" unicode="&#225;" /><glyph d="M289 589Q196 589 148.5 639Q101 689 98 773H222Q225 754 229 740Q233 726 240.5 716.5Q248 707 260 702.5Q272 698 292 698Q323 698 334.5 716.5Q346 735 348 773H467Q466 728 452 693.5Q438 659 414.5 635.5Q391 612 359 600.5Q327 589 289 589ZM275 122Q283 122 292 124.5Q301 127 309 134Q317 141 322.5 152.5Q328 164 328 181V231H298Q268 231 247.5 218Q227 205 227 174Q227 151 240 136.5Q253 122 275 122ZM190 -11Q158 -11 130 -1.5Q102 8 81 27Q60 46 48 75.5Q36 105 36 145Q36 197 60.5 232Q85 267 122.5 288Q160 309 205 317.5Q250 326 291 326H328V374Q328 394 314.5 408Q301 422 272 422Q255 422 245 416.5Q235 411 229 403Q223 395 221 386Q219 377 219 369V353H49V378Q49 419 68 451Q87 483 119 505.5Q151 528 194.5 540Q238 552 288 552Q334 552 375.5 540.5Q417 529 449 506Q481 483 500 447.5Q519 412 519 363V121Q519 100 520 79.5Q521 59 522.5 42.5Q524 26 525.5 14.5Q527 3 527 0H350Q349 7 347 18Q345 28 344 43Q343 58 341 81H336Q324 52 304.5 34Q285 16 264.5 6Q244 -4 224 -7.5Q204 -11 190 -11Z" glyph-name="abreve" horiz-adv-x="565" unicode="&#259;" /><glyph d="M209 766H343L464 594H322L272 673L222 594H87ZM275 122Q283 122 292 124.5Q301 127 309 134Q317 141 322.5 152.5Q328 164 328 181V231H298Q268 231 247.5 218Q227 205 227 174Q227 151 240 136.5Q253 122 275 122ZM190 -11Q158 -11 130 -1.5Q102 8 81 27Q60 46 48 75.5Q36 105 36 145Q36 197 60.5 232Q85 267 122.5 288Q160 309 205 317.5Q250 326 291 326H328V374Q328 394 314.5 408Q301 422 272 422Q255 422 245 416.5Q235 411 229 403Q223 395 221 386Q219 377 219 369V353H49V378Q49 419 68 451Q87 483 119 505.5Q151 528 194.5 540Q238 552 288 552Q334 552 375.5 540.5Q417 529 449 506Q481 483 500 447.5Q519 412 519 363V121Q519 100 520 79.5Q521 59 522.5 42.5Q524 26 525.5 14.5Q527 3 527 0H350Q349 7 347 18Q345 28 344 43Q343 58 341 81H336Q324 52 304.5 34Q285 16 264.5 6Q244 -4 224 -7.5Q204 -11 190 -11Z" glyph-name="acircumflex" horiz-adv-x="565" unicode="&#226;" /><glyph d="M111 756H293L165 593H28Z" glyph-name="acute" horiz-adv-x="314" unicode="&#180;" /><glyph d="M307 753H462V590H307ZM95 753H250V590H95ZM275 122Q283 122 292 124.5Q301 127 309 134Q317 141 322.5 152.5Q328 164 328 181V231H298Q268 231 247.5 218Q227 205 227 174Q227 151 240 136.5Q253 122 275 122ZM190 -11Q158 -11 130 -1.5Q102 8 81 27Q60 46 48 75.5Q36 105 36 145Q36 197 60.5 232Q85 267 122.5 288Q160 309 205 317.5Q250 326 291 326H328V374Q328 394 314.5 408Q301 422 272 422Q255 422 245 416.5Q235 411 229 403Q223 395 221 386Q219 377 219 369V353H49V378Q49 419 68 451Q87 483 119 505.5Q151 528 194.5 540Q238 552 288 552Q334 552 375.5 540.5Q417 529 449 506Q481 483 500 447.5Q519 412 519 363V121Q519 100 520 79.5Q521 59 522.5 42.5Q524 26 525.5 14.5Q527 3 527 0H350Q349 7 347 18Q345 28 344 43Q343 58 341 81H336Q324 52 304.5 34Q285 16 264.5 6Q244 -4 224 -7.5Q204 -11 190 -11Z" glyph-name="adieresis" horiz-adv-x="565" unicode="&#228;" /><glyph d="M623 321V366Q623 392 608.5 405.5Q594 419 570 419Q547 419 533 404.5Q519 390 519 366V321ZM275 122Q283 122 292 125.5Q301 129 309 136Q317 143 322.5 153.5Q328 164 328 178V231H298Q268 231 247.5 218Q227 205 227 174Q227 151 240 136.5Q253 122 275 122ZM190 -12Q158 -12 130 -2.5Q102 7 81 26.5Q60 46 48 75.5Q36 105 36 145Q36 197 60.5 232Q85 267 122.5 288Q160 309 205 317.5Q250 326 291 326H328V374Q328 394 314.5 408Q301 422 272 422Q255 422 245 416.5Q235 411 229 403Q223 395 221 386Q219 377 219 369V353H49V378Q49 419 68 451Q87 483 119 505.5Q151 528 194.5 540Q238 552 288 552Q329 552 364.5 543Q400 534 429 516Q460 534 496 543Q532 552 570 552Q621 552 663.5 538.5Q706 525 737.5 499Q769 473 786.5 434.5Q804 396 804 346V218H519V190Q519 172 527.5 160.5Q536 149 549 142.5Q562 136 578 134Q594 132 609 132Q626 132 647 135Q668 138 689 142Q710 146 728 150.5Q746 155 758 159L793 35Q745 12 692 0Q639 -12 581 -12Q549 -12 518 -7Q487 -2 459 8.5Q431 19 408 35Q385 51 369 74Q351 46 325.5 29Q300 12 274 3Q248 -6 225 -9Q202 -12 190 -12Z" glyph-name="ae" horiz-adv-x="841" unicode="&#230;" /><glyph d="M418 756H600L472 593H335ZM623 321V366Q623 392 608.5 405.5Q594 419 570 419Q547 419 533 404.5Q519 390 519 366V321ZM275 122Q283 122 292 125.5Q301 129 309 136Q317 143 322.5 153.5Q328 164 328 178V231H298Q268 231 247.5 218Q227 205 227 174Q227 151 240 136.5Q253 122 275 122ZM190 -12Q158 -12 130 -2.5Q102 7 81 26.5Q60 46 48 75.5Q36 105 36 145Q36 197 60.5 232Q85 267 122.5 288Q160 309 205 317.5Q250 326 291 326H328V374Q328 394 314.5 408Q301 422 272 422Q255 422 245 416.5Q235 411 229 403Q223 395 221 386Q219 377 219 369V353H49V378Q49 419 68 451Q87 483 119 505.5Q151 528 194.5 540Q238 552 288 552Q329 552 364.5 543Q400 534 429 516Q460 534 496 543Q532 552 570 552Q621 552 663.5 538.5Q706 525 737.5 499Q769 473 786.5 434.5Q804 396 804 346V218H519V190Q519 172 527.5 160.5Q536 149 549 142.5Q562 136 578 134Q594 132 609 132Q626 132 647 135Q668 138 689 142Q710 146 728 150.5Q746 155 758 159L793 35Q745 12 692 0Q639 -12 581 -12Q549 -12 518 -7Q487 -2 459 8.5Q431 19 408 35Q385 51 369 74Q351 46 325.5 29Q300 12 274 3Q248 -6 225 -9Q202 -12 190 -12Z" glyph-name="aeacute" horiz-adv-x="841" unicode="&#509;" /><glyph d="M110 756H292L375 593H238ZM275 122Q283 122 292 124.5Q301 127 309 134Q317 141 322.5 152.5Q328 164 328 181V231H298Q268 231 247.5 218Q227 205 227 174Q227 151 240 136.5Q253 122 275 122ZM190 -11Q158 -11 130 -1.5Q102 8 81 27Q60 46 48 75.5Q36 105 36 145Q36 197 60.5 232Q85 267 122.5 288Q160 309 205 317.5Q250 326 291 326H328V374Q328 394 314.5 408Q301 422 272 422Q255 422 245 416.5Q235 411 229 403Q223 395 221 386Q219 377 219 369V353H49V378Q49 419 68 451Q87 483 119 505.5Q151 528 194.5 540Q238 552 288 552Q334 552 375.5 540.5Q417 529 449 506Q481 483 500 447.5Q519 412 519 363V121Q519 100 520 79.5Q521 59 522.5 42.5Q524 26 525.5 14.5Q527 3 527 0H350Q349 7 347 18Q345 28 344 43Q343 58 341 81H336Q324 52 304.5 34Q285 16 264.5 6Q244 -4 224 -7.5Q204 -11 190 -11Z" glyph-name="agrave" horiz-adv-x="565" unicode="&#224;" /><glyph d="M159 -213Q138 -213 117 -206.5Q96 -200 79 -186.5Q62 -173 51.5 -152.5Q41 -132 41 -103Q41 -72 53 -47.5Q65 -23 83 -5.5Q101 12 122 23.5Q143 35 162 42L215 2Q178 -11 162 -33.5Q146 -56 146 -80Q146 -103 160 -111.5Q174 -120 193 -120Q209 -120 237 -103L275 -181Q249 -198 220 -205.5Q191 -213 159 -213Z" glyph-name="altogonek" horiz-adv-x="312" /><glyph d="M108 726H456V600H108ZM275 122Q283 122 292 124.5Q301 127 309 134Q317 141 322.5 152.5Q328 164 328 181V231H298Q268 231 247.5 218Q227 205 227 174Q227 151 240 136.5Q253 122 275 122ZM190 -11Q158 -11 130 -1.5Q102 8 81 27Q60 46 48 75.5Q36 105 36 145Q36 197 60.5 232Q85 267 122.5 288Q160 309 205 317.5Q250 326 291 326H328V374Q328 394 314.5 408Q301 422 272 422Q255 422 245 416.5Q235 411 229 403Q223 395 221 386Q219 377 219 369V353H49V378Q49 419 68 451Q87 483 119 505.5Q151 528 194.5 540Q238 552 288 552Q334 552 375.5 540.5Q417 529 449 506Q481 483 500 447.5Q519 412 519 363V121Q519 100 520 79.5Q521 59 522.5 42.5Q524 26 525.5 14.5Q527 3 527 0H350Q349 7 347 18Q345 28 344 43Q343 58 341 81H336Q324 52 304.5 34Q285 16 264.5 6Q244 -4 224 -7.5Q204 -11 190 -11Z" glyph-name="amacron" horiz-adv-x="565" unicode="&#257;" /><glyph d="M352 474Q372 481 384.5 501.5Q397 522 397 550Q397 570 385.5 583Q374 596 356 596Q330 596 320.5 579.5Q311 563 311 549Q311 537 320.5 518Q330 499 352 474ZM300 140Q319 140 334 146.5Q349 153 360 163L261 294Q244 280 234 261.5Q224 243 224 220Q224 188 242.5 164Q261 140 300 140ZM250 -16Q204 -16 165 -3.5Q126 9 98 34Q70 59 54 97.5Q38 136 38 187Q38 226 50 258.5Q62 291 82 317Q102 343 129 362.5Q156 382 185 395Q164 422 146.5 460.5Q129 499 129 535Q129 572 141.5 606.5Q154 641 180.5 667.5Q207 694 248.5 709.5Q290 725 348 725Q394 725 432 713.5Q470 702 498 680.5Q526 659 541.5 627Q557 595 557 553Q557 487 521.5 440Q486 393 431 367L504 270Q510 285 514 304.5Q518 324 523 356L671 337Q667 306 657.5 275.5Q648 245 637 219Q626 193 614.5 174Q603 155 596 147L707 0H482L442 54Q402 18 353 1Q304 -16 250 -16Z" glyph-name="ampersand" horiz-adv-x="721" unicode="&amp;" /><glyph d="M275 122Q283 122 292 124.5Q301 127 309 134Q317 141 322.5 152.5Q328 164 328 181V231H298Q268 231 247.5 218Q227 205 227 174Q227 151 240 136.5Q253 122 275 122ZM425 -220Q401 -220 378.5 -214Q356 -208 338 -195Q320 -182 309 -161Q298 -140 298 -111Q298 -76 313 -48Q328 -20 351 0H350Q349 7 347 18Q345 28 344 43Q343 58 341 81H336Q324 52 304.5 34Q285 16 264.5 6Q244 -4 224 -7.5Q204 -11 190 -11Q158 -11 130 -1.5Q102 8 81 27Q60 46 48 75.5Q36 105 36 145Q36 197 60.5 232Q85 267 122.5 288Q160 309 205 317.5Q250 326 291 326H328V374Q328 394 314.5 408Q301 422 272 422Q255 422 245 416.5Q235 411 229 403Q223 395 221 386Q219 377 219 369V353H49V378Q49 419 68 451Q87 483 119 505.5Q151 528 194.5 540Q238 552 288 552Q334 552 375.5 540.5Q417 529 449 506Q481 483 500 447.5Q519 412 519 363V121Q519 100 520 79.5Q521 59 522.5 42.5Q524 26 525.5 14.5Q527 3 527 0H481Q441 -13 423 -35.5Q405 -58 405 -82Q405 -106 418.5 -116.5Q432 -127 450 -127Q464 -127 481 -119.5Q498 -112 511 -103L555 -182Q534 -199 500.5 -209.5Q467 -220 425 -220Z" glyph-name="aogonek" horiz-adv-x="565" unicode="&#261;" /><glyph d="M567 -166 545 -170 537 -161Q555 -157 573 -151.5Q591 -146 607 -137.5Q623 -129 634.5 -115.5Q646 -102 651 -81Q653 -66 655 -40Q657 -14 659.5 19Q662 52 663.5 90.5Q665 129 667 168L551 165L553 178L668 184Q671 223 673 261Q675 299 676.5 332Q678 365 679 391.5Q680 418 681 433L726 459Q675 461 621.5 462.5Q568 464 516 466Q515 424 512.5 381Q510 338 508 309Q503 220 475.5 160Q448 100 412.5 63.5Q377 27 340 11.5Q303 -4 278 -4Q260 -4 234 1Q208 6 182 13.5Q156 21 133.5 29Q111 37 100 43L128 86Q134 84 156 75.5Q178 67 206.5 57Q235 47 265 39Q295 31 315 32Q343 32 370.5 52Q398 72 418.5 104Q439 136 451 176.5Q463 217 462 258Q462 267 463 288Q464 309 464.5 337Q465 365 466 398.5Q467 432 468 467Q450 467 432 468Q414 469 395 469Q362 469 329 456Q296 443 270.5 420.5Q245 398 229 367.5Q213 337 213 302Q223 281 246 261Q269 241 305 226Q305 223 302.5 217Q300 211 297 204Q294 197 290.5 191.5Q287 186 285 184Q260 194 244 208Q228 222 218.5 236.5Q209 251 204.5 266Q200 281 199 293Q199 335 216.5 371Q234 407 265 435.5Q296 464 339 483Q382 502 433 511H469L475 699L523 719Q455 722 383.5 725.5Q312 729 235 729Q201 729 168 716.5Q135 704 109 682Q83 660 67 629.5Q51 599 51 564Q74 521 144 493Q144 490 140.5 484Q137 478 133 471Q129 464 124.5 458.5Q120 453 119 451Q93 461 77 474.5Q61 488 51 503Q41 518 37 532.5Q33 547 32 560Q32 602 52 637Q72 672 104 699Q136 726 176 744.5Q216 763 255 772Q374 772 493.5 767.5Q613 763 735 757Q751 757 767 758Q783 759 798 762Q813 765 825.5 772Q838 779 847 791L857 787Q848 765 829.5 751Q811 737 788.5 729Q766 721 741.5 718Q717 715 694 715Q653 715 611.5 716Q570 717 528 719Q526 709 525 687Q524 665 523.5 641Q523 617 522 596Q521 575 520 566L518 510Q627 506 748 500Q869 494 987 494Q990 494 1011 495Q1032 496 1060.5 498Q1089 500 1120 504.5Q1151 509 1172 515L1176 504Q1114 478 1052 466.5Q990 455 911 455Q871 455 827.5 456Q784 457 736 459Q734 444 731.5 412.5Q729 381 727 347.5Q725 314 723.5 285Q722 256 721 246Q721 235 720 220.5Q719 206 718 186L897 199L902 195L861 135L852 140L879 180Q844 177 802.5 174Q761 171 717 169Q715 140 713 109Q711 78 709 48Q707 18 705 -7.5Q703 -33 701 -50Q700 -59 693.5 -72Q687 -85 678 -97.5Q669 -110 658 -120.5Q647 -131 636 -135L637 -136Q684 -128 736 -129.5Q788 -131 833 -127V-128Q833 -142 826 -150.5Q819 -159 807 -163.5Q795 -168 780 -169.5Q765 -171 749 -171Z" glyph-name="apple" horiz-adv-x="1198" unicode="&#63743;" /><glyph d="M24 359Q28 389 37.5 416.5Q47 444 62 465.5Q77 487 99.5 499.5Q122 512 152 512Q174 512 206 507Q238 502 271.5 495.5Q305 489 337 484Q369 479 391 479Q410 479 420.5 492Q431 505 440 528L516 510Q512 482 504 455Q496 428 482 406.5Q468 385 445.5 371.5Q423 358 391 358Q369 358 337 363Q305 368 270.5 374.5Q236 381 204 386Q172 391 151 391Q129 391 119.5 380Q110 369 102 343ZM24 122Q28 152 37.5 179.5Q47 207 62 228.5Q77 250 99.5 262.5Q122 275 152 275Q174 275 206 270Q238 265 271.5 258.5Q305 252 337 247Q369 242 391 242Q410 242 420.5 255Q431 268 440 291L516 273Q512 245 504 218Q496 191 482 169.5Q468 148 445.5 134.5Q423 121 391 121Q369 121 337 126Q305 131 270.5 137.5Q236 144 204 149Q172 154 151 154Q129 154 119.5 143Q110 132 102 106Z" glyph-name="approxequal" horiz-adv-x="540" unicode="&#8776;" /><glyph d="M281 638Q303 638 313 652.5Q323 667 323 688Q323 710 313 724Q303 738 279 738Q257 738 248 723.5Q239 709 239 688Q239 667 249 652.5Q259 638 281 638ZM281 579Q236 579 204 607Q172 635 172 686Q172 710 180.5 730.5Q189 751 204 765.5Q219 780 239 788.5Q259 797 281 797Q328 797 360 770Q392 743 392 692Q392 668 383 647.5Q374 627 359 611.5Q344 596 323.5 587.5Q303 579 281 579ZM275 122Q283 122 292 124.5Q301 127 309 134Q317 141 322.5 152.5Q328 164 328 181V231H298Q268 231 247.5 218Q227 205 227 174Q227 151 240 136.5Q253 122 275 122ZM190 -11Q158 -11 130 -1.5Q102 8 81 27Q60 46 48 75.5Q36 105 36 145Q36 197 60.5 232Q85 267 122.5 288Q160 309 205 317.5Q250 326 291 326H328V374Q328 394 314.5 408Q301 422 272 422Q255 422 245 416.5Q235 411 229 403Q223 395 221 386Q219 377 219 369V353H49V378Q49 419 68 451Q87 483 119 505.5Q151 528 194.5 540Q238 552 288 552Q334 552 375.5 540.5Q417 529 449 506Q481 483 500 447.5Q519 412 519 363V121Q519 100 520 79.5Q521 59 522.5 42.5Q524 26 525.5 14.5Q527 3 527 0H350Q349 7 347 18Q345 28 344 43Q343 58 341 81H336Q324 52 304.5 34Q285 16 264.5 6Q244 -4 224 -7.5Q204 -11 190 -11Z" glyph-name="aring" horiz-adv-x="565" unicode="&#229;" /><glyph d="M281 630Q302 630 313 643.5Q324 657 324 680Q324 704 312.5 716.5Q301 729 283 729Q262 729 251 714.5Q240 700 240 679Q240 630 281 630ZM281 579Q252 579 231 587.5Q210 596 196.5 609.5Q183 623 176.5 640.5Q170 658 170 677Q170 728 211 765L312 854L405 805L341 768Q367 756 380.5 733.5Q394 711 394 682Q394 636 361.5 607.5Q329 579 281 579ZM275 122Q283 122 292 124.5Q301 127 309 134Q317 141 322.5 152.5Q328 164 328 181V231H298Q268 231 247.5 218Q227 205 227 174Q227 151 240 136.5Q253 122 275 122ZM190 -11Q158 -11 130 -1.5Q102 8 81 27Q60 46 48 75.5Q36 105 36 145Q36 197 60.5 232Q85 267 122.5 288Q160 309 205 317.5Q250 326 291 326H328V374Q328 394 314.5 408Q301 422 272 422Q255 422 245 416.5Q235 411 229 403Q223 395 221 386Q219 377 219 369V353H49V378Q49 419 68 451Q87 483 119 505.5Q151 528 194.5 540Q238 552 288 552Q334 552 375.5 540.5Q417 529 449 506Q481 483 500 447.5Q519 412 519 363V121Q519 100 520 79.5Q521 59 522.5 42.5Q524 26 525.5 14.5Q527 3 527 0H350Q349 7 347 18Q345 28 344 43Q343 58 341 81H336Q324 52 304.5 34Q285 16 264.5 6Q244 -4 224 -7.5Q204 -11 190 -11Z" glyph-name="aringacute" horiz-adv-x="565" unicode="&#507;" /><glyph d="M65 307 143 389 244 289V608H371V289L467 391L549 307L314 88H301Z" glyph-name="arrowdown" horiz-adv-x="606" unicode="&#8595;" /><glyph d="M34 342V355L253 590L337 507L235 412H554V285H235L335 182L253 106Z" glyph-name="arrowleft" horiz-adv-x="606" unicode="&#8592;" /><glyph d="M266 182 366 285H47V412H366L264 507L348 590L567 355V342L348 106Z" glyph-name="arrowright" horiz-adv-x="606" unicode="&#8594;" /><glyph d="M243 407 149 304 65 389 300 608H313L549 389L473 307L371 407V88H243Z" glyph-name="arrowup" horiz-adv-x="606" unicode="&#8593;" /><glyph d="M211 608H339L450 133H336L272 453L204 133H90Z" glyph-name="asciicircum" horiz-adv-x="540" unicode="^" /><glyph d="M24 241Q28 271 37.5 298.5Q47 326 62 347.5Q77 369 99.5 381.5Q122 394 152 394Q174 394 206 389Q238 384 271.5 377.5Q305 371 337 366Q369 361 391 361Q410 361 420.5 374Q431 387 440 410L516 392Q512 364 504 337Q496 310 482 288.5Q468 267 445.5 253.5Q423 240 391 240Q369 240 337 245Q305 250 270.5 256.5Q236 263 204 268Q172 273 151 273Q129 273 119.5 262Q110 251 102 225Z" glyph-name="asciitilde" horiz-adv-x="540" unicode="~" /><glyph d="M62 381 142 496 20 564 71 647 178 589V713H280V588L386 647L438 564L314 496L396 381L311 328L229 443L146 328Z" glyph-name="asterisk" horiz-adv-x="458" unicode="*" /><glyph d="M423 186Q451 186 467 205Q483 224 488 250L507 360Q508 364 508 374Q508 395 495 406.5Q482 418 462 418Q436 418 421 398.5Q406 379 402 354L385 247Q383 239 383 230Q383 211 393 198.5Q403 186 423 186ZM481 -122Q412 -122 348.5 -109Q285 -96 231 -68Q145 -24 92.5 60.5Q40 145 40 276Q40 376 75 457.5Q110 539 170.5 597Q231 655 312.5 686.5Q394 718 487 718Q556 718 621 697Q686 676 737 635Q788 594 818.5 533Q849 472 849 392Q849 336 830.5 284.5Q812 233 780 190.5Q748 148 706 118.5Q664 89 617 78H462L472 131H468Q443 103 410.5 85Q378 67 339 67Q285 67 251 95Q217 123 217 183Q217 202 220 220Q223 236 226 252.5Q229 269 232.5 288Q236 307 240 330.5Q244 354 249 383Q255 416 270.5 443Q286 470 309.5 488.5Q333 507 361.5 517Q390 527 421 527Q448 527 479 517Q510 507 527 483H528L533 518H691L631 156Q658 168 682 190Q706 212 724 242Q742 272 752.5 308.5Q763 345 763 386Q763 456 739 506Q715 556 674.5 587.5Q634 619 582 633.5Q530 648 475 648Q389 648 324.5 617.5Q260 587 216.5 536Q173 485 151 417Q129 349 129 274Q129 163 175 92.5Q221 22 301 -12Q377 -45 478 -45Q517 -45 550 -42Q583 -39 614 -33.5Q645 -28 675 -20.5Q705 -13 737 -4L758 -70Q731 -82 697 -91.5Q663 -101 626.5 -108Q590 -115 552.5 -118.5Q515 -122 481 -122Z" glyph-name="at" horiz-adv-x="888" unicode="@" /><glyph d="M67 603Q71 633 81 660.5Q91 688 107 709.5Q123 731 145.5 743.5Q168 756 197 756Q218 756 238.5 750.5Q259 745 279 738.5Q299 732 319 726.5Q339 721 360 721Q379 721 389 734.5Q399 748 407 771L486 750Q483 722 474 695Q465 668 450 647Q435 626 412.5 613.5Q390 601 360 601Q340 601 320 606.5Q300 612 280.5 618Q261 624 241.5 629.5Q222 635 202 635Q182 635 173 623.5Q164 612 156 585ZM275 122Q283 122 292 124.5Q301 127 309 134Q317 141 322.5 152.5Q328 164 328 181V231H298Q268 231 247.5 218Q227 205 227 174Q227 151 240 136.5Q253 122 275 122ZM190 -11Q158 -11 130 -1.5Q102 8 81 27Q60 46 48 75.5Q36 105 36 145Q36 197 60.5 232Q85 267 122.5 288Q160 309 205 317.5Q250 326 291 326H328V374Q328 394 314.5 408Q301 422 272 422Q255 422 245 416.5Q235 411 229 403Q223 395 221 386Q219 377 219 369V353H49V378Q49 419 68 451Q87 483 119 505.5Q151 528 194.5 540Q238 552 288 552Q334 552 375.5 540.5Q417 529 449 506Q481 483 500 447.5Q519 412 519 363V121Q519 100 520 79.5Q521 59 522.5 42.5Q524 26 525.5 14.5Q527 3 527 0H350Q349 7 347 18Q345 28 344 43Q343 58 341 81H336Q324 52 304.5 34Q285 16 264.5 6Q244 -4 224 -7.5Q204 -11 190 -11Z" glyph-name="atilde" horiz-adv-x="565" unicode="&#227;" /><glyph d="M297 126Q319 126 334 138Q349 150 349 180V351Q349 382 333 394Q317 406 297 406Q276 406 257.5 389Q239 372 239 328V185Q239 167 245 156Q251 145 259.5 138Q268 131 278 128.5Q288 126 297 126ZM369 -12Q348 -12 327 -7Q306 -2 287 8.5Q268 19 253.5 35Q239 51 231 72H229L224 0H48V713H239V466H241Q252 485 268.5 500.5Q285 516 303.5 527.5Q322 539 342 545.5Q362 552 380 552Q423 552 453 538.5Q483 525 502.5 502Q522 479 531 447Q540 415 540 378V166Q540 130 528 98Q516 66 493.5 41.5Q471 17 439.5 2.5Q408 -12 369 -12Z" glyph-name="b" horiz-adv-x="580" unicode="b" /><glyph d="M19 718H138L348 -179H227Z" glyph-name="backslash" horiz-adv-x="334" unicode="\" /><glyph d="M101 725H211V-53H101Z" glyph-name="bar" horiz-adv-x="312" unicode="|" /><glyph d="M52 553H545V0H52Z" glyph-name="blacksmallsquare" horiz-adv-x="597" unicode="&#9642;" /><glyph d="M46 715H669V0H46Z" glyph-name="blacksquare" horiz-adv-x="715" unicode="&#9632;" /><glyph d="M189 -176Q141 -176 111.5 -147Q82 -118 82 -54V164Q82 200 74 214.5Q66 229 40 232V341Q70 347 76 357Q82 367 82 393V590Q82 654 111.5 683.5Q141 713 189 713H292V609H257Q249 609 242 604.5Q235 600 235 587V410Q235 363 225.5 335.5Q216 308 182 295V289Q201 281 211.5 272.5Q222 264 227.5 251Q233 238 234 220Q235 202 235 176V-51Q235 -65 242 -69Q249 -73 257 -73H292V-176Z" glyph-name="braceleft" horiz-adv-x="321" unicode="{" /><glyph d="M29 -73H64Q72 -73 79 -69Q86 -65 86 -51V176Q86 202 87 220Q88 238 93.5 251Q99 264 109.5 272.5Q120 281 139 289V295Q104 308 95 335.5Q86 363 86 410V588Q86 601 79 605.5Q72 610 64 610H29V714H132Q180 714 209.5 684.5Q239 655 239 591V393Q239 367 245 357Q251 347 281 341V232Q255 229 247 214.5Q239 200 239 164V-54Q239 -118 209.5 -147Q180 -176 132 -176H29Z" glyph-name="braceright" horiz-adv-x="321" unicode="}" /><glyph d="M66 713H278V611H219V-76H277V-176H66Z" glyph-name="bracketleft" horiz-adv-x="311" unicode="[" /><glyph d="M34 -76H91V611H33V713H245V-176H34Z" glyph-name="bracketright" horiz-adv-x="311" unicode="]" /><glyph d="M220 589Q127 589 79.5 639Q32 689 29 773H153Q156 754 160 740Q164 726 171.5 716.5Q179 707 191 702.5Q203 698 223 698Q254 698 265.5 716.5Q277 735 279 773H398Q397 728 383 693.5Q369 659 345.5 635.5Q322 612 290 600.5Q258 589 220 589Z" glyph-name="breve" horiz-adv-x="427" unicode="&#728;" /><glyph d="M100 714H219V384H100ZM100 317H219V-47H100Z" glyph-name="brokenbar" horiz-adv-x="319" unicode="&#166;" /><glyph d="M228 187Q192 187 160.5 201Q129 215 105 238.5Q81 262 67.5 293.5Q54 325 54 361Q54 397 67.5 429Q81 461 105 484.5Q129 508 160.5 521.5Q192 535 228 535Q264 535 295 521.5Q326 508 349.5 484.5Q373 461 386.5 429Q400 397 400 361Q400 325 386.5 293.5Q373 262 349.5 238.5Q326 215 295 201Q264 187 228 187Z" glyph-name="bullet" horiz-adv-x="454" unicode="&#8226;" /><glyph d="M280 -12Q236 -12 193 -1Q150 10 116 34Q82 58 61 96.5Q40 135 40 190V338Q40 393 61 433.5Q82 474 116 500.5Q150 527 193 539.5Q236 552 280 552Q327 552 367.5 540Q408 528 438 505.5Q468 483 485 449.5Q502 416 502 374V328H334V362Q334 388 321 400Q308 412 286 412Q233 412 233 356V185Q233 157 246.5 141.5Q260 126 286 126Q308 126 321 138.5Q334 151 334 177V211H502V160Q502 116 485 84Q468 52 438 30.5Q408 9 367.5 -1.5Q327 -12 280 -12Z" glyph-name="c" horiz-adv-x="536" unicode="c" /><glyph d="M290 756H472L344 593H207ZM280 -12Q236 -12 193 -1Q150 10 116 34Q82 58 61 96.5Q40 135 40 190V338Q40 393 61 433.5Q82 474 116 500.5Q150 527 193 539.5Q236 552 280 552Q327 552 367.5 540Q408 528 438 505.5Q468 483 485 449.5Q502 416 502 374V328H334V362Q334 388 321 400Q308 412 286 412Q233 412 233 356V185Q233 157 246.5 141.5Q260 126 286 126Q308 126 321 138.5Q334 151 334 177V211H502V160Q502 116 485 84Q468 52 438 30.5Q408 9 367.5 -1.5Q327 -12 280 -12Z" glyph-name="cacute" horiz-adv-x="536" unicode="&#263;" /><glyph d="M15 774H157L207 695L257 774H397L270 602H136Z" glyph-name="caron" horiz-adv-x="412" unicode="&#711;" /><glyph d="M56 713H211L171 491H44Z" glyph-name="caronSlovak" horiz-adv-x="264" unicode="&#58387;" /><glyph d="M77 774H219L269 695L319 774H459L332 602H198ZM280 -12Q236 -12 193 -1Q150 10 116 34Q82 58 61 96.5Q40 135 40 190V338Q40 393 61 433.5Q82 474 116 500.5Q150 527 193 539.5Q236 552 280 552Q327 552 367.5 540Q408 528 438 505.5Q468 483 485 449.5Q502 416 502 374V328H334V362Q334 388 321 400Q308 412 286 412Q233 412 233 356V185Q233 157 246.5 141.5Q260 126 286 126Q308 126 321 138.5Q334 151 334 177V211H502V160Q502 116 485 84Q468 52 438 30.5Q408 9 367.5 -1.5Q327 -12 280 -12Z" glyph-name="ccaron" horiz-adv-x="536" unicode="&#269;" /><glyph d="M281 -218Q259 -218 229.5 -216Q200 -214 171 -206V-132Q198 -139 227 -142.5Q256 -146 273 -146Q293 -146 300.5 -140Q308 -134 308 -125Q308 -112 295 -108.5Q282 -105 271 -104L220 -101L245 -10Q205 -6 168 7Q131 20 102.5 44Q74 68 57 104Q40 140 40 190V338Q40 393 61 433.5Q82 474 116 500.5Q150 527 193 539.5Q236 552 280 552Q327 552 367.5 540Q408 528 438 505.5Q468 483 485 449.5Q502 416 502 374V328H334V362Q334 388 321 400Q308 412 286 412Q233 412 233 356V185Q233 157 246.5 141.5Q260 126 286 126Q308 126 321 138.5Q334 151 334 177V211H502V160Q502 121 488 90.5Q474 60 449 39Q424 18 389.5 6Q355 -6 315 -10L305 -49Q323 -49 345 -51Q367 -53 385.5 -60.5Q404 -68 417 -82.5Q430 -97 430 -120Q430 -143 417.5 -161.5Q405 -180 384.5 -192.5Q364 -205 337 -211.5Q310 -218 281 -218Z" glyph-name="ccedilla" horiz-adv-x="536" unicode="&#231;" /><glyph d="M210 766H344L465 594H323L273 673L223 594H88ZM280 -12Q236 -12 193 -1Q150 10 116 34Q82 58 61 96.5Q40 135 40 190V338Q40 393 61 433.5Q82 474 116 500.5Q150 527 193 539.5Q236 552 280 552Q327 552 367.5 540Q408 528 438 505.5Q468 483 485 449.5Q502 416 502 374V328H334V362Q334 388 321 400Q308 412 286 412Q233 412 233 356V185Q233 157 246.5 141.5Q260 126 286 126Q308 126 321 138.5Q334 151 334 177V211H502V160Q502 116 485 84Q468 52 438 30.5Q408 9 367.5 -1.5Q327 -12 280 -12Z" glyph-name="ccircumflex" horiz-adv-x="536" unicode="&#265;" /><glyph d="M195 752H361V589H195ZM280 -12Q236 -12 193 -1Q150 10 116 34Q82 58 61 96.5Q40 135 40 190V338Q40 393 61 433.5Q82 474 116 500.5Q150 527 193 539.5Q236 552 280 552Q327 552 367.5 540Q408 528 438 505.5Q468 483 485 449.5Q502 416 502 374V328H334V362Q334 388 321 400Q308 412 286 412Q233 412 233 356V185Q233 157 246.5 141.5Q260 126 286 126Q308 126 321 138.5Q334 151 334 177V211H502V160Q502 116 485 84Q468 52 438 30.5Q408 9 367.5 -1.5Q327 -12 280 -12Z" glyph-name="cdotaccent" horiz-adv-x="536" unicode="&#267;" /><glyph d="M155 -218Q133 -218 103.5 -216Q74 -214 45 -206V-132Q72 -139 101 -142.5Q130 -146 147 -146Q167 -146 174.5 -140Q182 -134 182 -125Q182 -112 169 -108.5Q156 -105 145 -104L94 -101L126 14H196L179 -49Q197 -49 219 -51Q241 -53 259.5 -60.5Q278 -68 291 -82.5Q304 -97 304 -120Q304 -143 291.5 -161.5Q279 -180 258.5 -192.5Q238 -205 211 -211.5Q184 -218 155 -218Z" glyph-name="cedilla" horiz-adv-x="340" unicode="&#184;" /><glyph d="M215 8Q180 15 148 29.5Q116 44 92 68Q68 92 54 125.5Q40 159 40 203V342Q40 387 54.5 421.5Q69 456 93 481Q117 506 148.5 522.5Q180 539 215 547V621H354V547Q424 533 466.5 489.5Q509 446 509 378V337H341V366Q341 395 325.5 409Q310 423 286 423Q257 423 242 406.5Q227 390 227 360V198Q227 168 242 150.5Q257 133 286 133Q310 133 325.5 147Q341 161 341 189V219H509V172Q509 103 466.5 62.5Q424 22 354 8V-60H215Z" glyph-name="cent" horiz-adv-x="545" unicode="&#162;" /><glyph d="M134 766H268L389 594H247L197 673L147 594H12Z" glyph-name="circumflex" horiz-adv-x="393" unicode="&#710;" /><glyph d="M44 543H220V356H44ZM44 187H220V0H44Z" glyph-name="colon" horiz-adv-x="264" unicode=":" /><glyph d="M108 11H44V187H220V22L162 -137H73Z" glyph-name="comma" horiz-adv-x="264" unicode="," /><glyph d="M96 7H44V132H172V14L117 -92H64Z" glyph-name="comma.dnom" horiz-adv-x="216" unicode="&#58381;" /><glyph d="M96 325H44V450H172V332L117 226H64Z" glyph-name="comma.numr" horiz-adv-x="216" unicode="&#58401;" /><glyph d="M96 -126H44V-1H172V-119L117 -225H64Z" glyph-name="comma.sub" horiz-adv-x="216" /><glyph d="M96 387H44V512H172V394L117 288H64Z" glyph-name="comma.sup" horiz-adv-x="216" /><glyph d="M56 -33H211L171 -218H44Z" glyph-name="commaaccent" horiz-adv-x="264" unicode="&#58388;" /><glyph d="M49 676 102 812H181L159 712H214V579H49Z" glyph-name="commatop" horiz-adv-x="264" /><glyph d="M423 25Q479 25 530 48Q581 71 620 113Q659 155 682.5 214.5Q706 274 706 348Q706 422 683.5 481.5Q661 541 622.5 583Q584 625 532.5 648Q481 671 423 671Q364 671 313 648.5Q262 626 224 584Q186 542 164.5 482Q143 422 143 347Q143 272 165.5 212.5Q188 153 226.5 111.5Q265 70 316 47.5Q367 25 423 25ZM423 -52Q333 -52 263 -20.5Q193 11 144.5 65.5Q96 120 71 192.5Q46 265 46 347Q46 428 73.5 500.5Q101 573 150.5 627Q200 681 269.5 712.5Q339 744 423 744Q511 744 581 712.5Q651 681 700 627Q749 573 775 501Q801 429 801 348Q801 266 774.5 193.5Q748 121 698.5 66.5Q649 12 579.5 -20Q510 -52 423 -52ZM429 78Q391 78 355.5 87Q320 96 292 116Q264 136 247 167.5Q230 199 230 244V449Q230 491 246.5 522.5Q263 554 291 574Q319 594 354.5 604Q390 614 428 614Q462 614 496 605.5Q530 597 557 578.5Q584 560 601 531.5Q618 503 618 463V399H475V451Q475 471 462.5 482Q450 493 431 493Q384 493 384 447V246Q384 199 431 199Q450 199 462.5 209.5Q475 220 475 240V298H618V228Q618 188 601 159.5Q584 131 557 113Q530 95 496.5 86.5Q463 78 429 78Z" glyph-name="copyright" horiz-adv-x="847" unicode="&#169;" /><glyph d="M248 235Q274 235 293 244.5Q312 254 324.5 269Q337 284 343 304Q349 324 349 345Q349 367 342.5 387Q336 407 323.5 422.5Q311 438 292 447Q273 456 248 456Q222 456 203 447Q184 438 171.5 422.5Q159 407 153 387Q147 367 147 345Q147 324 153.5 304Q160 284 173 269Q186 254 205 244.5Q224 235 248 235ZM52 192 105 245Q91 267 82.5 292Q74 317 74 345Q74 395 99 436L44 492L93 541L146 488Q168 503 193.5 512Q219 521 248 521Q273 521 296 514Q319 507 339 495L394 549L444 500L391 446Q406 424 414.5 398.5Q423 373 423 345Q423 294 396 253L451 199L402 149L348 202Q305 171 248 171Q196 171 156 197L102 142Z" glyph-name="currency" horiz-adv-x="495" unicode="&#164;" /><glyph d="M284 134Q305 134 323 153Q341 172 341 207V355Q341 372 335.5 383.5Q330 395 321.5 401.5Q313 408 303 411Q293 414 285 414Q264 414 247.5 403.5Q231 393 231 359V189Q231 159 247.5 146.5Q264 134 284 134ZM201 -12Q158 -12 127.5 2Q97 16 77.5 41Q58 66 49 99.5Q40 133 40 171V377Q40 411 51.5 443Q63 475 85 499Q107 523 138.5 537.5Q170 552 210 552Q242 552 278 538Q314 524 340 485H341V713H532V0H349L348 78H344Q322 42 284 15Q246 -12 201 -12Z" glyph-name="d" horiz-adv-x="580" unicode="d" /><glyph d="M185 426H37V549H185V713H321V549H468V426H321V-137H185Z" glyph-name="dagger" horiz-adv-x="506" unicode="&#8224;" /><glyph d="M185 48H37V171H185V426H37V549H185V713H321V549H468V426H321V171H468V48H321V-137H185Z" glyph-name="daggerdbl" horiz-adv-x="506" unicode="&#8225;" /><glyph d="M573 713H728L688 491H561ZM284 134Q305 134 323 153Q341 172 341 207V355Q341 372 335.5 383.5Q330 395 321.5 401.5Q313 408 303 411Q293 414 285 414Q264 414 247.5 403.5Q231 393 231 359V189Q231 159 247.5 146.5Q264 134 284 134ZM201 -12Q158 -12 127.5 2Q97 16 77.5 41Q58 66 49 99.5Q40 133 40 171V377Q40 411 51.5 443Q63 475 85 499Q107 523 138.5 537.5Q170 552 210 552Q242 552 278 538Q314 524 340 485H341V713H532V0H349L348 78H344Q322 42 284 15Q246 -12 201 -12Z" glyph-name="dcaron" horiz-adv-x="580" unicode="&#271;" /><glyph d="M284 134Q305 134 323 153Q341 172 341 207V355Q341 372 335.5 383.5Q330 395 321.5 401.5Q313 408 303 411Q293 414 285 414Q264 414 247.5 403.5Q231 393 231 359V189Q231 159 247.5 146.5Q264 134 284 134ZM228 669H341V713H532V669H580V580H532V0H349L348 78H344Q322 42 284 15Q246 -12 201 -12Q158 -12 127.5 2Q97 16 77.5 41Q58 66 49 99.5Q40 133 40 171V377Q40 411 51.5 443Q63 475 85 499Q107 523 138.5 537.5Q170 552 210 552Q242 552 278 538Q314 524 340 485H341V580H228Z" glyph-name="dcroat" horiz-adv-x="580" unicode="&#273;" /><glyph d="M160 576Q179 576 192 590Q205 604 205 624Q205 643 193.5 658.5Q182 674 160 674Q140 674 128 660Q116 646 116 624Q116 604 129 590Q142 576 160 576ZM160 507Q131 507 108.5 517Q86 527 70 543Q54 559 46 580Q38 601 38 623Q38 647 47.5 668.5Q57 690 73.5 706.5Q90 723 112 733Q134 743 160 743Q188 743 210.5 733.5Q233 724 249 708Q265 692 273.5 671Q282 650 282 627Q282 602 272 580.5Q262 559 245.5 542.5Q229 526 207 516.5Q185 507 160 507Z" glyph-name="degree" horiz-adv-x="320" unicode="&#176;" /><glyph d="M236 753H391V590H236ZM24 753H179V590H24Z" glyph-name="dieresis" horiz-adv-x="416" unicode="&#168;" /><glyph d="M194 573H346V426H194ZM51 377H489V263H51ZM194 210H346V61H194Z" glyph-name="divide" horiz-adv-x="540" unicode="&#247;" /><glyph d="M202 23Q151 31 101 53Q51 75 12 121L115 236Q128 223 146.5 209.5Q165 196 187 184.5Q209 173 231.5 165.5Q254 158 275 158Q304 158 321 167.5Q338 177 338 197Q338 209 331 217Q324 225 313 231.5Q302 238 289 242.5Q276 247 265 252L165 292Q137 303 113 320Q89 337 71 359.5Q53 382 43 410.5Q33 439 33 473Q33 550 80 599.5Q127 649 202 668V736H345V672Q393 664 434.5 645Q476 626 507 596L409 481Q375 506 340.5 522Q306 538 280 538Q250 538 237.5 527.5Q225 517 225 502Q225 480 247 468.5Q269 457 299 445L382 412Q453 386 486 337Q519 288 519 227Q519 185 504.5 151Q490 117 466 92.5Q442 68 410.5 51.5Q379 35 345 27V-40H202Z" glyph-name="dollar" horiz-adv-x="543" unicode="$" /><glyph d="M48 752H214V589H48Z" glyph-name="dotaccent" horiz-adv-x="262" unicode="&#729;" /><glyph d="M48 540H239V0H48Z" glyph-name="dotlessi" horiz-adv-x="287" unicode="&#305;" /><glyph d="M83 -188Q57 -188 41.5 -187Q26 -186 6 -183V-22Q10 -23 18.5 -23.5Q27 -24 33 -24Q53 -24 58 -14Q63 -4 63 13V540H254V-23Q254 -65 240 -96Q226 -127 202 -147.5Q178 -168 147 -178Q116 -188 83 -188Z" glyph-name="dotlessj" horiz-adv-x="298" unicode="&#567;" /><glyph d="M335 321V366Q335 392 321 405.5Q307 419 283 419Q260 419 246 404.5Q232 390 232 366V321ZM288 -12Q240 -12 195 1Q150 14 115.5 40.5Q81 67 60.5 107.5Q40 148 40 203V328Q40 386 60.5 428.5Q81 471 114.5 498.5Q148 526 191.5 539Q235 552 281 552Q332 552 375 538.5Q418 525 449.5 499Q481 473 499 434.5Q517 396 517 346V218H232V190Q232 172 239.5 160.5Q247 149 259.5 142.5Q272 136 287 134Q302 132 317 132Q339 132 361.5 135Q384 138 404.5 142Q425 146 442 150.5Q459 155 471 159L506 35Q458 12 402 0Q346 -12 288 -12Z" glyph-name="e" horiz-adv-x="554" unicode="e" /><glyph d="M289 756H471L343 593H206ZM335 321V366Q335 392 321 405.5Q307 419 283 419Q260 419 246 404.5Q232 390 232 366V321ZM288 -12Q240 -12 195 1Q150 14 115.5 40.5Q81 67 60.5 107.5Q40 148 40 203V328Q40 386 60.5 428.5Q81 471 114.5 498.5Q148 526 191.5 539Q235 552 281 552Q332 552 375 538.5Q418 525 449.5 499Q481 473 499 434.5Q517 396 517 346V218H232V190Q232 172 239.5 160.5Q247 149 259.5 142.5Q272 136 287 134Q302 132 317 132Q339 132 361.5 135Q384 138 404.5 142Q425 146 442 150.5Q459 155 471 159L506 35Q458 12 402 0Q346 -12 288 -12Z" glyph-name="eacute" horiz-adv-x="554" unicode="&#233;" /><glyph d="M283 589Q190 589 142.5 639Q95 689 92 773H216Q219 754 223 740Q227 726 234.5 716.5Q242 707 254 702.5Q266 698 286 698Q317 698 328.5 716.5Q340 735 342 773H461Q460 728 446 693.5Q432 659 408.5 635.5Q385 612 353 600.5Q321 589 283 589ZM335 321V366Q335 392 321 405.5Q307 419 283 419Q260 419 246 404.5Q232 390 232 366V321ZM288 -12Q240 -12 195 1Q150 14 115.5 40.5Q81 67 60.5 107.5Q40 148 40 203V328Q40 386 60.5 428.5Q81 471 114.5 498.5Q148 526 191.5 539Q235 552 281 552Q332 552 375 538.5Q418 525 449.5 499Q481 473 499 434.5Q517 396 517 346V218H232V190Q232 172 239.5 160.5Q247 149 259.5 142.5Q272 136 287 134Q302 132 317 132Q339 132 361.5 135Q384 138 404.5 142Q425 146 442 150.5Q459 155 471 159L506 35Q458 12 402 0Q346 -12 288 -12Z" glyph-name="ebreve" horiz-adv-x="554" unicode="&#277;" /><glyph d="M86 774H228L278 695L328 774H468L341 602H207ZM335 321V366Q335 392 321 405.5Q307 419 283 419Q260 419 246 404.5Q232 390 232 366V321ZM288 -12Q240 -12 195 1Q150 14 115.5 40.5Q81 67 60.5 107.5Q40 148 40 203V328Q40 386 60.5 428.5Q81 471 114.5 498.5Q148 526 191.5 539Q235 552 281 552Q332 552 375 538.5Q418 525 449.5 499Q481 473 499 434.5Q517 396 517 346V218H232V190Q232 172 239.5 160.5Q247 149 259.5 142.5Q272 136 287 134Q302 132 317 132Q339 132 361.5 135Q384 138 404.5 142Q425 146 442 150.5Q459 155 471 159L506 35Q458 12 402 0Q346 -12 288 -12Z" glyph-name="ecaron" horiz-adv-x="554" unicode="&#283;" /><glyph d="M218 766H352L473 594H331L281 673L231 594H96ZM335 321V366Q335 392 321 405.5Q307 419 283 419Q260 419 246 404.5Q232 390 232 366V321ZM288 -12Q240 -12 195 1Q150 14 115.5 40.5Q81 67 60.5 107.5Q40 148 40 203V328Q40 386 60.5 428.5Q81 471 114.5 498.5Q148 526 191.5 539Q235 552 281 552Q332 552 375 538.5Q418 525 449.5 499Q481 473 499 434.5Q517 396 517 346V218H232V190Q232 172 239.5 160.5Q247 149 259.5 142.5Q272 136 287 134Q302 132 317 132Q339 132 361.5 135Q384 138 404.5 142Q425 146 442 150.5Q459 155 471 159L506 35Q458 12 402 0Q346 -12 288 -12Z" glyph-name="ecircumflex" horiz-adv-x="554" unicode="&#234;" /><glyph d="M315 753H470V590H315ZM103 753H258V590H103ZM335 321V366Q335 392 321 405.5Q307 419 283 419Q260 419 246 404.5Q232 390 232 366V321ZM288 -12Q240 -12 195 1Q150 14 115.5 40.5Q81 67 60.5 107.5Q40 148 40 203V328Q40 386 60.5 428.5Q81 471 114.5 498.5Q148 526 191.5 539Q235 552 281 552Q332 552 375 538.5Q418 525 449.5 499Q481 473 499 434.5Q517 396 517 346V218H232V190Q232 172 239.5 160.5Q247 149 259.5 142.5Q272 136 287 134Q302 132 317 132Q339 132 361.5 135Q384 138 404.5 142Q425 146 442 150.5Q459 155 471 159L506 35Q458 12 402 0Q346 -12 288 -12Z" glyph-name="edieresis" horiz-adv-x="554" unicode="&#235;" /><glyph d="M194 752H360V589H194ZM335 321V366Q335 392 321 405.5Q307 419 283 419Q260 419 246 404.5Q232 390 232 366V321ZM288 -12Q240 -12 195 1Q150 14 115.5 40.5Q81 67 60.5 107.5Q40 148 40 203V328Q40 386 60.5 428.5Q81 471 114.5 498.5Q148 526 191.5 539Q235 552 281 552Q332 552 375 538.5Q418 525 449.5 499Q481 473 499 434.5Q517 396 517 346V218H232V190Q232 172 239.5 160.5Q247 149 259.5 142.5Q272 136 287 134Q302 132 317 132Q339 132 361.5 135Q384 138 404.5 142Q425 146 442 150.5Q459 155 471 159L506 35Q458 12 402 0Q346 -12 288 -12Z" glyph-name="edotaccent" horiz-adv-x="554" unicode="&#279;" /><glyph d="M110 756H292L375 593H238ZM335 321V366Q335 392 321 405.5Q307 419 283 419Q260 419 246 404.5Q232 390 232 366V321ZM288 -12Q240 -12 195 1Q150 14 115.5 40.5Q81 67 60.5 107.5Q40 148 40 203V328Q40 386 60.5 428.5Q81 471 114.5 498.5Q148 526 191.5 539Q235 552 281 552Q332 552 375 538.5Q418 525 449.5 499Q481 473 499 434.5Q517 396 517 346V218H232V190Q232 172 239.5 160.5Q247 149 259.5 142.5Q272 136 287 134Q302 132 317 132Q339 132 361.5 135Q384 138 404.5 142Q425 146 442 150.5Q459 155 471 159L506 35Q458 12 402 0Q346 -12 288 -12Z" glyph-name="egrave" horiz-adv-x="554" unicode="&#232;" /><glyph d="M295 422Q321 422 336.5 433.5Q352 445 352 468V524Q352 551 334.5 562Q317 573 294 573Q272 573 255.5 563Q239 553 239 532V466Q239 444 254 433Q269 422 295 422ZM295 140Q321 140 336.5 151.5Q352 163 352 186V247Q352 273 334.5 284.5Q317 296 294 296Q272 296 255.5 285.5Q239 275 239 255V185Q239 163 254.5 151.5Q270 140 295 140ZM296 -12Q242 -12 195.5 -2Q149 8 114 30Q79 52 59 88Q39 124 39 175V230Q39 275 63 308.5Q87 342 118 359Q103 366 90.5 379Q78 392 68.5 407.5Q59 423 54 440Q49 457 49 473V533Q49 579 68.5 615Q88 651 121 675.5Q154 700 198.5 712.5Q243 725 293 725Q343 725 388 713Q433 701 466.5 677.5Q500 654 520 618.5Q540 583 540 535V478Q540 437 520 406Q500 375 472 358Q487 350 501 338Q515 326 526.5 310Q538 294 544.5 275.5Q551 257 551 237V170Q551 126 530.5 92Q510 58 475.5 35Q441 12 394.5 0Q348 -12 296 -12Z" glyph-name="eight" horiz-adv-x="590" unicode="8" /><glyph d="M270 422Q296 422 311.5 433.5Q327 445 327 468V524Q327 551 309.5 562Q292 573 269 573Q247 573 230.5 563Q214 553 214 532V466Q214 444 229 433Q244 422 270 422ZM270 140Q296 140 311.5 151.5Q327 163 327 186V247Q327 273 309.5 284.5Q292 296 269 296Q247 296 230.5 285.5Q214 275 214 255V185Q214 163 229.5 151.5Q245 140 270 140ZM271 -12Q217 -12 170.5 -2Q124 8 89 30Q54 52 34 88Q14 124 14 175V230Q14 275 38 308.5Q62 342 93 359Q78 366 65.5 379Q53 392 43.5 407.5Q34 423 29 440Q24 457 24 473V533Q24 579 43.5 615Q63 651 96 675.5Q129 700 173.5 712.5Q218 725 268 725Q318 725 363 713Q408 701 441.5 677.5Q475 654 495 618.5Q515 583 515 535V478Q515 437 495 406Q475 375 447 358Q462 350 476 338Q490 326 501.5 310Q513 294 519.5 275.5Q526 257 526 237V170Q526 126 505.5 92Q485 58 450.5 35Q416 12 369.5 0Q323 -12 271 -12Z" glyph-name="eight.LT" horiz-adv-x="540" unicode="&#58696;" /><glyph d="M180 237Q211 237 211 263V281Q211 296 201 302.5Q191 309 179 309Q167 309 157.5 303.5Q148 298 148 287V262Q148 249 157 243Q166 237 180 237ZM180 80Q211 80 211 106V124Q211 139 201 145.5Q191 152 179 152Q167 152 157.5 146Q148 140 148 129V105Q148 92 157 86Q166 80 180 80ZM180 -12Q146 -12 116.5 -6Q87 0 65.5 13.5Q44 27 31.5 48.5Q19 70 19 102V121Q19 147 30.5 166Q42 185 61 196Q44 206 34.5 225.5Q25 245 25 264V286Q25 314 37 335.5Q49 357 70 372Q91 387 119 394.5Q147 402 179 402Q211 402 239.5 395Q268 388 289 373.5Q310 359 322.5 337.5Q335 316 335 287V266Q335 243 325 225Q315 207 299 196Q316 185 328.5 165.5Q341 146 341 125V98Q341 71 328.5 50.5Q316 30 294 16Q272 2 242.5 -5Q213 -12 180 -12Z" glyph-name="eight.dnom" horiz-adv-x="360" unicode="&#58378;" /><glyph d="M180 555Q211 555 211 581V599Q211 614 201 620.5Q191 627 179 627Q167 627 157.5 621.5Q148 616 148 605V580Q148 567 157 561Q166 555 180 555ZM180 398Q211 398 211 424V442Q211 457 201 463.5Q191 470 179 470Q167 470 157.5 464Q148 458 148 447V423Q148 410 157 404Q166 398 180 398ZM180 306Q146 306 116.5 312Q87 318 65.5 331.5Q44 345 31.5 366.5Q19 388 19 420V439Q19 465 30.5 484Q42 503 61 514Q44 524 34.5 543.5Q25 563 25 582V604Q25 632 37 653.5Q49 675 70 690Q91 705 119 712.5Q147 720 179 720Q211 720 239.5 713Q268 706 289 691.5Q310 677 322.5 655.5Q335 634 335 605V584Q335 561 325 543Q315 525 299 514Q316 503 328.5 483.5Q341 464 341 443V416Q341 389 328.5 368.5Q316 348 294 334Q272 320 242.5 313Q213 306 180 306Z" glyph-name="eight.numr" horiz-adv-x="360" unicode="&#58398;" /><glyph d="M522 187H698V0H522ZM283 187H459V0H283ZM44 187H220V0H44Z" glyph-name="ellipsis" horiz-adv-x="742" unicode="&#8230;" /><glyph d="M111 726H459V600H111ZM335 321V366Q335 392 321 405.5Q307 419 283 419Q260 419 246 404.5Q232 390 232 366V321ZM288 -12Q240 -12 195 1Q150 14 115.5 40.5Q81 67 60.5 107.5Q40 148 40 203V328Q40 386 60.5 428.5Q81 471 114.5 498.5Q148 526 191.5 539Q235 552 281 552Q332 552 375 538.5Q418 525 449.5 499Q481 473 499 434.5Q517 396 517 346V218H232V190Q232 172 239.5 160.5Q247 149 259.5 142.5Q272 136 287 134Q302 132 317 132Q339 132 361.5 135Q384 138 404.5 142Q425 146 442 150.5Q459 155 471 159L506 35Q458 12 402 0Q346 -12 288 -12Z" glyph-name="emacron" horiz-adv-x="554" unicode="&#275;" /><glyph d="M0 368H779V258H0Z" glyph-name="emdash" horiz-adv-x="779" unicode="&#8212;" /><glyph d="M0 368H461V258H0Z" glyph-name="endash" horiz-adv-x="461" unicode="&#8211;" /><glyph d="M369 -188Q343 -188 327.5 -187Q312 -186 292 -183V-22Q296 -23 304.5 -23.5Q313 -24 319 -24Q339 -24 344 -14Q349 -4 349 13V337Q349 347 347.5 358.5Q346 370 340 380Q334 390 323 397Q312 404 293 404Q272 404 255.5 385Q239 366 239 328V0H48V540H233V467H235Q264 505 303.5 528.5Q343 552 391 552Q417 552 443.5 542.5Q470 533 491.5 514Q513 495 526.5 466.5Q540 438 540 401V-23Q540 -65 526 -96Q512 -127 488 -147.5Q464 -168 433 -178Q402 -188 369 -188Z" glyph-name="eng" horiz-adv-x="584" unicode="&#331;" /><glyph d="M335 321V366Q335 392 321 405.5Q307 419 283 419Q260 419 246 404.5Q232 390 232 366V321ZM288 -12Q240 -12 195 1Q150 14 115.5 40.5Q81 67 60.5 107.5Q40 148 40 203V328Q40 386 60.5 428.5Q81 471 114.5 498.5Q148 526 191.5 539Q235 552 281 552Q332 552 375 538.5Q418 525 449.5 499Q481 473 499 434.5Q517 396 517 346V218H232V190Q232 172 239.5 160.5Q247 149 259.5 142.5Q272 136 287 134Q302 132 317 132Q339 132 361.5 135Q384 138 404.5 142Q425 146 442 150.5Q459 155 471 159L506 35Q496 30 485.5 26Q475 22 464 18Q435 0 418.5 -29.5Q402 -59 402 -82Q402 -106 415.5 -116.5Q429 -127 447 -127Q461 -127 478 -119.5Q495 -112 508 -103L552 -182Q531 -199 497.5 -209.5Q464 -220 422 -220Q398 -220 375.5 -214Q353 -208 335 -195Q317 -182 306 -161Q295 -140 295 -111Q295 -79 306.5 -54Q318 -29 338 -9Q312 -12 288 -12Z" glyph-name="eogonek" horiz-adv-x="551" unicode="&#281;" /><glyph d="M50 468H490V353H50ZM50 268H490V153H50Z" glyph-name="equal" horiz-adv-x="540" unicode="=" /><glyph d="M285 128Q312 128 323.5 144.5Q335 161 335 184V323Q335 349 321 365.5Q307 382 284 382Q258 382 245.5 364.5Q233 347 233 321V182Q233 157 245.5 142.5Q258 128 285 128ZM284 -12Q239 -12 195 -2Q151 8 116.5 31.5Q82 55 61 94Q40 133 40 192V291Q40 333 51.5 369.5Q63 406 85 433.5Q107 461 139.5 477.5Q172 494 213 496L230 497L190 552L102 529L54 617L130 636L89 700L275 744L315 684L410 709L458 622L374 599L486 438Q503 415 515.5 383.5Q528 352 528 314V193Q528 137 506.5 98Q485 59 450 34.5Q415 10 371.5 -1Q328 -12 284 -12Z" glyph-name="eth" horiz-adv-x="568" unicode="&#240;" /><glyph d="M57 187H233V0H57ZM52 455V713H238V455L203 233H88Z" glyph-name="exclam" horiz-adv-x="290" unicode="!" /><glyph d="M57 556H233V369H57ZM52 101 87 323H202L238 101V-157H52Z" glyph-name="exclamdown" horiz-adv-x="290" unicode="&#161;" /><glyph d="M96 377H35V531H96V585Q96 625 110.5 654Q125 683 149 701.5Q173 720 203.5 728.5Q234 737 266 737Q300 737 327.5 734Q355 731 381 723V589Q372 591 355.5 592.5Q339 594 325 594Q310 594 298 589.5Q286 585 286 569V531H360V377H286V0H96Z" glyph-name="f" horiz-adv-x="397" unicode="f" /><glyph d="M445 751H636V590H445ZM445 540H636V0H445ZM96 377H35V531H96V585Q96 625 110.5 654Q125 683 149 701.5Q173 720 203.5 728.5Q234 737 266 737Q300 737 327.5 734Q355 731 381 723V589Q372 591 355.5 592.5Q339 594 325 594Q310 594 298 589.5Q286 585 286 569V531H360V377H286V0H96Z" glyph-name="fi" horiz-adv-x="684" unicode="&#64257;" /><glyph d="M285 -12Q232 -12 187 -0.5Q142 11 108 33Q74 55 55 88Q36 121 36 165V216H228V192Q228 173 241 156Q254 139 287 139Q317 139 330 157Q343 175 343 201V272Q343 295 328.5 309Q314 323 287 323Q268 323 256 314.5Q244 306 234 294L49 319L72 713H501V542H234L227 418Q249 442 287.5 454.5Q326 467 363 467Q395 467 426 458.5Q457 450 481 431Q505 412 519.5 381Q534 350 534 304V198Q534 144 513.5 104.5Q493 65 458.5 39Q424 13 379 0.5Q334 -12 285 -12Z" glyph-name="five" horiz-adv-x="576" unicode="5" /><glyph d="M269 -12Q216 -12 171 -0.5Q126 11 92 33Q58 55 39 88Q20 121 20 165V216H212V192Q212 173 225 156Q238 139 271 139Q301 139 314 157Q327 175 327 201V272Q327 295 312.5 309Q298 323 271 323Q252 323 240 314.5Q228 306 218 294L33 319L56 713H485V542H218L211 418Q233 442 271.5 454.5Q310 467 347 467Q379 467 410 458.5Q441 450 465 431Q489 412 503.5 381Q518 350 518 304V198Q518 144 497.5 104.5Q477 65 442.5 39Q408 13 363 0.5Q318 -12 269 -12Z" glyph-name="five.LT" horiz-adv-x="540" unicode="&#58693;" /><glyph d="M173 -12Q141 -12 113 -5.5Q85 1 64.5 14.5Q44 28 32 48Q20 68 20 94V125H143V117Q143 106 150 98Q157 90 175 90Q192 90 199 99Q206 108 206 122V145Q206 159 197 167Q188 175 173 175Q163 175 155.5 169.5Q148 164 143 158L25 170L34 394H313V288H143Q143 274 142 263.5Q141 253 141 237Q159 248 179.5 252Q200 256 220 256Q239 256 260.5 251Q282 246 299.5 234.5Q317 223 328.5 204Q340 185 340 157V108Q340 78 325 55.5Q310 33 286 18Q262 3 232 -4.5Q202 -12 173 -12Z" glyph-name="five.dnom" horiz-adv-x="360" unicode="&#58375;" /><glyph d="M173 306Q141 306 113 312.5Q85 319 64.5 332.5Q44 346 32 366Q20 386 20 412V443H143V435Q143 424 150 416Q157 408 175 408Q192 408 199 417Q206 426 206 440V463Q206 477 197 485Q188 493 173 493Q163 493 155.5 487.5Q148 482 143 476L25 488L34 712H313V606H143Q143 592 142 581.5Q141 571 141 555Q159 566 179.5 570Q200 574 220 574Q239 574 260.5 569Q282 564 299.5 552.5Q317 541 328.5 522Q340 503 340 475V426Q340 396 325 373.5Q310 351 286 336Q262 321 232 313.5Q202 306 173 306Z" glyph-name="five.numr" horiz-adv-x="360" unicode="&#58395;" /><glyph d="M598 -11Q525 -11 483 23.5Q441 58 441 124V713H633V185Q633 171 638.5 161.5Q644 152 667 152Q681 152 701 155V6Q678 -2 651.5 -6.5Q625 -11 598 -11ZM96 377H35V531H96V585Q96 625 110.5 654Q125 683 149 701.5Q173 720 203.5 728.5Q234 737 266 737Q300 737 327.5 734Q355 731 381 723V589Q372 591 355.5 592.5Q339 594 325 594Q310 594 298 589.5Q286 585 286 569V531H360V377H286V0H96Z" glyph-name="fl" horiz-adv-x="725" unicode="&#64258;" /><glyph d="M117 -188Q64 -188 28 -178L38 -40Q42 -41 50.5 -41.5Q59 -42 65 -42Q85 -42 89.5 -32Q94 -22 95 -5L114 339H49L56 468H121L127 566Q130 606 144.5 637Q159 668 182 689Q205 710 234.5 720.5Q264 731 296 731Q319 731 347.5 728Q376 725 403 716L395 588Q386 590 371.5 590.5Q357 591 343 591Q328 591 318 582.5Q308 574 308 558L303 468H384L378 339H297L279 -21Q279 -63 266 -94Q253 -125 231 -146Q209 -167 179.5 -177.5Q150 -188 117 -188Z" glyph-name="florin" horiz-adv-x="418" unicode="&#402;" /><glyph d="M339 132H49V280L272 713H500L243 289H339V359L520 471V289H572V132H520V0H339Z" glyph-name="four" horiz-adv-x="621" unicode="4" /><glyph d="M299 132H9V280L232 713H460L203 289H299V359L480 471V289H532V132H480V0H299Z" glyph-name="four.LT" horiz-adv-x="540" unicode="&#58692;" /><glyph d="M182 72H12V162L157 395H293L140 170H182V203L313 291V170H348V72H313V0H182Z" glyph-name="four.dnom" horiz-adv-x="360" unicode="&#58374;" /><glyph d="M182 390H12V480L157 713H293L140 488H182V521L313 609V488H348V390H313V318H182Z" glyph-name="four.numr" horiz-adv-x="360" unicode="&#58394;" /><glyph d="M214 718H301L-97 -2H-184Z" glyph-name="fraction" horiz-adv-x="117" unicode="&#8260;" /><glyph d="M285 160Q306 160 323.5 174Q341 188 341 223V354Q341 371 335.5 382.5Q330 394 321.5 401Q313 408 303.5 411Q294 414 285 414Q259 414 245 401Q231 388 231 354V219Q231 181 246.5 170.5Q262 160 285 160ZM264 -188Q207 -188 154 -178Q101 -168 59 -151L104 -13Q142 -26 180.5 -33.5Q219 -41 254 -41Q301 -41 321.5 -24.5Q342 -8 342 28V114H340Q324 73 287.5 46Q251 19 204 19Q162 19 131.5 32.5Q101 46 80.5 70Q60 94 50 126Q40 158 40 196V380Q40 416 52.5 447Q65 478 88 501.5Q111 525 143 538.5Q175 552 215 552Q234 552 254.5 546Q275 540 293 529.5Q311 519 326 505.5Q341 492 350 477H352L358 541H533V55Q533 -66 462.5 -127Q392 -188 264 -188Z" glyph-name="g" horiz-adv-x="581" unicode="g" /><glyph d="M308 589Q215 589 167.5 639Q120 689 117 773H241Q244 754 248 740Q252 726 259.5 716.5Q267 707 279 702.5Q291 698 311 698Q342 698 353.5 716.5Q365 735 367 773H486Q485 728 471 693.5Q457 659 433.5 635.5Q410 612 378 600.5Q346 589 308 589ZM285 160Q306 160 323.5 174Q341 188 341 223V354Q341 371 335.5 382.5Q330 394 321.5 401Q313 408 303.5 411Q294 414 285 414Q259 414 245 401Q231 388 231 354V219Q231 181 246.5 170.5Q262 160 285 160ZM264 -188Q207 -188 154 -178Q101 -168 59 -151L104 -13Q142 -26 180.5 -33.5Q219 -41 254 -41Q301 -41 321.5 -24.5Q342 -8 342 28V114H340Q324 73 287.5 46Q251 19 204 19Q162 19 131.5 32.5Q101 46 80.5 70Q60 94 50 126Q40 158 40 196V380Q40 416 52.5 447Q65 478 88 501.5Q111 525 143 538.5Q175 552 215 552Q234 552 254.5 546Q275 540 293 529.5Q311 519 326 505.5Q341 492 350 477H352L358 541H533V55Q533 -66 462.5 -127Q392 -188 264 -188Z" glyph-name="gbreve" horiz-adv-x="581" unicode="&#287;" /><glyph d="M212 766H346L467 594H325L275 673L225 594H90ZM285 160Q306 160 323.5 174Q341 188 341 223V354Q341 371 335.5 382.5Q330 394 321.5 401Q313 408 303.5 411Q294 414 285 414Q259 414 245 401Q231 388 231 354V219Q231 181 246.5 170.5Q262 160 285 160ZM264 -188Q207 -188 154 -178Q101 -168 59 -151L104 -13Q142 -26 180.5 -33.5Q219 -41 254 -41Q301 -41 321.5 -24.5Q342 -8 342 28V114H340Q324 73 287.5 46Q251 19 204 19Q162 19 131.5 32.5Q101 46 80.5 70Q60 94 50 126Q40 158 40 196V380Q40 416 52.5 447Q65 478 88 501.5Q111 525 143 538.5Q175 552 215 552Q234 552 254.5 546Q275 540 293 529.5Q311 519 326 505.5Q341 492 350 477H352L358 541H533V55Q533 -66 462.5 -127Q392 -188 264 -188Z" glyph-name="gcircumflex" horiz-adv-x="581" unicode="&#285;" /><glyph d="M199 685 252 821H331L309 721H364V588H199ZM285 160Q306 160 323.5 174Q341 188 341 223V354Q341 371 335.5 382.5Q330 394 321.5 401Q313 408 303.5 411Q294 414 285 414Q259 414 245 401Q231 388 231 354V219Q231 181 246.5 170.5Q262 160 285 160ZM264 -188Q207 -188 154 -178Q101 -168 59 -151L104 -13Q142 -26 180.5 -33.5Q219 -41 254 -41Q301 -41 321.5 -24.5Q342 -8 342 28V114H340Q324 73 287.5 46Q251 19 204 19Q162 19 131.5 32.5Q101 46 80.5 70Q60 94 50 126Q40 158 40 196V380Q40 416 52.5 447Q65 478 88 501.5Q111 525 143 538.5Q175 552 215 552Q234 552 254.5 546Q275 540 293 529.5Q311 519 326 505.5Q341 492 350 477H352L358 541H533V55Q533 -66 462.5 -127Q392 -188 264 -188Z" glyph-name="gcommaaccent" horiz-adv-x="581" unicode="&#291;" /><glyph d="M207 752H373V589H207ZM285 160Q306 160 323.5 174Q341 188 341 223V354Q341 371 335.5 382.5Q330 394 321.5 401Q313 408 303.5 411Q294 414 285 414Q259 414 245 401Q231 388 231 354V219Q231 181 246.5 170.5Q262 160 285 160ZM264 -188Q207 -188 154 -178Q101 -168 59 -151L104 -13Q142 -26 180.5 -33.5Q219 -41 254 -41Q301 -41 321.5 -24.5Q342 -8 342 28V114H340Q324 73 287.5 46Q251 19 204 19Q162 19 131.5 32.5Q101 46 80.5 70Q60 94 50 126Q40 158 40 196V380Q40 416 52.5 447Q65 478 88 501.5Q111 525 143 538.5Q175 552 215 552Q234 552 254.5 546Q275 540 293 529.5Q311 519 326 505.5Q341 492 350 477H352L358 541H533V55Q533 -66 462.5 -127Q392 -188 264 -188Z" glyph-name="gdotaccent" horiz-adv-x="581" unicode="&#289;" /><glyph d="M439 -8Q406 -8 378 -4.5Q350 -1 321 8L335 149Q345 148 361 146Q377 144 393 144Q418 144 433.5 157.5Q449 171 449 201Q449 232 418.5 253Q388 274 336 281V420H363Q383 431 400.5 452Q418 473 418 500Q418 531 403 553Q388 575 347 575Q309 575 295 553Q281 531 281 499V0H91V385H33V530H91V532Q91 560 104.5 594.5Q118 629 149.5 659Q181 689 232.5 709.5Q284 730 359 730Q411 730 456.5 716Q502 702 535 676Q568 650 587 614Q606 578 606 535Q606 489 581 445.5Q556 402 510 383V379Q573 353 605.5 300.5Q638 248 638 188Q638 140 620.5 103.5Q603 67 575 42.5Q547 18 511 5Q475 -8 439 -8Z" glyph-name="germandbls" horiz-adv-x="667" unicode="&#223;" /><glyph d="M21 756H203L286 593H149Z" glyph-name="grave" horiz-adv-x="314" unicode="`" /><glyph d="M52 195 316 319 54 442 105 545 488 361V275L103 93Z" glyph-name="greater" horiz-adv-x="540" unicode="&gt;" /><glyph d="M54 115H492V0H54ZM52 274 329 383 48 489 99 592 490 426V340L104 172Z" glyph-name="greaterequal" horiz-adv-x="540" unicode="&#8805;" /><glyph d="M262 268 418 459 509 410 454 268 512 126 418 79ZM22 268 178 459 269 410 214 268 272 126 178 79Z" glyph-name="guillemotleft" horiz-adv-x="534" unicode="&#171;" /><glyph d="M264 128 319 270 262 412 357 459 513 270 357 79ZM24 128 79 270 22 412 117 459 273 270 117 79Z" glyph-name="guillemotright" horiz-adv-x="535" unicode="&#187;" /><glyph d="M22 268 178 459 269 410 214 268 272 126 178 79Z" glyph-name="guilsinglleft" horiz-adv-x="294" unicode="&#8249;" /><glyph d="M24 128 79 270 22 412 117 459 273 270 117 79Z" glyph-name="guilsinglright" horiz-adv-x="295" unicode="&#8250;" /><glyph d="M48 713H239V466H241Q269 507 306 529.5Q343 552 391 552Q417 552 443.5 542.5Q470 533 491.5 514Q513 495 526.5 466.5Q540 438 540 401V0H349V337Q349 347 347.5 358.5Q346 370 340 380Q334 390 323 397Q312 404 293 404Q272 404 255.5 385Q239 366 239 328V0H48Z" glyph-name="h" horiz-adv-x="584" unicode="h" /><glyph d="M0 669H48V713H239V669H350V580H239V466H241Q269 507 306 529.5Q343 552 391 552Q417 552 443.5 542.5Q470 533 491.5 514Q513 495 526.5 466.5Q540 438 540 401V0H349V337Q349 347 347.5 358.5Q346 370 340 380Q334 390 323 397Q312 404 293 404Q272 404 255.5 385Q239 366 239 328V0H48V580H0Z" glyph-name="hbar" horiz-adv-x="584" unicode="&#295;" /><glyph d="M85 929H219L340 757H198L148 836L98 757H-37ZM48 713H239V466H241Q269 507 306 529.5Q343 552 391 552Q417 552 443.5 542.5Q470 533 491.5 514Q513 495 526.5 466.5Q540 438 540 401V0H349V337Q349 347 347.5 358.5Q346 370 340 380Q334 390 323 397Q312 404 293 404Q272 404 255.5 385Q239 366 239 328V0H48Z" glyph-name="hcircumflex" horiz-adv-x="584" unicode="&#293;" /><glyph d="M315 752H466L369 591H246ZM102 752H253L168 591H41Z" glyph-name="hungarumlaut" horiz-adv-x="523" unicode="&#733;" /><glyph d="M36 376H298V240H36Z" glyph-name="hyphen" horiz-adv-x="334" unicode="-" /><glyph d="M48 751H239V590H48ZM48 540H239V0H48Z" glyph-name="i" horiz-adv-x="287" unicode="i" /><glyph d="M152 756H334L206 593H69ZM48 540H239V0H48Z" glyph-name="iacute" horiz-adv-x="287" unicode="&#237;" /><glyph d="M150 589Q57 589 9.5 639Q-38 689 -41 773H83Q86 754 90 740Q94 726 101.5 716.5Q109 707 121 702.5Q133 698 153 698Q184 698 195.5 716.5Q207 735 209 773H328Q327 728 313 693.5Q299 659 275.5 635.5Q252 612 220 600.5Q188 589 150 589ZM48 540H239V0H48Z" glyph-name="ibreve" horiz-adv-x="287" unicode="&#301;" /><glyph d="M48 540H239V0H48ZM68 766H202L323 594H181L131 673L81 594H-54Z" glyph-name="icircumflex" horiz-adv-x="287" unicode="&#238;" /><glyph d="M48 540H239V0H48ZM165 753H320V590H165ZM-47 753H108V590H-47Z" glyph-name="idieresis" horiz-adv-x="287" unicode="&#239;" /><glyph d="M48 751H239V590H48ZM48 540H239V0H48Z" glyph-name="idotaccent" horiz-adv-x="287" /><glyph d="M48 540H239V0H48ZM-54 756H128L211 593H74Z" glyph-name="igrave" horiz-adv-x="287" unicode="&#236;" /><glyph d="M319 751H510V590H319ZM339 -188Q313 -188 297.5 -187Q282 -186 262 -183V-22Q266 -23 274.5 -23.5Q283 -24 289 -24Q309 -24 314 -14Q319 -4 319 13V540H510V-23Q510 -65 496 -96Q482 -127 458 -147.5Q434 -168 403 -178Q372 -188 339 -188ZM48 751H239V590H48ZM48 540H239V0H48Z" glyph-name="ij" horiz-adv-x="554" unicode="&#307;" /><glyph d="M-30 726H318V600H-30ZM48 540H239V0H48Z" glyph-name="imacron" horiz-adv-x="287" unicode="&#299;" /><glyph d="M586 250Q621 250 644 271.5Q667 293 667 325Q667 355 651 375.5Q635 396 597 396Q567 396 537 373Q507 350 478 321Q499 293 523.5 271.5Q548 250 586 250ZM224 255Q257 255 288 277.5Q319 300 346 329Q337 342 325 355Q313 368 298.5 378.5Q284 389 268 396Q252 403 234 403Q201 403 179 382Q157 361 157 333Q157 301 175.5 278Q194 255 224 255ZM588 148Q556 148 529 155.5Q502 163 480 175.5Q458 188 440 204Q422 220 407 237Q372 203 328.5 178.5Q285 154 229 154Q187 154 152.5 167Q118 180 94 203Q70 226 57 257Q44 288 44 324Q44 362 58.5 394.5Q73 427 98.5 450.5Q124 474 158.5 487.5Q193 501 232 501Q290 501 336 475.5Q382 450 417 411Q432 426 450.5 441Q469 456 491 467.5Q513 479 539 486.5Q565 494 595 494Q679 494 729.5 452Q780 410 780 332Q780 292 765.5 258.5Q751 225 725.5 200.5Q700 176 665 162Q630 148 588 148Z" glyph-name="infinity" horiz-adv-x="824" unicode="&#8734;" /><glyph d="M109 -187Q86 -187 57.5 -184Q29 -181 2 -172L15 -44Q24 -46 38.5 -46.5Q53 -47 67 -47Q82 -47 91.5 -38.5Q101 -30 103 -14L152 566Q155 606 169 637Q183 668 205 689Q227 710 254.5 720.5Q282 731 314 731Q337 731 365.5 728Q394 725 421 716L408 586Q399 588 384.5 589.5Q370 591 356 591Q323 591 320 558L271 -21Q264 -102 218.5 -144.5Q173 -187 109 -187Z" glyph-name="integral" horiz-adv-x="445" unicode="&#8747;" /><glyph d="M48 751H239V590H48ZM48 540H239V0H226Q192 -13 177.5 -35Q163 -57 163 -80Q163 -103 177 -111.5Q191 -120 210 -120Q226 -120 254 -103L292 -181Q266 -198 237 -205.5Q208 -213 176 -213Q155 -213 134 -206.5Q113 -200 96 -186.5Q79 -173 68.5 -152.5Q58 -132 58 -103Q58 -68 72 -43Q86 -18 106 0H48Z" glyph-name="iogonek" horiz-adv-x="287" unicode="&#303;" /><glyph d="M-66 603Q-62 633 -52 660.5Q-42 688 -26 709.5Q-10 731 12.5 743.5Q35 756 64 756Q85 756 105.5 750.5Q126 745 146 738.5Q166 732 186 726.5Q206 721 227 721Q246 721 256 734.5Q266 748 274 771L353 750Q350 722 341 695Q332 668 317 647Q302 626 279.5 613.5Q257 601 227 601Q207 601 187 606.5Q167 612 147.5 618Q128 624 108.5 629.5Q89 635 69 635Q49 635 40 623.5Q31 612 23 585ZM48 540H239V0H48Z" glyph-name="itilde" horiz-adv-x="287" unicode="&#297;" /><glyph d="M63 751H254V590H63ZM83 -188Q57 -188 41.5 -187Q26 -186 6 -183V-22Q10 -23 18.5 -23.5Q27 -24 33 -24Q53 -24 58 -14Q63 -4 63 13V540H254V-23Q254 -65 240 -96Q226 -127 202 -147.5Q178 -168 147 -178Q116 -188 83 -188Z" glyph-name="j" horiz-adv-x="298" unicode="j" /><glyph d="M83 766H217L338 594H196L146 673L96 594H-39ZM83 -188Q57 -188 41.5 -187Q26 -186 6 -183V-22Q10 -23 18.5 -23.5Q27 -24 33 -24Q53 -24 58 -14Q63 -4 63 13V540H254V-23Q254 -65 240 -96Q226 -127 202 -147.5Q178 -168 147 -178Q116 -188 83 -188Z" glyph-name="jcircumflex" horiz-adv-x="298" unicode="&#309;" /><glyph d="M48 713H239V325L362 540H552L433 355L559 0H356L286 221L239 148V0H48Z" glyph-name="k" horiz-adv-x="566" unicode="k" /><glyph d="M213 -33H368L328 -218H201ZM48 713H239V325L362 540H552L433 355L559 0H356L286 221L239 148V0H48Z" glyph-name="kcommaaccent" horiz-adv-x="566" unicode="&#311;" /><glyph d="M48 540H239V325L362 540H552L433 355L559 0H356L286 221L239 148V0H48Z" glyph-name="kgreenlandic" horiz-adv-x="566" unicode="&#312;" /><glyph d="M201 -11Q128 -11 86 23.5Q44 58 44 124V713H236V185Q236 171 241.5 161.5Q247 152 270 152Q284 152 304 155V6Q281 -2 254.5 -6.5Q228 -11 201 -11Z" glyph-name="l" horiz-adv-x="328" unicode="l" /><glyph d="M154 919H336L208 756H71ZM201 -11Q128 -11 86 23.5Q44 58 44 124V713H236V185Q236 171 241.5 161.5Q247 152 270 152Q284 152 304 155V6Q281 -2 254.5 -6.5Q228 -11 201 -11Z" glyph-name="lacute" horiz-adv-x="328" unicode="&#314;" /><glyph d="M279 713H434L394 491H267ZM201 -11Q128 -11 86 23.5Q44 58 44 124V713H236V185Q236 171 241.5 161.5Q247 152 270 152Q284 152 304 155V6Q281 -2 254.5 -6.5Q228 -11 201 -11Z" glyph-name="lcaron" horiz-adv-x="328" unicode="&#318;" /><glyph d="M94 -33H249L209 -218H82ZM201 -11Q128 -11 86 23.5Q44 58 44 124V713H236V185Q236 171 241.5 161.5Q247 152 270 152Q284 152 304 155V6Q281 -2 254.5 -6.5Q228 -11 201 -11Z" glyph-name="lcommaaccent" horiz-adv-x="328" unicode="&#316;" /><glyph d="M270 484H436V314H270ZM201 -11Q128 -11 86 23.5Q44 58 44 124V713H236V185Q236 171 241.5 161.5Q247 152 270 152Q284 152 304 155V6Q281 -2 254.5 -6.5Q228 -11 201 -11Z" glyph-name="ldot" horiz-adv-x="448" unicode="&#320;" /><glyph d="M51 275V361L435 545L486 442L223 318L488 194L436 92Z" glyph-name="less" horiz-adv-x="540" unicode="&lt;" /><glyph d="M48 115H486V0H48ZM50 340V426L441 592L492 489L211 383L488 274L436 172Z" glyph-name="lessequal" horiz-adv-x="540" unicode="&#8804;" /><glyph d="M445 261H45V371H568V122H445Z" glyph-name="logicalnot" horiz-adv-x="633" unicode="&#172;" /><glyph d="M381 340 274 549 175 352 282 147ZM43 339V351L232 713H324L512 351V339L324 0H232Z" glyph-name="lozenge" horiz-adv-x="556" unicode="&#9674;" /><glyph d="M22 375 71 401V713H263V504L332 541V424L263 387V185Q263 171 268.5 161.5Q274 152 297 152Q311 152 331 155V6Q308 -2 281.5 -6.5Q255 -11 228 -11Q155 -11 113 23.5Q71 58 71 124V284L22 258Z" glyph-name="lslash" horiz-adv-x="356" unicode="&#322;" /><glyph d="M48 540H232V462H234Q262 503 302.5 527.5Q343 552 391 552Q411 552 432 547Q453 542 472 531Q491 520 506 503.5Q521 487 530 465H533Q563 507 603.5 529.5Q644 552 693 552Q719 552 745.5 542.5Q772 533 793.5 514Q815 495 828.5 466.5Q842 438 842 401V0H651V337Q651 347 649 358.5Q647 370 641 380Q635 390 624 397Q613 404 595 404Q573 404 556.5 385Q540 366 540 328V0H349V337Q349 347 347.5 358.5Q346 370 340 380Q334 390 323 397Q312 404 293 404Q272 404 255.5 385Q239 366 239 328V0H48Z" glyph-name="m" horiz-adv-x="886" unicode="m" /><glyph d="M43 726H391V600H43Z" glyph-name="macron" horiz-adv-x="435" unicode="&#175;" /><glyph d="M50 374H490V260H50Z" glyph-name="minus" horiz-adv-x="540" unicode="&#8722;" /><glyph d="M44 540H235V203Q235 193 236.5 181Q238 169 244 159Q250 149 261 142Q272 135 291 135Q312 135 333 154.5Q354 174 354 211V540H545V218Q545 198 555.5 185Q566 172 589 170L587 -5Q557 -5 529.5 -1Q502 3 479 13Q456 23 438.5 39Q421 55 411 80Q406 65 397.5 48.5Q389 32 375.5 18.5Q362 5 343 -3.5Q324 -12 298 -12Q256 -12 231.5 4Q207 20 198 45L191 44L221 -161L44 -178Z" glyph-name="mu" horiz-adv-x="607" unicode="&#181;" /><glyph d="M49 173 190 319 45 464 127 547 272 403 413 547 495 464 354 320 495 173 413 91 272 236 131 91Z" glyph-name="multiply" horiz-adv-x="540" unicode="&#215;" /><glyph d="M48 540H233V467H235Q264 505 303.5 528.5Q343 552 391 552Q417 552 443.5 542.5Q470 533 491.5 514Q513 495 526.5 466.5Q540 438 540 401V0H349V337Q349 347 347.5 358.5Q346 370 340 380Q334 390 323 397Q312 404 293 404Q272 404 255.5 385Q239 366 239 328V0H48Z" glyph-name="n" horiz-adv-x="584" unicode="n" /><glyph d="M313 756H495L367 593H230ZM48 540H233V467H235Q264 505 303.5 528.5Q343 552 391 552Q417 552 443.5 542.5Q470 533 491.5 514Q513 495 526.5 466.5Q540 438 540 401V0H349V337Q349 347 347.5 358.5Q346 370 340 380Q334 390 323 397Q312 404 293 404Q272 404 255.5 385Q239 366 239 328V0H48Z" glyph-name="nacute" horiz-adv-x="584" unicode="&#324;" /><glyph d="M101 774H243L293 695L343 774H483L356 602H222ZM48 540H233V467H235Q264 505 303.5 528.5Q343 552 391 552Q417 552 443.5 542.5Q470 533 491.5 514Q513 495 526.5 466.5Q540 438 540 401V0H349V337Q349 347 347.5 358.5Q346 370 340 380Q334 390 323 397Q312 404 293 404Q272 404 255.5 385Q239 366 239 328V0H48Z" glyph-name="ncaron" horiz-adv-x="584" unicode="&#328;" /><glyph d="M222 -33H377L337 -218H210ZM48 540H233V467H235Q264 505 303.5 528.5Q343 552 391 552Q417 552 443.5 542.5Q470 533 491.5 514Q513 495 526.5 466.5Q540 438 540 401V0H349V337Q349 347 347.5 358.5Q346 370 340 380Q334 390 323 397Q312 404 293 404Q272 404 255.5 385Q239 366 239 328V0H48Z" glyph-name="ncommaaccent" horiz-adv-x="584" unicode="&#326;" /><glyph d="M291 392Q300 392 310 395Q320 398 328.5 405Q337 412 342.5 424Q348 436 348 454V520Q348 542 333.5 555.5Q319 569 293 569Q265 569 250.5 555Q236 541 236 521V440Q236 426 241.5 417Q247 408 255 402.5Q263 397 272.5 394.5Q282 392 291 392ZM293 -11Q239 -11 194 1Q149 13 116 36.5Q83 60 65 94.5Q47 129 47 173V215H241V190Q241 167 255.5 154Q270 141 293 141Q319 141 333.5 155.5Q348 170 348 193V321Q321 289 289 274.5Q257 260 214 260Q133 260 88 303Q43 346 43 427V518Q43 569 62.5 607.5Q82 646 115.5 672Q149 698 194.5 711.5Q240 725 291 725Q346 725 393.5 711.5Q441 698 475.5 671.5Q510 645 529.5 607Q549 569 549 520V209Q549 158 530 117.5Q511 77 477 48.5Q443 20 396 4.5Q349 -11 293 -11Z" glyph-name="nine" horiz-adv-x="592" unicode="9" /><glyph d="M265 392Q274 392 284 395Q294 398 302.5 405Q311 412 316.5 424Q322 436 322 454V520Q322 542 307.5 555.5Q293 569 267 569Q239 569 224.5 555Q210 541 210 521V440Q210 426 215.5 417Q221 408 229 402.5Q237 397 246.5 394.5Q256 392 265 392ZM267 -11Q213 -11 168 1Q123 13 90 36.5Q57 60 39 94.5Q21 129 21 173V215H215V190Q215 167 229.5 154Q244 141 267 141Q293 141 307.5 155.5Q322 170 322 193V321Q295 289 263 274.5Q231 260 188 260Q107 260 62 303Q17 346 17 427V518Q17 569 36.5 607.5Q56 646 89.5 672Q123 698 168.5 711.5Q214 725 265 725Q320 725 367.5 711.5Q415 698 449.5 671.5Q484 645 503.5 607Q523 569 523 520V209Q523 158 504 117.5Q485 77 451 48.5Q417 20 370 4.5Q323 -11 267 -11Z" glyph-name="nine.LT" horiz-adv-x="540" unicode="&#58697;" /><glyph d="M177 218Q187 218 197 224.5Q207 231 207 253V276Q207 288 198.5 295.5Q190 303 176 303Q160 303 154 295.5Q148 288 148 277V245Q148 228 157.5 223Q167 218 177 218ZM174 -12Q105 -12 64 20.5Q23 53 23 107V119H147V115Q147 102 156.5 96Q166 90 178 90Q207 90 207 114V162Q192 151 170.5 144Q149 137 123 137Q71 137 43.5 164Q16 191 16 231V279Q16 308 29.5 331Q43 354 66 369.5Q89 385 118 393.5Q147 402 179 402Q210 402 239.5 394Q269 386 292 370Q315 354 329 331Q343 308 343 277V122Q343 84 328.5 58.5Q314 33 290.5 17.5Q267 2 236.5 -5Q206 -12 174 -12Z" glyph-name="nine.dnom" horiz-adv-x="360" unicode="&#58379;" /><glyph d="M177 536Q187 536 197 542.5Q207 549 207 571V594Q207 606 198.5 613.5Q190 621 176 621Q160 621 154 613.5Q148 606 148 595V563Q148 546 157.5 541Q167 536 177 536ZM174 306Q105 306 64 338.5Q23 371 23 425V437H147V433Q147 420 156.5 414Q166 408 178 408Q207 408 207 432V480Q192 469 170.5 462Q149 455 123 455Q71 455 43.5 482Q16 509 16 549V597Q16 626 29.5 649Q43 672 66 687.5Q89 703 118 711.5Q147 720 179 720Q210 720 239.5 712Q269 704 292 688Q315 672 329 649Q343 626 343 595V440Q343 402 328.5 376.5Q314 351 290.5 335.5Q267 320 236.5 313Q206 306 174 306Z" glyph-name="nine.numr" horiz-adv-x="360" unicode="&#58399;" /><glyph glyph-name="nonmarkingreturn" horiz-adv-x="0" /><glyph d="M107 79 143 153H50V268H200L242 353H50V468H298L350 573L443 531L412 468H490V353H355L313 268H490V153H257L200 37Z" glyph-name="notequal" horiz-adv-x="540" unicode="&#8800;" /><glyph d="M99 603Q103 633 113 660.5Q123 688 139 709.5Q155 731 177.5 743.5Q200 756 229 756Q250 756 270.5 750.5Q291 745 311 738.5Q331 732 351 726.5Q371 721 392 721Q411 721 421 734.5Q431 748 439 771L518 750Q515 722 506 695Q497 668 482 647Q467 626 444.5 613.5Q422 601 392 601Q372 601 352 606.5Q332 612 312.5 618Q293 624 273.5 629.5Q254 635 234 635Q214 635 205 623.5Q196 612 188 585ZM48 540H233V467H235Q264 505 303.5 528.5Q343 552 391 552Q417 552 443.5 542.5Q470 533 491.5 514Q513 495 526.5 466.5Q540 438 540 401V0H349V337Q349 347 347.5 358.5Q346 370 340 380Q334 390 323 397Q312 404 293 404Q272 404 255.5 385Q239 366 239 328V0H48Z" glyph-name="ntilde" horiz-adv-x="584" unicode="&#241;" /><glyph d="M326 275 350 454H251L229 275ZM121 168H18L33 275H133L157 454H51L65 559H167L187 715H282L265 559H362L381 715H476L457 559H557L545 454H445L423 275H526L514 168H409L389 -1H294L313 168H216L194 -1H100Z" glyph-name="numbersign" horiz-adv-x="570" unicode="#" /><glyph d="M308 275 332 454H233L211 275ZM103 168H16L31 275H115L139 454H49L63 559H149L169 715H264L247 559H344L363 715H458L439 559H523L511 454H427L405 275H492L480 168H391L371 -1H276L295 168H198L176 -1H82Z" glyph-name="numbersign.LP" horiz-adv-x="540" unicode="&#58675;" /><glyph d="M285 128Q312 128 323.5 144.5Q335 161 335 184V352Q335 378 321 394.5Q307 411 284 411Q258 411 245.5 393.5Q233 376 233 350V182Q233 157 245.5 142.5Q258 128 285 128ZM284 -12Q239 -12 195 -2Q151 8 116.5 31.5Q82 55 61 94Q40 133 40 192V339Q40 394 60.5 434.5Q81 475 115 501Q149 527 192.5 539.5Q236 552 282 552Q327 552 371 541Q415 530 450 505.5Q485 481 506.5 441Q528 401 528 343V193Q528 137 506.5 98Q485 59 450 34.5Q415 10 371.5 -1Q328 -12 284 -12Z" glyph-name="o" horiz-adv-x="568" unicode="o" /><glyph d="M294 756H476L348 593H211ZM285 128Q312 128 323.5 144.5Q335 161 335 184V352Q335 378 321 394.5Q307 411 284 411Q258 411 245.5 393.5Q233 376 233 350V182Q233 157 245.5 142.5Q258 128 285 128ZM284 -12Q239 -12 195 -2Q151 8 116.5 31.5Q82 55 61 94Q40 133 40 192V339Q40 394 60.5 434.5Q81 475 115 501Q149 527 192.5 539.5Q236 552 282 552Q327 552 371 541Q415 530 450 505.5Q485 481 506.5 441Q528 401 528 343V193Q528 137 506.5 98Q485 59 450 34.5Q415 10 371.5 -1Q328 -12 284 -12Z" glyph-name="oacute" horiz-adv-x="568" unicode="&#243;" /><glyph d="M290 589Q197 589 149.5 639Q102 689 99 773H223Q226 754 230 740Q234 726 241.5 716.5Q249 707 261 702.5Q273 698 293 698Q324 698 335.5 716.5Q347 735 349 773H468Q467 728 453 693.5Q439 659 415.5 635.5Q392 612 360 600.5Q328 589 290 589ZM285 128Q312 128 323.5 144.5Q335 161 335 184V352Q335 378 321 394.5Q307 411 284 411Q258 411 245.5 393.5Q233 376 233 350V182Q233 157 245.5 142.5Q258 128 285 128ZM284 -12Q239 -12 195 -2Q151 8 116.5 31.5Q82 55 61 94Q40 133 40 192V339Q40 394 60.5 434.5Q81 475 115 501Q149 527 192.5 539.5Q236 552 282 552Q327 552 371 541Q415 530 450 505.5Q485 481 506.5 441Q528 401 528 343V193Q528 137 506.5 98Q485 59 450 34.5Q415 10 371.5 -1Q328 -12 284 -12Z" glyph-name="obreve" horiz-adv-x="568" unicode="&#335;" /><glyph d="M218 766H352L473 594H331L281 673L231 594H96ZM285 128Q312 128 323.5 144.5Q335 161 335 184V352Q335 378 321 394.5Q307 411 284 411Q258 411 245.5 393.5Q233 376 233 350V182Q233 157 245.5 142.5Q258 128 285 128ZM284 -12Q239 -12 195 -2Q151 8 116.5 31.5Q82 55 61 94Q40 133 40 192V339Q40 394 60.5 434.5Q81 475 115 501Q149 527 192.5 539.5Q236 552 282 552Q327 552 371 541Q415 530 450 505.5Q485 481 506.5 441Q528 401 528 343V193Q528 137 506.5 98Q485 59 450 34.5Q415 10 371.5 -1Q328 -12 284 -12Z" glyph-name="ocircumflex" horiz-adv-x="568" unicode="&#244;" /><glyph d="M311 753H466V590H311ZM99 753H254V590H99ZM285 128Q312 128 323.5 144.5Q335 161 335 184V352Q335 378 321 394.5Q307 411 284 411Q258 411 245.5 393.5Q233 376 233 350V182Q233 157 245.5 142.5Q258 128 285 128ZM284 -12Q239 -12 195 -2Q151 8 116.5 31.5Q82 55 61 94Q40 133 40 192V339Q40 394 60.5 434.5Q81 475 115 501Q149 527 192.5 539.5Q236 552 282 552Q327 552 371 541Q415 530 450 505.5Q485 481 506.5 441Q528 401 528 343V193Q528 137 506.5 98Q485 59 450 34.5Q415 10 371.5 -1Q328 -12 284 -12Z" glyph-name="odieresis" horiz-adv-x="568" unicode="&#246;" /><glyph d="M630 321V366Q630 392 615.5 405.5Q601 419 577 419Q554 419 540 404.5Q526 390 526 366V321ZM285 128Q312 128 323.5 144.5Q335 161 335 184V352Q335 378 321 394.5Q307 411 284 411Q258 411 245.5 393.5Q233 376 233 350V182Q233 157 245.5 142.5Q258 128 285 128ZM278 -12Q233 -12 190 -2Q147 8 114 31.5Q81 55 60.5 94Q40 133 40 192V339Q40 394 60.5 434.5Q81 475 115 501Q149 527 192.5 539.5Q236 552 282 552Q323 552 361 543Q399 534 433 514Q464 534 500 543Q536 552 575 552Q626 552 669 538.5Q712 525 744 499Q776 473 794 434.5Q812 396 812 346V218H526V190Q526 172 533.5 160.5Q541 149 553.5 142.5Q566 136 583 134Q600 132 620 132Q637 132 657.5 135Q678 138 698.5 142Q719 146 736.5 150.5Q754 155 766 159L801 35Q753 12 694 0Q635 -12 577 -12Q535 -12 498.5 -2Q462 8 433 26Q400 8 358 -2Q316 -12 278 -12Z" glyph-name="oe" horiz-adv-x="849" unicode="&#339;" /><glyph d="M152 -220Q128 -220 105.5 -214Q83 -208 65 -195Q47 -182 36 -161Q25 -140 25 -111Q25 -80 37 -54Q49 -28 69 -8.5Q89 11 113.5 24Q138 37 164 44L215 2Q171 -10 151.5 -33.5Q132 -57 132 -82Q132 -106 145.5 -116.5Q159 -127 177 -127Q191 -127 208 -119.5Q225 -112 238 -103L282 -182Q261 -199 227.5 -209.5Q194 -220 152 -220Z" glyph-name="ogonek" horiz-adv-x="312" unicode="&#731;" /><glyph d="M152 -220Q128 -220 105.5 -214Q83 -208 65 -195Q47 -182 36 -161Q25 -140 25 -111Q25 -80 37 -54Q49 -28 69 -8.5Q89 11 113.5 24Q138 37 164 44L204 11Q170 -6 151 -31.5Q132 -57 132 -82Q132 -106 145.5 -116.5Q159 -127 177 -127Q191 -127 208 -119.5Q225 -112 238 -103L282 -182Q261 -199 227.5 -209.5Q194 -220 152 -220Z" glyph-name="ogonekplus" horiz-adv-x="312" /><glyph d="M104 756H286L369 593H232ZM285 128Q312 128 323.5 144.5Q335 161 335 184V352Q335 378 321 394.5Q307 411 284 411Q258 411 245.5 393.5Q233 376 233 350V182Q233 157 245.5 142.5Q258 128 285 128ZM284 -12Q239 -12 195 -2Q151 8 116.5 31.5Q82 55 61 94Q40 133 40 192V339Q40 394 60.5 434.5Q81 475 115 501Q149 527 192.5 539.5Q236 552 282 552Q327 552 371 541Q415 530 450 505.5Q485 481 506.5 441Q528 401 528 343V193Q528 137 506.5 98Q485 59 450 34.5Q415 10 371.5 -1Q328 -12 284 -12Z" glyph-name="ograve" horiz-adv-x="568" unicode="&#242;" /><glyph d="M392 752H543L446 591H323ZM179 752H330L245 591H118ZM285 128Q312 128 323.5 144.5Q335 161 335 184V352Q335 378 321 394.5Q307 411 284 411Q258 411 245.5 393.5Q233 376 233 350V182Q233 157 245.5 142.5Q258 128 285 128ZM284 -12Q239 -12 195 -2Q151 8 116.5 31.5Q82 55 61 94Q40 133 40 192V339Q40 394 60.5 434.5Q81 475 115 501Q149 527 192.5 539.5Q236 552 282 552Q327 552 371 541Q415 530 450 505.5Q485 481 506.5 441Q528 401 528 343V193Q528 137 506.5 98Q485 59 450 34.5Q415 10 371.5 -1Q328 -12 284 -12Z" glyph-name="ohungarumlaut" horiz-adv-x="568" unicode="&#337;" /><glyph d="M110 726H458V600H110ZM285 128Q312 128 323.5 144.5Q335 161 335 184V352Q335 378 321 394.5Q307 411 284 411Q258 411 245.5 393.5Q233 376 233 350V182Q233 157 245.5 142.5Q258 128 285 128ZM284 -12Q239 -12 195 -2Q151 8 116.5 31.5Q82 55 61 94Q40 133 40 192V339Q40 394 60.5 434.5Q81 475 115 501Q149 527 192.5 539.5Q236 552 282 552Q327 552 371 541Q415 530 450 505.5Q485 481 506.5 441Q528 401 528 343V193Q528 137 506.5 98Q485 59 450 34.5Q415 10 371.5 -1Q328 -12 284 -12Z" glyph-name="omacron" horiz-adv-x="568" unicode="&#333;" /><glyph d="M117 535 50 523 35 671 210 715H311V0H117Z" glyph-name="one" horiz-adv-x="395" unicode="1" /><glyph d="M182 535 115 523 100 671 275 715H376V0H182Z" glyph-name="one.LT" horiz-adv-x="540" unicode="&#58689;" /><glyph d="M105 286 55 278 43 370 165 398H237V0H105Z" glyph-name="one.dnom" horiz-adv-x="311" unicode="&#58371;" /><glyph d="M105 604 55 596 43 688 165 716H237V318H105Z" glyph-name="one.numr" horiz-adv-x="311" unicode="&#58391;" /><glyph d="M470 84 588 195Q608 214 625 233Q642 252 642 270V272Q642 282 636.5 290.5Q631 299 614 299Q597 299 590.5 289.5Q584 280 584 264V249H458V276Q458 307 469.5 330.5Q481 354 502 369.5Q523 385 551.5 393Q580 401 614 401Q688 401 728 365Q768 329 768 275Q768 252 760 232.5Q752 213 739 195.5Q726 178 709.5 162Q693 146 677 131L647 102H768V0H470ZM535 718H622L224 -2H137ZM122 602 72 594 60 686 182 714H254V316H122Z" glyph-name="onehalf" horiz-adv-x="820" unicode="&#189;" /><glyph d="M593 72H423V162L568 395H704L551 170H593V203L724 291V170H759V72H724V0H593ZM540 718H627L229 -2H142ZM127 602 77 594 65 686 187 714H259V316H127Z" glyph-name="onequarter" horiz-adv-x="820" unicode="&#188;" /><glyph d="M105 666 55 658 43 750 165 778H237V380H105Z" glyph-name="onesuperior" horiz-adv-x="311" unicode="&#185;" /><glyph d="M55 355H315V272H55ZM174 473Q182 473 192.5 480.5Q203 488 203 504V533H187Q170 533 159.5 526Q149 519 149 502Q149 489 154 481Q159 473 174 473ZM125 394Q87 394 59.5 416Q32 438 32 485Q32 515 46.5 535.5Q61 556 83.5 568.5Q106 581 132.5 586Q159 591 183 591H203V614Q203 624 196 632Q189 640 173 640Q154 640 149 631Q144 622 144 614V600H41V618Q41 642 52 661Q63 680 82 692.5Q101 705 127 712Q153 719 182 719Q209 719 233.5 712.5Q258 706 277 693Q296 680 307 659Q318 638 318 610V472Q318 449 320.5 427.5Q323 406 324 401H216Q216 402 215.5 407Q215 412 212 437Q204 423 192 415Q180 407 168 402Q156 397 144.5 395.5Q133 394 125 394Z" glyph-name="ordfeminine" horiz-adv-x="357" unicode="&#170;" /><glyph d="M53 355H314V272H53ZM181 479Q195 479 202 488Q209 497 209 510V608Q209 622 201 630.5Q193 639 181 639Q166 639 159 630Q152 621 152 607V510Q152 479 181 479ZM181 395Q154 395 127.5 401Q101 407 80.5 420.5Q60 434 47 457Q34 480 34 514V601Q34 633 46.5 656.5Q59 680 79 695Q99 710 125.5 717.5Q152 725 179 725Q206 725 232.5 718.5Q259 712 280 697.5Q301 683 314 660Q327 637 327 603V515Q327 482 314 459.5Q301 437 280 422.5Q259 408 233 401.5Q207 395 181 395Z" glyph-name="ordmasculine" horiz-adv-x="369" unicode="&#186;" /><glyph d="M285 128Q312 128 323.5 144.5Q335 161 335 184V296L253 136Q266 128 285 128ZM233 238 315 400Q302 411 284 411Q258 411 245.5 393.5Q233 376 233 350ZM87 -47 124 26Q86 49 63 89.5Q40 130 40 192V339Q40 394 60.5 434.5Q81 475 115 501Q149 527 192.5 539.5Q236 552 282 552Q335 552 385 537L424 612L482 584L444 509Q481 485 504.5 444Q528 403 528 343V193Q528 137 506.5 98Q485 59 450 34.5Q415 10 371.5 -1Q328 -12 284 -12Q258 -12 233 -9Q208 -6 184 1L145 -75Z" glyph-name="oslash" horiz-adv-x="568" unicode="&#248;" /><glyph d="M285 128Q312 128 323.5 144.5Q335 161 335 184V296L253 136Q266 128 285 128ZM233 238 315 400Q302 411 284 411Q258 411 245.5 393.5Q233 376 233 350ZM273 756H455L327 593H190ZM87 -47 124 26Q86 49 63 89.5Q40 130 40 192V339Q40 394 60.5 434.5Q81 475 115 501Q149 527 192.5 539.5Q236 552 282 552Q335 552 385 537L424 612L482 584L444 509Q481 485 504.5 444Q528 403 528 343V193Q528 137 506.5 98Q485 59 450 34.5Q415 10 371.5 -1Q328 -12 284 -12Q258 -12 233 -9Q208 -6 184 1L145 -75Z" glyph-name="oslashacute" horiz-adv-x="568" unicode="&#511;" /><glyph d="M73 603Q77 633 87 660.5Q97 688 113 709.5Q129 731 151.5 743.5Q174 756 203 756Q224 756 244.5 750.5Q265 745 285 738.5Q305 732 325 726.5Q345 721 366 721Q385 721 395 734.5Q405 748 413 771L492 750Q489 722 480 695Q471 668 456 647Q441 626 418.5 613.5Q396 601 366 601Q346 601 326 606.5Q306 612 286.5 618Q267 624 247.5 629.5Q228 635 208 635Q188 635 179 623.5Q170 612 162 585ZM285 128Q312 128 323.5 144.5Q335 161 335 184V352Q335 378 321 394.5Q307 411 284 411Q258 411 245.5 393.5Q233 376 233 350V182Q233 157 245.5 142.5Q258 128 285 128ZM284 -12Q239 -12 195 -2Q151 8 116.5 31.5Q82 55 61 94Q40 133 40 192V339Q40 394 60.5 434.5Q81 475 115 501Q149 527 192.5 539.5Q236 552 282 552Q327 552 371 541Q415 530 450 505.5Q485 481 506.5 441Q528 401 528 343V193Q528 137 506.5 98Q485 59 450 34.5Q415 10 371.5 -1Q328 -12 284 -12Z" glyph-name="otilde" horiz-adv-x="568" unicode="&#245;" /><glyph d="M295 126Q305 126 315 128Q325 130 332.5 136Q340 142 344.5 153Q349 164 349 181V351Q349 381 333 393.5Q317 406 297 406Q276 406 257.5 389Q239 372 239 328V185Q239 168 244.5 156.5Q250 145 258.5 138Q267 131 277 128.5Q287 126 295 126ZM48 540H235V462H237Q260 501 301 526.5Q342 552 380 552Q422 552 452 539Q482 526 501.5 503Q521 480 530.5 448Q540 416 540 378V166Q540 131 527.5 99Q515 67 492 42.5Q469 18 436.5 3Q404 -12 363 -12Q348 -12 330.5 -8Q313 -4 296 4Q279 12 264.5 25Q250 38 241 55H239V-176H48Z" glyph-name="p" horiz-adv-x="580" unicode="p" /><glyph d="M204 206Q163 213 132.5 236Q102 259 81.5 292.5Q61 326 50.5 367.5Q40 409 40 453Q40 503 55 550Q70 597 96.5 633Q123 669 159.5 691Q196 713 238 713H508V602H472V-82H369V602H306V-82H204Z" glyph-name="paragraph" horiz-adv-x="543" unicode="&#182;" /><glyph d="M195 -176Q164 -136 137.5 -84Q111 -32 91.5 27Q72 86 61 150Q50 214 50 278Q50 340 60.5 401.5Q71 463 90 520Q109 577 135.5 628Q162 679 195 721L303 719Q280 657 263.5 605.5Q247 554 236.5 503.5Q226 453 221.5 399Q217 345 217 278Q217 160 240.5 45Q264 -70 303 -174Z" glyph-name="parenleft" horiz-adv-x="315" unicode="(" /><glyph d="M149 -66Q107 -21 79 45.5Q51 112 51 187Q51 255 77.5 320Q104 385 149 431L202 430Q187 396 176.5 367Q166 338 159 309.5Q152 281 149 251.5Q146 222 146 187Q146 122 159.5 58.5Q173 -5 202 -65Z" glyph-name="parenleft.dnom" horiz-adv-x="220" unicode="&#58383;" /><glyph d="M149 252Q107 297 79 363.5Q51 430 51 505Q51 573 77.5 638Q104 703 149 749L202 748Q187 714 176.5 685Q166 656 159 627.5Q152 599 149 569.5Q146 540 146 505Q146 440 159.5 376.5Q173 313 202 253Z" glyph-name="parenleft.numr" horiz-adv-x="220" unicode="&#58403;" /><glyph d="M12 -174Q51 -70 74.5 45Q98 160 98 278Q98 345 93.5 399Q89 453 78.5 503.5Q68 554 51.5 605.5Q35 657 12 719L120 721Q153 679 179.5 628Q206 577 225 520Q244 463 254.5 401.5Q265 340 265 278Q265 214 254 150Q243 86 223.5 27Q204 -32 177.5 -84Q151 -136 120 -176Z" glyph-name="parenright" horiz-adv-x="315" unicode=")" /><glyph d="M51 -65Q80 -5 93.5 58.5Q107 122 107 187Q107 222 104 251.5Q101 281 94 309.5Q87 338 76.5 367Q66 396 51 430L104 431Q149 385 175.5 320Q202 255 202 187Q202 112 174 45.5Q146 -21 104 -66Z" glyph-name="parenright.dnom" horiz-adv-x="220" unicode="&#58384;" /><glyph d="M51 253Q80 313 93.5 376.5Q107 440 107 505Q107 540 104 569.5Q101 599 94 627.5Q87 656 76.5 685Q66 714 51 748L104 749Q149 703 175.5 638Q202 573 202 505Q202 430 174 363.5Q146 297 104 252Z" glyph-name="parenright.numr" horiz-adv-x="220" unicode="&#58404;" /><glyph d="M285 128Q312 128 323.5 144.5Q335 161 335 184V323Q335 349 321 365.5Q307 382 284 382Q258 382 245.5 364.5Q233 347 233 321V182Q233 157 245.5 142.5Q258 128 285 128ZM284 -12Q239 -12 195 -2Q151 8 116.5 31.5Q82 55 61 94Q40 133 40 192V310Q40 352 52 385Q64 418 84.5 443Q105 468 133.5 485Q162 502 195 512L216 517L75 713L289 727L486 438Q503 415 515.5 383.5Q528 352 528 314V193Q528 137 506.5 98Q485 59 450 34.5Q415 10 371.5 -1Q328 -12 284 -12Z" glyph-name="partialdiff" horiz-adv-x="568" unicode="&#8706;" /><glyph d="M620 85Q637 85 644 94.5Q651 104 651 115V276Q651 287 643 295Q635 303 620 303Q604 303 596 295Q588 287 588 276V113Q588 102 595.5 93.5Q603 85 620 85ZM621 -11Q594 -11 566 -3Q538 5 516 21.5Q494 38 480 63Q466 88 466 122V259Q466 293 479.5 319Q493 345 514.5 362.5Q536 380 563.5 389Q591 398 619 398Q647 398 674.5 389.5Q702 381 724 364.5Q746 348 759.5 322Q773 296 773 262V126Q773 94 759 68.5Q745 43 723 25.5Q701 8 674 -1.5Q647 -11 621 -11ZM538 718H633L278 -2H183ZM192 412Q209 412 216 421.5Q223 431 223 442V603Q223 614 214.5 622Q206 630 191 630Q175 630 167 622Q159 614 159 603V440Q159 429 167 420.5Q175 412 192 412ZM193 316Q166 316 138 324Q110 332 88 348.5Q66 365 52 390Q38 415 38 449V592Q38 626 51 651Q64 676 85.5 692.5Q107 709 134.5 717Q162 725 190 725Q218 725 246 716.5Q274 708 296 691.5Q318 675 331.5 649Q345 623 345 589V449Q345 417 331 392Q317 367 295 350Q273 333 246 324.5Q219 316 193 316Z" glyph-name="percent" horiz-adv-x="811" unicode="%" /><glyph d="M44 187H220V0H44Z" glyph-name="period" horiz-adv-x="264" unicode="." /><glyph d="M44 132H172V0H44Z" glyph-name="period.dnom" horiz-adv-x="216" unicode="&#58382;" /><glyph d="M44 450H172V318H44Z" glyph-name="period.numr" horiz-adv-x="216" unicode="&#58402;" /><glyph d="M44 -1H172V-133H44Z" glyph-name="period.sub" horiz-adv-x="216" /><glyph d="M44 512H172V380H44Z" glyph-name="period.sup" horiz-adv-x="216" /><glyph d="M44 448H220V261H44Z" glyph-name="periodcentered" horiz-adv-x="264" unicode="&#8901;" /><glyph d="M620 85Q637 85 644 94.5Q651 104 651 115V276Q651 287 643 295Q635 303 620 303Q604 303 596 295Q588 287 588 276V113Q588 102 595.5 93.5Q603 85 620 85ZM621 -11Q594 -11 566 -3Q538 5 516 21.5Q494 38 480 63Q466 88 466 122V259Q466 293 479.5 319Q493 345 514.5 362.5Q536 380 563.5 389Q591 398 619 398Q647 398 674.5 389.5Q702 381 724 364.5Q746 348 759.5 322Q773 296 773 262V126Q773 94 759 68.5Q745 43 723 25.5Q701 8 674 -1.5Q647 -11 621 -11ZM538 718H633L278 -2H183ZM192 412Q209 412 216 421.5Q223 431 223 442V603Q223 614 214.5 622Q206 630 191 630Q175 630 167 622Q159 614 159 603V440Q159 429 167 420.5Q175 412 192 412ZM193 316Q166 316 138 324Q110 332 88 348.5Q66 365 52 390Q38 415 38 449V592Q38 626 51 651Q64 676 85.5 692.5Q107 709 134.5 717Q162 725 190 725Q218 725 246 716.5Q274 708 296 691.5Q318 675 331.5 649Q345 623 345 589V449Q345 417 331 392Q317 367 295 350Q273 333 246 324.5Q219 316 193 316ZM963 85Q980 85 987 94.5Q994 104 994 115V276Q994 287 986 295Q978 303 963 303Q947 303 939 295Q931 287 931 276V113Q931 102 938.5 93.5Q946 85 963 85ZM964 -11Q937 -11 909 -3Q881 5 859 21.5Q837 38 823 63Q809 88 809 122V259Q809 293 822.5 319Q836 345 857.5 362.5Q879 380 906.5 389Q934 398 962 398Q990 398 1017.5 389.5Q1045 381 1067 364.5Q1089 348 1102.5 322Q1116 296 1116 262V126Q1116 94 1102 68.5Q1088 43 1066 25.5Q1044 8 1017 -1.5Q990 -11 964 -11Z" glyph-name="perthousand" horiz-adv-x="1154" unicode="&#8240;" /><glyph d="M513 -10Q482 -10 456 -2.5Q430 5 411 22.5Q392 40 381 67.5Q370 95 370 135V379H290Q288 323 285.5 278Q283 233 280 189.5Q277 146 273 100.5Q269 55 263 0H84Q91 55 96 100.5Q101 146 105 189.5Q109 233 111.5 278Q114 323 116 379H30L49 540H604V379H540V193Q540 170 549 161.5Q558 153 578 153Q592 153 611 160V8Q592 2 568.5 -4Q545 -10 513 -10Z" glyph-name="pi" horiz-adv-x="644" unicode="&#960;" /><glyph d="M213 260H50V374H213V547H327V374H490V260H327V87H213Z" glyph-name="plus" horiz-adv-x="540" unicode="+" /><glyph d="M50 115H488V0H50ZM213 316H50V431H213V577H328V431H490V316H328V179H213Z" glyph-name="plusminus" horiz-adv-x="540" unicode="&#177;" /><glyph d="M125 533H34V713H691V533H600V-133H422V533H303V-133H125Z" glyph-name="product" horiz-adv-x="725" unicode="&#8719;" /><glyph d="M284 134Q305 134 323 153Q341 172 341 207V354Q341 388 322.5 401Q304 414 285 414Q264 414 247.5 403.5Q231 393 231 359V189Q231 159 247.5 146.5Q264 134 284 134ZM341 77H339Q331 59 316 43Q301 27 281.5 14.5Q262 2 241.5 -5Q221 -12 203 -12Q160 -12 129.5 2Q99 16 79 40.5Q59 65 49.5 97.5Q40 130 40 168V369Q40 407 51 440.5Q62 474 83.5 498.5Q105 523 136.5 537.5Q168 552 209 552Q247 552 286.5 534Q326 516 350 477H352L358 541H533V-176H341Z" glyph-name="q" horiz-adv-x="577" unicode="q" /><glyph d="M145 187H336V0H145ZM153 255Q153 300 167.5 332Q182 364 210 393Q224 407 239.5 421.5Q255 436 268.5 451.5Q282 467 290.5 484Q299 501 299 521Q299 543 286 556Q273 569 248 569Q223 569 210.5 554.5Q198 540 198 516V488H36V520Q36 568 53.5 605.5Q71 643 101.5 669.5Q132 696 173 709.5Q214 723 260 723Q370 723 429.5 670Q489 617 489 524Q489 463 463.5 424Q438 385 403 356Q392 346 378 336Q364 326 352 314Q340 302 331.5 288Q323 274 323 256V233H153Z" glyph-name="question" horiz-adv-x="518" unicode="?" /><glyph d="M182 556H373V369H182ZM258 -167Q148 -167 88.5 -114Q29 -61 29 32Q29 93 54.5 132Q80 171 115 200Q126 210 140 220Q154 230 166 242Q178 254 186.5 268Q195 282 195 300V323H365V301Q365 256 350.5 224Q336 192 308 163Q294 149 278.5 134.5Q263 120 249.5 104.5Q236 89 227.5 72Q219 55 219 35Q219 13 232 0Q245 -13 270 -13Q295 -13 307.5 1.5Q320 16 320 40V68H482V36Q482 -12 464.5 -49.5Q447 -87 416.5 -113.5Q386 -140 345 -153.5Q304 -167 258 -167Z" glyph-name="questiondown" horiz-adv-x="518" unicode="&#191;" /><glyph d="M270 566V713H426V566L404 389H293ZM55 566V713H211V566L188 389H78Z" glyph-name="quotedbl" horiz-adv-x="481" unicode="&quot;" /><glyph d="M344 11H280V187H456V22L398 -137H309ZM108 11H44V187H220V22L162 -137H73Z" glyph-name="quotedblbase" horiz-adv-x="500" unicode="&#8222;" /><glyph d="M280 554 338 713H427L392 565H456V389H280ZM44 554 102 713H191L156 565H220V389H44Z" glyph-name="quotedblleft" horiz-adv-x="500" unicode="&#8220;" /><glyph d="M344 537H280V713H456V548L398 389H309ZM108 537H44V713H220V548L162 389H73Z" glyph-name="quotedblright" horiz-adv-x="500" unicode="&#8221;" /><glyph d="M44 554 102 713H191L156 565H220V389H44Z" glyph-name="quoteleft" horiz-adv-x="264" unicode="&#8216;" /><glyph d="M108 537H44V713H220V548L162 389H73Z" glyph-name="quoteright" horiz-adv-x="264" unicode="&#8217;" /><glyph d="M108 11H44V187H220V22L162 -137H73Z" glyph-name="quotesinglbase" horiz-adv-x="264" unicode="&#8218;" /><glyph d="M55 566V713H211V566L188 389H78Z" glyph-name="quotesingle" horiz-adv-x="266" unicode="&apos;" /><glyph d="M48 540H236V460H237Q246 476 256.5 492Q267 508 281 520Q295 532 312.5 539.5Q330 547 353 547Q364 547 380.5 546Q397 545 409 541V363Q387 365 374 365.5Q361 366 352 366Q343 366 324 365Q305 364 286 357.5Q267 351 253 336.5Q239 322 239 295V0H48Z" glyph-name="r" horiz-adv-x="427" unicode="r" /><glyph d="M225 756H407L279 593H142ZM48 540H236V460H237Q246 476 256.5 492Q267 508 281 520Q295 532 312.5 539.5Q330 547 353 547Q364 547 380.5 546Q397 545 409 541V363Q387 365 374 365.5Q361 366 352 366Q343 366 324 365Q305 364 286 357.5Q267 351 253 336.5Q239 322 239 295V0H48Z" glyph-name="racute" horiz-adv-x="433" unicode="&#341;" /><glyph d="M19 540H218L288 266H290L409 713H591L370 -1H192Z" glyph-name="radical" horiz-adv-x="606" unicode="&#8730;" /><glyph d="M22 774H164L214 695L264 774H404L277 602H143ZM48 540H236V460H237Q246 476 256.5 492Q267 508 281 520Q295 532 312.5 539.5Q330 547 353 547Q364 547 380.5 546Q397 545 409 541V363Q387 365 374 365.5Q361 366 352 366Q343 366 324 365Q305 364 286 357.5Q267 351 253 336.5Q239 322 239 295V0H48Z" glyph-name="rcaron" horiz-adv-x="427" unicode="&#345;" /><glyph d="M87 -33H242L202 -218H75ZM48 540H236V460H237Q246 476 256.5 492Q267 508 281 520Q295 532 312.5 539.5Q330 547 353 547Q364 547 380.5 546Q397 545 409 541V363Q387 365 374 365.5Q361 366 352 366Q343 366 324 365Q305 364 286 357.5Q267 351 253 336.5Q239 322 239 295V0H48Z" glyph-name="rcommaaccent" horiz-adv-x="427" unicode="&#343;" /><glyph d="M260 539Q273 539 280.5 547.5Q288 556 288 568Q288 579 281 587.5Q274 596 261 596H234V539ZM163 651H272Q316 651 336.5 628Q357 605 357 573Q357 550 346.5 530.5Q336 511 315 500L364 406H287L249 489H234V406H163ZM253 347Q284 347 313 359.5Q342 372 364.5 394.5Q387 417 400.5 449.5Q414 482 414 523Q414 563 401 595.5Q388 628 366 651Q344 674 315 686.5Q286 699 253 699Q221 699 192 686.5Q163 674 141.5 651.5Q120 629 107.5 596Q95 563 95 523Q95 482 108 449.5Q121 417 143 394Q165 371 193.5 359Q222 347 253 347ZM253 297Q202 297 161.5 315Q121 333 92.5 364Q64 395 49 436Q34 477 34 523Q34 569 50 609.5Q66 650 95.5 681Q125 712 165 730Q205 748 253 748Q304 748 344.5 730Q385 712 414 681Q443 650 458.5 609.5Q474 569 474 523Q474 477 458 436Q442 395 413 364Q384 333 343 315Q302 297 253 297Z" glyph-name="registered" horiz-adv-x="508" unicode="&#174;" /><glyph d="M152 638Q174 638 184 652.5Q194 667 194 688Q194 710 184 724Q174 738 150 738Q128 738 119 723.5Q110 709 110 688Q110 667 120 652.5Q130 638 152 638ZM152 579Q107 579 75 607Q43 635 43 686Q43 710 51.5 730.5Q60 751 75 765.5Q90 780 110 788.5Q130 797 152 797Q199 797 231 770Q263 743 263 692Q263 668 254 647.5Q245 627 230 611.5Q215 596 194.5 587.5Q174 579 152 579Z" glyph-name="ring" horiz-adv-x="306" unicode="&#730;" /><glyph d="M152 630Q173 630 184 643.5Q195 657 195 680Q195 704 183.5 716.5Q172 729 154 729Q133 729 122 714.5Q111 700 111 679Q111 630 152 630ZM152 579Q123 579 102 587.5Q81 596 67.5 609.5Q54 623 47.5 640.5Q41 658 41 677Q41 728 82 765L183 854L276 805L212 768Q238 756 251.5 733.5Q265 711 265 682Q265 636 232.5 607.5Q200 579 152 579Z" glyph-name="ringacute" horiz-adv-x="306" /><glyph d="M247 -12Q178 -12 123.5 1.5Q69 15 20 46L96 170Q111 161 129 151.5Q147 142 166.5 134.5Q186 127 205 122.5Q224 118 240 118Q266 118 281.5 126Q297 134 297 150Q297 162 282 170Q267 178 239 186L199 198Q119 222 84 264Q49 306 49 366Q49 394 60.5 427Q72 460 96.5 487.5Q121 515 160 533.5Q199 552 253 552Q314 552 364 537.5Q414 523 465 488L392 372Q357 397 322.5 410Q288 423 261 423Q244 423 230 416Q216 409 216 395Q216 378 229.5 371Q243 364 260 358L326 336Q409 308 443 268.5Q477 229 477 172Q477 130 460 96Q443 62 412 38Q381 14 339 1Q297 -12 247 -12Z" glyph-name="s" horiz-adv-x="510" unicode="s" /><glyph d="M256 756H438L310 593H173ZM247 -12Q178 -12 123.5 1.5Q69 15 20 46L96 170Q111 161 129 151.5Q147 142 166.5 134.5Q186 127 205 122.5Q224 118 240 118Q266 118 281.5 126Q297 134 297 150Q297 162 282 170Q267 178 239 186L199 198Q119 222 84 264Q49 306 49 366Q49 394 60.5 427Q72 460 96.5 487.5Q121 515 160 533.5Q199 552 253 552Q314 552 364 537.5Q414 523 465 488L392 372Q357 397 322.5 410Q288 423 261 423Q244 423 230 416Q216 409 216 395Q216 378 229.5 371Q243 364 260 358L326 336Q409 308 443 268.5Q477 229 477 172Q477 130 460 96Q443 62 412 38Q381 14 339 1Q297 -12 247 -12Z" glyph-name="sacute" horiz-adv-x="511" unicode="&#347;" /><glyph d="M67 774H209L259 695L309 774H449L322 602H188ZM247 -12Q178 -12 123.5 1.5Q69 15 20 46L96 170Q111 161 129 151.5Q147 142 166.5 134.5Q186 127 205 122.5Q224 118 240 118Q266 118 281.5 126Q297 134 297 150Q297 162 282 170Q267 178 239 186L199 198Q119 222 84 264Q49 306 49 366Q49 394 60.5 427Q72 460 96.5 487.5Q121 515 160 533.5Q199 552 253 552Q314 552 364 537.5Q414 523 465 488L392 372Q357 397 322.5 410Q288 423 261 423Q244 423 230 416Q216 409 216 395Q216 378 229.5 371Q243 364 260 358L326 336Q409 308 443 268.5Q477 229 477 172Q477 130 460 96Q443 62 412 38Q381 14 339 1Q297 -12 247 -12Z" glyph-name="scaron" horiz-adv-x="510" unicode="&#353;" /><glyph d="M255 -218Q233 -218 203.5 -216Q174 -214 145 -206V-132Q172 -139 201 -142.5Q230 -146 247 -146Q267 -146 274.5 -140Q282 -134 282 -125Q282 -112 269 -108.5Q256 -105 245 -104L194 -101L219 -11Q159 -9 111.5 4.5Q64 18 20 46L96 170Q111 161 129 151.5Q147 142 166.5 134.5Q186 127 205 122.5Q224 118 240 118Q266 118 281.5 126Q297 134 297 150Q297 162 282 170Q267 178 239 186L199 198Q119 222 84 264Q49 306 49 366Q49 394 60.5 427Q72 460 96.5 487.5Q121 515 160 533.5Q199 552 253 552Q314 552 364 537.5Q414 523 465 488L392 372Q357 397 322.5 410Q288 423 261 423Q244 423 230 416Q216 409 216 395Q216 378 229.5 371Q243 364 260 358L326 336Q409 308 443 268.5Q477 229 477 172Q477 134 463 103Q449 72 424.5 48.5Q400 25 365.5 10.5Q331 -4 289 -9L279 -49Q297 -49 319 -51Q341 -53 359.5 -60.5Q378 -68 391 -82.5Q404 -97 404 -120Q404 -143 391.5 -161.5Q379 -180 358.5 -192.5Q338 -205 311 -211.5Q284 -218 255 -218Z" glyph-name="scedilla" horiz-adv-x="510" unicode="&#351;" /><glyph d="M188 766H322L443 594H301L251 673L201 594H66ZM247 -12Q178 -12 123.5 1.5Q69 15 20 46L96 170Q111 161 129 151.5Q147 142 166.5 134.5Q186 127 205 122.5Q224 118 240 118Q266 118 281.5 126Q297 134 297 150Q297 162 282 170Q267 178 239 186L199 198Q119 222 84 264Q49 306 49 366Q49 394 60.5 427Q72 460 96.5 487.5Q121 515 160 533.5Q199 552 253 552Q314 552 364 537.5Q414 523 465 488L392 372Q357 397 322.5 410Q288 423 261 423Q244 423 230 416Q216 409 216 395Q216 378 229.5 371Q243 364 260 358L326 336Q409 308 443 268.5Q477 229 477 172Q477 130 460 96Q443 62 412 38Q381 14 339 1Q297 -12 247 -12Z" glyph-name="scircumflex" horiz-adv-x="510" unicode="&#349;" /><glyph d="M185 -33H340L300 -218H173ZM247 -12Q178 -12 123.5 1.5Q69 15 20 46L96 170Q111 161 129 151.5Q147 142 166.5 134.5Q186 127 205 122.5Q224 118 240 118Q266 118 281.5 126Q297 134 297 150Q297 162 282 170Q267 178 239 186L199 198Q119 222 84 264Q49 306 49 366Q49 394 60.5 427Q72 460 96.5 487.5Q121 515 160 533.5Q199 552 253 552Q314 552 364 537.5Q414 523 465 488L392 372Q357 397 322.5 410Q288 423 261 423Q244 423 230 416Q216 409 216 395Q216 378 229.5 371Q243 364 260 358L326 336Q409 308 443 268.5Q477 229 477 172Q477 130 460 96Q443 62 412 38Q381 14 339 1Q297 -12 247 -12Z" glyph-name="scommaaccent" horiz-adv-x="510" unicode="&#537;" /><glyph d="M282 276Q296 282 304.5 294Q313 306 313 316Q313 329 306 340.5Q299 352 273 360Q263 362 252 366Q243 368 232 371.5Q221 375 213 377Q202 369 194 357Q186 345 186 328Q186 319 191 313Q196 307 203.5 302.5Q211 298 219 295Q227 292 233 290ZM238 -86Q207 -86 171.5 -78.5Q136 -71 106 -52Q76 -33 56.5 -1Q37 31 37 80V114H187V105Q187 93 189 79.5Q191 66 198.5 54.5Q206 43 219.5 35.5Q233 28 257 28Q273 28 283.5 34Q294 40 299.5 48Q305 56 307 65.5Q309 75 309 83Q309 109 289.5 123Q270 137 250 144L182 165Q155 173 129.5 185.5Q104 198 84 217Q64 236 51.5 261.5Q39 287 39 321Q39 356 55.5 385.5Q72 415 95 438Q47 477 47 552Q47 630 100.5 677Q154 724 248 724Q290 724 326.5 714Q363 704 390 683Q417 662 432 631Q447 600 447 558V526H309V556Q309 574 295 592Q281 610 250 610Q219 610 205.5 596Q192 582 192 564Q192 544 208 531.5Q224 519 242 514L327 486Q352 478 377 467Q402 456 421.5 438Q441 420 453.5 394.5Q466 369 466 333Q466 298 449 267.5Q432 237 407 214Q430 194 447 166.5Q464 139 464 101Q464 61 447.5 26.5Q431 -8 401 -33Q371 -58 329.5 -72Q288 -86 238 -86Z" glyph-name="section" horiz-adv-x="503" unicode="&#167;" /><glyph d="M44 543H220V356H44ZM108 11H44V187H220V22L162 -137H73Z" glyph-name="semicolon" horiz-adv-x="264" unicode=";" /><glyph d="M129 0Q130 82 148 163.5Q166 245 194 317.5Q222 390 255 448Q288 506 320 541H33V713H528V567Q438 444 391.5 306Q345 168 346 0Z" glyph-name="seven" horiz-adv-x="560" unicode="7" /><glyph d="M119 0Q120 82 138 163.5Q156 245 184 317.5Q212 390 245 448Q278 506 310 541H23V713H518V567Q428 444 381.5 306Q335 168 336 0Z" glyph-name="seven.LT" horiz-adv-x="540" unicode="&#58695;" /><glyph d="M70 0Q71 38 82 77.5Q93 117 110.5 154.5Q128 192 151 226Q174 260 198 288H22V394H337V305Q314 284 291.5 253Q269 222 251.5 183Q234 144 223.5 97.5Q213 51 213 0Z" glyph-name="seven.dnom" horiz-adv-x="360" unicode="&#58377;" /><glyph d="M70 318Q71 356 82 395.5Q93 435 110.5 472.5Q128 510 151 544Q174 578 198 606H22V712H337V623Q314 602 291.5 571Q269 540 251.5 501Q234 462 223.5 415.5Q213 369 213 318Z" glyph-name="seven.numr" horiz-adv-x="360" unicode="&#58397;" /><glyph d="M299 145Q327 145 343 161.5Q359 178 359 198V276Q359 289 353.5 298.5Q348 308 340 313Q332 318 322.5 320.5Q313 323 304 323Q295 323 284.5 320.5Q274 318 265 311Q256 304 250 293Q244 282 244 264V199Q244 176 258.5 160.5Q273 145 299 145ZM294 -12Q243 -12 197.5 1Q152 14 117.5 41Q83 68 63 109.5Q43 151 43 209V498Q43 556 64 599Q85 642 120.5 670Q156 698 203 711.5Q250 725 302 725Q356 725 401.5 711.5Q447 698 480 673Q513 648 531.5 612.5Q550 577 550 533V499H351V523Q351 546 338 559.5Q325 573 299 573Q273 573 258.5 557.5Q244 542 244 519V397Q270 426 307 440Q344 454 387 454Q427 454 458 441Q489 428 510 406.5Q531 385 542 356Q553 327 553 294V182Q553 135 532 99Q511 63 475 38Q439 13 392 0.5Q345 -12 294 -12Z" glyph-name="six" horiz-adv-x="596" unicode="6" /><glyph d="M271 145Q299 145 315 161.5Q331 178 331 198V276Q331 289 325.5 298.5Q320 308 312 313Q304 318 294.5 320.5Q285 323 276 323Q267 323 256.5 320.5Q246 318 237 311Q228 304 222 293Q216 282 216 264V199Q216 176 230.5 160.5Q245 145 271 145ZM266 -12Q215 -12 169.5 1Q124 14 89.5 41Q55 68 35 109.5Q15 151 15 209V498Q15 556 36 599Q57 642 92.5 670Q128 698 175 711.5Q222 725 274 725Q328 725 373.5 711.5Q419 698 452 673Q485 648 503.5 612.5Q522 577 522 533V499H323V523Q323 546 310 559.5Q297 573 271 573Q245 573 230.5 557.5Q216 542 216 519V397Q242 426 279 440Q316 454 359 454Q399 454 430 441Q461 428 482 406.5Q503 385 514 356Q525 327 525 294V182Q525 135 504 99Q483 63 447 38Q411 13 364 0.5Q317 -12 266 -12Z" glyph-name="six.LT" horiz-adv-x="540" unicode="&#58694;" /><glyph d="M183 87Q199 87 205 94.5Q211 102 211 113V145Q211 162 201.5 167Q192 172 182 172Q172 172 162 165.5Q152 159 152 137V114Q152 102 160.5 94.5Q169 87 183 87ZM180 -12Q149 -12 119.5 -4Q90 4 67 19.5Q44 35 30 58.5Q16 82 16 113V268Q16 305 30.5 331Q45 357 68.5 372.5Q92 388 122.5 395Q153 402 185 402Q254 402 295 369.5Q336 337 336 283V264H212V275Q212 288 202.5 294Q193 300 181 300Q152 300 152 276V221Q167 232 188.5 239Q210 246 236 246Q288 246 315.5 219Q343 192 343 152V111Q343 82 329.5 59Q316 36 293 20Q270 4 240.5 -4Q211 -12 180 -12Z" glyph-name="six.dnom" horiz-adv-x="360" unicode="&#58376;" /><glyph d="M183 405Q199 405 205 412.5Q211 420 211 431V463Q211 480 201.5 485Q192 490 182 490Q172 490 162 483.5Q152 477 152 455V432Q152 420 160.5 412.5Q169 405 183 405ZM180 306Q149 306 119.5 314Q90 322 67 337.5Q44 353 30 376.5Q16 400 16 431V586Q16 623 30.5 649Q45 675 68.5 690.5Q92 706 122.5 713Q153 720 185 720Q254 720 295 687.5Q336 655 336 601V582H212V593Q212 606 202.5 612Q193 618 181 618Q152 618 152 594V539Q167 550 188.5 557Q210 564 236 564Q288 564 315.5 537Q343 510 343 470V429Q343 400 329.5 377Q316 354 293 338Q270 322 240.5 314Q211 306 180 306Z" glyph-name="six.numr" horiz-adv-x="360" unicode="&#58396;" /><glyph d="M196 718H315L107 -179H-14Z" glyph-name="slash" horiz-adv-x="334" unicode="/" /><glyph glyph-name="space" horiz-adv-x="180" unicode=" " /><glyph d="M34 155H103V289H53V401H103V511Q103 569 124.5 609.5Q146 650 180.5 675.5Q215 701 257.5 713Q300 725 341 725Q382 725 419.5 714Q457 703 485.5 680Q514 657 531 622Q548 587 548 539V479H391V534Q391 557 379 570Q367 583 342 583Q316 583 305 567Q294 551 294 534V401H444V289H294V155H570L540 0H34Z" glyph-name="sterling" horiz-adv-x="593" unicode="&#163;" /><glyph d="M43 13 253 300 37 567V713H555V539H309L483 323V287L301 40H555V-133H43Z" glyph-name="summation" horiz-adv-x="601" unicode="&#8721;" /><glyph d="M254 -10Q224 -10 195.5 -3Q167 4 144 20.5Q121 37 107 65Q93 93 93 135V377H28V531H93V671H285V531H390V377H285V190Q285 176 292 164.5Q299 153 323 153Q338 153 348.5 154Q359 155 372 157V6Q341 -3 313 -6.5Q285 -10 254 -10Z" glyph-name="t" horiz-adv-x="422" unicode="t" /><glyph d="M56 317H93V377H28V531H93V671H285V531H390V377H285V317H337V237H285V190Q285 176 292 164.5Q299 153 323 153Q338 153 348.5 154Q359 155 372 157V6Q341 -3 313 -6.5Q285 -10 254 -10Q224 -10 195.5 -3Q167 4 144 20.5Q121 37 107 65Q93 93 93 135V237H56Z" glyph-name="tbar" horiz-adv-x="422" unicode="&#359;" /><glyph d="M254 -10Q224 -10 195.5 -3Q167 4 144 20.5Q121 37 107 65Q93 93 93 135V377H28V531H93V671H285V531H390V377H285V190Q285 176 292 164.5Q299 153 323 153Q338 153 348.5 154Q359 155 372 157V6Q341 -3 313 -6.5Q285 -10 254 -10ZM332 711H487L451 559H324Z" glyph-name="tcaron" horiz-adv-x="445" unicode="&#357;" /><glyph d="M170 -33H325L285 -218H158ZM254 -10Q224 -10 195.5 -3Q167 4 144 20.5Q121 37 107 65Q93 93 93 135V377H28V531H93V671H285V531H390V377H285V190Q285 176 292 164.5Q299 153 323 153Q338 153 348.5 154Q359 155 372 157V6Q341 -3 313 -6.5Q285 -10 254 -10Z" glyph-name="tcommaaccent" horiz-adv-x="422" unicode="&#355;" /><glyph d="M295 126Q305 126 315 128Q325 130 332.5 136Q340 142 344.5 153Q349 164 349 181V351Q349 381 333 393.5Q317 406 297 406Q276 406 257.5 389Q239 372 239 328V185Q239 168 244.5 156.5Q250 145 258.5 138Q267 131 277 128.5Q287 126 295 126ZM48 713H239V472H241Q267 506 304.5 529Q342 552 380 552Q464 552 502 508Q540 464 540 388V153Q540 118 527.5 88Q515 58 492 36Q469 14 436.5 1Q404 -12 363 -12Q348 -12 329.5 -7.5Q311 -3 293.5 5.5Q276 14 262 26.5Q248 39 241 55H239V-176H48Z" glyph-name="thorn" horiz-adv-x="580" unicode="&#254;" /><glyph d="M290 -12Q172 -12 105 39Q38 90 38 187V216H228V201Q228 175 242 157Q256 139 287 139Q313 139 328 155Q343 171 343 209Q343 232 333 245.5Q323 259 309.5 266.5Q296 274 281.5 276Q267 278 258 278H200V433H252Q268 433 282.5 435Q297 437 307 443.5Q317 450 323 463.5Q329 477 329 501Q329 529 316 546Q303 563 278 563Q247 563 236.5 544Q226 525 226 505V493H42V520Q42 566 59.5 604Q77 642 109.5 669Q142 696 188.5 710.5Q235 725 292 725Q345 725 388.5 713Q432 701 463.5 676Q495 651 512 613Q529 575 529 523Q529 463 496.5 422Q464 381 415 364V359Q478 343 510 300.5Q542 258 542 206Q542 149 521 107.5Q500 66 465 39.5Q430 13 384.5 0.5Q339 -12 290 -12Z" glyph-name="three" horiz-adv-x="574" unicode="3" /><glyph d="M271 -12Q153 -12 86 39Q19 90 19 187V216H209V201Q209 175 223 157Q237 139 268 139Q294 139 309 155Q324 171 324 209Q324 232 314 245.5Q304 259 290.5 266.5Q277 274 262.5 276Q248 278 239 278H181V433H233Q249 433 263.5 435Q278 437 288 443.5Q298 450 304 463.5Q310 477 310 501Q310 529 297 546Q284 563 259 563Q228 563 217.5 544Q207 525 207 505V493H23V520Q23 566 40.5 604Q58 642 90.5 669Q123 696 169.5 710.5Q216 725 273 725Q326 725 369.5 713Q413 701 444.5 676Q476 651 493 613Q510 575 510 523Q510 463 477.5 422Q445 381 396 364V359Q459 343 491 300.5Q523 258 523 206Q523 149 502 107.5Q481 66 446 39.5Q411 13 365.5 0.5Q320 -12 271 -12Z" glyph-name="three.LT" horiz-adv-x="540" unicode="&#58691;" /><glyph d="M178 -12Q102 -12 61 18Q20 48 20 109V125H143V113Q143 98 152 92.5Q161 87 174 87Q191 87 197.5 95.5Q204 104 204 120Q204 139 192.5 145Q181 151 171 151H135V236H163Q181 236 191.5 242Q202 248 202 269Q202 285 193.5 292.5Q185 300 173 300Q155 300 149.5 291Q144 282 144 272V262H23V279Q23 335 63 368.5Q103 402 175 402Q245 402 287 371.5Q329 341 329 286Q329 257 312 231.5Q295 206 263 197V195Q299 187 319.5 163.5Q340 140 340 109Q340 74 327 50.5Q314 27 292 13Q270 -1 240.5 -6.5Q211 -12 178 -12Z" glyph-name="three.dnom" horiz-adv-x="360" unicode="&#58373;" /><glyph d="M178 306Q102 306 61 336Q20 366 20 427V443H143V431Q143 416 152 410.5Q161 405 174 405Q191 405 197.5 413.5Q204 422 204 438Q204 457 192.5 463Q181 469 171 469H135V554H163Q181 554 191.5 560Q202 566 202 587Q202 603 193.5 610.5Q185 618 173 618Q155 618 149.5 609Q144 600 144 590V580H23V597Q23 653 63 686.5Q103 720 175 720Q245 720 287 689.5Q329 659 329 604Q329 575 312 549.5Q295 524 263 515V513Q299 505 319.5 481.5Q340 458 340 427Q340 392 327 368.5Q314 345 292 331Q270 317 240.5 311.5Q211 306 178 306Z" glyph-name="three.numr" horiz-adv-x="360" unicode="&#58393;" /><glyph d="M620 72H450V162L595 395H731L578 170H620V203L751 291V170H786V72H751V0H620ZM581 718H668L270 -2H183ZM185 304Q109 304 68 334Q27 364 27 425V441H150V429Q150 414 159 408.5Q168 403 181 403Q198 403 204.5 411.5Q211 420 211 436Q211 455 199.5 461Q188 467 178 467H142V552H170Q188 552 198.5 558Q209 564 209 585Q209 601 200.5 608.5Q192 616 180 616Q162 616 156.5 607Q151 598 151 588V578H30V595Q30 651 70 684.5Q110 718 182 718Q252 718 294 687.5Q336 657 336 602Q336 573 319 547.5Q302 522 270 513V511Q306 503 326.5 479.5Q347 456 347 425Q347 390 334 366.5Q321 343 299 329Q277 315 247.5 309.5Q218 304 185 304Z" glyph-name="threequarters" horiz-adv-x="820" unicode="&#190;" /><glyph d="M178 368Q102 368 61 398Q20 428 20 489V505H143V493Q143 478 152 472.5Q161 467 174 467Q191 467 197.5 475.5Q204 484 204 500Q204 519 192.5 525Q181 531 171 531H135V616H163Q181 616 191.5 622Q202 628 202 649Q202 665 193.5 672.5Q185 680 173 680Q155 680 149.5 671Q144 662 144 652V642H23V659Q23 715 63 748.5Q103 782 175 782Q245 782 287 751.5Q329 721 329 666Q329 637 312 611.5Q295 586 263 577V575Q299 567 319.5 543.5Q340 520 340 489Q340 454 327 430.5Q314 407 292 393Q270 379 240.5 373.5Q211 368 178 368Z" glyph-name="threesuperior" horiz-adv-x="360" unicode="&#179;" /><glyph d="M28 603Q32 633 42 660.5Q52 688 68 709.5Q84 731 106.5 743.5Q129 756 158 756Q179 756 199.5 750.5Q220 745 240 738.5Q260 732 280 726.5Q300 721 321 721Q340 721 350 734.5Q360 748 368 771L447 750Q444 722 435 695Q426 668 411 647Q396 626 373.5 613.5Q351 601 321 601Q301 601 281 606.5Q261 612 241.5 618Q222 624 202.5 629.5Q183 635 163 635Q143 635 134 623.5Q125 612 117 585Z" glyph-name="tilde" horiz-adv-x="465" unicode="&#732;" /><glyph d="M113 631H38V713H285V631H210V399H113ZM312 713H430L462 597L493 713H611V399H523V562L493 450H429L399 561V399H312Z" glyph-name="trademark" horiz-adv-x="669" unicode="&#8482;" /><glyph d="M50 560V569H511V560L292 145H283Z" glyph-name="triagdn" horiz-adv-x="561" unicode="&#9660;" /><glyph d="M65 358V367Q170 422 273 476.5Q376 531 480 587H489V126H480Z" glyph-name="triaglf" horiz-adv-x="561" unicode="&#9668;" /><glyph d="M70 587H79L494 367V358Q390 299 287 241.5Q184 184 79 126H70Z" glyph-name="triagrt" horiz-adv-x="561" unicode="&#9658;" /><glyph d="M50 155 269 569H278L511 155V145H50Z" glyph-name="triagup" horiz-adv-x="561" unicode="&#9650;" /><glyph d="M38 113 205 316Q226 341 245.5 367Q265 393 280 417Q295 441 304 462Q313 483 313 498V509Q313 529 303 546Q293 563 268 563Q252 563 242.5 558Q233 553 227.5 544.5Q222 536 220.5 525Q219 514 219 502V493H29V521Q29 571 47.5 609Q66 647 99.5 673Q133 699 180 712.5Q227 726 283 726Q346 726 391 709Q436 692 464 663.5Q492 635 505 597Q518 559 518 516Q518 480 503.5 442Q489 404 465 366.5Q441 329 410.5 292.5Q380 256 348 222L305 172V169H515V0H38Z" glyph-name="two" horiz-adv-x="557" unicode="2" /><glyph d="M35 113 202 316Q223 341 242.5 367Q262 393 277 417Q292 441 301 462Q310 483 310 498V509Q310 529 300 546Q290 563 265 563Q249 563 239.5 558Q230 553 224.5 544.5Q219 536 217.5 525Q216 514 216 502V493H26V521Q26 571 44.5 609Q63 647 96.5 673Q130 699 177 712.5Q224 726 280 726Q343 726 388 709Q433 692 461 663.5Q489 635 502 597Q515 559 515 516Q515 480 500.5 442Q486 404 462 366.5Q438 329 407.5 292.5Q377 256 345 222L302 172V169H512V0H35Z" glyph-name="two.LT" horiz-adv-x="540" unicode="&#58690;" /><glyph d="M37 84 155 195Q175 214 192 233Q209 252 209 270V272Q209 282 203.5 290.5Q198 299 181 299Q164 299 157.5 289.5Q151 280 151 264V249H25V276Q25 307 36.5 330.5Q48 354 69 369.5Q90 385 118.5 393Q147 401 181 401Q255 401 295 365Q335 329 335 275Q335 252 327 232.5Q319 213 306 195.5Q293 178 276.5 162Q260 146 244 131L214 102H335V0H37Z" glyph-name="two.dnom" horiz-adv-x="360" unicode="&#58372;" /><glyph d="M37 402 155 513Q175 532 192 551Q209 570 209 588V590Q209 600 203.5 608.5Q198 617 181 617Q164 617 157.5 607.5Q151 598 151 582V567H25V594Q25 625 36.5 648.5Q48 672 69 687.5Q90 703 118.5 711Q147 719 181 719Q255 719 295 683Q335 647 335 593Q335 570 327 550.5Q319 531 306 513.5Q293 496 276.5 480Q260 464 244 449L214 420H335V318H37Z" glyph-name="two.numr" horiz-adv-x="360" unicode="&#58392;" /><glyph d="M37 464 155 575Q175 594 192 613Q209 632 209 650V652Q209 662 203.5 670.5Q198 679 181 679Q164 679 157.5 669.5Q151 660 151 644V629H25V656Q25 687 36.5 710.5Q48 734 69 749.5Q90 765 118.5 773Q147 781 181 781Q255 781 295 745Q335 709 335 655Q335 632 327 612.5Q319 593 306 575.5Q293 558 276.5 542Q260 526 244 511L214 482H335V380H37Z" glyph-name="twosuperior" horiz-adv-x="360" unicode="&#178;" /><glyph d="M193 -12Q167 -12 140.5 -2.5Q114 7 92.5 26Q71 45 57.5 73Q44 101 44 139V540H235V203Q235 193 236.5 181Q238 169 244 159Q250 149 261 142Q272 135 291 135Q312 135 328.5 154.5Q345 174 345 211V540H536V0H359L353 82H351Q325 42 283 15Q241 -12 193 -12Z" glyph-name="u" horiz-adv-x="584" unicode="u" /><glyph d="M317 756H499L371 593H234ZM193 -12Q167 -12 140.5 -2.5Q114 7 92.5 26Q71 45 57.5 73Q44 101 44 139V540H235V203Q235 193 236.5 181Q238 169 244 159Q250 149 261 142Q272 135 291 135Q312 135 328.5 154.5Q345 174 345 211V540H536V0H359L353 82H351Q325 42 283 15Q241 -12 193 -12Z" glyph-name="uacute" horiz-adv-x="584" unicode="&#250;" /><glyph d="M298 589Q205 589 157.5 639Q110 689 107 773H231Q234 754 238 740Q242 726 249.5 716.5Q257 707 269 702.5Q281 698 301 698Q332 698 343.5 716.5Q355 735 357 773H476Q475 728 461 693.5Q447 659 423.5 635.5Q400 612 368 600.5Q336 589 298 589ZM193 -12Q167 -12 140.5 -2.5Q114 7 92.5 26Q71 45 57.5 73Q44 101 44 139V540H235V203Q235 193 236.5 181Q238 169 244 159Q250 149 261 142Q272 135 291 135Q312 135 328.5 154.5Q345 174 345 211V540H536V0H359L353 82H351Q325 42 283 15Q241 -12 193 -12Z" glyph-name="ubreve" horiz-adv-x="584" unicode="&#365;" /><glyph d="M225 766H359L480 594H338L288 673L238 594H103ZM193 -12Q167 -12 140.5 -2.5Q114 7 92.5 26Q71 45 57.5 73Q44 101 44 139V540H235V203Q235 193 236.5 181Q238 169 244 159Q250 149 261 142Q272 135 291 135Q312 135 328.5 154.5Q345 174 345 211V540H536V0H359L353 82H351Q325 42 283 15Q241 -12 193 -12Z" glyph-name="ucircumflex" horiz-adv-x="584" unicode="&#251;" /><glyph d="M319 753H474V590H319ZM107 753H262V590H107ZM193 -12Q167 -12 140.5 -2.5Q114 7 92.5 26Q71 45 57.5 73Q44 101 44 139V540H235V203Q235 193 236.5 181Q238 169 244 159Q250 149 261 142Q272 135 291 135Q312 135 328.5 154.5Q345 174 345 211V540H536V0H359L353 82H351Q325 42 283 15Q241 -12 193 -12Z" glyph-name="udieresis" horiz-adv-x="584" unicode="&#252;" /><glyph d="M98 756H280L363 593H226ZM193 -12Q167 -12 140.5 -2.5Q114 7 92.5 26Q71 45 57.5 73Q44 101 44 139V540H235V203Q235 193 236.5 181Q238 169 244 159Q250 149 261 142Q272 135 291 135Q312 135 328.5 154.5Q345 174 345 211V540H536V0H359L353 82H351Q325 42 283 15Q241 -12 193 -12Z" glyph-name="ugrave" horiz-adv-x="584" unicode="&#249;" /><glyph d="M344 752H495L398 591H275ZM131 752H282L197 591H70ZM193 -12Q167 -12 140.5 -2.5Q114 7 92.5 26Q71 45 57.5 73Q44 101 44 139V540H235V203Q235 193 236.5 181Q238 169 244 159Q250 149 261 142Q272 135 291 135Q312 135 328.5 154.5Q345 174 345 211V540H536V0H359L353 82H351Q325 42 283 15Q241 -12 193 -12Z" glyph-name="uhungarumlaut" horiz-adv-x="584" unicode="&#369;" /><glyph d="M118 726H466V600H118ZM193 -12Q167 -12 140.5 -2.5Q114 7 92.5 26Q71 45 57.5 73Q44 101 44 139V540H235V203Q235 193 236.5 181Q238 169 244 159Q250 149 261 142Q272 135 291 135Q312 135 328.5 154.5Q345 174 345 211V540H536V0H359L353 82H351Q325 42 283 15Q241 -12 193 -12Z" glyph-name="umacron" horiz-adv-x="584" unicode="&#363;" /><glyph d="M0 -35H461V-153H0Z" glyph-name="underscore" horiz-adv-x="461" unicode="_" /><glyph glyph-name="uni00A0" horiz-adv-x="180" unicode="&#160;" /><glyph d="M231 -33H386L346 -218H219ZM197 550H20V713H582V550H405V0H197Z" glyph-name="uni021A" horiz-adv-x="602" unicode="&#538;" /><glyph d="M170 -33H325L285 -218H158ZM254 -10Q224 -10 195.5 -3Q167 4 144 20.5Q121 37 107 65Q93 93 93 135V377H28V531H93V671H285V531H390V377H285V190Q285 176 292 164.5Q299 153 323 153Q338 153 348.5 154Q359 155 372 157V6Q341 -3 313 -6.5Q285 -10 254 -10Z" glyph-name="uni021B" horiz-adv-x="422" unicode="&#539;" /><glyph d="M180 469Q197 469 204 479Q211 489 211 500V655Q211 680 180 680Q165 680 156.5 673Q148 666 148 655V498Q148 487 155.5 478Q163 469 180 469ZM181 368Q153 368 124.5 374.5Q96 381 73 396Q50 411 35.5 436Q21 461 21 498V651Q21 687 35 712Q49 737 71.5 752.5Q94 768 122 775Q150 782 179 782Q207 782 236 775Q265 768 287.5 752.5Q310 737 324.5 711Q339 685 339 648V498Q339 462 324.5 437.5Q310 413 287.5 397.5Q265 382 236.5 375Q208 368 181 368Z" glyph-name="uni2070" horiz-adv-x="360" unicode="&#8304;" /><glyph d="M182 452H12V542L157 775H293L140 550H182V583L313 671V550H348V452H313V380H182Z" glyph-name="uni2074" horiz-adv-x="360" unicode="&#8308;" /><glyph d="M173 368Q141 368 113 374.5Q85 381 64.5 394.5Q44 408 32 428Q20 448 20 474V505H143V497Q143 486 150 478Q157 470 175 470Q192 470 199 479Q206 488 206 502V525Q206 539 197 547Q188 555 173 555Q163 555 155.5 549.5Q148 544 143 538L25 550L34 774H313V668H143Q143 654 142 643.5Q141 633 141 617Q159 628 179.5 632Q200 636 220 636Q239 636 260.5 631Q282 626 299.5 614.5Q317 603 328.5 584Q340 565 340 537V488Q340 458 325 435.5Q310 413 286 398Q262 383 232 375.5Q202 368 173 368Z" glyph-name="uni2075" horiz-adv-x="360" unicode="&#8309;" /><glyph d="M183 467Q199 467 205 474.5Q211 482 211 493V525Q211 542 201.5 547Q192 552 182 552Q172 552 162 545.5Q152 539 152 517V494Q152 482 160.5 474.5Q169 467 183 467ZM180 368Q149 368 119.5 376Q90 384 67 399.5Q44 415 30 438.5Q16 462 16 493V648Q16 685 30.5 711Q45 737 68.5 752.5Q92 768 122.5 775Q153 782 185 782Q254 782 295 749.5Q336 717 336 663V644H212V655Q212 668 202.5 674Q193 680 181 680Q152 680 152 656V601Q167 612 188.5 619Q210 626 236 626Q288 626 315.5 599Q343 572 343 532V491Q343 462 329.5 439Q316 416 293 400Q270 384 240.5 376Q211 368 180 368Z" glyph-name="uni2076" horiz-adv-x="360" unicode="&#8310;" /><glyph d="M70 380Q71 418 82 457.5Q93 497 110.5 534.5Q128 572 151 606Q174 640 198 668H22V774H337V685Q314 664 291.5 633Q269 602 251.5 563Q234 524 223.5 477.5Q213 431 213 380Z" glyph-name="uni2077" horiz-adv-x="360" unicode="&#8311;" /><glyph d="M180 617Q211 617 211 643V661Q211 676 201 682.5Q191 689 179 689Q167 689 157.5 683.5Q148 678 148 667V642Q148 629 157 623Q166 617 180 617ZM180 460Q211 460 211 486V504Q211 519 201 525.5Q191 532 179 532Q167 532 157.5 526Q148 520 148 509V485Q148 472 157 466Q166 460 180 460ZM180 368Q146 368 116.5 374Q87 380 65.5 393.5Q44 407 31.5 428.5Q19 450 19 482V501Q19 527 30.5 546Q42 565 61 576Q44 586 34.5 605.5Q25 625 25 644V666Q25 694 37 715.5Q49 737 70 752Q91 767 119 774.5Q147 782 179 782Q211 782 239.5 775Q268 768 289 753.5Q310 739 322.5 717.5Q335 696 335 667V646Q335 623 325 605Q315 587 299 576Q316 565 328.5 545.5Q341 526 341 505V478Q341 451 328.5 430.5Q316 410 294 396Q272 382 242.5 375Q213 368 180 368Z" glyph-name="uni2078" horiz-adv-x="360" unicode="&#8312;" /><glyph d="M177 598Q187 598 197 604.5Q207 611 207 633V656Q207 668 198.5 675.5Q190 683 176 683Q160 683 154 675.5Q148 668 148 657V625Q148 608 157.5 603Q167 598 177 598ZM174 368Q105 368 64 400.5Q23 433 23 487V499H147V495Q147 482 156.5 476Q166 470 178 470Q207 470 207 494V542Q192 531 170.5 524Q149 517 123 517Q71 517 43.5 544Q16 571 16 611V659Q16 688 29.5 711Q43 734 66 749.5Q89 765 118 773.5Q147 782 179 782Q210 782 239.5 774Q269 766 292 750Q315 734 329 711Q343 688 343 657V502Q343 464 328.5 438.5Q314 413 290.5 397.5Q267 382 236.5 375Q206 368 174 368Z" glyph-name="uni2079" horiz-adv-x="360" unicode="&#8313;" /><glyph d="M149 314Q107 359 79 425.5Q51 492 51 567Q51 635 77.5 700Q104 765 149 811L202 810Q187 776 176.5 747Q166 718 159 689.5Q152 661 149 631.5Q146 602 146 567Q146 502 159.5 438.5Q173 375 202 315Z" glyph-name="uni207D" horiz-adv-x="220" unicode="&#8317;" /><glyph d="M51 315Q80 375 93.5 438.5Q107 502 107 567Q107 602 104 631.5Q101 661 94 689.5Q87 718 76.5 747Q66 776 51 810L104 811Q149 765 175.5 700Q202 635 202 567Q202 492 174 425.5Q146 359 104 314Z" glyph-name="uni207E" horiz-adv-x="220" unicode="&#8318;" /><glyph d="M180 -44Q197 -44 204 -34Q211 -24 211 -13V142Q211 167 180 167Q165 167 156.5 160Q148 153 148 142V-15Q148 -26 155.5 -35Q163 -44 180 -44ZM181 -145Q153 -145 124.5 -138.5Q96 -132 73 -117Q50 -102 35.5 -77Q21 -52 21 -15V138Q21 174 35 199Q49 224 71.5 239.5Q94 255 122 262Q150 269 179 269Q207 269 236 262Q265 255 287.5 239.5Q310 224 324.5 198Q339 172 339 135V-15Q339 -51 324.5 -75.5Q310 -100 287.5 -115.5Q265 -131 236.5 -138Q208 -145 181 -145Z" glyph-name="uni2080" horiz-adv-x="360" unicode="&#8320;" /><glyph d="M105 153 55 145 43 237 165 265H237V-133H105Z" glyph-name="uni2081" horiz-adv-x="311" unicode="&#8321;" /><glyph d="M37 -49 155 62Q175 81 192 100Q209 119 209 137V139Q209 149 203.5 157.5Q198 166 181 166Q164 166 157.5 156.5Q151 147 151 131V116H25V143Q25 174 36.5 197.5Q48 221 69 236.5Q90 252 118.5 260Q147 268 181 268Q255 268 295 232Q335 196 335 142Q335 119 327 99.5Q319 80 306 62.5Q293 45 276.5 29Q260 13 244 -2L214 -31H335V-133H37Z" glyph-name="uni2082" horiz-adv-x="360" unicode="&#8322;" /><glyph d="M178 -145Q102 -145 61 -115Q20 -85 20 -24V-8H143V-20Q143 -35 152 -40.5Q161 -46 174 -46Q191 -46 197.5 -37.5Q204 -29 204 -13Q204 6 192.5 12Q181 18 171 18H135V103H163Q181 103 191.5 109Q202 115 202 136Q202 152 193.5 159.5Q185 167 173 167Q155 167 149.5 158Q144 149 144 139V129H23V146Q23 202 63 235.5Q103 269 175 269Q245 269 287 238.5Q329 208 329 153Q329 124 312 98.5Q295 73 263 64V62Q299 54 319.5 30.5Q340 7 340 -24Q340 -59 327 -82.5Q314 -106 292 -120Q270 -134 240.5 -139.5Q211 -145 178 -145Z" glyph-name="uni2083" horiz-adv-x="360" unicode="&#8323;" /><glyph d="M182 -61H12V29L157 262H293L140 37H182V70L313 158V37H348V-61H313V-133H182Z" glyph-name="uni2084" horiz-adv-x="360" unicode="&#8324;" /><glyph d="M173 -145Q141 -145 113 -138.5Q85 -132 64.5 -118.5Q44 -105 32 -85Q20 -65 20 -39V-8H143V-16Q143 -27 150 -35Q157 -43 175 -43Q192 -43 199 -34Q206 -25 206 -11V12Q206 26 197 34Q188 42 173 42Q163 42 155.5 36.5Q148 31 143 25L25 37L34 261H313V155H143Q143 141 142 130.5Q141 120 141 104Q159 115 179.5 119Q200 123 220 123Q239 123 260.5 118Q282 113 299.5 101.5Q317 90 328.5 71Q340 52 340 24V-25Q340 -55 325 -77.5Q310 -100 286 -115Q262 -130 232 -137.5Q202 -145 173 -145Z" glyph-name="uni2085" horiz-adv-x="360" unicode="&#8325;" /><glyph d="M183 -46Q199 -46 205 -38.5Q211 -31 211 -20V12Q211 29 201.5 34Q192 39 182 39Q172 39 162 32.5Q152 26 152 4V-19Q152 -31 160.5 -38.5Q169 -46 183 -46ZM180 -145Q149 -145 119.5 -137Q90 -129 67 -113.5Q44 -98 30 -74.5Q16 -51 16 -20V135Q16 172 30.5 198Q45 224 68.5 239.5Q92 255 122.5 262Q153 269 185 269Q254 269 295 236.5Q336 204 336 150V131H212V142Q212 155 202.5 161Q193 167 181 167Q152 167 152 143V88Q167 99 188.5 106Q210 113 236 113Q288 113 315.5 86Q343 59 343 19V-22Q343 -51 329.5 -74Q316 -97 293 -113Q270 -129 240.5 -137Q211 -145 180 -145Z" glyph-name="uni2086" horiz-adv-x="360" unicode="&#8326;" /><glyph d="M70 -133Q71 -95 82 -55.5Q93 -16 110.5 21.5Q128 59 151 93Q174 127 198 155H22V261H337V172Q314 151 291.5 120Q269 89 251.5 50Q234 11 223.5 -35.5Q213 -82 213 -133Z" glyph-name="uni2087" horiz-adv-x="360" unicode="&#8327;" /><glyph d="M180 104Q211 104 211 130V148Q211 163 201 169.5Q191 176 179 176Q167 176 157.5 170.5Q148 165 148 154V129Q148 116 157 110Q166 104 180 104ZM180 -53Q211 -53 211 -27V-9Q211 6 201 12.5Q191 19 179 19Q167 19 157.5 13Q148 7 148 -4V-28Q148 -41 157 -47Q166 -53 180 -53ZM180 -145Q146 -145 116.5 -139Q87 -133 65.5 -119.5Q44 -106 31.5 -84.5Q19 -63 19 -31V-12Q19 14 30.5 33Q42 52 61 63Q44 73 34.5 92.5Q25 112 25 131V153Q25 181 37 202.5Q49 224 70 239Q91 254 119 261.5Q147 269 179 269Q211 269 239.5 262Q268 255 289 240.5Q310 226 322.5 204.5Q335 183 335 154V133Q335 110 325 92Q315 74 299 63Q316 52 328.5 32.5Q341 13 341 -8V-35Q341 -62 328.5 -82.5Q316 -103 294 -117Q272 -131 242.5 -138Q213 -145 180 -145Z" glyph-name="uni2088" horiz-adv-x="360" unicode="&#8328;" /><glyph d="M177 85Q187 85 197 91.5Q207 98 207 120V143Q207 155 198.5 162.5Q190 170 176 170Q160 170 154 162.5Q148 155 148 144V112Q148 95 157.5 90Q167 85 177 85ZM174 -145Q105 -145 64 -112.5Q23 -80 23 -26V-14H147V-18Q147 -31 156.5 -37Q166 -43 178 -43Q207 -43 207 -19V29Q192 18 170.5 11Q149 4 123 4Q71 4 43.5 31Q16 58 16 98V146Q16 175 29.5 198Q43 221 66 236.5Q89 252 118 260.5Q147 269 179 269Q210 269 239.5 261Q269 253 292 237Q315 221 329 198Q343 175 343 144V-11Q343 -49 328.5 -74.5Q314 -100 290.5 -115.5Q267 -131 236.5 -138Q206 -145 174 -145Z" glyph-name="uni2089" horiz-adv-x="360" unicode="&#8329;" /><glyph d="M149 -199Q107 -154 79 -87.5Q51 -21 51 54Q51 122 77.5 187Q104 252 149 298L202 297Q187 263 176.5 234Q166 205 159 176.5Q152 148 149 118.5Q146 89 146 54Q146 -11 159.5 -74.5Q173 -138 202 -198Z" glyph-name="uni208D" horiz-adv-x="220" unicode="&#8333;" /><glyph d="M51 -198Q80 -138 93.5 -74.5Q107 -11 107 54Q107 89 104 118.5Q101 148 94 176.5Q87 205 76.5 234Q66 263 51 297L104 298Q149 252 175.5 187Q202 122 202 54Q202 -21 174 -87.5Q146 -154 104 -199Z" glyph-name="uni208E" horiz-adv-x="220" unicode="&#8334;" /><glyph d="M126 583H191V94H280Q310 94 310 142V705H394V163Q394 115 386 84Q378 53 363 34Q348 15 325.5 7.5Q303 0 274 0H126ZM26 705H164Q193 705 215.5 699.5Q238 694 253 678.5Q268 663 276 634Q284 605 284 557V122H218V563Q218 612 189 612H100V0H26Z" glyph-name="uni20AA" horiz-adv-x="420" unicode="&#8362;" /><glyph d="M611 -12Q535 -12 494 18Q453 48 453 109V125H576V113Q576 98 585 92.5Q594 87 607 87Q624 87 630.5 95.5Q637 104 637 120Q637 139 625.5 145Q614 151 604 151H568V236H596Q614 236 624.5 242Q635 248 635 269Q635 285 626.5 292.5Q618 300 606 300Q588 300 582.5 291Q577 282 577 272V262H456V279Q456 335 496 368.5Q536 402 608 402Q678 402 720 371.5Q762 341 762 286Q762 257 745 231.5Q728 206 696 197V195Q732 187 752.5 163.5Q773 140 773 109Q773 74 760 50.5Q747 27 725 13Q703 -1 673.5 -6.5Q644 -12 611 -12ZM535 718H622L224 -2H137ZM122 602 72 594 60 686 182 714H254V316H122Z" glyph-name="uni2153" horiz-adv-x="820" unicode="&#8531;" /><glyph d="M643 -12Q567 -12 526 18Q485 48 485 109V125H608V113Q608 98 617 92.5Q626 87 639 87Q656 87 662.5 95.5Q669 104 669 120Q669 139 657.5 145Q646 151 636 151H600V236H628Q646 236 656.5 242Q667 248 667 269Q667 285 658.5 292.5Q650 300 638 300Q620 300 614.5 291Q609 282 609 272V262H488V279Q488 335 528 368.5Q568 402 640 402Q710 402 752 371.5Q794 341 794 286Q794 257 777 231.5Q760 206 728 197V195Q764 187 784.5 163.5Q805 140 805 109Q805 74 792 50.5Q779 27 757 13Q735 -1 705.5 -6.5Q676 -12 643 -12ZM579 718H666L268 -2H181ZM29 400 147 511Q167 530 184 549Q201 568 201 586V588Q201 598 195.5 606.5Q190 615 173 615Q156 615 149.5 605.5Q143 596 143 580V565H17V592Q17 623 28.5 646.5Q40 670 61 685.5Q82 701 110.5 709Q139 717 173 717Q247 717 287 681Q327 645 327 591Q327 568 319 548.5Q311 529 298 511.5Q285 494 268.5 478Q252 462 236 447L206 418H327V316H29Z" glyph-name="uni2154" horiz-adv-x="820" unicode="&#8532;" /><glyph d="M620 -12Q588 -12 560 -5.5Q532 1 511.5 14.5Q491 28 479 48Q467 68 467 94V125H590V117Q590 106 597 98Q604 90 622 90Q639 90 646 99Q653 108 653 122V145Q653 159 644 167Q635 175 620 175Q610 175 602.5 169.5Q595 164 590 158L472 170L481 394H760V288H590Q590 274 589 263.5Q588 253 588 237Q606 248 626.5 252Q647 256 667 256Q686 256 707.5 251Q729 246 746.5 234.5Q764 223 775.5 204Q787 185 787 157V108Q787 78 772 55.5Q757 33 733 18Q709 3 679 -4.5Q649 -12 620 -12ZM527 718H614L216 -2H129ZM96 602 46 594 34 686 156 714H228V316H96Z" glyph-name="uni2155" horiz-adv-x="820" unicode="&#8533;" /><glyph d="M641 -12Q609 -12 581 -5.5Q553 1 532.5 14.5Q512 28 500 48Q488 68 488 94V125H611V117Q611 106 618 98Q625 90 643 90Q660 90 667 99Q674 108 674 122V145Q674 159 665 167Q656 175 641 175Q631 175 623.5 169.5Q616 164 611 158L493 170L502 394H781V288H611Q611 274 610 263.5Q609 253 609 237Q627 248 647.5 252Q668 256 688 256Q707 256 728.5 251Q750 246 767.5 234.5Q785 223 796.5 204Q808 185 808 157V108Q808 78 793 55.5Q778 33 754 18Q730 3 700 -4.5Q670 -12 641 -12ZM568 718H655L257 -2H170ZM30 400 148 511Q168 530 185 549Q202 568 202 586V588Q202 598 196.5 606.5Q191 615 174 615Q157 615 150.5 605.5Q144 596 144 580V565H18V592Q18 623 29.5 646.5Q41 670 62 685.5Q83 701 111.5 709Q140 717 174 717Q248 717 288 681Q328 645 328 591Q328 568 320 548.5Q312 529 299 511.5Q286 494 269.5 478Q253 462 237 447L207 418H328V316H30Z" glyph-name="uni2156" horiz-adv-x="820" unicode="&#8534;" /><glyph d="M641 -12Q609 -12 581 -5.5Q553 1 532.5 14.5Q512 28 500 48Q488 68 488 94V125H611V117Q611 106 618 98Q625 90 643 90Q660 90 667 99Q674 108 674 122V145Q674 159 665 167Q656 175 641 175Q631 175 623.5 169.5Q616 164 611 158L493 170L502 394H781V288H611Q611 274 610 263.5Q609 253 609 237Q627 248 647.5 252Q668 256 688 256Q707 256 728.5 251Q750 246 767.5 234.5Q785 223 796.5 204Q808 185 808 157V108Q808 78 793 55.5Q778 33 754 18Q730 3 700 -4.5Q670 -12 641 -12ZM568 718H655L257 -2H170ZM176 304Q100 304 59 334Q18 364 18 425V441H141V429Q141 414 150 408.5Q159 403 172 403Q189 403 195.5 411.5Q202 420 202 436Q202 455 190.5 461Q179 467 169 467H133V552H161Q179 552 189.5 558Q200 564 200 585Q200 601 191.5 608.5Q183 616 171 616Q153 616 147.5 607Q142 598 142 588V578H21V595Q21 651 61 684.5Q101 718 173 718Q243 718 285 687.5Q327 657 327 602Q327 573 310 547.5Q293 522 261 513V511Q297 503 317.5 479.5Q338 456 338 425Q338 390 325 366.5Q312 343 290 329Q268 315 238.5 309.5Q209 304 176 304Z" glyph-name="uni2157" horiz-adv-x="820" unicode="&#8535;" /><glyph d="M641 -12Q609 -12 581 -5.5Q553 1 532.5 14.5Q512 28 500 48Q488 68 488 94V125H611V117Q611 106 618 98Q625 90 643 90Q660 90 667 99Q674 108 674 122V145Q674 159 665 167Q656 175 641 175Q631 175 623.5 169.5Q616 164 611 158L493 170L502 394H781V288H611Q611 274 610 263.5Q609 253 609 237Q627 248 647.5 252Q668 256 688 256Q707 256 728.5 251Q750 246 767.5 234.5Q785 223 796.5 204Q808 185 808 157V108Q808 78 793 55.5Q778 33 754 18Q730 3 700 -4.5Q670 -12 641 -12ZM570 718H657L259 -2H172ZM175 388H5V478L150 711H286L133 486H175V519L306 607V486H341V388H306V316H175Z" glyph-name="uni2158" horiz-adv-x="820" unicode="&#8536;" /><glyph d="M616 87Q632 87 638 94.5Q644 102 644 113V145Q644 162 634.5 167Q625 172 615 172Q605 172 595 165.5Q585 159 585 137V114Q585 102 593.5 94.5Q602 87 616 87ZM613 -12Q582 -12 552.5 -4Q523 4 500 19.5Q477 35 463 58.5Q449 82 449 113V268Q449 305 463.5 331Q478 357 501.5 372.5Q525 388 555.5 395Q586 402 618 402Q687 402 728 369.5Q769 337 769 283V264H645V275Q645 288 635.5 294Q626 300 614 300Q585 300 585 276V221Q600 232 621.5 239Q643 246 669 246Q721 246 748.5 219Q776 192 776 152V111Q776 82 762.5 59Q749 36 726 20Q703 4 673.5 -4Q644 -12 613 -12ZM535 718H622L224 -2H137ZM122 602 72 594 60 686 182 714H254V316H122Z" glyph-name="uni2159" horiz-adv-x="820" unicode="&#8537;" /><glyph d="M181 304Q149 304 121 310.5Q93 317 72.5 330.5Q52 344 40 364Q28 384 28 410V441H151V433Q151 422 158 414Q165 406 183 406Q200 406 207 415Q214 424 214 438V461Q214 475 205 483Q196 491 181 491Q171 491 163.5 485.5Q156 480 151 474L33 486L42 710H321V604H151Q151 590 150 579.5Q149 569 149 553Q167 564 187.5 568Q208 572 228 572Q247 572 268.5 567Q290 562 307.5 550.5Q325 539 336.5 520Q348 501 348 473V424Q348 394 333 371.5Q318 349 294 334Q270 319 240 311.5Q210 304 181 304ZM619 87Q635 87 641 94.5Q647 102 647 113V145Q647 162 637.5 167Q628 172 618 172Q608 172 598 165.5Q588 159 588 137V114Q588 102 596.5 94.5Q605 87 619 87ZM616 -12Q585 -12 555.5 -4Q526 4 503 19.5Q480 35 466 58.5Q452 82 452 113V268Q452 305 466.5 331Q481 357 504.5 372.5Q528 388 558.5 395Q589 402 621 402Q690 402 731 369.5Q772 337 772 283V264H648V275Q648 288 638.5 294Q629 300 617 300Q588 300 588 276V221Q603 232 624.5 239Q646 246 672 246Q724 246 751.5 219Q779 192 779 152V111Q779 82 765.5 59Q752 36 729 20Q706 4 676.5 -4Q647 -12 616 -12ZM556 718H643L245 -2H158Z" glyph-name="uni215A" horiz-adv-x="820" unicode="&#8538;" /><glyph d="M613 237Q644 237 644 263V281Q644 296 634 302.5Q624 309 612 309Q600 309 590.5 303.5Q581 298 581 287V262Q581 249 590 243Q599 237 613 237ZM613 80Q644 80 644 106V124Q644 139 634 145.5Q624 152 612 152Q600 152 590.5 146Q581 140 581 129V105Q581 92 590 86Q599 80 613 80ZM613 -12Q579 -12 549.5 -6Q520 0 498.5 13.5Q477 27 464.5 48.5Q452 70 452 102V121Q452 147 463.5 166Q475 185 494 196Q477 206 467.5 225.5Q458 245 458 264V286Q458 314 470 335.5Q482 357 503 372Q524 387 552 394.5Q580 402 612 402Q644 402 672.5 395Q701 388 722 373.5Q743 359 755.5 337.5Q768 316 768 287V266Q768 243 758 225Q748 207 732 196Q749 185 761.5 165.5Q774 146 774 125V98Q774 71 761.5 50.5Q749 30 727 16Q705 2 675.5 -5Q646 -12 613 -12ZM535 718H622L224 -2H137ZM122 602 72 594 60 686 182 714H254V316H122Z" glyph-name="uni215B" horiz-adv-x="820" unicode="&#8539;" /><glyph d="M619 237Q650 237 650 263V281Q650 296 640 302.5Q630 309 618 309Q606 309 596.5 303.5Q587 298 587 287V262Q587 249 596 243Q605 237 619 237ZM619 80Q650 80 650 106V124Q650 139 640 145.5Q630 152 618 152Q606 152 596.5 146Q587 140 587 129V105Q587 92 596 86Q605 80 619 80ZM619 -12Q585 -12 555.5 -6Q526 0 504.5 13.5Q483 27 470.5 48.5Q458 70 458 102V121Q458 147 469.5 166Q481 185 500 196Q483 206 473.5 225.5Q464 245 464 264V286Q464 314 476 335.5Q488 357 509 372Q530 387 558 394.5Q586 402 618 402Q650 402 678.5 395Q707 388 728 373.5Q749 359 761.5 337.5Q774 316 774 287V266Q774 243 764 225Q754 207 738 196Q755 185 767.5 165.5Q780 146 780 125V98Q780 71 767.5 50.5Q755 30 733 16Q711 2 681.5 -5Q652 -12 619 -12ZM567 718H654L256 -2H169ZM187 304Q111 304 70 334Q29 364 29 425V441H152V429Q152 414 161 408.5Q170 403 183 403Q200 403 206.5 411.5Q213 420 213 436Q213 455 201.5 461Q190 467 180 467H144V552H172Q190 552 200.5 558Q211 564 211 585Q211 601 202.5 608.5Q194 616 182 616Q164 616 158.5 607Q153 598 153 588V578H32V595Q32 651 72 684.5Q112 718 184 718Q254 718 296 687.5Q338 657 338 602Q338 573 321 547.5Q304 522 272 513V511Q308 503 328.5 479.5Q349 456 349 425Q349 390 336 366.5Q323 343 301 329Q279 315 249.5 309.5Q220 304 187 304Z" glyph-name="uni215C" horiz-adv-x="820" unicode="&#8540;" /><glyph d="M613 237Q644 237 644 263V281Q644 296 634 302.5Q624 309 612 309Q600 309 590.5 303.5Q581 298 581 287V262Q581 249 590 243Q599 237 613 237ZM613 80Q644 80 644 106V124Q644 139 634 145.5Q624 152 612 152Q600 152 590.5 146Q581 140 581 129V105Q581 92 590 86Q599 80 613 80ZM613 -12Q579 -12 549.5 -6Q520 0 498.5 13.5Q477 27 464.5 48.5Q452 70 452 102V121Q452 147 463.5 166Q475 185 494 196Q477 206 467.5 225.5Q458 245 458 264V286Q458 314 470 335.5Q482 357 503 372Q524 387 552 394.5Q580 402 612 402Q644 402 672.5 395Q701 388 722 373.5Q743 359 755.5 337.5Q768 316 768 287V266Q768 243 758 225Q748 207 732 196Q749 185 761.5 165.5Q774 146 774 125V98Q774 71 761.5 50.5Q749 30 727 16Q705 2 675.5 -5Q646 -12 613 -12ZM556 718H643L245 -2H158ZM183 304Q151 304 123 310.5Q95 317 74.5 330.5Q54 344 42 364Q30 384 30 410V441H153V433Q153 422 160 414Q167 406 185 406Q202 406 209 415Q216 424 216 438V461Q216 475 207 483Q198 491 183 491Q173 491 165.5 485.5Q158 480 153 474L35 486L44 710H323V604H153Q153 590 152 579.5Q151 569 151 553Q169 564 189.5 568Q210 572 230 572Q249 572 270.5 567Q292 562 309.5 550.5Q327 539 338.5 520Q350 501 350 473V424Q350 394 335 371.5Q320 349 296 334Q272 319 242 311.5Q212 304 183 304Z" glyph-name="uni215D" horiz-adv-x="820" unicode="&#8541;" /><glyph d="M613 237Q644 237 644 263V281Q644 296 634 302.5Q624 309 612 309Q600 309 590.5 303.5Q581 298 581 287V262Q581 249 590 243Q599 237 613 237ZM613 80Q644 80 644 106V124Q644 139 634 145.5Q624 152 612 152Q600 152 590.5 146Q581 140 581 129V105Q581 92 590 86Q599 80 613 80ZM613 -12Q579 -12 549.5 -6Q520 0 498.5 13.5Q477 27 464.5 48.5Q452 70 452 102V121Q452 147 463.5 166Q475 185 494 196Q477 206 467.5 225.5Q458 245 458 264V286Q458 314 470 335.5Q482 357 503 372Q524 387 552 394.5Q580 402 612 402Q644 402 672.5 395Q701 388 722 373.5Q743 359 755.5 337.5Q768 316 768 287V266Q768 243 758 225Q748 207 732 196Q749 185 761.5 165.5Q774 146 774 125V98Q774 71 761.5 50.5Q749 30 727 16Q705 2 675.5 -5Q646 -12 613 -12ZM535 718H622L224 -2H137ZM87 316Q88 354 99 393.5Q110 433 127.5 470.5Q145 508 168 542Q191 576 215 604H39V710H354V621Q331 600 308.5 569Q286 538 268.5 499Q251 460 240.5 413.5Q230 367 230 316Z" glyph-name="uni215E" horiz-adv-x="820" unicode="&#8542;" /><glyph d="M220 344 226 205H108L118 527L127 535L450 547L453 436L310 434L536 208L446 119Z" glyph-name="uni2196" horiz-adv-x="606" unicode="&#8598;" /><glyph d="M108 208 334 434 191 436 194 547 517 535 526 527 536 205H418L424 344L198 119Z" glyph-name="uni2197" horiz-adv-x="606" unicode="&#8599;" /><glyph d="M191 230 334 232 108 458 198 547 424 322 418 461H536L526 139L517 131L194 119Z" glyph-name="uni2198" horiz-adv-x="606" unicode="&#8600;" /><glyph d="M127 131 118 139 108 461H226L220 322L446 547L536 458L310 232L453 230L450 119Z" glyph-name="uni2199" horiz-adv-x="606" unicode="&#8601;" /><glyph d="M60 193 57 201 374 547 381 546 527 107 520 100Z" glyph-name="uni25E2" horiz-adv-x="561" unicode="&#9698;" /><glyph d="M57 107 203 546 210 547 527 201 524 193 64 100Z" glyph-name="uni25E3" horiz-adv-x="561" unicode="&#9699;" /><glyph d="M210 99Q208 99 206 99.5Q204 100 202 100Q166 210 129.5 319.5Q93 429 56 539L64 546L523 453Q525 451 525.5 449Q526 447 527 445Z" glyph-name="uni25E4" horiz-adv-x="561" unicode="&#9700;" /><glyph d="M56 445Q58 447 58.5 449Q59 451 60 453L520 546L527 539L381 100Q379 100 377.5 99.5Q376 99 374 99Z" glyph-name="uni25E5" horiz-adv-x="561" unicode="&#9701;" /><glyph d="M403 -220Q379 -220 356.5 -214Q334 -208 316 -195Q298 -182 287 -161Q276 -140 276 -111Q276 -66 299.5 -33Q323 0 357 20L353 82H351Q325 42 283 15Q241 -12 193 -12Q167 -12 140.5 -2.5Q114 7 92.5 26Q71 45 57.5 73Q44 101 44 139V540H235V203Q235 193 236.5 181Q238 169 244 159Q250 149 261 142Q272 135 291 135Q312 135 328.5 154.5Q345 174 345 211V540H536V0H459Q419 -13 401 -35.5Q383 -58 383 -82Q383 -106 396.5 -116.5Q410 -127 428 -127Q442 -127 459 -119.5Q476 -112 489 -103L533 -182Q512 -199 478.5 -209.5Q445 -220 403 -220Z" glyph-name="uogonek" horiz-adv-x="584" unicode="&#371;" /><glyph d="M291 638Q313 638 323 652.5Q333 667 333 688Q333 710 323 724Q313 738 289 738Q267 738 258 723.5Q249 709 249 688Q249 667 259 652.5Q269 638 291 638ZM291 579Q246 579 214 607Q182 635 182 686Q182 710 190.5 730.5Q199 751 214 765.5Q229 780 249 788.5Q269 797 291 797Q338 797 370 770Q402 743 402 692Q402 668 393 647.5Q384 627 369 611.5Q354 596 333.5 587.5Q313 579 291 579ZM193 -12Q167 -12 140.5 -2.5Q114 7 92.5 26Q71 45 57.5 73Q44 101 44 139V540H235V203Q235 193 236.5 181Q238 169 244 159Q250 149 261 142Q272 135 291 135Q312 135 328.5 154.5Q345 174 345 211V540H536V0H359L353 82H351Q325 42 283 15Q241 -12 193 -12Z" glyph-name="uring" horiz-adv-x="584" unicode="&#367;" /><glyph d="M82 603Q86 633 96 660.5Q106 688 122 709.5Q138 731 160.5 743.5Q183 756 212 756Q233 756 253.5 750.5Q274 745 294 738.5Q314 732 334 726.5Q354 721 375 721Q394 721 404 734.5Q414 748 422 771L501 750Q498 722 489 695Q480 668 465 647Q450 626 427.5 613.5Q405 601 375 601Q355 601 335 606.5Q315 612 295.5 618Q276 624 256.5 629.5Q237 635 217 635Q197 635 188 623.5Q179 612 171 585ZM193 -12Q167 -12 140.5 -2.5Q114 7 92.5 26Q71 45 57.5 73Q44 101 44 139V540H235V203Q235 193 236.5 181Q238 169 244 159Q250 149 261 142Q272 135 291 135Q312 135 328.5 154.5Q345 174 345 211V540H536V0H359L353 82H351Q325 42 283 15Q241 -12 193 -12Z" glyph-name="utilde" horiz-adv-x="584" unicode="&#361;" /><glyph d="M6 540H210L277 259H279L349 540H521L357 -1H176Z" glyph-name="v" horiz-adv-x="527" unicode="v" /><glyph d="M10 540H205L250 282H255L309 540H488L541 282H546L594 540H764L626 -1H457L391 299H388L321 -1H148Z" glyph-name="w" horiz-adv-x="777" unicode="w" /><glyph d="M416 756H598L470 593H333ZM10 540H205L250 282H255L309 540H488L541 282H546L594 540H764L626 -1H457L391 299H388L321 -1H148Z" glyph-name="wacute" horiz-adv-x="777" unicode="&#7811;" /><glyph d="M322 766H456L577 594H435L385 673L335 594H200ZM10 540H205L250 282H255L309 540H488L541 282H546L594 540H764L626 -1H457L391 299H388L321 -1H148Z" glyph-name="wcircumflex" horiz-adv-x="777" unicode="&#373;" /><glyph d="M417 753H572V590H417ZM205 753H360V590H205ZM10 540H205L250 282H255L309 540H488L541 282H546L594 540H764L626 -1H457L391 299H388L321 -1H148Z" glyph-name="wdieresis" horiz-adv-x="777" unicode="&#7813;" /><glyph d="M196 756H378L461 593H324ZM10 540H205L250 282H255L309 540H488L541 282H546L594 540H764L626 -1H457L391 299H388L321 -1H148Z" glyph-name="wgrave" horiz-adv-x="777" unicode="&#7809;" /><glyph d="M570 97V616H146V97ZM47 713H669V0H47Z" glyph-name="whitesquare" horiz-adv-x="716" unicode="&#9633;" /><glyph d="M153 275 7 540H216L282 411L340 540H523L379 279L532 0H322L250 144L178 0H0Z" glyph-name="x" horiz-adv-x="532" unicode="x" /><glyph d="M157 -188Q129 -188 101 -184Q73 -180 50 -174L76 -21Q92 -25 117.5 -28.5Q143 -32 157 -32Q166 -32 174.5 -26.5Q183 -21 189 -1L193 15L0 540H203L288 270H291L361 540H533L362 -9Q348 -53 330 -86.5Q312 -120 287.5 -142.5Q263 -165 231 -176.5Q199 -188 157 -188Z" glyph-name="y" horiz-adv-x="533" unicode="y" /><glyph d="M303 756H485L357 593H220ZM157 -188Q129 -188 101 -184Q73 -180 50 -174L76 -21Q92 -25 117.5 -28.5Q143 -32 157 -32Q166 -32 174.5 -26.5Q183 -21 189 -1L193 15L0 540H203L288 270H291L361 540H533L362 -9Q348 -53 330 -86.5Q312 -120 287.5 -142.5Q263 -165 231 -176.5Q199 -188 157 -188Z" glyph-name="yacute" horiz-adv-x="533" unicode="&#253;" /><glyph d="M200 766H334L455 594H313L263 673L213 594H78ZM157 -188Q129 -188 101 -184Q73 -180 50 -174L76 -21Q92 -25 117.5 -28.5Q143 -32 157 -32Q166 -32 174.5 -26.5Q183 -21 189 -1L193 15L0 540H203L288 270H291L361 540H533L362 -9Q348 -53 330 -86.5Q312 -120 287.5 -142.5Q263 -165 231 -176.5Q199 -188 157 -188Z" glyph-name="ycircumflex" horiz-adv-x="533" unicode="&#375;" /><glyph d="M309 753H464V590H309ZM97 753H252V590H97ZM157 -188Q129 -188 101 -184Q73 -180 50 -174L76 -21Q92 -25 117.5 -28.5Q143 -32 157 -32Q166 -32 174.5 -26.5Q183 -21 189 -1L193 15L0 540H203L288 270H291L361 540H533L362 -9Q348 -53 330 -86.5Q312 -120 287.5 -142.5Q263 -165 231 -176.5Q199 -188 157 -188Z" glyph-name="ydieresis" horiz-adv-x="533" unicode="&#255;" /><glyph d="M206 217H47V339H173L0 713H213L319 461L421 713H619L446 339H572V217H413V0H206Z" glyph-name="yen" horiz-adv-x="619" unicode="&#165;" /><glyph d="M90 756H272L355 593H218ZM157 -188Q129 -188 101 -184Q73 -180 50 -174L76 -21Q92 -25 117.5 -28.5Q143 -32 157 -32Q166 -32 174.5 -26.5Q183 -21 189 -1L193 15L0 540H203L288 270H291L361 540H533L362 -9Q348 -53 330 -86.5Q312 -120 287.5 -142.5Q263 -165 231 -176.5Q199 -188 157 -188Z" glyph-name="ygrave" horiz-adv-x="533" unicode="&#7923;" /><glyph d="M35 120 225 391H43V540H468V416L282 150H468V0H35Z" glyph-name="z" horiz-adv-x="504" unicode="z" /><glyph d="M267 756H449L321 593H184ZM35 120 225 391H43V540H468V416L282 150H468V0H35Z" glyph-name="zacute" horiz-adv-x="504" unicode="&#378;" /><glyph d="M66 774H208L258 695L308 774H448L321 602H187ZM35 120 225 391H43V540H468V416L282 150H468V0H35Z" glyph-name="zcaron" horiz-adv-x="504" unicode="&#382;" /><glyph d="M179 752H345V589H179ZM35 120 225 391H43V540H468V416L282 150H468V0H35Z" glyph-name="zdotaccent" horiz-adv-x="504" unicode="&#380;" /><glyph d="M294 148Q323 148 336 164.5Q349 181 349 199V519Q349 539 334 551.5Q319 564 293 564Q267 564 252 551Q237 538 237 519V197Q237 178 251 163Q265 148 294 148ZM295 -12Q249 -12 203.5 -1Q158 10 121.5 34.5Q85 59 62.5 99Q40 139 40 198V513Q40 570 62 610.5Q84 651 119.5 676.5Q155 702 200 713.5Q245 725 292 725Q338 725 383.5 713.5Q429 702 465 676Q501 650 523.5 609Q546 568 546 509V198Q546 141 523.5 101.5Q501 62 465.5 36.5Q430 11 385 -0.5Q340 -12 295 -12Z" glyph-name="zero" horiz-adv-x="586" unicode="0" /><glyph d="M271 148Q300 148 313 164.5Q326 181 326 199V519Q326 539 311 551.5Q296 564 270 564Q244 564 229 551Q214 538 214 519V197Q214 178 228 163Q242 148 271 148ZM272 -12Q226 -12 180.5 -1Q135 10 98.5 34.5Q62 59 39.5 99Q17 139 17 198V513Q17 570 39 610.5Q61 651 96.5 676.5Q132 702 177 713.5Q222 725 269 725Q315 725 360.5 713.5Q406 702 442 676Q478 650 500.5 609Q523 568 523 509V198Q523 141 500.5 101.5Q478 62 442.5 36.5Q407 11 362 -0.5Q317 -12 272 -12Z" glyph-name="zero.LT" horiz-adv-x="540" unicode="&#58687;" /><glyph d="M180 89Q197 89 204 99Q211 109 211 120V275Q211 300 180 300Q165 300 156.5 293Q148 286 148 275V118Q148 107 155.5 98Q163 89 180 89ZM181 -12Q153 -12 124.5 -5.5Q96 1 73 16Q50 31 35.5 56Q21 81 21 118V271Q21 307 35 332Q49 357 71.5 372.5Q94 388 122 395Q150 402 179 402Q207 402 236 395Q265 388 287.5 372.5Q310 357 324.5 331Q339 305 339 268V118Q339 82 324.5 57.5Q310 33 287.5 17.5Q265 2 236.5 -5Q208 -12 181 -12Z" glyph-name="zero.dnom" horiz-adv-x="360" unicode="&#58370;" /><glyph d="M180 407Q197 407 204 417Q211 427 211 438V593Q211 618 180 618Q165 618 156.5 611Q148 604 148 593V436Q148 425 155.5 416Q163 407 180 407ZM181 306Q153 306 124.5 312.5Q96 319 73 334Q50 349 35.5 374Q21 399 21 436V589Q21 625 35 650Q49 675 71.5 690.5Q94 706 122 713Q150 720 179 720Q207 720 236 713Q265 706 287.5 690.5Q310 675 324.5 649Q339 623 339 586V436Q339 400 324.5 375.5Q310 351 287.5 335.5Q265 320 236.5 313Q208 306 181 306Z" glyph-name="zero.numr" horiz-adv-x="360" unicode="&#58390;" /></font>
</defs>
</svg>
