<?xml version="1.0" standalone="no"?><!DOCTYPE svg PUBLIC "-//W3C//DTD SVG 1.1//EN" "http://www.w3.org/Graphics/SVG/1.1/DTD/svg11.dtd" ><svg version="1.1" xmlns="http://www.w3.org/2000/svg"><defs><font horiz-adv-x="0" id="font"><font-face ascent="750" bbox="-132 -213 819 985" cap-height="713" descent="-250" font-family="Flama Condensed Medium" font-stretch="normal" font-style="normal" font-weight="600" units-per-em="1000" x-height="528" /><missing-glyph d="M707 42V638H115V42ZM55 698H767V-18H55ZM195 158 380 343 195 528 235 568 420 383 605 568 645 528 460 343 645 158 605 118 420 303 235 118Z" horiz-adv-x="957" /><glyph glyph-name=".null" horiz-adv-x="0" /><glyph d="M295 277 240 588H237L180 277ZM169 715H321L461 0H349L313 186H162L128 0H24Z" glyph-name="A" horiz-adv-x="485" unicode="A" /><glyph d="M310 285V601H306L214 285ZM245 714H622V619H421V416H581V321H421V96H623V0H310V199H184L128 0H17Z" glyph-name="AE" horiz-adv-x="657" unicode="&#198;" /><glyph d="M310 285V601H306L214 285ZM245 714H622V619H421V416H581V321H421V96H623V0H310V199H184L128 0H17ZM408 910H515L417 764H340Z" glyph-name="AEacute" horiz-adv-x="657" unicode="&#508;" /><glyph d="M273 910H380L282 764H205ZM295 277 240 588H237L180 277ZM169 715H321L461 0H349L313 186H162L128 0H24Z" glyph-name="Aacute" horiz-adv-x="485" unicode="&#193;" /><glyph d="M244 766Q184 766 150 800.5Q116 835 115 904H186Q190 872 201 851Q212 830 247 830Q275 830 287.5 849.5Q300 869 301 904H370Q368 832 332 799Q296 766 244 766ZM295 277 240 588H237L180 277ZM169 715H321L461 0H349L313 186H162L128 0H24Z" glyph-name="Abreve" horiz-adv-x="485" unicode="&#258;" /><glyph d="M207 913H284L367 765H284L243 846L203 765H123ZM295 277 240 588H237L180 277ZM169 715H321L461 0H349L313 186H162L128 0H24Z" glyph-name="Acircumflex" horiz-adv-x="485" unicode="&#194;" /><glyph d="M271 903H355V772H271ZM129 903H213V772H129ZM295 277 240 588H237L180 277ZM169 715H321L461 0H349L313 186H162L128 0H24Z" glyph-name="Adieresis" horiz-adv-x="485" unicode="&#196;" /><glyph d="M109 910H216L284 764H207ZM295 277 240 588H237L180 277ZM169 715H321L461 0H349L313 186H162L128 0H24Z" glyph-name="Agrave" horiz-adv-x="485" unicode="&#192;" /><glyph d="M135 855H350V778H135ZM295 277 240 588H237L180 277ZM169 715H321L461 0H349L313 186H162L128 0H24Z" glyph-name="Amacron" horiz-adv-x="485" unicode="&#256;" /><glyph d="M295 277 240 588H237L180 277ZM421 -193Q381 -193 351.5 -172Q322 -151 322 -105Q322 -72 336.5 -45.5Q351 -19 373 0H349L313 186H162L128 0H24L169 715H321L461 0H452Q420 -14 405 -35Q390 -56 390 -82Q390 -105 403 -116Q416 -127 434 -127Q448 -127 460.5 -122.5Q473 -118 484 -111L512 -164Q496 -175 474.5 -184Q453 -193 421 -193Z" glyph-name="Aogonek" horiz-adv-x="485" unicode="&#260;" /><glyph d="M247 791Q267 791 278.5 804Q290 817 290 837Q290 857 279 870.5Q268 884 246 884Q226 884 215.5 871Q205 858 205 837Q205 816 217 803.5Q229 791 247 791ZM246 749Q206 749 182 773.5Q158 798 158 835Q158 873 183 899.5Q208 926 247 926Q288 926 311.5 901.5Q335 877 335 839Q335 820 328 803.5Q321 787 309 775Q297 763 281 756Q265 749 246 749ZM295 277 240 588H237L180 277ZM169 715H321L461 0H349L313 186H162L128 0H24Z" glyph-name="Aring" horiz-adv-x="485" unicode="&#197;" /><glyph d="M247 788Q266 788 277 801Q288 814 288 835Q288 855 277.5 868Q267 881 247 881Q228 881 218 867.5Q208 854 208 834Q208 812 218.5 800Q229 788 247 788ZM246 750Q203 750 181.5 775Q160 800 160 832Q160 864 180 889L249 985L326 968L268 913Q300 908 317 886.5Q334 865 334 836Q334 799 309 774.5Q284 750 246 750ZM295 277 240 588H237L180 277ZM169 715H321L461 0H349L313 186H162L128 0H24Z" glyph-name="Aringacute" horiz-adv-x="485" unicode="&#506;" /><glyph d="M97 781Q103 823 124.5 853.5Q146 884 182 884Q197 884 212 879.5Q227 875 241.5 869.5Q256 864 270.5 859.5Q285 855 299 855Q313 855 320.5 864.5Q328 874 334 892L386 879Q383 859 376.5 840.5Q370 822 359 808Q348 794 333.5 785.5Q319 777 300 777Q286 777 270.5 781.5Q255 786 240 791.5Q225 797 211.5 801.5Q198 806 186 806Q172 806 164.5 798Q157 790 152 769ZM295 277 240 588H237L180 277ZM169 715H321L461 0H349L313 186H162L128 0H24Z" glyph-name="Atilde" horiz-adv-x="485" unicode="&#195;" /><glyph d="M219 408Q254 408 275 434.5Q296 461 296 519Q296 573 277.5 598Q259 623 229 623H162V408ZM229 92Q263 92 280.5 121Q298 150 298 206Q298 265 277 291Q256 317 221 317H162V92ZM51 713H250Q326 713 366 668Q406 623 406 533Q406 462 380 420Q354 378 311 367V363Q362 351 386.5 308Q411 265 411 199Q411 147 399.5 109.5Q388 72 367.5 47.5Q347 23 318.5 11.5Q290 0 256 0H51Z" glyph-name="B" horiz-adv-x="450" unicode="B" /><glyph d="M232 -10Q148 -10 95 33.5Q42 77 42 163V551Q42 591 56 623.5Q70 656 95.5 678Q121 700 156 712Q191 724 232 724Q271 724 303 713Q335 702 358.5 681.5Q382 661 395 631.5Q408 602 408 565V486H307V553Q307 587 287.5 607.5Q268 628 232 628Q191 628 173 605Q155 582 155 547V170Q155 130 175.5 109Q196 88 233 88Q268 88 287.5 109Q307 130 307 162V229H408V156Q408 118 395 87Q382 56 358.5 34.5Q335 13 303 1.5Q271 -10 232 -10Z" glyph-name="C" horiz-adv-x="445" unicode="C" /><glyph d="M232 -10Q148 -10 95 33.5Q42 77 42 163V551Q42 591 56 623.5Q70 656 95.5 678Q121 700 156 712Q191 724 232 724Q271 724 303 713Q335 702 358.5 681.5Q382 661 395 631.5Q408 602 408 565V486H307V553Q307 587 287.5 607.5Q268 628 232 628Q191 628 173 605Q155 582 155 547V170Q155 130 175.5 109Q196 88 233 88Q268 88 287.5 109Q307 130 307 162V229H408V156Q408 118 395 87Q382 56 358.5 34.5Q335 13 303 1.5Q271 -10 232 -10ZM251 910H358L260 764H183Z" glyph-name="Cacute" horiz-adv-x="445" unicode="&#262;" /><glyph d="M232 -10Q148 -10 95 33.5Q42 77 42 163V551Q42 591 56 623.5Q70 656 95.5 678Q121 700 156 712Q191 724 232 724Q271 724 303 713Q335 702 358.5 681.5Q382 661 395 631.5Q408 602 408 565V486H307V553Q307 587 287.5 607.5Q268 628 232 628Q191 628 173 605Q155 582 155 547V170Q155 130 175.5 109Q196 88 233 88Q268 88 287.5 109Q307 130 307 162V229H408V156Q408 118 395 87Q382 56 358.5 34.5Q335 13 303 1.5Q271 -10 232 -10ZM99 916H183L223 835L264 916H345L260 767H183Z" glyph-name="Ccaron" horiz-adv-x="445" unicode="&#268;" /><glyph d="M231 -189Q215 -189 194 -187Q173 -185 152 -179V-127Q193 -138 226 -138Q262 -138 262 -115Q262 -102 250.5 -97.5Q239 -93 222 -91L188 -89L207 -9Q132 -2 87 40.5Q42 83 42 163V551Q42 591 56 623.5Q70 656 95.5 678Q121 700 156 712Q191 724 232 724Q271 724 303 713Q335 702 358.5 681.5Q382 661 395 631.5Q408 602 408 565V486H307V553Q307 587 287.5 607.5Q268 628 232 628Q191 628 173 605Q155 582 155 547V170Q155 130 175.5 109Q196 88 233 88Q268 88 287.5 109Q307 130 307 162V229H408V156Q408 84 364.5 40.5Q321 -3 252 -9L243 -51Q258 -51 274.5 -53.5Q291 -56 304.5 -63Q318 -70 327 -81.5Q336 -93 336 -112Q336 -148 304.5 -168.5Q273 -189 231 -189Z" glyph-name="Ccedilla" horiz-adv-x="445" unicode="&#199;" /><glyph d="M232 -10Q148 -10 95 33.5Q42 77 42 163V551Q42 591 56 623.5Q70 656 95.5 678Q121 700 156 712Q191 724 232 724Q271 724 303 713Q335 702 358.5 681.5Q382 661 395 631.5Q408 602 408 565V486H307V553Q307 587 287.5 607.5Q268 628 232 628Q191 628 173 605Q155 582 155 547V170Q155 130 175.5 109Q196 88 233 88Q268 88 287.5 109Q307 130 307 162V229H408V156Q408 118 395 87Q382 56 358.5 34.5Q335 13 303 1.5Q271 -10 232 -10ZM184 913H261L344 765H261L220 846L180 765H100Z" glyph-name="Ccircumflex" horiz-adv-x="445" unicode="&#264;" /><glyph d="M183 904H272V772H183ZM232 -10Q148 -10 95 33.5Q42 77 42 163V551Q42 591 56 623.5Q70 656 95.5 678Q121 700 156 712Q191 724 232 724Q271 724 303 713Q335 702 358.5 681.5Q382 661 395 631.5Q408 602 408 565V486H307V553Q307 587 287.5 607.5Q268 628 232 628Q191 628 173 605Q155 582 155 547V170Q155 130 175.5 109Q196 88 233 88Q268 88 287.5 109Q307 130 307 162V229H408V156Q408 118 395 87Q382 56 358.5 34.5Q335 13 303 1.5Q271 -10 232 -10Z" glyph-name="Cdotaccent" horiz-adv-x="445" unicode="&#266;" /><glyph d="M227 96Q249 96 264 103Q279 110 288 121.5Q297 133 301 147.5Q305 162 305 176V541Q305 573 286.5 595.5Q268 618 227 618H162V96ZM51 713H238Q276 713 309 703Q342 693 366 673Q390 653 404 623Q418 593 418 552V171Q418 127 404 95Q390 63 365.5 42Q341 21 308 10.5Q275 0 237 0H51Z" glyph-name="D" horiz-adv-x="460" unicode="D" /><glyph glyph-name="DEL" horiz-adv-x="0" /><glyph d="M227 96Q249 96 264 103Q279 110 288 121.5Q297 133 301 147.5Q305 162 305 176V541Q305 573 286.5 595.5Q268 618 227 618H162V96ZM51 713H238Q276 713 309 703Q342 693 366 673Q390 653 404 623Q418 593 418 552V171Q418 127 404 95Q390 63 365.5 42Q341 21 308 10.5Q275 0 237 0H51ZM96 916H180L220 835L261 916H342L257 767H180Z" glyph-name="Dcaron" horiz-adv-x="460" unicode="&#270;" /><glyph d="M240 96Q262 96 277 103Q292 110 301 121.5Q310 133 314 147.5Q318 162 318 176V541Q318 573 299.5 595.5Q281 618 240 618H175V408H276V336H175V96ZM22 408H64V713H251Q289 713 322 703Q355 693 379 673Q403 653 417 623Q431 593 431 552V171Q431 127 417 95Q403 63 378.5 42Q354 21 321 10.5Q288 0 250 0H64V336H22Z" glyph-name="Dcroat" horiz-adv-x="473" unicode="&#272;" /><glyph d="M340 97 240 590H237L140 97ZM26 68 171 715H316L461 68V0H26Z" glyph-name="Delta" horiz-adv-x="479" unicode="&#8710;" /><glyph d="M51 713H363V619H162V417H323V322H162V96H364V0H51Z" glyph-name="E" horiz-adv-x="398" unicode="E" /><glyph d="M51 713H363V619H162V417H323V322H162V96H364V0H51ZM232 910H339L241 764H164Z" glyph-name="Eacute" horiz-adv-x="398" unicode="&#201;" /><glyph d="M209 766Q149 766 115 800.5Q81 835 80 904H151Q155 872 166 851Q177 830 212 830Q240 830 252.5 849.5Q265 869 266 904H335Q333 832 297 799Q261 766 209 766ZM51 713H363V619H162V417H323V322H162V96H364V0H51Z" glyph-name="Ebreve" horiz-adv-x="398" unicode="&#276;" /><glyph d="M51 713H363V619H162V417H323V322H162V96H364V0H51ZM75 916H159L199 835L240 916H321L236 767H159Z" glyph-name="Ecaron" horiz-adv-x="398" unicode="&#282;" /><glyph d="M51 713H363V619H162V417H323V322H162V96H364V0H51ZM162 913H239L322 765H239L198 846L158 765H78Z" glyph-name="Ecircumflex" horiz-adv-x="398" unicode="&#202;" /><glyph d="M51 713H363V619H162V417H323V322H162V96H364V0H51ZM243 903H327V772H243ZM101 903H185V772H101Z" glyph-name="Edieresis" horiz-adv-x="398" unicode="&#203;" /><glyph d="M160 904H249V772H160ZM51 713H363V619H162V417H323V322H162V96H364V0H51Z" glyph-name="Edotaccent" horiz-adv-x="398" unicode="&#278;" /><glyph d="M88 910H195L263 764H186ZM51 713H363V619H162V417H323V322H162V96H364V0H51Z" glyph-name="Egrave" horiz-adv-x="398" unicode="&#200;" /><glyph d="M103 855H318V778H103ZM51 713H363V619H162V417H323V322H162V96H364V0H51Z" glyph-name="Emacron" horiz-adv-x="398" unicode="&#274;" /><glyph d="M323 -169Q309 -169 298 -168Q287 -167 275 -165V-83Q277 -84 285 -84Q293 -84 296 -84Q316 -84 323.5 -72.5Q331 -61 331 -40V5L152 487H150V0H51V713H167L334 271H336V713H435V-54Q435 -108 405 -138.5Q375 -169 323 -169Z" glyph-name="Eng" horiz-adv-x="485" unicode="&#330;" /><glyph d="M51 713H363V619H162V417H323V322H162V96H364V0H358Q326 -14 311 -35Q296 -56 296 -82Q296 -105 309 -116Q322 -127 340 -127Q354 -127 366.5 -122.5Q379 -118 390 -111L418 -164Q402 -175 380.5 -184Q359 -193 327 -193Q287 -193 257.5 -172Q228 -151 228 -105Q228 -72 242.5 -45.5Q257 -19 279 0H51Z" glyph-name="Eogonek" horiz-adv-x="398" unicode="&#280;" /><glyph d="M240 96Q262 96 277 103Q292 110 301 121.5Q310 133 314 147.5Q318 162 318 176V541Q318 573 299.5 595.5Q281 618 240 618H175V408H276V336H175V96ZM22 408H64V713H251Q289 713 322 703Q355 693 379 673Q403 653 417 623Q431 593 431 552V171Q431 127 417 95Q403 63 378.5 42Q354 21 321 10.5Q288 0 250 0H64V336H22Z" glyph-name="Eth" horiz-adv-x="473" unicode="&#208;" /><glyph d="M264 -11Q223 -11 189 0Q155 11 130.5 32.5Q106 54 92.5 85Q79 116 79 157V258H29V324H79V394H29V458H79V554Q79 592 93 623.5Q107 655 131.5 677.5Q156 700 190 712.5Q224 725 265 725Q304 725 336 714Q368 703 391 682.5Q414 662 426.5 633Q439 604 439 567V501H338V561Q338 594 319 613.5Q300 633 263 633Q225 633 208.5 610Q192 587 192 555V458H327V394H192V324H327V258H192V163Q192 125 211.5 103.5Q231 82 267 82Q304 82 321 103.5Q338 125 338 157V210H439V153Q439 115 426 84.5Q413 54 390 33Q367 12 335 0.5Q303 -11 264 -11Z" glyph-name="Euro" horiz-adv-x="469" unicode="&#8364;" /><glyph d="M51 713H363V619H162V414H322V318H162V0H51Z" glyph-name="F" horiz-adv-x="389" unicode="F" /><glyph d="M233 -10Q191 -10 156 1Q121 12 95.5 34Q70 56 56 88.5Q42 121 42 164V550Q42 591 56 623.5Q70 656 95.5 678.5Q121 701 156 713Q191 725 232 725Q271 725 304 714Q337 703 361 682.5Q385 662 399 633Q413 604 413 567V491H311V557Q311 591 289.5 610.5Q268 630 233 630Q192 630 173.5 606Q155 582 155 546V169Q155 131 175 109Q195 87 233 87Q274 87 290.5 108Q307 129 307 161V290H223V376H414V154Q414 78 366 34Q318 -10 233 -10Z" glyph-name="G" horiz-adv-x="455" unicode="G" /><glyph d="M233 766Q173 766 139 800.5Q105 835 104 904H175Q179 872 190 851Q201 830 236 830Q264 830 276.5 849.5Q289 869 290 904H359Q357 832 321 799Q285 766 233 766ZM233 -10Q191 -10 156 1Q121 12 95.5 34Q70 56 56 88.5Q42 121 42 164V550Q42 591 56 623.5Q70 656 95.5 678.5Q121 701 156 713Q191 725 232 725Q271 725 304 714Q337 703 361 682.5Q385 662 399 633Q413 604 413 567V491H311V557Q311 591 289.5 610.5Q268 630 233 630Q192 630 173.5 606Q155 582 155 546V169Q155 131 175 109Q195 87 233 87Q274 87 290.5 108Q307 129 307 161V290H223V376H414V154Q414 78 366 34Q318 -10 233 -10Z" glyph-name="Gbreve" horiz-adv-x="455" unicode="&#286;" /><glyph d="M233 -10Q191 -10 156 1Q121 12 95.5 34Q70 56 56 88.5Q42 121 42 164V550Q42 591 56 623.5Q70 656 95.5 678.5Q121 701 156 713Q191 725 232 725Q271 725 304 714Q337 703 361 682.5Q385 662 399 633Q413 604 413 567V491H311V557Q311 591 289.5 610.5Q268 630 233 630Q192 630 173.5 606Q155 582 155 546V169Q155 131 175 109Q195 87 233 87Q274 87 290.5 108Q307 129 307 161V290H223V376H414V154Q414 78 366 34Q318 -10 233 -10ZM189 913H266L349 765H266L225 846L185 765H105Z" glyph-name="Gcircumflex" horiz-adv-x="455" unicode="&#284;" /><glyph d="M233 -10Q191 -10 156 1Q121 12 95.5 34Q70 56 56 88.5Q42 121 42 164V550Q42 591 56 623.5Q70 656 95.5 678.5Q121 701 156 713Q191 725 232 725Q271 725 304 714Q337 703 361 682.5Q385 662 399 633Q413 604 413 567V491H311V557Q311 591 289.5 610.5Q268 630 233 630Q192 630 173.5 606Q155 582 155 546V169Q155 131 175 109Q195 87 233 87Q274 87 290.5 108Q307 129 307 161V290H223V376H414V154Q414 78 366 34Q318 -10 233 -10ZM192 -36H286L257 -183H185Z" glyph-name="Gcommaaccent" horiz-adv-x="455" unicode="&#290;" /><glyph d="M187 904H276V772H187ZM233 -10Q191 -10 156 1Q121 12 95.5 34Q70 56 56 88.5Q42 121 42 164V550Q42 591 56 623.5Q70 656 95.5 678.5Q121 701 156 713Q191 725 232 725Q271 725 304 714Q337 703 361 682.5Q385 662 399 633Q413 604 413 567V491H311V557Q311 591 289.5 610.5Q268 630 233 630Q192 630 173.5 606Q155 582 155 546V169Q155 131 175 109Q195 87 233 87Q274 87 290.5 108Q307 129 307 161V290H223V376H414V154Q414 78 366 34Q318 -10 233 -10Z" glyph-name="Gdotaccent" horiz-adv-x="455" unicode="&#288;" /><glyph d="M51 713H163V414H313V713H424V0H313V312H163V0H51Z" glyph-name="H" horiz-adv-x="475" unicode="H" /><glyph d="M326 414V557H176V414ZM19 613H64V713H176V613H326V713H437V613H483V557H437V0H326V312H176V0H64V557H19Z" glyph-name="Hbar" horiz-adv-x="502" unicode="&#294;" /><glyph d="M51 713H163V414H313V713H424V0H313V312H163V0H51ZM199 913H276L359 765H276L235 846L195 765H115Z" glyph-name="Hcircumflex" horiz-adv-x="475" unicode="&#292;" /><glyph d="M51 713H163V0H51Z" glyph-name="I" horiz-adv-x="213" unicode="I" /><glyph d="M35 95H127V618H35V713H331V618H239V95H331V0H35Z" glyph-name="I.alt" horiz-adv-x="366" unicode="&#58504;" /><glyph d="M396 -11Q311 -11 266 32.5Q221 76 221 160V263H327V160Q327 131 341 108.5Q355 86 395 86Q433 86 447 108.5Q461 131 461 161V713H573V168Q573 86 527 37.5Q481 -11 396 -11ZM51 713H163V0H51Z" glyph-name="IJ" horiz-adv-x="620" unicode="&#306;" /><glyph d="M522 -11Q437 -11 392 32.5Q347 76 347 160V263H453V160Q453 131 467 108.5Q481 86 521 86Q559 86 573 108.5Q587 131 587 161V713H699V168Q699 86 653 37.5Q607 -11 522 -11ZM35 95H127V618H35V713H331V618H239V95H331V0H35Z" glyph-name="IJ.alt" horiz-adv-x="746" /><glyph d="M134 910H241L143 764H66ZM51 713H163V0H51Z" glyph-name="Iacute" horiz-adv-x="213" unicode="&#205;" /><glyph d="M210 910H317L219 764H142ZM35 95H127V618H35V713H331V618H239V95H331V0H35Z" glyph-name="Iacute.alt" horiz-adv-x="366" unicode="&#57651;" /><glyph d="M109 766Q49 766 15 800.5Q-19 835 -20 904H51Q55 872 66 851Q77 830 112 830Q140 830 152.5 849.5Q165 869 166 904H235Q233 832 197 799Q161 766 109 766ZM51 713H163V0H51Z" glyph-name="Ibreve" horiz-adv-x="213" unicode="&#300;" /><glyph d="M185 766Q125 766 91 800.5Q57 835 56 904H127Q131 872 142 851Q153 830 188 830Q216 830 228.5 849.5Q241 869 242 904H311Q309 832 273 799Q237 766 185 766ZM35 95H127V618H35V713H331V618H239V95H331V0H35Z" glyph-name="Ibreve.alt" horiz-adv-x="366" unicode="&#57657;" /><glyph d="M69 913H146L229 765H146L105 846L65 765H-15ZM51 713H163V0H51Z" glyph-name="Icircumflex" horiz-adv-x="213" unicode="&#206;" /><glyph d="M145 913H222L305 765H222L181 846L141 765H61ZM35 95H127V618H35V713H331V618H239V95H331V0H35Z" glyph-name="Icircumflex.alt" horiz-adv-x="366" unicode="&#57652;" /><glyph d="M136 903H220V772H136ZM-6 903H78V772H-6ZM51 713H163V0H51Z" glyph-name="Idieresis" horiz-adv-x="213" unicode="&#207;" /><glyph d="M212 903H296V772H212ZM70 903H154V772H70ZM35 95H127V618H35V713H331V618H239V95H331V0H35Z" glyph-name="Idieresis.alt" horiz-adv-x="366" unicode="&#57653;" /><glyph d="M63 904H152V772H63ZM51 713H163V0H51Z" glyph-name="Idotaccent" horiz-adv-x="213" unicode="&#304;" /><glyph d="M139 904H228V772H139ZM35 95H127V618H35V713H331V618H239V95H331V0H35Z" glyph-name="Idotaccent.alt" horiz-adv-x="366" unicode="&#57660;" /><glyph d="M-30 910H77L145 764H68ZM51 713H163V0H51Z" glyph-name="Igrave" horiz-adv-x="213" unicode="&#204;" /><glyph d="M35 95H127V618H35V713H331V618H239V95H331V0H35ZM46 910H153L221 764H144Z" glyph-name="Igrave.alt" horiz-adv-x="366" unicode="&#57650;" /><glyph d="M0 855H215V778H0ZM51 713H163V0H51Z" glyph-name="Imacron" horiz-adv-x="213" unicode="&#298;" /><glyph d="M76 855H291V778H76ZM35 95H127V618H35V713H331V618H239V95H331V0H35Z" glyph-name="Imacron.alt" horiz-adv-x="366" unicode="&#57656;" /><glyph d="M51 713H163V4H164Q163 3 163 3V0H156Q130 -14 115.5 -35.5Q101 -57 101 -82Q101 -105 112.5 -115Q124 -125 142 -125Q150 -125 160.5 -122Q171 -119 182 -113L208 -169Q173 -192 126 -192Q89 -192 61 -170.5Q33 -149 33 -103Q33 -71 47 -45Q61 -19 81 0H51Z" glyph-name="Iogonek" horiz-adv-x="213" unicode="&#302;" /><glyph d="M35 95H127V618H35V713H331V618H239V95H331V0H232Q206 -14 191.5 -35.5Q177 -57 177 -82Q177 -105 188.5 -115Q200 -125 218 -125Q226 -125 236.5 -122Q247 -119 258 -113L284 -169Q249 -192 202 -192Q165 -192 137 -170.5Q109 -149 109 -103Q109 -71 123 -45Q137 -19 157 0H35Z" glyph-name="Iogonek.alt" horiz-adv-x="366" unicode="&#57662;" /><glyph d="M-37 781Q-31 823 -9.5 853.5Q12 884 48 884Q63 884 78 879.5Q93 875 107.5 869.5Q122 864 136.5 859.5Q151 855 165 855Q179 855 186.5 864.5Q194 874 200 892L252 879Q249 859 242.5 840.5Q236 822 225 808Q214 794 199.5 785.5Q185 777 166 777Q152 777 136.5 781.5Q121 786 106 791.5Q91 797 77.5 801.5Q64 806 52 806Q38 806 30.5 798Q23 790 18 769ZM51 713H163V0H51Z" glyph-name="Itilde" horiz-adv-x="213" unicode="&#296;" /><glyph d="M39 781Q45 823 66.5 853.5Q88 884 124 884Q139 884 154 879.5Q169 875 183.5 869.5Q198 864 212.5 859.5Q227 855 241 855Q255 855 262.5 864.5Q270 874 276 892L328 879Q325 859 318.5 840.5Q312 822 301 808Q290 794 275.5 785.5Q261 777 242 777Q228 777 212.5 781.5Q197 786 182 791.5Q167 797 153.5 801.5Q140 806 128 806Q114 806 106.5 798Q99 790 94 769ZM35 95H127V618H35V713H331V618H239V95H331V0H35Z" glyph-name="Itilde.alt" horiz-adv-x="366" unicode="&#57654;" /><glyph d="M208 -11Q123 -11 78 32.5Q33 76 33 160V263H139V160Q139 131 153 108.5Q167 86 207 86Q245 86 259 108.5Q273 131 273 161V713H385V168Q385 86 339 37.5Q293 -11 208 -11Z" glyph-name="J" horiz-adv-x="432" unicode="J" /><glyph d="M208 -11Q123 -11 78 32.5Q33 76 33 160V263H139V160Q139 131 153 108.5Q167 86 207 86Q245 86 259 108.5Q273 131 273 161V713H385V168Q385 86 339 37.5Q293 -11 208 -11ZM265 913H342L425 765H342L301 846L261 765H181Z" glyph-name="Jcircumflex" horiz-adv-x="432" unicode="&#308;" /><glyph d="M51 713H163V380L320 713H431L298 438L433 0H313L216 341L163 241V0H51Z" glyph-name="K" horiz-adv-x="454" unicode="K" /><glyph d="M51 713H163V380L320 713H431L298 438L433 0H313L216 341L163 241V0H51ZM188 -36H282L253 -183H181Z" glyph-name="Kcommaaccent" horiz-adv-x="454" unicode="&#310;" /><glyph d="M51 713H162V96H364V0H51Z" glyph-name="L" horiz-adv-x="388" unicode="L" /><glyph glyph-name="LF" horiz-adv-x="35" /><glyph d="M51 713H162V96H364V0H51ZM142 910H249L151 764H74Z" glyph-name="Lacute" horiz-adv-x="388" unicode="&#313;" /><glyph d="M51 713H162V96H364V0H51ZM220 713H306L275 540H215Z" glyph-name="Lcaron" horiz-adv-x="388" unicode="&#317;" /><glyph d="M51 713H162V96H364V0H51ZM174 -36H268L239 -183H167Z" glyph-name="Lcommaaccent" horiz-adv-x="388" unicode="&#315;" /><glyph d="M236 460H326V334H236ZM51 713H162V96H364V0H51Z" glyph-name="Ldot" horiz-adv-x="388" unicode="&#319;" /><glyph d="M22 338 67 372V713H178V457L270 528V447L178 376V96H380V0H67V291L22 257Z" glyph-name="Lslash" horiz-adv-x="404" unicode="&#321;" /><glyph d="M51 713H190L283 417H286L381 713H514V0H415V533H413L321 234H244L152 533H150V0H51Z" glyph-name="M" horiz-adv-x="565" unicode="M" /><glyph d="M51 713H167L334 271H336V713H435V0H333L152 487H150V0H51Z" glyph-name="N" horiz-adv-x="485" unicode="N" /><glyph d="M51 713H167L334 271H336V713H435V0H333L152 487H150V0H51ZM278 910H385L287 764H210Z" glyph-name="Nacute" horiz-adv-x="485" unicode="&#323;" /><glyph d="M51 713H167L334 271H336V713H435V0H333L152 487H150V0H51ZM119 916H203L243 835L284 916H365L280 767H203Z" glyph-name="Ncaron" horiz-adv-x="485" unicode="&#327;" /><glyph d="M51 713H167L334 271H336V713H435V0H333L152 487H150V0H51ZM199 -36H293L264 -183H192Z" glyph-name="Ncommaaccent" horiz-adv-x="485" unicode="&#325;" /><glyph d="M106 781Q112 823 133.5 853.5Q155 884 191 884Q206 884 221 879.5Q236 875 250.5 869.5Q265 864 279.5 859.5Q294 855 308 855Q322 855 329.5 864.5Q337 874 343 892L395 879Q392 859 385.5 840.5Q379 822 368 808Q357 794 342.5 785.5Q328 777 309 777Q295 777 279.5 781.5Q264 786 249 791.5Q234 797 220.5 801.5Q207 806 195 806Q181 806 173.5 798Q166 790 161 769ZM51 713H167L334 271H336V713H435V0H333L152 487H150V0H51Z" glyph-name="Ntilde" horiz-adv-x="485" unicode="&#209;" /><glyph d="M233 89Q273 89 291.5 112.5Q310 136 310 170V550Q310 585 289.5 606Q269 627 232 627Q194 627 175 604.5Q156 582 156 548V170Q156 136 175 112.5Q194 89 233 89ZM232 -10Q147 -10 94.5 35Q42 80 42 172V542Q42 587 56.5 621Q71 655 96.5 678Q122 701 157 712.5Q192 724 233 724Q273 724 307.5 713.5Q342 703 367.5 681.5Q393 660 408 626.5Q423 593 423 548V175Q423 128 408 93.5Q393 59 367.5 36Q342 13 307 1.5Q272 -10 232 -10Z" glyph-name="O" horiz-adv-x="465" unicode="O" /><glyph d="M234 90Q273 90 292 114Q311 138 311 172V549Q311 584 290 604.5Q269 625 232 625Q194 625 175 603Q156 581 156 546V172Q156 137 175.5 113.5Q195 90 234 90ZM216 -8Q131 -8 86.5 36Q42 80 42 174V541Q42 631 90 677Q138 723 219 723Q245 723 270.5 714Q296 705 312 688V713H624V619H423V417H584V321H423V96H626V0H312V31Q298 14 271.5 3Q245 -8 216 -8Z" glyph-name="OE" horiz-adv-x="660" unicode="&#338;" /><glyph d="M233 89Q273 89 291.5 112.5Q310 136 310 170V550Q310 585 289.5 606Q269 627 232 627Q194 627 175 604.5Q156 582 156 548V170Q156 136 175 112.5Q194 89 233 89ZM232 -10Q147 -10 94.5 35Q42 80 42 172V542Q42 587 56.5 621Q71 655 96.5 678Q122 701 157 712.5Q192 724 233 724Q273 724 307.5 713.5Q342 703 367.5 681.5Q393 660 408 626.5Q423 593 423 548V175Q423 128 408 93.5Q393 59 367.5 36Q342 13 307 1.5Q272 -10 232 -10ZM263 910H370L272 764H195Z" glyph-name="Oacute" horiz-adv-x="465" unicode="&#211;" /><glyph d="M234 766Q174 766 140 800.5Q106 835 105 904H176Q180 872 191 851Q202 830 237 830Q265 830 277.5 849.5Q290 869 291 904H360Q358 832 322 799Q286 766 234 766ZM233 89Q273 89 291.5 112.5Q310 136 310 170V550Q310 585 289.5 606Q269 627 232 627Q194 627 175 604.5Q156 582 156 548V170Q156 136 175 112.5Q194 89 233 89ZM232 -10Q147 -10 94.5 35Q42 80 42 172V542Q42 587 56.5 621Q71 655 96.5 678Q122 701 157 712.5Q192 724 233 724Q273 724 307.5 713.5Q342 703 367.5 681.5Q393 660 408 626.5Q423 593 423 548V175Q423 128 408 93.5Q393 59 367.5 36Q342 13 307 1.5Q272 -10 232 -10Z" glyph-name="Obreve" horiz-adv-x="465" unicode="&#334;" /><glyph d="M233 89Q273 89 291.5 112.5Q310 136 310 170V550Q310 585 289.5 606Q269 627 232 627Q194 627 175 604.5Q156 582 156 548V170Q156 136 175 112.5Q194 89 233 89ZM232 -10Q147 -10 94.5 35Q42 80 42 172V542Q42 587 56.5 621Q71 655 96.5 678Q122 701 157 712.5Q192 724 233 724Q273 724 307.5 713.5Q342 703 367.5 681.5Q393 660 408 626.5Q423 593 423 548V175Q423 128 408 93.5Q393 59 367.5 36Q342 13 307 1.5Q272 -10 232 -10ZM193 913H270L353 765H270L229 846L189 765H109Z" glyph-name="Ocircumflex" horiz-adv-x="465" unicode="&#212;" /><glyph d="M233 89Q273 89 291.5 112.5Q310 136 310 170V550Q310 585 289.5 606Q269 627 232 627Q194 627 175 604.5Q156 582 156 548V170Q156 136 175 112.5Q194 89 233 89ZM232 -10Q147 -10 94.5 35Q42 80 42 172V542Q42 587 56.5 621Q71 655 96.5 678Q122 701 157 712.5Q192 724 233 724Q273 724 307.5 713.5Q342 703 367.5 681.5Q393 660 408 626.5Q423 593 423 548V175Q423 128 408 93.5Q393 59 367.5 36Q342 13 307 1.5Q272 -10 232 -10ZM260 903H344V772H260ZM118 903H202V772H118Z" glyph-name="Odieresis" horiz-adv-x="465" unicode="&#214;" /><glyph d="M101 910H208L276 764H199ZM233 89Q273 89 291.5 112.5Q310 136 310 170V550Q310 585 289.5 606Q269 627 232 627Q194 627 175 604.5Q156 582 156 548V170Q156 136 175 112.5Q194 89 233 89ZM232 -10Q147 -10 94.5 35Q42 80 42 172V542Q42 587 56.5 621Q71 655 96.5 678Q122 701 157 712.5Q192 724 233 724Q273 724 307.5 713.5Q342 703 367.5 681.5Q393 660 408 626.5Q423 593 423 548V175Q423 128 408 93.5Q393 59 367.5 36Q342 13 307 1.5Q272 -10 232 -10Z" glyph-name="Ograve" horiz-adv-x="465" unicode="&#210;" /><glyph d="M233 89Q273 89 291.5 112.5Q310 136 310 170V550Q310 585 289.5 606Q269 627 232 627Q194 627 175 604.5Q156 582 156 548V170Q156 136 175 112.5Q194 89 233 89ZM232 -10Q147 -10 94.5 35Q42 80 42 172V542Q42 587 56.5 621Q71 655 96.5 678Q122 701 157 712.5Q192 724 233 724Q273 724 307.5 713.5Q342 703 367.5 681.5Q393 660 408 626.5Q423 593 423 548V175Q423 128 408 93.5Q393 59 367.5 36Q342 13 307 1.5Q272 -10 232 -10ZM296 904H385L316 766H243ZM158 904H248L182 766H108Z" glyph-name="Ohungarumlaut" horiz-adv-x="465" unicode="&#336;" /><glyph d="M233 89Q273 89 291.5 112.5Q310 136 310 170V550Q310 585 289.5 606Q269 627 232 627Q194 627 175 604.5Q156 582 156 548V170Q156 136 175 112.5Q194 89 233 89ZM232 -10Q147 -10 94.5 35Q42 80 42 172V542Q42 587 56.5 621Q71 655 96.5 678Q122 701 157 712.5Q192 724 233 724Q273 724 307.5 713.5Q342 703 367.5 681.5Q393 660 408 626.5Q423 593 423 548V175Q423 128 408 93.5Q393 59 367.5 36Q342 13 307 1.5Q272 -10 232 -10ZM125 855H340V778H125Z" glyph-name="Omacron" horiz-adv-x="465" unicode="&#332;" /><glyph d="M39 99 147 95V103Q126 122 106 146.5Q86 171 71 203Q56 235 46.5 276.5Q37 318 37 370V510Q37 615 88 669.5Q139 724 233 724Q331 724 380 667.5Q429 611 429 514V371Q429 318 418.5 274.5Q408 231 391.5 197.5Q375 164 356 140Q337 116 320 103V95L427 99V0H254V93Q266 114 277 138Q288 162 296 193Q304 224 308.5 264.5Q313 305 313 359V527Q313 570 293 597.5Q273 625 232 625Q194 625 173 599Q152 573 152 522V361Q152 306 156 266Q160 226 168 195.5Q176 165 187 140.5Q198 116 213 93V0H39Z" glyph-name="Omega" horiz-adv-x="466" unicode="&#8486;" /><glyph d="M233 89Q273 89 291.5 112.5Q310 136 310 170V495L175 112Q195 89 233 89ZM156 212 293 601Q272 627 232 627Q194 627 175 604.5Q156 582 156 548ZM69 -33 93 36Q69 59 55.5 92.5Q42 126 42 172V542Q42 587 56.5 621Q71 655 96.5 678Q122 701 157 712.5Q192 724 233 724Q289 724 330 705L350 760L399 747L374 676Q397 654 410 622.5Q423 591 423 548V175Q423 128 408 93.5Q393 59 367.5 36Q342 13 307 1.5Q272 -10 232 -10Q180 -10 138 7L119 -47Z" glyph-name="Oslash" horiz-adv-x="465" unicode="&#216;" /><glyph d="M263 910H370L272 764H195ZM233 89Q273 89 291.5 112.5Q310 136 310 170V495L175 112Q195 89 233 89ZM156 212 293 601Q272 627 232 627Q194 627 175 604.5Q156 582 156 548ZM69 -33 93 36Q69 59 55.5 92.5Q42 126 42 172V542Q42 587 56.5 621Q71 655 96.5 678Q122 701 157 712.5Q192 724 233 724Q289 724 330 705L350 760L399 747L374 676Q397 654 410 622.5Q423 591 423 548V175Q423 128 408 93.5Q393 59 367.5 36Q342 13 307 1.5Q272 -10 232 -10Q180 -10 138 7L119 -47Z" glyph-name="Oslashacute" horiz-adv-x="465" unicode="&#510;" /><glyph d="M85 781Q91 823 112.5 853.5Q134 884 170 884Q185 884 200 879.5Q215 875 229.5 869.5Q244 864 258.5 859.5Q273 855 287 855Q301 855 308.5 864.5Q316 874 322 892L374 879Q371 859 364.5 840.5Q358 822 347 808Q336 794 321.5 785.5Q307 777 288 777Q274 777 258.5 781.5Q243 786 228 791.5Q213 797 199.5 801.5Q186 806 174 806Q160 806 152.5 798Q145 790 140 769ZM233 89Q273 89 291.5 112.5Q310 136 310 170V550Q310 585 289.5 606Q269 627 232 627Q194 627 175 604.5Q156 582 156 548V170Q156 136 175 112.5Q194 89 233 89ZM232 -10Q147 -10 94.5 35Q42 80 42 172V542Q42 587 56.5 621Q71 655 96.5 678Q122 701 157 712.5Q192 724 233 724Q273 724 307.5 713.5Q342 703 367.5 681.5Q393 660 408 626.5Q423 593 423 548V175Q423 128 408 93.5Q393 59 367.5 36Q342 13 307 1.5Q272 -10 232 -10Z" glyph-name="Otilde" horiz-adv-x="465" unicode="&#213;" /><glyph d="M217 366Q297 366 297 499Q297 556 280 587.5Q263 619 221 619H163V366ZM51 713H238Q326 713 366.5 657Q407 601 407 501Q407 397 365 335.5Q323 274 232 274H163V0H51Z" glyph-name="P" horiz-adv-x="443" unicode="P" /><glyph d="M234 89Q273 89 292 112.5Q311 136 311 170V550Q311 585 290 606Q269 627 232 627Q194 627 175 604.5Q156 582 156 548V170Q156 136 175.5 112.5Q195 89 234 89ZM274 -5Q254 -10 232 -10Q147 -10 94.5 35Q42 80 42 172V542Q42 587 56.5 621Q71 655 97 678Q123 701 158 712.5Q193 724 234 724Q274 724 308.5 713.5Q343 703 368.5 681.5Q394 660 409 626.5Q424 593 424 548V175Q424 134 411.5 103Q399 72 377 52L449 4L380 -83Z" glyph-name="Q" horiz-adv-x="465" unicode="Q" /><glyph d="M225 381Q301 381 301 500Q301 552 283.5 585.5Q266 619 223 619H163V381ZM51 713H232Q320 713 366.5 662Q413 611 413 509Q413 432 389 385.5Q365 339 323 322L421 0H305L222 297H163V0H51Z" glyph-name="R" horiz-adv-x="454" unicode="R" /><glyph glyph-name="RS" horiz-adv-x="35" /><glyph d="M225 381Q301 381 301 500Q301 552 283.5 585.5Q266 619 223 619H163V381ZM51 713H232Q320 713 366.5 662Q413 611 413 509Q413 432 389 385.5Q365 339 323 322L421 0H305L222 297H163V0H51ZM228 910H335L237 764H160Z" glyph-name="Racute" horiz-adv-x="454" unicode="&#340;" /><glyph d="M225 381Q301 381 301 500Q301 552 283.5 585.5Q266 619 223 619H163V381ZM51 713H232Q320 713 366.5 662Q413 611 413 509Q413 432 389 385.5Q365 339 323 322L421 0H305L222 297H163V0H51ZM96 916H180L220 835L261 916H342L257 767H180Z" glyph-name="Rcaron" horiz-adv-x="454" unicode="&#344;" /><glyph d="M225 381Q301 381 301 500Q301 552 283.5 585.5Q266 619 223 619H163V381ZM51 713H232Q320 713 366.5 662Q413 611 413 509Q413 432 389 385.5Q365 339 323 322L421 0H305L222 297H163V0H51ZM183 -36H277L248 -183H176Z" glyph-name="Rcommaaccent" horiz-adv-x="454" unicode="&#342;" /><glyph d="M210 -10Q129 -10 82.5 40.5Q36 91 31 182L135 185Q137 165 141.5 146Q146 127 154.5 112.5Q163 98 177 89.5Q191 81 211 81Q229 81 241.5 88.5Q254 96 261.5 107.5Q269 119 272.5 134Q276 149 276 164Q276 196 259 225Q242 254 211 285L136 366Q92 409 67 454Q42 499 42 553Q42 588 52.5 619.5Q63 651 84.5 674.5Q106 698 138 711.5Q170 725 213 725Q245 725 273.5 716Q302 707 324 685Q346 663 360 627.5Q374 592 377 540L278 537Q273 582 257.5 608.5Q242 635 208 635Q177 635 161 615Q145 595 145 561Q145 546 151.5 531Q158 516 168 501.5Q178 487 191 472.5Q204 458 217 444L286 372Q334 324 359 276Q384 228 384 170Q384 131 372.5 98Q361 65 338.5 41Q316 17 283.5 3.5Q251 -10 210 -10Z" glyph-name="S" horiz-adv-x="414" unicode="S" /><glyph d="M210 -10Q129 -10 82.5 40.5Q36 91 31 182L135 185Q137 165 141.5 146Q146 127 154.5 112.5Q163 98 177 89.5Q191 81 211 81Q229 81 241.5 88.5Q254 96 261.5 107.5Q269 119 272.5 134Q276 149 276 164Q276 196 259 225Q242 254 211 285L136 366Q92 409 67 454Q42 499 42 553Q42 588 52.5 619.5Q63 651 84.5 674.5Q106 698 138 711.5Q170 725 213 725Q245 725 273.5 716Q302 707 324 685Q346 663 360 627.5Q374 592 377 540L278 537Q273 582 257.5 608.5Q242 635 208 635Q177 635 161 615Q145 595 145 561Q145 546 151.5 531Q158 516 168 501.5Q178 487 191 472.5Q204 458 217 444L286 372Q334 324 359 276Q384 228 384 170Q384 131 372.5 98Q361 65 338.5 41Q316 17 283.5 3.5Q251 -10 210 -10ZM236 910H343L245 764H168Z" glyph-name="Sacute" horiz-adv-x="414" unicode="&#346;" /><glyph d="M210 -10Q129 -10 82.5 40.5Q36 91 31 182L135 185Q137 165 141.5 146Q146 127 154.5 112.5Q163 98 177 89.5Q191 81 211 81Q229 81 241.5 88.5Q254 96 261.5 107.5Q269 119 272.5 134Q276 149 276 164Q276 196 259 225Q242 254 211 285L136 366Q92 409 67 454Q42 499 42 553Q42 588 52.5 619.5Q63 651 84.5 674.5Q106 698 138 711.5Q170 725 213 725Q245 725 273.5 716Q302 707 324 685Q346 663 360 627.5Q374 592 377 540L278 537Q273 582 257.5 608.5Q242 635 208 635Q177 635 161 615Q145 595 145 561Q145 546 151.5 531Q158 516 168 501.5Q178 487 191 472.5Q204 458 217 444L286 372Q334 324 359 276Q384 228 384 170Q384 131 372.5 98Q361 65 338.5 41Q316 17 283.5 3.5Q251 -10 210 -10ZM80 916H164L204 835L245 916H326L241 767H164Z" glyph-name="Scaron" horiz-adv-x="414" unicode="&#352;" /><glyph d="M217 -189Q201 -189 180 -187Q159 -185 138 -179V-127Q179 -138 212 -138Q248 -138 248 -115Q248 -102 236.5 -97.5Q225 -93 208 -91L174 -89L192 -9Q119 -4 77.5 45.5Q36 95 31 182L135 185Q137 165 141.5 146Q146 127 154.5 112.5Q163 98 177 89.5Q191 81 211 81Q229 81 241.5 88.5Q254 96 261.5 107.5Q269 119 272.5 134Q276 149 276 164Q276 196 259 225Q242 254 211 285L136 366Q92 409 67 454Q42 499 42 553Q42 588 52.5 619.5Q63 651 84.5 674.5Q106 698 138 711.5Q170 725 213 725Q245 725 273.5 716Q302 707 324 685Q346 663 360 627.5Q374 592 377 540L278 537Q273 582 257.5 608.5Q242 635 208 635Q177 635 161 615Q145 595 145 561Q145 546 151.5 531Q158 516 168 501.5Q178 487 191 472.5Q204 458 217 444L286 372Q334 324 359 276Q384 228 384 170Q384 99 346 50Q308 1 238 -8L229 -51Q244 -51 260.5 -53.5Q277 -56 290.5 -63Q304 -70 313 -81.5Q322 -93 322 -112Q322 -148 290.5 -168.5Q259 -189 217 -189Z" glyph-name="Scedilla" horiz-adv-x="414" unicode="&#350;" /><glyph d="M210 -10Q129 -10 82.5 40.5Q36 91 31 182L135 185Q137 165 141.5 146Q146 127 154.5 112.5Q163 98 177 89.5Q191 81 211 81Q229 81 241.5 88.5Q254 96 261.5 107.5Q269 119 272.5 134Q276 149 276 164Q276 196 259 225Q242 254 211 285L136 366Q92 409 67 454Q42 499 42 553Q42 588 52.5 619.5Q63 651 84.5 674.5Q106 698 138 711.5Q170 725 213 725Q245 725 273.5 716Q302 707 324 685Q346 663 360 627.5Q374 592 377 540L278 537Q273 582 257.5 608.5Q242 635 208 635Q177 635 161 615Q145 595 145 561Q145 546 151.5 531Q158 516 168 501.5Q178 487 191 472.5Q204 458 217 444L286 372Q334 324 359 276Q384 228 384 170Q384 131 372.5 98Q361 65 338.5 41Q316 17 283.5 3.5Q251 -10 210 -10ZM169 913H246L329 765H246L205 846L165 765H85Z" glyph-name="Scircumflex" horiz-adv-x="414" unicode="&#348;" /><glyph d="M210 -10Q129 -10 82.5 40.5Q36 91 31 182L135 185Q137 165 141.5 146Q146 127 154.5 112.5Q163 98 177 89.5Q191 81 211 81Q229 81 241.5 88.5Q254 96 261.5 107.5Q269 119 272.5 134Q276 149 276 164Q276 196 259 225Q242 254 211 285L136 366Q92 409 67 454Q42 499 42 553Q42 588 52.5 619.5Q63 651 84.5 674.5Q106 698 138 711.5Q170 725 213 725Q245 725 273.5 716Q302 707 324 685Q346 663 360 627.5Q374 592 377 540L278 537Q273 582 257.5 608.5Q242 635 208 635Q177 635 161 615Q145 595 145 561Q145 546 151.5 531Q158 516 168 501.5Q178 487 191 472.5Q204 458 217 444L286 372Q334 324 359 276Q384 228 384 170Q384 131 372.5 98Q361 65 338.5 41Q316 17 283.5 3.5Q251 -10 210 -10ZM174 -36H268L239 -183H167Z" glyph-name="Scommaaccent" horiz-adv-x="414" unicode="&#536;" /><glyph d="M156 618H20V713H402V618H268V0H156Z" glyph-name="T" horiz-adv-x="422" unicode="T" /><glyph d="M98 374H156V618H20V713H402V618H268V374H324V304H268V0H156V304H98Z" glyph-name="Tbar" horiz-adv-x="422" unicode="&#358;" /><glyph d="M156 618H20V713H402V618H268V0H156ZM87 916H171L211 835L252 916H333L248 767H171Z" glyph-name="Tcaron" horiz-adv-x="422" unicode="&#356;" /><glyph d="M156 618H20V713H402V618H268V0H156ZM168 -36H262L233 -183H161Z" glyph-name="Tcommaaccent" horiz-adv-x="422" unicode="&#354;" /><glyph d="M214 238Q295 238 295 368Q295 425 278 456Q261 487 219 487H158V238ZM46 713H158V578H236Q324 578 364.5 523.5Q405 469 405 371Q405 269 363 209Q321 149 230 149H158V0H46Z" glyph-name="Thorn" horiz-adv-x="436" unicode="&#222;" /><glyph d="M229 -11Q147 -11 97 32Q47 75 47 166V713H160V172Q160 128 182 108Q204 88 236 88Q274 88 292.5 111Q311 134 310 171V713H417V171Q417 128 403 94Q389 60 364 37Q339 14 304.5 1.5Q270 -11 229 -11Z" glyph-name="U" horiz-adv-x="464" unicode="U" /><glyph glyph-name="US" horiz-adv-x="33" /><glyph d="M229 -11Q147 -11 97 32Q47 75 47 166V713H160V172Q160 128 182 108Q204 88 236 88Q274 88 292.5 111Q311 134 310 171V713H417V171Q417 128 403 94Q389 60 364 37Q339 14 304.5 1.5Q270 -11 229 -11ZM266 910H373L275 764H198Z" glyph-name="Uacute" horiz-adv-x="464" unicode="&#218;" /><glyph d="M233 766Q173 766 139 800.5Q105 835 104 904H175Q179 872 190 851Q201 830 236 830Q264 830 276.5 849.5Q289 869 290 904H359Q357 832 321 799Q285 766 233 766ZM229 -11Q147 -11 97 32Q47 75 47 166V713H160V172Q160 128 182 108Q204 88 236 88Q274 88 292.5 111Q311 134 310 171V713H417V171Q417 128 403 94Q389 60 364 37Q339 14 304.5 1.5Q270 -11 229 -11Z" glyph-name="Ubreve" horiz-adv-x="464" unicode="&#364;" /><glyph d="M229 -11Q147 -11 97 32Q47 75 47 166V713H160V172Q160 128 182 108Q204 88 236 88Q274 88 292.5 111Q311 134 310 171V713H417V171Q417 128 403 94Q389 60 364 37Q339 14 304.5 1.5Q270 -11 229 -11ZM197 913H274L357 765H274L233 846L193 765H113Z" glyph-name="Ucircumflex" horiz-adv-x="464" unicode="&#219;" /><glyph d="M229 -11Q147 -11 97 32Q47 75 47 166V713H160V172Q160 128 182 108Q204 88 236 88Q274 88 292.5 111Q311 134 310 171V713H417V171Q417 128 403 94Q389 60 364 37Q339 14 304.5 1.5Q270 -11 229 -11ZM264 903H348V772H264ZM122 903H206V772H122Z" glyph-name="Udieresis" horiz-adv-x="464" unicode="&#220;" /><glyph d="M108 910H215L283 764H206ZM229 -11Q147 -11 97 32Q47 75 47 166V713H160V172Q160 128 182 108Q204 88 236 88Q274 88 292.5 111Q311 134 310 171V713H417V171Q417 128 403 94Q389 60 364 37Q339 14 304.5 1.5Q270 -11 229 -11Z" glyph-name="Ugrave" horiz-adv-x="464" unicode="&#217;" /><glyph d="M318 904H407L338 766H265ZM180 904H270L204 766H130ZM229 -11Q147 -11 97 32Q47 75 47 166V713H160V172Q160 128 182 108Q204 88 236 88Q274 88 292.5 111Q311 134 310 171V713H417V171Q417 128 403 94Q389 60 364 37Q339 14 304.5 1.5Q270 -11 229 -11Z" glyph-name="Uhungarumlaut" horiz-adv-x="464" unicode="&#368;" /><glyph d="M128 855H343V778H128ZM229 -11Q147 -11 97 32Q47 75 47 166V713H160V172Q160 128 182 108Q204 88 236 88Q274 88 292.5 111Q311 134 310 171V713H417V171Q417 128 403 94Q389 60 364 37Q339 14 304.5 1.5Q270 -11 229 -11Z" glyph-name="Umacron" horiz-adv-x="464" unicode="&#362;" /><glyph d="M229 -11Q147 -11 97 32Q47 75 47 166V713H160V172Q160 128 182 108Q204 88 236 88Q274 88 292.5 111Q311 134 310 171V713H417V171Q417 105 385.5 61.5Q354 18 301 0Q284 -15 274 -35.5Q264 -56 264 -82Q264 -105 277 -116Q290 -127 308 -127Q335 -127 358 -112L385 -166Q370 -177 348.5 -185Q327 -193 295 -193Q255 -193 225.5 -171Q196 -149 196 -102Q196 -74 206.5 -51Q217 -28 234 -11Z" glyph-name="Uogonek" horiz-adv-x="464" unicode="&#370;" /><glyph d="M229 -11Q147 -11 97 32Q47 75 47 166V713H160V172Q160 128 182 108Q204 88 236 88Q274 88 292.5 111Q311 134 310 171V713H417V171Q417 128 403 94Q389 60 364 37Q339 14 304.5 1.5Q270 -11 229 -11ZM232 799Q252 799 263.5 812Q275 825 275 845Q275 865 264 878.5Q253 892 231 892Q211 892 200.5 879Q190 866 190 845Q190 824 202 811.5Q214 799 232 799ZM231 757Q191 757 167 781.5Q143 806 143 843Q143 881 168 907.5Q193 934 232 934Q273 934 296.5 909.5Q320 885 320 847Q320 828 313 811.5Q306 795 294 783Q282 771 266 764Q250 757 231 757Z" glyph-name="Uring" horiz-adv-x="464" unicode="&#366;" /><glyph d="M92 781Q98 823 119.5 853.5Q141 884 177 884Q192 884 207 879.5Q222 875 236.5 869.5Q251 864 265.5 859.5Q280 855 294 855Q308 855 315.5 864.5Q323 874 329 892L381 879Q378 859 371.5 840.5Q365 822 354 808Q343 794 328.5 785.5Q314 777 295 777Q281 777 265.5 781.5Q250 786 235 791.5Q220 797 206.5 801.5Q193 806 181 806Q167 806 159.5 798Q152 790 147 769ZM229 -11Q147 -11 97 32Q47 75 47 166V713H160V172Q160 128 182 108Q204 88 236 88Q274 88 292.5 111Q311 134 310 171V713H417V171Q417 128 403 94Q389 60 364 37Q339 14 304.5 1.5Q270 -11 229 -11Z" glyph-name="Utilde" horiz-adv-x="464" unicode="&#360;" /><glyph d="M13 713H124L212 205H215L303 713H404L268 -4H151Z" glyph-name="V" horiz-adv-x="417" unicode="V" /><glyph d="M19 713H129L191 240H193L264 713H373L442 241H444L504 713H604L496 -4H392L315 496H312L235 -4H129Z" glyph-name="W" horiz-adv-x="622" unicode="W" /><glyph d="M19 713H129L191 240H193L264 713H373L442 241H444L504 713H604L496 -4H392L315 496H312L235 -4H129ZM354 910H461L363 764H286Z" glyph-name="Wacute" horiz-adv-x="622" unicode="&#7810;" /><glyph d="M19 713H129L191 240H193L264 713H373L442 241H444L504 713H604L496 -4H392L315 496H312L235 -4H129ZM273 913H350L433 765H350L309 846L269 765H189Z" glyph-name="Wcircumflex" horiz-adv-x="622" unicode="&#372;" /><glyph d="M19 713H129L191 240H193L264 713H373L442 241H444L504 713H604L496 -4H392L315 496H312L235 -4H129ZM343 903H427V772H343ZM201 903H285V772H201Z" glyph-name="Wdieresis" horiz-adv-x="622" unicode="&#7812;" /><glyph d="M180 910H287L355 764H278ZM19 713H129L191 240H193L264 713H373L442 241H444L504 713H604L496 -4H392L315 496H312L235 -4H129Z" glyph-name="Wgrave" horiz-adv-x="622" unicode="&#7808;" /><glyph d="M150 360 20 713H137L217 485L297 713H402L272 368L410 0H294L206 242L120 0H13Z" glyph-name="X" horiz-adv-x="422" unicode="X" /><glyph d="M155 292 11 714H129L217 426L302 714H409L266 291V0H155Z" glyph-name="Y" horiz-adv-x="420" unicode="Y" /><glyph d="M247 910H354L256 764H179ZM155 292 11 714H129L217 426L302 714H409L266 291V0H155Z" glyph-name="Yacute" horiz-adv-x="420" unicode="&#221;" /><glyph d="M179 913H256L339 765H256L215 846L175 765H95ZM155 292 11 714H129L217 426L302 714H409L266 291V0H155Z" glyph-name="Ycircumflex" horiz-adv-x="420" unicode="&#374;" /><glyph d="M243 903H327V772H243ZM101 903H185V772H101ZM155 292 11 714H129L217 426L302 714H409L266 291V0H155Z" glyph-name="Ydieresis" horiz-adv-x="420" unicode="&#376;" /><glyph d="M82 910H189L257 764H180ZM155 292 11 714H129L217 426L302 714H409L266 291V0H155Z" glyph-name="Ygrave" horiz-adv-x="420" unicode="&#7922;" /><glyph d="M31 75 234 618H35V713H358V632L157 96H354V0H31Z" glyph-name="Z" horiz-adv-x="385" unicode="Z" /><glyph d="M31 75 234 618H35V713H358V632L157 96H354V0H31ZM221 910H328L230 764H153Z" glyph-name="Zacute" horiz-adv-x="385" unicode="&#377;" /><glyph d="M31 75 234 618H35V713H358V632L157 96H354V0H31ZM81 916H165L205 835L246 916H327L242 767H165Z" glyph-name="Zcaron" horiz-adv-x="385" unicode="&#381;" /><glyph d="M154 904H243V772H154ZM31 75 234 618H35V713H358V632L157 96H354V0H31Z" glyph-name="Zdotaccent" horiz-adv-x="385" unicode="&#379;" /><glyph d="M183 72Q206 72 222.5 92.5Q239 113 239 142V257H206Q178 257 157 235Q136 213 136 162Q136 114 149 93Q162 72 183 72ZM145 -10Q98 -10 65 28.5Q32 67 32 150Q32 191 45.5 223Q59 255 82.5 277Q106 299 137.5 310.5Q169 322 204 322H239V410Q239 432 226.5 445Q214 458 188 458Q162 458 149.5 444.5Q137 431 137 411V363H43V412Q43 470 85 505.5Q127 541 196 541Q263 541 302.5 505.5Q342 470 342 408V125Q342 109 342.5 90Q343 71 344 53Q345 35 346 20.5Q347 6 347 0H252Q252 5 250.5 20Q249 35 247 55H244Q236 37 224 24.5Q212 12 198.5 4.5Q185 -3 171 -6.5Q157 -10 145 -10Z" glyph-name="a" horiz-adv-x="388" unicode="a" /><glyph d="M214 730H321L223 584H146ZM183 72Q206 72 222.5 92.5Q239 113 239 142V257H206Q178 257 157 235Q136 213 136 162Q136 114 149 93Q162 72 183 72ZM145 -10Q98 -10 65 28.5Q32 67 32 150Q32 191 45.5 223Q59 255 82.5 277Q106 299 137.5 310.5Q169 322 204 322H239V410Q239 432 226.5 445Q214 458 188 458Q162 458 149.5 444.5Q137 431 137 411V363H43V412Q43 470 85 505.5Q127 541 196 541Q263 541 302.5 505.5Q342 470 342 408V125Q342 109 342.5 90Q343 71 344 53Q345 35 346 20.5Q347 6 347 0H252Q252 5 250.5 20Q249 35 247 55H244Q236 37 224 24.5Q212 12 198.5 4.5Q185 -3 171 -6.5Q157 -10 145 -10Z" glyph-name="aacute" horiz-adv-x="388" unicode="&#225;" /><glyph d="M195 586Q135 586 101 620.5Q67 655 66 724H137Q141 692 152 671Q163 650 198 650Q226 650 238.5 669.5Q251 689 252 724H321Q319 652 283 619Q247 586 195 586ZM183 72Q206 72 222.5 92.5Q239 113 239 142V257H206Q178 257 157 235Q136 213 136 162Q136 114 149 93Q162 72 183 72ZM145 -10Q98 -10 65 28.5Q32 67 32 150Q32 191 45.5 223Q59 255 82.5 277Q106 299 137.5 310.5Q169 322 204 322H239V410Q239 432 226.5 445Q214 458 188 458Q162 458 149.5 444.5Q137 431 137 411V363H43V412Q43 470 85 505.5Q127 541 196 541Q263 541 302.5 505.5Q342 470 342 408V125Q342 109 342.5 90Q343 71 344 53Q345 35 346 20.5Q347 6 347 0H252Q252 5 250.5 20Q249 35 247 55H244Q236 37 224 24.5Q212 12 198.5 4.5Q185 -3 171 -6.5Q157 -10 145 -10Z" glyph-name="abreve" horiz-adv-x="388" unicode="&#259;" /><glyph d="M154 733H231L314 585H231L190 666L150 585H70ZM183 72Q206 72 222.5 92.5Q239 113 239 142V257H206Q178 257 157 235Q136 213 136 162Q136 114 149 93Q162 72 183 72ZM145 -10Q98 -10 65 28.5Q32 67 32 150Q32 191 45.5 223Q59 255 82.5 277Q106 299 137.5 310.5Q169 322 204 322H239V410Q239 432 226.5 445Q214 458 188 458Q162 458 149.5 444.5Q137 431 137 411V363H43V412Q43 470 85 505.5Q127 541 196 541Q263 541 302.5 505.5Q342 470 342 408V125Q342 109 342.5 90Q343 71 344 53Q345 35 346 20.5Q347 6 347 0H252Q252 5 250.5 20Q249 35 247 55H244Q236 37 224 24.5Q212 12 198.5 4.5Q185 -3 171 -6.5Q157 -10 145 -10Z" glyph-name="acircumflex" horiz-adv-x="388" unicode="&#226;" /><glyph d="M111 730H218L120 584H43Z" glyph-name="acute" horiz-adv-x="240" unicode="&#180;" /><glyph d="M222 723H306V592H222ZM80 723H164V592H80ZM183 72Q206 72 222.5 92.5Q239 113 239 142V257H206Q178 257 157 235Q136 213 136 162Q136 114 149 93Q162 72 183 72ZM145 -10Q98 -10 65 28.5Q32 67 32 150Q32 191 45.5 223Q59 255 82.5 277Q106 299 137.5 310.5Q169 322 204 322H239V410Q239 432 226.5 445Q214 458 188 458Q162 458 149.5 444.5Q137 431 137 411V363H43V412Q43 470 85 505.5Q127 541 196 541Q263 541 302.5 505.5Q342 470 342 408V125Q342 109 342.5 90Q343 71 344 53Q345 35 346 20.5Q347 6 347 0H252Q252 5 250.5 20Q249 35 247 55H244Q236 37 224 24.5Q212 12 198.5 4.5Q185 -3 171 -6.5Q157 -10 145 -10Z" glyph-name="adieresis" horiz-adv-x="388" unicode="&#228;" /><glyph d="M450 306V396Q450 420 438 438.5Q426 457 397 457Q368 457 356 438Q344 419 344 396V306ZM185 72Q208 72 223.5 90Q239 108 239 137V257H206Q178 257 157 235Q136 213 136 162Q136 114 150 93Q164 72 185 72ZM146 -11Q122 -11 101.5 -1.5Q81 8 65.5 28Q50 48 41 78Q32 108 32 150Q32 191 45.5 223Q59 255 82.5 277Q106 299 137.5 310.5Q169 322 204 322H239V410Q239 432 226.5 445Q214 458 188 458Q162 458 149.5 444.5Q137 431 137 411V363H43V412Q43 470 85 505.5Q127 541 196 541Q228 541 253.5 532Q279 523 296 504Q315 522 341.5 531.5Q368 541 398 541Q467 541 505 501Q543 461 543 392V230H344V157Q344 118 362 97Q380 76 421 76Q448 76 473 82.5Q498 89 517 97L538 21Q481 -11 403 -11Q356 -11 320.5 5.5Q285 22 265 56Q253 35 237 21.5Q221 8 204.5 1Q188 -6 172.5 -8.5Q157 -11 146 -11Z" glyph-name="ae" horiz-adv-x="580" unicode="&#230;" /><glyph d="M450 306V396Q450 420 438 438.5Q426 457 397 457Q368 457 356 438Q344 419 344 396V306ZM185 72Q208 72 223.5 90Q239 108 239 137V257H206Q178 257 157 235Q136 213 136 162Q136 114 150 93Q164 72 185 72ZM146 -11Q122 -11 101.5 -1.5Q81 8 65.5 28Q50 48 41 78Q32 108 32 150Q32 191 45.5 223Q59 255 82.5 277Q106 299 137.5 310.5Q169 322 204 322H239V410Q239 432 226.5 445Q214 458 188 458Q162 458 149.5 444.5Q137 431 137 411V363H43V412Q43 470 85 505.5Q127 541 196 541Q228 541 253.5 532Q279 523 296 504Q315 522 341.5 531.5Q368 541 398 541Q467 541 505 501Q543 461 543 392V230H344V157Q344 118 362 97Q380 76 421 76Q448 76 473 82.5Q498 89 517 97L538 21Q481 -11 403 -11Q356 -11 320.5 5.5Q285 22 265 56Q253 35 237 21.5Q221 8 204.5 1Q188 -6 172.5 -8.5Q157 -11 146 -11ZM317 730H424L326 584H249Z" glyph-name="aeacute" horiz-adv-x="580" unicode="&#509;" /><glyph d="M65 730H172L240 584H163ZM183 72Q206 72 222.5 92.5Q239 113 239 142V257H206Q178 257 157 235Q136 213 136 162Q136 114 149 93Q162 72 183 72ZM145 -10Q98 -10 65 28.5Q32 67 32 150Q32 191 45.5 223Q59 255 82.5 277Q106 299 137.5 310.5Q169 322 204 322H239V410Q239 432 226.5 445Q214 458 188 458Q162 458 149.5 444.5Q137 431 137 411V363H43V412Q43 470 85 505.5Q127 541 196 541Q263 541 302.5 505.5Q342 470 342 408V125Q342 109 342.5 90Q343 71 344 53Q345 35 346 20.5Q347 6 347 0H252Q252 5 250.5 20Q249 35 247 55H244Q236 37 224 24.5Q212 12 198.5 4.5Q185 -3 171 -6.5Q157 -10 145 -10Z" glyph-name="agrave" horiz-adv-x="388" unicode="&#224;" /><glyph d="M143 -192Q106 -192 78 -170.5Q50 -149 50 -103Q50 -78 59 -57Q68 -36 81.5 -18.5Q95 -1 111.5 11.5Q128 24 144 31L181 4Q151 -10 134.5 -33Q118 -56 118 -82Q118 -105 129.5 -115Q141 -125 159 -125Q167 -125 177.5 -122Q188 -119 199 -113L225 -169Q190 -192 143 -192Z" glyph-name="altogonek" horiz-adv-x="245" /><glyph d="M87 675H302V598H87ZM183 72Q206 72 222.5 92.5Q239 113 239 142V257H206Q178 257 157 235Q136 213 136 162Q136 114 149 93Q162 72 183 72ZM145 -10Q98 -10 65 28.5Q32 67 32 150Q32 191 45.5 223Q59 255 82.5 277Q106 299 137.5 310.5Q169 322 204 322H239V410Q239 432 226.5 445Q214 458 188 458Q162 458 149.5 444.5Q137 431 137 411V363H43V412Q43 470 85 505.5Q127 541 196 541Q263 541 302.5 505.5Q342 470 342 408V125Q342 109 342.5 90Q343 71 344 53Q345 35 346 20.5Q347 6 347 0H252Q252 5 250.5 20Q249 35 247 55H244Q236 37 224 24.5Q212 12 198.5 4.5Q185 -3 171 -6.5Q157 -10 145 -10Z" glyph-name="amacron" horiz-adv-x="388" unicode="&#257;" /><glyph d="M236 445Q268 467 283.5 498.5Q299 530 299 571Q299 603 284.5 624.5Q270 646 245 646Q215 646 202.5 623Q190 600 190 573Q190 547 202.5 515.5Q215 484 236 445ZM216 81Q242 81 261.5 97Q281 113 294 134Q292 137 284.5 151.5Q277 166 265.5 185Q254 204 241.5 226Q229 248 218 267Q207 286 199 300Q191 314 190 317Q161 297 150 264.5Q139 232 139 195Q139 174 143.5 153.5Q148 133 157.5 117Q167 101 181.5 91Q196 81 216 81ZM195 -13Q154 -13 124 2Q94 17 74.5 43.5Q55 70 45 106.5Q35 143 35 187Q35 253 62.5 306Q90 359 148 394Q125 433 107 476Q89 519 89 564Q89 595 98 624.5Q107 654 125.5 676.5Q144 699 173.5 712.5Q203 726 244 726Q315 726 353 683Q391 640 391 572Q391 509 362 458.5Q333 408 277 374Q278 370 291 348Q304 326 319.5 300.5Q335 275 347.5 253.5Q360 232 362 228Q369 251 374.5 276.5Q380 302 385 334L469 324Q461 271 445 221Q429 171 412 134Q414 129 425.5 109.5Q437 90 451 67.5Q465 45 476.5 25Q488 5 490 0H372L336 62Q308 27 272 7Q236 -13 195 -13Z" glyph-name="ampersand" horiz-adv-x="506" unicode="&amp;" /><glyph d="M183 72Q206 72 222.5 92.5Q239 113 239 142V257H206Q178 257 157 235Q136 213 136 162Q136 114 149 93Q162 72 183 72ZM299 -193Q259 -193 229.5 -172Q200 -151 200 -105Q200 -72 214.5 -45.5Q229 -19 252 0Q252 5 250.5 20Q249 35 247 55H244Q236 37 224 24.5Q212 12 198.5 4.5Q185 -3 171 -6.5Q157 -10 145 -10Q98 -10 65 28.5Q32 67 32 150Q32 191 45.5 223Q59 255 82.5 277Q106 299 137.5 310.5Q169 322 204 322H239V410Q239 432 226.5 445Q214 458 188 458Q162 458 149.5 444.5Q137 431 137 411V363H43V412Q43 470 85 505.5Q127 541 196 541Q263 541 302.5 505.5Q342 470 342 408V125Q342 109 342.5 90Q343 71 344 53Q345 35 346 20.5Q347 6 347 0H330Q298 -14 283 -35Q268 -56 268 -82Q268 -105 281 -116Q294 -127 312 -127Q326 -127 338.5 -122.5Q351 -118 362 -111L390 -164Q374 -175 352.5 -184Q331 -193 299 -193Z" glyph-name="aogonek" horiz-adv-x="388" unicode="&#261;" /><glyph d="M38 355Q41 376 47 395.5Q53 415 63 430Q73 445 87 453.5Q101 462 121 462Q137 462 159 458Q181 454 204.5 448.5Q228 443 249.5 439Q271 435 285 435Q300 435 307 445Q314 455 320 473L368 463Q366 443 360.5 423.5Q355 404 345.5 389Q336 374 322 365Q308 356 288 356Q273 356 250 360.5Q227 365 203 370.5Q179 376 157.5 380.5Q136 385 123 385Q108 385 101 375.5Q94 366 89 346ZM38 188Q41 209 47 228.5Q53 248 63 262.5Q73 277 87 286Q101 295 121 295Q137 295 159 291Q181 287 204.5 281.5Q228 276 249.5 272Q271 268 285 268Q300 268 307 277.5Q314 287 320 306L368 296Q366 276 360.5 256.5Q355 237 345.5 222Q336 207 322 197.5Q308 188 288 188Q273 188 250 192.5Q227 197 203 202.5Q179 208 157.5 212.5Q136 217 123 217Q108 217 101 208Q94 199 89 179Z" glyph-name="approxequal" horiz-adv-x="406" unicode="&#8776;" /><glyph d="M194 619Q214 619 225.5 632Q237 645 237 665Q237 685 226 698.5Q215 712 193 712Q173 712 162.5 699Q152 686 152 665Q152 644 164 631.5Q176 619 194 619ZM193 577Q153 577 129 601.5Q105 626 105 663Q105 701 130 727.5Q155 754 194 754Q235 754 258.5 729.5Q282 705 282 667Q282 648 275 631.5Q268 615 256 603Q244 591 228 584Q212 577 193 577ZM183 72Q206 72 222.5 92.5Q239 113 239 142V257H206Q178 257 157 235Q136 213 136 162Q136 114 149 93Q162 72 183 72ZM145 -10Q98 -10 65 28.5Q32 67 32 150Q32 191 45.5 223Q59 255 82.5 277Q106 299 137.5 310.5Q169 322 204 322H239V410Q239 432 226.5 445Q214 458 188 458Q162 458 149.5 444.5Q137 431 137 411V363H43V412Q43 470 85 505.5Q127 541 196 541Q263 541 302.5 505.5Q342 470 342 408V125Q342 109 342.5 90Q343 71 344 53Q345 35 346 20.5Q347 6 347 0H252Q252 5 250.5 20Q249 35 247 55H244Q236 37 224 24.5Q212 12 198.5 4.5Q185 -3 171 -6.5Q157 -10 145 -10Z" glyph-name="aring" horiz-adv-x="388" unicode="&#229;" /><glyph d="M197 616Q216 616 227 629Q238 642 238 663Q238 683 227.5 696Q217 709 197 709Q178 709 168 695.5Q158 682 158 662Q158 640 168.5 628Q179 616 197 616ZM196 578Q153 578 131.5 603Q110 628 110 660Q110 692 130 717L199 813L276 796L218 741Q250 736 267 714.5Q284 693 284 664Q284 627 259 602.5Q234 578 196 578ZM183 72Q206 72 222.5 92.5Q239 113 239 142V257H206Q178 257 157 235Q136 213 136 162Q136 114 149 93Q162 72 183 72ZM145 -10Q98 -10 65 28.5Q32 67 32 150Q32 191 45.5 223Q59 255 82.5 277Q106 299 137.5 310.5Q169 322 204 322H239V410Q239 432 226.5 445Q214 458 188 458Q162 458 149.5 444.5Q137 431 137 411V363H43V412Q43 470 85 505.5Q127 541 196 541Q263 541 302.5 505.5Q342 470 342 408V125Q342 109 342.5 90Q343 71 344 53Q345 35 346 20.5Q347 6 347 0H252Q252 5 250.5 20Q249 35 247 55H244Q236 37 224 24.5Q212 12 198.5 4.5Q185 -3 171 -6.5Q157 -10 145 -10Z" glyph-name="aringacute" horiz-adv-x="388" unicode="&#507;" /><glyph d="M52 330 98 377 182 292V532H253V292L337 377L382 330L221 177H213Z" glyph-name="arrowdown" horiz-adv-x="436" unicode="&#8595;" /><glyph d="M36 351V358L189 519L237 472L151 389H391V319H151L235 233L189 189Z" glyph-name="arrowleft" horiz-adv-x="436" unicode="&#8592;" /><glyph d="M195 233 279 319H40V389H279L194 472L241 519L395 358V351L241 189Z" glyph-name="arrowright" horiz-adv-x="436" unicode="&#8594;" /><glyph d="M182 416 99 331 52 378 213 532H221L382 378L339 332L253 416V177H182Z" glyph-name="arrowup" horiz-adv-x="436" unicode="&#8593;" /><glyph d="M152 547H227L306 189H231L188 409L164 299L140 189H65Z" glyph-name="asciicircum" horiz-adv-x="379" unicode="^" /><glyph d="M38 263Q41 284 47 303.5Q53 323 63 338Q73 353 87 361.5Q101 370 121 370Q137 370 159 366Q181 362 204.5 356.5Q228 351 249.5 347Q271 343 285 343Q300 343 307 353Q314 363 320 381L368 371Q366 351 360.5 331.5Q355 312 345.5 297Q336 282 322 273Q308 264 288 264Q273 264 250 268.5Q227 273 203 278.5Q179 284 157.5 288.5Q136 293 123 293Q108 293 101 283.5Q94 274 89 254Z" glyph-name="asciitilde" horiz-adv-x="406" unicode="~" /><glyph d="M53 463 115 556 20 612 51 662 139 612V714H200V611L286 662L318 612L222 556L285 463L234 430L169 525L103 430Z" glyph-name="asterisk" horiz-adv-x="337" unicode="*" /><glyph d="M322 155Q351 155 371.5 179.5Q392 204 397 239L419 391Q420 395 420 399Q420 403 420 407Q420 436 406.5 451Q393 466 370 466Q343 466 327 447.5Q311 429 306 397L281 221Q280 217 279.5 210Q279 203 279 198Q279 179 288.5 167Q298 155 322 155ZM372 -76Q315 -76 265 -63Q215 -50 175 -23Q109 19 72 96Q35 173 36 285Q36 378 61.5 454Q87 530 133 583Q179 636 242.5 665Q306 694 382 694Q437 694 488.5 676Q540 658 579.5 620.5Q619 583 642.5 525.5Q666 468 666 389Q666 326 649 273Q632 220 603.5 180.5Q575 141 538 116.5Q501 92 461 85H378L386 143H383Q361 108 332 91.5Q303 75 275 75Q230 75 206 100Q182 125 182 169Q182 177 182.5 186Q183 195 184 203L218 423Q227 480 264 510.5Q301 541 349 541Q374 541 398 529.5Q422 518 432 492H434L441 535H530L472 137Q502 144 527 167Q552 190 570.5 223.5Q589 257 599.5 299.5Q610 342 610 387Q610 457 591 507Q572 557 540 588.5Q508 620 466 634.5Q424 649 377 649Q308 649 254.5 621Q201 593 164.5 544.5Q128 496 109.5 429.5Q91 363 91 286Q91 189 122.5 119.5Q154 50 217 12Q280 -28 373 -28Q426 -28 468 -20.5Q510 -13 555 1L565 -40Q527 -57 475.5 -66.5Q424 -76 372 -76Z" glyph-name="at" horiz-adv-x="700" unicode="@" /><glyph d="M49 601Q55 643 76.5 673.5Q98 704 134 704Q149 704 164 699.5Q179 695 193.5 689.5Q208 684 222.5 679.5Q237 675 251 675Q265 675 272.5 684.5Q280 694 286 712L338 699Q335 679 328.5 660.5Q322 642 311 628Q300 614 285.5 605.5Q271 597 252 597Q238 597 222.5 601.5Q207 606 192 611.5Q177 617 163.5 621.5Q150 626 138 626Q124 626 116.5 618Q109 610 104 589ZM183 72Q206 72 222.5 92.5Q239 113 239 142V257H206Q178 257 157 235Q136 213 136 162Q136 114 149 93Q162 72 183 72ZM145 -10Q98 -10 65 28.5Q32 67 32 150Q32 191 45.5 223Q59 255 82.5 277Q106 299 137.5 310.5Q169 322 204 322H239V410Q239 432 226.5 445Q214 458 188 458Q162 458 149.5 444.5Q137 431 137 411V363H43V412Q43 470 85 505.5Q127 541 196 541Q263 541 302.5 505.5Q342 470 342 408V125Q342 109 342.5 90Q343 71 344 53Q345 35 346 20.5Q347 6 347 0H252Q252 5 250.5 20Q249 35 247 55H244Q236 37 224 24.5Q212 12 198.5 4.5Q185 -3 171 -6.5Q157 -10 145 -10Z" glyph-name="atilde" horiz-adv-x="388" unicode="&#227;" /><glyph d="M215 74Q237 74 250 88Q263 102 263 130V400Q263 424 251 439.5Q239 455 213 455Q190 455 172 433Q154 411 154 375V148Q154 116 172 95Q190 74 215 74ZM239 -9Q210 -9 185.5 5.5Q161 20 147 46H146L144 0H50V713H154V485H156Q174 515 201 528.5Q228 542 254 542Q284 542 305.5 532Q327 522 340.5 505.5Q354 489 360.5 467.5Q367 446 367 423V118Q367 60 331.5 25.5Q296 -9 239 -9Z" glyph-name="b" horiz-adv-x="407" unicode="b" /><glyph d="M14 716H85L255 -169H182Z" glyph-name="backslash" horiz-adv-x="250" unicode="\" /><glyph d="M90 717H159V-105H90Z" glyph-name="bar" horiz-adv-x="248" unicode="|" /><glyph d="M45 547H425V0H45Z" glyph-name="blacksmallsquare" horiz-adv-x="470" unicode="&#9642;" /><glyph d="M42 714H494V0H42Z" glyph-name="blacksquare" horiz-adv-x="536" unicode="&#9632;" /><glyph d="M140 -168Q105 -168 83.5 -149.5Q62 -131 62 -86V211Q62 238 55 251Q48 264 27 266V329Q49 334 55.5 344.5Q62 355 62 376V627Q62 672 83.5 692.5Q105 713 141 713H213V653H167Q149 653 149 630V389Q149 355 140.5 334Q132 313 105 302V297Q134 286 141.5 266.5Q149 247 149 210V-86Q149 -100 154 -104.5Q159 -109 167 -109H213V-168Z" glyph-name="braceleft" horiz-adv-x="232" unicode="{" /><glyph d="M18 -109H64Q72 -109 77 -104.5Q82 -100 82 -86V210Q82 247 90 266.5Q98 286 126 297V302Q100 313 91 334Q82 355 82 389V631Q82 644 77 649Q72 654 64 654H18V714H91Q126 714 147.5 693.5Q169 673 169 628V376Q169 355 175 344.5Q181 334 203 329V266Q183 264 176 251Q169 238 169 211V-86Q169 -131 147.5 -149.5Q126 -168 91 -168H18Z" glyph-name="braceright" horiz-adv-x="232" unicode="}" /><glyph d="M54 713H205V653H141V-109H205V-168H54Z" glyph-name="bracketleft" horiz-adv-x="225" unicode="[" /><glyph d="M20 -109H84V653H20V713H172V-168H20Z" glyph-name="bracketright" horiz-adv-x="225" unicode="]" /><glyph d="M163 586Q103 586 69 620.5Q35 655 34 724H105Q109 692 120 671Q131 650 166 650Q194 650 206.5 669.5Q219 689 220 724H289Q287 652 251 619Q215 586 163 586Z" glyph-name="breve" horiz-adv-x="322" unicode="&#728;" /><glyph d="M94 717H169V384H94ZM94 313H169V-45H94Z" glyph-name="brokenbar" horiz-adv-x="283" unicode="&#166;" /><glyph d="M186 223Q159 223 135 233.5Q111 244 93.5 261.5Q76 279 65.5 303Q55 327 55 354Q55 381 65.5 404.5Q76 428 93.5 445.5Q111 463 135 473Q159 483 186 483Q213 483 236 473Q259 463 276.5 445.5Q294 428 304 404.5Q314 381 314 354Q314 327 304 303Q294 279 276.5 261.5Q259 244 236 233.5Q213 223 186 223Z" glyph-name="bullet" horiz-adv-x="370" unicode="&#8226;" /><glyph d="M196 -10Q127 -10 83.5 28Q40 66 40 141V386Q40 424 52.5 453Q65 482 86.5 501.5Q108 521 137 531Q166 541 198 541Q232 541 259.5 531Q287 521 305.5 503.5Q324 486 334 462Q344 438 344 410V359H252V404Q252 424 240 439.5Q228 455 200 455Q171 455 158 437Q145 419 145 394V138Q145 112 157.5 93Q170 74 199 74Q230 74 241 92.5Q252 111 252 129V172H344V123Q344 60 304.5 25Q265 -10 196 -10Z" glyph-name="c" horiz-adv-x="378" unicode="c" /><glyph d="M196 -10Q127 -10 83.5 28Q40 66 40 141V386Q40 424 52.5 453Q65 482 86.5 501.5Q108 521 137 531Q166 541 198 541Q232 541 259.5 531Q287 521 305.5 503.5Q324 486 334 462Q344 438 344 410V359H252V404Q252 424 240 439.5Q228 455 200 455Q171 455 158 437Q145 419 145 394V138Q145 112 157.5 93Q170 74 199 74Q230 74 241 92.5Q252 111 252 129V172H344V123Q344 60 304.5 25Q265 -10 196 -10ZM219 730H326L228 584H151Z" glyph-name="cacute" horiz-adv-x="378" unicode="&#263;" /><glyph d="M31 736H115L155 655L196 736H277L192 587H115Z" glyph-name="caron" horiz-adv-x="292" unicode="&#711;" /><glyph d="M51 713H137L106 540H46Z" glyph-name="caronSlovak" horiz-adv-x="195" unicode="&#58387;" /><glyph d="M196 -10Q127 -10 83.5 28Q40 66 40 141V386Q40 424 52.5 453Q65 482 86.5 501.5Q108 521 137 531Q166 541 198 541Q232 541 259.5 531Q287 521 305.5 503.5Q324 486 334 462Q344 438 344 410V359H252V404Q252 424 240 439.5Q228 455 200 455Q171 455 158 437Q145 419 145 394V138Q145 112 157.5 93Q170 74 199 74Q230 74 241 92.5Q252 111 252 129V172H344V123Q344 60 304.5 25Q265 -10 196 -10ZM70 736H154L194 655L235 736H316L231 587H154Z" glyph-name="ccaron" horiz-adv-x="378" unicode="&#269;" /><glyph d="M198 -189Q182 -189 161 -187Q140 -185 119 -179V-127Q160 -138 193 -138Q229 -138 229 -115Q229 -102 217.5 -97.5Q206 -93 189 -91L155 -89L174 -9Q114 -3 77 34.5Q40 72 40 141V386Q40 424 52.5 453Q65 482 86.5 501.5Q108 521 137 531Q166 541 198 541Q232 541 259.5 531Q287 521 305.5 503.5Q324 486 334 462Q344 438 344 410V359H252V404Q252 424 240 439.5Q228 455 200 455Q171 455 158 437Q145 419 145 394V138Q145 112 157.5 93Q170 74 199 74Q230 74 241 92.5Q252 111 252 129V172H344V123Q344 65 310.5 31Q277 -3 219 -9L210 -51Q225 -51 241.5 -53.5Q258 -56 271.5 -63Q285 -70 294 -81.5Q303 -93 303 -112Q303 -148 271.5 -168.5Q240 -189 198 -189Z" glyph-name="ccedilla" horiz-adv-x="378" unicode="&#231;" /><glyph d="M196 -10Q127 -10 83.5 28Q40 66 40 141V386Q40 424 52.5 453Q65 482 86.5 501.5Q108 521 137 531Q166 541 198 541Q232 541 259.5 531Q287 521 305.5 503.5Q324 486 334 462Q344 438 344 410V359H252V404Q252 424 240 439.5Q228 455 200 455Q171 455 158 437Q145 419 145 394V138Q145 112 157.5 93Q170 74 199 74Q230 74 241 92.5Q252 111 252 129V172H344V123Q344 60 304.5 25Q265 -10 196 -10ZM155 733H232L315 585H232L191 666L151 585H71Z" glyph-name="ccircumflex" horiz-adv-x="378" unicode="&#265;" /><glyph d="M148 724H237V592H148ZM196 -10Q127 -10 83.5 28Q40 66 40 141V386Q40 424 52.5 453Q65 482 86.5 501.5Q108 521 137 531Q166 541 198 541Q232 541 259.5 531Q287 521 305.5 503.5Q324 486 334 462Q344 438 344 410V359H252V404Q252 424 240 439.5Q228 455 200 455Q171 455 158 437Q145 419 145 394V138Q145 112 157.5 93Q170 74 199 74Q230 74 241 92.5Q252 111 252 129V172H344V123Q344 60 304.5 25Q265 -10 196 -10Z" glyph-name="cdotaccent" horiz-adv-x="378" unicode="&#267;" /><glyph d="M120 -189Q104 -189 83 -187Q62 -185 41 -179V-127Q82 -138 115 -138Q151 -138 151 -115Q151 -102 139.5 -97.5Q128 -93 111 -91L77 -89L101 13H146L132 -51Q147 -51 163.5 -53.5Q180 -56 193.5 -63Q207 -70 216 -81.5Q225 -93 225 -112Q225 -148 193.5 -168.5Q162 -189 120 -189Z" glyph-name="cedilla" horiz-adv-x="269" unicode="&#184;" /><glyph d="M151 20Q97 30 66.5 66Q36 102 36 165V399Q36 462 68 498.5Q100 535 151 546V623H238V546Q289 535 315.5 501Q342 467 342 420V364H249V416Q249 436 236.5 452.5Q224 469 195 469Q165 469 152.5 450.5Q140 432 140 406V163Q140 136 152 116.5Q164 97 195 97Q226 97 237.5 115Q249 133 249 153V207H342V147Q342 96 315 63.5Q288 31 238 21V-56H151Z" glyph-name="cent" horiz-adv-x="377" unicode="&#162;" /><glyph d="M113 733H190L273 585H190L149 666L109 585H29Z" glyph-name="circumflex" horiz-adv-x="300" unicode="&#710;" /><glyph d="M42 526H142V390H42ZM41 137H142V0H41Z" glyph-name="colon" horiz-adv-x="182" unicode=":" /><glyph d="M79 7H41V137H142V13L104 -116H51Z" glyph-name="comma" horiz-adv-x="182" unicode="," /><glyph d="M67 3H39V94H114V6L83 -80H46Z" glyph-name="comma.dnom" horiz-adv-x="152" unicode="&#58381;" /><glyph d="M67 321H39V412H114V324L83 238H46Z" glyph-name="comma.numr" horiz-adv-x="152" unicode="&#58401;" /><glyph d="M67 -130H39V-39H114V-127L83 -213H46Z" glyph-name="comma.sub" horiz-adv-x="152" /><glyph d="M67 383H39V474H114V386L83 300H46Z" glyph-name="comma.sup" horiz-adv-x="152" /><glyph d="M48 -36H142L113 -183H41Z" glyph-name="commaaccent" horiz-adv-x="181" unicode="&#58388;" /><glyph d="M52 659 84 746H130L113 675H142V592H52Z" glyph-name="commatop" horiz-adv-x="195" /><glyph d="M358 13Q413 13 460 36.5Q507 60 540.5 104Q574 148 593 210.5Q612 273 612 350Q612 428 593 490.5Q574 553 540.5 596.5Q507 640 460 663.5Q413 687 357 687Q300 687 253.5 663.5Q207 640 173.5 596Q140 552 122 490Q104 428 104 350Q104 271 123 208.5Q142 146 175.5 102.5Q209 59 255.5 36Q302 13 358 13ZM357 -40Q277 -40 217.5 -9.5Q158 21 118.5 74Q79 127 59.5 198Q40 269 40 350Q40 429 61.5 499.5Q83 570 123.5 622.5Q164 675 223 706Q282 737 357 737Q436 737 495.5 705.5Q555 674 595 621Q635 568 655 498Q675 428 675 350Q675 270 654.5 199.5Q634 129 594 75.5Q554 22 494.5 -9Q435 -40 357 -40ZM359 73Q293 73 252 108Q211 143 211 212V482Q211 549 252.5 586Q294 623 360 623Q424 623 462.5 588.5Q501 554 501 496V414H415V491Q415 511 403 527Q391 543 362 543Q330 543 318 524Q306 505 306 479V217Q306 190 318 172Q330 154 361 154Q391 154 403 171Q415 188 415 206V284H501V203Q501 143 462 108Q423 73 359 73Z" glyph-name="copyright" horiz-adv-x="714" unicode="&#169;" /><glyph d="M185 260Q225 260 245.5 285Q266 310 266 347Q266 384 243.5 409.5Q221 435 185 435Q145 435 124 409.5Q103 384 103 346Q103 312 125 286Q147 260 185 260ZM41 233 79 270Q54 304 54 347Q54 367 59.5 385Q65 403 75 419Q73 420 67.5 425.5Q62 431 55.5 438Q49 445 43.5 450.5Q38 456 37 457L71 492L109 454Q142 479 184 479Q224 479 256 458L295 496L330 461L292 424Q303 407 310 387Q317 367 317 347Q317 306 294 274L333 236L299 202L261 239Q226 215 185 215Q166 215 148 220.5Q130 226 114 236L76 198Z" glyph-name="currency" horiz-adv-x="369" unicode="&#164;" /><glyph d="M194 77Q220 77 237.5 100.5Q255 124 255 158V384Q255 416 236 437.5Q217 459 194 459Q172 459 158.5 444.5Q145 430 145 399V134Q145 109 156.5 93Q168 77 194 77ZM155 -9Q125 -9 103 1Q81 11 67 27.5Q53 44 46.5 66Q40 88 40 113V418Q40 471 73 506Q106 541 161 541Q188 541 212 529.5Q236 518 253 493H254V713H358V0H263L260 55H257Q239 21 210 6Q181 -9 155 -9Z" glyph-name="d" horiz-adv-x="407" unicode="d" /><glyph d="M150 466H35V545H150V714H237V545H351V466H237V-115H150Z" glyph-name="dagger" horiz-adv-x="386" unicode="&#8224;" /><glyph d="M150 64H35V145H150V466H35V545H150V714H237V545H351V466H237V145H351V64H237V-115H150Z" glyph-name="daggerdbl" horiz-adv-x="386" unicode="&#8225;" /><glyph d="M194 77Q220 77 237.5 100.5Q255 124 255 158V384Q255 416 236 437.5Q217 459 194 459Q172 459 158.5 444.5Q145 430 145 399V134Q145 109 156.5 93Q168 77 194 77ZM155 -9Q125 -9 103 1Q81 11 67 27.5Q53 44 46.5 66Q40 88 40 113V418Q40 471 73 506Q106 541 161 541Q188 541 212 529.5Q236 518 253 493H254V713H358V0H263L260 55H257Q239 21 210 6Q181 -9 155 -9ZM391 713H477L446 540H386Z" glyph-name="dcaron" horiz-adv-x="407" unicode="&#271;" /><glyph d="M194 77Q220 77 237.5 100.5Q255 124 255 158V384Q255 416 236 437.5Q217 459 194 459Q172 459 158.5 444.5Q145 430 145 399V134Q145 109 156.5 93Q168 77 194 77ZM172 658H254V713H358V658H392V592H358V0H263L260 55H257Q239 21 210 6Q181 -9 155 -9Q125 -9 103 1Q81 11 67 27.5Q53 44 46.5 66Q40 88 40 113V418Q40 471 73 506Q106 541 161 541Q188 541 212 529.5Q236 518 253 493H254V592H172Z" glyph-name="dcroat" horiz-adv-x="407" unicode="&#273;" /><glyph d="M122 590Q140 590 152.5 603.5Q165 617 165 636Q165 655 153 668Q141 681 122 681Q103 681 91.5 668.5Q80 656 80 636Q80 617 92 603.5Q104 590 122 590ZM122 548Q102 548 85.5 555Q69 562 57.5 574Q46 586 39.5 602Q33 618 33 636Q33 654 39.5 670Q46 686 58 698Q70 710 86.5 717Q103 724 122 724Q141 724 157.5 717Q174 710 186 698Q198 686 204.5 670Q211 654 211 636Q211 618 204 602Q197 586 185 574Q173 562 156.5 555Q140 548 122 548Z" glyph-name="degree" horiz-adv-x="244" unicode="&#176;" /><glyph d="M185 723H269V592H185ZM43 723H127V592H43Z" glyph-name="dieresis" horiz-adv-x="312" unicode="&#168;" /><glyph d="M169 516H255V406H169ZM49 357H374V282H49ZM169 228H255V117H169Z" glyph-name="divide" horiz-adv-x="423" unicode="&#247;" /><glyph d="M175 28Q148 31 122.5 42Q97 53 76.5 72.5Q56 92 43 121Q30 150 28 189L129 193Q133 156 149 132.5Q165 109 202 109Q233 109 247.5 129.5Q262 150 262 177Q262 203 245.5 232.5Q229 262 201 290L132 362Q93 401 67 441Q41 481 41 529Q41 558 49.5 584Q58 610 75 630Q92 650 117 663.5Q142 677 175 681V744H246V680Q269 676 289.5 666Q310 656 326 638Q342 620 352 593Q362 566 364 528L273 526Q269 569 251 587.5Q233 606 205 606Q175 606 159 587.5Q143 569 143 540Q143 512 163 486.5Q183 461 207 435L273 366Q310 326 337 283Q364 240 364 188Q364 130 333 88Q302 46 246 33V-35H175Z" glyph-name="dollar" horiz-adv-x="390" unicode="$" /><glyph d="M64 724H153V592H64Z" glyph-name="dotaccent" horiz-adv-x="216" unicode="&#729;" /><glyph d="M50 530H154V0H50Z" glyph-name="dotlessi" horiz-adv-x="204" unicode="&#305;" /><glyph d="M46 -169Q32 -169 21 -168Q10 -167 -2 -165V-83Q0 -84 8 -84Q16 -84 19 -84Q39 -84 46.5 -72.5Q54 -61 54 -40V530H158V-54Q158 -108 128 -138.5Q98 -169 46 -169Z" glyph-name="dotlessj" horiz-adv-x="206" unicode="&#567;" /><glyph d="M251 306V396Q251 419 239 438Q227 457 198 457Q169 457 157 437.5Q145 418 145 395V306ZM203 -11Q130 -11 85 27.5Q40 66 40 145V380Q40 419 52 449Q64 479 85.5 499.5Q107 520 136 530.5Q165 541 199 541Q270 541 307.5 500Q345 459 345 391V230H145V157Q145 76 223 76Q249 76 274.5 82.5Q300 89 319 97L339 21Q310 6 276 -2.5Q242 -11 203 -11Z" glyph-name="e" horiz-adv-x="381" unicode="e" /><glyph d="M251 306V396Q251 419 239 438Q227 457 198 457Q169 457 157 437.5Q145 418 145 395V306ZM203 -11Q130 -11 85 27.5Q40 66 40 145V380Q40 419 52 449Q64 479 85.5 499.5Q107 520 136 530.5Q165 541 199 541Q270 541 307.5 500Q345 459 345 391V230H145V157Q145 76 223 76Q249 76 274.5 82.5Q300 89 319 97L339 21Q310 6 276 -2.5Q242 -11 203 -11ZM224 730H331L233 584H156Z" glyph-name="eacute" horiz-adv-x="381" unicode="&#233;" /><glyph d="M196 586Q136 586 102 620.5Q68 655 67 724H138Q142 692 153 671Q164 650 199 650Q227 650 239.5 669.5Q252 689 253 724H322Q320 652 284 619Q248 586 196 586ZM251 306V396Q251 419 239 438Q227 457 198 457Q169 457 157 437.5Q145 418 145 395V306ZM203 -11Q130 -11 85 27.5Q40 66 40 145V380Q40 419 52 449Q64 479 85.5 499.5Q107 520 136 530.5Q165 541 199 541Q270 541 307.5 500Q345 459 345 391V230H145V157Q145 76 223 76Q249 76 274.5 82.5Q300 89 319 97L339 21Q310 6 276 -2.5Q242 -11 203 -11Z" glyph-name="ebreve" horiz-adv-x="381" unicode="&#277;" /><glyph d="M251 306V396Q251 419 239 438Q227 457 198 457Q169 457 157 437.5Q145 418 145 395V306ZM203 -11Q130 -11 85 27.5Q40 66 40 145V380Q40 419 52 449Q64 479 85.5 499.5Q107 520 136 530.5Q165 541 199 541Q270 541 307.5 500Q345 459 345 391V230H145V157Q145 76 223 76Q249 76 274.5 82.5Q300 89 319 97L339 21Q310 6 276 -2.5Q242 -11 203 -11ZM67 736H151L191 655L232 736H313L228 587H151Z" glyph-name="ecaron" horiz-adv-x="381" unicode="&#283;" /><glyph d="M251 306V396Q251 419 239 438Q227 457 198 457Q169 457 157 437.5Q145 418 145 395V306ZM203 -11Q130 -11 85 27.5Q40 66 40 145V380Q40 419 52 449Q64 479 85.5 499.5Q107 520 136 530.5Q165 541 199 541Q270 541 307.5 500Q345 459 345 391V230H145V157Q145 76 223 76Q249 76 274.5 82.5Q300 89 319 97L339 21Q310 6 276 -2.5Q242 -11 203 -11ZM167 733H244L327 585H244L203 666L163 585H83Z" glyph-name="ecircumflex" horiz-adv-x="381" unicode="&#234;" /><glyph d="M251 306V396Q251 419 239 438Q227 457 198 457Q169 457 157 437.5Q145 418 145 395V306ZM203 -11Q130 -11 85 27.5Q40 66 40 145V380Q40 419 52 449Q64 479 85.5 499.5Q107 520 136 530.5Q165 541 199 541Q270 541 307.5 500Q345 459 345 391V230H145V157Q145 76 223 76Q249 76 274.5 82.5Q300 89 319 97L339 21Q310 6 276 -2.5Q242 -11 203 -11ZM229 723H313V592H229ZM87 723H171V592H87Z" glyph-name="edieresis" horiz-adv-x="381" unicode="&#235;" /><glyph d="M149 724H238V592H149ZM251 306V396Q251 419 239 438Q227 457 198 457Q169 457 157 437.5Q145 418 145 395V306ZM203 -11Q130 -11 85 27.5Q40 66 40 145V380Q40 419 52 449Q64 479 85.5 499.5Q107 520 136 530.5Q165 541 199 541Q270 541 307.5 500Q345 459 345 391V230H145V157Q145 76 223 76Q249 76 274.5 82.5Q300 89 319 97L339 21Q310 6 276 -2.5Q242 -11 203 -11Z" glyph-name="edotaccent" horiz-adv-x="381" unicode="&#279;" /><glyph d="M75 730H182L250 584H173ZM251 306V396Q251 419 239 438Q227 457 198 457Q169 457 157 437.5Q145 418 145 395V306ZM203 -11Q130 -11 85 27.5Q40 66 40 145V380Q40 419 52 449Q64 479 85.5 499.5Q107 520 136 530.5Q165 541 199 541Q270 541 307.5 500Q345 459 345 391V230H145V157Q145 76 223 76Q249 76 274.5 82.5Q300 89 319 97L339 21Q310 6 276 -2.5Q242 -11 203 -11Z" glyph-name="egrave" horiz-adv-x="381" unicode="&#232;" /><glyph d="M203 405Q231 405 246 423Q261 441 261 465V582Q261 608 244.5 622.5Q228 637 203 637Q177 637 161 622Q145 607 145 583V464Q145 438 161.5 421.5Q178 405 203 405ZM203 77Q233 77 247.5 93.5Q262 110 262 136V267Q262 294 245 310.5Q228 327 203 327Q177 327 160 311Q143 295 143 269V135Q143 111 158.5 94Q174 77 203 77ZM201 -10Q165 -10 135 -1Q105 8 83 26.5Q61 45 48.5 72.5Q36 100 36 136V255Q36 293 53 321.5Q70 350 99 365Q71 379 57 407.5Q43 436 43 467V578Q43 614 55.5 641Q68 668 89.5 687Q111 706 140.5 715.5Q170 725 203 725Q236 725 264.5 716Q293 707 315 689.5Q337 672 349.5 645.5Q362 619 362 583V472Q362 436 347 408.5Q332 381 304 365Q332 352 350 325Q368 298 368 260V137Q368 101 355.5 73.5Q343 46 320.5 27.5Q298 9 267.5 -0.5Q237 -10 201 -10Z" glyph-name="eight" horiz-adv-x="404" unicode="8" /><glyph d="M212 405Q240 405 255 423Q270 441 270 465V582Q270 608 253.5 622.5Q237 637 212 637Q186 637 170 622Q154 607 154 583V464Q154 438 170.5 421.5Q187 405 212 405ZM212 77Q242 77 256.5 93.5Q271 110 271 136V267Q271 294 254 310.5Q237 327 212 327Q186 327 169 311Q152 295 152 269V135Q152 111 167.5 94Q183 77 212 77ZM210 -10Q174 -10 144 -1Q114 8 92 26.5Q70 45 57.5 72.5Q45 100 45 136V255Q45 293 62 321.5Q79 350 108 365Q80 379 66 407.5Q52 436 52 467V578Q52 614 64.5 641Q77 668 98.5 687Q120 706 149.5 715.5Q179 725 212 725Q245 725 273.5 716Q302 707 324 689.5Q346 672 358.5 645.5Q371 619 371 583V472Q371 436 356 408.5Q341 381 313 365Q341 352 359 325Q377 298 377 260V137Q377 101 364.5 73.5Q352 46 329.5 27.5Q307 9 276.5 -0.5Q246 -10 210 -10Z" glyph-name="eight.LT" horiz-adv-x="423" unicode="&#58696;" /><glyph d="M136 228Q151 228 159.5 236.5Q168 245 168 259V312Q168 327 158.5 335Q149 343 135 343Q122 343 112.5 335Q103 327 103 314V259Q103 245 112.5 236.5Q122 228 136 228ZM136 49Q152 49 160.5 58Q169 67 169 81V139Q169 155 159 163Q149 171 136 171Q122 171 112 163Q102 155 102 141V80Q102 66 111.5 57.5Q121 49 136 49ZM136 -11Q88 -11 57.5 11.5Q27 34 27 82V133Q27 156 37 172.5Q47 189 64 200Q48 209 39.5 226Q31 243 31 260V310Q31 355 61 378.5Q91 402 136 402Q180 402 210.5 380Q241 358 241 312V263Q241 243 232 226.5Q223 210 207 200Q223 191 234 174Q245 157 245 136V81Q245 36 213.5 12.5Q182 -11 136 -11Z" glyph-name="eight.dnom" horiz-adv-x="272" unicode="&#58378;" /><glyph d="M136 546Q151 546 159.5 554.5Q168 563 168 577V630Q168 645 158.5 653Q149 661 135 661Q122 661 112.5 653Q103 645 103 632V577Q103 563 112.5 554.5Q122 546 136 546ZM136 367Q152 367 160.5 376Q169 385 169 399V457Q169 473 159 481Q149 489 136 489Q122 489 112 481Q102 473 102 459V398Q102 384 111.5 375.5Q121 367 136 367ZM136 307Q88 307 57.5 329.5Q27 352 27 400V451Q27 474 37 490.5Q47 507 64 518Q48 527 39.5 544Q31 561 31 578V628Q31 673 61 696.5Q91 720 136 720Q180 720 210.5 698Q241 676 241 630V581Q241 561 232 544.5Q223 528 207 518Q223 509 234 492Q245 475 245 454V399Q245 354 213.5 330.5Q182 307 136 307Z" glyph-name="eight.numr" horiz-adv-x="272" unicode="&#58398;" /><glyph d="M384 137H484V0H384ZM213 137H313V0H213ZM41 137H141V0H41Z" glyph-name="ellipsis" horiz-adv-x="525" unicode="&#8230;" /><glyph d="M87 675H302V598H87ZM251 306V396Q251 419 239 438Q227 457 198 457Q169 457 157 437.5Q145 418 145 395V306ZM203 -11Q130 -11 85 27.5Q40 66 40 145V380Q40 419 52 449Q64 479 85.5 499.5Q107 520 136 530.5Q165 541 199 541Q270 541 307.5 500Q345 459 345 391V230H145V157Q145 76 223 76Q249 76 274.5 82.5Q300 89 319 97L339 21Q310 6 276 -2.5Q242 -11 203 -11Z" glyph-name="emacron" horiz-adv-x="381" unicode="&#275;" /><glyph d="M0 339H624V268H0Z" glyph-name="emdash" horiz-adv-x="624" unicode="&#8212;" /><glyph d="M0 339H365V268H0Z" glyph-name="endash" horiz-adv-x="365" unicode="&#8211;" /><glyph d="M254 -169Q240 -169 229 -168Q218 -167 206 -165V-83Q208 -84 216 -84Q224 -84 227 -84Q247 -84 254.5 -72.5Q262 -61 262 -40V396Q262 421 251 437Q240 453 214 453Q188 453 171 428.5Q154 404 154 373V0H50V530H151V478H153Q171 509 199.5 525Q228 541 263 541Q307 541 336.5 513Q366 485 366 437V-54Q366 -108 336 -138.5Q306 -169 254 -169Z" glyph-name="eng" horiz-adv-x="412" unicode="&#331;" /><glyph d="M251 306V396Q251 419 239 438Q227 457 198 457Q169 457 157 437.5Q145 418 145 395V306ZM203 -11Q130 -11 85 27.5Q40 66 40 145V380Q40 419 52 449Q64 479 85.5 499.5Q107 520 136 530.5Q165 541 199 541Q270 541 307.5 500Q345 459 345 391V230H145V157Q145 76 223 76Q249 76 274.5 82.5Q300 89 319 97L339 21L317 10Q294 -5 280.5 -28.5Q267 -52 267 -82Q267 -105 279.5 -116Q292 -127 311 -127Q324 -127 337 -123Q350 -119 360 -112L388 -166Q372 -177 351 -185Q330 -193 297 -193Q258 -193 228 -171Q198 -149 198 -102Q198 -73 209 -50Q220 -27 238 -9Q229 -10 220.5 -10.5Q212 -11 203 -11Z" glyph-name="eogonek" horiz-adv-x="381" unicode="&#281;" /><glyph d="M43 428H375V352H43ZM43 275H375V200H43Z" glyph-name="equal" horiz-adv-x="419" unicode="=" /><glyph d="M200 75Q233 75 244 93.5Q255 112 255 137V385Q255 411 242.5 428.5Q230 446 201 446Q172 446 158.5 428Q145 410 145 384V134Q145 110 158 92.5Q171 75 200 75ZM40 633 115 649 81 706 186 729 219 671 291 686 318 629 252 614 338 464Q347 449 353 428Q359 407 359 383V144Q359 105 347 76Q335 47 313.5 28Q292 9 262.5 -0.5Q233 -10 199 -10Q130 -10 85 27Q40 64 40 142V379Q40 445 75 484.5Q110 524 169 529Q171 529 177 528.5Q183 528 188 526L149 592L67 574Z" glyph-name="eth" horiz-adv-x="395" unicode="&#240;" /><glyph d="M50 137H151V0H50ZM50 449V714H153V449L137 201H67Z" glyph-name="exclam" horiz-adv-x="202" unicode="!" /><glyph d="M153 424H52V561H153ZM153 112V-153H50V112L66 360H136Z" glyph-name="exclamdown" horiz-adv-x="202" unicode="&#161;" /><glyph d="M81 445H31V526H81V611Q81 663 113 692.5Q145 722 198 722Q212 722 228.5 721Q245 720 260 715V637Q251 639 242 639.5Q233 640 221 640Q206 640 195.5 629.5Q185 619 185 598V526H247V445H185V0H81Z" glyph-name="f" horiz-adv-x="276" unicode="f" /><glyph d="M79 445H29V526H79V611Q79 663 111 692.5Q143 722 196 722Q210 722 226.5 721Q243 720 258 715V637Q249 639 240 639.5Q231 640 219 640Q204 640 193.5 629.5Q183 619 183 598V526H245V445H183V0H79ZM306 728H410V605H306ZM306 530H410V0H306Z" glyph-name="fi" horiz-adv-x="455" unicode="&#64257;" /><glyph d="M197 -11Q119 -11 79 31Q39 73 39 140V199H138V149Q138 120 153 100.5Q168 81 197 81Q225 81 241 101.5Q257 122 257 163V300Q257 336 242 355.5Q227 375 198 375Q178 375 163.5 363Q149 351 139 335L47 341L61 713H340V620H148Q148 620 147.5 597.5Q147 575 146 544Q145 513 143.5 479.5Q142 446 141 423Q161 440 184.5 449Q208 458 237 458Q262 458 285 450.5Q308 443 325 426Q342 409 352 382.5Q362 356 362 318V160Q362 119 349.5 87Q337 55 315 33.5Q293 12 262.5 0.5Q232 -11 197 -11Z" glyph-name="five" horiz-adv-x="402" unicode="5" /><glyph d="M208 -11Q130 -11 90 31Q50 73 50 140V199H149V149Q149 120 164 100.5Q179 81 208 81Q236 81 252 101.5Q268 122 268 163V300Q268 336 253 355.5Q238 375 209 375Q189 375 174.5 363Q160 351 150 335L58 341L72 713H351V620H159Q159 620 158.5 597.5Q158 575 157 544Q156 513 154.5 479.5Q153 446 152 423Q172 440 195.5 449Q219 458 248 458Q273 458 296 450.5Q319 443 336 426Q353 409 363 382.5Q373 356 373 318V160Q373 119 360.5 87Q348 55 326 33.5Q304 12 273.5 0.5Q243 -11 208 -11Z" glyph-name="five.LT" horiz-adv-x="423" unicode="&#58693;" /><glyph d="M133 -11Q83 -11 55 13.5Q27 38 27 80V116H101V87Q101 71 109.5 61Q118 51 134 51Q166 51 166 93V158Q166 196 134 196Q123 196 115 189.5Q107 183 102 175L32 181L40 396H227V329H105Q105 326 104.5 311Q104 296 103 278.5Q102 261 101.5 246Q101 231 101 228Q125 250 160 250Q176 250 191 245.5Q206 241 218 231Q230 221 237 205Q244 189 244 166V91Q244 66 235 47Q226 28 210.5 15Q195 2 175 -4.5Q155 -11 133 -11Z" glyph-name="five.dnom" horiz-adv-x="271" unicode="&#58375;" /><glyph d="M133 307Q83 307 55 331.5Q27 356 27 398V434H101V405Q101 389 109.5 379Q118 369 134 369Q166 369 166 411V476Q166 514 134 514Q123 514 115 507.5Q107 501 102 493L32 499L40 714H227V647H105Q105 644 104.5 629Q104 614 103 596.5Q102 579 101.5 564Q101 549 101 546Q125 568 160 568Q176 568 191 563.5Q206 559 218 549Q230 539 237 523Q244 507 244 484V409Q244 384 235 365Q226 346 210.5 333Q195 320 175 313.5Q155 307 133 307Z" glyph-name="five.numr" horiz-adv-x="271" unicode="&#58395;" /><glyph d="M79 445H29V526H79V611Q79 663 111 692.5Q143 722 196 722Q210 722 226.5 721Q243 720 258 715V637Q249 639 240 639.5Q231 640 219 640Q204 640 193.5 629.5Q183 619 183 598V526H245V445H183V0H79ZM403 -7Q351 -7 328 19Q305 45 305 87V713H409V118Q409 106 415.5 97.5Q422 89 439 89Q445 89 451 89.5Q457 90 465 91V4Q451 -2 435 -4.5Q419 -7 403 -7Z" glyph-name="fl" horiz-adv-x="486" unicode="&#64258;" /><glyph d="M62 -170Q31 -170 9 -164L14 -81Q16 -81 24.5 -81.5Q33 -82 37 -82Q57 -82 63 -70.5Q69 -59 71 -38L102 405H49L54 489H107L115 607Q119 661 151 693Q183 725 236 725Q250 725 267.5 723Q285 721 300 716L294 637Q288 638 276 638.5Q264 639 256 639Q240 639 229.5 629Q219 619 217 599L209 489H273L268 405H205L174 -51Q172 -106 143.5 -138Q115 -170 62 -170Z" glyph-name="florin" horiz-adv-x="306" unicode="&#402;" /><glyph d="M226 172H26V256L192 713H304L124 263H226V388L324 457V263H376V172H324V0H226Z" glyph-name="four" horiz-adv-x="407" unicode="4" /><glyph d="M236 172H36V256L202 713H314L134 263H236V388L334 457V263H386V172H334V0H236Z" glyph-name="four.LT" horiz-adv-x="423" unicode="&#58692;" /><glyph d="M145 91H16V148L126 399H205L89 153H145V214L218 269V153H250V91H218V0H145Z" glyph-name="four.dnom" horiz-adv-x="265" unicode="&#58374;" /><glyph d="M145 409H16V466L126 717H205L89 471H145V532L218 587V471H250V409H218V318H145Z" glyph-name="four.numr" horiz-adv-x="265" unicode="&#58394;" /><glyph d="M166 716H221L-76 -2H-132Z" glyph-name="fraction" horiz-adv-x="91" unicode="&#8260;" /><glyph d="M194 99Q218 99 235.5 120.5Q253 142 253 174V384Q253 417 234 437.5Q215 458 192 458Q170 458 157 442.5Q144 427 144 398V156Q144 133 155.5 116Q167 99 194 99ZM183 -170Q142 -170 110.5 -163.5Q79 -157 50 -144L77 -63Q105 -74 128 -79Q151 -84 177 -84Q254 -84 254 -8V80H252Q236 48 208 32Q180 16 154 16Q125 16 103.5 25.5Q82 35 68 51.5Q54 68 47 90Q40 112 40 137V411Q40 470 74.5 505Q109 540 163 540Q189 540 216.5 527Q244 514 258 486H259L260 532H357V-1Q357 -86 311 -128Q265 -170 183 -170Z" glyph-name="g" horiz-adv-x="407" unicode="g" /><glyph d="M200 586Q140 586 106 620.5Q72 655 71 724H142Q146 692 157 671Q168 650 203 650Q231 650 243.5 669.5Q256 689 257 724H326Q324 652 288 619Q252 586 200 586ZM194 99Q218 99 235.5 120.5Q253 142 253 174V384Q253 417 234 437.5Q215 458 192 458Q170 458 157 442.5Q144 427 144 398V156Q144 133 155.5 116Q167 99 194 99ZM183 -170Q142 -170 110.5 -163.5Q79 -157 50 -144L77 -63Q105 -74 128 -79Q151 -84 177 -84Q254 -84 254 -8V80H252Q236 48 208 32Q180 16 154 16Q125 16 103.5 25.5Q82 35 68 51.5Q54 68 47 90Q40 112 40 137V411Q40 470 74.5 505Q109 540 163 540Q189 540 216.5 527Q244 514 258 486H259L260 532H357V-1Q357 -86 311 -128Q265 -170 183 -170Z" glyph-name="gbreve" horiz-adv-x="407" unicode="&#287;" /><glyph d="M194 99Q218 99 235.5 120.5Q253 142 253 174V384Q253 417 234 437.5Q215 458 192 458Q170 458 157 442.5Q144 427 144 398V156Q144 133 155.5 116Q167 99 194 99ZM183 -170Q142 -170 110.5 -163.5Q79 -157 50 -144L77 -63Q105 -74 128 -79Q151 -84 177 -84Q254 -84 254 -8V80H252Q236 48 208 32Q180 16 154 16Q125 16 103.5 25.5Q82 35 68 51.5Q54 68 47 90Q40 112 40 137V411Q40 470 74.5 505Q109 540 163 540Q189 540 216.5 527Q244 514 258 486H259L260 532H357V-1Q357 -86 311 -128Q265 -170 183 -170ZM166 733H243L326 585H243L202 666L162 585H82Z" glyph-name="gcircumflex" horiz-adv-x="407" unicode="&#285;" /><glyph d="M156 659 188 746H234L217 675H246V592H156ZM194 99Q218 99 235.5 120.5Q253 142 253 174V384Q253 417 234 437.5Q215 458 192 458Q170 458 157 442.5Q144 427 144 398V156Q144 133 155.5 116Q167 99 194 99ZM183 -170Q142 -170 110.5 -163.5Q79 -157 50 -144L77 -63Q105 -74 128 -79Q151 -84 177 -84Q254 -84 254 -8V80H252Q236 48 208 32Q180 16 154 16Q125 16 103.5 25.5Q82 35 68 51.5Q54 68 47 90Q40 112 40 137V411Q40 470 74.5 505Q109 540 163 540Q189 540 216.5 527Q244 514 258 486H259L260 532H357V-1Q357 -86 311 -128Q265 -170 183 -170Z" glyph-name="gcommaaccent" horiz-adv-x="407" unicode="&#291;" /><glyph d="M153 724H242V592H153ZM194 99Q218 99 235.5 120.5Q253 142 253 174V384Q253 417 234 437.5Q215 458 192 458Q170 458 157 442.5Q144 427 144 398V156Q144 133 155.5 116Q167 99 194 99ZM183 -170Q142 -170 110.5 -163.5Q79 -157 50 -144L77 -63Q105 -74 128 -79Q151 -84 177 -84Q254 -84 254 -8V80H252Q236 48 208 32Q180 16 154 16Q125 16 103.5 25.5Q82 35 68 51.5Q54 68 47 90Q40 112 40 137V411Q40 470 74.5 505Q109 540 163 540Q189 540 216.5 527Q244 514 258 486H259L260 532H357V-1Q357 -86 311 -128Q265 -170 183 -170Z" glyph-name="gdotaccent" horiz-adv-x="407" unicode="&#289;" /><glyph d="M293 -6Q269 -6 247.5 -3Q226 0 209 7L222 89Q234 85 246.5 82.5Q259 80 270 80Q286 80 296.5 88Q307 96 313 108Q319 120 321 135Q323 150 323 165Q323 220 295.5 260.5Q268 301 230 318V399H240Q253 412 264.5 430.5Q276 449 284 469Q292 489 296.5 509Q301 529 301 547Q301 583 285.5 609.5Q270 636 240 636Q208 636 193.5 610.5Q179 585 179 551V0H75V445H26V526H75V549Q75 586 85.5 618Q96 650 117.5 672.5Q139 695 171.5 708Q204 721 248 721Q288 721 317.5 708.5Q347 696 367 674.5Q387 653 397 624Q407 595 407 562Q407 511 387.5 458.5Q368 406 327 373V371Q375 333 401 277Q427 221 427 164Q427 130 419 99.5Q411 69 394.5 45.5Q378 22 352.5 8Q327 -6 293 -6Z" glyph-name="germandbls" horiz-adv-x="452" unicode="&#223;" /><glyph d="M26 730H133L201 584H124Z" glyph-name="grave" horiz-adv-x="234" unicode="`" /><glyph d="M50 218 265 320Q261 322 245 330Q229 338 206 348.5Q183 359 157.5 371Q132 383 109 393.5Q86 404 70 412Q54 420 50 422L83 488L370 349V291L83 151Z" glyph-name="greater" horiz-adv-x="419" unicode="&gt;" /><glyph d="M47 133H377V58H47ZM52 254 272 353Q267 355 250 362.5Q233 370 210 380Q187 390 161 401.5Q135 413 112 423Q89 433 72 440.5Q55 448 50 450L83 515L372 381V325L85 189Z" glyph-name="greaterequal" horiz-adv-x="423" unicode="&#8805;" /><glyph d="M181 274 289 424 345 390 288 275 348 158 290 126ZM20 274 129 427 185 394 127 275 188 155 130 123Z" glyph-name="guillemotleft" horiz-adv-x="379" unicode="&#171;" /><glyph d="M182 157 240 276 180 395 238 427 348 276 239 123ZM22 160 79 276 20 392 78 424 187 276 79 126Z" glyph-name="guillemotright" horiz-adv-x="379" unicode="&#187;" /><glyph d="M24 274 132 427 189 394 131 275 191 155 134 123Z" glyph-name="guilsinglleft" horiz-adv-x="220" unicode="&#8249;" /><glyph d="M26 157 84 276 24 395 82 427 192 276 83 123Z" glyph-name="guilsinglright" horiz-adv-x="221" unicode="&#8250;" /><glyph d="M50 713H154V478H155Q192 541 263 541Q307 541 336.5 513Q366 485 366 437V0H262V396Q262 421 251 437Q240 453 214 453Q201 453 190 446Q179 439 171 428Q163 417 158.5 402Q154 387 154 372V0H50Z" glyph-name="h" horiz-adv-x="412" unicode="h" /><glyph d="M20 658H53V713H157V658H236V592H157V478H158Q195 541 266 541Q310 541 339.5 513Q369 485 369 437V0H265V396Q265 421 254 437Q243 453 217 453Q204 453 193 446Q182 439 174 428Q166 417 161.5 402Q157 387 157 372V0H53V592H20Z" glyph-name="hbar" horiz-adv-x="415" unicode="&#295;" /><glyph d="M50 713H154V478H155Q192 541 263 541Q307 541 336.5 513Q366 485 366 437V0H262V396Q262 421 251 437Q240 453 214 453Q201 453 190 446Q179 439 171 428Q163 417 158.5 402Q154 387 154 372V0H50ZM73 910H150L233 762H150L109 843L69 762H-11Z" glyph-name="hcircumflex" horiz-adv-x="412" unicode="&#293;" /><glyph d="M236 724H325L256 586H183ZM98 724H188L122 586H48Z" glyph-name="hungarumlaut" horiz-adv-x="375" unicode="&#733;" /><glyph d="M25 341H208V258H25Z" glyph-name="hyphen" horiz-adv-x="234" unicode="-" /><glyph d="M50 728H154V605H50ZM50 530H154V0H50Z" glyph-name="i" horiz-adv-x="204" unicode="i" /><glyph d="M50 530H154V0H50ZM130 730H237L139 584H62Z" glyph-name="iacute" horiz-adv-x="204" unicode="&#237;" /><glyph d="M104 586Q44 586 10 620.5Q-24 655 -25 724H46Q50 692 61 671Q72 650 107 650Q135 650 147.5 669.5Q160 689 161 724H230Q228 652 192 619Q156 586 104 586ZM50 530H154V0H50Z" glyph-name="ibreve" horiz-adv-x="204" unicode="&#301;" /><glyph d="M50 530H154V0H50ZM66 733H143L226 585H143L102 666L62 585H-18Z" glyph-name="icircumflex" horiz-adv-x="204" unicode="&#238;" /><glyph d="M50 530H154V0H50ZM133 723H217V592H133ZM-9 723H75V592H-9Z" glyph-name="idieresis" horiz-adv-x="204" unicode="&#239;" /><glyph d="M50 728H154V605H50ZM50 530H154V0H50Z" glyph-name="idotaccent" horiz-adv-x="204" /><glyph d="M-34 730H73L141 584H64ZM50 530H154V0H50Z" glyph-name="igrave" horiz-adv-x="204" unicode="&#236;" /><glyph d="M238 728H342V605H238ZM230 -169Q216 -169 205 -168Q194 -167 182 -165V-83Q184 -84 192 -84Q200 -84 203 -84Q223 -84 230.5 -72.5Q238 -61 238 -40V530H342V-54Q342 -108 312 -138.5Q282 -169 230 -169ZM50 728H154V605H50ZM50 530H154V0H50Z" glyph-name="ij" horiz-adv-x="390" unicode="&#307;" /><glyph d="M-5 675H210V598H-5ZM50 530H154V0H50Z" glyph-name="imacron" horiz-adv-x="204" unicode="&#299;" /><glyph d="M455 248Q488 248 509.5 270Q531 292 531 324Q531 355 514.5 375.5Q498 396 462 396Q436 396 407 373Q378 350 351 322Q372 293 397 270.5Q422 248 455 248ZM164 251Q195 251 223 273Q251 295 277 324Q268 337 256.5 351Q245 365 231.5 376Q218 387 202.5 394Q187 401 171 401Q140 401 119 380Q98 359 98 330Q98 298 115 274.5Q132 251 164 251ZM456 186Q407 186 372 211Q337 236 311 268Q282 236 245.5 212.5Q209 189 166 189Q134 189 108.5 199.5Q83 210 65 228Q47 246 37.5 270.5Q28 295 28 323Q28 353 39 378Q50 403 69 421.5Q88 440 113.5 450Q139 460 169 460Q214 460 250.5 437Q287 414 317 379Q344 406 381 430.5Q418 455 463 455Q524 455 562 422Q600 389 600 329Q600 298 589.5 271.5Q579 245 559.5 226Q540 207 513.5 196.5Q487 186 456 186Z" glyph-name="infinity" horiz-adv-x="628" unicode="&#8734;" /><glyph d="M59 -170Q31 -170 -1 -162L6 -81Q12 -83 21 -83.5Q30 -84 36 -84Q56 -84 62.5 -72Q69 -60 71 -40L116 610Q120 660 150.5 693.5Q181 727 235 727Q249 727 266 726Q283 725 298 720L291 639Q285 641 272.5 641.5Q260 642 252 642Q236 642 226 632Q216 622 214 602L169 -51Q165 -105 138 -137.5Q111 -170 59 -170Z" glyph-name="integral" horiz-adv-x="313" unicode="&#8747;" /><glyph d="M50 728H154V605H50ZM50 530H154V0H143Q117 -14 102.5 -35.5Q88 -57 88 -82Q88 -105 99.5 -115Q111 -125 129 -125Q137 -125 147.5 -122Q158 -119 169 -113L195 -169Q160 -192 113 -192Q76 -192 48 -170.5Q20 -149 20 -103Q20 -71 34 -45Q48 -19 68 0H50Z" glyph-name="iogonek" horiz-adv-x="204" unicode="&#303;" /><glyph d="M-42 601Q-36 643 -14.5 673.5Q7 704 43 704Q58 704 73 699.5Q88 695 102.5 689.5Q117 684 131.5 679.5Q146 675 160 675Q174 675 181.5 684.5Q189 694 195 712L247 699Q244 679 237.5 660.5Q231 642 220 628Q209 614 194.5 605.5Q180 597 161 597Q147 597 131.5 601.5Q116 606 101 611.5Q86 617 72.5 621.5Q59 626 47 626Q33 626 25.5 618Q18 610 13 589ZM50 530H154V0H50Z" glyph-name="itilde" horiz-adv-x="204" unicode="&#297;" /><glyph d="M54 728H158V605H54ZM46 -169Q32 -169 21 -168Q10 -167 -2 -165V-83Q0 -84 8 -84Q16 -84 19 -84Q39 -84 46.5 -72.5Q54 -61 54 -40V530H158V-54Q158 -108 128 -138.5Q98 -169 46 -169Z" glyph-name="j" horiz-adv-x="206" unicode="j" /><glyph d="M65 733H142L225 585H142L101 666L61 585H-19ZM46 -169Q32 -169 21 -168Q10 -167 -2 -165V-83Q0 -84 8 -84Q16 -84 19 -84Q39 -84 46.5 -72.5Q54 -61 54 -40V530H158V-54Q158 -108 128 -138.5Q98 -169 46 -169Z" glyph-name="jcircumflex" horiz-adv-x="206" unicode="&#309;" /><glyph d="M50 713H154V302L267 530H372L276 348L372 0H262L196 259L154 184V0H50Z" glyph-name="k" horiz-adv-x="388" unicode="k" /><glyph d="M50 713H154V302L267 530H372L276 348L372 0H262L196 259L154 184V0H50ZM164 -36H258L229 -183H157Z" glyph-name="kcommaaccent" horiz-adv-x="388" unicode="&#311;" /><glyph d="M50 530H154V302L267 530H372L276 348L372 0H262L196 259L154 184V0H50Z" glyph-name="kgreenlandic" horiz-adv-x="388" unicode="&#312;" /><glyph d="M146 -7Q94 -7 71 19Q48 45 48 87V713H152V118Q152 106 158.5 97.5Q165 89 182 89Q188 89 194 89.5Q200 90 208 91V4Q194 -2 178 -4.5Q162 -7 146 -7Z" glyph-name="l" horiz-adv-x="227" unicode="l" /><glyph d="M146 -7Q94 -7 71 19Q48 45 48 87V713H152V118Q152 106 158.5 97.5Q165 89 182 89Q188 89 194 89.5Q200 90 208 91V4Q194 -2 178 -4.5Q162 -7 146 -7ZM130 907H237L139 761H62Z" glyph-name="lacute" horiz-adv-x="227" unicode="&#314;" /><glyph d="M146 -7Q94 -7 71 19Q48 45 48 87V713H152V118Q152 106 158.5 97.5Q165 89 182 89Q188 89 194 89.5Q200 90 208 91V4Q194 -2 178 -4.5Q162 -7 146 -7ZM187 713H273L242 540H182Z" glyph-name="lcaron" horiz-adv-x="227" unicode="&#318;" /><glyph d="M146 -7Q94 -7 71 19Q48 45 48 87V713H152V118Q152 106 158.5 97.5Q165 89 182 89Q188 89 194 89.5Q200 90 208 91V4Q194 -2 178 -4.5Q162 -7 146 -7ZM70 -36H164L135 -183H63Z" glyph-name="lcommaaccent" horiz-adv-x="227" unicode="&#316;" /><glyph d="M197 450H287V325H197ZM146 -7Q94 -7 71 19Q48 45 48 87V713H152V118Q152 106 158.5 97.5Q165 89 182 89Q188 89 194 89.5Q200 90 208 91V4Q194 -2 178 -4.5Q162 -7 146 -7Z" glyph-name="ldot" horiz-adv-x="286" unicode="&#320;" /><glyph d="M49 291V348L336 488L369 421L154 320Q158 318 174 310Q190 302 213 291Q236 280 261.5 268Q287 256 310 245Q333 234 349 226.5Q365 219 369 217L335 151Z" glyph-name="less" horiz-adv-x="419" unicode="&lt;" /><glyph d="M46 133H376V58H46ZM52 325V381L341 515L373 450L151 353L371 254L338 189Z" glyph-name="lessequal" horiz-adv-x="423" unicode="&#8804;" /><glyph d="M337 279H33V351H413V166H337Z" glyph-name="logicalnot" horiz-adv-x="453" unicode="&#172;" /><glyph d="M301 342 204 588 115 349 210 114ZM31 337V353L176 714H238L383 353V338L238 -3H176Z" glyph-name="lozenge" horiz-adv-x="414" unicode="&#9674;" /><glyph d="M20 343 58 379V713H162V479L211 526V439L162 392V118Q162 106 168.5 97.5Q175 89 192 89Q198 89 204 89.5Q210 90 218 91V4Q204 -2 188 -4.5Q172 -7 156 -7Q104 -7 81 19Q58 45 58 87V292L20 256Z" glyph-name="lslash" horiz-adv-x="237" unicode="&#322;" /><glyph d="M50 530H151V477H153Q170 509 199 525Q228 541 263 541Q298 541 323.5 524.5Q349 508 359 476H361Q382 509 411.5 525Q441 541 476 541Q519 541 549 513Q579 485 579 437V0H475V396Q475 421 463.5 437Q452 453 426 453Q400 453 383.5 430.5Q367 408 366 378V0H262V397Q262 421 251 437Q240 453 214 453Q188 453 171 428.5Q154 404 154 373V0H50Z" glyph-name="m" horiz-adv-x="625" unicode="m" /><glyph d="M56 675H271V598H56Z" glyph-name="macron" horiz-adv-x="326" unicode="&#175;" /><glyph d="M48 356H374V282H48Z" glyph-name="minus" horiz-adv-x="423" unicode="&#8722;" /><glyph d="M43 529H148V136Q148 110 161 94Q174 78 200 78Q223 78 242.5 97.5Q262 117 262 155V529H367V157Q367 133 374 119.5Q381 106 400 101V-3Q363 2 336 17.5Q309 33 300 68Q289 35 266 12Q243 -11 204 -11Q177 -11 151 3.5Q125 18 117 48L113 47L145 -169L43 -179Z" glyph-name="mu" horiz-adv-x="421" unicode="&#181;" /><glyph d="M47 205 160 320Q152 328 136 344Q120 360 102.5 377.5Q85 395 69 411Q53 427 45 435L98 488L212 373Q217 378 234 395Q251 412 269.5 430.5Q288 449 304.5 466Q321 483 326 488L378 435L264 321Q272 313 288 297Q304 281 321 263.5Q338 246 354 230Q370 214 378 206L326 153L212 268L98 152Z" glyph-name="multiply" horiz-adv-x="423" unicode="&#215;" /><glyph d="M50 530H151V478H153Q171 509 199.5 525Q228 541 263 541Q307 541 336.5 513Q366 485 366 437V0H262V396Q262 421 251 437Q240 453 214 453Q188 453 171 428.5Q154 404 154 373V0H50Z" glyph-name="n" horiz-adv-x="412" unicode="n" /><glyph d="M50 530H151V478H153Q171 509 199.5 525Q228 541 263 541Q307 541 336.5 513Q366 485 366 437V0H262V396Q262 421 251 437Q240 453 214 453Q188 453 171 428.5Q154 404 154 373V0H50ZM241 729H348L250 583H173Z" glyph-name="nacute" horiz-adv-x="412" unicode="&#324;" /><glyph d="M50 530H151V478H153Q171 509 199.5 525Q228 541 263 541Q307 541 336.5 513Q366 485 366 437V0H262V396Q262 421 251 437Q240 453 214 453Q188 453 171 428.5Q154 404 154 373V0H50ZM82 736H166L206 655L247 736H328L243 587H166Z" glyph-name="ncaron" horiz-adv-x="412" unicode="&#328;" /><glyph d="M50 530H151V478H153Q171 509 199.5 525Q228 541 263 541Q307 541 336.5 513Q366 485 366 437V0H262V396Q262 421 251 437Q240 453 214 453Q188 453 171 428.5Q154 404 154 373V0H50ZM163 -36H257L228 -183H156Z" glyph-name="ncommaaccent" horiz-adv-x="412" unicode="&#326;" /><glyph d="M197 353Q221 353 240 371.5Q259 390 259 418V575Q259 598 245 617.5Q231 637 201 637Q185 637 174 631Q163 625 156 616Q149 607 146 596Q143 585 143 574V409Q143 380 159 366.5Q175 353 197 353ZM203 -10Q130 -10 87.5 29Q45 68 45 134V190H146V143Q146 116 160 99Q174 82 201 82Q230 82 244.5 101Q259 120 259 147V325Q240 300 215 288Q190 276 162 276Q104 276 71.5 308.5Q39 341 39 398V572Q39 643 84.5 683.5Q130 724 204 724Q281 724 324.5 680.5Q368 637 368 567V161Q368 81 322 35.5Q276 -10 203 -10Z" glyph-name="nine" horiz-adv-x="409" unicode="9" /><glyph d="M205 353Q229 353 248 371.5Q267 390 267 418V575Q267 598 253 617.5Q239 637 209 637Q193 637 182 631Q171 625 164 616Q157 607 154 596Q151 585 151 574V409Q151 380 167 366.5Q183 353 205 353ZM211 -10Q138 -10 95.5 29Q53 68 53 134V190H154V143Q154 116 168 99Q182 82 209 82Q238 82 252.5 101Q267 120 267 147V325Q248 300 223 288Q198 276 170 276Q112 276 79.5 308.5Q47 341 47 398V572Q47 643 92.5 683.5Q138 724 212 724Q289 724 332.5 680.5Q376 637 376 567V161Q376 81 330 35.5Q284 -10 211 -10Z" glyph-name="nine.LT" horiz-adv-x="423" unicode="&#58697;" /><glyph d="M133 199Q145 199 155.5 208.5Q166 218 166 234V309Q166 322 158 331.5Q150 341 133 341Q116 341 109.5 331Q103 321 103 309V229Q103 213 111.5 206Q120 199 133 199ZM133 -11Q85 -11 57.5 13.5Q30 38 30 80V109H103V85Q103 69 112 60.5Q121 52 135 52Q150 52 158 61.5Q166 71 166 86V173Q155 161 138 154Q121 147 104 147Q67 147 46.5 168Q26 189 26 223V307Q26 352 57.5 377Q89 402 136 402Q183 402 213.5 377Q244 352 244 306V92Q244 40 211.5 14.5Q179 -11 133 -11Z" glyph-name="nine.dnom" horiz-adv-x="270" unicode="&#58379;" /><glyph d="M133 517Q145 517 155.5 526.5Q166 536 166 552V627Q166 640 158 649.5Q150 659 133 659Q116 659 109.5 649Q103 639 103 627V547Q103 531 111.5 524Q120 517 133 517ZM133 307Q85 307 57.5 331.5Q30 356 30 398V427H103V403Q103 387 112 378.5Q121 370 135 370Q150 370 158 379.5Q166 389 166 404V491Q155 479 138 472Q121 465 104 465Q67 465 46.5 486Q26 507 26 541V625Q26 670 57.5 695Q89 720 136 720Q183 720 213.5 695Q244 670 244 624V410Q244 358 211.5 332.5Q179 307 133 307Z" glyph-name="nine.numr" horiz-adv-x="270" unicode="&#58399;" /><glyph glyph-name="nonmarkingreturn" horiz-adv-x="149" /><glyph d="M121 124 146 200H46V274H172L200 353H46V427H227L256 508L314 491L292 427H377V353H266L237 274H377V200H211Q210 198 205 184Q200 170 194.5 153.5Q189 137 184 123.5Q179 110 179 108Z" glyph-name="notequal" horiz-adv-x="423" unicode="&#8800;" /><glyph d="M76 601Q82 643 103.5 673.5Q125 704 161 704Q176 704 191 699.5Q206 695 220.5 689.5Q235 684 249.5 679.5Q264 675 278 675Q292 675 299.5 684.5Q307 694 313 712L365 699Q362 679 355.5 660.5Q349 642 338 628Q327 614 312.5 605.5Q298 597 279 597Q265 597 249.5 601.5Q234 606 219 611.5Q204 617 190.5 621.5Q177 626 165 626Q151 626 143.5 618Q136 610 131 589ZM50 530H151V478H153Q171 509 199.5 525Q228 541 263 541Q307 541 336.5 513Q366 485 366 437V0H262V396Q262 421 251 437Q240 453 214 453Q188 453 171 428.5Q154 404 154 373V0H50Z" glyph-name="ntilde" horiz-adv-x="412" unicode="&#241;" /><glyph d="M245 256 267 472H182L161 256ZM92 189H23L29 256H98L121 472H50L56 538H126L145 716H206L188 538H273L291 716H352L334 538H403L398 472H328L306 256H376L371 189H300L282 -2H219L238 189H154L136 -2H74Z" glyph-name="numbersign" horiz-adv-x="422" unicode="#" /><glyph d="M239 256 262 472H177L155 256ZM87 189H22L28 256H93L116 472H49L55 538H121L140 716H201L183 538H267L286 716H347L329 538H394L388 472H323L301 256H366L361 189H295L276 -2H214L232 189H149L130 -2H69Z" glyph-name="numbersign.LP" horiz-adv-x="413" unicode="&#58675;" /><glyph d="M201 75Q233 75 244 94.5Q255 114 255 138V393Q255 419 241.5 437Q228 455 199 455Q170 455 157.5 436.5Q145 418 145 392V138Q145 112 158 93.5Q171 75 201 75ZM200 -10Q130 -10 85 28Q40 66 40 143V387Q40 424 53 453Q66 482 87.5 501.5Q109 521 138 531Q167 541 200 541Q233 541 262 532Q291 523 312.5 504Q334 485 347 457Q360 429 360 391V145Q360 105 347.5 76Q335 47 313 28Q291 9 262 -0.5Q233 -10 200 -10Z" glyph-name="o" horiz-adv-x="400" unicode="o" /><glyph d="M201 75Q233 75 244 94.5Q255 114 255 138V393Q255 419 241.5 437Q228 455 199 455Q170 455 157.5 436.5Q145 418 145 392V138Q145 112 158 93.5Q171 75 201 75ZM200 -10Q130 -10 85 28Q40 66 40 143V387Q40 424 53 453Q66 482 87.5 501.5Q109 521 138 531Q167 541 200 541Q233 541 262 532Q291 523 312.5 504Q334 485 347 457Q360 429 360 391V145Q360 105 347.5 76Q335 47 313 28Q291 9 262 -0.5Q233 -10 200 -10ZM225 730H332L234 584H157Z" glyph-name="oacute" horiz-adv-x="400" unicode="&#243;" /><glyph d="M201 586Q141 586 107 620.5Q73 655 72 724H143Q147 692 158 671Q169 650 204 650Q232 650 244.5 669.5Q257 689 258 724H327Q325 652 289 619Q253 586 201 586ZM201 75Q233 75 244 94.5Q255 114 255 138V393Q255 419 241.5 437Q228 455 199 455Q170 455 157.5 436.5Q145 418 145 392V138Q145 112 158 93.5Q171 75 201 75ZM200 -10Q130 -10 85 28Q40 66 40 143V387Q40 424 53 453Q66 482 87.5 501.5Q109 521 138 531Q167 541 200 541Q233 541 262 532Q291 523 312.5 504Q334 485 347 457Q360 429 360 391V145Q360 105 347.5 76Q335 47 313 28Q291 9 262 -0.5Q233 -10 200 -10Z" glyph-name="obreve" horiz-adv-x="400" unicode="&#335;" /><glyph d="M201 75Q233 75 244 94.5Q255 114 255 138V393Q255 419 241.5 437Q228 455 199 455Q170 455 157.5 436.5Q145 418 145 392V138Q145 112 158 93.5Q171 75 201 75ZM200 -10Q130 -10 85 28Q40 66 40 143V387Q40 424 53 453Q66 482 87.5 501.5Q109 521 138 531Q167 541 200 541Q233 541 262 532Q291 523 312.5 504Q334 485 347 457Q360 429 360 391V145Q360 105 347.5 76Q335 47 313 28Q291 9 262 -0.5Q233 -10 200 -10ZM166 733H243L326 585H243L202 666L162 585H82Z" glyph-name="ocircumflex" horiz-adv-x="400" unicode="&#244;" /><glyph d="M201 75Q233 75 244 94.5Q255 114 255 138V393Q255 419 241.5 437Q228 455 199 455Q170 455 157.5 436.5Q145 418 145 392V138Q145 112 158 93.5Q171 75 201 75ZM200 -10Q130 -10 85 28Q40 66 40 143V387Q40 424 53 453Q66 482 87.5 501.5Q109 521 138 531Q167 541 200 541Q233 541 262 532Q291 523 312.5 504Q334 485 347 457Q360 429 360 391V145Q360 105 347.5 76Q335 47 313 28Q291 9 262 -0.5Q233 -10 200 -10ZM230 723H314V592H230ZM88 723H172V592H88Z" glyph-name="odieresis" horiz-adv-x="400" unicode="&#246;" /><glyph d="M467 306V396Q467 420 455 438.5Q443 457 414 457Q385 457 373 438Q361 419 361 396V306ZM201 75Q233 75 244 94.5Q255 114 255 138V393Q255 419 241.5 437Q228 455 199 455Q170 455 157.5 436.5Q145 418 145 392V138Q145 112 158 93.5Q171 75 201 75ZM200 -11Q130 -11 85 27.5Q40 66 40 143V387Q40 424 53 453Q66 482 87.5 501.5Q109 521 138 531Q167 541 200 541Q232 541 260.5 531.5Q289 522 309 503Q329 521 356 531Q383 541 415 541Q486 541 523 500Q560 459 560 391V230H361V157Q361 76 438 76Q465 76 490 82.5Q515 89 534 97L555 21Q524 5 492.5 -3Q461 -11 420 -11Q347 -11 308 27Q287 8 259 -1.5Q231 -11 200 -11Z" glyph-name="oe" horiz-adv-x="597" unicode="&#339;" /><glyph d="M144 -193Q104 -193 74.5 -172Q45 -151 45 -105Q45 -80 53.5 -59Q62 -38 76.5 -20.5Q91 -3 109 9.5Q127 22 145 30L180 2Q146 -12 129.5 -34Q113 -56 113 -82Q113 -105 126 -116Q139 -127 157 -127Q171 -127 183.5 -122.5Q196 -118 207 -111L235 -164Q219 -175 197.5 -184Q176 -193 144 -193Z" glyph-name="ogonek" horiz-adv-x="267" unicode="&#731;" /><glyph d="M144 -193Q104 -193 74.5 -171Q45 -149 45 -102Q45 -77 53.5 -56Q62 -35 76.5 -18Q91 -1 108.5 11Q126 23 144 31L168 13Q142 -3 127.5 -27Q113 -51 113 -82Q113 -105 126 -116Q139 -127 157 -127Q184 -127 207 -112L234 -166Q219 -177 197.5 -185Q176 -193 144 -193Z" glyph-name="ogonekplus" horiz-adv-x="267" /><glyph d="M67 730H174L242 584H165ZM201 75Q233 75 244 94.5Q255 114 255 138V393Q255 419 241.5 437Q228 455 199 455Q170 455 157.5 436.5Q145 418 145 392V138Q145 112 158 93.5Q171 75 201 75ZM200 -10Q130 -10 85 28Q40 66 40 143V387Q40 424 53 453Q66 482 87.5 501.5Q109 521 138 531Q167 541 200 541Q233 541 262 532Q291 523 312.5 504Q334 485 347 457Q360 429 360 391V145Q360 105 347.5 76Q335 47 313 28Q291 9 262 -0.5Q233 -10 200 -10Z" glyph-name="ograve" horiz-adv-x="400" unicode="&#242;" /><glyph d="M201 75Q233 75 244 94.5Q255 114 255 138V393Q255 419 241.5 437Q228 455 199 455Q170 455 157.5 436.5Q145 418 145 392V138Q145 112 158 93.5Q171 75 201 75ZM200 -10Q130 -10 85 28Q40 66 40 143V387Q40 424 53 453Q66 482 87.5 501.5Q109 521 138 531Q167 541 200 541Q233 541 262 532Q291 523 312.5 504Q334 485 347 457Q360 429 360 391V145Q360 105 347.5 76Q335 47 313 28Q291 9 262 -0.5Q233 -10 200 -10ZM283 724H372L303 586H230ZM145 724H235L169 586H95Z" glyph-name="ohungarumlaut" horiz-adv-x="400" unicode="&#337;" /><glyph d="M201 75Q233 75 244 94.5Q255 114 255 138V393Q255 419 241.5 437Q228 455 199 455Q170 455 157.5 436.5Q145 418 145 392V138Q145 112 158 93.5Q171 75 201 75ZM200 -10Q130 -10 85 28Q40 66 40 143V387Q40 424 53 453Q66 482 87.5 501.5Q109 521 138 531Q167 541 200 541Q233 541 262 532Q291 523 312.5 504Q334 485 347 457Q360 429 360 391V145Q360 105 347.5 76Q335 47 313 28Q291 9 262 -0.5Q233 -10 200 -10ZM92 675H307V598H92Z" glyph-name="omacron" horiz-adv-x="400" unicode="&#333;" /><glyph d="M96 603 41 589 27 670 139 714H201V0H96Z" glyph-name="one" horiz-adv-x="276" unicode="1" /><glyph d="M162 603 107 589 93 670 205 714H267V0H162Z" glyph-name="one.LT" horiz-adv-x="423" unicode="&#58689;" /><glyph d="M74 326 38 316 28 372 105 400H148V0H74Z" glyph-name="one.dnom" horiz-adv-x="209" unicode="&#58371;" /><glyph d="M74 644 38 634 28 690 105 718H148V318H74Z" glyph-name="one.numr" horiz-adv-x="209" unicode="&#58391;" /><glyph d="M405 716H460L163 -2H107ZM362 49 440 162Q462 197 475.5 228Q489 259 489 288V294Q489 311 482.5 323.5Q476 336 459 336Q442 336 435.5 324.5Q429 313 429 296V273H356V300Q356 347 384 374Q412 401 461 401Q512 401 539 372.5Q566 344 566 293Q566 242 543.5 200.5Q521 159 493 119L458 64H568V0H362ZM99 642 63 632 53 688 130 716H173V316H99Z" glyph-name="onehalf" horiz-adv-x="614" unicode="&#189;" /><glyph d="M413 716H468L171 -2H115ZM464 91H335V148L445 399H524L408 153H464V214L537 269V153H569V91H537V0H464ZM101 642 65 632 55 688 132 716H175V316H101Z" glyph-name="onequarter" horiz-adv-x="614" unicode="&#188;" /><glyph d="M74 706 38 696 28 752 105 780H148V380H74Z" glyph-name="onesuperior" horiz-adv-x="209" unicode="&#185;" /><glyph d="M44 359H226V299H44ZM126 445Q138 445 147 455Q156 465 156 479V543H138Q121 543 109.5 531Q98 519 98 493Q98 467 105.5 456Q113 445 126 445ZM99 391Q70 391 49.5 413Q29 435 29 485Q29 534 60.5 559.5Q92 585 137 585H156V634Q156 645 149 652.5Q142 660 128 660Q113 660 106.5 652.5Q100 645 100 634V607H36V634Q36 671 62.5 692.5Q89 714 133 714Q177 714 201.5 692.5Q226 671 226 632V468Q226 459 226.5 448Q227 437 227.5 426.5Q228 416 229 408.5Q230 401 230 398H164Q164 398 161 428Q150 408 132 399.5Q114 391 99 391Z" glyph-name="ordfeminine" horiz-adv-x="270" unicode="&#170;" /><glyph d="M44 359H227V299H44ZM134 447Q151 447 158 456.5Q165 466 165 480V625Q165 639 157.5 648.5Q150 658 134 658Q117 658 110 648.5Q103 639 103 625V480Q103 466 110 456.5Q117 447 134 447ZM134 392Q89 392 60.5 414Q32 436 32 483V623Q32 668 62 691Q92 714 134 714Q175 714 205.5 692Q236 670 236 624V483Q236 436 206 414Q176 392 134 392Z" glyph-name="ordmasculine" horiz-adv-x="269" unicode="&#186;" /><glyph d="M201 75Q233 75 244 94.5Q255 114 255 138V345L162 89Q176 75 201 75ZM145 173 240 438Q225 455 199 455Q170 455 157.5 436.5Q145 418 145 392ZM70 -35 91 23Q67 42 53.5 71.5Q40 101 40 143V387Q40 424 53 453Q66 482 87.5 501.5Q109 521 138 531Q167 541 200 541Q241 541 273 528L291 578L334 564L312 504Q334 485 347 457Q360 429 360 391V145Q360 105 347.5 76Q335 47 313 28Q291 9 262 -0.5Q233 -10 200 -10Q162 -10 131 1L113 -49Z" glyph-name="oslash" horiz-adv-x="400" unicode="&#248;" /><glyph d="M201 75Q233 75 244 94.5Q255 114 255 138V345L162 89Q176 75 201 75ZM145 173 240 438Q225 455 199 455Q170 455 157.5 436.5Q145 418 145 392ZM70 -35 91 23Q67 42 53.5 71.5Q40 101 40 143V387Q40 424 53 453Q66 482 87.5 501.5Q109 521 138 531Q167 541 200 541Q241 541 273 528L291 578L334 564L312 504Q334 485 347 457Q360 429 360 391V145Q360 105 347.5 76Q335 47 313 28Q291 9 262 -0.5Q233 -10 200 -10Q162 -10 131 1L113 -49Z" glyph-name="oslashacute" horiz-adv-x="400" unicode="&#511;" /><glyph d="M57 601Q63 643 84.5 673.5Q106 704 142 704Q157 704 172 699.5Q187 695 201.5 689.5Q216 684 230.5 679.5Q245 675 259 675Q273 675 280.5 684.5Q288 694 294 712L346 699Q343 679 336.5 660.5Q330 642 319 628Q308 614 293.5 605.5Q279 597 260 597Q246 597 230.5 601.5Q215 606 200 611.5Q185 617 171.5 621.5Q158 626 146 626Q132 626 124.5 618Q117 610 112 589ZM201 75Q233 75 244 94.5Q255 114 255 138V393Q255 419 241.5 437Q228 455 199 455Q170 455 157.5 436.5Q145 418 145 392V138Q145 112 158 93.5Q171 75 201 75ZM200 -10Q130 -10 85 28Q40 66 40 143V387Q40 424 53 453Q66 482 87.5 501.5Q109 521 138 531Q167 541 200 541Q233 541 262 532Q291 523 312.5 504Q334 485 347 457Q360 429 360 391V145Q360 105 347.5 76Q335 47 313 28Q291 9 262 -0.5Q233 -10 200 -10Z" glyph-name="otilde" horiz-adv-x="400" unicode="&#245;" /><glyph d="M214 75Q237 75 250 88.5Q263 102 263 131V400Q263 424 251 439.5Q239 455 214 455Q188 455 171 434.5Q154 414 154 377V145Q154 113 171 94Q188 75 214 75ZM50 530H151V478H153Q170 509 199.5 524.5Q229 540 256 540Q286 540 307 530.5Q328 521 341.5 504.5Q355 488 361 465.5Q367 443 367 418V114Q367 61 335.5 25.5Q304 -10 245 -10Q220 -10 195 2Q170 14 156 39H154V-161H50Z" glyph-name="p" horiz-adv-x="407" unicode="p" /><glyph d="M166 234Q130 242 105 263Q80 284 64.5 314.5Q49 345 42 383.5Q35 422 35 465Q35 517 45.5 562.5Q56 608 78 642Q100 676 133.5 695Q167 714 214 714H405V653H360V-65H294V653H232V-65H166Z" glyph-name="paragraph" horiz-adv-x="435" unicode="&#182;" /><glyph d="M149 -172Q124 -129 104.5 -74Q85 -19 71.5 41Q58 101 51 162Q44 223 44 279Q44 337 51 397Q58 457 71.5 514.5Q85 572 104.5 625Q124 678 149 723L210 718Q192 660 178.5 611Q165 562 155.5 512Q146 462 141 406Q136 350 136 278Q136 158 156.5 48.5Q177 -61 210 -167Z" glyph-name="parenleft" horiz-adv-x="220" unicode="(" /><glyph d="M110 -71Q94 -47 81 -17Q68 13 59 46.5Q50 80 45 115Q40 150 40 183Q40 249 58 315Q76 381 110 430L148 429Q136 396 127.5 367.5Q119 339 113.5 310.5Q108 282 105 251Q102 220 102 182Q102 116 114 53.5Q126 -9 148 -69Z" glyph-name="parenleft.dnom" horiz-adv-x="161" unicode="&#58383;" /><glyph d="M110 247Q94 271 81 301Q68 331 59 364.5Q50 398 45 433Q40 468 40 501Q40 567 58 633Q76 699 110 748L148 747Q136 714 127.5 685.5Q119 657 113.5 628.5Q108 600 105 569Q102 538 102 500Q102 434 114 371.5Q126 309 148 249Z" glyph-name="parenleft.numr" horiz-adv-x="161" unicode="&#58403;" /><glyph d="M10 -167Q43 -61 63.5 48.5Q84 158 84 278Q84 350 79 406Q74 462 64.5 512Q55 562 41.5 611Q28 660 10 718L71 723Q96 678 115.5 625Q135 572 148.5 514.5Q162 457 169 397Q176 337 176 279Q176 223 169 162Q162 101 148.5 41Q135 -19 115.5 -74Q96 -129 71 -172Z" glyph-name="parenright" horiz-adv-x="220" unicode=")" /><glyph d="M22 -69Q44 -9 56 53.5Q68 116 68 182Q68 220 65 251Q62 282 56.5 310.5Q51 339 42.5 367.5Q34 396 22 429L61 430Q94 381 112.5 315Q131 249 131 183Q131 150 126 115Q121 80 112 46.5Q103 13 90 -17Q77 -47 61 -71Z" glyph-name="parenright.dnom" horiz-adv-x="161" unicode="&#58384;" /><glyph d="M22 249Q44 309 56 371.5Q68 434 68 500Q68 538 65 569Q62 600 56.5 628.5Q51 657 42.5 685.5Q34 714 22 747L61 748Q94 699 112.5 633Q131 567 131 501Q131 468 126 433Q121 398 112 364.5Q103 331 90 301Q77 271 61 247Z" glyph-name="parenright.numr" horiz-adv-x="161" unicode="&#58404;" /><glyph d="M200 75Q232 75 243 93.5Q254 112 254 137V385Q254 411 241.5 428.5Q229 446 201 446Q172 446 158.5 428Q145 410 145 384V134Q145 110 158 92.5Q171 75 200 75ZM199 -10Q129 -10 84.5 27Q40 64 40 142V379Q40 442 74 479Q108 516 159 526Q164 527 171 527.5Q178 528 186 526L77 708L188 720L333 473Q344 454 351.5 428.5Q359 403 359 376V144Q359 105 346.5 76Q334 47 312.5 28Q291 9 262 -0.5Q233 -10 199 -10Z" glyph-name="partialdiff" horiz-adv-x="394" unicode="&#8706;" /><glyph d="M449 50Q471 50 479 63.5Q487 77 487 92V256Q487 270 478 283Q469 296 449 296Q429 296 420 283Q411 270 411 256V91Q411 75 419.5 62.5Q428 50 449 50ZM449 -11Q403 -11 371 15.5Q339 42 339 93V245Q339 297 370 327.5Q401 358 449 358Q496 358 528 330Q560 302 560 250V94Q560 70 551 50.5Q542 31 527 17.5Q512 4 491.5 -3.5Q471 -11 449 -11ZM411 716H469L189 -2H129ZM144 418Q165 418 174 431Q183 444 183 459V623Q183 637 173.5 650Q164 663 144 663Q122 663 113.5 650.5Q105 638 105 623V458Q105 442 114 430Q123 418 144 418ZM144 356Q97 356 65.5 383Q34 410 34 461V616Q34 669 65 696.5Q96 724 144 724Q191 724 222.5 696.5Q254 669 254 617V460Q254 412 221.5 384Q189 356 144 356Z" glyph-name="percent" horiz-adv-x="594" unicode="%" /><glyph d="M41 137H142V0H41Z" glyph-name="period" horiz-adv-x="182" unicode="." /><glyph d="M39 94H114V0H39Z" glyph-name="period.dnom" horiz-adv-x="152" unicode="&#58382;" /><glyph d="M39 412H114V318H39Z" glyph-name="period.numr" horiz-adv-x="152" unicode="&#58402;" /><glyph d="M39 -39H114V-133H39Z" glyph-name="period.sub" horiz-adv-x="152" /><glyph d="M39 474H114V380H39Z" glyph-name="period.sup" horiz-adv-x="152" /><glyph d="M41 418H142V282H41Z" glyph-name="periodcentered" horiz-adv-x="182" unicode="&#8901;" /><glyph d="M449 50Q471 50 479 63.5Q487 77 487 92V256Q487 270 478 283Q469 296 449 296Q429 296 420 283Q411 270 411 256V91Q411 75 419.5 62.5Q428 50 449 50ZM449 -11Q403 -11 371 15.5Q339 42 339 93V245Q339 297 370 327.5Q401 358 449 358Q496 358 528 330Q560 302 560 250V94Q560 70 551 50.5Q542 31 527 17.5Q512 4 491.5 -3.5Q471 -11 449 -11ZM411 716H469L189 -2H129ZM144 418Q165 418 174 431Q183 444 183 459V623Q183 637 173.5 650Q164 663 144 663Q122 663 113.5 650.5Q105 638 105 623V458Q105 442 114 430Q123 418 144 418ZM144 356Q97 356 65.5 383Q34 410 34 461V616Q34 669 65 696.5Q96 724 144 724Q191 724 222.5 696.5Q254 669 254 617V460Q254 412 221.5 384Q189 356 144 356ZM709 50Q730 50 738.5 63.5Q747 77 747 92V256Q747 270 738 283Q729 296 709 296Q689 296 680 283Q671 270 671 256V91Q671 75 679.5 62.5Q688 50 709 50ZM709 -11Q663 -11 631 15.5Q599 42 599 93V245Q599 297 630 327.5Q661 358 709 358Q756 358 787.5 330Q819 302 819 250V94Q819 46 786.5 17.5Q754 -11 709 -11Z" glyph-name="perthousand" horiz-adv-x="853" unicode="&#8240;" /><glyph d="M377 -4Q354 -4 330.5 0.5Q307 5 288.5 18.5Q270 32 258 57Q246 82 246 123V436H162Q160 325 155.5 218.5Q151 112 143 0H44Q54 112 59.5 218Q65 324 67 436H17L27 529H391V436H344V139Q344 120 350 105.5Q356 91 377 91Z" glyph-name="pi" horiz-adv-x="417" unicode="&#960;" /><glyph d="M175 282H43V356H175V496H248V356H379V282H248V142H175Z" glyph-name="plus" horiz-adv-x="423" unicode="+" /><glyph d="M46 133H377V59H46ZM175 316H43V391H175V519H249L248 391H379V316H249V192H175Z" glyph-name="plusminus" horiz-adv-x="423" unicode="&#177;" /><glyph d="M88 612H27V713H480V612H421V-133H316V612H193V-133H88Z" glyph-name="product" horiz-adv-x="506" unicode="&#8719;" /><glyph d="M195 76Q218 76 236 98Q254 120 254 152V384Q254 417 235.5 438.5Q217 460 193 460Q170 460 157 443.5Q144 427 144 399V135Q144 109 157 92.5Q170 76 195 76ZM254 45H252Q232 15 206.5 2Q181 -11 155 -11Q125 -11 103.5 -1.5Q82 8 68 24.5Q54 41 47 63Q40 85 40 110V415Q40 469 74.5 504.5Q109 540 167 540Q193 540 220 527Q247 514 262 485H263L264 531H358V-161H254Z" glyph-name="q" horiz-adv-x="407" unicode="q" /><glyph d="M123 137H224V0H123ZM124 231Q126 284 140 322.5Q154 361 174 393Q184 409 194.5 425.5Q205 442 213 460.5Q221 479 226 500.5Q231 522 231 548Q231 564 228 579Q225 594 219 606Q213 618 202.5 625.5Q192 633 177 633Q151 633 137.5 613.5Q124 594 124 560V510H34V558Q34 635 74 679.5Q114 724 184 724Q257 724 296 676.5Q335 629 335 547Q335 516 329.5 490Q324 464 314 442Q304 420 292.5 401Q281 382 269 365Q252 337 235.5 306.5Q219 276 219 240V202H124Z" glyph-name="question" horiz-adv-x="366" unicode="?" /><glyph d="M247 424H146V561H247ZM246 330Q244 277 230 238.5Q216 200 196 168Q185 151 175 135Q165 119 157 100.5Q149 82 144 60.5Q139 39 139 13Q139 -3 142 -18Q145 -33 151 -45Q157 -57 167.5 -64.5Q178 -72 193 -72Q219 -72 232.5 -52.5Q246 -33 246 1V51H336V3Q336 -74 296 -118.5Q256 -163 186 -163Q113 -163 74 -115.5Q35 -68 35 14Q35 45 40.5 71Q46 97 56 119Q66 141 77.5 160Q89 179 101 196Q118 224 134.5 254.5Q151 285 151 321V359H246Z" glyph-name="questiondown" horiz-adv-x="367" unicode="&#191;" /><glyph d="M192 600V714H286V600L272 468H207ZM42 600V714H136V600L122 468H57Z" glyph-name="quotedbl" horiz-adv-x="328" unicode="&quot;" /><glyph d="M229 7H195V137H295V13L256 -111H205ZM75 7H41V137H141V13L102 -111H51Z" glyph-name="quotedblbase" horiz-adv-x="335" unicode="&#8222;" /><glyph d="M195 592 234 715H284L261 598H295V468H195ZM40 592 79 715H130L106 598H140V468H40Z" glyph-name="quotedblleft" horiz-adv-x="335" unicode="&#8220;" /><glyph d="M229 583H195V714H295V590L256 468H205ZM75 583H41V714H141V590L102 468H51Z" glyph-name="quotedblright" horiz-adv-x="335" unicode="&#8221;" /><glyph d="M40 592 79 715H130L106 598H140V468H40Z" glyph-name="quoteleft" horiz-adv-x="181" unicode="&#8216;" /><glyph d="M75 583H41V714H141V590L102 468H51Z" glyph-name="quoteright" horiz-adv-x="181" unicode="&#8217;" /><glyph d="M72 7 41 25 48 137 141 119 137 -7 98 -111 54 -92Z" glyph-name="quotesinglbase" horiz-adv-x="181" unicode="&#8218;" /><glyph d="M42 600V714H136V600L122 468H57Z" glyph-name="quotesingle" horiz-adv-x="180" unicode="&apos;" /><glyph d="M50 530H153V470H154Q183 535 245 535Q252 535 261 534Q270 533 277 531V433Q266 435 253.5 435.5Q241 436 234 436Q202 436 178.5 419Q155 402 154 364V0H50Z" glyph-name="r" horiz-adv-x="295" unicode="r" /><glyph d="M50 530H153V470H154Q183 535 245 535Q252 535 261 534Q270 533 277 531V433Q266 435 253.5 435.5Q241 436 234 436Q202 436 178.5 419Q155 402 154 364V0H50ZM159 730H266L168 584H91Z" glyph-name="racute" horiz-adv-x="295" unicode="&#341;" /><glyph d="M16 529H126L189 176H190L317 714H419L236 -3H134Z" glyph-name="radical" horiz-adv-x="429" unicode="&#8730;" /><glyph d="M50 530H153V470H154Q183 535 245 535Q252 535 261 534Q270 533 277 531V433Q266 435 253.5 435.5Q241 436 234 436Q202 436 178.5 419Q155 402 154 364V0H50ZM31 736H115L155 655L196 736H277L192 587H115Z" glyph-name="rcaron" horiz-adv-x="295" unicode="&#345;" /><glyph d="M50 530H153V470H154Q183 535 245 535Q252 535 261 534Q270 533 277 531V433Q266 435 253.5 435.5Q241 436 234 436Q202 436 178.5 419Q155 402 154 364V0H50ZM60 -36H154L125 -183H53Z" glyph-name="rcommaaccent" horiz-adv-x="295" unicode="&#343;" /><glyph d="M210 538Q242 538 242 578Q242 595 234 606.5Q226 618 210 618H188V538ZM139 659H218Q253 659 271.5 638Q290 617 290 581Q290 556 280 536.5Q270 517 252 509L297 400H245L206 501H188V400H139ZM209 348Q237 348 262 360Q287 372 306 395Q325 418 336 451Q347 484 347 526Q347 567 336 600Q325 633 306 656.5Q287 680 262 692.5Q237 705 209 705Q182 705 157.5 692.5Q133 680 114.5 657Q96 634 85 601Q74 568 74 526Q74 484 85 451Q96 418 115 395Q134 372 158 360Q182 348 209 348ZM209 310Q167 310 133.5 327Q100 344 77.5 373.5Q55 403 43 442.5Q31 482 31 526Q31 571 44 610.5Q57 650 80.5 679Q104 708 137 725Q170 742 211 742Q251 742 284.5 725.5Q318 709 341 679.5Q364 650 377 610.5Q390 571 390 526Q390 482 377.5 443Q365 404 341.5 374.5Q318 345 284.5 327.5Q251 310 209 310Z" glyph-name="registered" horiz-adv-x="416" unicode="&#174;" /><glyph d="M124 619Q144 619 155.5 632Q167 645 167 665Q167 685 156 698.5Q145 712 123 712Q103 712 92.5 699Q82 686 82 665Q82 644 94 631.5Q106 619 124 619ZM123 577Q83 577 59 601.5Q35 626 35 663Q35 701 60 727.5Q85 754 124 754Q165 754 188.5 729.5Q212 705 212 667Q212 648 205 631.5Q198 615 186 603Q174 591 158 584Q142 577 123 577Z" glyph-name="ring" horiz-adv-x="244" unicode="&#730;" /><glyph d="M124 616Q143 616 154 629Q165 642 165 663Q165 683 154.5 696Q144 709 124 709Q105 709 95 695.5Q85 682 85 662Q85 640 95.5 628Q106 616 124 616ZM123 578Q80 578 58.5 603Q37 628 37 660Q37 692 57 717L126 813L203 796L145 741Q177 736 194 714.5Q211 693 211 664Q211 627 186 602.5Q161 578 123 578Z" glyph-name="ringacute" horiz-adv-x="245" /><glyph d="M177 -10Q148 -10 122 -1.5Q96 7 76 25Q56 43 43.5 71Q31 99 28 137L125 139Q128 107 140.5 89Q153 71 179 71Q199 71 211 83Q223 95 223 121Q223 145 205.5 168.5Q188 192 161 216L118 260Q83 292 62 326Q41 360 41 405Q41 430 49 454Q57 478 74 497Q91 516 118 528Q145 540 183 540Q240 540 278.5 506.5Q317 473 321 396L231 393Q227 428 215.5 445Q204 462 181 462Q158 462 147 449Q136 436 136 416Q136 398 149 380Q162 362 185 339L238 285Q280 245 300.5 208.5Q321 172 321 129Q321 103 312.5 78Q304 53 286.5 33.5Q269 14 242 2Q215 -10 177 -10Z" glyph-name="s" horiz-adv-x="348" unicode="s" /><glyph d="M177 -10Q148 -10 122 -1.5Q96 7 76 25Q56 43 43.5 71Q31 99 28 137L125 139Q128 107 140.5 89Q153 71 179 71Q199 71 211 83Q223 95 223 121Q223 145 205.5 168.5Q188 192 161 216L118 260Q83 292 62 326Q41 360 41 405Q41 430 49 454Q57 478 74 497Q91 516 118 528Q145 540 183 540Q240 540 278.5 506.5Q317 473 321 396L231 393Q227 428 215.5 445Q204 462 181 462Q158 462 147 449Q136 436 136 416Q136 398 149 380Q162 362 185 339L238 285Q280 245 300.5 208.5Q321 172 321 129Q321 103 312.5 78Q304 53 286.5 33.5Q269 14 242 2Q215 -10 177 -10ZM205 730H312L214 584H137Z" glyph-name="sacute" horiz-adv-x="348" unicode="&#347;" /><glyph d="M177 -10Q148 -10 122 -1.5Q96 7 76 25Q56 43 43.5 71Q31 99 28 137L125 139Q128 107 140.5 89Q153 71 179 71Q199 71 211 83Q223 95 223 121Q223 145 205.5 168.5Q188 192 161 216L118 260Q83 292 62 326Q41 360 41 405Q41 430 49 454Q57 478 74 497Q91 516 118 528Q145 540 183 540Q240 540 278.5 506.5Q317 473 321 396L231 393Q227 428 215.5 445Q204 462 181 462Q158 462 147 449Q136 436 136 416Q136 398 149 380Q162 362 185 339L238 285Q280 245 300.5 208.5Q321 172 321 129Q321 103 312.5 78Q304 53 286.5 33.5Q269 14 242 2Q215 -10 177 -10ZM58 736H142L182 655L223 736H304L219 587H142Z" glyph-name="scaron" horiz-adv-x="349" unicode="&#353;" /><glyph d="M188 -189Q172 -189 151 -187Q130 -185 109 -179V-127Q150 -138 183 -138Q219 -138 219 -115Q219 -102 207.5 -97.5Q196 -93 179 -91L145 -89L163 -9Q109 -5 71 30Q33 65 28 137L125 139Q128 107 140.5 89Q153 71 179 71Q199 71 211 83Q223 95 223 121Q223 145 205.5 168.5Q188 192 161 216L118 260Q83 292 62 326Q41 360 41 405Q41 430 49 454Q57 478 74 497Q91 516 118 528Q145 540 183 540Q240 540 278.5 506.5Q317 473 321 396L231 393Q227 428 215.5 445Q204 462 181 462Q158 462 147 449Q136 436 136 416Q136 398 149 380Q162 362 185 339L238 285Q280 245 300.5 208.5Q321 172 321 129Q321 82 294 42.5Q267 3 209 -7L200 -51Q215 -51 231.5 -53.5Q248 -56 261.5 -63Q275 -70 284 -81.5Q293 -93 293 -112Q293 -148 261.5 -168.5Q230 -189 188 -189Z" glyph-name="scedilla" horiz-adv-x="348" unicode="&#351;" /><glyph d="M177 -10Q148 -10 122 -1.5Q96 7 76 25Q56 43 43.5 71Q31 99 28 137L125 139Q128 107 140.5 89Q153 71 179 71Q199 71 211 83Q223 95 223 121Q223 145 205.5 168.5Q188 192 161 216L118 260Q83 292 62 326Q41 360 41 405Q41 430 49 454Q57 478 74 497Q91 516 118 528Q145 540 183 540Q240 540 278.5 506.5Q317 473 321 396L231 393Q227 428 215.5 445Q204 462 181 462Q158 462 147 449Q136 436 136 416Q136 398 149 380Q162 362 185 339L238 285Q280 245 300.5 208.5Q321 172 321 129Q321 103 312.5 78Q304 53 286.5 33.5Q269 14 242 2Q215 -10 177 -10ZM138 733H215L298 585H215L174 666L134 585H54Z" glyph-name="scircumflex" horiz-adv-x="348" unicode="&#349;" /><glyph d="M177 -10Q148 -10 122 -1.5Q96 7 76 25Q56 43 43.5 71Q31 99 28 137L125 139Q128 107 140.5 89Q153 71 179 71Q199 71 211 83Q223 95 223 121Q223 145 205.5 168.5Q188 192 161 216L118 260Q83 292 62 326Q41 360 41 405Q41 430 49 454Q57 478 74 497Q91 516 118 528Q145 540 183 540Q240 540 278.5 506.5Q317 473 321 396L231 393Q227 428 215.5 445Q204 462 181 462Q158 462 147 449Q136 436 136 416Q136 398 149 380Q162 362 185 339L238 285Q280 245 300.5 208.5Q321 172 321 129Q321 103 312.5 78Q304 53 286.5 33.5Q269 14 242 2Q215 -10 177 -10ZM144 -36H238L209 -183H137Z" glyph-name="scommaaccent" horiz-adv-x="348" unicode="&#537;" /><glyph d="M223 269Q242 279 253.5 295Q265 311 265 334Q265 356 251 371Q237 386 216 395L194 405Q186 409 178 412Q170 415 168 416Q154 407 140.5 390Q127 373 127 347Q127 334 132.5 324Q138 314 145.5 306.5Q153 299 162 294.5Q171 290 178 287ZM192 -43Q166 -43 138.5 -36.5Q111 -30 88.5 -14Q66 2 52 29.5Q38 57 38 99V134H124V109Q124 74 142 51.5Q160 29 198 29Q216 29 228 35.5Q240 42 247.5 52.5Q255 63 258.5 76.5Q262 90 262 103Q262 138 243 156Q224 174 202 184Q192 189 182 193Q174 197 164.5 200.5Q155 204 148 206Q128 214 108.5 226Q89 238 74 254.5Q59 271 49.5 292.5Q40 314 40 343Q40 377 57.5 406Q75 435 101 458Q71 480 56.5 507Q42 534 42 576Q42 638 81.5 678.5Q121 719 196 719Q262 719 303 684.5Q344 650 344 582V547H261V577Q261 607 245 627Q229 647 196 647Q165 647 148.5 628.5Q132 610 132 580Q132 551 149.5 531.5Q167 512 187 503L246 477Q264 469 283 458Q302 447 317.5 431Q333 415 343 394Q353 373 353 345Q353 308 337 279Q321 250 294 227Q321 209 339 180Q357 151 356 109Q356 40 311 -1.5Q266 -43 192 -43Z" glyph-name="section" horiz-adv-x="390" unicode="&#167;" /><glyph d="M42 526H142V390H42ZM79 7H42V137H142V13L104 -116H51Z" glyph-name="semicolon" horiz-adv-x="183" unicode=";" /><glyph d="M93 0Q94 93 106 182.5Q118 272 137.5 352Q157 432 182.5 500Q208 568 235 619H31V713H347V632Q311 567 283.5 492Q256 417 237.5 335.5Q219 254 210 169Q201 84 201 0Z" glyph-name="seven" horiz-adv-x="373" unicode="7" /><glyph d="M116 0Q117 93 129 182.5Q141 272 160.5 352Q180 432 205.5 500Q231 568 258 619H54V713H370V632Q334 567 306.5 492Q279 417 260.5 335.5Q242 254 233 169Q224 84 224 0Z" glyph-name="seven.LT" horiz-adv-x="423" unicode="&#58695;" /><glyph d="M62 0Q62 49 70.5 96Q79 143 92 185.5Q105 228 122 264.5Q139 301 157 330H23V396H239V340Q195 277 169 187Q143 97 143 0Z" glyph-name="seven.dnom" horiz-adv-x="260" unicode="&#58377;" /><glyph d="M62 318Q62 367 70.5 414Q79 461 92 503.5Q105 546 122 582.5Q139 619 157 648H23V714H239V658Q195 595 169 505Q143 415 143 318Z" glyph-name="seven.numr" horiz-adv-x="260" unicode="&#58397;" /><glyph d="M208 80Q240 80 253 99.5Q266 119 266 142V309Q266 337 251 350Q236 363 213 363Q185 363 167.5 343.5Q150 324 150 297V142Q150 119 164 99.5Q178 80 208 80ZM205 -10Q129 -10 85 33.5Q41 77 41 148V564Q41 604 54 634Q67 664 90 684Q113 704 144 714.5Q175 725 211 725Q283 725 323.5 686Q364 647 364 584V526H264V576Q264 600 250.5 617Q237 634 209 634Q177 634 163.5 614.5Q150 595 150 570V396Q169 418 195 429Q221 440 249 440Q307 440 339 408Q371 376 371 319V142Q371 72 325.5 31Q280 -10 205 -10Z" glyph-name="six" horiz-adv-x="410" unicode="6" /><glyph d="M213 80Q245 80 258 99.5Q271 119 271 142V309Q271 337 256 350Q241 363 218 363Q190 363 172.5 343.5Q155 324 155 297V142Q155 119 169 99.5Q183 80 213 80ZM210 -10Q134 -10 90 33.5Q46 77 46 148V564Q46 604 59 634Q72 664 95 684Q118 704 149 714.5Q180 725 216 725Q288 725 328.5 686Q369 647 369 584V526H269V576Q269 600 255.5 617Q242 634 214 634Q182 634 168.5 614.5Q155 595 155 570V396Q174 418 200 429Q226 440 254 440Q312 440 344 408Q376 376 376 319V142Q376 72 330.5 31Q285 -10 210 -10Z" glyph-name="six.LT" horiz-adv-x="423" unicode="&#58694;" /><glyph d="M137 51Q154 51 161 61Q168 71 168 83V163Q168 179 159 186Q150 193 138 193Q125 193 115 183.5Q105 174 105 158V83Q105 70 113 60.5Q121 51 137 51ZM135 -11Q88 -11 57 14.5Q26 40 26 86V302Q26 352 59 377Q92 402 138 402Q185 402 213 377.5Q241 353 241 312V281H168V308Q168 322 159 331Q150 340 135 340Q119 340 112 330Q105 320 105 306V216Q116 230 132.5 236.5Q149 243 166 243Q204 243 224.5 222Q245 201 245 167V85Q245 40 213 14.5Q181 -11 135 -11Z" glyph-name="six.dnom" horiz-adv-x="270" unicode="&#58376;" /><glyph d="M137 369Q154 369 161 379Q168 389 168 401V481Q168 497 159 504Q150 511 138 511Q125 511 115 501.5Q105 492 105 476V401Q105 388 113 378.5Q121 369 137 369ZM135 307Q88 307 57 332.5Q26 358 26 404V620Q26 670 59 695Q92 720 138 720Q185 720 213 695.5Q241 671 241 630V599H168V626Q168 640 159 649Q150 658 135 658Q119 658 112 648Q105 638 105 624V534Q116 548 132.5 554.5Q149 561 166 561Q204 561 224.5 540Q245 519 245 485V403Q245 358 213 332.5Q181 307 135 307Z" glyph-name="six.numr" horiz-adv-x="270" unicode="&#58396;" /><glyph d="M157 717H228L68 -165H-6Z" glyph-name="slash" horiz-adv-x="250" unicode="/" /><glyph glyph-name="space" horiz-adv-x="145" unicode=" " /><glyph d="M36 90H86V320H43V395H86V565Q86 606 99.5 636Q113 666 136 685.5Q159 705 189.5 714.5Q220 724 253 724Q320 724 360 687.5Q400 651 400 585V521H307V583Q307 610 292 623.5Q277 637 251 637Q228 637 211.5 623Q195 609 195 575V395H323V320H195V90H410L394 0H36Z" glyph-name="sterling" horiz-adv-x="441" unicode="&#163;" /><glyph d="M34 -47 208 303 32 631V714H362V614H170L327 322V288L165 -34H362V-133H34Z" glyph-name="summation" horiz-adv-x="395" unicode="&#8721;" /><glyph d="M180 -7Q159 -7 140.5 -2Q122 3 108 14.5Q94 26 85.5 43.5Q77 61 77 87V443H27V526H77V646H181V526H259V443H181V118Q181 84 212 84Q235 84 255 89V6Q220 -7 180 -7Z" glyph-name="t" horiz-adv-x="282" unicode="t" /><glyph d="M48 322H77V443H27V526H77V646H181V526H259V443H181V322H226V257H181V118Q181 84 212 84Q235 84 255 89V6Q220 -7 180 -7Q159 -7 140.5 -2Q122 3 108 14.5Q94 26 85.5 43.5Q77 61 77 87V257H48Z" glyph-name="tbar" horiz-adv-x="282" unicode="&#359;" /><glyph d="M180 -7Q159 -7 140.5 -2Q122 3 108 14.5Q94 26 85.5 43.5Q77 61 77 87V443H27V526H77V646H181V526H259V443H181V118Q181 84 212 84Q235 84 255 89V6Q220 -7 180 -7ZM218 714H300L273 565H213Z" glyph-name="tcaron" horiz-adv-x="282" unicode="&#357;" /><glyph d="M180 -7Q159 -7 140.5 -2Q122 3 108 14.5Q94 26 85.5 43.5Q77 61 77 87V443H27V526H77V646H181V526H259V443H181V118Q181 84 212 84Q235 84 255 89V6Q220 -7 180 -7ZM106 -36H200L171 -183H99Z" glyph-name="tcommaaccent" horiz-adv-x="282" unicode="&#355;" /><glyph d="M206 74Q229 74 243.5 88Q258 102 258 131V400Q258 424 245 440.5Q232 457 207 457Q183 457 166 438Q149 419 149 382V140Q149 108 166 91Q183 74 206 74ZM45 713H149V478H150Q167 510 197 525Q227 540 253 540Q283 540 303.5 530.5Q324 521 337 504.5Q350 488 356 465.5Q362 443 362 418V113Q362 60 329.5 25Q297 -10 240 -10Q215 -10 190 2Q165 14 151 39H149V-161H45Z" glyph-name="thorn" horiz-adv-x="398" unicode="&#254;" /><glyph d="M192 -10Q147 -10 116 3Q85 16 66.5 39Q48 62 39.5 92Q31 122 31 157V195H131V153Q131 120 145.5 100Q160 80 189 80Q203 80 214.5 85.5Q226 91 233.5 105Q241 119 245 142.5Q249 166 249 201Q249 236 241.5 258.5Q234 281 223 293.5Q212 306 198 310.5Q184 315 171 315H123V412H173Q207 412 224.5 437.5Q242 463 242 528Q242 588 225.5 610.5Q209 633 185 633Q157 633 145 613Q133 593 133 560V521H35V558Q35 639 76 681.5Q117 724 194 724Q267 724 306.5 675Q346 626 346 541Q346 481 327.5 433.5Q309 386 262 369V366Q311 349 334 302Q357 255 357 197Q357 143 343.5 103.5Q330 64 307 39Q284 14 254.5 2Q225 -10 192 -10Z" glyph-name="three" horiz-adv-x="390" unicode="3" /><glyph d="M209 -10Q164 -10 133 3Q102 16 83.5 39Q65 62 56.5 92Q48 122 48 157V195H148V153Q148 120 162.5 100Q177 80 206 80Q220 80 231.5 85.5Q243 91 250.5 105Q258 119 262 142.5Q266 166 266 201Q266 236 258.5 258.5Q251 281 240 293.5Q229 306 215 310.5Q201 315 188 315H140V412H190Q224 412 241.5 437.5Q259 463 259 528Q259 588 242.5 610.5Q226 633 202 633Q174 633 162 613Q150 593 150 560V521H52V558Q52 639 93 681.5Q134 724 211 724Q284 724 323.5 675Q363 626 363 541Q363 481 344.5 433.5Q326 386 279 369V366Q328 349 351 302Q374 255 374 197Q374 143 360.5 103.5Q347 64 324 39Q301 14 271.5 2Q242 -10 209 -10Z" glyph-name="three.LT" horiz-adv-x="423" unicode="&#58691;" /><glyph d="M135 -11Q78 -11 52.5 18.5Q27 48 27 93V115H100V92Q100 74 109 63Q118 52 133 52Q165 52 165 111Q165 145 152 156.5Q139 168 126 168H96V228H124Q143 228 153 240.5Q163 253 163 285Q163 314 154 325Q145 336 131 336Q115 336 108 324Q101 312 101 295V277H29V299Q29 347 56.5 374Q84 401 135 401Q183 401 210.5 372.5Q238 344 238 295Q238 263 226 237Q214 211 187 201V199Q216 190 230.5 163.5Q245 137 245 106Q245 74 236 52Q227 30 212 16Q197 2 177 -4.5Q157 -11 135 -11Z" glyph-name="three.dnom" horiz-adv-x="272" unicode="&#58373;" /><glyph d="M135 307Q78 307 52.5 336.5Q27 366 27 411V433H100V410Q100 392 109 381Q118 370 133 370Q165 370 165 429Q165 463 152 474.5Q139 486 126 486H96V546H124Q143 546 153 558.5Q163 571 163 603Q163 632 154 643Q145 654 131 654Q115 654 108 642Q101 630 101 613V595H29V617Q29 665 56.5 692Q84 719 135 719Q183 719 210.5 690.5Q238 662 238 613Q238 581 226 555Q214 529 187 519V517Q216 508 230.5 481.5Q245 455 245 424Q245 392 236 370Q227 348 212 334Q197 320 177 313.5Q157 307 135 307Z" glyph-name="three.numr" horiz-adv-x="272" unicode="&#58393;" /><glyph d="M438 716H493L196 -2H140ZM138 305Q81 305 55.5 334.5Q30 364 30 409V431H103V408Q103 390 112 379Q121 368 136 368Q168 368 168 427Q168 461 155 472.5Q142 484 129 484H99V544H127Q146 544 156 556.5Q166 569 166 601Q166 630 157 641Q148 652 134 652Q118 652 111 640Q104 628 104 611V593H32V615Q32 663 59.5 690Q87 717 138 717Q186 717 213.5 688.5Q241 660 241 611Q241 579 229 553Q217 527 190 517V515Q219 506 233.5 479.5Q248 453 248 422Q248 390 239 368Q230 346 215 332Q200 318 180 311.5Q160 305 138 305ZM475 91H346V148L456 399H535L419 153H475V214L548 269V153H580V91H548V0H475Z" glyph-name="threequarters" horiz-adv-x="614" unicode="&#190;" /><glyph d="M135 369Q78 369 52.5 398.5Q27 428 27 473V495H100V472Q100 454 109 443Q118 432 133 432Q165 432 165 491Q165 525 152 536.5Q139 548 126 548H96V608H124Q143 608 153 620.5Q163 633 163 665Q163 694 154 705Q145 716 131 716Q115 716 108 704Q101 692 101 675V657H29V679Q29 727 56.5 754Q84 781 135 781Q183 781 210.5 752.5Q238 724 238 675Q238 643 226 617Q214 591 187 581V579Q216 570 230.5 543.5Q245 517 245 486Q245 454 236 432Q227 410 212 396Q197 382 177 375.5Q157 369 135 369Z" glyph-name="threesuperior" horiz-adv-x="272" unicode="&#179;" /><glyph d="M31 601Q37 643 58.5 673.5Q80 704 116 704Q131 704 146 699.5Q161 695 175.5 689.5Q190 684 204.5 679.5Q219 675 233 675Q247 675 254.5 684.5Q262 694 268 712L320 699Q317 679 310.5 660.5Q304 642 293 628Q282 614 267.5 605.5Q253 597 234 597Q220 597 204.5 601.5Q189 606 174 611.5Q159 617 145.5 621.5Q132 626 120 626Q106 626 98.5 618Q91 610 86 589Z" glyph-name="tilde" horiz-adv-x="344" unicode="&#732;" /><glyph d="M86 664H25V716H206V664H145V404H86ZM233 716H308L346 583L384 716H456V404H402V615L366 494H324L287 615V404H233Z" glyph-name="trademark" horiz-adv-x="497" unicode="&#8482;" /><glyph d="M40 509V517H369V509L212 201H205Z" glyph-name="triagdn" horiz-adv-x="409" unicode="&#9660;" /><glyph d="M46 351V358L354 523H362V194H354Z" glyph-name="triaglf" horiz-adv-x="409" unicode="&#9668;" /><glyph d="M46 523H54L362 358V351L54 194H46Z" glyph-name="triagrt" horiz-adv-x="409" unicode="&#9658;" /><glyph d="M40 208 197 517H204L369 208V201H40Z" glyph-name="triagup" horiz-adv-x="409" unicode="&#9650;" /><glyph d="M39 69 153 268Q194 342 216 406.5Q238 471 238 531V550Q237 583 225.5 608Q214 633 184 633Q155 633 143 612.5Q131 592 131 564V521H35V563Q35 636 75 680.5Q115 725 190 725Q268 725 305 677Q342 629 342 547Q342 499 332.5 453.5Q323 408 306.5 365.5Q290 323 269 282.5Q248 242 226 204L164 96V94H346V0H39Z" glyph-name="two" horiz-adv-x="379" unicode="2" /><glyph d="M59 69 173 268Q214 342 236 406.5Q258 471 258 531V550Q257 583 245.5 608Q234 633 204 633Q175 633 163 612.5Q151 592 151 564V521H55V563Q55 636 95 680.5Q135 725 210 725Q288 725 325 677Q362 629 362 547Q362 499 352.5 453.5Q343 408 326.5 365.5Q310 323 289 282.5Q268 242 246 204L184 96V94H366V0H59Z" glyph-name="two.LT" horiz-adv-x="423" unicode="&#58690;" /><glyph d="M35 49 113 162Q135 197 148.5 228Q162 259 162 288V294Q162 311 155.5 323.5Q149 336 132 336Q115 336 108.5 324.5Q102 313 102 296V273H29V300Q29 347 57 374Q85 401 134 401Q185 401 212 372.5Q239 344 239 293Q239 242 216.5 200.5Q194 159 166 119L131 64H241V0H35Z" glyph-name="two.dnom" horiz-adv-x="266" unicode="&#58372;" /><glyph d="M35 367 113 480Q135 515 148.5 546Q162 577 162 606V612Q162 629 155.5 641.5Q149 654 132 654Q115 654 108.5 642.5Q102 631 102 614V591H29V618Q29 665 57 692Q85 719 134 719Q185 719 212 690.5Q239 662 239 611Q239 560 216.5 518.5Q194 477 166 437L131 382H241V318H35Z" glyph-name="two.numr" horiz-adv-x="266" unicode="&#58392;" /><glyph d="M35 429 113 542Q135 577 148.5 608Q162 639 162 668V674Q162 691 155.5 703.5Q149 716 132 716Q115 716 108.5 704.5Q102 693 102 676V653H29V680Q29 727 57 754Q85 781 134 781Q185 781 212 752.5Q239 724 239 673Q239 622 216.5 580.5Q194 539 166 499L131 444H241V380H35Z" glyph-name="twosuperior" horiz-adv-x="266" unicode="&#178;" /><glyph d="M148 -11Q105 -11 75.5 17Q46 45 46 94V530H150V133Q150 108 161 92.5Q172 77 198 77Q225 77 241.5 101.5Q258 126 258 158V530H362V0H261V55H260Q241 23 212 6Q183 -11 148 -11Z" glyph-name="u" horiz-adv-x="411" unicode="u" /><glyph d="M148 -11Q105 -11 75.5 17Q46 45 46 94V530H150V133Q150 108 161 92.5Q172 77 198 77Q225 77 241.5 101.5Q258 126 258 158V530H362V0H261V55H260Q241 23 212 6Q183 -11 148 -11ZM233 730H340L242 584H165Z" glyph-name="uacute" horiz-adv-x="411" unicode="&#250;" /><glyph d="M207 586Q147 586 113 620.5Q79 655 78 724H149Q153 692 164 671Q175 650 210 650Q238 650 250.5 669.5Q263 689 264 724H333Q331 652 295 619Q259 586 207 586ZM148 -11Q105 -11 75.5 17Q46 45 46 94V530H150V133Q150 108 161 92.5Q172 77 198 77Q225 77 241.5 101.5Q258 126 258 158V530H362V0H261V55H260Q241 23 212 6Q183 -11 148 -11Z" glyph-name="ubreve" horiz-adv-x="411" unicode="&#365;" /><glyph d="M148 -11Q105 -11 75.5 17Q46 45 46 94V530H150V133Q150 108 161 92.5Q172 77 198 77Q225 77 241.5 101.5Q258 126 258 158V530H362V0H261V55H260Q241 23 212 6Q183 -11 148 -11ZM171 733H248L331 585H248L207 666L167 585H87Z" glyph-name="ucircumflex" horiz-adv-x="411" unicode="&#251;" /><glyph d="M148 -11Q105 -11 75.5 17Q46 45 46 94V530H150V133Q150 108 161 92.5Q172 77 198 77Q225 77 241.5 101.5Q258 126 258 158V530H362V0H261V55H260Q241 23 212 6Q183 -11 148 -11ZM234 723H318V592H234ZM92 723H176V592H92Z" glyph-name="udieresis" horiz-adv-x="411" unicode="&#252;" /><glyph d="M70 730H177L245 584H168ZM148 -11Q105 -11 75.5 17Q46 45 46 94V530H150V133Q150 108 161 92.5Q172 77 198 77Q225 77 241.5 101.5Q258 126 258 158V530H362V0H261V55H260Q241 23 212 6Q183 -11 148 -11Z" glyph-name="ugrave" horiz-adv-x="411" unicode="&#249;" /><glyph d="M290 724H379L310 586H237ZM152 724H242L176 586H102ZM148 -11Q105 -11 75.5 17Q46 45 46 94V530H150V133Q150 108 161 92.5Q172 77 198 77Q225 77 241.5 101.5Q258 126 258 158V530H362V0H261V55H260Q241 23 212 6Q183 -11 148 -11Z" glyph-name="uhungarumlaut" horiz-adv-x="411" unicode="&#369;" /><glyph d="M98 675H313V598H98ZM148 -11Q105 -11 75.5 17Q46 45 46 94V530H150V133Q150 108 161 92.5Q172 77 198 77Q225 77 241.5 101.5Q258 126 258 158V530H362V0H261V55H260Q241 23 212 6Q183 -11 148 -11Z" glyph-name="umacron" horiz-adv-x="411" unicode="&#363;" /><glyph d="M0 -55H388V-128H0Z" glyph-name="underscore" horiz-adv-x="388" unicode="_" /><glyph glyph-name="uni00A0" horiz-adv-x="145" unicode="&#160;" /><glyph d="M156 618H20V713H402V618H268V0H156ZM168 -36H262L233 -183H161Z" glyph-name="uni021A" horiz-adv-x="422" unicode="&#538;" /><glyph d="M180 -7Q159 -7 140.5 -2Q122 3 108 14.5Q94 26 85.5 43.5Q77 61 77 87V443H27V526H77V646H181V526H259V443H181V118Q181 84 212 84Q235 84 255 89V6Q220 -7 180 -7ZM106 -36H200L171 -183H99Z" glyph-name="uni021B" horiz-adv-x="282" unicode="&#539;" /><glyph d="M136 432Q154 432 161 442Q168 452 168 465V688Q168 701 160.5 710Q153 719 136 719Q119 719 111 710Q103 701 103 688V465Q103 452 111 442Q119 432 136 432ZM136 369Q91 369 59 392.5Q27 416 27 466V686Q27 710 36 728Q45 746 60 758Q75 770 95 776Q115 782 136 782Q157 782 176.5 776.5Q196 771 211.5 759.5Q227 748 236 730Q245 712 245 687V466Q245 442 236 423.5Q227 405 212 393Q197 381 177.5 375Q158 369 136 369Z" glyph-name="uni2070" horiz-adv-x="271" unicode="&#8304;" /><glyph d="M145 471H16V528L126 779H205L89 533H145V594L218 649V533H250V471H218V380H145Z" glyph-name="uni2074" horiz-adv-x="265" unicode="&#8308;" /><glyph d="M133 369Q83 369 55 393.5Q27 418 27 460V496H101V467Q101 451 109.5 441Q118 431 134 431Q166 431 166 473V538Q166 576 134 576Q123 576 115 569.5Q107 563 102 555L32 561L40 776H227V709H105Q105 706 104.5 691Q104 676 103 658.5Q102 641 101.5 626Q101 611 101 608Q125 630 160 630Q176 630 191 625.5Q206 621 218 611Q230 601 237 585Q244 569 244 546V471Q244 446 235 427Q226 408 210.5 395Q195 382 175 375.5Q155 369 133 369Z" glyph-name="uni2075" horiz-adv-x="271" unicode="&#8309;" /><glyph d="M137 431Q154 431 161 441Q168 451 168 463V543Q168 559 159 566Q150 573 138 573Q125 573 115 563.5Q105 554 105 538V463Q105 450 113 440.5Q121 431 137 431ZM135 369Q88 369 57 394.5Q26 420 26 466V682Q26 732 59 757Q92 782 138 782Q185 782 213 757.5Q241 733 241 692V661H168V688Q168 702 159 711Q150 720 135 720Q119 720 112 710Q105 700 105 686V596Q116 610 132.5 616.5Q149 623 166 623Q204 623 224.5 602Q245 581 245 547V465Q245 420 213 394.5Q181 369 135 369Z" glyph-name="uni2076" horiz-adv-x="270" unicode="&#8310;" /><glyph d="M62 380Q62 429 70.5 476Q79 523 92 565.5Q105 608 122 644.5Q139 681 157 710H23V776H239V720Q195 657 169 567Q143 477 143 380Z" glyph-name="uni2077" horiz-adv-x="260" unicode="&#8311;" /><glyph d="M136 608Q151 608 159.5 616.5Q168 625 168 639V692Q168 707 158.5 715Q149 723 135 723Q122 723 112.5 715Q103 707 103 694V639Q103 625 112.5 616.5Q122 608 136 608ZM136 429Q152 429 160.5 438Q169 447 169 461V519Q169 535 159 543Q149 551 136 551Q122 551 112 543Q102 535 102 521V460Q102 446 111.5 437.5Q121 429 136 429ZM136 369Q88 369 57.5 391.5Q27 414 27 462V513Q27 536 37 552.5Q47 569 64 580Q48 589 39.5 606Q31 623 31 640V690Q31 735 61 758.5Q91 782 136 782Q180 782 210.5 760Q241 738 241 692V643Q241 623 232 606.5Q223 590 207 580Q223 571 234 554Q245 537 245 516V461Q245 416 213.5 392.5Q182 369 136 369Z" glyph-name="uni2078" horiz-adv-x="272" unicode="&#8312;" /><glyph d="M133 579Q145 579 155.5 588.5Q166 598 166 614V689Q166 702 158 711.5Q150 721 133 721Q116 721 109.5 711Q103 701 103 689V609Q103 593 111.5 586Q120 579 133 579ZM133 369Q85 369 57.5 393.5Q30 418 30 460V489H103V465Q103 449 112 440.5Q121 432 135 432Q150 432 158 441.5Q166 451 166 466V553Q155 541 138 534Q121 527 104 527Q67 527 46.5 548Q26 569 26 603V687Q26 732 57.5 757Q89 782 136 782Q183 782 213.5 757Q244 732 244 686V472Q244 420 211.5 394.5Q179 369 133 369Z" glyph-name="uni2079" horiz-adv-x="270" unicode="&#8313;" /><glyph d="M110 309Q94 333 81 363Q68 393 59 426.5Q50 460 45 495Q40 530 40 563Q40 629 58 695Q76 761 110 810L148 809Q136 776 127.5 747.5Q119 719 113.5 690.5Q108 662 105 631Q102 600 102 562Q102 496 114 433.5Q126 371 148 311Z" glyph-name="uni207D" horiz-adv-x="161" unicode="&#8317;" /><glyph d="M22 311Q44 371 56 433.5Q68 496 68 562Q68 600 65 631Q62 662 56.5 690.5Q51 719 42.5 747.5Q34 776 22 809L61 810Q94 761 112.5 695Q131 629 131 563Q131 530 126 495Q121 460 112 426.5Q103 393 90 363Q77 333 61 309Z" glyph-name="uni207E" horiz-adv-x="161" unicode="&#8318;" /><glyph d="M136 -81Q154 -81 161 -71Q168 -61 168 -48V175Q168 188 160.5 197Q153 206 136 206Q119 206 111 197Q103 188 103 175V-48Q103 -61 111 -71Q119 -81 136 -81ZM136 -144Q91 -144 59 -120.5Q27 -97 27 -47V173Q27 197 36 215Q45 233 60 245Q75 257 95 263Q115 269 136 269Q157 269 176.5 263.5Q196 258 211.5 246.5Q227 235 236 217Q245 199 245 174V-47Q245 -71 236 -89.5Q227 -108 212 -120Q197 -132 177.5 -138Q158 -144 136 -144Z" glyph-name="uni2080" horiz-adv-x="271" unicode="&#8320;" /><glyph d="M74 193 38 183 28 239 105 267H148V-133H74Z" glyph-name="uni2081" horiz-adv-x="209" unicode="&#8321;" /><glyph d="M35 -84 113 29Q135 64 148.5 95Q162 126 162 155V161Q162 178 155.5 190.5Q149 203 132 203Q115 203 108.5 191.5Q102 180 102 163V140H29V167Q29 214 57 241Q85 268 134 268Q185 268 212 239.5Q239 211 239 160Q239 109 216.5 67.5Q194 26 166 -14L131 -69H241V-133H35Z" glyph-name="uni2082" horiz-adv-x="266" unicode="&#8322;" /><glyph d="M135 -144Q78 -144 52.5 -114.5Q27 -85 27 -40V-18H100V-41Q100 -59 109 -70Q118 -81 133 -81Q165 -81 165 -22Q165 12 152 23.5Q139 35 126 35H96V95H124Q143 95 153 107.5Q163 120 163 152Q163 181 154 192Q145 203 131 203Q115 203 108 191Q101 179 101 162V144H29V166Q29 214 56.5 241Q84 268 135 268Q183 268 210.5 239.5Q238 211 238 162Q238 130 226 104Q214 78 187 68V66Q216 57 230.5 30.5Q245 4 245 -27Q245 -59 236 -81Q227 -103 212 -117Q197 -131 177 -137.5Q157 -144 135 -144Z" glyph-name="uni2083" horiz-adv-x="272" unicode="&#8323;" /><glyph d="M145 -42H16V15L126 266H205L89 20H145V81L218 136V20H250V-42H218V-133H145Z" glyph-name="uni2084" horiz-adv-x="265" unicode="&#8324;" /><glyph d="M133 -144Q83 -144 55 -119.5Q27 -95 27 -53V-17H101V-46Q101 -62 109.5 -72Q118 -82 134 -82Q166 -82 166 -40V25Q166 63 134 63Q123 63 115 56.5Q107 50 102 42L32 48L40 263H227V196H105Q105 193 104.5 178Q104 163 103 145.5Q102 128 101.5 113Q101 98 101 95Q125 117 160 117Q176 117 191 112.5Q206 108 218 98Q230 88 237 72Q244 56 244 33V-42Q244 -67 235 -86Q226 -105 210.5 -118Q195 -131 175 -137.5Q155 -144 133 -144Z" glyph-name="uni2085" horiz-adv-x="271" unicode="&#8325;" /><glyph d="M137 -82Q154 -82 161 -72Q168 -62 168 -50V30Q168 46 159 53Q150 60 138 60Q125 60 115 50.5Q105 41 105 25V-50Q105 -63 113 -72.5Q121 -82 137 -82ZM135 -144Q88 -144 57 -118.5Q26 -93 26 -47V169Q26 219 59 244Q92 269 138 269Q185 269 213 244.5Q241 220 241 179V148H168V175Q168 189 159 198Q150 207 135 207Q119 207 112 197Q105 187 105 173V83Q116 97 132.5 103.5Q149 110 166 110Q204 110 224.5 89Q245 68 245 34V-48Q245 -93 213 -118.5Q181 -144 135 -144Z" glyph-name="uni2086" horiz-adv-x="270" unicode="&#8326;" /><glyph d="M62 -133Q62 -84 70.5 -37Q79 10 92 52.5Q105 95 122 131.5Q139 168 157 197H23V263H239V207Q195 144 169 54Q143 -36 143 -133Z" glyph-name="uni2087" horiz-adv-x="260" unicode="&#8327;" /><glyph d="M136 95Q151 95 159.5 103.5Q168 112 168 126V179Q168 194 158.5 202Q149 210 135 210Q122 210 112.5 202Q103 194 103 181V126Q103 112 112.5 103.5Q122 95 136 95ZM136 -84Q152 -84 160.5 -75Q169 -66 169 -52V6Q169 22 159 30Q149 38 136 38Q122 38 112 30Q102 22 102 8V-53Q102 -67 111.5 -75.5Q121 -84 136 -84ZM136 -144Q88 -144 57.5 -121.5Q27 -99 27 -51V0Q27 23 37 39.5Q47 56 64 67Q48 76 39.5 93Q31 110 31 127V177Q31 222 61 245.5Q91 269 136 269Q180 269 210.5 247Q241 225 241 179V130Q241 110 232 93.5Q223 77 207 67Q223 58 234 41Q245 24 245 3V-52Q245 -97 213.5 -120.5Q182 -144 136 -144Z" glyph-name="uni2088" horiz-adv-x="272" unicode="&#8328;" /><glyph d="M133 66Q145 66 155.5 75.5Q166 85 166 101V176Q166 189 158 198.5Q150 208 133 208Q116 208 109.5 198Q103 188 103 176V96Q103 80 111.5 73Q120 66 133 66ZM133 -144Q85 -144 57.5 -119.5Q30 -95 30 -53V-24H103V-48Q103 -64 112 -72.5Q121 -81 135 -81Q150 -81 158 -71.5Q166 -62 166 -47V40Q155 28 138 21Q121 14 104 14Q67 14 46.5 35Q26 56 26 90V174Q26 219 57.5 244Q89 269 136 269Q183 269 213.5 244Q244 219 244 173V-41Q244 -93 211.5 -118.5Q179 -144 133 -144Z" glyph-name="uni2089" horiz-adv-x="270" unicode="&#8329;" /><glyph d="M110 -204Q94 -180 81 -150Q68 -120 59 -86.5Q50 -53 45 -18Q40 17 40 50Q40 116 58 182Q76 248 110 297L148 296Q136 263 127.5 234.5Q119 206 113.5 177.5Q108 149 105 118Q102 87 102 49Q102 -17 114 -79.5Q126 -142 148 -202Z" glyph-name="uni208D" horiz-adv-x="161" unicode="&#8333;" /><glyph d="M22 -202Q44 -142 56 -79.5Q68 -17 68 49Q68 87 65 118Q62 149 56.5 177.5Q51 206 42.5 234.5Q34 263 22 296L61 297Q94 248 112.5 182Q131 116 131 50Q131 17 126 -18Q121 -53 112 -86.5Q103 -120 90 -150Q77 -180 61 -204Z" glyph-name="uni208E" horiz-adv-x="161" unicode="&#8334;" /><glyph d="M126 583H191V94H280Q310 94 310 142V705H394V163Q394 115 386 84Q378 53 363 34Q348 15 325.5 7.5Q303 0 274 0H126ZM26 705H164Q193 705 215.5 699.5Q238 694 253 678.5Q268 663 276 634Q284 605 284 557V122H218V563Q218 612 189 612H100V0H26Z" glyph-name="uni20AA" horiz-adv-x="420" unicode="&#8362;" /><glyph d="M459 -11Q402 -11 376.5 18.5Q351 48 351 93V115H424V92Q424 74 433 63Q442 52 457 52Q489 52 489 111Q489 145 476 156.5Q463 168 450 168H420V228H448Q467 228 477 240.5Q487 253 487 285Q487 314 478 325Q469 336 455 336Q439 336 432 324Q425 312 425 295V277H353V299Q353 347 380.5 374Q408 401 459 401Q507 401 534.5 372.5Q562 344 562 295Q562 263 550 237Q538 211 511 201V199Q540 190 554.5 163.5Q569 137 569 106Q569 74 560 52Q551 30 536 16Q521 2 501 -4.5Q481 -11 459 -11ZM405 716H460L163 -2H107ZM99 642 63 632 53 688 130 716H173V316H99Z" glyph-name="uni2153" horiz-adv-x="614" unicode="&#8531;" /><glyph d="M469 -11Q412 -11 386.5 18.5Q361 48 361 93V115H434V92Q434 74 443 63Q452 52 467 52Q499 52 499 111Q499 145 486 156.5Q473 168 460 168H430V228H458Q477 228 487 240.5Q497 253 497 285Q497 314 488 325Q479 336 465 336Q449 336 442 324Q435 312 435 295V277H363V299Q363 347 390.5 374Q418 401 469 401Q517 401 544.5 372.5Q572 344 572 295Q572 263 560 237Q548 211 521 201V199Q550 190 564.5 163.5Q579 137 579 106Q579 74 570 52Q561 30 546 16Q531 2 511 -4.5Q491 -11 469 -11ZM427 716H482L185 -2H129ZM21 365 99 478Q121 513 134.5 544Q148 575 148 604V610Q148 627 141.5 639.5Q135 652 118 652Q101 652 94.5 640.5Q88 629 88 612V589H15V616Q15 663 43 690Q71 717 120 717Q171 717 198 688.5Q225 660 225 609Q225 558 202.5 516.5Q180 475 152 435L117 380H227V316H21Z" glyph-name="uni2154" horiz-adv-x="614" unicode="&#8532;" /><glyph d="M410 716H465L168 -2H112ZM465 -11Q415 -11 387 13.5Q359 38 359 80V116H433V87Q433 71 441.5 61Q450 51 466 51Q498 51 498 93V158Q498 196 466 196Q455 196 447 189.5Q439 183 434 175L364 181L372 396H559V329H437Q437 326 436.5 311Q436 296 435 278.5Q434 261 433.5 246Q433 231 433 228Q457 250 492 250Q508 250 523 245.5Q538 241 550 231Q562 221 569 205Q576 189 576 166V91Q576 66 567 47Q558 28 542.5 15Q527 2 507 -4.5Q487 -11 465 -11ZM100 642 64 632 54 688 131 716H174V316H100Z" glyph-name="uni2155" horiz-adv-x="614" unicode="&#8533;" /><glyph d="M423 716H478L181 -2H125ZM470 -11Q420 -11 392 13.5Q364 38 364 80V116H438V87Q438 71 446.5 61Q455 51 471 51Q503 51 503 93V158Q503 196 471 196Q460 196 452 189.5Q444 183 439 175L369 181L377 396H564V329H442Q442 326 441.5 311Q441 296 440 278.5Q439 261 438.5 246Q438 231 438 228Q462 250 497 250Q513 250 528 245.5Q543 241 555 231Q567 221 574 205Q581 189 581 166V91Q581 66 572 47Q563 28 547.5 15Q532 2 512 -4.5Q492 -11 470 -11ZM21 365 99 478Q121 513 134.5 544Q148 575 148 604V610Q148 627 141.5 639.5Q135 652 118 652Q101 652 94.5 640.5Q88 629 88 612V589H15V616Q15 663 43 690Q71 717 120 717Q171 717 198 688.5Q225 660 225 609Q225 558 202.5 516.5Q180 475 152 435L117 380H227V316H21Z" glyph-name="uni2156" horiz-adv-x="614" unicode="&#8534;" /><glyph d="M470 -11Q420 -11 392 13.5Q364 38 364 80V116H438V87Q438 71 446.5 61Q455 51 471 51Q503 51 503 93V158Q503 196 471 196Q460 196 452 189.5Q444 183 439 175L369 181L377 396H564V329H442Q442 326 441.5 311Q441 296 440 278.5Q439 261 438.5 246Q438 231 438 228Q462 250 497 250Q513 250 528 245.5Q543 241 555 231Q567 221 574 205Q581 189 581 166V91Q581 66 572 47Q563 28 547.5 15Q532 2 512 -4.5Q492 -11 470 -11ZM421 716H476L179 -2H123ZM126 305Q69 305 43.5 334.5Q18 364 18 409V431H91V408Q91 390 100 379Q109 368 124 368Q156 368 156 427Q156 461 143 472.5Q130 484 117 484H87V544H115Q134 544 144 556.5Q154 569 154 601Q154 630 145 641Q136 652 122 652Q106 652 99 640Q92 628 92 611V593H20V615Q20 663 47.5 690Q75 717 126 717Q174 717 201.5 688.5Q229 660 229 611Q229 579 217 553Q205 527 178 517V515Q207 506 221.5 479.5Q236 453 236 422Q236 390 227 368Q218 346 203 332Q188 318 168 311.5Q148 305 126 305Z" glyph-name="uni2157" horiz-adv-x="614" unicode="&#8535;" /><glyph d="M421 716H476L179 -2H123ZM470 -11Q420 -11 392 13.5Q364 38 364 80V116H438V87Q438 71 446.5 61Q455 51 471 51Q503 51 503 93V158Q503 196 471 196Q460 196 452 189.5Q444 183 439 175L369 181L377 396H564V329H442Q442 326 441.5 311Q441 296 440 278.5Q439 261 438.5 246Q438 231 438 228Q462 250 497 250Q513 250 528 245.5Q543 241 555 231Q567 221 574 205Q581 189 581 166V91Q581 66 572 47Q563 28 547.5 15Q532 2 512 -4.5Q492 -11 470 -11ZM135 407H6V464L116 715H195L79 469H135V530L208 585V469H240V407H208V316H135Z" glyph-name="uni2158" horiz-adv-x="614" unicode="&#8536;" /><glyph d="M411 716H466L169 -2H113ZM464 51Q481 51 488 61Q495 71 495 83V163Q495 179 486 186Q477 193 465 193Q452 193 442 183.5Q432 174 432 158V83Q432 70 440 60.5Q448 51 464 51ZM462 -11Q415 -11 384 14.5Q353 40 353 86V302Q353 352 386 377Q419 402 465 402Q512 402 540 377.5Q568 353 568 312V281H495V308Q495 322 486 331Q477 340 462 340Q446 340 439 330Q432 320 432 306V216Q443 230 459.5 236.5Q476 243 493 243Q531 243 551.5 222Q572 201 572 167V85Q572 40 540 14.5Q508 -11 462 -11ZM108 642 72 632 62 688 139 716H182V316H108Z" glyph-name="uni2159" horiz-adv-x="614" unicode="&#8537;" /><glyph d="M423 716H478L181 -2H125ZM134 305Q84 305 56 329.5Q28 354 28 396V432H102V403Q102 387 110.5 377Q119 367 135 367Q167 367 167 409V474Q167 512 135 512Q124 512 116 505.5Q108 499 103 491L33 497L41 712H228V645H106Q106 642 105.5 627Q105 612 104 594.5Q103 577 102.5 562Q102 547 102 544Q126 566 161 566Q177 566 192 561.5Q207 557 219 547Q231 537 238 521Q245 505 245 482V407Q245 382 236 363Q227 344 211.5 331Q196 318 176 311.5Q156 305 134 305ZM468 51Q485 51 492 61Q499 71 499 83V163Q499 179 490 186Q481 193 469 193Q456 193 446 183.5Q436 174 436 158V83Q436 70 444 60.5Q452 51 468 51ZM466 -11Q419 -11 388 14.5Q357 40 357 86V302Q357 352 390 377Q423 402 469 402Q516 402 544 377.5Q572 353 572 312V281H499V308Q499 322 490 331Q481 340 466 340Q450 340 443 330Q436 320 436 306V216Q447 230 463.5 236.5Q480 243 497 243Q535 243 555.5 222Q576 201 576 167V85Q576 40 544 14.5Q512 -11 466 -11Z" glyph-name="uni215A" horiz-adv-x="614" unicode="&#8538;" /><glyph d="M413 716H468L171 -2H115ZM463 228Q478 228 486.5 236.5Q495 245 495 259V312Q495 327 485.5 335Q476 343 462 343Q449 343 439.5 335Q430 327 430 314V259Q430 245 439.5 236.5Q449 228 463 228ZM463 49Q479 49 487.5 58Q496 67 496 81V139Q496 155 486 163Q476 171 463 171Q449 171 439 163Q429 155 429 141V80Q429 66 438.5 57.5Q448 49 463 49ZM463 -11Q415 -11 384.5 11.5Q354 34 354 82V133Q354 156 364 172.5Q374 189 391 200Q375 209 366.5 226Q358 243 358 260V310Q358 355 388 378.5Q418 402 463 402Q507 402 537.5 380Q568 358 568 312V263Q568 243 559 226.5Q550 210 534 200Q550 191 561 174Q572 157 572 136V81Q572 36 540.5 12.5Q509 -11 463 -11ZM108 642 72 632 62 688 139 716H182V316H108Z" glyph-name="uni215B" horiz-adv-x="614" unicode="&#8539;" /><glyph d="M426 716H481L184 -2H128ZM136 305Q79 305 53.5 334.5Q28 364 28 409V431H101V408Q101 390 110 379Q119 368 134 368Q166 368 166 427Q166 461 153 472.5Q140 484 127 484H97V544H125Q144 544 154 556.5Q164 569 164 601Q164 630 155 641Q146 652 132 652Q116 652 109 640Q102 628 102 611V593H30V615Q30 663 57.5 690Q85 717 136 717Q184 717 211.5 688.5Q239 660 239 611Q239 579 227 553Q215 527 188 517V515Q217 506 231.5 479.5Q246 453 246 422Q246 390 237 368Q228 346 213 332Q198 318 178 311.5Q158 305 136 305ZM468 228Q483 228 491.5 236.5Q500 245 500 259V312Q500 327 490.5 335Q481 343 467 343Q454 343 444.5 335Q435 327 435 314V259Q435 245 444.5 236.5Q454 228 468 228ZM468 49Q484 49 492.5 58Q501 67 501 81V139Q501 155 491 163Q481 171 468 171Q454 171 444 163Q434 155 434 141V80Q434 66 443.5 57.5Q453 49 468 49ZM468 -11Q420 -11 389.5 11.5Q359 34 359 82V133Q359 156 369 172.5Q379 189 396 200Q380 209 371.5 226Q363 243 363 260V310Q363 355 393 378.5Q423 402 468 402Q512 402 542.5 380Q573 358 573 312V263Q573 243 564 226.5Q555 210 539 200Q555 191 566 174Q577 157 577 136V81Q577 36 545.5 12.5Q514 -11 468 -11Z" glyph-name="uni215C" horiz-adv-x="614" unicode="&#8540;" /><glyph d="M423 716H478L181 -2H125ZM135 305Q85 305 57 329.5Q29 354 29 396V432H103V403Q103 387 111.5 377Q120 367 136 367Q168 367 168 409V474Q168 512 136 512Q125 512 117 505.5Q109 499 104 491L34 497L42 712H229V645H107Q107 642 106.5 627Q106 612 105 594.5Q104 577 103.5 562Q103 547 103 544Q127 566 162 566Q178 566 193 561.5Q208 557 220 547Q232 537 239 521Q246 505 246 482V407Q246 382 237 363Q228 344 212.5 331Q197 318 177 311.5Q157 305 135 305ZM466 228Q481 228 489.5 236.5Q498 245 498 259V312Q498 327 488.5 335Q479 343 465 343Q452 343 442.5 335Q433 327 433 314V259Q433 245 442.5 236.5Q452 228 466 228ZM466 49Q482 49 490.5 58Q499 67 499 81V139Q499 155 489 163Q479 171 466 171Q452 171 442 163Q432 155 432 141V80Q432 66 441.5 57.5Q451 49 466 49ZM466 -11Q418 -11 387.5 11.5Q357 34 357 82V133Q357 156 367 172.5Q377 189 394 200Q378 209 369.5 226Q361 243 361 260V310Q361 355 391 378.5Q421 402 466 402Q510 402 540.5 380Q571 358 571 312V263Q571 243 562 226.5Q553 210 537 200Q553 191 564 174Q575 157 575 136V81Q575 36 543.5 12.5Q512 -11 466 -11Z" glyph-name="uni215D" horiz-adv-x="614" unicode="&#8541;" /><glyph d="M412 716H467L170 -2H114ZM84 316Q84 365 92.5 412Q101 459 114 501.5Q127 544 144 580.5Q161 617 179 646H45V712H261V656Q217 593 191 503Q165 413 165 316ZM466 228Q481 228 489.5 236.5Q498 245 498 259V312Q498 327 488.5 335Q479 343 465 343Q452 343 442.5 335Q433 327 433 314V259Q433 245 442.5 236.5Q452 228 466 228ZM466 49Q482 49 490.5 58Q499 67 499 81V139Q499 155 489 163Q479 171 466 171Q452 171 442 163Q432 155 432 141V80Q432 66 441.5 57.5Q451 49 466 49ZM466 -11Q418 -11 387.5 11.5Q357 34 357 82V133Q357 156 367 172.5Q377 189 394 200Q378 209 369.5 226Q361 243 361 260V310Q361 355 391 378.5Q421 402 466 402Q510 402 540.5 380Q571 358 571 312V263Q571 243 562 226.5Q553 210 537 200Q553 191 564 174Q575 157 575 136V81Q575 36 543.5 12.5Q512 -11 466 -11Z" glyph-name="uni215E" horiz-adv-x="614" unicode="&#8542;" /><glyph d="M149 373 151 255H84L88 477L94 482L317 488L318 424L199 423L368 253L318 204Z" glyph-name="uni2196" horiz-adv-x="436" unicode="&#8598;" /><glyph d="M84 253 254 423 134 424 135 488 358 482 363 477 368 255H301L304 373L134 204Z" glyph-name="uni2197" horiz-adv-x="436" unicode="&#8599;" /><glyph d="M134 267 254 268 84 438 134 488 304 318Q304 322 303.5 339.5Q303 357 302.5 377.5Q302 398 301.5 415Q301 432 301 437H368Q368 433 367.5 416Q367 399 366.5 375.5Q366 352 365.5 325.5Q365 299 364.5 275.5Q364 252 363.5 235Q363 218 363 215L358 209L135 204Z" glyph-name="uni2198" horiz-adv-x="436" unicode="&#8600;" /><glyph d="M94 209 88 215 84 437H151L149 318L318 488L368 438L199 268L318 267L317 204Z" glyph-name="uni2199" horiz-adv-x="436" unicode="&#8601;" /><glyph d="M41 287 36 292 269 526 275 520 378 188 373 183Z" glyph-name="uni25E2" horiz-adv-x="409" unicode="&#9698;" /><glyph d="M36 188 139 520 145 526 378 292 373 287 41 183Z" glyph-name="uni25E3" horiz-adv-x="409" unicode="&#9699;" /><glyph d="M139 189 36 521 41 526 373 422 378 417 145 183Z" glyph-name="uni25E4" horiz-adv-x="409" unicode="&#9700;" /><glyph d="M36 417 41 422 373 526 378 521 275 189 269 183Z" glyph-name="uni25E5" horiz-adv-x="409" unicode="&#9701;" /><glyph d="M148 -11Q105 -11 75.5 17Q46 45 46 94V530H150V133Q150 108 161 92.5Q172 77 198 77Q225 77 241.5 101.5Q258 126 258 158V530H362V0H261V55H260Q241 23 212 6Q183 -11 148 -11Z" glyph-name="uogonek" horiz-adv-x="411" unicode="&#371;" /><glyph d="M148 -11Q105 -11 75.5 17Q46 45 46 94V530H150V133Q150 108 161 92.5Q172 77 198 77Q225 77 241.5 101.5Q258 126 258 158V530H362V0H261V55H260Q241 23 212 6Q183 -11 148 -11ZM206 619Q226 619 237.5 632Q249 645 249 665Q249 685 238 698.5Q227 712 205 712Q185 712 174.5 699Q164 686 164 665Q164 644 176 631.5Q188 619 206 619ZM205 577Q165 577 141 601.5Q117 626 117 663Q117 701 142 727.5Q167 754 206 754Q247 754 270.5 729.5Q294 705 294 667Q294 648 287 631.5Q280 615 268 603Q256 591 240 584Q224 577 205 577Z" glyph-name="uring" horiz-adv-x="411" unicode="&#367;" /><glyph d="M61 601Q67 643 88.5 673.5Q110 704 146 704Q161 704 176 699.5Q191 695 205.5 689.5Q220 684 234.5 679.5Q249 675 263 675Q277 675 284.5 684.5Q292 694 298 712L350 699Q347 679 340.5 660.5Q334 642 323 628Q312 614 297.5 605.5Q283 597 264 597Q250 597 234.5 601.5Q219 606 204 611.5Q189 617 175.5 621.5Q162 626 150 626Q136 626 128.5 618Q121 610 116 589ZM148 -11Q105 -11 75.5 17Q46 45 46 94V530H150V133Q150 108 161 92.5Q172 77 198 77Q225 77 241.5 101.5Q258 126 258 158V530H362V0H261V55H260Q241 23 212 6Q183 -11 148 -11Z" glyph-name="utilde" horiz-adv-x="411" unicode="&#361;" /><glyph d="M11 530H121L185 165H188L255 530H351L235 -2H128Z" glyph-name="v" horiz-adv-x="362" unicode="v" /><glyph d="M19 530H127L174 202H177L232 530H330L383 202H387L435 530H531L431 -1H340L278 350H275L212 -1H118Z" glyph-name="w" horiz-adv-x="544" unicode="w" /><glyph d="M19 530H127L174 202H177L232 530H330L383 202H387L435 530H531L431 -1H340L278 350H275L212 -1H118ZM309 730H416L318 584H241Z" glyph-name="wacute" horiz-adv-x="544" unicode="&#7811;" /><glyph d="M19 530H127L174 202H177L232 530H330L383 202H387L435 530H531L431 -1H340L278 350H275L212 -1H118ZM234 733H311L394 585H311L270 666L230 585H150Z" glyph-name="wcircumflex" horiz-adv-x="544" unicode="&#373;" /><glyph d="M19 530H127L174 202H177L232 530H330L383 202H387L435 530H531L431 -1H340L278 350H275L212 -1H118ZM301 723H385V592H301ZM159 723H243V592H159Z" glyph-name="wdieresis" horiz-adv-x="544" unicode="&#7813;" /><glyph d="M163 730H270L338 584H261ZM19 530H127L174 202H177L232 530H330L383 202H387L435 530H531L431 -1H340L278 350H275L212 -1H118Z" glyph-name="wgrave" horiz-adv-x="544" unicode="&#7809;" /><glyph d="M426 62V652H107V62ZM43 713H490V0H43Z" glyph-name="whitesquare" horiz-adv-x="533" unicode="&#9633;" /><glyph d="M124 270 16 530H125L188 365L250 530H344L238 275L352 1H243L174 177L104 1H9Z" glyph-name="x" horiz-adv-x="361" unicode="x" /><glyph d="M96 -171Q60 -171 33 -164L43 -81Q55 -83 65.5 -85Q76 -87 85 -87Q101 -87 112 -79Q123 -71 128 -50L141 7L12 530H120L192 182H194L257 530H352L225 -37Q208 -106 177.5 -138.5Q147 -171 96 -171Z" glyph-name="y" horiz-adv-x="363" unicode="y" /><glyph d="M220 730H327L229 584H152ZM96 -171Q60 -171 33 -164L43 -81Q55 -83 65.5 -85Q76 -87 85 -87Q101 -87 112 -79Q123 -71 128 -50L141 7L12 530H120L192 182H194L257 530H352L225 -37Q208 -106 177.5 -138.5Q147 -171 96 -171Z" glyph-name="yacute" horiz-adv-x="363" unicode="&#253;" /><glyph d="M150 733H227L310 585H227L186 666L146 585H66ZM96 -171Q60 -171 33 -164L43 -81Q55 -83 65.5 -85Q76 -87 85 -87Q101 -87 112 -79Q123 -71 128 -50L141 7L12 530H120L192 182H194L257 530H352L225 -37Q208 -106 177.5 -138.5Q147 -171 96 -171Z" glyph-name="ycircumflex" horiz-adv-x="363" unicode="&#375;" /><glyph d="M218 723H302V592H218ZM76 723H160V592H76ZM96 -171Q60 -171 33 -164L43 -81Q55 -83 65.5 -85Q76 -87 85 -87Q101 -87 112 -79Q123 -71 128 -50L141 7L12 530H120L192 182H194L257 530H352L225 -37Q208 -106 177.5 -138.5Q147 -171 96 -171Z" glyph-name="ydieresis" horiz-adv-x="363" unicode="&#255;" /><glyph d="M151 246H40V318H140L8 714H125L212 428L297 714H405L274 318H374V246H262V0H151Z" glyph-name="yen" horiz-adv-x="412" unicode="&#165;" /><glyph d="M59 730H166L234 584H157ZM96 -171Q60 -171 33 -164L43 -81Q55 -83 65.5 -85Q76 -87 85 -87Q101 -87 112 -79Q123 -71 128 -50L141 7L12 530H120L192 182H194L257 530H352L225 -37Q208 -106 177.5 -138.5Q147 -171 96 -171Z" glyph-name="ygrave" horiz-adv-x="363" unicode="&#7923;" /><glyph d="M28 73 187 444H32V530H304L303 452L148 87H304V0H28Z" glyph-name="z" horiz-adv-x="330" unicode="z" /><glyph d="M28 73 187 444H32V530H304L303 452L148 87H304V0H28ZM197 730H304L206 584H129Z" glyph-name="zacute" horiz-adv-x="330" unicode="&#378;" /><glyph d="M28 73 187 444H32V530H304L303 452L148 87H304V0H28ZM46 736H130L170 655L211 736H292L207 587H130Z" glyph-name="zcaron" horiz-adv-x="330" unicode="&#382;" /><glyph d="M124 724H213V592H124ZM28 73 187 444H32V530H304L303 452L148 87H304V0H28Z" glyph-name="zdotaccent" horiz-adv-x="330" unicode="&#380;" /><glyph d="M212 81Q244 81 258 100.5Q272 120 272 143V575Q272 598 256 615.5Q240 633 211 633Q181 633 165.5 615.5Q150 598 150 575V142Q150 119 165 100Q180 81 212 81ZM211 -10Q175 -10 144.5 -0.5Q114 9 91.5 28.5Q69 48 56 77.5Q43 107 43 146V572Q43 610 57 638.5Q71 667 94 686Q117 705 148 714.5Q179 724 212 724Q245 724 275 714.5Q305 705 328.5 686.5Q352 668 365.5 639.5Q379 611 379 573V145Q379 106 365.5 76.5Q352 47 329 28Q306 9 275.5 -0.5Q245 -10 211 -10Z" glyph-name="zero" horiz-adv-x="421" unicode="0" /><glyph d="M212 81Q244 81 258 100.5Q272 120 272 143V575Q272 598 256 615.5Q240 633 211 633Q181 633 165.5 615.5Q150 598 150 575V142Q150 119 165 100Q180 81 212 81ZM211 -10Q175 -10 144.5 -0.5Q114 9 91.5 28.5Q69 48 56 77.5Q43 107 43 146V572Q43 610 57 638.5Q71 667 94 686Q117 705 148 714.5Q179 724 212 724Q245 724 275 714.5Q305 705 328.5 686.5Q352 668 365.5 639.5Q379 611 379 573V145Q379 106 365.5 76.5Q352 47 329 28Q306 9 275.5 -0.5Q245 -10 211 -10Z" glyph-name="zero.LT" horiz-adv-x="423" unicode="&#58687;" /><glyph d="M136 52Q154 52 161 62Q168 72 168 85V308Q168 321 160.5 330Q153 339 136 339Q119 339 111 330Q103 321 103 308V85Q103 72 111 62Q119 52 136 52ZM136 -11Q91 -11 59 12.5Q27 36 27 86V306Q27 330 36 348Q45 366 60 378Q75 390 95 396Q115 402 136 402Q157 402 176.5 396.5Q196 391 211.5 379.5Q227 368 236 350Q245 332 245 307V86Q245 62 236 43.5Q227 25 212 13Q197 1 177.5 -5Q158 -11 136 -11Z" glyph-name="zero.dnom" horiz-adv-x="271" unicode="&#58370;" /><glyph d="M136 370Q154 370 161 380Q168 390 168 403V626Q168 639 160.5 648Q153 657 136 657Q119 657 111 648Q103 639 103 626V403Q103 390 111 380Q119 370 136 370ZM136 307Q91 307 59 330.5Q27 354 27 404V624Q27 648 36 666Q45 684 60 696Q75 708 95 714Q115 720 136 720Q157 720 176.5 714.5Q196 709 211.5 697.5Q227 686 236 668Q245 650 245 625V404Q245 380 236 361.5Q227 343 212 331Q197 319 177.5 313Q158 307 136 307Z" glyph-name="zero.numr" horiz-adv-x="271" unicode="&#58390;" /></font>
</defs>
</svg>
