<?xml version="1.0" standalone="no"?><!DOCTYPE svg PUBLIC "-//W3C//DTD SVG 1.1//EN" "http://www.w3.org/Graphics/SVG/1.1/DTD/svg11.dtd" ><svg version="1.1" xmlns="http://www.w3.org/2000/svg"><defs><font horiz-adv-x="0" id="font"><font-face ascent="750" bbox="-122 -207 771 979" cap-height="713" descent="-250" font-family="Flama Condensed Basic" font-stretch="normal" font-style="normal" font-weight="600" units-per-em="1000" x-height="528" /><missing-glyph d="M707 42V638H115V42ZM55 698H767V-18H55ZM195 158 380 343 195 528 235 568 420 383 605 568 645 528 460 343 645 158 605 118 420 303 235 118Z" horiz-adv-x="951" /><glyph glyph-name=".null" horiz-adv-x="0" /><glyph d="M289 281 226 620H223L159 281ZM174 715H284L427 0H344L303 213H145L105 0H28Z" glyph-name="A" horiz-adv-x="455" unicode="A" /><glyph d="M291 287V634H288L186 287ZM242 714H572V643H372V407H533V336H372V72H573V0H291V222H164L102 0H20Z" glyph-name="AE" horiz-adv-x="610" unicode="&#198;" /><glyph d="M291 287V634H288L186 287ZM242 714H572V643H372V407H533V336H372V72H573V0H291V222H164L102 0H20ZM394 911H478L386 768H326Z" glyph-name="AEacute" horiz-adv-x="610" unicode="&#508;" /><glyph d="M268 911H352L260 768H200ZM289 281 226 620H223L159 281ZM174 715H284L427 0H344L303 213H145L105 0H28Z" glyph-name="Aacute" horiz-adv-x="455" unicode="&#193;" /><glyph d="M228 771Q173 771 143 803.5Q113 836 111 897H168Q171 867 182.5 844.5Q194 822 230 822Q260 822 273.5 842.5Q287 863 287 897H342Q340 831 307.5 801Q275 771 228 771ZM289 281 226 620H223L159 281ZM174 715H284L427 0H344L303 213H145L105 0H28Z" glyph-name="Abreve" horiz-adv-x="455" unicode="&#258;" /><glyph d="M200 913H258L334 769H268L227 856L185 769H122ZM289 281 226 620H223L159 281ZM174 715H284L427 0H344L303 213H145L105 0H28Z" glyph-name="Acircumflex" horiz-adv-x="455" unicode="&#194;" /><glyph d="M258 901H324V781H258ZM129 901H195V781H129ZM289 281 226 620H223L159 281ZM174 715H284L427 0H344L303 213H145L105 0H28Z" glyph-name="Adieresis" horiz-adv-x="455" unicode="&#196;" /><glyph d="M108 911H191L259 768H200ZM289 281 226 620H223L159 281ZM174 715H284L427 0H344L303 213H145L105 0H28Z" glyph-name="Agrave" horiz-adv-x="455" unicode="&#192;" /><glyph d="M129 846H324V784H129ZM289 281 226 620H223L159 281ZM174 715H284L427 0H344L303 213H145L105 0H28Z" glyph-name="Amacron" horiz-adv-x="455" unicode="&#256;" /><glyph d="M289 281 226 620H223L159 281ZM395 -186Q360 -186 333.5 -166.5Q307 -147 307 -105Q307 -71 321.5 -44.5Q336 -18 357 0H344L303 213H145L105 0H28L174 715H284L427 0H418Q363 -30 363 -85Q363 -108 375.5 -119.5Q388 -131 407 -131Q419 -131 430 -127.5Q441 -124 450 -119L472 -163Q459 -171 441.5 -178.5Q424 -186 395 -186Z" glyph-name="Aogonek" horiz-adv-x="455" unicode="&#260;" /><glyph d="M229 786Q249 786 260.5 799Q272 812 272 833Q272 853 261 867Q250 881 228 881Q208 881 198 867.5Q188 854 188 832Q188 810 199.5 798Q211 786 229 786ZM229 751Q190 751 168.5 775Q147 799 147 831Q147 866 170 891Q193 916 229 916Q267 916 289 893.5Q311 871 311 836Q311 799 287.5 775Q264 751 229 751ZM289 281 226 620H223L159 281ZM174 715H284L427 0H344L303 213H145L105 0H28Z" glyph-name="Aring" horiz-adv-x="455" unicode="&#197;" /><glyph d="M229 785Q248 785 259.5 797.5Q271 810 271 832Q271 852 260.5 865Q250 878 229 878Q209 878 199 864.5Q189 851 189 830Q189 808 200 796.5Q211 785 229 785ZM229 751Q187 751 167.5 775.5Q148 800 148 829Q148 858 166 884L233 979L298 967L241 908Q276 904 293 883Q310 862 310 833Q310 798 287 774.5Q264 751 229 751ZM289 281 226 620H223L159 281ZM174 715H284L427 0H344L303 213H145L105 0H28Z" glyph-name="Aringacute" horiz-adv-x="455" unicode="&#506;" /><glyph d="M95 785Q100 821 119.5 847.5Q139 874 171 874Q185 874 199 869.5Q213 865 226.5 859.5Q240 854 253.5 849.5Q267 845 281 845Q296 845 303 854.5Q310 864 315 881L358 871Q353 836 333.5 809.5Q314 783 282 783Q268 783 253.5 787.5Q239 792 224.5 797.5Q210 803 197 807.5Q184 812 173 812Q158 812 152 803.5Q146 795 141 776ZM289 281 226 620H223L159 281ZM174 715H284L427 0H344L303 213H145L105 0H28Z" glyph-name="Atilde" horiz-adv-x="455" unicode="&#195;" /><glyph d="M204 398Q243 398 269 428Q295 458 295 526Q295 589 273 617Q251 645 216 645H140V398ZM217 68Q257 68 277.5 102.5Q298 137 298 203Q298 272 272.5 301.5Q247 331 205 331H140V68ZM58 713H229Q304 713 339.5 666.5Q375 620 375 535Q375 466 350 422.5Q325 379 280 370V366Q334 354 357.5 308Q381 262 381 198Q381 144 370 106.5Q359 69 339.5 45.5Q320 22 293 11Q266 0 234 0H58Z" glyph-name="B" horiz-adv-x="425" unicode="B" /><glyph d="M222 -10Q144 -10 96 31Q48 72 48 150V561Q48 636 95.5 680Q143 724 222 724Q297 724 340.5 683Q384 642 384 579V498H310V567Q310 605 288 629Q266 653 221 653Q172 653 151.5 625.5Q131 598 131 558V159Q131 111 155.5 87Q180 63 223 63Q266 63 288 88Q310 113 310 148V218H384V144Q384 109 372.5 81Q361 53 340 32.5Q319 12 289 1Q259 -10 222 -10Z" glyph-name="C" horiz-adv-x="426" unicode="C" /><glyph d="M222 -10Q144 -10 96 31Q48 72 48 150V561Q48 636 95.5 680Q143 724 222 724Q297 724 340.5 683Q384 642 384 579V498H310V567Q310 605 288 629Q266 653 221 653Q172 653 151.5 625.5Q131 598 131 558V159Q131 111 155.5 87Q180 63 223 63Q266 63 288 88Q310 113 310 148V218H384V144Q384 109 372.5 81Q361 53 340 32.5Q319 12 289 1Q259 -10 222 -10ZM253 911H337L245 768H185Z" glyph-name="Cacute" horiz-adv-x="426" unicode="&#262;" /><glyph d="M222 -10Q144 -10 96 31Q48 72 48 150V561Q48 636 95.5 680Q143 724 222 724Q297 724 340.5 683Q384 642 384 579V498H310V567Q310 605 288 629Q266 653 221 653Q172 653 151.5 625.5Q131 598 131 558V159Q131 111 155.5 87Q180 63 223 63Q266 63 288 88Q310 113 310 148V218H384V144Q384 109 372.5 81Q361 53 340 32.5Q319 12 289 1Q259 -10 222 -10ZM107 914H172L214 827L255 914H319L241 770H182Z" glyph-name="Ccaron" horiz-adv-x="426" unicode="&#268;" /><glyph d="M219 -184Q205 -184 186 -182Q167 -180 147 -175V-129Q183 -138 215 -138Q233 -138 243.5 -132.5Q254 -127 254 -113Q254 -99 241.5 -94Q229 -89 209 -87L181 -85L198 -9Q129 -3 88.5 37.5Q48 78 48 150V561Q48 636 95.5 680Q143 724 222 724Q297 724 340.5 683Q384 642 384 579V498H310V567Q310 605 288 629Q266 653 221 653Q172 653 151.5 625.5Q131 598 131 558V159Q131 111 155.5 87Q180 63 223 63Q266 63 288 88Q310 113 310 148V218H384V144Q384 78 344 37Q304 -4 237 -9L227 -52Q242 -53 257.5 -56Q273 -59 285.5 -65.5Q298 -72 306 -83.5Q314 -95 314 -112Q314 -145 286 -164.5Q258 -184 219 -184Z" glyph-name="Ccedilla" horiz-adv-x="426" unicode="&#199;" /><glyph d="M222 -10Q144 -10 96 31Q48 72 48 150V561Q48 636 95.5 680Q143 724 222 724Q297 724 340.5 683Q384 642 384 579V498H310V567Q310 605 288 629Q266 653 221 653Q172 653 151.5 625.5Q131 598 131 558V159Q131 111 155.5 87Q180 63 223 63Q266 63 288 88Q310 113 310 148V218H384V144Q384 109 372.5 81Q361 53 340 32.5Q319 12 289 1Q259 -10 222 -10ZM184 913H242L318 769H252L211 856L169 769H106Z" glyph-name="Ccircumflex" horiz-adv-x="426" unicode="&#264;" /><glyph d="M185 903H254V781H185ZM222 -10Q144 -10 96 31Q48 72 48 150V561Q48 636 95.5 680Q143 724 222 724Q297 724 340.5 683Q384 642 384 579V498H310V567Q310 605 288 629Q266 653 221 653Q172 653 151.5 625.5Q131 598 131 558V159Q131 111 155.5 87Q180 63 223 63Q266 63 288 88Q310 113 310 148V218H384V144Q384 109 372.5 81Q361 53 340 32.5Q319 12 289 1Q259 -10 222 -10Z" glyph-name="Cdotaccent" horiz-adv-x="426" unicode="&#266;" /><glyph d="M219 72Q244 72 261.5 80.5Q279 89 289.5 102Q300 115 304.5 131Q309 147 309 163V555Q309 591 287.5 616.5Q266 642 219 642H140V72ZM58 713H227Q262 713 292.5 704Q323 695 345.5 676.5Q368 658 380.5 629.5Q393 601 393 563V162Q393 121 380 90.5Q367 60 344.5 40Q322 20 291.5 10Q261 0 225 0H58Z" glyph-name="D" horiz-adv-x="441" unicode="D" /><glyph glyph-name="DEL" horiz-adv-x="0" /><glyph d="M219 72Q244 72 261.5 80.5Q279 89 289.5 102Q300 115 304.5 131Q309 147 309 163V555Q309 591 287.5 616.5Q266 642 219 642H140V72ZM58 713H227Q262 713 292.5 704Q323 695 345.5 676.5Q368 658 380.5 629.5Q393 601 393 563V162Q393 121 380 90.5Q367 60 344.5 40Q322 20 291.5 10Q261 0 225 0H58ZM104 914H169L211 827L252 914H316L238 770H179Z" glyph-name="Dcaron" horiz-adv-x="441" unicode="&#270;" /><glyph d="M228 72Q253 72 270.5 80.5Q288 89 298.5 102Q309 115 313.5 131Q318 147 318 163V555Q318 591 296.5 616.5Q275 642 228 642H149V403H265V344H149V72ZM22 403H67V713H236Q271 713 301.5 704Q332 695 354.5 676.5Q377 658 389.5 629.5Q402 601 402 563V162Q402 121 389 90.5Q376 60 353.5 40Q331 20 300.5 10Q270 0 234 0H67V344H22Z" glyph-name="Dcroat" horiz-adv-x="450" unicode="&#272;" /><glyph d="M339 72 227 620H224L114 72ZM28 48 175 715H284L430 49V0H28Z" glyph-name="Delta" horiz-adv-x="446" unicode="&#8710;" /><glyph d="M58 713H341V643H140V408H301V337H140V72H342V0H58Z" glyph-name="E" horiz-adv-x="379" unicode="E" /><glyph d="M58 713H341V643H140V408H301V337H140V72H342V0H58ZM235 911H319L227 768H167Z" glyph-name="Eacute" horiz-adv-x="379" unicode="&#201;" /><glyph d="M203 771Q148 771 118 803.5Q88 836 86 897H143Q146 867 157.5 844.5Q169 822 205 822Q235 822 248.5 842.5Q262 863 262 897H317Q315 831 282.5 801Q250 771 203 771ZM58 713H341V643H140V408H301V337H140V72H342V0H58Z" glyph-name="Ebreve" horiz-adv-x="379" unicode="&#276;" /><glyph d="M58 713H341V643H140V408H301V337H140V72H342V0H58ZM83 914H148L190 827L231 914H295L217 770H158Z" glyph-name="Ecaron" horiz-adv-x="379" unicode="&#282;" /><glyph d="M58 713H341V643H140V408H301V337H140V72H342V0H58ZM161 913H219L295 769H229L188 856L146 769H83Z" glyph-name="Ecircumflex" horiz-adv-x="379" unicode="&#202;" /><glyph d="M58 713H341V643H140V408H301V337H140V72H342V0H58ZM237 901H303V781H237ZM108 901H174V781H108Z" glyph-name="Edieresis" horiz-adv-x="379" unicode="&#203;" /><glyph d="M157 903H226V781H157ZM58 713H341V643H140V408H301V337H140V72H342V0H58Z" glyph-name="Edotaccent" horiz-adv-x="379" unicode="&#278;" /><glyph d="M93 911H176L244 768H185ZM58 713H341V643H140V408H301V337H140V72H342V0H58Z" glyph-name="Egrave" horiz-adv-x="379" unicode="&#200;" /><glyph d="M105 846H300V784H105ZM58 713H341V643H140V408H301V337H140V72H342V0H58Z" glyph-name="Emacron" horiz-adv-x="379" unicode="&#274;" /><glyph d="M307 -170Q295 -170 286 -169Q277 -168 266 -166V-105H288Q311 -105 319 -92.5Q327 -80 327 -57V3L134 547H131V0H58V713H147L330 209H332V713H404V-68Q404 -114 379 -142Q354 -170 307 -170Z" glyph-name="Eng" horiz-adv-x="463" unicode="&#330;" /><glyph d="M58 713H341V643H140V408H301V337H140V72H342V0H336Q281 -30 281 -85Q281 -108 293.5 -119.5Q306 -131 325 -131Q337 -131 348 -127.5Q359 -124 368 -119L390 -163Q377 -171 359.5 -178.5Q342 -186 313 -186Q278 -186 251.5 -166.5Q225 -147 225 -105Q225 -71 239.5 -44.5Q254 -18 275 0H58Z" glyph-name="Eogonek" horiz-adv-x="379" unicode="&#280;" /><glyph d="M228 72Q253 72 270.5 80.5Q288 89 298.5 102Q309 115 313.5 131Q318 147 318 163V555Q318 591 296.5 616.5Q275 642 228 642H149V403H265V344H149V72ZM22 403H67V713H236Q271 713 301.5 704Q332 695 354.5 676.5Q377 658 389.5 629.5Q402 601 402 563V162Q402 121 389 90.5Q376 60 353.5 40Q331 20 300.5 10Q270 0 234 0H67V344H22Z" glyph-name="Eth" horiz-adv-x="450" unicode="&#208;" /><glyph d="M252 -10Q175 -10 129 31Q83 72 83 147V266H31V319H83V399H31V452H83V563Q83 599 95 628.5Q107 658 129.5 679.5Q152 701 183 713Q214 725 253 725Q290 725 319.5 714Q349 703 370 684Q391 665 402 638Q413 611 413 580V496H339V573Q339 611 317.5 634Q296 657 251 657Q227 657 211 649.5Q195 642 184.5 629Q174 616 169.5 598.5Q165 581 165 562V452H310V399H165V319H310V266H165V155Q165 110 187.5 84.5Q210 59 254 59Q299 59 319 84.5Q339 110 339 146V214H413V142Q413 73 369.5 31.5Q326 -10 252 -10Z" glyph-name="Euro" horiz-adv-x="446" unicode="&#8364;" /><glyph d="M58 713H340V643H140V406H299V334H140V0H58Z" glyph-name="F" horiz-adv-x="368" unicode="F" /><glyph d="M223 -10Q144 -10 96 31.5Q48 73 48 151V560Q48 597 60.5 627.5Q73 658 95.5 679.5Q118 701 150.5 713Q183 725 222 725Q259 725 289.5 714Q320 703 341.5 684Q363 665 374.5 638Q386 611 386 580V501H311V570Q311 608 287.5 631.5Q264 655 222 655Q197 655 180 647Q163 639 152 625.5Q141 612 136 594Q131 576 131 556V157Q131 112 154.5 87Q178 62 222 62Q271 62 290.5 87.5Q310 113 310 149V309H216V375H388V143Q388 74 344.5 32Q301 -10 223 -10Z" glyph-name="G" horiz-adv-x="435" unicode="G" /><glyph d="M220 771Q165 771 135 803.5Q105 836 103 897H160Q163 867 174.5 844.5Q186 822 222 822Q252 822 265.5 842.5Q279 863 279 897H334Q332 831 299.5 801Q267 771 220 771ZM223 -10Q144 -10 96 31.5Q48 73 48 151V560Q48 597 60.5 627.5Q73 658 95.5 679.5Q118 701 150.5 713Q183 725 222 725Q259 725 289.5 714Q320 703 341.5 684Q363 665 374.5 638Q386 611 386 580V501H311V570Q311 608 287.5 631.5Q264 655 222 655Q197 655 180 647Q163 639 152 625.5Q141 612 136 594Q131 576 131 556V157Q131 112 154.5 87Q178 62 222 62Q271 62 290.5 87.5Q310 113 310 149V309H216V375H388V143Q388 74 344.5 32Q301 -10 223 -10Z" glyph-name="Gbreve" horiz-adv-x="435" unicode="&#286;" /><glyph d="M223 -10Q144 -10 96 31.5Q48 73 48 151V560Q48 597 60.5 627.5Q73 658 95.5 679.5Q118 701 150.5 713Q183 725 222 725Q259 725 289.5 714Q320 703 341.5 684Q363 665 374.5 638Q386 611 386 580V501H311V570Q311 608 287.5 631.5Q264 655 222 655Q197 655 180 647Q163 639 152 625.5Q141 612 136 594Q131 576 131 556V157Q131 112 154.5 87Q178 62 222 62Q271 62 290.5 87.5Q310 113 310 149V309H216V375H388V143Q388 74 344.5 32Q301 -10 223 -10ZM189 913H247L323 769H257L216 856L174 769H111Z" glyph-name="Gcircumflex" horiz-adv-x="435" unicode="&#284;" /><glyph d="M223 -10Q144 -10 96 31.5Q48 73 48 151V560Q48 597 60.5 627.5Q73 658 95.5 679.5Q118 701 150.5 713Q183 725 222 725Q259 725 289.5 714Q320 703 341.5 684Q363 665 374.5 638Q386 611 386 580V501H311V570Q311 608 287.5 631.5Q264 655 222 655Q197 655 180 647Q163 639 152 625.5Q141 612 136 594Q131 576 131 556V157Q131 112 154.5 87Q178 62 222 62Q271 62 290.5 87.5Q310 113 310 149V309H216V375H388V143Q388 74 344.5 32Q301 -10 223 -10ZM189 -38H264L239 -177H185Z" glyph-name="Gcommaaccent" horiz-adv-x="435" unicode="&#290;" /><glyph d="M184 903H253V781H184ZM223 -10Q144 -10 96 31.5Q48 73 48 151V560Q48 597 60.5 627.5Q73 658 95.5 679.5Q118 701 150.5 713Q183 725 222 725Q259 725 289.5 714Q320 703 341.5 684Q363 665 374.5 638Q386 611 386 580V501H311V570Q311 608 287.5 631.5Q264 655 222 655Q197 655 180 647Q163 639 152 625.5Q141 612 136 594Q131 576 131 556V157Q131 112 154.5 87Q178 62 222 62Q271 62 290.5 87.5Q310 113 310 149V309H216V375H388V143Q388 74 344.5 32Q301 -10 223 -10Z" glyph-name="Gdotaccent" horiz-adv-x="435" unicode="&#288;" /><glyph d="M58 713H141V403H318V713H400V0H318V327H141V0H58Z" glyph-name="H" horiz-adv-x="458" unicode="H" /><glyph d="M331 403V560H154V403ZM22 610H71V713H154V610H331V713H413V610H463V560H413V0H331V327H154V0H71V560H22Z" glyph-name="Hbar" horiz-adv-x="484" unicode="&#294;" /><glyph d="M58 713H141V403H318V713H400V0H318V327H141V0H58ZM200 913H258L334 769H268L227 856L185 769H122Z" glyph-name="Hcircumflex" horiz-adv-x="458" unicode="&#292;" /><glyph d="M58 713H141V0H58Z" glyph-name="I" horiz-adv-x="199" unicode="I" /><glyph d="M38 72H136V643H38V713H317V643H219V72H317V0H38Z" glyph-name="I.alt" horiz-adv-x="355" unicode="&#58504;" /><glyph d="M367 -10Q290 -10 249.5 30.5Q209 71 209 146V262H288V149Q288 132 291.5 116Q295 100 304 88Q313 76 328.5 68.5Q344 61 368 61Q390 61 405 68.5Q420 76 429 88Q438 100 442 116Q446 132 446 149V713H528V154Q528 80 487 35Q446 -10 367 -10ZM58 713H141V0H58Z" glyph-name="IJ" horiz-adv-x="583" unicode="&#306;" /><glyph d="M495 -10Q418 -10 377.5 30.5Q337 71 337 146V262H416V149Q416 132 419.5 116Q423 100 432 88Q441 76 456.5 68.5Q472 61 496 61Q518 61 533 68.5Q548 76 557 88Q566 100 570 116Q574 132 574 149V713H656V154Q656 80 615 35Q574 -10 495 -10ZM38 72H136V643H38V713H317V643H219V72H317V0H38Z" glyph-name="IJ.alt" horiz-adv-x="710" /><glyph d="M137 911H221L129 768H69ZM58 713H141V0H58Z" glyph-name="Iacute" horiz-adv-x="199" unicode="&#205;" /><glyph d="M215 911H299L207 768H147ZM38 72H136V643H38V713H317V643H219V72H317V0H38Z" glyph-name="Iacute.alt" horiz-adv-x="355" unicode="&#57651;" /><glyph d="M102 771Q47 771 17 803.5Q-13 836 -15 897H42Q45 867 56.5 844.5Q68 822 104 822Q134 822 147.5 842.5Q161 863 161 897H216Q214 831 181.5 801Q149 771 102 771ZM58 713H141V0H58Z" glyph-name="Ibreve" horiz-adv-x="199" unicode="&#300;" /><glyph d="M180 771Q125 771 95 803.5Q65 836 63 897H120Q123 867 134.5 844.5Q146 822 182 822Q212 822 225.5 842.5Q239 863 239 897H294Q292 831 259.5 801Q227 771 180 771ZM38 72H136V643H38V713H317V643H219V72H317V0H38Z" glyph-name="Ibreve.alt" horiz-adv-x="355" unicode="&#57657;" /><glyph d="M72 913H130L206 769H140L99 856L57 769H-6ZM58 713H141V0H58Z" glyph-name="Icircumflex" horiz-adv-x="199" unicode="&#206;" /><glyph d="M150 913H208L284 769H218L177 856L135 769H72ZM38 72H136V643H38V713H317V643H219V72H317V0H38Z" glyph-name="Icircumflex.alt" horiz-adv-x="355" unicode="&#57652;" /><glyph d="M132 901H198V781H132ZM3 901H69V781H3ZM58 713H141V0H58Z" glyph-name="Idieresis" horiz-adv-x="199" unicode="&#207;" /><glyph d="M210 901H276V781H210ZM81 901H147V781H81ZM38 72H136V643H38V713H317V643H219V72H317V0H38Z" glyph-name="Idieresis.alt" horiz-adv-x="355" unicode="&#57653;" /><glyph d="M64 903H133V781H64ZM58 713H141V0H58Z" glyph-name="Idotaccent" horiz-adv-x="199" unicode="&#304;" /><glyph d="M142 903H211V781H142ZM38 72H136V643H38V713H317V643H219V72H317V0H38Z" glyph-name="Idotaccent.alt" horiz-adv-x="355" unicode="&#57660;" /><glyph d="M-21 911H62L130 768H71ZM58 713H141V0H58Z" glyph-name="Igrave" horiz-adv-x="199" unicode="&#204;" /><glyph d="M57 911H140L208 768H149ZM38 72H136V643H38V713H317V643H219V72H317V0H38Z" glyph-name="Igrave.alt" horiz-adv-x="355" unicode="&#57650;" /><glyph d="M3 846H198V784H3ZM58 713H141V0H58Z" glyph-name="Imacron" horiz-adv-x="199" unicode="&#298;" /><glyph d="M81 846H276V784H81ZM38 72H136V643H38V713H317V643H219V72H317V0H38Z" glyph-name="Imacron.alt" horiz-adv-x="355" unicode="&#57656;" /><glyph d="M58 713H141V5H142Q141 4 141 4V0H133Q110 -15 98 -37Q86 -59 86 -85Q86 -130 125 -130Q139 -130 159 -120L179 -166Q165 -174 149 -179.5Q133 -185 113 -185Q79 -185 54.5 -165.5Q30 -146 30 -104Q30 -71 44 -44.5Q58 -18 78 0H58Z" glyph-name="Iogonek" horiz-adv-x="199" unicode="&#302;" /><glyph d="M38 72H136V643H38V713H317V643H219V72H317V0H308Q285 -15 273 -37Q261 -59 261 -85Q261 -130 300 -130Q314 -130 334 -120L354 -166Q340 -174 324 -179.5Q308 -185 288 -185Q254 -185 229.5 -165.5Q205 -146 205 -104Q205 -71 219 -44.5Q233 -18 253 0H38Z" glyph-name="Iogonek.alt" horiz-adv-x="355" unicode="&#57662;" /><glyph d="M-31 785Q-26 821 -6.5 847.5Q13 874 45 874Q59 874 73 869.5Q87 865 100.5 859.5Q114 854 127.5 849.5Q141 845 155 845Q170 845 177 854.5Q184 864 189 881L232 871Q227 836 207.5 809.5Q188 783 156 783Q142 783 127.5 787.5Q113 792 98.5 797.5Q84 803 71 807.5Q58 812 47 812Q32 812 26 803.5Q20 795 15 776ZM58 713H141V0H58Z" glyph-name="Itilde" horiz-adv-x="199" unicode="&#296;" /><glyph d="M47 785Q52 821 71.5 847.5Q91 874 123 874Q137 874 151 869.5Q165 865 178.5 859.5Q192 854 205.5 849.5Q219 845 233 845Q248 845 255 854.5Q262 864 267 881L310 871Q305 836 285.5 809.5Q266 783 234 783Q220 783 205.5 787.5Q191 792 176.5 797.5Q162 803 149 807.5Q136 812 125 812Q110 812 104 803.5Q98 795 93 776ZM38 72H136V643H38V713H317V643H219V72H317V0H38Z" glyph-name="Itilde.alt" horiz-adv-x="355" unicode="&#57654;" /><glyph d="M196 -10Q119 -10 78.5 30.5Q38 71 38 146V262H117V149Q117 132 120.5 116Q124 100 133 88Q142 76 157.5 68.5Q173 61 197 61Q219 61 234 68.5Q249 76 258 88Q267 100 271 116Q275 132 275 149V713H357V154Q357 80 316 35Q275 -10 196 -10Z" glyph-name="J" horiz-adv-x="411" unicode="J" /><glyph d="M196 -10Q119 -10 78.5 30.5Q38 71 38 146V262H117V149Q117 132 120.5 116Q124 100 133 88Q142 76 157.5 68.5Q173 61 197 61Q219 61 234 68.5Q249 76 258 88Q267 100 271 116Q275 132 275 149V713H357V154Q357 80 316 35Q275 -10 196 -10ZM264 913H322L398 769H332L291 856L249 769H186Z" glyph-name="Jcircumflex" horiz-adv-x="411" unicode="&#308;" /><glyph d="M58 713H141V362L318 713H401L262 441L403 0H315L202 364L141 250V0H58Z" glyph-name="K" horiz-adv-x="429" unicode="K" /><glyph d="M58 713H141V362L318 713H401L262 441L403 0H315L202 364L141 250V0H58ZM186 -38H261L236 -177H182Z" glyph-name="Kcommaaccent" horiz-adv-x="429" unicode="&#310;" /><glyph d="M58 713H140V72H342V0H58Z" glyph-name="L" horiz-adv-x="366" unicode="L" /><glyph glyph-name="LF" horiz-adv-x="35" /><glyph d="M58 713H140V72H342V0H58ZM144 911H228L136 768H76Z" glyph-name="Lacute" horiz-adv-x="366" unicode="&#313;" /><glyph d="M58 713H140V72H342V0H58ZM208 713H279L251 554H204Z" glyph-name="Lcaron" horiz-adv-x="366" unicode="&#317;" /><glyph d="M58 713H140V72H342V0H58ZM175 -38H250L225 -177H171Z" glyph-name="Lcommaaccent" horiz-adv-x="366" unicode="&#315;" /><glyph d="M223 450H293V336H223ZM58 713H140V72H342V0H58Z" glyph-name="Ldot" horiz-adv-x="366" unicode="&#319;" /><glyph d="M22 324 72 366V713H154V436L258 524V456L154 368V72H356V0H72V298L22 256Z" glyph-name="Lslash" horiz-adv-x="381" unicode="&#321;" /><glyph d="M58 713H158L266 405H268L378 713H474V0H399V566H397L293 270H237L134 565H132V0H58Z" glyph-name="M" horiz-adv-x="532" unicode="M" /><glyph d="M58 713H147L330 209H332V713H404V0H328L134 547H131V0H58Z" glyph-name="N" horiz-adv-x="463" unicode="N" /><glyph d="M58 713H147L330 209H332V713H404V0H328L134 547H131V0H58ZM276 911H360L268 768H208Z" glyph-name="Nacute" horiz-adv-x="463" unicode="&#323;" /><glyph d="M58 713H147L330 209H332V713H404V0H328L134 547H131V0H58ZM125 914H190L232 827L273 914H337L259 770H200Z" glyph-name="Ncaron" horiz-adv-x="463" unicode="&#327;" /><glyph d="M58 713H147L330 209H332V713H404V0H328L134 547H131V0H58ZM196 -38H271L246 -177H192Z" glyph-name="Ncommaaccent" horiz-adv-x="463" unicode="&#325;" /><glyph d="M103 785Q108 821 127.5 847.5Q147 874 179 874Q193 874 207 869.5Q221 865 234.5 859.5Q248 854 261.5 849.5Q275 845 289 845Q304 845 311 854.5Q318 864 323 881L366 871Q361 836 341.5 809.5Q322 783 290 783Q276 783 261.5 787.5Q247 792 232.5 797.5Q218 803 205 807.5Q192 812 181 812Q166 812 160 803.5Q154 795 149 776ZM58 713H147L330 209H332V713H404V0H328L134 547H131V0H58Z" glyph-name="Ntilde" horiz-adv-x="463" unicode="&#209;" /><glyph d="M223 64Q271 64 292.5 92.5Q314 121 314 159V563Q314 603 290 627.5Q266 652 221 652Q176 652 154 625Q132 598 132 560V159Q132 120 154.5 92Q177 64 223 64ZM221 -10Q143 -10 95.5 32Q48 74 48 160V555Q48 596 61.5 627.5Q75 659 98.5 680.5Q122 702 154 713Q186 724 224 724Q260 724 291.5 714.5Q323 705 346.5 685Q370 665 383 634.5Q396 604 396 563V164Q396 120 382.5 87.5Q369 55 346 33.5Q323 12 290.5 1Q258 -10 221 -10Z" glyph-name="O" horiz-adv-x="444" unicode="O" /><glyph d="M223 64Q247 64 264 72Q281 80 292.5 93.5Q304 107 309 124.5Q314 142 314 161V564Q314 604 290.5 628Q267 652 222 652Q176 652 154 624.5Q132 597 132 559V159Q132 121 154.5 92.5Q177 64 223 64ZM210 -8Q132 -8 90 33.5Q48 75 48 161V555Q48 638 94 681Q140 724 215 724Q245 724 272 713Q299 702 315 682V713H597V643H396V408H558V336H396V72H598V0H315V40Q301 20 272.5 6Q244 -8 210 -8Z" glyph-name="OE" horiz-adv-x="635" unicode="&#338;" /><glyph d="M223 64Q271 64 292.5 92.5Q314 121 314 159V563Q314 603 290 627.5Q266 652 221 652Q176 652 154 625Q132 598 132 560V159Q132 120 154.5 92Q177 64 223 64ZM221 -10Q143 -10 95.5 32Q48 74 48 160V555Q48 596 61.5 627.5Q75 659 98.5 680.5Q122 702 154 713Q186 724 224 724Q260 724 291.5 714.5Q323 705 346.5 685Q370 665 383 634.5Q396 604 396 563V164Q396 120 382.5 87.5Q369 55 346 33.5Q323 12 290.5 1Q258 -10 221 -10ZM264 911H348L256 768H196Z" glyph-name="Oacute" horiz-adv-x="444" unicode="&#211;" /><glyph d="M223 771Q168 771 138 803.5Q108 836 106 897H163Q166 867 177.5 844.5Q189 822 225 822Q255 822 268.5 842.5Q282 863 282 897H337Q335 831 302.5 801Q270 771 223 771ZM223 64Q271 64 292.5 92.5Q314 121 314 159V563Q314 603 290 627.5Q266 652 221 652Q176 652 154 625Q132 598 132 560V159Q132 120 154.5 92Q177 64 223 64ZM221 -10Q143 -10 95.5 32Q48 74 48 160V555Q48 596 61.5 627.5Q75 659 98.5 680.5Q122 702 154 713Q186 724 224 724Q260 724 291.5 714.5Q323 705 346.5 685Q370 665 383 634.5Q396 604 396 563V164Q396 120 382.5 87.5Q369 55 346 33.5Q323 12 290.5 1Q258 -10 221 -10Z" glyph-name="Obreve" horiz-adv-x="444" unicode="&#334;" /><glyph d="M223 64Q271 64 292.5 92.5Q314 121 314 159V563Q314 603 290 627.5Q266 652 221 652Q176 652 154 625Q132 598 132 560V159Q132 120 154.5 92Q177 64 223 64ZM221 -10Q143 -10 95.5 32Q48 74 48 160V555Q48 596 61.5 627.5Q75 659 98.5 680.5Q122 702 154 713Q186 724 224 724Q260 724 291.5 714.5Q323 705 346.5 685Q370 665 383 634.5Q396 604 396 563V164Q396 120 382.5 87.5Q369 55 346 33.5Q323 12 290.5 1Q258 -10 221 -10ZM193 913H251L327 769H261L220 856L178 769H115Z" glyph-name="Ocircumflex" horiz-adv-x="444" unicode="&#212;" /><glyph d="M223 64Q271 64 292.5 92.5Q314 121 314 159V563Q314 603 290 627.5Q266 652 221 652Q176 652 154 625Q132 598 132 560V159Q132 120 154.5 92Q177 64 223 64ZM221 -10Q143 -10 95.5 32Q48 74 48 160V555Q48 596 61.5 627.5Q75 659 98.5 680.5Q122 702 154 713Q186 724 224 724Q260 724 291.5 714.5Q323 705 346.5 685Q370 665 383 634.5Q396 604 396 563V164Q396 120 382.5 87.5Q369 55 346 33.5Q323 12 290.5 1Q258 -10 221 -10ZM253 901H319V781H253ZM124 901H190V781H124Z" glyph-name="Odieresis" horiz-adv-x="444" unicode="&#214;" /><glyph d="M104 911H187L255 768H196ZM223 64Q271 64 292.5 92.5Q314 121 314 159V563Q314 603 290 627.5Q266 652 221 652Q176 652 154 625Q132 598 132 560V159Q132 120 154.5 92Q177 64 223 64ZM221 -10Q143 -10 95.5 32Q48 74 48 160V555Q48 596 61.5 627.5Q75 659 98.5 680.5Q122 702 154 713Q186 724 224 724Q260 724 291.5 714.5Q323 705 346.5 685Q370 665 383 634.5Q396 604 396 563V164Q396 120 382.5 87.5Q369 55 346 33.5Q323 12 290.5 1Q258 -10 221 -10Z" glyph-name="Ograve" horiz-adv-x="444" unicode="&#210;" /><glyph d="M223 64Q271 64 292.5 92.5Q314 121 314 159V563Q314 603 290 627.5Q266 652 221 652Q176 652 154 625Q132 598 132 560V159Q132 120 154.5 92Q177 64 223 64ZM221 -10Q143 -10 95.5 32Q48 74 48 160V555Q48 596 61.5 627.5Q75 659 98.5 680.5Q122 702 154 713Q186 724 224 724Q260 724 291.5 714.5Q323 705 346.5 685Q370 665 383 634.5Q396 604 396 563V164Q396 120 382.5 87.5Q369 55 346 33.5Q323 12 290.5 1Q258 -10 221 -10ZM278 902H350L285 771H228ZM157 902H229L166 771H109Z" glyph-name="Ohungarumlaut" horiz-adv-x="444" unicode="&#336;" /><glyph d="M223 64Q271 64 292.5 92.5Q314 121 314 159V563Q314 603 290 627.5Q266 652 221 652Q176 652 154 625Q132 598 132 560V159Q132 120 154.5 92Q177 64 223 64ZM221 -10Q143 -10 95.5 32Q48 74 48 160V555Q48 596 61.5 627.5Q75 659 98.5 680.5Q122 702 154 713Q186 724 224 724Q260 724 291.5 714.5Q323 705 346.5 685Q370 665 383 634.5Q396 604 396 563V164Q396 120 382.5 87.5Q369 55 346 33.5Q323 12 290.5 1Q258 -10 221 -10ZM124 846H319V784H124Z" glyph-name="Omacron" horiz-adv-x="444" unicode="&#332;" /><glyph d="M41 76 142 72V78Q98 129 70 199.5Q42 270 42 367V515Q42 616 89.5 670Q137 724 225 724Q271 724 305.5 709Q340 694 362.5 666.5Q385 639 396 601Q407 563 407 518V367Q407 316 397.5 271Q388 226 373.5 188.5Q359 151 341.5 123Q324 95 308 78V72L409 76V0H248V63Q262 88 275 117Q288 146 298 182Q308 218 314 262Q320 306 320 362V529Q320 581 296.5 615Q273 649 223 649Q178 649 153 617Q128 585 128 526V365Q128 303 134 257.5Q140 212 150 177Q160 142 173.5 115Q187 88 202 63V0H41Z" glyph-name="Omega" horiz-adv-x="449" unicode="&#8486;" /><glyph d="M223 64Q271 64 292.5 92.5Q314 121 314 159V545L157 89Q180 64 223 64ZM132 159 292 624Q267 652 221 652Q176 652 154 625Q132 598 132 560ZM66 -32 90 37Q48 81 48 160V555Q48 596 61.5 627.5Q75 659 98.5 680.5Q122 702 154 713Q186 724 224 724Q278 724 319 703L338 757L383 746L358 673Q376 653 386 625.5Q396 598 396 563V164Q396 120 382.5 87.5Q369 55 346 33.5Q323 12 290.5 1Q258 -10 221 -10Q170 -10 129 9L111 -44Z" glyph-name="Oslash" horiz-adv-x="444" unicode="&#216;" /><glyph d="M264 911H348L256 768H196ZM223 64Q271 64 292.5 92.5Q314 121 314 159V545L157 89Q180 64 223 64ZM132 159 292 624Q267 652 221 652Q176 652 154 625Q132 598 132 560ZM66 -32 90 37Q48 81 48 160V555Q48 596 61.5 627.5Q75 659 98.5 680.5Q122 702 154 713Q186 724 224 724Q278 724 319 703L338 757L383 746L358 673Q376 653 386 625.5Q396 598 396 563V164Q396 120 382.5 87.5Q369 55 346 33.5Q323 12 290.5 1Q258 -10 221 -10Q170 -10 129 9L111 -44Z" glyph-name="Oslashacute" horiz-adv-x="444" unicode="&#510;" /><glyph d="M89 785Q94 821 113.5 847.5Q133 874 165 874Q179 874 193 869.5Q207 865 220.5 859.5Q234 854 247.5 849.5Q261 845 275 845Q290 845 297 854.5Q304 864 309 881L352 871Q347 836 327.5 809.5Q308 783 276 783Q262 783 247.5 787.5Q233 792 218.5 797.5Q204 803 191 807.5Q178 812 167 812Q152 812 146 803.5Q140 795 135 776ZM223 64Q271 64 292.5 92.5Q314 121 314 159V563Q314 603 290 627.5Q266 652 221 652Q176 652 154 625Q132 598 132 560V159Q132 120 154.5 92Q177 64 223 64ZM221 -10Q143 -10 95.5 32Q48 74 48 160V555Q48 596 61.5 627.5Q75 659 98.5 680.5Q122 702 154 713Q186 724 224 724Q260 724 291.5 714.5Q323 705 346.5 685Q370 665 383 634.5Q396 604 396 563V164Q396 120 382.5 87.5Q369 55 346 33.5Q323 12 290.5 1Q258 -10 221 -10Z" glyph-name="Otilde" horiz-adv-x="444" unicode="&#213;" /><glyph d="M202 357Q252 357 275 395Q298 433 298 505Q298 565 278 603.5Q258 642 207 642H141V357ZM58 713H218Q261 713 291.5 698Q322 683 341.5 655.5Q361 628 370 590Q379 552 379 506Q379 407 338 347.5Q297 288 211 288H141V0H58Z" glyph-name="P" horiz-adv-x="421" unicode="P" /><glyph d="M223 64Q271 64 292.5 92.5Q314 121 314 159V563Q314 603 290.5 627.5Q267 652 222 652Q176 652 154 625Q132 598 132 560V159Q132 120 154.5 92Q177 64 223 64ZM269 -2Q247 -10 221 -10Q143 -10 95.5 32Q48 74 48 160V555Q48 596 61.5 627.5Q75 659 98.5 680.5Q122 702 154 713Q186 724 224 724Q260 724 292 714.5Q324 705 347 685Q370 665 383.5 634.5Q397 604 397 563V164Q397 122 383 91Q369 60 344 41L422 -12L371 -76Z" glyph-name="Q" horiz-adv-x="444" unicode="Q" /><glyph d="M213 375Q258 375 279.5 409Q301 443 301 508Q301 534 296.5 558.5Q292 583 281.5 601.5Q271 620 253.5 631.5Q236 643 210 643H141V375ZM58 713H215Q300 713 342 661.5Q384 610 384 515Q384 439 358.5 391.5Q333 344 289 330L391 0H307L212 311H141V0H58Z" glyph-name="R" horiz-adv-x="431" unicode="R" /><glyph glyph-name="RS" horiz-adv-x="35" /><glyph d="M213 375Q258 375 279.5 409Q301 443 301 508Q301 534 296.5 558.5Q292 583 281.5 601.5Q271 620 253.5 631.5Q236 643 210 643H141V375ZM58 713H215Q300 713 342 661.5Q384 610 384 515Q384 439 358.5 391.5Q333 344 289 330L391 0H307L212 311H141V0H58ZM222 911H306L214 768H154Z" glyph-name="Racute" horiz-adv-x="431" unicode="&#340;" /><glyph d="M213 375Q258 375 279.5 409Q301 443 301 508Q301 534 296.5 558.5Q292 583 281.5 601.5Q271 620 253.5 631.5Q236 643 210 643H141V375ZM58 713H215Q300 713 342 661.5Q384 610 384 515Q384 439 358.5 391.5Q333 344 289 330L391 0H307L212 311H141V0H58ZM106 914H171L213 827L254 914H318L240 770H181Z" glyph-name="Rcaron" horiz-adv-x="431" unicode="&#344;" /><glyph d="M213 375Q258 375 279.5 409Q301 443 301 508Q301 534 296.5 558.5Q292 583 281.5 601.5Q271 620 253.5 631.5Q236 643 210 643H141V375ZM58 713H215Q300 713 342 661.5Q384 610 384 515Q384 439 358.5 391.5Q333 344 289 330L391 0H307L212 311H141V0H58ZM180 -38H255L230 -177H176Z" glyph-name="Rcommaaccent" horiz-adv-x="431" unicode="&#342;" /><glyph d="M198 -10Q125 -10 82.5 36Q40 82 35 168L113 171Q118 122 137 89.5Q156 57 199 57Q221 57 236 66Q251 75 260 89Q269 103 273 121Q277 139 277 157Q277 191 260.5 225.5Q244 260 215 292L131 387Q92 429 69 472Q46 515 46 564Q46 597 55.5 626.5Q65 656 84.5 677.5Q104 699 133 711.5Q162 724 201 724Q231 724 256.5 715.5Q282 707 302 687.5Q322 668 334 636Q346 604 349 557L275 555Q269 607 250.5 632Q232 657 196 657Q161 657 142 635.5Q123 614 123 571Q123 537 144 506Q165 475 193 443L267 359Q310 312 332.5 265.5Q355 219 355 162Q355 124 344.5 92.5Q334 61 314 38.5Q294 16 265 3Q236 -10 198 -10Z" glyph-name="S" horiz-adv-x="390" unicode="S" /><glyph d="M198 -10Q125 -10 82.5 36Q40 82 35 168L113 171Q118 122 137 89.5Q156 57 199 57Q221 57 236 66Q251 75 260 89Q269 103 273 121Q277 139 277 157Q277 191 260.5 225.5Q244 260 215 292L131 387Q92 429 69 472Q46 515 46 564Q46 597 55.5 626.5Q65 656 84.5 677.5Q104 699 133 711.5Q162 724 201 724Q231 724 256.5 715.5Q282 707 302 687.5Q322 668 334 636Q346 604 349 557L275 555Q269 607 250.5 632Q232 657 196 657Q161 657 142 635.5Q123 614 123 571Q123 537 144 506Q165 475 193 443L267 359Q310 312 332.5 265.5Q355 219 355 162Q355 124 344.5 92.5Q334 61 314 38.5Q294 16 265 3Q236 -10 198 -10ZM235 911H319L227 768H167Z" glyph-name="Sacute" horiz-adv-x="390" unicode="&#346;" /><glyph d="M198 -10Q125 -10 82.5 36Q40 82 35 168L113 171Q118 122 137 89.5Q156 57 199 57Q221 57 236 66Q251 75 260 89Q269 103 273 121Q277 139 277 157Q277 191 260.5 225.5Q244 260 215 292L131 387Q92 429 69 472Q46 515 46 564Q46 597 55.5 626.5Q65 656 84.5 677.5Q104 699 133 711.5Q162 724 201 724Q231 724 256.5 715.5Q282 707 302 687.5Q322 668 334 636Q346 604 349 557L275 555Q269 607 250.5 632Q232 657 196 657Q161 657 142 635.5Q123 614 123 571Q123 537 144 506Q165 475 193 443L267 359Q310 312 332.5 265.5Q355 219 355 162Q355 124 344.5 92.5Q334 61 314 38.5Q294 16 265 3Q236 -10 198 -10ZM87 914H152L194 827L235 914H299L221 770H162Z" glyph-name="Scaron" horiz-adv-x="390" unicode="&#352;" /><glyph d="M206 -184Q192 -184 173 -182Q154 -180 134 -175V-129Q170 -138 202 -138Q220 -138 230.5 -132.5Q241 -127 241 -113Q241 -99 228.5 -94Q216 -89 196 -87L168 -85L185 -9Q118 -5 79 40.5Q40 86 35 168L113 171Q118 122 137 89.5Q156 57 199 57Q221 57 236 66Q251 75 260 89Q269 103 273 121Q277 139 277 157Q277 191 260.5 225.5Q244 260 215 292L131 387Q92 429 69 472Q46 515 46 564Q46 597 55.5 626.5Q65 656 84.5 677.5Q104 699 133 711.5Q162 724 201 724Q231 724 256.5 715.5Q282 707 302 687.5Q322 668 334 636Q346 604 349 557L275 555Q269 607 250.5 632Q232 657 196 657Q161 657 142 635.5Q123 614 123 571Q123 537 144 506Q165 475 193 443L267 359Q310 312 332.5 265.5Q355 219 355 162Q355 94 321.5 47Q288 0 224 -8L214 -52Q229 -53 244.5 -56Q260 -59 272.5 -65.5Q285 -72 293 -83.5Q301 -95 301 -112Q301 -145 273 -164.5Q245 -184 206 -184Z" glyph-name="Scedilla" horiz-adv-x="390" unicode="&#350;" /><glyph d="M198 -10Q125 -10 82.5 36Q40 82 35 168L113 171Q118 122 137 89.5Q156 57 199 57Q221 57 236 66Q251 75 260 89Q269 103 273 121Q277 139 277 157Q277 191 260.5 225.5Q244 260 215 292L131 387Q92 429 69 472Q46 515 46 564Q46 597 55.5 626.5Q65 656 84.5 677.5Q104 699 133 711.5Q162 724 201 724Q231 724 256.5 715.5Q282 707 302 687.5Q322 668 334 636Q346 604 349 557L275 555Q269 607 250.5 632Q232 657 196 657Q161 657 142 635.5Q123 614 123 571Q123 537 144 506Q165 475 193 443L267 359Q310 312 332.5 265.5Q355 219 355 162Q355 124 344.5 92.5Q334 61 314 38.5Q294 16 265 3Q236 -10 198 -10ZM167 913H225L301 769H235L194 856L152 769H89Z" glyph-name="Scircumflex" horiz-adv-x="390" unicode="&#348;" /><glyph d="M198 -10Q125 -10 82.5 36Q40 82 35 168L113 171Q118 122 137 89.5Q156 57 199 57Q221 57 236 66Q251 75 260 89Q269 103 273 121Q277 139 277 157Q277 191 260.5 225.5Q244 260 215 292L131 387Q92 429 69 472Q46 515 46 564Q46 597 55.5 626.5Q65 656 84.5 677.5Q104 699 133 711.5Q162 724 201 724Q231 724 256.5 715.5Q282 707 302 687.5Q322 668 334 636Q346 604 349 557L275 555Q269 607 250.5 632Q232 657 196 657Q161 657 142 635.5Q123 614 123 571Q123 537 144 506Q165 475 193 443L267 359Q310 312 332.5 265.5Q355 219 355 162Q355 124 344.5 92.5Q334 61 314 38.5Q294 16 265 3Q236 -10 198 -10ZM169 -38H244L219 -177H165Z" glyph-name="Scommaaccent" horiz-adv-x="390" unicode="&#536;" /><glyph d="M158 643H22V713H376V643H240V0H158Z" glyph-name="T" horiz-adv-x="398" unicode="T" /><glyph d="M98 370H158V643H22V713H376V643H240V370H299V314H240V0H158V314H98Z" glyph-name="Tbar" horiz-adv-x="398" unicode="&#358;" /><glyph d="M158 643H22V713H376V643H240V0H158ZM92 914H157L199 827L240 914H304L226 770H167Z" glyph-name="Tcaron" horiz-adv-x="398" unicode="&#356;" /><glyph d="M158 643H22V713H376V643H240V0H158ZM164 -38H239L214 -177H160Z" glyph-name="Tcommaaccent" horiz-adv-x="398" unicode="&#354;" /><glyph d="M195 220Q246 220 269 257.5Q292 295 292 367Q292 397 287.5 422Q283 447 272.5 465Q262 483 244.5 493Q227 503 202 503H133V220ZM51 713H133V572H213Q256 572 287 557.5Q318 543 337 516Q356 489 365 451.5Q374 414 374 369Q374 320 364 280Q354 240 333 212Q312 184 280.5 168.5Q249 153 206 153H133V0H51Z" glyph-name="Thorn" horiz-adv-x="409" unicode="&#222;" /><glyph d="M221 -10Q148 -10 101.5 30Q55 70 55 153V713H137V161Q137 110 163.5 86.5Q190 63 227 63Q272 63 293.5 90.5Q315 118 313 160V713H391V159Q391 120 379 88.5Q367 57 344.5 35Q322 13 290.5 1.5Q259 -10 221 -10Z" glyph-name="U" horiz-adv-x="447" unicode="U" /><glyph glyph-name="US" horiz-adv-x="33" /><glyph d="M221 -10Q148 -10 101.5 30Q55 70 55 153V713H137V161Q137 110 163.5 86.5Q190 63 227 63Q272 63 293.5 90.5Q315 118 313 160V713H391V159Q391 120 379 88.5Q367 57 344.5 35Q322 13 290.5 1.5Q259 -10 221 -10ZM267 911H351L259 768H199Z" glyph-name="Uacute" horiz-adv-x="447" unicode="&#218;" /><glyph d="M224 771Q169 771 139 803.5Q109 836 107 897H164Q167 867 178.5 844.5Q190 822 226 822Q256 822 269.5 842.5Q283 863 283 897H338Q336 831 303.5 801Q271 771 224 771ZM221 -10Q148 -10 101.5 30Q55 70 55 153V713H137V161Q137 110 163.5 86.5Q190 63 227 63Q272 63 293.5 90.5Q315 118 313 160V713H391V159Q391 120 379 88.5Q367 57 344.5 35Q322 13 290.5 1.5Q259 -10 221 -10Z" glyph-name="Ubreve" horiz-adv-x="447" unicode="&#364;" /><glyph d="M221 -10Q148 -10 101.5 30Q55 70 55 153V713H137V161Q137 110 163.5 86.5Q190 63 227 63Q272 63 293.5 90.5Q315 118 313 160V713H391V159Q391 120 379 88.5Q367 57 344.5 35Q322 13 290.5 1.5Q259 -10 221 -10ZM196 913H254L330 769H264L223 856L181 769H118Z" glyph-name="Ucircumflex" horiz-adv-x="447" unicode="&#219;" /><glyph d="M221 -10Q148 -10 101.5 30Q55 70 55 153V713H137V161Q137 110 163.5 86.5Q190 63 227 63Q272 63 293.5 90.5Q315 118 313 160V713H391V159Q391 120 379 88.5Q367 57 344.5 35Q322 13 290.5 1.5Q259 -10 221 -10ZM256 901H322V781H256ZM127 901H193V781H127Z" glyph-name="Udieresis" horiz-adv-x="447" unicode="&#220;" /><glyph d="M111 911H194L262 768H203ZM221 -10Q148 -10 101.5 30Q55 70 55 153V713H137V161Q137 110 163.5 86.5Q190 63 227 63Q272 63 293.5 90.5Q315 118 313 160V713H391V159Q391 120 379 88.5Q367 57 344.5 35Q322 13 290.5 1.5Q259 -10 221 -10Z" glyph-name="Ugrave" horiz-adv-x="447" unicode="&#217;" /><glyph d="M308 902H380L315 771H258ZM187 902H259L196 771H139ZM221 -10Q148 -10 101.5 30Q55 70 55 153V713H137V161Q137 110 163.5 86.5Q190 63 227 63Q272 63 293.5 90.5Q315 118 313 160V713H391V159Q391 120 379 88.5Q367 57 344.5 35Q322 13 290.5 1.5Q259 -10 221 -10Z" glyph-name="Uhungarumlaut" horiz-adv-x="447" unicode="&#368;" /><glyph d="M127 846H322V784H127ZM221 -10Q148 -10 101.5 30Q55 70 55 153V713H137V161Q137 110 163.5 86.5Q190 63 227 63Q272 63 293.5 90.5Q315 118 313 160V713H391V159Q391 120 379 88.5Q367 57 344.5 35Q322 13 290.5 1.5Q259 -10 221 -10Z" glyph-name="Umacron" horiz-adv-x="447" unicode="&#362;" /><glyph d="M221 -10Q148 -10 101.5 30Q55 70 55 153V713H137V161Q137 110 163.5 86.5Q190 63 227 63Q272 63 293.5 90.5Q315 118 313 160V713H391V159Q392 98 363.5 57.5Q335 17 286 0Q252 -33 252 -85Q252 -108 264.5 -119.5Q277 -131 296 -131Q308 -131 319 -127.5Q330 -124 339 -119L361 -164Q348 -172 330.5 -179Q313 -186 284 -186Q249 -186 222.5 -165.5Q196 -145 196 -104Q196 -75 207 -51Q218 -27 235 -9Q230 -10 221 -10Z" glyph-name="Uogonek" horiz-adv-x="447" unicode="&#370;" /><glyph d="M221 -10Q148 -10 101.5 30Q55 70 55 153V713H137V161Q137 110 163.5 86.5Q190 63 227 63Q272 63 293.5 90.5Q315 118 313 160V713H391V159Q391 120 379 88.5Q367 57 344.5 35Q322 13 290.5 1.5Q259 -10 221 -10ZM223 797Q243 797 254.5 810Q266 823 266 844Q266 864 255 878Q244 892 222 892Q202 892 192 878.5Q182 865 182 843Q182 821 193.5 809Q205 797 223 797ZM223 762Q184 762 162.5 786Q141 810 141 842Q141 877 164 902Q187 927 223 927Q261 927 283 904.5Q305 882 305 847Q305 810 281.5 786Q258 762 223 762Z" glyph-name="Uring" horiz-adv-x="447" unicode="&#366;" /><glyph d="M98 785Q103 821 122.5 847.5Q142 874 174 874Q188 874 202 869.5Q216 865 229.5 859.5Q243 854 256.5 849.5Q270 845 284 845Q299 845 306 854.5Q313 864 318 881L361 871Q356 836 336.5 809.5Q317 783 285 783Q271 783 256.5 787.5Q242 792 227.5 797.5Q213 803 200 807.5Q187 812 176 812Q161 812 155 803.5Q149 795 144 776ZM221 -10Q148 -10 101.5 30Q55 70 55 153V713H137V161Q137 110 163.5 86.5Q190 63 227 63Q272 63 293.5 90.5Q315 118 313 160V713H391V159Q391 120 379 88.5Q367 57 344.5 35Q322 13 290.5 1.5Q259 -10 221 -10Z" glyph-name="Utilde" horiz-adv-x="447" unicode="&#360;" /><glyph d="M19 713H101L200 158H202L302 713H377L242 -5H156Z" glyph-name="V" horiz-adv-x="396" unicode="V" /><glyph d="M26 713H108L174 192H177L255 713H337L415 193H417L482 713H556L455 -5H378L294 540H291L208 -5H131Z" glyph-name="W" horiz-adv-x="582" unicode="W" /><glyph d="M26 713H108L174 192H177L255 713H337L415 193H417L482 713H556L455 -5H378L294 540H291L208 -5H131ZM340 911H424L332 768H272Z" glyph-name="Wacute" horiz-adv-x="582" unicode="&#7810;" /><glyph d="M26 713H108L174 192H177L255 713H337L415 193H417L482 713H556L455 -5H378L294 540H291L208 -5H131ZM263 913H321L397 769H331L290 856L248 769H185Z" glyph-name="Wcircumflex" horiz-adv-x="582" unicode="&#372;" /><glyph d="M26 713H108L174 192H177L255 713H337L415 193H417L482 713H556L455 -5H378L294 540H291L208 -5H131ZM324 901H390V781H324ZM195 901H261V781H195Z" glyph-name="Wdieresis" horiz-adv-x="582" unicode="&#7812;" /><glyph d="M172 911H255L323 768H264ZM26 713H108L174 192H177L255 713H337L415 193H417L482 713H556L455 -5H378L294 540H291L208 -5H131Z" glyph-name="Wgrave" horiz-adv-x="582" unicode="&#7808;" /><glyph d="M152 361 26 713H112L201 455L290 713H367L242 367L376 0H290L194 272L98 0H19Z" glyph-name="X" horiz-adv-x="395" unicode="X" /><glyph d="M154 304 17 714H103L200 405L293 714H371L236 302V0H154Z" glyph-name="Y" horiz-adv-x="388" unicode="Y" /><glyph d="M239 911H323L231 768H171ZM154 304 17 714H103L200 405L293 714H371L236 302V0H154Z" glyph-name="Yacute" horiz-adv-x="388" unicode="&#221;" /><glyph d="M169 913H227L303 769H237L196 856L154 769H91ZM154 304 17 714H103L200 405L293 714H371L236 302V0H154Z" glyph-name="Ycircumflex" horiz-adv-x="388" unicode="&#374;" /><glyph d="M227 901H293V781H227ZM98 901H164V781H98ZM154 304 17 714H103L200 405L293 714H371L236 302V0H154Z" glyph-name="Ydieresis" horiz-adv-x="388" unicode="&#376;" /><glyph d="M78 911H161L229 768H170ZM154 304 17 714H103L200 405L293 714H371L236 302V0H154Z" glyph-name="Ygrave" horiz-adv-x="388" unicode="&#7922;" /><glyph d="M32 59 234 643H38V713H326V655L124 72H323V0H32Z" glyph-name="Z" horiz-adv-x="355" unicode="Z" /><glyph d="M32 59 234 643H38V713H326V655L124 72H323V0H32ZM215 911H299L207 768H147Z" glyph-name="Zacute" horiz-adv-x="355" unicode="&#377;" /><glyph d="M32 59 234 643H38V713H326V655L124 72H323V0H32ZM82 914H147L189 827L230 914H294L216 770H157Z" glyph-name="Zcaron" horiz-adv-x="355" unicode="&#381;" /><glyph d="M145 903H214V781H145ZM32 59 234 643H38V713H326V655L124 72H323V0H32Z" glyph-name="Zdotaccent" horiz-adv-x="355" unicode="&#379;" /><glyph d="M168 53Q196 53 215.5 78.5Q235 104 235 138V266H195Q180 266 165.5 260.5Q151 255 139.5 242Q128 229 121 208.5Q114 188 114 157Q114 101 129 77Q144 53 168 53ZM144 -9Q122 -9 102.5 0Q83 9 68 28.5Q53 48 44.5 77.5Q36 107 36 148Q36 187 48 218Q60 249 81 270.5Q102 292 131 304Q160 316 193 317H235V418Q235 443 220.5 457.5Q206 472 177 472Q149 472 133.5 458.5Q118 445 118 419V366H47V420Q47 471 84 502.5Q121 534 184 534Q244 534 278 503Q312 472 312 418V127Q312 113 312.5 94.5Q313 76 313.5 57.5Q314 39 315 23.5Q316 8 316 0H246Q246 6 244.5 23Q243 40 243 57H240Q233 39 221.5 26.5Q210 14 197 6Q184 -2 170 -5.5Q156 -9 144 -9Z" glyph-name="a" horiz-adv-x="365" unicode="a" /><glyph d="M211 724H295L203 581H143ZM168 53Q196 53 215.5 78.5Q235 104 235 138V266H195Q180 266 165.5 260.5Q151 255 139.5 242Q128 229 121 208.5Q114 188 114 157Q114 101 129 77Q144 53 168 53ZM144 -9Q122 -9 102.5 0Q83 9 68 28.5Q53 48 44.5 77.5Q36 107 36 148Q36 187 48 218Q60 249 81 270.5Q102 292 131 304Q160 316 193 317H235V418Q235 443 220.5 457.5Q206 472 177 472Q149 472 133.5 458.5Q118 445 118 419V366H47V420Q47 471 84 502.5Q121 534 184 534Q244 534 278 503Q312 472 312 418V127Q312 113 312.5 94.5Q313 76 313.5 57.5Q314 39 315 23.5Q316 8 316 0H246Q246 6 244.5 23Q243 40 243 57H240Q233 39 221.5 26.5Q210 14 197 6Q184 -2 170 -5.5Q156 -9 144 -9Z" glyph-name="aacute" horiz-adv-x="365" unicode="&#225;" /><glyph d="M183 584Q128 584 98 616.5Q68 649 66 710H123Q126 680 137.5 657.5Q149 635 185 635Q215 635 228.5 655.5Q242 676 242 710H297Q295 644 262.5 614Q230 584 183 584ZM168 53Q196 53 215.5 78.5Q235 104 235 138V266H195Q180 266 165.5 260.5Q151 255 139.5 242Q128 229 121 208.5Q114 188 114 157Q114 101 129 77Q144 53 168 53ZM144 -9Q122 -9 102.5 0Q83 9 68 28.5Q53 48 44.5 77.5Q36 107 36 148Q36 187 48 218Q60 249 81 270.5Q102 292 131 304Q160 316 193 317H235V418Q235 443 220.5 457.5Q206 472 177 472Q149 472 133.5 458.5Q118 445 118 419V366H47V420Q47 471 84 502.5Q121 534 184 534Q244 534 278 503Q312 472 312 418V127Q312 113 312.5 94.5Q313 76 313.5 57.5Q314 39 315 23.5Q316 8 316 0H246Q246 6 244.5 23Q243 40 243 57H240Q233 39 221.5 26.5Q210 14 197 6Q184 -2 170 -5.5Q156 -9 144 -9Z" glyph-name="abreve" horiz-adv-x="365" unicode="&#259;" /><glyph d="M153 726H211L287 582H221L180 669L138 582H75ZM168 53Q196 53 215.5 78.5Q235 104 235 138V266H195Q180 266 165.5 260.5Q151 255 139.5 242Q128 229 121 208.5Q114 188 114 157Q114 101 129 77Q144 53 168 53ZM144 -9Q122 -9 102.5 0Q83 9 68 28.5Q53 48 44.5 77.5Q36 107 36 148Q36 187 48 218Q60 249 81 270.5Q102 292 131 304Q160 316 193 317H235V418Q235 443 220.5 457.5Q206 472 177 472Q149 472 133.5 458.5Q118 445 118 419V366H47V420Q47 471 84 502.5Q121 534 184 534Q244 534 278 503Q312 472 312 418V127Q312 113 312.5 94.5Q313 76 313.5 57.5Q314 39 315 23.5Q316 8 316 0H246Q246 6 244.5 23Q243 40 243 57H240Q233 39 221.5 26.5Q210 14 197 6Q184 -2 170 -5.5Q156 -9 144 -9Z" glyph-name="acircumflex" horiz-adv-x="365" unicode="&#226;" /><glyph d="M117 724H201L109 581H49Z" glyph-name="acute" horiz-adv-x="223" unicode="&#180;" /><glyph d="M214 714H280V594H214ZM85 714H151V594H85ZM168 53Q196 53 215.5 78.5Q235 104 235 138V266H195Q180 266 165.5 260.5Q151 255 139.5 242Q128 229 121 208.5Q114 188 114 157Q114 101 129 77Q144 53 168 53ZM144 -9Q122 -9 102.5 0Q83 9 68 28.5Q53 48 44.5 77.5Q36 107 36 148Q36 187 48 218Q60 249 81 270.5Q102 292 131 304Q160 316 193 317H235V418Q235 443 220.5 457.5Q206 472 177 472Q149 472 133.5 458.5Q118 445 118 419V366H47V420Q47 471 84 502.5Q121 534 184 534Q244 534 278 503Q312 472 312 418V127Q312 113 312.5 94.5Q313 76 313.5 57.5Q314 39 315 23.5Q316 8 316 0H246Q246 6 244.5 23Q243 40 243 57H240Q233 39 221.5 26.5Q210 14 197 6Q184 -2 170 -5.5Q156 -9 144 -9Z" glyph-name="adieresis" horiz-adv-x="365" unicode="&#228;" /><glyph d="M439 298V397Q439 424 425.5 447Q412 470 376 470Q359 470 347 463.5Q335 457 327.5 446.5Q320 436 316.5 423Q313 410 313 397V298ZM172 53Q199 53 217 74.5Q235 96 235 131V266H195Q180 266 165.5 260.5Q151 255 139.5 242Q128 229 121 208.5Q114 188 114 157Q114 101 131 77Q148 53 172 53ZM145 -11Q100 -11 68 27.5Q36 66 36 148Q36 187 48 218Q60 249 81 271Q102 293 131 305Q160 317 193 317H235V418Q235 443 220.5 457.5Q206 472 177 472Q149 472 133.5 458.5Q118 445 118 419V366H47V420Q47 471 84 502.5Q121 534 184 534Q216 534 241 524Q266 514 280 493Q297 513 322.5 523.5Q348 534 379 534Q443 534 476.5 496Q510 458 510 393V239H313V150Q313 105 331 80.5Q349 56 397 56Q423 56 447 62.5Q471 69 488 77L506 21Q481 5 450.5 -2.5Q420 -10 385 -10Q340 -10 307 6.5Q274 23 257 58Q246 37 232 23.5Q218 10 203 2.5Q188 -5 172.5 -8Q157 -11 145 -11Z" glyph-name="ae" horiz-adv-x="551" unicode="&#230;" /><glyph d="M439 298V397Q439 424 425.5 447Q412 470 376 470Q359 470 347 463.5Q335 457 327.5 446.5Q320 436 316.5 423Q313 410 313 397V298ZM172 53Q199 53 217 74.5Q235 96 235 131V266H195Q180 266 165.5 260.5Q151 255 139.5 242Q128 229 121 208.5Q114 188 114 157Q114 101 131 77Q148 53 172 53ZM145 -11Q100 -11 68 27.5Q36 66 36 148Q36 187 48 218Q60 249 81 271Q102 293 131 305Q160 317 193 317H235V418Q235 443 220.5 457.5Q206 472 177 472Q149 472 133.5 458.5Q118 445 118 419V366H47V420Q47 471 84 502.5Q121 534 184 534Q216 534 241 524Q266 514 280 493Q297 513 322.5 523.5Q348 534 379 534Q443 534 476.5 496Q510 458 510 393V239H313V150Q313 105 331 80.5Q349 56 397 56Q423 56 447 62.5Q471 69 488 77L506 21Q481 5 450.5 -2.5Q420 -10 385 -10Q340 -10 307 6.5Q274 23 257 58Q246 37 232 23.5Q218 10 203 2.5Q188 -5 172.5 -8Q157 -11 145 -11ZM314 724H398L306 581H246Z" glyph-name="aeacute" horiz-adv-x="551" unicode="&#509;" /><glyph d="M67 724H150L218 581H159ZM168 53Q196 53 215.5 78.5Q235 104 235 138V266H195Q180 266 165.5 260.5Q151 255 139.5 242Q128 229 121 208.5Q114 188 114 157Q114 101 129 77Q144 53 168 53ZM144 -9Q122 -9 102.5 0Q83 9 68 28.5Q53 48 44.5 77.5Q36 107 36 148Q36 187 48 218Q60 249 81 270.5Q102 292 131 304Q160 316 193 317H235V418Q235 443 220.5 457.5Q206 472 177 472Q149 472 133.5 458.5Q118 445 118 419V366H47V420Q47 471 84 502.5Q121 534 184 534Q244 534 278 503Q312 472 312 418V127Q312 113 312.5 94.5Q313 76 313.5 57.5Q314 39 315 23.5Q316 8 316 0H246Q246 6 244.5 23Q243 40 243 57H240Q233 39 221.5 26.5Q210 14 197 6Q184 -2 170 -5.5Q156 -9 144 -9Z" glyph-name="agrave" horiz-adv-x="365" unicode="&#224;" /><glyph d="M134 -185Q100 -185 75.5 -165.5Q51 -146 51 -104Q51 -80 59 -59.5Q67 -39 79 -22.5Q91 -6 106 6Q121 18 135 26L163 5Q136 -10 121.5 -33.5Q107 -57 107 -85Q107 -130 146 -130Q160 -130 180 -120L200 -166Q186 -174 170 -179.5Q154 -185 134 -185Z" glyph-name="altogonek" horiz-adv-x="230" /><glyph d="M85 659H280V597H85ZM168 53Q196 53 215.5 78.5Q235 104 235 138V266H195Q180 266 165.5 260.5Q151 255 139.5 242Q128 229 121 208.5Q114 188 114 157Q114 101 129 77Q144 53 168 53ZM144 -9Q122 -9 102.5 0Q83 9 68 28.5Q53 48 44.5 77.5Q36 107 36 148Q36 187 48 218Q60 249 81 270.5Q102 292 131 304Q160 316 193 317H235V418Q235 443 220.5 457.5Q206 472 177 472Q149 472 133.5 458.5Q118 445 118 419V366H47V420Q47 471 84 502.5Q121 534 184 534Q244 534 278 503Q312 472 312 418V127Q312 113 312.5 94.5Q313 76 313.5 57.5Q314 39 315 23.5Q316 8 316 0H246Q246 6 244.5 23Q243 40 243 57H240Q233 39 221.5 26.5Q210 14 197 6Q184 -2 170 -5.5Q156 -9 144 -9Z" glyph-name="amacron" horiz-adv-x="365" unicode="&#257;" /><glyph d="M219 429Q260 455 278.5 491.5Q297 528 297 577Q297 614 280 639.5Q263 665 231 665Q196 665 180.5 638Q165 611 165 576Q165 546 180 509.5Q195 473 219 429ZM207 59Q238 59 262 79.5Q286 100 301 126Q300 128 291 143.5Q282 159 269.5 181Q257 203 242 229Q227 255 214.5 277Q202 299 193 315Q184 331 183 333Q145 308 131.5 269.5Q118 231 118 188Q118 165 123 142Q128 119 139 100.5Q150 82 167 70.5Q184 59 207 59ZM193 -12Q153 -12 124 3Q95 18 76 44.5Q57 71 48 106.5Q39 142 39 183Q39 247 65 302Q91 357 151 392Q126 434 107.5 479.5Q89 525 89 570Q89 598 97 626Q105 654 122 676.5Q139 699 166.5 712.5Q194 726 233 726Q266 726 291.5 714.5Q317 703 334 683Q351 663 359.5 636Q368 609 368 579Q368 447 249 375Q250 373 257.5 360.5Q265 348 276 329Q287 310 299.5 288.5Q312 267 323 248.5Q334 230 341.5 217Q349 204 349 203Q357 231 364 259.5Q371 288 377 323L442 316Q434 266 419.5 218.5Q405 171 388 130Q389 127 400.5 107.5Q412 88 425.5 65Q439 42 450 22.5Q461 3 462 0H374L333 69Q308 32 272 10Q236 -12 193 -12Z" glyph-name="ampersand" horiz-adv-x="482" unicode="&amp;" /><glyph d="M168 53Q196 53 215.5 78.5Q235 104 235 138V266H195Q180 266 165.5 260.5Q151 255 139.5 242Q128 229 121 208.5Q114 188 114 157Q114 101 129 77Q144 53 168 53ZM282 -186Q247 -186 220.5 -166.5Q194 -147 194 -105Q194 -71 209 -44Q224 -17 246 1Q246 8 244.5 24Q243 40 243 57H240Q233 39 221.5 26.5Q210 14 197 6Q184 -2 170 -5.5Q156 -9 144 -9Q122 -9 102.5 0Q83 9 68 28.5Q53 48 44.5 77.5Q36 107 36 148Q36 187 48 218Q60 249 81 270.5Q102 292 131 304Q160 316 193 317H235V418Q235 443 220.5 457.5Q206 472 177 472Q149 472 133.5 458.5Q118 445 118 419V366H47V420Q47 471 84 502.5Q121 534 184 534Q244 534 278 503Q312 472 312 418V127Q312 113 312.5 94.5Q313 76 313.5 57.5Q314 39 315 23.5Q316 8 316 0H305Q250 -30 250 -85Q250 -108 262.5 -119.5Q275 -131 294 -131Q306 -131 317 -127.5Q328 -124 337 -119L359 -163Q346 -171 328.5 -178.5Q311 -186 282 -186Z" glyph-name="aogonek" horiz-adv-x="365" unicode="&#261;" /><glyph d="M46 352Q51 388 67.5 415.5Q84 443 119 443Q134 443 156 439Q178 435 201.5 429.5Q225 424 246 420Q267 416 281 416Q295 416 302 426Q309 436 314 453L355 445Q350 409 333.5 381Q317 353 283 353Q269 353 246 357.5Q223 362 199 367Q175 372 153.5 376.5Q132 381 120 381Q106 381 99 372Q92 363 87 345ZM46 206Q51 243 67.5 270.5Q84 298 119 298Q134 298 156 294Q178 290 201.5 284.5Q225 279 246 275Q267 271 281 271Q295 271 302 280.5Q309 290 314 307L355 299Q350 263 333.5 235.5Q317 208 283 208Q269 208 246 212.5Q223 217 199 222Q175 227 153.5 231.5Q132 236 120 236Q106 236 99 227Q92 218 87 199Z" glyph-name="approxequal" horiz-adv-x="401" unicode="&#8776;" /><glyph d="M180 610Q200 610 211.5 623Q223 636 223 657Q223 677 212 691Q201 705 179 705Q159 705 149 691.5Q139 678 139 656Q139 634 150.5 622Q162 610 180 610ZM180 575Q141 575 119.5 599Q98 623 98 655Q98 690 121 715Q144 740 180 740Q218 740 240 717.5Q262 695 262 660Q262 623 238.5 599Q215 575 180 575ZM168 53Q196 53 215.5 78.5Q235 104 235 138V266H195Q180 266 165.5 260.5Q151 255 139.5 242Q128 229 121 208.5Q114 188 114 157Q114 101 129 77Q144 53 168 53ZM144 -9Q122 -9 102.5 0Q83 9 68 28.5Q53 48 44.5 77.5Q36 107 36 148Q36 187 48 218Q60 249 81 270.5Q102 292 131 304Q160 316 193 317H235V418Q235 443 220.5 457.5Q206 472 177 472Q149 472 133.5 458.5Q118 445 118 419V366H47V420Q47 471 84 502.5Q121 534 184 534Q244 534 278 503Q312 472 312 418V127Q312 113 312.5 94.5Q313 76 313.5 57.5Q314 39 315 23.5Q316 8 316 0H246Q246 6 244.5 23Q243 40 243 57H240Q233 39 221.5 26.5Q210 14 197 6Q184 -2 170 -5.5Q156 -9 144 -9Z" glyph-name="aring" horiz-adv-x="365" unicode="&#229;" /><glyph d="M185 609Q204 609 215.5 621.5Q227 634 227 656Q227 676 216.5 689Q206 702 185 702Q165 702 155 688.5Q145 675 145 654Q145 632 156 620.5Q167 609 185 609ZM185 575Q143 575 123.5 599.5Q104 624 104 653Q104 682 122 708L189 803L254 791L197 732Q232 728 249 707Q266 686 266 657Q266 622 243 598.5Q220 575 185 575ZM168 53Q196 53 215.5 78.5Q235 104 235 138V266H195Q180 266 165.5 260.5Q151 255 139.5 242Q128 229 121 208.5Q114 188 114 157Q114 101 129 77Q144 53 168 53ZM144 -9Q122 -9 102.5 0Q83 9 68 28.5Q53 48 44.5 77.5Q36 107 36 148Q36 187 48 218Q60 249 81 270.5Q102 292 131 304Q160 316 193 317H235V418Q235 443 220.5 457.5Q206 472 177 472Q149 472 133.5 458.5Q118 445 118 419V366H47V420Q47 471 84 502.5Q121 534 184 534Q244 534 278 503Q312 472 312 418V127Q312 113 312.5 94.5Q313 76 313.5 57.5Q314 39 315 23.5Q316 8 316 0H246Q246 6 244.5 23Q243 40 243 57H240Q233 39 221.5 26.5Q210 14 197 6Q184 -2 170 -5.5Q156 -9 144 -9Z" glyph-name="aringacute" horiz-adv-x="365" unicode="&#507;" /><glyph d="M63 329 99 366 186 281V526H240V281L326 367L363 329L216 189H210Z" glyph-name="arrowdown" horiz-adv-x="427" unicode="&#8595;" /><glyph d="M42 354V361L182 507L220 470L134 384H379V330H134L219 242L182 208Z" glyph-name="arrowleft" horiz-adv-x="427" unicode="&#8592;" /><glyph d="M203 242 290 330H44V384H290L203 470L240 507L381 361V354L240 208Z" glyph-name="arrowright" horiz-adv-x="427" unicode="&#8594;" /><glyph d="M186 434 100 347 63 385 210 526H216L363 385L328 348L240 434V189H186Z" glyph-name="arrowup" horiz-adv-x="427" unicode="&#8593;" /><glyph d="M148 525H207L276 204H218L176 418Q163 359 153 312Q148 292 144 273Q140 254 137 238.5Q134 223 132 213.5Q130 204 130 204H71Z" glyph-name="asciicircum" horiz-adv-x="353" unicode="^" /><glyph d="M46 270Q51 308 67.5 335Q84 362 119 362Q134 362 156 358Q178 354 201.5 348.5Q225 343 246 339Q267 335 281 335Q295 335 302 344.5Q309 354 314 371L355 363Q350 327 333.5 299Q317 271 283 271Q269 271 246 275.5Q223 280 199 285.5Q175 291 153.5 295.5Q132 300 120 300Q106 300 99 290.5Q92 281 87 263Z" glyph-name="asciitilde" horiz-adv-x="401" unicode="~" /><glyph d="M53 476 113 566 22 622 46 663 135 611V714H184V611L271 663L296 622L204 566L265 476L224 449L159 543L94 449Z" glyph-name="asterisk" horiz-adv-x="317" unicode="*" /><glyph d="M309 127Q341 127 365 155.5Q389 184 396 224L421 393Q422 398 422.5 402.5Q423 407 423 411Q423 444 406.5 461.5Q390 479 364 479Q333 479 314.5 458.5Q296 438 290 403L260 199Q259 194 258.5 187.5Q258 181 258 176Q258 155 269 141Q280 127 309 127ZM360 -77Q306 -77 259 -64.5Q212 -52 175 -26Q109 16 73.5 92Q38 168 38 277Q38 367 62 441.5Q86 516 130.5 569.5Q175 623 236.5 652.5Q298 682 373 682Q427 682 476.5 664Q526 646 564 608.5Q602 571 624.5 513.5Q647 456 647 377Q647 310 629.5 256.5Q612 203 582.5 164.5Q553 126 515.5 103.5Q478 81 438 76H376L385 136H382Q359 98 329 82.5Q299 67 273 67Q230 67 207.5 91Q185 115 185 154Q185 161 185.5 168.5Q186 176 187 182L223 421Q227 449 239.5 470.5Q252 492 269 506.5Q286 521 307 528.5Q328 536 350 536Q376 536 400 523.5Q424 511 432 484H433L442 532H510L448 121Q481 125 509 147.5Q537 170 557.5 204.5Q578 239 589.5 283Q601 327 601 375Q601 445 582.5 496Q564 547 532.5 580Q501 613 459 628.5Q417 644 370 644Q301 644 248 615.5Q195 587 158.5 538Q122 489 103.5 422Q85 355 85 279Q85 181 116 111Q147 41 209 3Q241 -16 279.5 -26.5Q318 -37 363 -37Q410 -37 448.5 -30Q487 -23 529 -11L537 -46Q501 -60 454.5 -68.5Q408 -77 360 -77Z" glyph-name="at" horiz-adv-x="684" unicode="@" /><glyph d="M51 598Q56 634 75.5 660.5Q95 687 127 687Q141 687 155 682.5Q169 678 182.5 672.5Q196 667 209.5 662.5Q223 658 237 658Q252 658 259 667.5Q266 677 271 694L314 684Q309 649 289.5 622.5Q270 596 238 596Q224 596 209.5 600.5Q195 605 180.5 610.5Q166 616 153 620.5Q140 625 129 625Q114 625 108 616.5Q102 608 97 589ZM168 53Q196 53 215.5 78.5Q235 104 235 138V266H195Q180 266 165.5 260.5Q151 255 139.5 242Q128 229 121 208.5Q114 188 114 157Q114 101 129 77Q144 53 168 53ZM144 -9Q122 -9 102.5 0Q83 9 68 28.5Q53 48 44.5 77.5Q36 107 36 148Q36 187 48 218Q60 249 81 270.5Q102 292 131 304Q160 316 193 317H235V418Q235 443 220.5 457.5Q206 472 177 472Q149 472 133.5 458.5Q118 445 118 419V366H47V420Q47 471 84 502.5Q121 534 184 534Q244 534 278 503Q312 472 312 418V127Q312 113 312.5 94.5Q313 76 313.5 57.5Q314 39 315 23.5Q316 8 316 0H246Q246 6 244.5 23Q243 40 243 57H240Q233 39 221.5 26.5Q210 14 197 6Q184 -2 170 -5.5Q156 -9 144 -9Z" glyph-name="atilde" horiz-adv-x="365" unicode="&#227;" /><glyph d="M207 55Q234 55 249 71Q264 87 264 120V405Q264 432 251 450.5Q238 469 206 469Q177 469 156 441Q135 413 135 371V147Q135 129 141 112Q147 95 156.5 82.5Q166 70 179 62.5Q192 55 207 55ZM222 -9Q193 -9 167 6.5Q141 22 130 50H129L127 0H58V713H135V474H137Q154 507 182 521Q210 535 235 535Q263 535 283 525.5Q303 516 316 500.5Q329 485 335 465Q341 445 341 424V112Q341 54 307 22.5Q273 -9 222 -9Z" glyph-name="b" horiz-adv-x="386" unicode="b" /><glyph d="M14 716H70L243 -169H184Z" glyph-name="backslash" horiz-adv-x="240" unicode="\" /><glyph d="M91 715H145V-104H91Z" glyph-name="bar" horiz-adv-x="236" unicode="|" /><glyph d="M45 544H415V0H45Z" glyph-name="blacksmallsquare" horiz-adv-x="460" unicode="&#9642;" /><glyph d="M42 714H488L489 0H42Z" glyph-name="blacksquare" horiz-adv-x="531" unicode="&#9632;" /><glyph d="M128 -168Q97 -168 79 -152Q61 -136 61 -100V221Q61 245 54.5 257.5Q48 270 28 272V323Q48 327 54.5 337.5Q61 348 61 367V639Q61 676 79 694.5Q97 713 128 713H200V665H146Q128 665 128 642V377Q128 349 120 329.5Q112 310 89 301V297Q112 287 120 269.5Q128 252 128 222V-97Q128 -111 133 -115.5Q138 -120 146 -120H200V-168Z" glyph-name="braceleft" horiz-adv-x="219" unicode="{" /><glyph d="M16 -120H70Q78 -120 83 -115.5Q88 -111 88 -97V222Q88 252 96 269.5Q104 287 128 297V301Q105 310 96.5 329.5Q88 349 88 377V642Q88 656 83 661Q78 666 70 666H16V714H88Q120 714 137.5 695.5Q155 677 155 640V367Q155 348 161.5 337.5Q168 327 188 323V272Q168 270 161.5 257.5Q155 245 155 221V-100Q155 -136 137.5 -152Q120 -168 88 -168H16Z" glyph-name="braceright" horiz-adv-x="219" unicode="}" /><glyph d="M53 713H192V665H121V-120H192V-168H53Z" glyph-name="bracketleft" horiz-adv-x="210" unicode="[" /><glyph d="M19 -119H90V665H19V713H158V-168H19Z" glyph-name="bracketright" horiz-adv-x="210" unicode="]" /><glyph d="M155 584Q100 584 70 616.5Q40 649 38 710H95Q98 680 109.5 657.5Q121 635 157 635Q187 635 200.5 655.5Q214 676 214 710H269Q267 644 234.5 614Q202 584 155 584Z" glyph-name="breve" horiz-adv-x="307" unicode="&#728;" /><glyph d="M94 718H152V383H94ZM94 312H152V-44H94Z" glyph-name="brokenbar" horiz-adv-x="265" unicode="&#166;" /><glyph d="M179 229Q154 229 132 238.5Q110 248 93.5 264.5Q77 281 67.5 303Q58 325 58 350Q58 375 67.5 396.5Q77 418 93.5 434.5Q110 451 132 460.5Q154 470 179 470Q204 470 225.5 460.5Q247 451 263.5 434.5Q280 418 289.5 396.5Q299 375 299 350Q299 325 289.5 303Q280 281 264 264.5Q248 248 226 238.5Q204 229 179 229Z" glyph-name="bullet" horiz-adv-x="357" unicode="&#8226;" /><glyph d="M185 -10Q120 -10 82.5 27Q45 64 45 134V390Q45 425 56 452Q67 479 86.5 497Q106 515 131.5 524.5Q157 534 187 534Q220 534 244.5 524.5Q269 515 285.5 499Q302 483 310.5 461.5Q319 440 319 415V362H250V410Q250 432 236.5 451Q223 470 188 470Q152 470 137.5 447.5Q123 425 123 396V131Q123 100 137 77.5Q151 55 188 55Q208 55 220 61.5Q232 68 239 77.5Q246 87 248 98Q250 109 250 119V164H319V113Q319 57 284 23.5Q249 -10 185 -10Z" glyph-name="c" horiz-adv-x="357" unicode="c" /><glyph d="M185 -10Q120 -10 82.5 27Q45 64 45 134V390Q45 425 56 452Q67 479 86.5 497Q106 515 131.5 524.5Q157 534 187 534Q220 534 244.5 524.5Q269 515 285.5 499Q302 483 310.5 461.5Q319 440 319 415V362H250V410Q250 432 236.5 451Q223 470 188 470Q152 470 137.5 447.5Q123 425 123 396V131Q123 100 137 77.5Q151 55 188 55Q208 55 220 61.5Q232 68 239 77.5Q246 87 248 98Q250 109 250 119V164H319V113Q319 57 284 23.5Q249 -10 185 -10ZM215 724H299L207 581H147Z" glyph-name="cacute" horiz-adv-x="357" unicode="&#263;" /><glyph d="M41 727H106L148 640L189 727H253L175 583H116Z" glyph-name="caron" horiz-adv-x="284" unicode="&#711;" /><glyph d="M52 713H123L95 554H48Z" glyph-name="caronSlovak" horiz-adv-x="176" unicode="&#58387;" /><glyph d="M185 -10Q120 -10 82.5 27Q45 64 45 134V390Q45 425 56 452Q67 479 86.5 497Q106 515 131.5 524.5Q157 534 187 534Q220 534 244.5 524.5Q269 515 285.5 499Q302 483 310.5 461.5Q319 440 319 415V362H250V410Q250 432 236.5 451Q223 470 188 470Q152 470 137.5 447.5Q123 425 123 396V131Q123 100 137 77.5Q151 55 188 55Q208 55 220 61.5Q232 68 239 77.5Q246 87 248 98Q250 109 250 119V164H319V113Q319 57 284 23.5Q249 -10 185 -10ZM79 727H144L186 640L227 727H291L213 583H154Z" glyph-name="ccaron" horiz-adv-x="357" unicode="&#269;" /><glyph d="M189 -184Q175 -184 156 -182Q137 -180 117 -175V-129Q153 -138 185 -138Q203 -138 213.5 -132.5Q224 -127 224 -113Q224 -99 211.5 -94Q199 -89 179 -87L151 -85L168 -9Q111 -4 78 32Q45 68 45 134V390Q45 425 56 452Q67 479 86.5 497Q106 515 131.5 524.5Q157 534 187 534Q220 534 244.5 524.5Q269 515 285.5 499Q302 483 310.5 461.5Q319 440 319 415V362H250V410Q250 432 236.5 451Q223 470 188 470Q152 470 137.5 447.5Q123 425 123 396V131Q123 100 137 77.5Q151 55 188 55Q208 55 220 61.5Q232 68 239 77.5Q246 87 248 98Q250 109 250 119V164H319V113Q319 62 290 30Q261 -2 207 -8L197 -52Q212 -53 227.5 -56Q243 -59 255.5 -65.5Q268 -72 276 -83.5Q284 -95 284 -112Q284 -145 256 -164.5Q228 -184 189 -184Z" glyph-name="ccedilla" horiz-adv-x="357" unicode="&#231;" /><glyph d="M185 -10Q120 -10 82.5 27Q45 64 45 134V390Q45 425 56 452Q67 479 86.5 497Q106 515 131.5 524.5Q157 534 187 534Q220 534 244.5 524.5Q269 515 285.5 499Q302 483 310.5 461.5Q319 440 319 415V362H250V410Q250 432 236.5 451Q223 470 188 470Q152 470 137.5 447.5Q123 425 123 396V131Q123 100 137 77.5Q151 55 188 55Q208 55 220 61.5Q232 68 239 77.5Q246 87 248 98Q250 109 250 119V164H319V113Q319 57 284 23.5Q249 -10 185 -10ZM157 726H215L291 582H225L184 669L142 582H79Z" glyph-name="ccircumflex" horiz-adv-x="357" unicode="&#265;" /><glyph d="M148 716H217V594H148ZM185 -10Q120 -10 82.5 27Q45 64 45 134V390Q45 425 56 452Q67 479 86.5 497Q106 515 131.5 524.5Q157 534 187 534Q220 534 244.5 524.5Q269 515 285.5 499Q302 483 310.5 461.5Q319 440 319 415V362H250V410Q250 432 236.5 451Q223 470 188 470Q152 470 137.5 447.5Q123 425 123 396V131Q123 100 137 77.5Q151 55 188 55Q208 55 220 61.5Q232 68 239 77.5Q246 87 248 98Q250 109 250 119V164H319V113Q319 57 284 23.5Q249 -10 185 -10Z" glyph-name="cdotaccent" horiz-adv-x="357" unicode="&#267;" /><glyph d="M114 -184Q100 -184 81 -182Q62 -180 42 -175V-129Q78 -138 110 -138Q128 -138 138.5 -132.5Q149 -127 149 -113Q149 -99 136.5 -94Q124 -89 104 -87L76 -85L98 11H137L122 -52Q137 -53 152.5 -56Q168 -59 180.5 -65.5Q193 -72 201 -83.5Q209 -95 209 -112Q209 -145 181 -164.5Q153 -184 114 -184Z" glyph-name="cedilla" horiz-adv-x="257" unicode="&#184;" /><glyph d="M150 23Q97 30 68.5 65.5Q40 101 40 162V402Q40 464 70.5 498.5Q101 533 150 541V620H216V541Q266 532 291 499.5Q316 467 316 423V367H245V421Q245 443 232 462.5Q219 482 183 482Q146 482 132 459.5Q118 437 118 408V159Q118 144 121 129.5Q124 115 131.5 104.5Q139 94 151.5 87.5Q164 81 183 81Q203 81 215 87.5Q227 94 234 103.5Q241 113 243 124.5Q245 136 245 146V203H316V141Q316 93 290.5 62Q265 31 216 24V-55H150Z" glyph-name="cent" horiz-adv-x="354" unicode="&#162;" /><glyph d="M117 726H175L251 582H185L144 669L102 582H39Z" glyph-name="circumflex" horiz-adv-x="288" unicode="&#710;" /><glyph d="M47 518H123V399H47ZM46 118H123V0H46Z" glyph-name="colon" horiz-adv-x="168" unicode=":" /><glyph d="M74 5H46V118H123V9L92 -105H51Z" glyph-name="comma" horiz-adv-x="168" unicode="," /><glyph d="M60 2H38V83H97V5L74 -74H43Z" glyph-name="comma.dnom" horiz-adv-x="136" unicode="&#58381;" /><glyph d="M60 320H38V401H97V323L74 244H43Z" glyph-name="comma.numr" horiz-adv-x="136" unicode="&#58401;" /><glyph d="M60 -131H38V-50H97V-128L74 -207H43Z" glyph-name="comma.sub" horiz-adv-x="136" /><glyph d="M60 382H38V463H97V385L74 306H43Z" glyph-name="comma.sup" horiz-adv-x="136" /><glyph d="M50 -38H125L100 -177H46Z" glyph-name="commaaccent" horiz-adv-x="168" unicode="&#58388;" /><glyph d="M54 660 80 735H117L101 669H123V594H54Z" glyph-name="commatop" horiz-adv-x="177" /><glyph d="M350 12Q406 12 453 36Q500 60 533.5 104.5Q567 149 585.5 211.5Q604 274 604 352Q604 431 585.5 493.5Q567 556 533 599.5Q499 643 452.5 666.5Q406 690 349 690Q291 690 244 666.5Q197 643 163.5 599Q130 555 112 492.5Q94 430 94 352Q94 272 112.5 209Q131 146 165 102Q199 58 246 35Q293 12 350 12ZM349 -32Q271 -32 213 -2Q155 28 117 79.5Q79 131 60.5 201Q42 271 42 352Q42 430 62.5 498.5Q83 567 122 619Q161 671 218 701Q275 731 349 731Q425 731 482.5 700Q540 669 578.5 617Q617 565 636 496Q655 427 655 352Q655 273 635.5 203.5Q616 134 578 81.5Q540 29 482.5 -1.5Q425 -32 349 -32ZM350 78Q286 78 249 113Q212 148 212 213V482Q212 547 249.5 583.5Q287 620 350 620Q413 620 447 587Q481 554 481 501V417H414V496Q414 518 400.5 537Q387 556 352 556Q314 556 300 533Q286 510 286 480V218Q286 186 300.5 164.5Q315 143 351 143Q369 143 381.5 148.5Q394 154 401 163Q408 172 411 183Q414 194 414 204V281H481V202Q481 147 446.5 112.5Q412 78 350 78Z" glyph-name="copyright" horiz-adv-x="697" unicode="&#169;" /><glyph d="M168 263Q206 263 226.5 286.5Q247 310 247 348Q247 385 224.5 408Q202 431 169 431Q132 431 111 408Q90 385 90 345Q90 329 95.5 314.5Q101 300 111.5 288.5Q122 277 136 270Q150 263 168 263ZM36 241 70 275Q46 308 46 348Q46 385 68 416Q63 420 50.5 432.5Q38 445 34 450L65 480L98 447Q129 470 168 470Q205 470 237 449L271 484L302 453L268 419Q279 403 285.5 384.5Q292 366 292 347Q292 309 269 277L303 244L273 213L239 246Q207 225 169 225Q132 225 101 245L67 210Z" glyph-name="currency" horiz-adv-x="337" unicode="&#164;" /><glyph d="M180 57Q195 57 208.5 65Q222 73 231.5 87Q241 101 246.5 119Q252 137 252 157V378Q252 396 246 413Q240 430 230 443Q220 456 207 463.5Q194 471 180 471Q154 471 138.5 455Q123 439 123 402V123Q123 94 136 75.5Q149 57 180 57ZM153 -9Q125 -9 104.5 0Q84 9 71 25Q58 41 51.5 61Q45 81 45 104V416Q45 470 77.5 502Q110 534 160 534Q187 534 211.5 522Q236 510 250 483H251V713H329V0H261L258 59H255Q246 40 234 27Q222 14 208 6Q194 -2 179.5 -5.5Q165 -9 153 -9Z" glyph-name="d" horiz-adv-x="387" unicode="d" /><glyph d="M154 482H39V543H154V714H221V543H335V482H221V-112H154Z" glyph-name="dagger" horiz-adv-x="374" unicode="&#8224;" /><glyph d="M154 72H39V134H154V482H39V543H154V714H221V543H335V482H221V134H335V72H221V-112H154Z" glyph-name="daggerdbl" horiz-adv-x="374" unicode="&#8225;" /><glyph d="M180 57Q195 57 208.5 65Q222 73 231.5 87Q241 101 246.5 119Q252 137 252 157V378Q252 396 246 413Q240 430 230 443Q220 456 207 463.5Q194 471 180 471Q154 471 138.5 455Q123 439 123 402V123Q123 94 136 75.5Q149 57 180 57ZM153 -9Q125 -9 104.5 0Q84 9 71 25Q58 41 51.5 61Q45 81 45 104V416Q45 470 77.5 502Q110 534 160 534Q187 534 211.5 522Q236 510 250 483H251V713H329V0H261L258 59H255Q246 40 234 27Q222 14 208 6Q194 -2 179.5 -5.5Q165 -9 153 -9ZM363 713H434L406 554H359Z" glyph-name="dcaron" horiz-adv-x="387" unicode="&#271;" /><glyph d="M180 57Q195 57 208.5 65Q222 73 231.5 87Q241 101 246.5 119Q252 137 252 157V378Q252 396 246 413Q240 430 230 443Q220 456 207 463.5Q194 471 180 471Q154 471 138.5 455Q123 439 123 402V123Q123 94 136 75.5Q149 57 180 57ZM163 650H251V713H329V650H364V597H329V0H261L258 59H255Q246 40 234 27Q222 14 208 6Q194 -2 179.5 -5.5Q165 -9 153 -9Q125 -9 104.5 0Q84 9 71 25Q58 41 51.5 61Q45 81 45 104V416Q45 470 77.5 502Q110 534 160 534Q187 534 211.5 522Q236 510 250 483H251V597H163Z" glyph-name="dcroat" horiz-adv-x="387" unicode="&#273;" /><glyph d="M117 589Q137 589 150 603Q163 617 163 637Q163 658 150 672.5Q137 687 117 687Q97 687 84.5 672.5Q72 658 72 637Q72 617 84.5 603Q97 589 117 589ZM117 553Q80 553 56.5 578Q33 603 33 637Q33 672 57.5 697.5Q82 723 117 723Q154 723 178 698Q202 673 202 638Q202 603 177.5 578Q153 553 117 553Z" glyph-name="degree" horiz-adv-x="235" unicode="&#176;" /><glyph d="M179 714H245V594H179ZM50 714H116V594H50Z" glyph-name="dieresis" horiz-adv-x="294" unicode="&#168;" /><glyph d="M172 501H239V403H172ZM52 349H357V290H52ZM172 230H239V130H172Z" glyph-name="divide" horiz-adv-x="409" unicode="&#247;" /><glyph d="M167 27Q112 33 73.5 70.5Q35 108 30 181L104 184Q109 139 128.5 113Q148 87 190 87Q229 87 246 113.5Q263 140 263 173Q263 202 247 234.5Q231 267 204 296L126 380Q91 418 67 456.5Q43 495 43 539Q43 593 75 632.5Q107 672 167 679V746H223V679Q269 673 300 641Q331 609 336 537L268 536Q264 584 243 603.5Q222 623 191 623Q157 623 137.5 603.5Q118 584 118 546Q118 517 137.5 488Q157 459 183 431L255 354Q290 312 314 271.5Q338 231 338 181Q338 121 308 80.5Q278 40 223 30V-34H167Z" glyph-name="dollar" horiz-adv-x="366" unicode="$" /><glyph d="M60 716H129V594H60Z" glyph-name="dotaccent" horiz-adv-x="190" unicode="&#729;" /><glyph d="M58 524H135V0H58Z" glyph-name="dotlessi" horiz-adv-x="193" unicode="&#305;" /><glyph d="M40 -170Q28 -170 19 -169Q10 -168 -1 -166V-105H21Q44 -105 52 -92.5Q60 -80 60 -57V524H137V-68Q137 -114 112 -142Q87 -170 40 -170Z" glyph-name="dotlessj" horiz-adv-x="194" unicode="&#567;" /><glyph d="M249 298V397Q249 424 235.5 447Q222 470 186 470Q169 470 157 463.5Q145 457 137.5 446.5Q130 436 126.5 422.5Q123 409 123 395V298ZM194 -10Q125 -10 85 26.5Q45 63 45 139V382Q45 455 85.5 494.5Q126 534 189 534Q254 534 287 495Q320 456 320 393V239H123V150Q123 103 142 79.5Q161 56 207 56Q233 56 256.5 63Q280 70 297 77L315 21Q290 7 259.5 -1.5Q229 -10 194 -10Z" glyph-name="e" horiz-adv-x="361" unicode="e" /><glyph d="M249 298V397Q249 424 235.5 447Q222 470 186 470Q169 470 157 463.5Q145 457 137.5 446.5Q130 436 126.5 422.5Q123 409 123 395V298ZM194 -10Q125 -10 85 26.5Q45 63 45 139V382Q45 455 85.5 494.5Q126 534 189 534Q254 534 287 495Q320 456 320 393V239H123V150Q123 103 142 79.5Q161 56 207 56Q233 56 256.5 63Q280 70 297 77L315 21Q290 7 259.5 -1.5Q229 -10 194 -10ZM222 724H306L214 581H154Z" glyph-name="eacute" horiz-adv-x="361" unicode="&#233;" /><glyph d="M187 584Q132 584 102 616.5Q72 649 70 710H127Q130 680 141.5 657.5Q153 635 189 635Q219 635 232.5 655.5Q246 676 246 710H301Q299 644 266.5 614Q234 584 187 584ZM249 298V397Q249 424 235.5 447Q222 470 186 470Q169 470 157 463.5Q145 457 137.5 446.5Q130 436 126.5 422.5Q123 409 123 395V298ZM194 -10Q125 -10 85 26.5Q45 63 45 139V382Q45 455 85.5 494.5Q126 534 189 534Q254 534 287 495Q320 456 320 393V239H123V150Q123 103 142 79.5Q161 56 207 56Q233 56 256.5 63Q280 70 297 77L315 21Q290 7 259.5 -1.5Q229 -10 194 -10Z" glyph-name="ebreve" horiz-adv-x="361" unicode="&#277;" /><glyph d="M249 298V397Q249 424 235.5 447Q222 470 186 470Q169 470 157 463.5Q145 457 137.5 446.5Q130 436 126.5 422.5Q123 409 123 395V298ZM194 -10Q125 -10 85 26.5Q45 63 45 139V382Q45 455 85.5 494.5Q126 534 189 534Q254 534 287 495Q320 456 320 393V239H123V150Q123 103 142 79.5Q161 56 207 56Q233 56 256.5 63Q280 70 297 77L315 21Q290 7 259.5 -1.5Q229 -10 194 -10ZM74 727H139L181 640L222 727H286L208 583H149Z" glyph-name="ecaron" horiz-adv-x="361" unicode="&#283;" /><glyph d="M249 298V397Q249 424 235.5 447Q222 470 186 470Q169 470 157 463.5Q145 457 137.5 446.5Q130 436 126.5 422.5Q123 409 123 395V298ZM194 -10Q125 -10 85 26.5Q45 63 45 139V382Q45 455 85.5 494.5Q126 534 189 534Q254 534 287 495Q320 456 320 393V239H123V150Q123 103 142 79.5Q161 56 207 56Q233 56 256.5 63Q280 70 297 77L315 21Q290 7 259.5 -1.5Q229 -10 194 -10ZM167 726H225L301 582H235L194 669L152 582H89Z" glyph-name="ecircumflex" horiz-adv-x="361" unicode="&#234;" /><glyph d="M249 298V397Q249 424 235.5 447Q222 470 186 470Q169 470 157 463.5Q145 457 137.5 446.5Q130 436 126.5 422.5Q123 409 123 395V298ZM194 -10Q125 -10 85 26.5Q45 63 45 139V382Q45 455 85.5 494.5Q126 534 189 534Q254 534 287 495Q320 456 320 393V239H123V150Q123 103 142 79.5Q161 56 207 56Q233 56 256.5 63Q280 70 297 77L315 21Q290 7 259.5 -1.5Q229 -10 194 -10ZM223 714H289V594H223ZM94 714H160V594H94Z" glyph-name="edieresis" horiz-adv-x="361" unicode="&#235;" /><glyph d="M150 716H219V594H150ZM249 298V397Q249 424 235.5 447Q222 470 186 470Q169 470 157 463.5Q145 457 137.5 446.5Q130 436 126.5 422.5Q123 409 123 395V298ZM194 -10Q125 -10 85 26.5Q45 63 45 139V382Q45 455 85.5 494.5Q126 534 189 534Q254 534 287 495Q320 456 320 393V239H123V150Q123 103 142 79.5Q161 56 207 56Q233 56 256.5 63Q280 70 297 77L315 21Q290 7 259.5 -1.5Q229 -10 194 -10Z" glyph-name="edotaccent" horiz-adv-x="361" unicode="&#279;" /><glyph d="M78 724H161L229 581H170ZM249 298V397Q249 424 235.5 447Q222 470 186 470Q169 470 157 463.5Q145 457 137.5 446.5Q130 436 126.5 422.5Q123 409 123 395V298ZM194 -10Q125 -10 85 26.5Q45 63 45 139V382Q45 455 85.5 494.5Q126 534 189 534Q254 534 287 495Q320 456 320 393V239H123V150Q123 103 142 79.5Q161 56 207 56Q233 56 256.5 63Q280 70 297 77L315 21Q290 7 259.5 -1.5Q229 -10 194 -10Z" glyph-name="egrave" horiz-adv-x="361" unicode="&#232;" /><glyph d="M192 398Q224 398 242.5 419.5Q261 441 261 469V593Q261 623 240.5 640.5Q220 658 191 658Q162 658 142.5 639.5Q123 621 123 594V469Q123 439 143 418.5Q163 398 192 398ZM191 57Q227 57 244.5 78Q262 99 262 128V267Q262 299 241 318.5Q220 338 191 338Q160 338 140 318Q120 298 120 269V127Q120 98 139 77.5Q158 57 191 57ZM189 -9Q123 -9 81.5 26.5Q40 62 40 129V258Q40 296 58.5 324.5Q77 353 106 368Q77 382 62 410.5Q47 439 47 471V588Q47 621 58.5 646.5Q70 672 90 689.5Q110 707 136.5 715.5Q163 724 193 724Q222 724 248 716Q274 708 293.5 692Q313 676 324.5 651Q336 626 336 593V475Q336 439 320.5 411Q305 383 276 368Q304 356 323 329Q342 302 342 263V130Q342 95 330.5 69Q319 43 298.5 26Q278 9 250 0Q222 -9 189 -9Z" glyph-name="eight" horiz-adv-x="382" unicode="8" /><glyph d="M205 398Q237 398 255.5 419.5Q274 441 274 469V593Q274 623 253.5 640.5Q233 658 204 658Q175 658 155.5 639.5Q136 621 136 594V469Q136 439 156 418.5Q176 398 205 398ZM204 57Q240 57 257.5 78Q275 99 275 128V267Q275 299 254 318.5Q233 338 204 338Q173 338 153 318Q133 298 133 269V127Q133 98 152 77.5Q171 57 204 57ZM202 -9Q136 -9 94.5 26.5Q53 62 53 129V258Q53 296 71.5 324.5Q90 353 119 368Q90 382 75 410.5Q60 439 60 471V588Q60 621 71.5 646.5Q83 672 103 689.5Q123 707 149.5 715.5Q176 724 206 724Q235 724 261 716Q287 708 306.5 692Q326 676 337.5 651Q349 626 349 593V475Q349 439 333.5 411Q318 383 289 368Q317 356 336 329Q355 302 355 263V130Q355 95 343.5 69Q332 43 311.5 26Q291 9 263 0Q235 -9 202 -9Z" glyph-name="eight.LT" horiz-adv-x="409" unicode="&#58696;" /><glyph d="M129 223Q146 223 155.5 234Q165 245 165 260V319Q165 336 154 345Q143 354 128 354Q112 354 101.5 344.5Q91 335 91 320V260Q91 243 102 233Q113 223 129 223ZM129 37Q148 37 157.5 47.5Q167 58 167 75V140Q167 159 155 168.5Q143 178 128 178Q111 178 100 168.5Q89 159 89 142V74Q89 58 99.5 47.5Q110 37 129 37ZM128 -10Q84 -10 57 11.5Q30 33 30 76V136Q30 158 41 174.5Q52 191 69 201Q52 209 43 226Q34 243 34 261V317Q34 359 61.5 380.5Q89 402 128 402Q167 402 195 381.5Q223 361 223 318V263Q223 243 213.5 226.5Q204 210 186 202Q203 193 215 176.5Q227 160 227 138V76Q227 34 198.5 12Q170 -10 128 -10Z" glyph-name="eight.dnom" horiz-adv-x="257" unicode="&#58378;" /><glyph d="M129 541Q146 541 155.5 552Q165 563 165 578V637Q165 654 154 663Q143 672 128 672Q112 672 101.5 662.5Q91 653 91 638V578Q91 561 102 551Q113 541 129 541ZM129 355Q148 355 157.5 365.5Q167 376 167 393V458Q167 477 155 486.5Q143 496 128 496Q111 496 100 486.5Q89 477 89 460V392Q89 376 99.5 365.5Q110 355 129 355ZM128 308Q84 308 57 329.5Q30 351 30 394V454Q30 476 41 492.5Q52 509 69 519Q52 527 43 544Q34 561 34 579V635Q34 677 61.5 698.5Q89 720 128 720Q167 720 195 699.5Q223 679 223 636V581Q223 561 213.5 544.5Q204 528 186 520Q203 511 215 494.5Q227 478 227 456V394Q227 352 198.5 330Q170 308 128 308Z" glyph-name="eight.numr" horiz-adv-x="257" unicode="&#58398;" /><glyph d="M362 118H438V0H362ZM204 118H280V0H204ZM46 118H121V0H46Z" glyph-name="ellipsis" horiz-adv-x="483" unicode="&#8230;" /><glyph d="M88 659H283V597H88ZM249 298V397Q249 424 235.5 447Q222 470 186 470Q169 470 157 463.5Q145 457 137.5 446.5Q130 436 126.5 422.5Q123 409 123 395V298ZM194 -10Q125 -10 85 26.5Q45 63 45 139V382Q45 455 85.5 494.5Q126 534 189 534Q254 534 287 495Q320 456 320 393V239H123V150Q123 103 142 79.5Q161 56 207 56Q233 56 256.5 63Q280 70 297 77L315 21Q290 7 259.5 -1.5Q229 -10 194 -10Z" glyph-name="emacron" horiz-adv-x="361" unicode="&#275;" /><glyph d="M0 330H612V273H0Z" glyph-name="emdash" horiz-adv-x="612" unicode="&#8212;" /><glyph d="M0 330H362V273H0Z" glyph-name="endash" horiz-adv-x="362" unicode="&#8211;" /><glyph d="M242 -170Q230 -170 221 -169Q212 -168 201 -166V-105H223Q246 -105 254 -92.5Q262 -80 262 -57V406Q262 436 248.5 452.5Q235 469 207 469Q191 469 178 460.5Q165 452 155.5 438.5Q146 425 140.5 407.5Q135 390 135 372V0H58V524H132V469H133Q150 501 179 517.5Q208 534 243 534Q285 534 312 508.5Q339 483 339 438V-68Q339 -114 314 -142Q289 -170 242 -170Z" glyph-name="eng" horiz-adv-x="392" unicode="&#331;" /><glyph d="M249 298V397Q249 424 235.5 447Q222 470 186 470Q169 470 157 463.5Q145 457 137.5 446.5Q130 436 126.5 422.5Q123 409 123 395V298ZM194 -10Q125 -10 85 26.5Q45 63 45 139V382Q45 455 85.5 494.5Q126 534 189 534Q254 534 287 495Q320 456 320 393V239H123V150Q123 103 142 79.5Q161 56 207 56Q233 56 256.5 63Q280 70 297 77L315 21Q310 18 304.5 15Q299 12 294 10Q248 -24 248 -85Q248 -108 260.5 -119.5Q273 -131 292 -131Q304 -131 315 -127.5Q326 -124 335 -119L357 -164Q344 -172 326.5 -179Q309 -186 281 -186Q246 -186 219.5 -166Q193 -146 193 -104Q193 -74 205 -49.5Q217 -25 234 -7Q214 -10 194 -10Z" glyph-name="eogonek" horiz-adv-x="361" unicode="&#281;" /><glyph d="M48 414H358V354H48ZM48 275H358V215H48Z" glyph-name="equal" horiz-adv-x="407" unicode="=" /><glyph d="M189 55Q209 55 221.5 61Q234 67 241.5 77.5Q249 88 251.5 101.5Q254 115 254 130V391Q254 421 240 442.5Q226 464 191 464Q156 464 139.5 442Q123 420 123 390V127Q123 98 138.5 76.5Q154 55 189 55ZM45 627 124 645 90 704 166 725 201 663 274 680 294 634 227 618 311 471Q320 456 326 435Q332 414 332 390V136Q332 61 291.5 25.5Q251 -10 188 -10Q122 -10 83.5 25.5Q45 61 45 133V386Q45 451 80 487.5Q115 524 172 527Q174 527 182 526Q190 525 197 522L150 601L65 581Z" glyph-name="eth" horiz-adv-x="370" unicode="&#240;" /><glyph d="M55 118H132V0H55ZM55 446V714H132V446L120 193H69Z" glyph-name="exclam" horiz-adv-x="186" unicode="!" /><glyph d="M132 442H55V560H132ZM132 114V-154H55V114L67 367H118Z" glyph-name="exclamdown" horiz-adv-x="186" unicode="&#161;" /><glyph d="M86 460H34V522H86V621Q86 667 113.5 694.5Q141 722 188 722Q199 722 213 721Q227 720 239 716V657Q222 660 203 660Q186 660 174 649Q162 638 162 615V522H228V460H162V0H86Z" glyph-name="f" horiz-adv-x="256" unicode="f" /><glyph d="M83 460H31V522H83V621Q83 667 110.5 694.5Q138 722 185 722Q196 722 210 721Q224 720 236 716V657Q219 660 200 660Q183 660 171 649Q159 638 159 615V522H225V460H159V0H83ZM290 723H367V612H290ZM290 524H367V0H290Z" glyph-name="fi" horiz-adv-x="417" unicode="&#64257;" /><glyph d="M187 -10Q150 -10 123 1Q96 12 78.5 31.5Q61 51 52.5 77.5Q44 104 44 135V186H118V144Q118 109 136 84.5Q154 60 188 60Q219 60 239 85.5Q259 111 259 162V297Q259 345 241 367.5Q223 390 190 390Q167 390 149.5 376.5Q132 363 121 345L53 349L67 713H317V644H132Q132 643 131.5 620.5Q131 598 130 564.5Q129 531 127.5 491.5Q126 452 124 418Q143 436 166 445.5Q189 455 218 455Q242 455 264 447Q286 439 302.5 422.5Q319 406 328.5 379.5Q338 353 338 317V160Q338 81 296.5 35.5Q255 -10 187 -10Z" glyph-name="five" horiz-adv-x="382" unicode="5" /><glyph d="M201 -10Q164 -10 137 1Q110 12 92.5 31.5Q75 51 66.5 77.5Q58 104 58 135V186H132V144Q132 109 150 84.5Q168 60 202 60Q233 60 253 85.5Q273 111 273 162V297Q273 345 255 367.5Q237 390 204 390Q181 390 163.5 376.5Q146 363 135 345L67 349L81 713H331V644H146Q146 643 145.5 620.5Q145 598 144 564.5Q143 531 141.5 491.5Q140 452 138 418Q157 436 180 445.5Q203 455 232 455Q256 455 278 447Q300 439 316.5 422.5Q333 406 342.5 379.5Q352 353 352 317V160Q352 81 310.5 35.5Q269 -10 201 -10Z" glyph-name="five.LT" horiz-adv-x="409" unicode="&#58693;" /><glyph d="M125 -10Q79 -10 55 14Q31 38 31 76V110H88V82Q88 63 98.5 51Q109 39 126 39Q144 39 154.5 51.5Q165 64 165 90V158Q165 205 128 205Q116 205 106 197.5Q96 190 90 180L35 186L44 396H210V344H94Q94 342 93 324Q92 306 91.5 285Q91 264 90 246Q89 228 89 225Q113 249 148 249Q163 249 176.5 244.5Q190 240 201 230Q212 220 218.5 204.5Q225 189 225 167V88Q225 40 196 15Q167 -10 125 -10Z" glyph-name="five.dnom" horiz-adv-x="256" unicode="&#58375;" /><glyph d="M125 308Q79 308 55 332Q31 356 31 394V428H88V400Q88 381 98.5 369Q109 357 126 357Q144 357 154.5 369.5Q165 382 165 408V476Q165 523 128 523Q116 523 106 515.5Q96 508 90 498L35 504L44 714H210V662H94Q94 660 93 642Q92 624 91.5 603Q91 582 90 564Q89 546 89 543Q113 567 148 567Q163 567 176.5 562.5Q190 558 201 548Q212 538 218.5 522.5Q225 507 225 485V406Q225 358 196 333Q167 308 125 308Z" glyph-name="five.numr" horiz-adv-x="256" unicode="&#58395;" /><glyph d="M83 460H31V522H83V621Q83 667 110.5 694.5Q138 722 185 722Q196 722 210 721Q224 720 236 716V657Q219 660 200 660Q183 660 171 649Q159 638 159 615V522H225V460H159V0H83ZM373 -6Q328 -6 308.5 16.5Q289 39 289 77V713H366V97Q366 83 373.5 74Q381 65 399 65Q411 65 425 68V3Q399 -6 373 -6Z" glyph-name="fl" horiz-adv-x="449" unicode="&#64258;" /><glyph d="M50 -169Q39 -169 27.5 -168Q16 -167 6 -165L10 -101Q12 -101 20.5 -101.5Q29 -102 32 -102Q55 -102 62.5 -89Q70 -76 72 -53L107 427H51L55 491H110L119 616Q123 665 151.5 694Q180 723 228 723Q240 723 254.5 722Q269 721 281 717L277 655Q270 657 259.5 657.5Q249 658 241 658Q223 658 210.5 647Q198 636 196 613L187 491H253L249 427H184L149 -63Q147 -111 123 -140Q99 -169 50 -169Z" glyph-name="florin" horiz-adv-x="286" unicode="&#402;" /><glyph d="M223 183H29V248L199 713H281L102 252H223V398L296 453V252H353V183H296V0H223Z" glyph-name="four" horiz-adv-x="387" unicode="4" /><glyph d="M236 183H42V248L212 713H294L115 252H236V398L309 453V252H366V183H309V0H236Z" glyph-name="four.LT" horiz-adv-x="409" unicode="&#58692;" /><glyph d="M140 98H19V143L125 400H187L76 147H140V218L197 262V147H231V98H197V0H140Z" glyph-name="four.dnom" horiz-adv-x="248" unicode="&#58374;" /><glyph d="M140 416H19V461L125 718H187L76 465H140V536L197 580V465H231V416H197V318H140Z" glyph-name="four.numr" horiz-adv-x="248" unicode="&#58394;" /><glyph d="M164 716H210L-75 -2H-122Z" glyph-name="fraction" horiz-adv-x="90" unicode="&#8260;" /><glyph d="M180 76Q209 76 230 103Q251 130 251 169V381Q251 400 244.5 417Q238 434 228 446.5Q218 459 204.5 466Q191 473 178 473Q152 473 137 454.5Q122 436 122 402V143Q122 117 134.5 96.5Q147 76 180 76ZM170 -170Q134 -170 105 -164Q76 -158 50 -146L73 -84Q99 -95 120.5 -100Q142 -105 168 -105Q251 -105 251 -18V77H249Q235 45 207 28.5Q179 12 153 12Q125 12 105 21.5Q85 31 71.5 47Q58 63 51.5 84Q45 105 45 129V411Q45 471 79 502.5Q113 534 161 534Q187 534 215 520.5Q243 507 255 476H257V525H328V-13Q328 -91 285.5 -130.5Q243 -170 170 -170Z" glyph-name="g" horiz-adv-x="386" unicode="g" /><glyph d="M187 584Q132 584 102 616.5Q72 649 70 710H127Q130 680 141.5 657.5Q153 635 189 635Q219 635 232.5 655.5Q246 676 246 710H301Q299 644 266.5 614Q234 584 187 584ZM180 76Q209 76 230 103Q251 130 251 169V381Q251 400 244.5 417Q238 434 228 446.5Q218 459 204.5 466Q191 473 178 473Q152 473 137 454.5Q122 436 122 402V143Q122 117 134.5 96.5Q147 76 180 76ZM170 -170Q134 -170 105 -164Q76 -158 50 -146L73 -84Q99 -95 120.5 -100Q142 -105 168 -105Q251 -105 251 -18V77H249Q235 45 207 28.5Q179 12 153 12Q125 12 105 21.5Q85 31 71.5 47Q58 63 51.5 84Q45 105 45 129V411Q45 471 79 502.5Q113 534 161 534Q187 534 215 520.5Q243 507 255 476H257V525H328V-13Q328 -91 285.5 -130.5Q243 -170 170 -170Z" glyph-name="gbreve" horiz-adv-x="386" unicode="&#287;" /><glyph d="M180 76Q209 76 230 103Q251 130 251 169V381Q251 400 244.5 417Q238 434 228 446.5Q218 459 204.5 466Q191 473 178 473Q152 473 137 454.5Q122 436 122 402V143Q122 117 134.5 96.5Q147 76 180 76ZM170 -170Q134 -170 105 -164Q76 -158 50 -146L73 -84Q99 -95 120.5 -100Q142 -105 168 -105Q251 -105 251 -18V77H249Q235 45 207 28.5Q179 12 153 12Q125 12 105 21.5Q85 31 71.5 47Q58 63 51.5 84Q45 105 45 129V411Q45 471 79 502.5Q113 534 161 534Q187 534 215 520.5Q243 507 255 476H257V525H328V-13Q328 -91 285.5 -130.5Q243 -170 170 -170ZM161 726H219L295 582H229L188 669L146 582H83Z" glyph-name="gcircumflex" horiz-adv-x="386" unicode="&#285;" /><glyph d="M149 660 175 735H212L196 669H218V594H149ZM180 76Q209 76 230 103Q251 130 251 169V381Q251 400 244.5 417Q238 434 228 446.5Q218 459 204.5 466Q191 473 178 473Q152 473 137 454.5Q122 436 122 402V143Q122 117 134.5 96.5Q147 76 180 76ZM170 -170Q134 -170 105 -164Q76 -158 50 -146L73 -84Q99 -95 120.5 -100Q142 -105 168 -105Q251 -105 251 -18V77H249Q235 45 207 28.5Q179 12 153 12Q125 12 105 21.5Q85 31 71.5 47Q58 63 51.5 84Q45 105 45 129V411Q45 471 79 502.5Q113 534 161 534Q187 534 215 520.5Q243 507 255 476H257V525H328V-13Q328 -91 285.5 -130.5Q243 -170 170 -170Z" glyph-name="gcommaaccent" horiz-adv-x="386" unicode="&#291;" /><glyph d="M149 716H218V594H149ZM180 76Q209 76 230 103Q251 130 251 169V381Q251 400 244.5 417Q238 434 228 446.5Q218 459 204.5 466Q191 473 178 473Q152 473 137 454.5Q122 436 122 402V143Q122 117 134.5 96.5Q147 76 180 76ZM170 -170Q134 -170 105 -164Q76 -158 50 -146L73 -84Q99 -95 120.5 -100Q142 -105 168 -105Q251 -105 251 -18V77H249Q235 45 207 28.5Q179 12 153 12Q125 12 105 21.5Q85 31 71.5 47Q58 63 51.5 84Q45 105 45 129V411Q45 471 79 502.5Q113 534 161 534Q187 534 215 520.5Q243 507 255 476H257V525H328V-13Q328 -91 285.5 -130.5Q243 -170 170 -170Z" glyph-name="gdotaccent" horiz-adv-x="386" unicode="&#289;" /><glyph d="M266 -6Q240 -6 220 -2Q200 2 186 9L199 70Q212 65 227.5 62Q243 59 254 59Q273 59 284.5 68Q296 77 302.5 91.5Q309 106 311.5 124.5Q314 143 314 161Q314 194 305 221.5Q296 249 282 270Q268 291 250 306Q232 321 213 329V388H221Q237 402 250.5 423Q264 444 273.5 467Q283 490 288 513Q293 536 293 555Q293 575 288.5 593.5Q284 612 275.5 626Q267 640 254 648Q241 656 224 656Q205 656 191.5 647.5Q178 639 170 625Q162 611 158 593Q154 575 154 556V0H77V461H25V522H77V554Q77 629 115.5 674.5Q154 720 230 720Q265 720 291.5 708Q318 696 335.5 675.5Q353 655 362 627Q371 599 371 567Q371 513 350.5 459.5Q330 406 287 371V368Q336 335 363.5 279.5Q391 224 391 162Q391 129 384 99Q377 69 362 45.5Q347 22 323 8Q299 -6 266 -6Z" glyph-name="germandbls" horiz-adv-x="418" unicode="&#223;" /><glyph d="M28 724H111L179 581H120Z" glyph-name="grave" horiz-adv-x="220" unicode="`" /><glyph d="M57 216 268 320 56 422 83 474 351 343V297L84 164Z" glyph-name="greater" horiz-adv-x="407" unicode="&gt;" /><glyph d="M50 140H359V81H50ZM58 252 274 353Q267 356 250 364Q233 372 211 382Q189 392 164.5 403Q140 414 118.5 424Q97 434 80 442Q63 450 56 453L82 504L352 376V331L84 200Z" glyph-name="greaterequal" horiz-adv-x="409" unicode="&#8805;" /><glyph d="M165 275 262 417 306 390 247 276 309 161 262 134ZM21 275 119 420 163 392 104 276 166 158 120 132Z" glyph-name="guillemotleft" horiz-adv-x="346" unicode="&#171;" /><glyph d="M166 160 226 276 163 393 210 420 309 277 211 132ZM23 161 82 276 21 391 67 417 165 277 68 135Z" glyph-name="guillemotright" horiz-adv-x="346" unicode="&#187;" /><glyph d="M26 275 123 420 168 392 109 276 171 158 125 132Z" glyph-name="guilsinglleft" horiz-adv-x="206" unicode="&#8249;" /><glyph d="M28 160 88 276 26 393 72 420 171 277 74 132Z" glyph-name="guilsinglright" horiz-adv-x="206" unicode="&#8250;" /><glyph d="M58 713H135V470H136Q153 503 180.5 518.5Q208 534 243 534Q285 534 312 508.5Q339 483 339 438V0H262V406Q262 436 248.5 452.5Q235 469 207 469Q191 469 178 460.5Q165 452 155.5 438Q146 424 140.5 406.5Q135 389 135 371V0H58Z" glyph-name="h" horiz-adv-x="392" unicode="h" /><glyph d="M30 650H63V713H140V650H222V597H140V470H141Q158 503 185.5 518.5Q213 534 248 534Q290 534 317 508.5Q344 483 344 438V0H267V406Q267 436 253.5 452.5Q240 469 212 469Q196 469 183 460.5Q170 452 160.5 438Q151 424 145.5 406.5Q140 389 140 371V0H63V597H30Z" glyph-name="hbar" horiz-adv-x="397" unicode="&#295;" /><glyph d="M58 713H135V470H136Q153 503 180.5 518.5Q208 534 243 534Q285 534 312 508.5Q339 483 339 438V0H262V406Q262 436 248.5 452.5Q235 469 207 469Q191 469 178 460.5Q165 452 155.5 438Q146 424 140.5 406.5Q135 389 135 371V0H58ZM80 909H138L214 765H148L107 852L65 765H2Z" glyph-name="hcircumflex" horiz-adv-x="392" unicode="&#293;" /><glyph d="M221 715H293L228 584H171ZM100 715H172L109 584H52Z" glyph-name="hungarumlaut" horiz-adv-x="343" unicode="&#733;" /><glyph d="M27 332H199V266H27Z" glyph-name="hyphen" horiz-adv-x="226" unicode="-" /><glyph d="M58 723H135V612H58ZM58 524H135V0H58Z" glyph-name="i" horiz-adv-x="193" unicode="i" /><glyph d="M58 524H135V0H58ZM134 724H218L126 581H66Z" glyph-name="iacute" horiz-adv-x="193" unicode="&#237;" /><glyph d="M98 584Q43 584 13 616.5Q-17 649 -19 710H38Q41 680 52.5 657.5Q64 635 100 635Q130 635 143.5 655.5Q157 676 157 710H212Q210 644 177.5 614Q145 584 98 584ZM58 524H135V0H58Z" glyph-name="ibreve" horiz-adv-x="193" unicode="&#301;" /><glyph d="M58 524H135V0H58ZM72 726H130L206 582H140L99 669L57 582H-6Z" glyph-name="icircumflex" horiz-adv-x="193" unicode="&#238;" /><glyph d="M58 524H135V0H58ZM131 714H197V594H131ZM2 714H68V594H2Z" glyph-name="idieresis" horiz-adv-x="193" unicode="&#239;" /><glyph d="M58 723H135V612H58ZM58 524H135V0H58Z" glyph-name="idotaccent" horiz-adv-x="193" /><glyph d="M-24 724H59L127 581H68ZM58 524H135V0H58Z" glyph-name="igrave" horiz-adv-x="193" unicode="&#236;" /><glyph d="M58 723H135V612H58ZM230 723H307V612H230ZM58 524H135V0H58ZM210 -170Q198 -170 189 -169Q180 -168 169 -166V-105H191Q214 -105 222 -92.5Q230 -80 230 -57V524H307V-68Q307 -114 282 -142Q257 -170 210 -170Z" glyph-name="ij" horiz-adv-x="365" unicode="&#307;" /><glyph d="M-1 659H194V597H-1ZM58 524H135V0H58Z" glyph-name="imacron" horiz-adv-x="193" unicode="&#299;" /><glyph d="M460 240Q496 240 519.5 263.5Q543 287 543 322Q543 357 524.5 379.5Q506 402 465 402Q436 402 405 377Q374 352 344 321Q367 289 395 264.5Q423 240 460 240ZM160 241Q194 241 224.5 265.5Q255 290 284 322Q274 337 261.5 352Q249 367 234 379Q219 391 201.5 398.5Q184 406 166 406Q131 406 108 384Q85 362 85 329Q85 294 104.5 267.5Q124 241 160 241ZM459 189Q411 189 375 215.5Q339 242 311 277Q281 243 243 217Q205 191 163 191Q132 191 107 201.5Q82 212 64.5 229.5Q47 247 37.5 270.5Q28 294 28 321Q28 350 38.5 374.5Q49 399 68 417Q87 435 111.5 445Q136 455 165 455Q211 455 248 430.5Q285 406 317 368Q331 382 347.5 396.5Q364 411 383 422.5Q402 434 423 441.5Q444 449 467 449Q527 449 563 416.5Q599 384 599 327Q599 297 588.5 271.5Q578 246 559.5 228Q541 210 515.5 199.5Q490 189 459 189Z" glyph-name="infinity" horiz-adv-x="627" unicode="&#8734;" /><glyph d="M48 -169Q24 -169 -1 -164L4 -101Q9 -102 17.5 -102.5Q26 -103 31 -103Q54 -103 61 -90Q68 -77 70 -54L114 618Q117 664 144.5 694.5Q172 725 221 725Q232 725 246 724Q260 723 273 719L268 657Q261 659 250.5 659.5Q240 660 231 660Q214 660 202 649Q190 638 188 615L145 -63Q142 -110 119 -139.5Q96 -169 48 -169Z" glyph-name="integral" horiz-adv-x="291" unicode="&#8747;" /><glyph d="M58 723H135V612H58ZM58 524H135V0H124Q101 -15 89 -37Q77 -59 77 -85Q77 -130 116 -130Q130 -130 150 -120L170 -166Q156 -174 140 -179.5Q124 -185 104 -185Q70 -185 45.5 -165.5Q21 -146 21 -104Q21 -71 35 -44.5Q49 -18 69 0H58Z" glyph-name="iogonek" horiz-adv-x="193" unicode="&#303;" /><glyph d="M-35 598Q-30 634 -10.5 660.5Q9 687 41 687Q55 687 69 682.5Q83 678 96.5 672.5Q110 667 123.5 662.5Q137 658 151 658Q166 658 173 667.5Q180 677 185 694L228 684Q223 649 203.5 622.5Q184 596 152 596Q138 596 123.5 600.5Q109 605 94.5 610.5Q80 616 67 620.5Q54 625 43 625Q28 625 22 616.5Q16 608 11 589ZM58 524H135V0H58Z" glyph-name="itilde" horiz-adv-x="193" unicode="&#297;" /><glyph d="M60 723H137V612H60ZM40 -170Q28 -170 19 -169Q10 -168 -1 -166V-105H21Q44 -105 52 -92.5Q60 -80 60 -57V524H137V-68Q137 -114 112 -142Q87 -170 40 -170Z" glyph-name="j" horiz-adv-x="194" unicode="j" /><glyph d="M69 726H127L203 582H137L96 669L54 582H-9ZM40 -170Q28 -170 19 -169Q10 -168 -1 -166V-105H21Q44 -105 52 -92.5Q60 -80 60 -57V524H137V-68Q137 -114 112 -142Q87 -170 40 -170Z" glyph-name="jcircumflex" horiz-adv-x="194" unicode="&#309;" /><glyph d="M58 713H135V283L260 524H339L240 344L339 0H258L183 274L135 189V0H58Z" glyph-name="k" horiz-adv-x="361" unicode="k" /><glyph d="M58 713H135V283L260 524H339L240 344L339 0H258L183 274L135 189V0H58ZM161 -38H236L211 -177H157Z" glyph-name="kcommaaccent" horiz-adv-x="361" unicode="&#311;" /><glyph d="M58 524H135V283L260 524H339L240 344L339 0H258L183 274L135 189V0H58Z" glyph-name="kgreenlandic" horiz-adv-x="361" unicode="&#312;" /><glyph d="M140 -6Q95 -6 75.5 16.5Q56 39 56 77V713H133V97Q133 83 140.5 74Q148 65 166 65Q178 65 192 68V3Q166 -6 140 -6Z" glyph-name="l" horiz-adv-x="213" unicode="l" /><glyph d="M140 -6Q95 -6 75.5 16.5Q56 39 56 77V713H133V97Q133 83 140.5 74Q148 65 166 65Q178 65 192 68V3Q166 -6 140 -6ZM133 907H217L125 764H65Z" glyph-name="lacute" horiz-adv-x="213" unicode="&#314;" /><glyph d="M140 -6Q95 -6 75.5 16.5Q56 39 56 77V713H133V97Q133 83 140.5 74Q148 65 166 65Q178 65 192 68V3Q166 -6 140 -6ZM169 713H240L212 554H165Z" glyph-name="lcaron" horiz-adv-x="213" unicode="&#318;" /><glyph d="M140 -6Q95 -6 75.5 16.5Q56 39 56 77V713H133V97Q133 83 140.5 74Q148 65 166 65Q178 65 192 68V3Q166 -6 140 -6ZM72 -38H147L122 -177H68Z" glyph-name="lcommaaccent" horiz-adv-x="213" unicode="&#316;" /><glyph d="M188 444H258V333H188ZM140 -6Q95 -6 75.5 16.5Q56 39 56 77V713H133V97Q133 83 140.5 74Q148 65 166 65Q178 65 192 68V3Q166 -6 140 -6Z" glyph-name="ldot" horiz-adv-x="262" unicode="&#320;" /><glyph d="M55 296 56 343 324 474 350 421 138 320Q144 317 160 309Q176 301 198 290.5Q220 280 244 268Q268 256 290 245Q312 234 328 226Q344 218 350 215L323 163Z" glyph-name="less" horiz-adv-x="407" unicode="&lt;" /><glyph d="M50 140H358V81H50ZM57 331V376L327 504L352 453L135 353L350 252L324 200Z" glyph-name="lessequal" horiz-adv-x="409" unicode="&#8804;" /><glyph d="M324 284H33V341H384V175H324Z" glyph-name="logicalnot" horiz-adv-x="423" unicode="&#172;" /><glyph d="M301 344 196 619 99 348 201 87ZM33 338V354L173 714H224L365 354V339L224 -2H173Z" glyph-name="lozenge" horiz-adv-x="398" unicode="&#9674;" /><glyph d="M22 326 61 372V713H138V463L188 523V448L138 389V97Q138 83 145.5 74Q153 65 171 65Q183 65 197 68V3Q171 -6 145 -6Q100 -6 80.5 16.5Q61 39 61 77V298L22 252Z" glyph-name="lslash" horiz-adv-x="218" unicode="&#322;" /><glyph d="M58 524H132V468H133Q150 501 179 517.5Q208 534 243 534Q277 534 301.5 516.5Q326 499 334 469H335Q354 502 383.5 518Q413 534 448 534Q489 534 516.5 508.5Q544 483 544 438V0H467V406Q467 436 453.5 452.5Q440 469 412 469Q396 469 383 461.5Q370 454 360.5 441.5Q351 429 345.5 413Q340 397 339 380V0H262V407Q261 436 248 452.5Q235 469 207 469Q191 469 178 460.5Q165 452 155.5 438.5Q146 425 140.5 407.5Q135 390 135 372V0H58Z" glyph-name="m" horiz-adv-x="597" unicode="m" /><glyph d="M58 659H253V597H58Z" glyph-name="macron" horiz-adv-x="311" unicode="&#175;" /><glyph d="M51 348H357V290H51Z" glyph-name="minus" horiz-adv-x="409" unicode="&#8722;" /><glyph d="M48 523H127V120Q127 89 143.5 73Q160 57 187 57Q215 57 238 80Q261 103 261 148V523H340V135Q340 112 346.5 97.5Q353 83 372 76V-2Q340 3 317 19.5Q294 36 287 67Q275 33 251 11.5Q227 -10 189 -10Q162 -10 139 3Q116 16 106 43H103L126 -168L48 -178Z" glyph-name="mu" horiz-adv-x="395" unicode="&#181;" /><glyph d="M53 207 165 321Q157 328 141 344Q125 360 108 377.5Q91 395 75 410.5Q59 426 52 433L93 474L205 362Q208 365 225 381.5Q242 398 261 417.5Q280 437 297 454Q314 471 317 474L357 433L245 322L357 208L317 168L205 280Q197 272 181.5 256.5Q166 241 149 223.5Q132 206 116.5 190Q101 174 93 166Z" glyph-name="multiply" horiz-adv-x="409" unicode="&#215;" /><glyph d="M58 524H132V469H133Q150 501 179 517.5Q208 534 243 534Q285 534 312 508.5Q339 483 339 438V0H262V406Q262 436 248.5 452.5Q235 469 207 469Q191 469 178 460.5Q165 452 155.5 438.5Q146 425 140.5 407.5Q135 390 135 372V0H58Z" glyph-name="n" horiz-adv-x="392" unicode="n" /><glyph d="M58 524H132V469H133Q150 501 179 517.5Q208 534 243 534Q285 534 312 508.5Q339 483 339 438V0H262V406Q262 436 248.5 452.5Q235 469 207 469Q191 469 178 460.5Q165 452 155.5 438.5Q146 425 140.5 407.5Q135 390 135 372V0H58ZM244 723H328L236 580H176Z" glyph-name="nacute" horiz-adv-x="392" unicode="&#324;" /><glyph d="M58 524H132V469H133Q150 501 179 517.5Q208 534 243 534Q285 534 312 508.5Q339 483 339 438V0H262V406Q262 436 248.5 452.5Q235 469 207 469Q191 469 178 460.5Q165 452 155.5 438.5Q146 425 140.5 407.5Q135 390 135 372V0H58ZM90 727H155L197 640L238 727H302L224 583H165Z" glyph-name="ncaron" horiz-adv-x="392" unicode="&#328;" /><glyph d="M58 524H132V469H133Q150 501 179 517.5Q208 534 243 534Q285 534 312 508.5Q339 483 339 438V0H262V406Q262 436 248.5 452.5Q235 469 207 469Q191 469 178 460.5Q165 452 155.5 438.5Q146 425 140.5 407.5Q135 390 135 372V0H58ZM162 -38H237L212 -177H158Z" glyph-name="ncommaaccent" horiz-adv-x="392" unicode="&#326;" /><glyph d="M186 338Q200 338 213.5 344.5Q227 351 237.5 361.5Q248 372 254.5 386.5Q261 401 261 416V584Q261 597 257 610.5Q253 624 244 634.5Q235 645 222 652Q209 659 191 659Q172 659 159 651.5Q146 644 137.5 633Q129 622 125.5 608.5Q122 595 122 582V405Q122 373 140 355.5Q158 338 186 338ZM191 -10Q125 -10 87.5 27Q50 64 50 125V181H124V133Q124 101 141 80.5Q158 60 191 60Q226 60 243.5 83.5Q261 107 261 140V330Q243 304 216.5 291.5Q190 279 162 279Q108 279 76.5 309.5Q45 340 45 396V580Q45 648 86.5 686Q128 724 195 724Q264 724 302.5 682.5Q341 641 341 575V152Q341 114 330 84Q319 54 299 33Q279 12 251.5 1Q224 -10 191 -10Z" glyph-name="nine" horiz-adv-x="387" unicode="9" /><glyph d="M197 338Q211 338 224.5 344.5Q238 351 248.5 361.5Q259 372 265.5 386.5Q272 401 272 416V584Q272 597 268 610.5Q264 624 255 634.5Q246 645 233 652Q220 659 202 659Q183 659 170 651.5Q157 644 148.5 633Q140 622 136.5 608.5Q133 595 133 582V405Q133 373 151 355.5Q169 338 197 338ZM202 -10Q136 -10 98.5 27Q61 64 61 125V181H135V133Q135 101 152 80.5Q169 60 202 60Q237 60 254.5 83.5Q272 107 272 140V330Q254 304 227.5 291.5Q201 279 173 279Q119 279 87.5 309.5Q56 340 56 396V580Q56 648 97.5 686Q139 724 206 724Q275 724 313.5 682.5Q352 641 352 575V152Q352 114 341 84Q330 54 310 33Q290 12 262.5 1Q235 -10 202 -10Z" glyph-name="nine.LT" horiz-adv-x="409" unicode="&#58697;" /><glyph d="M124 191Q139 191 151.5 203Q164 215 165 232V315Q165 329 155.5 341.5Q146 354 126 354Q106 354 97.5 341Q89 328 89 314V226Q89 209 99.5 200Q110 191 124 191ZM125 -10Q83 -10 58.5 13Q34 36 34 74V105H90V78Q90 60 100.5 50Q111 40 128 40Q146 40 155.5 51.5Q165 63 165 81V177Q153 163 136.5 156Q120 149 103 149Q69 149 49.5 169Q30 189 30 222V313Q30 355 58 378Q86 401 128 401Q172 401 198.5 377Q225 353 225 311V87Q225 39 196 14.5Q167 -10 125 -10Z" glyph-name="nine.dnom" horiz-adv-x="255" unicode="&#58379;" /><glyph d="M124 509Q139 509 151.5 521Q164 533 165 550V633Q165 647 155.5 659.5Q146 672 126 672Q106 672 97.5 659Q89 646 89 632V544Q89 527 99.5 518Q110 509 124 509ZM125 308Q83 308 58.5 331Q34 354 34 392V423H90V396Q90 378 100.5 368Q111 358 128 358Q146 358 155.5 369.5Q165 381 165 399V495Q153 481 136.5 474Q120 467 103 467Q69 467 49.5 487Q30 507 30 540V631Q30 673 58 696Q86 719 128 719Q172 719 198.5 695Q225 671 225 629V405Q225 357 196 332.5Q167 308 125 308Z" glyph-name="nine.numr" horiz-adv-x="255" unicode="&#58399;" /><glyph glyph-name="nonmarkingreturn" horiz-adv-x="124" /><glyph d="M127 137 152 215H50V274H172L200 354H50V412H220L246 492L295 479L273 412H359V354H253L225 274H359V215H205Q204 212 199.5 198.5Q195 185 189.5 170Q184 155 180 141.5Q176 128 175 125Z" glyph-name="notequal" horiz-adv-x="409" unicode="&#8800;" /><glyph d="M77 598Q82 634 101.5 660.5Q121 687 153 687Q167 687 181 682.5Q195 678 208.5 672.5Q222 667 235.5 662.5Q249 658 263 658Q278 658 285 667.5Q292 677 297 694L340 684Q335 649 315.5 622.5Q296 596 264 596Q250 596 235.5 600.5Q221 605 206.5 610.5Q192 616 179 620.5Q166 625 155 625Q140 625 134 616.5Q128 608 123 589ZM58 524H132V469H133Q150 501 179 517.5Q208 534 243 534Q285 534 312 508.5Q339 483 339 438V0H262V406Q262 436 248.5 452.5Q235 469 207 469Q191 469 178 460.5Q165 452 155.5 438.5Q146 425 140.5 407.5Q135 390 135 372V0H58Z" glyph-name="ntilde" horiz-adv-x="392" unicode="&#241;" /><glyph d="M242 248 267 479H173L149 248ZM92 194H25L29 248H97L123 479H52L57 531H126L147 716H197L177 531H271L290 716H340L322 531H389L385 479H317L293 248H361L358 194H288L269 -2H217L237 194H144L124 -2H74Z" glyph-name="numbersign" horiz-adv-x="410" unicode="#" /><glyph d="M239 248 264 479H169L145 248ZM89 194H24L29 248H94L119 479H52L57 531H123L143 716H194L174 531H268L287 716H337L319 531H383L378 479H314L290 248H355L351 194H284L265 -2H214L233 194H140L121 -2H70Z" glyph-name="numbersign.LP" horiz-adv-x="404" unicode="&#58675;" /><glyph d="M190 55Q209 55 222 61.5Q235 68 242 79Q249 90 252 103.5Q255 117 255 132V395Q255 425 239 447.5Q223 470 188 470Q153 470 138 447Q123 424 123 394V132Q123 102 138.5 78.5Q154 55 190 55ZM188 -10Q122 -10 83.5 27Q45 64 45 136V390Q45 425 56.5 452Q68 479 87.5 497Q107 515 133.5 524.5Q160 534 190 534Q220 534 246.5 525Q273 516 292 498.5Q311 481 322 455Q333 429 333 394V137Q333 100 322 72.5Q311 45 291.5 26.5Q272 8 245.5 -1Q219 -10 188 -10Z" glyph-name="o" horiz-adv-x="378" unicode="o" /><glyph d="M190 55Q209 55 222 61.5Q235 68 242 79Q249 90 252 103.5Q255 117 255 132V395Q255 425 239 447.5Q223 470 188 470Q153 470 138 447Q123 424 123 394V132Q123 102 138.5 78.5Q154 55 190 55ZM188 -10Q122 -10 83.5 27Q45 64 45 136V390Q45 425 56.5 452Q68 479 87.5 497Q107 515 133.5 524.5Q160 534 190 534Q220 534 246.5 525Q273 516 292 498.5Q311 481 322 455Q333 429 333 394V137Q333 100 322 72.5Q311 45 291.5 26.5Q272 8 245.5 -1Q219 -10 188 -10ZM224 724H308L216 581H156Z" glyph-name="oacute" horiz-adv-x="378" unicode="&#243;" /><glyph d="M190 584Q135 584 105 616.5Q75 649 73 710H130Q133 680 144.5 657.5Q156 635 192 635Q222 635 235.5 655.5Q249 676 249 710H304Q302 644 269.5 614Q237 584 190 584ZM190 55Q209 55 222 61.5Q235 68 242 79Q249 90 252 103.5Q255 117 255 132V395Q255 425 239 447.5Q223 470 188 470Q153 470 138 447Q123 424 123 394V132Q123 102 138.5 78.5Q154 55 190 55ZM188 -10Q122 -10 83.5 27Q45 64 45 136V390Q45 425 56.5 452Q68 479 87.5 497Q107 515 133.5 524.5Q160 534 190 534Q220 534 246.5 525Q273 516 292 498.5Q311 481 322 455Q333 429 333 394V137Q333 100 322 72.5Q311 45 291.5 26.5Q272 8 245.5 -1Q219 -10 188 -10Z" glyph-name="obreve" horiz-adv-x="378" unicode="&#335;" /><glyph d="M190 55Q209 55 222 61.5Q235 68 242 79Q249 90 252 103.5Q255 117 255 132V395Q255 425 239 447.5Q223 470 188 470Q153 470 138 447Q123 424 123 394V132Q123 102 138.5 78.5Q154 55 190 55ZM188 -10Q122 -10 83.5 27Q45 64 45 136V390Q45 425 56.5 452Q68 479 87.5 497Q107 515 133.5 524.5Q160 534 190 534Q220 534 246.5 525Q273 516 292 498.5Q311 481 322 455Q333 429 333 394V137Q333 100 322 72.5Q311 45 291.5 26.5Q272 8 245.5 -1Q219 -10 188 -10ZM165 726H223L299 582H233L192 669L150 582H87Z" glyph-name="ocircumflex" horiz-adv-x="378" unicode="&#244;" /><glyph d="M190 55Q209 55 222 61.5Q235 68 242 79Q249 90 252 103.5Q255 117 255 132V395Q255 425 239 447.5Q223 470 188 470Q153 470 138 447Q123 424 123 394V132Q123 102 138.5 78.5Q154 55 190 55ZM188 -10Q122 -10 83.5 27Q45 64 45 136V390Q45 425 56.5 452Q68 479 87.5 497Q107 515 133.5 524.5Q160 534 190 534Q220 534 246.5 525Q273 516 292 498.5Q311 481 322 455Q333 429 333 394V137Q333 100 322 72.5Q311 45 291.5 26.5Q272 8 245.5 -1Q219 -10 188 -10ZM223 714H289V594H223ZM94 714H160V594H94Z" glyph-name="odieresis" horiz-adv-x="378" unicode="&#246;" /><glyph d="M460 298V397Q460 424 446 447Q432 470 396 470Q362 470 347.5 447Q333 424 333 397V298ZM190 55Q209 55 222 61.5Q235 68 242 79Q249 90 252 103.5Q255 117 255 132V395Q255 425 239 447.5Q223 470 188 470Q153 470 138 447Q123 424 123 394V132Q123 102 138.5 78.5Q154 55 190 55ZM188 -10Q122 -10 83.5 27Q45 64 45 136V390Q45 425 56.5 452Q68 479 87.5 497Q107 515 133.5 524.5Q160 534 190 534Q222 534 249.5 523.5Q277 513 296 492Q335 534 400 534Q465 534 497.5 495Q530 456 530 393V239H333V150Q333 103 352 79.5Q371 56 418 56Q444 56 467.5 63Q491 70 508 77L526 21Q472 -10 405 -10Q369 -10 341 0Q313 10 294 32Q255 -10 188 -10Z" glyph-name="oe" horiz-adv-x="571" unicode="&#339;" /><glyph d="M136 -186Q101 -186 74.5 -166.5Q48 -147 48 -105Q48 -81 56 -61Q64 -41 76.5 -24.5Q89 -8 104.5 4.5Q120 17 135 25L163 2Q104 -28 104 -85Q104 -108 116.5 -119.5Q129 -131 148 -131Q160 -131 171 -127.5Q182 -124 191 -119L213 -163Q200 -171 182.5 -178.5Q165 -186 136 -186Z" glyph-name="ogonek" horiz-adv-x="252" unicode="&#731;" /><glyph d="M136 -186Q101 -186 74.5 -165.5Q48 -145 48 -104Q48 -80 55.5 -60Q63 -40 75.5 -23.5Q88 -7 103.5 5.5Q119 18 135 26L154 13Q129 -4 116.5 -29.5Q104 -55 104 -85Q104 -108 116.5 -119.5Q129 -131 148 -131Q160 -131 171 -127.5Q182 -124 191 -119L213 -164Q200 -172 182.5 -179Q165 -186 136 -186Z" glyph-name="ogonekplus" horiz-adv-x="252" /><glyph d="M70 724H153L221 581H162ZM190 55Q209 55 222 61.5Q235 68 242 79Q249 90 252 103.5Q255 117 255 132V395Q255 425 239 447.5Q223 470 188 470Q153 470 138 447Q123 424 123 394V132Q123 102 138.5 78.5Q154 55 190 55ZM188 -10Q122 -10 83.5 27Q45 64 45 136V390Q45 425 56.5 452Q68 479 87.5 497Q107 515 133.5 524.5Q160 534 190 534Q220 534 246.5 525Q273 516 292 498.5Q311 481 322 455Q333 429 333 394V137Q333 100 322 72.5Q311 45 291.5 26.5Q272 8 245.5 -1Q219 -10 188 -10Z" glyph-name="ograve" horiz-adv-x="378" unicode="&#242;" /><glyph d="M190 55Q209 55 222 61.5Q235 68 242 79Q249 90 252 103.5Q255 117 255 132V395Q255 425 239 447.5Q223 470 188 470Q153 470 138 447Q123 424 123 394V132Q123 102 138.5 78.5Q154 55 190 55ZM188 -10Q122 -10 83.5 27Q45 64 45 136V390Q45 425 56.5 452Q68 479 87.5 497Q107 515 133.5 524.5Q160 534 190 534Q220 534 246.5 525Q273 516 292 498.5Q311 481 322 455Q333 429 333 394V137Q333 100 322 72.5Q311 45 291.5 26.5Q272 8 245.5 -1Q219 -10 188 -10ZM268 715H340L275 584H218ZM147 715H219L156 584H99Z" glyph-name="ohungarumlaut" horiz-adv-x="378" unicode="&#337;" /><glyph d="M190 55Q209 55 222 61.5Q235 68 242 79Q249 90 252 103.5Q255 117 255 132V395Q255 425 239 447.5Q223 470 188 470Q153 470 138 447Q123 424 123 394V132Q123 102 138.5 78.5Q154 55 190 55ZM188 -10Q122 -10 83.5 27Q45 64 45 136V390Q45 425 56.5 452Q68 479 87.5 497Q107 515 133.5 524.5Q160 534 190 534Q220 534 246.5 525Q273 516 292 498.5Q311 481 322 455Q333 429 333 394V137Q333 100 322 72.5Q311 45 291.5 26.5Q272 8 245.5 -1Q219 -10 188 -10ZM91 659H286V597H91Z" glyph-name="omacron" horiz-adv-x="378" unicode="&#333;" /><glyph d="M98 630 42 613 32 672 130 714H177V0H98Z" glyph-name="one" horiz-adv-x="257" unicode="1" /><glyph d="M164 630 108 613 98 672 196 714H243V0H164Z" glyph-name="one.LT" horiz-adv-x="409" unicode="&#58689;" /><glyph d="M77 339 41 329 33 373 101 400H136V0H77Z" glyph-name="one.dnom" horiz-adv-x="201" unicode="&#58371;" /><glyph d="M77 657 41 647 33 691 101 718H136V318H77Z" glyph-name="one.numr" horiz-adv-x="201" unicode="&#58391;" /><glyph d="M388 716H434L149 -2H102ZM346 39 416 146Q439 187 453.5 221.5Q468 256 468 291V298Q468 320 460.5 335Q453 350 433 350Q414 350 406 336Q398 322 398 304V281H342V306Q342 350 366 375.5Q390 401 435 401Q481 401 505 374Q529 347 529 297Q529 242 507.5 199Q486 156 458 113L421 51H531V0H346ZM99 655 63 645 55 689 123 716H158V316H99Z" glyph-name="onehalf" horiz-adv-x="577" unicode="&#189;" /><glyph d="M396 716H442L157 -2H110ZM443 98H322V143L428 400H490L379 147H443V218L500 262V147H534V98H500V0H443ZM100 655 64 645 56 689 124 716H159V316H100Z" glyph-name="onequarter" horiz-adv-x="577" unicode="&#188;" /><glyph d="M77 719 41 709 33 753 101 780H136V380H77Z" glyph-name="onesuperior" horiz-adv-x="201" unicode="&#185;" /><glyph d="M44 360H212V310H44ZM119 438Q135 438 145.5 450Q156 462 156 478V549H132Q114 549 100.5 536Q87 523 87 492Q87 463 96 450.5Q105 438 119 438ZM99 394Q72 394 52 416Q32 438 32 486Q32 534 60.5 559Q89 584 132 584H156V639Q156 653 148 661Q140 669 123 669Q107 669 98.5 660.5Q90 652 90 640V611H39V639Q39 674 63 693Q87 712 127 712Q168 712 190 693Q212 674 212 639V471Q212 454 212.5 431Q213 408 214 400H162Q162 399 159 431Q148 410 131 402Q114 394 99 394Z" glyph-name="ordfeminine" horiz-adv-x="261" unicode="&#170;" /><glyph d="M45 359H213V310H45ZM128 439Q149 439 156.5 450.5Q164 462 164 478V627Q164 644 156 655Q148 666 128 666Q108 666 100 655Q92 644 92 627V478Q92 461 100 450Q108 439 128 439ZM127 395Q85 395 60 416Q35 437 35 482V625Q35 668 62 690Q89 712 129 712Q167 712 194 691Q221 670 221 627V481Q221 436 194.5 415.5Q168 395 127 395Z" glyph-name="ordmasculine" horiz-adv-x="257" unicode="&#186;" /><glyph d="M190 55Q209 55 222 61.5Q235 68 242 79Q249 90 252 103.5Q255 117 255 132V379L145 70Q163 55 190 55ZM237 449Q219 470 188 470Q153 470 138 447Q123 424 123 394V127ZM66 -32 86 25Q45 63 45 136V390Q45 425 56.5 452Q68 479 87.5 497Q107 515 133.5 524.5Q160 534 190 534Q230 534 262 519L279 566L317 554L296 495Q313 477 323 452Q333 427 333 394V137Q333 100 322 72.5Q311 45 291.5 26.5Q272 8 245.5 -1Q219 -10 188 -10Q169 -10 152 -6.5Q135 -3 121 2L105 -45Z" glyph-name="oslash" horiz-adv-x="378" unicode="&#248;" /><glyph d="M190 55Q209 55 222 61.5Q235 68 242 79Q249 90 252 103.5Q255 117 255 132V379L145 70Q163 55 190 55ZM237 449Q219 470 188 470Q153 470 138 447Q123 424 123 394V127ZM66 -32 86 25Q45 63 45 136V390Q45 425 56.5 452Q68 479 87.5 497Q107 515 133.5 524.5Q160 534 190 534Q230 534 262 519L279 566L317 554L296 495Q313 477 323 452Q333 427 333 394V137Q333 100 322 72.5Q311 45 291.5 26.5Q272 8 245.5 -1Q219 -10 188 -10Q169 -10 152 -6.5Q135 -3 121 2L105 -45Z" glyph-name="oslashacute" horiz-adv-x="378" unicode="&#511;" /><glyph d="M60 598Q65 634 84.5 660.5Q104 687 136 687Q150 687 164 682.5Q178 678 191.5 672.5Q205 667 218.5 662.5Q232 658 246 658Q261 658 268 667.5Q275 677 280 694L323 684Q318 649 298.5 622.5Q279 596 247 596Q233 596 218.5 600.5Q204 605 189.5 610.5Q175 616 162 620.5Q149 625 138 625Q123 625 117 616.5Q111 608 106 589ZM190 55Q209 55 222 61.5Q235 68 242 79Q249 90 252 103.5Q255 117 255 132V395Q255 425 239 447.5Q223 470 188 470Q153 470 138 447Q123 424 123 394V132Q123 102 138.5 78.5Q154 55 190 55ZM188 -10Q122 -10 83.5 27Q45 64 45 136V390Q45 425 56.5 452Q68 479 87.5 497Q107 515 133.5 524.5Q160 534 190 534Q220 534 246.5 525Q273 516 292 498.5Q311 481 322 455Q333 429 333 394V137Q333 100 322 72.5Q311 45 291.5 26.5Q272 8 245.5 -1Q219 -10 188 -10Z" glyph-name="otilde" horiz-adv-x="378" unicode="&#245;" /><glyph d="M208 56Q234 56 249 71.5Q264 87 264 122V405Q264 432 251 450Q238 468 206 468Q175 468 155 442Q135 416 135 374V142Q135 104 155.5 80Q176 56 208 56ZM58 524H132V470H134Q150 503 179.5 518.5Q209 534 235 534Q263 534 283 525Q303 516 316 500Q329 484 335 463.5Q341 443 341 421V111Q341 57 310.5 23.5Q280 -10 226 -10Q200 -10 175 3.5Q150 17 136 43H135V-162H58Z" glyph-name="p" horiz-adv-x="386" unicode="p" /><glyph d="M172 245Q136 252 111 272.5Q86 293 70.5 322.5Q55 352 47.5 389.5Q40 427 40 469Q40 521 50 565.5Q60 610 81 643Q102 676 134 694.5Q166 713 210 713H397V664H347V-65H295V664H223V-65H172Z" glyph-name="paragraph" horiz-adv-x="428" unicode="&#182;" /><glyph d="M142 -172Q118 -127 100 -71Q82 -15 69.5 45Q57 105 51 165Q45 225 45 278Q45 334 51 393Q57 452 69 510Q81 568 99.5 622Q118 676 142 722L189 718Q171 660 157.5 610.5Q144 561 134.5 511Q125 461 120 405Q115 349 115 277Q115 157 135 48Q155 -61 189 -167Z" glyph-name="parenleft" horiz-adv-x="199" unicode="(" /><glyph d="M104 -72Q89 -47 77 -16Q65 15 56.5 48.5Q48 82 44 116Q40 150 40 182Q40 246 56.5 312.5Q73 379 104 430L137 428Q126 395 117.5 367Q109 339 103 311Q97 283 94 251.5Q91 220 91 181Q91 115 103 53Q115 -9 137 -69Z" glyph-name="parenleft.dnom" horiz-adv-x="149" unicode="&#58383;" /><glyph d="M104 246Q89 271 77 302Q65 333 56.5 366.5Q48 400 44 434Q40 468 40 500Q40 564 56.5 630.5Q73 697 104 748L137 746Q126 713 117.5 685Q109 657 103 629Q97 601 94 569.5Q91 538 91 499Q91 433 103 371Q115 309 137 249Z" glyph-name="parenleft.numr" horiz-adv-x="149" unicode="&#58403;" /><glyph d="M9 -167Q44 -61 63.5 48Q83 157 83 277Q83 349 78 405Q73 461 63.5 511Q54 561 40.5 610.5Q27 660 10 718L56 722Q80 676 98.5 622Q117 568 129.5 510Q142 452 148 393Q154 334 154 278Q154 225 148 165Q142 105 129.5 45Q117 -15 98.5 -71Q80 -127 56 -172Z" glyph-name="parenright" horiz-adv-x="199" unicode=")" /><glyph d="M18 -69Q40 -9 52 53Q64 115 64 181Q64 220 61 251.5Q58 283 52 311Q46 339 37.5 367Q29 395 18 428L52 430Q83 379 99 312.5Q115 246 115 182Q115 150 111 116Q107 82 98.5 48.5Q90 15 78.5 -16Q67 -47 52 -72Z" glyph-name="parenright.dnom" horiz-adv-x="149" unicode="&#58384;" /><glyph d="M18 249Q40 309 52 371Q64 433 64 499Q64 538 61 569.5Q58 601 52 629Q46 657 37.5 685Q29 713 18 746L52 748Q83 697 99 630.5Q115 564 115 500Q115 468 111 434Q107 400 98.5 366.5Q90 333 78.5 302Q67 271 52 246Z" glyph-name="parenright.numr" horiz-adv-x="149" unicode="&#58404;" /><glyph d="M189 55Q209 55 221.5 61Q234 67 241.5 77.5Q249 88 251.5 101.5Q254 115 254 130V391Q254 421 240 442.5Q226 464 191 464Q156 464 139.5 442Q123 420 123 390V127Q123 98 138 76.5Q153 55 189 55ZM187 -10Q122 -10 83.5 25.5Q45 61 45 133V386Q45 449 79.5 484.5Q114 520 167 525Q170 526 179 525.5Q188 525 196 522L87 706L168 720L309 476Q320 459 326 435.5Q332 412 332 387V136Q332 61 291.5 25.5Q251 -10 187 -10Z" glyph-name="partialdiff" horiz-adv-x="370" unicode="&#8706;" /><glyph d="M422 39Q448 39 458 55Q468 71 468 88V251Q468 267 457.5 283Q447 299 422 299Q398 299 388 283.5Q378 268 378 251V88Q378 68 388 53.5Q398 39 422 39ZM423 -11Q378 -11 350 15Q322 41 322 90V239Q322 289 350 318.5Q378 348 423 348Q467 348 496 321.5Q525 295 525 244V90Q525 43 495 16Q465 -11 423 -11ZM397 716H446L171 -2H120ZM138 414Q163 414 173.5 430Q184 446 184 463V625Q184 642 173 658Q162 674 138 674Q112 674 102.5 658.5Q93 643 93 625V463Q93 443 103 428.5Q113 414 138 414ZM138 365Q93 365 65 391.5Q37 418 37 467V620Q37 670 65.5 696.5Q94 723 138 723Q183 723 211.5 697Q240 671 240 620V465Q240 417 210.5 391Q181 365 138 365Z" glyph-name="percent" horiz-adv-x="562" unicode="%" /><glyph d="M46 118H123V0H46Z" glyph-name="period" horiz-adv-x="168" unicode="." /><glyph d="M38 83H97V0H38Z" glyph-name="period.dnom" horiz-adv-x="136" unicode="&#58382;" /><glyph d="M38 401H97V318H38Z" glyph-name="period.numr" horiz-adv-x="136" unicode="&#58402;" /><glyph d="M38 -50H97V-133H38Z" glyph-name="period.sub" horiz-adv-x="136" /><glyph d="M38 463H97V380H38Z" glyph-name="period.sup" horiz-adv-x="136" /><glyph d="M46 401H123V284H46Z" glyph-name="periodcentered" horiz-adv-x="168" unicode="&#8901;" /><glyph d="M422 39Q448 39 458 55Q468 71 468 88V251Q468 267 457.5 283Q447 299 422 299Q398 299 388 283.5Q378 268 378 251V88Q378 68 388 53.5Q398 39 422 39ZM423 -11Q378 -11 350 15Q322 41 322 90V239Q322 289 350 318.5Q378 348 423 348Q467 348 496 321.5Q525 295 525 244V90Q525 43 495 16Q465 -11 423 -11ZM397 716H446L171 -2H120ZM138 414Q163 414 173.5 430Q184 446 184 463V625Q184 642 173 658Q162 674 138 674Q112 674 102.5 658.5Q93 643 93 625V463Q93 443 103 428.5Q113 414 138 414ZM138 365Q93 365 65 391.5Q37 418 37 467V620Q37 670 65.5 696.5Q94 723 138 723Q183 723 211.5 697Q240 671 240 620V465Q240 417 210.5 391Q181 365 138 365ZM668 39Q694 39 704 55Q714 71 714 88V251Q714 267 703 283Q692 299 668 299Q644 299 633.5 283.5Q623 268 623 251V88Q623 68 633 53.5Q643 39 668 39ZM669 -11Q625 -11 596.5 15Q568 41 568 90V239Q568 289 596 318.5Q624 348 669 348Q713 348 742 321.5Q771 295 771 244V90Q771 43 741 16Q711 -11 669 -11Z" glyph-name="perthousand" horiz-adv-x="808" unicode="&#8240;" /><glyph d="M351 -4Q331 -4 312 0.5Q293 5 278 17Q263 29 254 49Q245 69 245 101V453H146Q143 343 139 227.5Q135 112 127 0H50Q60 112 65 226.5Q70 341 73 453H20L27 523H373V453L319 454V120Q319 100 325 84Q331 68 351 68Z" glyph-name="pi" horiz-adv-x="399" unicode="&#960;" /><glyph d="M177 290H48V348H177V485H233L232 348H360V290H233V153H177Z" glyph-name="plus" horiz-adv-x="409" unicode="+" /><glyph d="M50 140H359V82H50ZM177 326H48V384H177V514H233V384H360V326H233V199H177Z" glyph-name="plusminus" horiz-adv-x="409" unicode="&#177;" /><glyph d="M88 638H27V713H450V638H392V-133H313V638H168V-133H88Z" glyph-name="product" horiz-adv-x="477" unicode="&#8719;" /><glyph d="M182 55Q210 55 230.5 82.5Q251 110 251 148V379Q251 398 245 415.5Q239 433 229 445.5Q219 458 206 465.5Q193 473 179 473Q151 473 136.5 454Q122 435 122 403V124Q122 95 137 75Q152 55 182 55ZM251 47H250Q230 16 204 3Q178 -10 153 -10Q99 -10 72 23Q45 56 45 104V416Q45 468 77.5 501Q110 534 162 534Q188 534 215.5 520.5Q243 507 257 475H259L260 524H328V-162H251Z" glyph-name="q" horiz-adv-x="386" unicode="q" /><glyph d="M126 118H202V0H126ZM127 228Q129 285 143.5 322.5Q158 360 178 392Q199 425 215.5 460Q232 495 232 547Q232 567 229 586.5Q226 606 218.5 621.5Q211 637 199 646.5Q187 656 168 656Q139 656 122.5 632.5Q106 609 106 568V519H38V563Q38 639 73.5 681.5Q109 724 174 724Q242 724 275.5 676Q309 628 310 549Q310 487 289 444Q268 401 246 367Q229 339 213.5 309Q198 279 197 241V194H127Z" glyph-name="question" horiz-adv-x="345" unicode="?" /><glyph d="M223 442H147V560H223ZM222 332Q220 275 205.5 237.5Q191 200 171 168Q150 135 133.5 100Q117 65 117 13Q117 -7 120 -26.5Q123 -46 130.5 -61.5Q138 -77 150 -86.5Q162 -96 181 -96Q210 -96 226.5 -72.5Q243 -49 243 -8V41H311V-3Q311 -79 275.5 -121.5Q240 -164 175 -164Q107 -164 73.5 -116Q40 -68 39 11Q39 73 60 116Q81 159 103 193Q120 221 135.5 251Q151 281 152 319V366H222Z" glyph-name="questiondown" horiz-adv-x="346" unicode="&#191;" /><glyph d="M177 612V714H249V612L238 496H188ZM45 612V714H117V612L105 496H57Z" glyph-name="quotedbl" horiz-adv-x="293" unicode="&quot;" /><glyph d="M206 5H180V119H256V9L226 -101H186ZM71 5H45V119H121V9L92 -101H52Z" glyph-name="quotedblbase" horiz-adv-x="301" unicode="&#8222;" /><glyph d="M179 605 210 715H249L230 610H255V497H179ZM45 605 74 715H115L94 610H120V497H45Z" glyph-name="quotedblleft" horiz-adv-x="301" unicode="&#8220;" /><glyph d="M206 600H180V714H256V605L226 496H186ZM71 600H45V714H121V605L92 496H52Z" glyph-name="quotedblright" horiz-adv-x="301" unicode="&#8221;" /><glyph d="M45 605 74 715H115L94 610H120V497H45Z" glyph-name="quoteleft" horiz-adv-x="166" unicode="&#8216;" /><glyph d="M71 600H46V714H121V605L92 496H52Z" glyph-name="quoteright" horiz-adv-x="167" unicode="&#8217;" /><glyph d="M67 5 45 32 56 119 121 92 116 -19 86 -101 55 -72Z" glyph-name="quotesinglbase" horiz-adv-x="166" unicode="&#8218;" /><glyph d="M45 612V714H117V612L105 496H57Z" glyph-name="quotesingle" horiz-adv-x="162" unicode="&apos;" /><glyph d="M58 524H134V465H135Q150 499 174 513.5Q198 528 226 528Q232 528 240 528Q248 528 253 526V451Q243 452 233 453Q223 454 217 454Q182 454 159 434.5Q136 415 135 373V0H58Z" glyph-name="r" horiz-adv-x="272" unicode="r" /><glyph d="M58 524H134V465H135Q150 499 174 513.5Q198 528 226 528Q232 528 240 528Q248 528 253 526V451Q243 452 233 453Q223 454 217 454Q182 454 159 434.5Q136 415 135 373V0H58ZM171 724H255L163 581H103Z" glyph-name="racute" horiz-adv-x="272" unicode="&#341;" /><glyph d="M18 523H101L173 137H174L323 714H400L208 -2H131Z" glyph-name="radical" horiz-adv-x="411" unicode="&#8730;" /><glyph d="M58 524H134V465H135Q150 499 174 513.5Q198 528 226 528Q232 528 240 528Q248 528 253 526V451Q243 452 233 453Q223 454 217 454Q182 454 159 434.5Q136 415 135 373V0H58ZM41 727H106L148 640L189 727H253L175 583H116Z" glyph-name="rcaron" horiz-adv-x="272" unicode="&#345;" /><glyph d="M58 524H134V465H135Q150 499 174 513.5Q198 528 226 528Q232 528 240 528Q248 528 253 526V451Q243 452 233 453Q223 454 217 454Q182 454 159 434.5Q136 415 135 373V0H58ZM63 -38H138L113 -177H59Z" glyph-name="rcommaaccent" horiz-adv-x="272" unicode="&#343;" /><glyph d="M203 538Q236 538 236 582Q236 600 228 614.5Q220 629 202 629H179V538ZM138 664H207Q242 664 260 643Q278 622 278 586Q278 560 267.5 540.5Q257 521 239 513L284 396H240L200 505H179V396H138ZM203 346Q231 346 255.5 358.5Q280 371 298 394Q316 417 326.5 451Q337 485 337 527Q337 569 326 603Q315 637 297 660.5Q279 684 254.5 696.5Q230 709 203 709Q176 709 152 696.5Q128 684 110 660.5Q92 637 81.5 603.5Q71 570 71 527Q71 484 81.5 450.5Q92 417 110 393.5Q128 370 152 358Q176 346 203 346ZM203 313Q162 313 130.5 330Q99 347 77 376Q55 405 44 444Q33 483 33 527Q33 572 45 611.5Q57 651 79.5 679.5Q102 708 133.5 724.5Q165 741 205 741Q244 741 275.5 725Q307 709 329.5 680.5Q352 652 364 612.5Q376 573 376 527Q376 483 364.5 444.5Q353 406 330.5 376.5Q308 347 276 330Q244 313 203 313Z" glyph-name="registered" horiz-adv-x="402" unicode="&#174;" /><glyph d="M121 610Q141 610 152.5 623Q164 636 164 657Q164 677 153 691Q142 705 120 705Q100 705 90 691.5Q80 678 80 656Q80 634 91.5 622Q103 610 121 610ZM121 575Q82 575 60.5 599Q39 623 39 655Q39 690 62 715Q85 740 121 740Q159 740 181 717.5Q203 695 203 660Q203 623 179.5 599Q156 575 121 575Z" glyph-name="ring" horiz-adv-x="238" unicode="&#730;" /><glyph d="M121 609Q140 609 151.5 621.5Q163 634 163 656Q163 676 152.5 689Q142 702 121 702Q101 702 91 688.5Q81 675 81 654Q81 632 92 620.5Q103 609 121 609ZM121 575Q79 575 59.5 599.5Q40 624 40 653Q40 682 58 708L125 803L190 791L133 732Q168 728 185 707Q202 686 202 657Q202 622 179 598.5Q156 575 121 575Z" glyph-name="ringacute" horiz-adv-x="238" /><glyph d="M167 -9Q109 -9 73 25.5Q37 60 32 127L106 128Q110 93 123.5 73Q137 53 168 53Q193 53 207.5 68Q222 83 222 113Q222 142 202.5 169Q183 196 160 222L114 273Q83 307 64 339Q45 371 45 412Q45 435 52.5 457Q60 479 75.5 496Q91 513 115.5 523.5Q140 534 173 534Q225 534 259 502Q293 470 296 401L227 398Q223 439 210 456.5Q197 474 170 474Q144 474 130.5 458.5Q117 443 117 420Q117 400 128.5 379.5Q140 359 164 333L221 270Q259 228 277.5 192Q296 156 296 118Q296 94 288.5 71Q281 48 265 30.5Q249 13 224.5 2Q200 -9 167 -9Z" glyph-name="s" horiz-adv-x="326" unicode="s" /><glyph d="M167 -9Q109 -9 73 25.5Q37 60 32 127L106 128Q110 93 123.5 73Q137 53 168 53Q193 53 207.5 68Q222 83 222 113Q222 142 202.5 169Q183 196 160 222L114 273Q83 307 64 339Q45 371 45 412Q45 435 52.5 457Q60 479 75.5 496Q91 513 115.5 523.5Q140 534 173 534Q225 534 259 502Q293 470 296 401L227 398Q223 439 210 456.5Q197 474 170 474Q144 474 130.5 458.5Q117 443 117 420Q117 400 128.5 379.5Q140 359 164 333L221 270Q259 228 277.5 192Q296 156 296 118Q296 94 288.5 71Q281 48 265 30.5Q249 13 224.5 2Q200 -9 167 -9ZM204 724H288L196 581H136Z" glyph-name="sacute" horiz-adv-x="326" unicode="&#347;" /><glyph d="M167 -9Q109 -9 73 25.5Q37 60 32 127L106 128Q110 93 123.5 73Q137 53 168 53Q193 53 207.5 68Q222 83 222 113Q222 142 202.5 169Q183 196 160 222L114 273Q83 307 64 339Q45 371 45 412Q45 435 52.5 457Q60 479 75.5 496Q91 513 115.5 523.5Q140 534 173 534Q225 534 259 502Q293 470 296 401L227 398Q223 439 210 456.5Q197 474 170 474Q144 474 130.5 458.5Q117 443 117 420Q117 400 128.5 379.5Q140 359 164 333L221 270Q259 228 277.5 192Q296 156 296 118Q296 94 288.5 71Q281 48 265 30.5Q249 13 224.5 2Q200 -9 167 -9ZM61 727H126L168 640L209 727H273L195 583H136Z" glyph-name="scaron" horiz-adv-x="326" unicode="&#353;" /><glyph d="M175 -184Q161 -184 142 -182Q123 -180 103 -175V-129Q139 -138 171 -138Q189 -138 199.5 -132.5Q210 -127 210 -113Q210 -99 197.5 -94Q185 -89 165 -87L137 -85L154 -8Q101 -4 68.5 30Q36 64 32 127L106 128Q110 93 123.5 73Q137 53 168 53Q193 53 207.5 68Q222 83 222 113Q222 142 202.5 169Q183 196 160 222L114 273Q83 307 64 339Q45 371 45 412Q45 435 52.5 457Q60 479 75.5 496Q91 513 115.5 523.5Q140 534 173 534Q225 534 259 502Q293 470 296 401L227 398Q223 439 210 456.5Q197 474 170 474Q144 474 130.5 458.5Q117 443 117 420Q117 400 128.5 379.5Q140 359 164 333L221 270Q259 228 277.5 192Q296 156 296 118Q296 97 290 76.5Q284 56 271.5 39Q259 22 239.5 10Q220 -2 194 -6L183 -52Q198 -53 213.5 -56Q229 -59 241.5 -65.5Q254 -72 262 -83.5Q270 -95 270 -112Q270 -145 242 -164.5Q214 -184 175 -184Z" glyph-name="scedilla" horiz-adv-x="326" unicode="&#351;" /><glyph d="M167 -9Q109 -9 73 25.5Q37 60 32 127L106 128Q110 93 123.5 73Q137 53 168 53Q193 53 207.5 68Q222 83 222 113Q222 142 202.5 169Q183 196 160 222L114 273Q83 307 64 339Q45 371 45 412Q45 435 52.5 457Q60 479 75.5 496Q91 513 115.5 523.5Q140 534 173 534Q225 534 259 502Q293 470 296 401L227 398Q223 439 210 456.5Q197 474 170 474Q144 474 130.5 458.5Q117 443 117 420Q117 400 128.5 379.5Q140 359 164 333L221 270Q259 228 277.5 192Q296 156 296 118Q296 94 288.5 71Q281 48 265 30.5Q249 13 224.5 2Q200 -9 167 -9ZM136 726H194L270 582H204L163 669L121 582H58Z" glyph-name="scircumflex" horiz-adv-x="326" unicode="&#349;" /><glyph d="M167 -9Q109 -9 73 25.5Q37 60 32 127L106 128Q110 93 123.5 73Q137 53 168 53Q193 53 207.5 68Q222 83 222 113Q222 142 202.5 169Q183 196 160 222L114 273Q83 307 64 339Q45 371 45 412Q45 435 52.5 457Q60 479 75.5 496Q91 513 115.5 523.5Q140 534 173 534Q225 534 259 502Q293 470 296 401L227 398Q223 439 210 456.5Q197 474 170 474Q144 474 130.5 458.5Q117 443 117 420Q117 400 128.5 379.5Q140 359 164 333L221 270Q259 228 277.5 192Q296 156 296 118Q296 94 288.5 71Q281 48 265 30.5Q249 13 224.5 2Q200 -9 167 -9ZM141 -38H216L191 -177H137Z" glyph-name="scommaaccent" horiz-adv-x="326" unicode="&#537;" /><glyph d="M215 254Q238 265 252.5 285Q267 305 267 334Q267 362 249.5 379Q232 396 212 407Q198 413 187 418Q177 422 169.5 425.5Q162 429 160 430Q142 419 125.5 398.5Q109 378 109 347Q109 332 114.5 320Q120 308 128.5 299Q137 290 147 284Q157 278 165 275ZM185 -41Q160 -41 134 -34.5Q108 -28 87 -12Q66 4 52.5 30Q39 56 39 95V128H104V105Q104 63 126.5 38.5Q149 14 189 14Q210 14 224.5 21Q239 28 248.5 40Q258 52 262.5 67Q267 82 267 98Q267 137 246 157.5Q225 178 200 189L182 198Q167 205 144 213Q125 221 107 232.5Q89 244 74.5 259.5Q60 275 51.5 296Q43 317 43 344Q43 379 60.5 409Q78 439 109 462Q74 485 59.5 513Q45 541 45 582Q45 610 54 635Q63 660 81 678.5Q99 697 125.5 707.5Q152 718 188 718Q251 718 288.5 683.5Q326 649 326 586V554H264V582Q264 617 244.5 639.5Q225 662 188 662Q153 662 132.5 641.5Q112 621 112 585Q112 553 130.5 531Q149 509 172 498L233 470Q250 462 268 450.5Q286 439 300.5 424Q315 409 324.5 388.5Q334 368 334 342Q334 305 317.5 274.5Q301 244 270 222Q302 204 321 173.5Q340 143 338 102Q338 70 327 43.5Q316 17 295.5 -1.5Q275 -20 247 -30.5Q219 -41 185 -41Z" glyph-name="section" horiz-adv-x="373" unicode="&#167;" /><glyph d="M47 518H123V399H47ZM74 5H47V118H123V9L92 -105H51Z" glyph-name="semicolon" horiz-adv-x="169" unicode=";" /><glyph d="M96 0Q96 100 108 194Q120 288 139.5 370.5Q159 453 184.5 522Q210 591 237 642H33V713H320V653Q282 588 255 509.5Q228 431 210.5 346Q193 261 184 172.5Q175 84 175 0Z" glyph-name="seven" horiz-adv-x="347" unicode="7" /><glyph d="M124 0Q124 100 136 194Q148 288 167.5 370.5Q187 453 212.5 522Q238 591 265 642H61V713H348V653Q310 588 283 509.5Q256 431 238.5 346Q221 261 212 172.5Q203 84 203 0Z" glyph-name="seven.LT" horiz-adv-x="409" unicode="&#58695;" /><glyph d="M63 0Q63 53 71 102.5Q79 152 91.5 196.5Q104 241 120 278Q136 315 153 344H24V396H217V352Q195 318 178 277Q161 236 149 190.5Q137 145 131 96.5Q125 48 125 0Z" glyph-name="seven.dnom" horiz-adv-x="239" unicode="&#58377;" /><glyph d="M63 318Q63 371 71 420.5Q79 470 91.5 514.5Q104 559 120 596Q136 633 153 662H24V714H217V670Q195 636 178 595Q161 554 149 508.5Q137 463 131 414.5Q125 366 125 318Z" glyph-name="seven.numr" horiz-adv-x="239" unicode="&#58397;" /><glyph d="M196 58Q215 58 228 65Q241 72 249.5 82.5Q258 93 261.5 106Q265 119 265 132V313Q265 346 247.5 362Q230 378 202 378Q167 378 147 353.5Q127 329 126 298V134Q126 107 143 82.5Q160 58 196 58ZM193 -10Q123 -10 84.5 32Q46 74 46 141V576Q46 613 57.5 640.5Q69 668 89.5 686.5Q110 705 138 714.5Q166 724 198 724Q265 724 301.5 688Q338 652 338 595V538H263V587Q263 615 247 636Q231 657 196 657Q177 657 163.5 650Q150 643 142 632Q134 621 130 607Q126 593 126 579V391Q144 415 171.5 427Q199 439 226 439Q280 439 312 408.5Q344 378 344 322V134Q344 66 302 28Q260 -10 193 -10Z" glyph-name="six" horiz-adv-x="388" unicode="6" /><glyph d="M205 58Q224 58 237 65Q250 72 258.5 82.5Q267 93 270.5 106Q274 119 274 132V313Q274 346 256.5 362Q239 378 211 378Q176 378 156 353.5Q136 329 135 298V134Q135 107 152 82.5Q169 58 205 58ZM202 -10Q132 -10 93.5 32Q55 74 55 141V576Q55 613 66.5 640.5Q78 668 98.5 686.5Q119 705 147 714.5Q175 724 207 724Q274 724 310.5 688Q347 652 347 595V538H272V587Q272 615 256 636Q240 657 205 657Q186 657 172.5 650Q159 643 151 632Q143 621 139 607Q135 593 135 579V391Q153 415 180.5 427Q208 439 235 439Q289 439 321 408.5Q353 378 353 322V134Q353 66 311 28Q269 -10 202 -10Z" glyph-name="six.LT" horiz-adv-x="409" unicode="&#58694;" /><glyph d="M129 38Q149 38 157.5 51Q166 64 166 78V166Q166 184 155.5 192.5Q145 201 131 201Q116 201 103.5 189Q91 177 91 160V77Q91 63 100.5 50.5Q110 38 129 38ZM127 -10Q83 -10 56.5 14.5Q30 39 30 81V307Q30 354 59 377.5Q88 401 130 401Q173 401 197.5 378.5Q222 356 222 319V286H165V314Q165 331 155 341.5Q145 352 127 352Q108 352 99.5 340Q91 328 91 312V213Q102 228 118.5 235Q135 242 152 242Q186 242 206 222Q226 202 226 169V79Q226 37 197.5 13.5Q169 -10 127 -10Z" glyph-name="six.dnom" horiz-adv-x="255" unicode="&#58376;" /><glyph d="M129 356Q149 356 157.5 369Q166 382 166 396V484Q166 502 155.5 510.5Q145 519 131 519Q116 519 103.5 507Q91 495 91 478V395Q91 381 100.5 368.5Q110 356 129 356ZM127 308Q83 308 56.5 332.5Q30 357 30 399V625Q30 672 59 695.5Q88 719 130 719Q173 719 197.5 696.5Q222 674 222 637V604H165V632Q165 649 155 659.5Q145 670 127 670Q108 670 99.5 658Q91 646 91 630V531Q102 546 118.5 553Q135 560 152 560Q186 560 206 540Q226 520 226 487V397Q226 355 197.5 331.5Q169 308 127 308Z" glyph-name="six.numr" horiz-adv-x="255" unicode="&#58396;" /><glyph d="M162 717H219L53 -167H-6Z" glyph-name="slash" horiz-adv-x="240" unicode="/" /><glyph glyph-name="space" horiz-adv-x="143" unicode=" " /><glyph d="M37 68H88V332H43V391H88V577Q88 616 100.5 643.5Q113 671 134 689Q155 707 182.5 715.5Q210 724 240 724Q303 724 338.5 690Q374 656 374 599V533H303V595Q303 627 284.5 643Q266 659 237 659Q212 659 190.5 643Q169 627 169 584V391H297V332H169V68H382L368 0H37Z" glyph-name="sterling" horiz-adv-x="413" unicode="&#163;" /><glyph d="M35 -70 218 304 33 653V714H333V638H136L304 322V288L132 -58H334V-133H35Z" glyph-name="summation" horiz-adv-x="367" unicode="&#8721;" /><glyph d="M169 -7Q152 -7 136.5 -3Q121 1 109 11Q97 21 89.5 36.5Q82 52 82 75V458H30V522H82V641H158V522H241V458H158V97Q158 77 165.5 69Q173 61 190 61Q214 61 233 68V5Q217 0 201.5 -3.5Q186 -7 169 -7Z" glyph-name="t" horiz-adv-x="263" unicode="t" /><glyph d="M51 318H82V458H30V522H82V641H158V522H241V458H158V318H208V266H158V97Q158 77 165.5 69Q173 61 190 61Q214 61 233 68V5Q217 0 201.5 -3.5Q186 -7 169 -7Q152 -7 136.5 -3Q121 1 109 11Q97 21 89.5 36.5Q82 52 82 75V266H51Z" glyph-name="tbar" horiz-adv-x="263" unicode="&#359;" /><glyph d="M169 -7Q152 -7 136.5 -3Q121 1 109 11Q97 21 89.5 36.5Q82 52 82 75V458H30V522H82V641H158V522H241V458H158V97Q158 77 165.5 69Q173 61 190 61Q214 61 233 68V5Q217 0 201.5 -3.5Q186 -7 169 -7ZM198 713H266L241 566H194Z" glyph-name="tcaron" horiz-adv-x="263" unicode="&#357;" /><glyph d="M169 -7Q152 -7 136.5 -3Q121 1 109 11Q97 21 89.5 36.5Q82 52 82 75V458H30V522H82V641H158V522H241V458H158V97Q158 77 165.5 69Q173 61 190 61Q214 61 233 68V5Q217 0 201.5 -3.5Q186 -7 169 -7ZM104 -38H179L154 -177H100Z" glyph-name="tcommaaccent" horiz-adv-x="263" unicode="&#355;" /><glyph d="M196 54Q222 54 239 71Q256 88 256 122V405Q256 432 241.5 451.5Q227 471 196 471Q167 471 147.5 447Q128 423 128 381V135Q128 97 147.5 75.5Q167 54 196 54ZM51 713H127V470H129Q145 505 174.5 519.5Q204 534 230 534Q257 534 277 525Q297 516 309.5 500Q322 484 328 463.5Q334 443 334 421V109Q334 56 302 23Q270 -10 219 -10Q193 -10 168 3.5Q143 17 129 43H128V-162H51Z" glyph-name="thorn" horiz-adv-x="372" unicode="&#254;" /><glyph d="M179 -10Q137 -10 109 3Q81 16 64 38Q47 60 40 89.5Q33 119 33 152V183H108V149Q108 109 125.5 84Q143 59 177 59Q195 59 208 66Q221 73 230 89.5Q239 106 243.5 132.5Q248 159 248 199Q248 239 240 264.5Q232 290 219 304.5Q206 319 191 324.5Q176 330 162 330H116V403H162Q200 403 219.5 435Q239 467 239 536Q239 604 220 630Q201 656 173 656Q141 656 125.5 633.5Q110 611 110 571V535H37V569Q37 647 74.5 685.5Q112 724 180 724Q216 724 242 710Q268 696 285 671.5Q302 647 310 614Q318 581 318 544Q318 515 313.5 487.5Q309 460 299.5 437Q290 414 274 397Q258 380 236 372V369Q260 361 278 343.5Q296 326 307 302Q318 278 323.5 250.5Q329 223 329 195Q329 142 317 103.5Q305 65 285 40Q265 15 237.5 2.5Q210 -10 179 -10Z" glyph-name="three" horiz-adv-x="365" unicode="3" /><glyph d="M202 -10Q160 -10 132 3Q104 16 87 38Q70 60 63 89.5Q56 119 56 152V183H131V149Q131 109 148.5 84Q166 59 200 59Q218 59 231 66Q244 73 253 89.5Q262 106 266.5 132.5Q271 159 271 199Q271 239 263 264.5Q255 290 242 304.5Q229 319 214 324.5Q199 330 185 330H139V403H185Q223 403 242.5 435Q262 467 262 536Q262 604 243 630Q224 656 196 656Q164 656 148.5 633.5Q133 611 133 571V535H60V569Q60 647 97.5 685.5Q135 724 203 724Q239 724 265 710Q291 696 308 671.5Q325 647 333 614Q341 581 341 544Q341 515 336.5 487.5Q332 460 322.5 437Q313 414 297 397Q281 380 259 372V369Q283 361 301 343.5Q319 326 330 302Q341 278 346.5 250.5Q352 223 352 195Q352 142 340 103.5Q328 65 308 40Q288 15 260.5 2.5Q233 -10 202 -10Z" glyph-name="three.LT" horiz-adv-x="409" unicode="&#58691;" /><glyph d="M127 -11Q75 -11 53 19Q31 49 31 90V109H88V88Q88 67 98.5 53.5Q109 40 126 40Q164 40 164 109Q164 147 148.5 161.5Q133 176 119 176H90V224H117Q138 224 149 239.5Q160 255 160 290Q160 324 149.5 337Q139 350 124 350Q106 350 97 336Q88 322 88 301V283H33V305Q33 350 57.5 375Q82 400 127 400Q173 400 196 371.5Q219 343 219 297Q219 265 207.5 238.5Q196 212 170 202V200Q199 191 212.5 164Q226 137 226 105Q226 44 197.5 16.5Q169 -11 127 -11Z" glyph-name="three.dnom" horiz-adv-x="256" unicode="&#58373;" /><glyph d="M127 307Q75 307 53 337Q31 367 31 408V427H88V406Q88 385 98.5 371.5Q109 358 126 358Q164 358 164 427Q164 465 148.5 479.5Q133 494 119 494H90V542H117Q138 542 149 557.5Q160 573 160 608Q160 642 149.5 655Q139 668 124 668Q106 668 97 654Q88 640 88 619V601H33V623Q33 668 57.5 693Q82 718 127 718Q173 718 196 689.5Q219 661 219 615Q219 583 207.5 556.5Q196 530 170 520V518Q199 509 212.5 482Q226 455 226 423Q226 362 197.5 334.5Q169 307 127 307Z" glyph-name="three.numr" horiz-adv-x="256" unicode="&#58393;" /><glyph d="M418 716H464L179 -2H132ZM129 305Q77 305 55 335Q33 365 33 406V425H90V404Q90 383 100.5 369.5Q111 356 128 356Q166 356 166 425Q166 463 150.5 477.5Q135 492 121 492H92V540H119Q140 540 151 555.5Q162 571 162 606Q162 640 151.5 653Q141 666 126 666Q108 666 99 652Q90 638 90 617V599H35V621Q35 666 59.5 691Q84 716 129 716Q175 716 198 687.5Q221 659 221 613Q221 581 209.5 554.5Q198 528 172 518V516Q201 507 214.5 480Q228 453 228 421Q228 360 199.5 332.5Q171 305 129 305ZM450 98H329V143L435 400H497L386 147H450V218L507 262V147H541V98H507V0H450Z" glyph-name="threequarters" horiz-adv-x="577" unicode="&#190;" /><glyph d="M127 369Q75 369 53 399Q31 429 31 470V489H88V468Q88 447 98.5 433.5Q109 420 126 420Q164 420 164 489Q164 527 148.5 541.5Q133 556 119 556H90V604H117Q138 604 149 619.5Q160 635 160 670Q160 704 149.5 717Q139 730 124 730Q106 730 97 716Q88 702 88 681V663H33V685Q33 730 57.5 755Q82 780 127 780Q173 780 196 751.5Q219 723 219 677Q219 645 207.5 618.5Q196 592 170 582V580Q199 571 212.5 544Q226 517 226 485Q226 424 197.5 396.5Q169 369 127 369Z" glyph-name="threesuperior" horiz-adv-x="256" unicode="&#179;" /><glyph d="M35 598Q40 634 59.5 660.5Q79 687 111 687Q125 687 139 682.5Q153 678 166.5 672.5Q180 667 193.5 662.5Q207 658 221 658Q236 658 243 667.5Q250 677 255 694L298 684Q293 649 273.5 622.5Q254 596 222 596Q208 596 193.5 600.5Q179 605 164.5 610.5Q150 616 137 620.5Q124 625 113 625Q98 625 92 616.5Q86 608 81 589Z" glyph-name="tilde" horiz-adv-x="326" unicode="&#732;" /><glyph d="M85 673H25V715H193V673H133V398H85ZM223 715H282L327 577L370 715H428V398H383V628L343 504H308L267 629V398H223Z" glyph-name="trademark" horiz-adv-x="469" unicode="&#8482;" /><glyph d="M40 504V511H357V504L205 207H199Z" glyph-name="triagdn" horiz-adv-x="397" unicode="&#9660;" /><glyph d="M46 352V358L343 517H350V200H343Z" glyph-name="triaglf" horiz-adv-x="397" unicode="&#9668;" /><glyph d="M46 517H53L350 358V352L53 200H46Z" glyph-name="triagrt" horiz-adv-x="397" unicode="&#9658;" /><glyph d="M40 213 192 511H198L357 213V207H40Z" glyph-name="triagup" horiz-adv-x="397" unicode="&#9650;" /><glyph d="M40 52 142 235Q188 320 211.5 392.5Q235 465 235 536V553Q234 574 230.5 592.5Q227 611 219.5 625.5Q212 640 200.5 648Q189 656 171 656Q137 656 123 632Q109 608 109 577V534H37V571Q37 640 73 682Q109 724 176 724Q246 724 280 679Q314 634 314 550Q314 498 304.5 450.5Q295 403 279.5 359Q264 315 243 273Q222 231 199 189L134 71V70H320V0H40Z" glyph-name="two" horiz-adv-x="354" unicode="2" /><glyph d="M65 52 167 235Q213 320 236.5 392.5Q260 465 260 536V553Q259 574 255.5 592.5Q252 611 244.5 625.5Q237 640 225.5 648Q214 656 196 656Q162 656 148 632Q134 608 134 577V534H62V571Q62 640 98 682Q134 724 201 724Q271 724 305 679Q339 634 339 550Q339 498 329.5 450.5Q320 403 304.5 359Q289 315 268 273Q247 231 224 189L159 71V70H345V0H65Z" glyph-name="two.LT" horiz-adv-x="409" unicode="&#58690;" /><glyph d="M36 39 106 146Q129 187 143.5 221.5Q158 256 158 291V298Q158 320 150.5 335Q143 350 123 350Q104 350 96 336Q88 322 88 304V281H32V306Q32 350 56 375.5Q80 401 125 401Q171 401 195 374Q219 347 219 297Q219 242 197.5 199Q176 156 148 113L111 51H221V0H36Z" glyph-name="two.dnom" horiz-adv-x="248" unicode="&#58372;" /><glyph d="M36 357 106 464Q129 505 143.5 539.5Q158 574 158 609V616Q158 638 150.5 653Q143 668 123 668Q104 668 96 654Q88 640 88 622V599H32V624Q32 668 56 693.5Q80 719 125 719Q171 719 195 692Q219 665 219 615Q219 560 197.5 517Q176 474 148 431L111 369H221V318H36Z" glyph-name="two.numr" horiz-adv-x="248" unicode="&#58392;" /><glyph d="M36 419 106 526Q129 567 143.5 601.5Q158 636 158 671V678Q158 700 150.5 715Q143 730 123 730Q104 730 96 716Q88 702 88 684V661H32V686Q32 730 56 755.5Q80 781 125 781Q171 781 195 754Q219 727 219 677Q219 622 197.5 579Q176 536 148 493L111 431H221V380H36Z" glyph-name="twosuperior" horiz-adv-x="248" unicode="&#178;" /><glyph d="M149 -11Q107 -11 80 15.5Q53 42 53 87V524H130V117Q130 56 185 56Q201 56 214 64.5Q227 73 236.5 86.5Q246 100 251.5 117Q257 134 257 152V524H334V0H260V57H259Q242 24 212.5 6.5Q183 -11 149 -11Z" glyph-name="u" horiz-adv-x="392" unicode="u" /><glyph d="M149 -11Q107 -11 80 15.5Q53 42 53 87V524H130V117Q130 56 185 56Q201 56 214 64.5Q227 73 236.5 86.5Q246 100 251.5 117Q257 134 257 152V524H334V0H260V57H259Q242 24 212.5 6.5Q183 -11 149 -11ZM232 724H316L224 581H164Z" glyph-name="uacute" horiz-adv-x="392" unicode="&#250;" /><glyph d="M197 584Q142 584 112 616.5Q82 649 80 710H137Q140 680 151.5 657.5Q163 635 199 635Q229 635 242.5 655.5Q256 676 256 710H311Q309 644 276.5 614Q244 584 197 584ZM149 -11Q107 -11 80 15.5Q53 42 53 87V524H130V117Q130 56 185 56Q201 56 214 64.5Q227 73 236.5 86.5Q246 100 251.5 117Q257 134 257 152V524H334V0H260V57H259Q242 24 212.5 6.5Q183 -11 149 -11Z" glyph-name="ubreve" horiz-adv-x="392" unicode="&#365;" /><glyph d="M149 -11Q107 -11 80 15.5Q53 42 53 87V524H130V117Q130 56 185 56Q201 56 214 64.5Q227 73 236.5 86.5Q246 100 251.5 117Q257 134 257 152V524H334V0H260V57H259Q242 24 212.5 6.5Q183 -11 149 -11ZM172 726H230L306 582H240L199 669L157 582H94Z" glyph-name="ucircumflex" horiz-adv-x="392" unicode="&#251;" /><glyph d="M149 -11Q107 -11 80 15.5Q53 42 53 87V524H130V117Q130 56 185 56Q201 56 214 64.5Q227 73 236.5 86.5Q246 100 251.5 117Q257 134 257 152V524H334V0H260V57H259Q242 24 212.5 6.5Q183 -11 149 -11ZM227 714H293V594H227ZM98 714H164V594H98Z" glyph-name="udieresis" horiz-adv-x="392" unicode="&#252;" /><glyph d="M76 724H159L227 581H168ZM149 -11Q107 -11 80 15.5Q53 42 53 87V524H130V117Q130 56 185 56Q201 56 214 64.5Q227 73 236.5 86.5Q246 100 251.5 117Q257 134 257 152V524H334V0H260V57H259Q242 24 212.5 6.5Q183 -11 149 -11Z" glyph-name="ugrave" horiz-adv-x="392" unicode="&#249;" /><glyph d="M275 715H347L282 584H225ZM154 715H226L163 584H106ZM149 -11Q107 -11 80 15.5Q53 42 53 87V524H130V117Q130 56 185 56Q201 56 214 64.5Q227 73 236.5 86.5Q246 100 251.5 117Q257 134 257 152V524H334V0H260V57H259Q242 24 212.5 6.5Q183 -11 149 -11Z" glyph-name="uhungarumlaut" horiz-adv-x="392" unicode="&#369;" /><glyph d="M98 659H293V597H98ZM149 -11Q107 -11 80 15.5Q53 42 53 87V524H130V117Q130 56 185 56Q201 56 214 64.5Q227 73 236.5 86.5Q246 100 251.5 117Q257 134 257 152V524H334V0H260V57H259Q242 24 212.5 6.5Q183 -11 149 -11Z" glyph-name="umacron" horiz-adv-x="392" unicode="&#363;" /><glyph d="M0 -58H379V-116H0Z" glyph-name="underscore" horiz-adv-x="379" unicode="_" /><glyph glyph-name="uni00A0" horiz-adv-x="143" unicode="&#160;" /><glyph d="M158 643H22V713H376V643H240V0H158ZM164 -38H239L214 -177H160Z" glyph-name="uni021A" horiz-adv-x="398" unicode="&#538;" /><glyph d="M169 -7Q152 -7 136.5 -3Q121 1 109 11Q97 21 89.5 36.5Q82 52 82 75V458H30V522H82V641H158V522H241V458H158V97Q158 77 165.5 69Q173 61 190 61Q214 61 233 68V5Q217 0 201.5 -3.5Q186 -7 169 -7ZM104 -38H179L154 -177H100Z" glyph-name="uni021B" horiz-adv-x="263" unicode="&#539;" /><glyph d="M129 419Q150 419 158.5 431Q167 443 167 460V694Q167 709 157.5 720.5Q148 732 128 732Q108 732 98.5 720.5Q89 709 89 693V459Q89 444 99 431.5Q109 419 129 419ZM129 370Q86 370 58 392.5Q30 415 30 460V691Q30 737 60 759Q90 781 129 781Q168 781 197.5 759.5Q227 738 227 693V461Q227 415 198 392.5Q169 370 129 370Z" glyph-name="uni2070" horiz-adv-x="257" unicode="&#8304;" /><glyph d="M140 478H19V523L125 780H187L76 527H140V598L197 642V527H231V478H197V380H140Z" glyph-name="uni2074" horiz-adv-x="248" unicode="&#8308;" /><glyph d="M125 370Q79 370 55 394Q31 418 31 456V490H88V462Q88 443 98.5 431Q109 419 126 419Q144 419 154.5 431.5Q165 444 165 470V538Q165 585 128 585Q116 585 106 577.5Q96 570 90 560L35 566L44 776H210V724H94Q94 722 93 704Q92 686 91.5 665Q91 644 90 626Q89 608 89 605Q113 629 148 629Q163 629 176.5 624.5Q190 620 201 610Q212 600 218.5 584.5Q225 569 225 547V468Q225 420 196 395Q167 370 125 370Z" glyph-name="uni2075" horiz-adv-x="256" unicode="&#8309;" /><glyph d="M129 418Q149 418 157.5 431Q166 444 166 458V546Q166 564 155.5 572.5Q145 581 131 581Q116 581 103.5 569Q91 557 91 540V457Q91 443 100.5 430.5Q110 418 129 418ZM127 370Q83 370 56.5 394.5Q30 419 30 461V687Q30 734 59 757.5Q88 781 130 781Q173 781 197.5 758.5Q222 736 222 699V666H165V694Q165 711 155 721.5Q145 732 127 732Q108 732 99.5 720Q91 708 91 692V593Q102 608 118.5 615Q135 622 152 622Q186 622 206 602Q226 582 226 549V459Q226 417 197.5 393.5Q169 370 127 370Z" glyph-name="uni2076" horiz-adv-x="255" unicode="&#8310;" /><glyph d="M63 380Q63 433 71 482.5Q79 532 91.5 576.5Q104 621 120 658Q136 695 153 724H24V776H217V732Q195 698 178 657Q161 616 149 570.5Q137 525 131 476.5Q125 428 125 380Z" glyph-name="uni2077" horiz-adv-x="239" unicode="&#8311;" /><glyph d="M129 603Q146 603 155.5 614Q165 625 165 640V699Q165 716 154 725Q143 734 128 734Q112 734 101.5 724.5Q91 715 91 700V640Q91 623 102 613Q113 603 129 603ZM129 417Q148 417 157.5 427.5Q167 438 167 455V520Q167 539 155 548.5Q143 558 128 558Q111 558 100 548.5Q89 539 89 522V454Q89 438 99.5 427.5Q110 417 129 417ZM128 370Q84 370 57 391.5Q30 413 30 456V516Q30 538 41 554.5Q52 571 69 581Q52 589 43 606Q34 623 34 641V697Q34 739 61.5 760.5Q89 782 128 782Q167 782 195 761.5Q223 741 223 698V643Q223 623 213.5 606.5Q204 590 186 582Q203 573 215 556.5Q227 540 227 518V456Q227 414 198.5 392Q170 370 128 370Z" glyph-name="uni2078" horiz-adv-x="257" unicode="&#8312;" /><glyph d="M124 571Q139 571 151.5 583Q164 595 165 612V695Q165 709 155.5 721.5Q146 734 126 734Q106 734 97.5 721Q89 708 89 694V606Q89 589 99.5 580Q110 571 124 571ZM125 370Q83 370 58.5 393Q34 416 34 454V485H90V458Q90 440 100.5 430Q111 420 128 420Q146 420 155.5 431.5Q165 443 165 461V557Q153 543 136.5 536Q120 529 103 529Q69 529 49.5 549Q30 569 30 602V693Q30 735 58 758Q86 781 128 781Q172 781 198.5 757Q225 733 225 691V467Q225 419 196 394.5Q167 370 125 370Z" glyph-name="uni2079" horiz-adv-x="255" unicode="&#8313;" /><glyph d="M104 308Q89 333 77 364Q65 395 56.5 428.5Q48 462 44 496Q40 530 40 562Q40 626 56.5 692.5Q73 759 104 810L137 808Q126 775 117.5 747Q109 719 103 691Q97 663 94 631.5Q91 600 91 561Q91 495 103 433Q115 371 137 311Z" glyph-name="uni207D" horiz-adv-x="149" unicode="&#8317;" /><glyph d="M18 311Q40 371 52 433Q64 495 64 561Q64 600 61 631.5Q58 663 52 691Q46 719 37.5 747Q29 775 18 808L52 810Q83 759 99 692.5Q115 626 115 562Q115 530 111 496Q107 462 98.5 428.5Q90 395 78.5 364Q67 333 52 308Z" glyph-name="uni207E" horiz-adv-x="149" unicode="&#8318;" /><glyph d="M129 -94Q150 -94 158.5 -82Q167 -70 167 -53V181Q167 196 157.5 207.5Q148 219 128 219Q108 219 98.5 207.5Q89 196 89 180V-54Q89 -69 99 -81.5Q109 -94 129 -94ZM129 -143Q86 -143 58 -120.5Q30 -98 30 -53V178Q30 224 60 246Q90 268 129 268Q168 268 197.5 246.5Q227 225 227 180V-52Q227 -98 198 -120.5Q169 -143 129 -143Z" glyph-name="uni2080" horiz-adv-x="257" unicode="&#8320;" /><glyph d="M77 206 41 196 33 240 101 267H136V-133H77Z" glyph-name="uni2081" horiz-adv-x="201" unicode="&#8321;" /><glyph d="M36 -94 106 13Q129 54 143.5 88.5Q158 123 158 158V165Q158 187 150.5 202Q143 217 123 217Q104 217 96 203Q88 189 88 171V148H32V173Q32 217 56 242.5Q80 268 125 268Q171 268 195 241Q219 214 219 164Q219 109 197.5 66Q176 23 148 -20L111 -82H221V-133H36Z" glyph-name="uni2082" horiz-adv-x="248" unicode="&#8322;" /><glyph d="M127 -144Q75 -144 53 -114Q31 -84 31 -43V-24H88V-45Q88 -66 98.5 -79.5Q109 -93 126 -93Q164 -93 164 -24Q164 14 148.5 28.5Q133 43 119 43H90V91H117Q138 91 149 106.5Q160 122 160 157Q160 191 149.5 204Q139 217 124 217Q106 217 97 203Q88 189 88 168V150H33V172Q33 217 57.5 242Q82 267 127 267Q173 267 196 238.5Q219 210 219 164Q219 132 207.5 105.5Q196 79 170 69V67Q199 58 212.5 31Q226 4 226 -28Q226 -89 197.5 -116.5Q169 -144 127 -144Z" glyph-name="uni2083" horiz-adv-x="256" unicode="&#8323;" /><glyph d="M140 -35H19V10L125 267H187L76 14H140V85L197 129V14H231V-35H197V-133H140Z" glyph-name="uni2084" horiz-adv-x="248" unicode="&#8324;" /><glyph d="M125 -143Q79 -143 55 -119Q31 -95 31 -57V-23H88V-51Q88 -70 98.5 -82Q109 -94 126 -94Q144 -94 154.5 -81.5Q165 -69 165 -43V25Q165 72 128 72Q116 72 106 64.5Q96 57 90 47L35 53L44 263H210V211H94Q94 209 93 191Q92 173 91.5 152Q91 131 90 113Q89 95 89 92Q113 116 148 116Q163 116 176.5 111.5Q190 107 201 97Q212 87 218.5 71.5Q225 56 225 34V-45Q225 -93 196 -118Q167 -143 125 -143Z" glyph-name="uni2085" horiz-adv-x="256" unicode="&#8325;" /><glyph d="M129 -95Q149 -95 157.5 -82Q166 -69 166 -55V33Q166 51 155.5 59.5Q145 68 131 68Q116 68 103.5 56Q91 44 91 27V-56Q91 -70 100.5 -82.5Q110 -95 129 -95ZM127 -143Q83 -143 56.5 -118.5Q30 -94 30 -52V174Q30 221 59 244.5Q88 268 130 268Q173 268 197.5 245.5Q222 223 222 186V153H165V181Q165 198 155 208.5Q145 219 127 219Q108 219 99.5 207Q91 195 91 179V80Q102 95 118.5 102Q135 109 152 109Q186 109 206 89Q226 69 226 36V-54Q226 -96 197.5 -119.5Q169 -143 127 -143Z" glyph-name="uni2086" horiz-adv-x="255" unicode="&#8326;" /><glyph d="M63 -133Q63 -80 71 -30.5Q79 19 91.5 63.5Q104 108 120 145Q136 182 153 211H24V263H217V219Q195 185 178 144Q161 103 149 57.5Q137 12 131 -36.5Q125 -85 125 -133Z" glyph-name="uni2087" horiz-adv-x="239" unicode="&#8327;" /><glyph d="M129 90Q146 90 155.5 101Q165 112 165 127V186Q165 203 154 212Q143 221 128 221Q112 221 101.5 211.5Q91 202 91 187V127Q91 110 102 100Q113 90 129 90ZM129 -96Q148 -96 157.5 -85.5Q167 -75 167 -58V7Q167 26 155 35.5Q143 45 128 45Q111 45 100 35.5Q89 26 89 9V-59Q89 -75 99.5 -85.5Q110 -96 129 -96ZM128 -143Q84 -143 57 -121.5Q30 -100 30 -57V3Q30 25 41 41.5Q52 58 69 68Q52 76 43 93Q34 110 34 128V184Q34 226 61.5 247.5Q89 269 128 269Q167 269 195 248.5Q223 228 223 185V130Q223 110 213.5 93.5Q204 77 186 69Q203 60 215 43.5Q227 27 227 5V-57Q227 -99 198.5 -121Q170 -143 128 -143Z" glyph-name="uni2088" horiz-adv-x="257" unicode="&#8328;" /><glyph d="M124 58Q139 58 151.5 70Q164 82 165 99V182Q165 196 155.5 208.5Q146 221 126 221Q106 221 97.5 208Q89 195 89 181V93Q89 76 99.5 67Q110 58 124 58ZM125 -143Q83 -143 58.5 -120Q34 -97 34 -59V-28H90V-55Q90 -73 100.5 -83Q111 -93 128 -93Q146 -93 155.5 -81.5Q165 -70 165 -52V44Q153 30 136.5 23Q120 16 103 16Q69 16 49.5 36Q30 56 30 89V180Q30 222 58 245Q86 268 128 268Q172 268 198.5 244Q225 220 225 178V-46Q225 -94 196 -118.5Q167 -143 125 -143Z" glyph-name="uni2089" horiz-adv-x="255" unicode="&#8329;" /><glyph d="M104 -205Q89 -180 77 -149Q65 -118 56.5 -84.5Q48 -51 44 -17Q40 17 40 49Q40 113 56.5 179.5Q73 246 104 297L137 295Q126 262 117.5 234Q109 206 103 178Q97 150 94 118.5Q91 87 91 48Q91 -18 103 -80Q115 -142 137 -202Z" glyph-name="uni208D" horiz-adv-x="149" unicode="&#8333;" /><glyph d="M18 -202Q40 -142 52 -80Q64 -18 64 48Q64 87 61 118.5Q58 150 52 178Q46 206 37.5 234Q29 262 18 295L52 297Q83 246 99 179.5Q115 113 115 49Q115 17 111 -17Q107 -51 98.5 -84.5Q90 -118 78.5 -149Q67 -180 52 -205Z" glyph-name="uni208E" horiz-adv-x="149" unicode="&#8334;" /><glyph d="M126 583H191V94H280Q310 94 310 142V705H394V163Q394 115 386 84Q378 53 363 34Q348 15 325.5 7.5Q303 0 274 0H126ZM26 705H164Q193 705 215.5 699.5Q238 694 253 678.5Q268 663 276 634Q284 605 284 557V122H218V563Q218 612 189 612H100V0H26Z" glyph-name="uni20AA" horiz-adv-x="420" unicode="&#8362;" /><glyph d="M433 -11Q381 -11 359 19Q337 49 337 90V109H394V88Q394 67 404.5 53.5Q415 40 432 40Q470 40 470 109Q470 147 454.5 161.5Q439 176 425 176H396V224H423Q444 224 455 239.5Q466 255 466 290Q466 324 455.5 337Q445 350 430 350Q412 350 403 336Q394 322 394 301V283H339V305Q339 350 363.5 375Q388 400 433 400Q479 400 502 371.5Q525 343 525 297Q525 265 513.5 238.5Q502 212 476 202V200Q505 191 518.5 164Q532 137 532 105Q532 44 503.5 16.5Q475 -11 433 -11ZM388 716H434L149 -2H102ZM99 655 63 645 55 689 123 716H158V316H99Z" glyph-name="uni2153" horiz-adv-x="577" unicode="&#8531;" /><glyph d="M439 -11Q387 -11 365 19Q343 49 343 90V109H400V88Q400 67 410.5 53.5Q421 40 438 40Q476 40 476 109Q476 147 460.5 161.5Q445 176 431 176H402V224H429Q450 224 461 239.5Q472 255 472 290Q472 324 461.5 337Q451 350 436 350Q418 350 409 336Q400 322 400 301V283H345V305Q345 350 369.5 375Q394 400 439 400Q485 400 508 371.5Q531 343 531 297Q531 265 519.5 238.5Q508 212 482 202V200Q511 191 524.5 164Q538 137 538 105Q538 44 509.5 16.5Q481 -11 439 -11ZM408 716H454L169 -2H122ZM23 355 93 462Q116 503 130.5 537.5Q145 572 145 607V614Q145 636 137.5 651Q130 666 110 666Q91 666 83 652Q75 638 75 620V597H19V622Q19 666 43 691.5Q67 717 112 717Q158 717 182 690Q206 663 206 613Q206 558 184.5 515Q163 472 135 429L98 367H208V316H23Z" glyph-name="uni2154" horiz-adv-x="577" unicode="&#8532;" /><glyph d="M395 716H441L156 -2H109ZM437 -10Q391 -10 367 14Q343 38 343 76V110H400V82Q400 63 410.5 51Q421 39 438 39Q456 39 466.5 51.5Q477 64 477 90V158Q477 205 440 205Q428 205 418 197.5Q408 190 402 180L347 186L356 396H522V344H406Q406 342 405 324Q404 306 403.5 285Q403 264 402 246Q401 228 401 225Q425 249 460 249Q475 249 488.5 244.5Q502 240 513 230Q524 220 530.5 204.5Q537 189 537 167V88Q537 40 508 15Q479 -10 437 -10ZM106 655 70 645 62 689 130 716H165V316H106Z" glyph-name="uni2155" horiz-adv-x="577" unicode="&#8533;" /><glyph d="M404 716H450L165 -2H118ZM440 -10Q394 -10 370 14Q346 38 346 76V110H403V82Q403 63 413.5 51Q424 39 441 39Q459 39 469.5 51.5Q480 64 480 90V158Q480 205 443 205Q431 205 421 197.5Q411 190 405 180L350 186L359 396H525V344H409Q409 342 408 324Q407 306 406.5 285Q406 264 405 246Q404 228 404 225Q428 249 463 249Q478 249 491.5 244.5Q505 240 516 230Q527 220 533.5 204.5Q540 189 540 167V88Q540 40 511 15Q482 -10 440 -10ZM23 355 93 462Q116 503 130.5 537.5Q145 572 145 607V614Q145 636 137.5 651Q130 666 110 666Q91 666 83 652Q75 638 75 620V597H19V622Q19 666 43 691.5Q67 717 112 717Q158 717 182 690Q206 663 206 613Q206 558 184.5 515Q163 472 135 429L98 367H208V316H23Z" glyph-name="uni2156" horiz-adv-x="577" unicode="&#8534;" /><glyph d="M440 -10Q394 -10 370 14Q346 38 346 76V110H403V82Q403 63 413.5 51Q424 39 441 39Q459 39 469.5 51.5Q480 64 480 90V158Q480 205 443 205Q431 205 421 197.5Q411 190 405 180L350 186L359 396H525V344H409Q409 342 408 324Q407 306 406.5 285Q406 264 405 246Q404 228 404 225Q428 249 463 249Q478 249 491.5 244.5Q505 240 516 230Q527 220 533.5 204.5Q540 189 540 167V88Q540 40 511 15Q482 -10 440 -10ZM402 716H448L163 -2H116ZM120 305Q68 305 46 335Q24 365 24 406V425H81V404Q81 383 91.5 369.5Q102 356 119 356Q157 356 157 425Q157 463 141.5 477.5Q126 492 112 492H83V540H110Q131 540 142 555.5Q153 571 153 606Q153 640 142.5 653Q132 666 117 666Q99 666 90 652Q81 638 81 617V599H26V621Q26 666 50.5 691Q75 716 120 716Q166 716 189 687.5Q212 659 212 613Q212 581 200.5 554.5Q189 528 163 518V516Q192 507 205.5 480Q219 453 219 421Q219 360 190.5 332.5Q162 305 120 305Z" glyph-name="uni2157" horiz-adv-x="577" unicode="&#8535;" /><glyph d="M402 716H448L163 -2H116ZM440 -10Q394 -10 370 14Q346 38 346 76V110H403V82Q403 63 413.5 51Q424 39 441 39Q459 39 469.5 51.5Q480 64 480 90V158Q480 205 443 205Q431 205 421 197.5Q411 190 405 180L350 186L359 396H525V344H409Q409 342 408 324Q407 306 406.5 285Q406 264 405 246Q404 228 404 225Q428 249 463 249Q478 249 491.5 244.5Q505 240 516 230Q527 220 533.5 204.5Q540 189 540 167V88Q540 40 511 15Q482 -10 440 -10ZM133 414H12V459L118 716H180L69 463H133V534L190 578V463H224V414H190V316H133Z" glyph-name="uni2158" horiz-adv-x="577" unicode="&#8536;" /><glyph d="M396 716H442L157 -2H110ZM438 38Q458 38 466.5 51Q475 64 475 78V166Q475 184 464.5 192.5Q454 201 440 201Q425 201 412.5 189Q400 177 400 160V77Q400 63 409.5 50.5Q419 38 438 38ZM436 -10Q392 -10 365.5 14.5Q339 39 339 81V307Q339 354 368 377.5Q397 401 439 401Q482 401 506.5 378.5Q531 356 531 319V286H474V314Q474 331 464 341.5Q454 352 436 352Q417 352 408.5 340Q400 328 400 312V213Q411 228 427.5 235Q444 242 461 242Q495 242 515 222Q535 202 535 169V79Q535 37 506.5 13.5Q478 -10 436 -10ZM112 655 76 645 68 689 136 716H171V316H112Z" glyph-name="uni2159" horiz-adv-x="577" unicode="&#8537;" /><glyph d="M408 716H454L169 -2H122ZM131 306Q85 306 61 330Q37 354 37 392V426H94V398Q94 379 104.5 367Q115 355 132 355Q150 355 160.5 367.5Q171 380 171 406V474Q171 521 134 521Q122 521 112 513.5Q102 506 96 496L41 502L50 712H216V660H100Q100 658 99 640Q98 622 97.5 601Q97 580 96 562Q95 544 95 541Q119 565 154 565Q169 565 182.5 560.5Q196 556 207 546Q218 536 224.5 520.5Q231 505 231 483V404Q231 356 202 331Q173 306 131 306ZM443 38Q463 38 471.5 51Q480 64 480 78V166Q480 184 469.5 192.5Q459 201 445 201Q430 201 417.5 189Q405 177 405 160V77Q405 63 414.5 50.5Q424 38 443 38ZM441 -10Q397 -10 370.5 14.5Q344 39 344 81V307Q344 354 373 377.5Q402 401 444 401Q487 401 511.5 378.5Q536 356 536 319V286H479V314Q479 331 469 341.5Q459 352 441 352Q422 352 413.5 340Q405 328 405 312V213Q416 228 432.5 235Q449 242 466 242Q500 242 520 222Q540 202 540 169V79Q540 37 511.5 13.5Q483 -10 441 -10Z" glyph-name="uni215A" horiz-adv-x="577" unicode="&#8538;" /><glyph d="M397 716H443L158 -2H111ZM438 223Q455 223 464.5 234Q474 245 474 260V319Q474 336 463 345Q452 354 437 354Q421 354 410.5 344.5Q400 335 400 320V260Q400 243 411 233Q422 223 438 223ZM438 37Q457 37 466.5 47.5Q476 58 476 75V140Q476 159 464 168.5Q452 178 437 178Q420 178 409 168.5Q398 159 398 142V74Q398 58 408.5 47.5Q419 37 438 37ZM437 -10Q393 -10 366 11.5Q339 33 339 76V136Q339 158 350 174.5Q361 191 378 201Q361 209 352 226Q343 243 343 261V317Q343 359 370.5 380.5Q398 402 437 402Q476 402 504 381.5Q532 361 532 318V263Q532 243 522.5 226.5Q513 210 495 202Q512 193 524 176.5Q536 160 536 138V76Q536 34 507.5 12Q479 -10 437 -10ZM112 655 76 645 68 689 136 716H171V316H112Z" glyph-name="uni215B" horiz-adv-x="577" unicode="&#8539;" /><glyph d="M410 716H456L171 -2H124ZM133 305Q81 305 59 335Q37 365 37 406V425H94V404Q94 383 104.5 369.5Q115 356 132 356Q170 356 170 425Q170 463 154.5 477.5Q139 492 125 492H96V540H123Q144 540 155 555.5Q166 571 166 606Q166 640 155.5 653Q145 666 130 666Q112 666 103 652Q94 638 94 617V599H39V621Q39 666 63.5 691Q88 716 133 716Q179 716 202 687.5Q225 659 225 613Q225 581 213.5 554.5Q202 528 176 518V516Q205 507 218.5 480Q232 453 232 421Q232 360 203.5 332.5Q175 305 133 305ZM444 223Q461 223 470.5 234Q480 245 480 260V319Q480 336 469 345Q458 354 443 354Q427 354 416.5 344.5Q406 335 406 320V260Q406 243 417 233Q428 223 444 223ZM444 37Q463 37 472.5 47.5Q482 58 482 75V140Q482 159 470 168.5Q458 178 443 178Q426 178 415 168.5Q404 159 404 142V74Q404 58 414.5 47.5Q425 37 444 37ZM443 -10Q399 -10 372 11.5Q345 33 345 76V136Q345 158 356 174.5Q367 191 384 201Q367 209 358 226Q349 243 349 261V317Q349 359 376.5 380.5Q404 402 443 402Q482 402 510 381.5Q538 361 538 318V263Q538 243 528.5 226.5Q519 210 501 202Q518 193 530 176.5Q542 160 542 138V76Q542 34 513.5 12Q485 -10 443 -10Z" glyph-name="uni215C" horiz-adv-x="577" unicode="&#8540;" /><glyph d="M408 716H454L169 -2H122ZM131 306Q85 306 61 330Q37 354 37 392V426H94V398Q94 379 104.5 367Q115 355 132 355Q150 355 160.5 367.5Q171 380 171 406V474Q171 521 134 521Q122 521 112 513.5Q102 506 96 496L41 502L50 712H216V660H100Q100 658 99 640Q98 622 97.5 601Q97 580 96 562Q95 544 95 541Q119 565 154 565Q169 565 182.5 560.5Q196 556 207 546Q218 536 224.5 520.5Q231 505 231 483V404Q231 356 202 331Q173 306 131 306ZM442 223Q459 223 468.5 234Q478 245 478 260V319Q478 336 467 345Q456 354 441 354Q425 354 414.5 344.5Q404 335 404 320V260Q404 243 415 233Q426 223 442 223ZM442 37Q461 37 470.5 47.5Q480 58 480 75V140Q480 159 468 168.5Q456 178 441 178Q424 178 413 168.5Q402 159 402 142V74Q402 58 412.5 47.5Q423 37 442 37ZM441 -10Q397 -10 370 11.5Q343 33 343 76V136Q343 158 354 174.5Q365 191 382 201Q365 209 356 226Q347 243 347 261V317Q347 359 374.5 380.5Q402 402 441 402Q480 402 508 381.5Q536 361 536 318V263Q536 243 526.5 226.5Q517 210 499 202Q516 193 528 176.5Q540 160 540 138V76Q540 34 511.5 12Q483 -10 441 -10Z" glyph-name="uni215D" horiz-adv-x="577" unicode="&#8541;" /><glyph d="M399 716H445L160 -2H113ZM94 316Q94 369 102 418.5Q110 468 122.5 512.5Q135 557 151 594Q167 631 184 660H55V712H248V668Q226 634 209 593Q192 552 180 506.5Q168 461 162 412.5Q156 364 156 316ZM442 223Q459 223 468.5 234Q478 245 478 260V319Q478 336 467 345Q456 354 441 354Q425 354 414.5 344.5Q404 335 404 320V260Q404 243 415 233Q426 223 442 223ZM442 37Q461 37 470.5 47.5Q480 58 480 75V140Q480 159 468 168.5Q456 178 441 178Q424 178 413 168.5Q402 159 402 142V74Q402 58 412.5 47.5Q423 37 442 37ZM441 -10Q397 -10 370 11.5Q343 33 343 76V136Q343 158 354 174.5Q365 191 382 201Q365 209 356 226Q347 243 347 261V317Q347 359 374.5 380.5Q402 402 441 402Q480 402 508 381.5Q536 361 536 318V263Q536 243 526.5 226.5Q517 210 499 202Q516 193 528 176.5Q540 160 540 138V76Q540 34 511.5 12Q483 -10 441 -10Z" glyph-name="uni215E" horiz-adv-x="577" unicode="&#8542;" /><glyph d="M140 393V271H88L91 475L96 478L299 482L300 432L178 431L352 257L313 219Z" glyph-name="uni2196" horiz-adv-x="427" unicode="&#8598;" /><glyph d="M88 257 262 431 140 432 141 482 344 478 349 475 352 271H299L300 393L126 219Z" glyph-name="uni2197" horiz-adv-x="427" unicode="&#8599;" /><glyph d="M140 270H262L88 444L126 482L300 309Q300 316 300 333Q300 350 299.5 369.5Q299 389 299 406.5Q299 424 299 431L352 430Q352 422 351.5 392.5Q351 363 350.5 328.5Q350 294 349.5 264.5Q349 235 349 227L344 223L141 219Z" glyph-name="uni2198" horiz-adv-x="427" unicode="&#8600;" /><glyph d="M96 223 91 227 88 430 140 431V309L313 482L352 444L178 270H300L299 219Z" glyph-name="uni2199" horiz-adv-x="427" unicode="&#8601;" /><glyph d="M41 290 37 295 261 519 266 514 368 195 363 191Z" glyph-name="uni25E2" horiz-adv-x="397" unicode="&#9698;" /><glyph d="M37 195 138 514 143 519 368 295 363 290 42 191Z" glyph-name="uni25E3" horiz-adv-x="397" unicode="&#9699;" /><glyph d="M138 196 37 515 42 519 363 420 368 415 143 191Z" glyph-name="uni25E4" horiz-adv-x="397" unicode="&#9700;" /><glyph d="M37 415 41 420 363 519 368 515 266 196 261 191Z" glyph-name="uni25E5" horiz-adv-x="397" unicode="&#9701;" /><glyph d="M149 -11Q107 -11 80 15.5Q53 42 53 87V524H130V117Q130 56 185 56Q201 56 214 64.5Q227 73 236.5 86.5Q246 100 251.5 117Q257 134 257 152V524H334V0H260V57H259Q242 24 212.5 6.5Q183 -11 149 -11Z" glyph-name="uogonek" horiz-adv-x="392" unicode="&#371;" /><glyph d="M149 -11Q107 -11 80 15.5Q53 42 53 87V524H130V117Q130 56 185 56Q201 56 214 64.5Q227 73 236.5 86.5Q246 100 251.5 117Q257 134 257 152V524H334V0H260V57H259Q242 24 212.5 6.5Q183 -11 149 -11ZM196 610Q216 610 227.5 623Q239 636 239 657Q239 677 228 691Q217 705 195 705Q175 705 165 691.5Q155 678 155 656Q155 634 166.5 622Q178 610 196 610ZM196 575Q157 575 135.5 599Q114 623 114 655Q114 690 137 715Q160 740 196 740Q234 740 256 717.5Q278 695 278 660Q278 623 254.5 599Q231 575 196 575Z" glyph-name="uring" horiz-adv-x="392" unicode="&#367;" /><glyph d="M64 598Q69 634 88.5 660.5Q108 687 140 687Q154 687 168 682.5Q182 678 195.5 672.5Q209 667 222.5 662.5Q236 658 250 658Q265 658 272 667.5Q279 677 284 694L327 684Q322 649 302.5 622.5Q283 596 251 596Q237 596 222.5 600.5Q208 605 193.5 610.5Q179 616 166 620.5Q153 625 142 625Q127 625 121 616.5Q115 608 110 589ZM149 -11Q107 -11 80 15.5Q53 42 53 87V524H130V117Q130 56 185 56Q201 56 214 64.5Q227 73 236.5 86.5Q246 100 251.5 117Q257 134 257 152V524H334V0H260V57H259Q242 24 212.5 6.5Q183 -11 149 -11Z" glyph-name="utilde" horiz-adv-x="392" unicode="&#361;" /><glyph d="M17 524H98L170 129H172L247 524H319L208 -2H128Z" glyph-name="v" horiz-adv-x="335" unicode="v" /><glyph d="M22 524H103L156 157H159L222 524H298L362 157H365L418 524H490L398 -1H328L259 388H256L186 -1H114Z" glyph-name="w" horiz-adv-x="509" unicode="w" /><glyph d="M22 524H103L156 157H159L222 524H298L362 157H365L418 524H490L398 -1H328L259 388H256L186 -1H114ZM299 724H383L291 581H231Z" glyph-name="wacute" horiz-adv-x="509" unicode="&#7811;" /><glyph d="M22 524H103L156 157H159L222 524H298L362 157H365L418 524H490L398 -1H328L259 388H256L186 -1H114ZM226 726H284L360 582H294L253 669L211 582H148Z" glyph-name="wcircumflex" horiz-adv-x="509" unicode="&#373;" /><glyph d="M22 524H103L156 157H159L222 524H298L362 157H365L418 524H490L398 -1H328L259 388H256L186 -1H114ZM286 714H352V594H286ZM157 714H223V594H157Z" glyph-name="wdieresis" horiz-adv-x="509" unicode="&#7813;" /><glyph d="M147 724H230L298 581H239ZM22 524H103L156 157H159L222 524H298L362 157H365L418 524H490L398 -1H328L259 388H256L186 -1H114Z" glyph-name="wgrave" horiz-adv-x="509" unicode="&#7809;" /><glyph d="M430 51V664H95V51ZM43 713H482V0H43Z" glyph-name="whitesquare" horiz-adv-x="525" unicode="&#9633;" /><glyph d="M125 267 21 524H102L173 338L242 524H312L210 272L321 0H240L163 198L85 0H14Z" glyph-name="x" horiz-adv-x="334" unicode="x" /><glyph d="M83 -172Q54 -172 27 -165L36 -102Q58 -108 75 -108Q91 -108 103.5 -99.5Q116 -91 123 -63L140 11L17 524H97L176 150H179L249 524H320L196 -42Q182 -108 155.5 -140Q129 -172 83 -172Z" glyph-name="y" horiz-adv-x="336" unicode="y" /><glyph d="M217 724H301L209 581H149ZM83 -172Q54 -172 27 -165L36 -102Q58 -108 75 -108Q91 -108 103.5 -99.5Q116 -91 123 -63L140 11L17 524H97L176 150H179L249 524H320L196 -42Q182 -108 155.5 -140Q129 -172 83 -172Z" glyph-name="yacute" horiz-adv-x="336" unicode="&#253;" /><glyph d="M147 726H205L281 582H215L174 669L132 582H69ZM83 -172Q54 -172 27 -165L36 -102Q58 -108 75 -108Q91 -108 103.5 -99.5Q116 -91 123 -63L140 11L17 524H97L176 150H179L249 524H320L196 -42Q182 -108 155.5 -140Q129 -172 83 -172Z" glyph-name="ycircumflex" horiz-adv-x="336" unicode="&#375;" /><glyph d="M206 714H272V594H206ZM77 714H143V594H77ZM83 -172Q54 -172 27 -165L36 -102Q58 -108 75 -108Q91 -108 103.5 -99.5Q116 -91 123 -63L140 11L17 524H97L176 150H179L249 524H320L196 -42Q182 -108 155.5 -140Q129 -172 83 -172Z" glyph-name="ydieresis" horiz-adv-x="336" unicode="&#255;" /><glyph d="M148 264H40V320H141L11 714H97L193 407L286 714H365L238 320H338V264H230V0H148Z" glyph-name="yen" horiz-adv-x="377" unicode="&#165;" /><glyph d="M60 724H143L211 581H152ZM83 -172Q54 -172 27 -165L36 -102Q58 -108 75 -108Q91 -108 103.5 -99.5Q116 -91 123 -63L140 11L17 524H97L176 150H179L249 524H320L196 -42Q182 -108 155.5 -140Q129 -172 83 -172Z" glyph-name="ygrave" horiz-adv-x="336" unicode="&#7923;" /><glyph d="M30 53 190 460H33V524H276V465L118 65H277V0H30Z" glyph-name="z" horiz-adv-x="304" unicode="z" /><glyph d="M30 53 190 460H33V524H276V465L118 65H277V0H30ZM192 724H276L184 581H124Z" glyph-name="zacute" horiz-adv-x="304" unicode="&#378;" /><glyph d="M30 53 190 460H33V524H276V465L118 65H277V0H30ZM48 727H113L155 640L196 727H260L182 583H123Z" glyph-name="zcaron" horiz-adv-x="304" unicode="&#382;" /><glyph d="M122 716H191V594H122ZM30 53 190 460H33V524H276V465L118 65H277V0H30Z" glyph-name="zdotaccent" horiz-adv-x="304" unicode="&#380;" /><glyph d="M202 60Q242 60 258.5 83Q275 106 275 135V584Q275 612 256 634Q237 656 201 656Q164 656 145.5 634Q127 612 127 585V134Q127 105 145.5 82.5Q164 60 202 60ZM200 -10Q133 -10 89.5 27.5Q46 65 46 138V581Q46 617 59 644Q72 671 93.5 688.5Q115 706 143 715Q171 724 202 724Q233 724 260.5 715.5Q288 707 309 689.5Q330 672 342 645.5Q354 619 354 584V137Q354 100 342 72.5Q330 45 309 26.5Q288 8 260 -1Q232 -10 200 -10Z" glyph-name="zero" horiz-adv-x="401" unicode="0" /><glyph d="M205 60Q245 60 261.5 83Q278 106 278 135V584Q278 612 259 634Q240 656 204 656Q167 656 148.5 634Q130 612 130 585V134Q130 105 148.5 82.5Q167 60 205 60ZM203 -10Q136 -10 92.5 27.5Q49 65 49 138V581Q49 617 62 644Q75 671 96.5 688.5Q118 706 146 715Q174 724 205 724Q236 724 263.5 715.5Q291 707 312 689.5Q333 672 345 645.5Q357 619 357 584V137Q357 100 345 72.5Q333 45 312 26.5Q291 8 263 -1Q235 -10 203 -10Z" glyph-name="zero.LT" horiz-adv-x="409" unicode="&#58687;" /><glyph d="M129 39Q150 39 158.5 51Q167 63 167 80V314Q167 329 157.5 340.5Q148 352 128 352Q108 352 98.5 340.5Q89 329 89 313V79Q89 64 99 51.5Q109 39 129 39ZM129 -10Q86 -10 58 12.5Q30 35 30 80V311Q30 357 60 379Q90 401 129 401Q168 401 197.5 379.5Q227 358 227 313V81Q227 35 198 12.5Q169 -10 129 -10Z" glyph-name="zero.dnom" horiz-adv-x="257" unicode="&#58370;" /><glyph d="M129 357Q150 357 158.5 369Q167 381 167 398V632Q167 647 157.5 658.5Q148 670 128 670Q108 670 98.5 658.5Q89 647 89 631V397Q89 382 99 369.5Q109 357 129 357ZM129 308Q86 308 58 330.5Q30 353 30 398V629Q30 675 60 697Q90 719 129 719Q168 719 197.5 697.5Q227 676 227 631V399Q227 353 198 330.5Q169 308 129 308Z" glyph-name="zero.numr" horiz-adv-x="257" unicode="&#58390;" /></font>
</defs>
</svg>
