<svg id="Layer_1" data-name="Layer 1" xmlns="http://www.w3.org/2000/svg" viewBox="0 0 99.75 106.27"><defs><style>.cls-1{fill:#00d7ff;}</style></defs><title>Vector Smart Object4</title><path class="cls-1" d="M73.5,126.15c15.12,0,26.06-8.06,26.06-23.18V81.65c0-14-11.66-21.17-23.47-21.17-8.5,0-19.15,4.75-23.76,14.11V43.78c0-10.8,7.34-20,20.88-20,11.66,0,21,6.48,21,16.7V45.8h4.18V39.61c0-12.1-10.51-19.73-25.06-19.73-14.83,0-25.49,8.93-25.49,24.62l-0.14,56.59C47.73,115.64,58.09,126.15,73.5,126.15Zm0.86-4c-13.68,0-22-8.93-22-20.16V85.83c0-11.81,11.38-21,22.9-21C84.73,64.81,95,69.13,95,83v21C95,113.48,87.76,122.12,74.36,122.12Z" transform="translate(-47.73 -19.88)"/><path class="cls-1" d="M118.35,125.2c3,0,4.92-1.82,4.92-4.11,0-2.66-1.6-3.51-4.72-3.91-2-.29-2.39-0.72-2.39-1.64s0.65-1.46,1.93-1.46a1.86,1.86,0,0,1,2.14,1.71h2.68c-0.23-2.56-1.93-3.85-4.83-3.85s-4.68,1.64-4.68,3.84c0,2.48,1.35,3.48,4.65,3.91,1.89,0.29,2.43.65,2.43,1.67a1.85,1.85,0,0,1-2.12,1.71c-1.91,0-2.39-1-2.52-2.11H113C113.2,123.55,114.82,125.2,118.35,125.2Z" transform="translate(-47.73 -19.88)"/><path class="cls-1" d="M125.37,125H134v-2.27h-5.78v-3.2h4.39v-2.12h-4.39v-3h5.49v-2.27h-8.39V125Z" transform="translate(-47.73 -19.88)"/><path class="cls-1" d="M141.7,125.2c3.17,0,5.46-1.64,5.78-4.83h-2.86a2.7,2.7,0,0,1-3,2.47c-2.12,0-3.35-1.55-3.35-4.21v-0.14c0-2.66,1.3-4.25,3.33-4.25a2.46,2.46,0,0,1,2.7,2.38h3c-0.31-3.17-2.61-4.68-5.71-4.68a6.24,6.24,0,0,0-6.39,6.57v0.14C135.23,122.61,137.49,125.2,141.7,125.2Z" transform="translate(-47.73 -19.88)"/></svg>