<svg id="Layer_1" data-name="Layer 1" xmlns="http://www.w3.org/2000/svg" viewBox="0 0 126.09 133.13"><defs><style>.cls-1{fill:#00d7ff;}</style></defs><title>Vector Smart Object4</title><polygon class="cls-1" points="0 133.13 0 46.55 24.49 37.26 25.55 40.07 3 48.62 3 128.78 40.64 114.5 85.38 129.36 123.09 115.06 123.09 34.9 101.55 43.07 100.49 40.27 126.09 30.56 126.09 117.13 85.45 132.54 40.7 117.69 0 133.13"/><rect class="cls-1" x="84.41" y="70.27" width="2" height="60.68"/><rect class="cls-1" x="39.67" y="70.33" width="2" height="45.76"/><path class="cls-1" d="M75.49,100.3L66,86.11a39.53,39.53,0,1,1,18.75.25Zm0.42-89a36.54,36.54,0,0,0-8.6,72l0.57,0.14,7.61,11.41L83,83.68l0.6-.13A36.54,36.54,0,0,0,75.91,11.29Z" transform="translate(-12.86 -8.29)"/><path class="cls-1" d="M75.72,21c-7.42,0-15.83,7-15.83,7V66.91S69,73.38,75.72,73.38s15.83-6.47,15.83-6.47V28S83.14,21,75.72,21ZM84.37,26a40.72,40.72,0,0,1,3.78,2.34c-3.33,1.88-9.36,4.91-12.43,4.91a17,17,0,0,1-5.6-1.54C71.56,29.81,74.38,28,78,26.86A14.63,14.63,0,0,1,84.37,26Zm-8.65-2.72a13.53,13.53,0,0,1,4,.67,22.61,22.61,0,0,0-2.46.64c-4.32,1.41-7.64,3.62-9.31,6.16-1.73-.81-3.37-1.67-4.66-2.39,0.79-.56,1.78-1.21,2.93-1.88C69.8,24.42,73.09,23.31,75.72,23.31Zm0,47.72c-4.34,0-10.5-3.42-13.48-5.37V30.51c3.16,1.75,9.73,5.13,13.48,5.13s10.45-3.46,13.48-5.16V65.67C86.21,67.62,80.07,71,75.72,71ZM85.93,50.49a4.69,4.69,0,0,1-4.69,4.68,4.75,4.75,0,0,1-3.19-1.26L73,48.7a3.29,3.29,0,0,0-2.06-.94,2.73,2.73,0,1,0,0,5.46,3.16,3.16,0,0,0,2-.93l0.77-.61,1.21,1.53-0.77.61a5,5,0,0,1-3.22,1.36,4.68,4.68,0,1,1,0-9.37,5.14,5.14,0,0,1,3.41,1.48l5,5.17a2.73,2.73,0,1,0-.18-3.74l-0.72.66L77.12,48l0.71-.67a5,5,0,0,1,3.41-1.48A4.69,4.69,0,0,1,85.93,50.49Z" transform="translate(-12.86 -8.29)"/></svg>