<?xml version="1.0" standalone="no"?>
<!DOCTYPE svg PUBLIC "-//W3C//DTD SVG 1.1//EN" "http://www.w3.org/Graphics/SVG/1.1/DTD/svg11.dtd" >
<svg xmlns="http://www.w3.org/2000/svg">
<metadata>Generated by IcoMoon</metadata>
<defs>
<font id="gogoro-icons" horiz-adv-x="1024">
<font-face units-per-em="1024" ascent="960" descent="-64" />
<missing-glyph horiz-adv-x="1024" />
<glyph unicode="&#x20;" d="" horiz-adv-x="512" />
<glyph unicode="&#xe600;" d="M517.818 935.052c-104.797 0-293.888-130.513-293.888-130.513v-722.432c0 0 183.948-124.509 293.888-124.509 109.964 0 293.888 124.509 293.888 124.509v722.409c0 0-189.091 130.537-293.888 130.537zM741.772 795.020c-62.836-34.932-169.216-87.599-223.953-87.599-26.065 0-64.326 12.172-104.122 28.719 60.556 51.828 173.731 93.719 262.214 96.489 23.040-12.195 45.498-25.111 65.862-37.609zM597.807 869.097c-88.25-18.525-179.13-61.626-229.655-112.617-27.183 12.916-53.225 26.508-74.636 38.307 71.82 44.148 170.612 94.255 224.326 94.255 21.085 0 49.245-7.843 79.965-19.945zM684.73 60.625c-70.586-36.771-129.862-57.018-166.912-57.018-69.329 0-188.113 65.769-247.855 103.424v648.215c59.881-33.094 179.153-93.836 247.855-93.836 69.935 0 190.115 62.045 247.855 94.278v-648.541c-18.269-11.473-47.383-29.021-80.943-46.522zM620.567 471.133c-21.527 0-42.17-8.96-61.347-26.671l-0.14-0.093-0.14-0.14-10.566-10.659-24.297-24.436-34.304 35.142c-19.503 17.548-40.774 26.833-61.51 26.833-46.406 0-84.154-37.795-84.154-84.247 0-46.406 37.748-84.177 84.154-84.177 24.762 0 42.263 12.195 58.089 24.692l10.752 11.124 26.787 26.95 37.516-38.47 1.606-1.42c19.572-15.151 33.839-22.854 57.553-22.854 46.406 0 84.177 37.772 84.177 84.177 0 46.452-37.772 84.247-84.177 84.247zM465.082 349.789c-13.894-10.775-23.855-16.407-36.817-16.407-29.487 0-53.457 23.994-53.457 53.504 0 29.556 23.971 53.551 53.457 53.551 16.477 0 31.395-10.31 40.285-18.269l33.932-34.769-37.399-37.609zM620.567 333.382c-13.708 0-21.644 3.281-37.935 15.802l-37.12 38.028 34.653 34.863c13.452 12.358 26.671 18.385 40.378 18.385 29.51 0 53.504-24.017 53.504-53.551 0.023-29.533-23.971-53.527-53.481-53.527z" />
<glyph unicode="&#xe601;" d="M512 960c-282.496 0-511.484-229.28-511.484-512.008 0-282.804 228.988-511.992 511.484-511.992s511.484 229.188 511.484 511.992c0 282.728-228.988 512.008-511.484 512.008zM647.416 450.136h-88.576c0-141.708 0-316.208 0-316.208h-131.308c0 0 0 172.716 0 316.208h-62.44v111.652h62.436v72.32c0 51.772 24.564 132.592 132.484 132.592l97.216-0.36v-108.44c0 0-59.116 0-70.584 0-11.492 0-27.808-5.788-27.808-30.372v-65.744h100.072l-11.492-111.648z" />
<glyph unicode="&#xe602;" d="M723.364 560.076v94.324h-12.308l-82.040-0.324 0.32-94.324 94.028 0.324zM509.448 342.236c54.016 0 98 43.94 98 97.968 0 21.364-6.92 41.052-18.564 57.132-17.78 24.652-46.736 40.872-79.436 40.872s-61.584-16.22-79.432-40.872c-11.6-16.080-18.524-35.764-18.524-57.132 0-54.028 43.944-97.968 97.956-97.968zM511.984 960c-282.748 0-511.984-229.172-511.984-511.976 0-282.768 229.236-512.024 511.984-512.024 282.752 0 512.016 229.256 512.016 512.024 0 282.804-229.264 511.976-512.016 511.976zM787.772 269.444c0-59.308-48.268-107.584-107.576-107.584h-341.5c-59.3 0-107.568 48.272-107.568 107.584v341.508c0 59.312 48.264 107.584 107.568 107.584h341.508c59.3 0 107.572-48.268 107.572-107.584v-341.508h-0.004zM661.676 440.204c0-83.928-68.252-152.216-152.228-152.216-83.928 0-152.188 68.284-152.188 152.216 0 20.22 4.032 39.444 11.208 57.132h-83.108v-227.884c0-29.444 23.916-53.352 53.336-53.352h341.508c29.416 0 53.336 23.908 53.336 53.352v227.884h-83.108c7.176-17.688 11.244-36.912 11.244-57.132z" />
<glyph unicode="&#xe603;" d="M512 960c-282.456 0-511.484-229.28-511.484-512.008 0-282.764 229.028-511.992 511.484-511.992 282.496 0 511.484 229.228 511.484 511.992 0 282.728-228.988 512.008-511.484 512.008zM769.688 551.212c0.248-5.536 0.36-11.072 0.36-16.684 0-170.504-129.664-367.16-366.752-367.16-72.792 0-140.556 21.368-197.6 57.988 10.104-1.176 20.348-1.784 30.74-1.784 60.404 0 115.992 20.616 160.12 55.248-56.412 1.036-104.004 38.372-120.424 89.604 7.856-1.54 15.92-2.32 24.28-2.32 11.744 0 23.132 1.572 33.944 4.54-58.976 11.86-103.42 64.028-103.42 126.48 0 0.572 0 1.108 0.036 1.644 17.352-9.644 37.24-15.472 58.372-16.148-34.6 23.18-57.344 62.628-57.344 107.396 0 23.652 6.36 45.844 17.42 64.92 63.584-78.104 158.584-129.448 265.72-134.844-2.212 9.428-3.352 19.292-3.352 29.408 0 71.244 57.728 129.020 128.916 129.020 37.088 0 70.584-15.684 94.072-40.732 29.388 5.752 56.976 16.504 81.864 31.296-9.6-30.156-30.060-55.416-56.692-71.388 26.092 3.104 50.936 10.076 74.080 20.292-17.284-25.828-39.172-48.588-64.34-66.776z" />
<glyph unicode="&#xe604;" d="M1023.932 928.268l-31.668 31.66-480.264-480.492-480.268 480.492-31.664-31.66 480.496-480.268-480.496-480.264 31.664-31.664 480.268 480.492 480.264-480.492 31.668 31.664-480.496 480.264z" />
<glyph unicode="&#xe605;" d="M783.8 928.268l-480.492-480.268 480.492-480.264-31.664-31.664-511.936 511.928 511.936 511.928z" />
<glyph unicode="&#xe606;" d="M31.732 719.8l480.268-480.492 480.264 480.492 31.668-31.664-511.932-511.936-511.932 511.936z" />
<glyph unicode="&#xe607;" d="M240.2-32.264l480.492 480.264-480.492 480.268 31.664 31.66 511.936-511.928-511.936-511.928z" />
<glyph unicode="&#xe608;" d="M992.264 176.2l-480.264 480.5-480.268-480.5-31.664 31.664 511.932 511.936 511.932-511.936z" />
<glyph unicode="&#xe609;" d="M1024 448c0-282.77-229.23-512-512-512s-512 229.23-512 512c0 282.77 229.23 512 512 512s512-229.23 512-512z" />
<glyph unicode="&#xe60a;" d="M512 704c141.124 0 256-114.872 256-256 0-141.124-114.876-256-256-256-141.128 0-256 114.876-256 256 0 141.128 114.872 256 256 256zM512 960c-282.748 0-512-229.252-512-512s229.252-512 512-512c282.748 0 512 229.252 512 512s-229.252 512-512 512v0z" />
<glyph unicode="&#xe60b;" d="M511.968 269.668c-98.324 0-178.316 80.008-178.316 178.348 0 47.608 18.552 92.388 52.248 126.084 33.692 33.696 78.464 52.252 126.068 52.252 98.352 0 178.364-80 178.364-178.332 0-98.344-80.012-178.352-178.364-178.352zM511.968 592.216c-38.488 0-74.688-15.004-101.932-42.252-27.248-27.248-42.252-63.456-42.248-101.948 0-79.52 64.68-144.216 144.18-144.216 79.528 0 144.232 64.696 144.232 144.216 0 79.512-64.704 144.2-144.232 144.2zM275.824 460.8h-86.392v-25.6h86.396c-0.228 4.248-0.356 8.516-0.356 12.816-0.004 4.292 0.124 8.552 0.352 12.784zM748.2 460.8c0.228-4.236 0.356-8.496 0.356-12.784 0-4.3-0.128-8.572-0.356-12.816h86.372v25.6h-86.372zM524.8 684.172v86.396h-25.6v-86.392c4.228 0.224 8.484 0.352 12.768 0.352 4.304 0.004 8.584-0.128 12.832-0.356zM499.2 211.796v-86.368h25.6v86.376c-4.248-0.232-8.528-0.36-12.832-0.36-4.284 0-8.54 0.132-12.768 0.352zM354.064 624.044l-61.096 61.096-18.1-18.1 61.096-61.096c5.704 6.356 11.744 12.396 18.1 18.1zM669.948 271.956l61.096-61.096 18.1 18.1-61.096 61.096c-5.7-6.352-11.744-12.396-18.1-18.1zM335.956 290.052l-61.088-61.092 18.1-18.1 61.088 61.084c-6.352 5.708-12.392 11.752-18.1 18.108zM688.048 605.936l61.1 61.1-18.1 18.1-61.104-61.104c6.352-5.7 12.396-11.74 18.104-18.096zM512 925.868c127.64 0 247.644-49.708 337.908-139.964 90.256-90.256 139.96-210.264 139.96-337.904s-49.708-247.644-139.96-337.908c-90.252-90.256-210.26-139.96-337.908-139.96s-247.644 49.708-337.904 139.96c-90.26 90.26-139.964 210.268-139.964 337.908 0 127.644 49.708 247.644 139.964 337.904s210.26 139.964 337.904 139.964zM512 960c-282.768 0-512-229.232-512-512 0-282.764 229.232-512 512-512 282.764 0 512 229.236 512 512 0 282.768-229.236 512-512 512v0z" />
<glyph unicode="&#xe60c;" d="M512 925.868c127.64 0 247.644-49.708 337.904-139.964s139.964-210.264 139.964-337.904-49.708-247.644-139.964-337.904-210.264-139.964-337.904-139.964-247.644 49.708-337.904 139.964-139.964 210.264-139.964 337.904c0 127.644 49.708 247.644 139.964 337.904s210.26 139.964 337.904 139.964zM512 960c-282.768 0-512-229.232-512-512 0-282.764 229.232-512 512-512 282.764 0 512 229.236 512 512 0 282.768-229.236 512-512 512v0zM518.388 691.412c19.828-0.98 39.456-4.584 58.5-10.752 120.004-38.836 186.084-168.040 147.32-288.004-30.652-94.784-118.096-158.468-217.596-158.468-23.828 0-47.536 3.752-70.452 11.16-19.176 6.204-37.2 14.8-53.78 25.572 93.108 11.792 171.904 75.984 201.384 167.132 19.728 61 14.884 126.216-13.64 183.632-13.172 26.504-30.708 50.012-51.736 69.728zM507.288 725.82c-29.608 0-58.672-5.064-86.104-14.52 107.052-37.8 165.236-154.1 130.1-262.752-28.78-88.988-111.26-145.456-199.984-145.456-19.636 0-39.568 2.764-59.304 8.556 31.668-44.916 77.368-80.568 133.652-98.78 26.888-8.688 54.164-12.816 80.96-12.816 111.008 0 214.092 70.824 250.072 182.096 44.632 138.116-31.068 286.252-169.284 330.984-26.6 8.62-53.572 12.688-80.108 12.688v0z" />
<glyph unicode="&#xe60d;" d="M658.651 712.411l-25.819-30.793 79.653-66.779 25.819 30.757c18.322 21.979 15.506 54.821-6.51 73.253-21.833 18.395-54.711 15.506-73.143-6.437zM292.242 275.749l-10.898-93.696 90.478 26.917 311.845 371.639-79.616 66.779-311.808-371.639zM512 960c-282.734 0-512-229.266-512-512s229.266-512 512-512c282.77 0 512 229.266 512 512s-229.23 512-512 512zM772.535 616.887l-375.113-446.976-168.375-50.103 20.297 174.409 375.040 447.013c34.304 40.777 95.378 46.153 136.155 11.922 40.814-34.377 46.263-95.488 11.995-136.265z" />
<glyph unicode="&#xe60e;" d="M528.058 757.83c-40.634 0-79.686-6.796-116.201-19.177l12.335-28.183c32.698 10.775 67.584 16.687 103.843 16.687 116.131 0 218.508-59.857 278.016-150.295l27.136 14.476c-64.721 100.049-177.268 166.493-305.129 166.493zM271.872 606.161c25.879 31.232 57.204 57.763 92.695 77.894l-12.358 28.253c-40.727-22.621-76.591-52.876-105.821-88.739l25.484-17.408zM212.643 499.735c6.121 18.199 13.708 35.724 22.714 52.364l-25.437 17.385c-10.961-19.852-20.131-40.797-27.299-62.673l30.022-7.075zM874.961 508.16l-17.059 42.729-262.656-104.844c-15.802 19.596-39.983 32.186-67.165 32.186-47.709 0-86.388-38.819-86.388-86.365 0-47.849 38.679-86.412 86.388-86.412 47.756 0 86.342 38.563 86.342 86.412 0 4.049-0.396 8.029-0.908 11.939l261.446 104.355zM713.1 150.365h42.356c5.562-42.892 22.737-79.22 95.372-79.22 46.452 0 82.269 27.252 82.269 68.119 0 40.89-18.688 58.042-87.296 69.143-75.706 11.613-120.623 35.328-120.623 99.398 0 55.505 47.942 97.885 116.061 97.885 72.169 0 117.062-35.328 124.137-99.398h-39.354c-8.588 45.405-34.816 64.093-84.783 64.093-49.455 0-75.171-24.716-75.171-58.554 0-35.328 13.103-53.481 86.784-64.559 80.244-12.614 122.647-36.841 122.647-104.96 0-60.579-52.992-106.473-124.649-106.473-96.396-0.023-131.212 52.945-137.751 114.525zM124.928 305.478c-6.307 28.858-9.635 58.624-9.635 88.902 0 227.584 185.111 412.742 412.649 412.742 181.876 0 336.547-118.319 391.401-281.996l42.752 17.175c-61.719 180.573-232.96 310.807-434.153 310.807-252.905 0-458.659-205.801-458.659-458.752 0-30.208 2.909-59.927 8.588-88.902h47.057z" />
<glyph unicode="&#xe60f;" d="M315.372 176.271h62.034l-35.533 259.604h-62.013zM501.76 435.876h61.44v-259.604h-61.44v259.604zM785.101 435.876h-62.013l-35.533-259.604h62.034zM727.675 629.494v256.43h-390.39v-256.43h-331.366l172.708-636.109h707.727l172.728 636.109h-331.407zM398.725 824.484h267.51v-193.659h-267.51v193.659zM839.332 54.845h-613.704l-139.366 513.229h892.457l-139.387-513.229z" horiz-adv-x="1065" />
<glyph unicode="&#xe610;" d="M491.52 939.52h-409.6c-45.179 0-81.92-36.741-81.92-81.92v-819.2c0-45.179 36.741-81.92 81.92-81.92h409.6c45.179 0 81.92 36.741 81.92 81.92v819.2c0 45.179-36.741 81.92-81.92 81.92zM81.92 878.080h409.6c11.305 0 20.48-9.196 20.48-20.48v-122.88h-450.56v122.88c0 11.284 9.175 20.48 20.48 20.48zM512 673.28v-491.52h-450.56v491.52h450.56zM491.52 17.92h-409.6c-11.305 0-20.48 9.175-20.48 20.48v81.92h450.56v-81.92c0-11.305-9.175-20.48-20.48-20.48zM225.28 837.12h122.88v-61.44h-122.88v61.44z" horiz-adv-x="573" />
<glyph unicode="&#xe611;" d="M440.32 881.5c-239.964 0-435.2-193.311-435.2-430.92 0-10.772 0-43.561 31.15-43.561h107.090v-198.103c0-8.54-0.717-84.419 54.6-118.661 16.077-9.933 34.55-14.93 55.276-14.93 30.392 0 65.7 10.67 105.574 31.949l-28.918 54.19c-45.036-24.023-80.364-30.74-99.451-19.067-21.77 13.353-25.907 51.405-25.641 65.659v198.984h161.096c13.681 0 23.224-20.787 23.224-39.444v-220.938c-0.041-6.513 0.778-64.799 38.195-102.4 19.354-19.476 45.343-29.757 75.1-29.757 30.904 0 65.556 10.486 106.004 32.031 166.031 88.515 265.175 237.978 265.175 399.77 0 239.985-194.355 435.2-433.275 435.2zM579.502 100.741c-30.884-16.466-56.791-24.801-77.087-24.801-50.094 0-51.814 63.345-51.855 70.574v221.082c0 49.582-31.662 100.884-84.664 100.884h-298.906c9.462 195.461 173.302 351.58 373.33 351.58 205.046 0 371.835-167.67 371.835-373.76 0-140.78-84.787-266.711-232.653-345.559z" horiz-adv-x="881" />
<glyph unicode="&#xe612;" d="M965.181 270.643l90.849 475.32h-804.946l-36.925 147.722h-209.039v-61.44h161.075l158.413-633.754c-27.73-19.579-45.978-51.712-45.978-88.166 0-59.576 48.476-108.032 108.032-108.032 49.091 0 90.153 33.096 103.26 78.029h241.869c13.107-44.913 54.19-78.029 103.26-78.029 59.576 0 108.032 48.456 108.032 108.032s-48.476 108.032-108.032 108.032c-48.579 0-89.272-32.42-102.83-76.616h-242.729c-13.558 44.196-54.252 76.616-102.83 76.616-1.249 0-2.396-0.328-3.625-0.369l-13.148 52.613h595.292zM835.072 156.938c25.702 0 46.592-20.91 46.592-46.592s-20.91-46.592-46.592-46.592-46.592 20.89-46.592 46.592 20.89 46.592 46.592 46.592zM433.275 110.346c0-25.702-20.91-46.592-46.592-46.592s-46.592 20.91-46.592 46.592 20.91 46.592 46.592 46.592 46.592-20.89 46.592-46.592zM981.729 684.524l-67.359-352.44h-559.821l-88.105 352.44h715.284z" horiz-adv-x="1065" />
<glyph unicode="&#xe613;" d="M760.34 944.64h61.44v-164.27h-61.44v164.27zM1079.009-58.88c-93.286 0-169.165 75.899-169.165 169.206 0 93.286 75.878 169.165 169.165 169.165s169.185-75.878 169.185-169.165c0-93.307-75.899-169.206-169.185-169.206zM1079.009 218.030c-59.392 0-107.725-48.312-107.725-107.725s48.312-107.766 107.725-107.766c59.412 0 107.745 48.333 107.745 107.766 0 59.412-48.333 107.725-107.745 107.725zM190.751-58.88c-93.286 0-169.185 75.899-169.185 169.206 0 93.286 75.899 169.165 169.185 169.165s169.165-75.878 169.165-169.165c0-93.307-75.878-169.206-169.165-169.206zM190.751 218.030c-59.412 0-107.745-48.312-107.745-107.725s48.333-107.766 107.745-107.766c59.392 0 107.725 48.333 107.725 107.766 0 59.412-48.333 107.725-107.725 107.725zM677.274 77.496c-49.418 0-97.956 12.759-131.318 34.038-35.41 22.61-52.797 54.497-47.718 87.511 2.744 17.9 7.905 38.113 13.353 59.535 16.077 63.119 36.086 141.681-4.69 175.227-36.966 30.392-229.376 64.492-322.212 50.319-39.711-6.062-68.854-22.323-82.043-45.773-11.837-21.033-10.998-48.108 2.478-80.425l-56.73-23.634c-26.276 63.119-14.111 107.807 0.717 134.185 22.651 40.284 67.502 67.42 126.3 76.39 97.649 14.95 313.385-16.609 370.524-63.59 70.902-58.327 44.483-162.099 25.19-237.834-5.079-19.948-9.871-38.769-12.186-53.74-1.72-11.162 13.435-22.159 20.050-26.358 45.875-29.266 136.274-35.86 188.662-0.963 71.762 47.862 74.772 283.156 5.734 449.618l-22.221 53.617 56.832-11.756c188.805-39.055 271.503-194.028 281.027-288.645l-61.133-6.164c-6.451 64.246-60.232 170.455-176.886 217.887 22.508-74.281 34.796-158.925 33.669-236.626-1.659-113.132-31.109-194.499-82.924-229.048-35.287-23.532-80.22-33.772-124.477-33.772z" horiz-adv-x="1270" />
<glyph unicode="&#xe614;" d="M922.205 296.192l-156.113 142.499c-103.401 11.101-154.624 87.808-169.216 157.44h-27.904c-45.265-64.303-125.719-73.588-168.983-54.575-28.183 12.404-40.913 36.236-33.257 62.208 8.96 30.324 30.72 69.306 64.303 102.749-64.559-20.247-119.482-42.054-120.506-42.449l-6.004-2.397-186.671 50.967-72.681-291.724 190.208-86.272-15.942-35.095-219.462 99.491 89.996 361.169 212.294-57.949c34.56 13.475 202.496 77.079 290.7 77.079 86.086 0 196.561-78.801 228.608-103.121l218.95 85.364 89.879-361.961-208.198-103.424zM547.631 634.671h82.455l2.164-16.803c7.82-60.649 50.106-134.074 143.569-141.382l6.609-0.512 146.269-133.516 156.858 77.917-71.889 289.35-198.656-77.475-8.704 6.982c-1.257 1.001-126.673 101.050-212.713 101.539l0.023-0.908c-111.802-3.817-176.244-100.701-189.929-147.014-0.768-2.607-2.839-9.565 11.799-16.012 27.578-12.125 93.487-6.33 126.511 48.5l5.632 9.332zM644.399 56.273c-6.47 0-13.079 0.838-19.712 2.56-31.674 8.262-88.111 55.715-99.119 65.117l25.088 29.277c24.553-21.015 66.746-52.643 83.735-57.065 6.586-1.699 16.244-2.653 24.948 2.583 8.006 4.841 13.824 14.243 16.849 27.183l5.097 21.853 20.852-8.308c21.807-8.751 37.911-3.188 45.079 4.212 6.377 6.586 7.494 15.686 3.188 25.577l-18.153 41.542 42.496-15.756c20.969-7.796 38.633-4.841 51.037 8.471 11.473 12.311 14.522 29.556 11.59 36.003l-18.967 41.705 43.101-15.593c11.729-4.305 32.931-9.868 42.985 0.349 8.541 8.751 9.844 28.672 3.002 46.406l35.956 13.871c10.426-26.973 10.938-64.419-11.404-87.226-10.193-10.426-27.625-20.387-55.994-16.64-2.49-15.942-10.17-32.396-21.969-45.126-16.57-17.804-38.54-26.391-62.836-24.832-1.21-13.242-6.749-25.67-16.314-35.537-16.57-17.152-41.356-23.785-67.631-18.897-6.423-13.987-15.919-24.925-27.927-32.233-10.449-6.284-22.435-9.495-34.979-9.495zM492.87 61.999c0 0 0 0 0 0-18.804 0-36.189 7.401-47.709 20.294-26.252 29.347-25.716 67.724-22.505 111.244 3.444 46.15 34.723 69.353 64.186 71.889 34.839 3.119 62.86-15.057 68.422-44.544 9.146-48.849 5.004-87.901-0.070-112.081-5.795-27.555-31.418-46.801-62.324-46.801zM494.569 227.235c-1.443 0-2.909-0.070-4.375-0.209-4.468-0.396-26.671-3.91-29.091-36.352-2.653-35.793-3.398-64.605 12.777-82.711 9.914-11.055 39.471-10.705 43.59 8.751 6.167 29.347 6.144 63.791-0.070 97.047-2.304 12.148-16.733 13.475-22.831 13.475zM402.223 96.605c-11.311 0-22.388 2.234-32.279 8.122-14.708 8.751-24.017 23.924-27.648 45.103-7.284 42.496-0.070 78.080 21.434 105.751 3.165 4.073 6.237 8.262 9.216 12.358 15.174 20.783 30.86 42.263 56.599 45.312 23.738 2.839 43.683-2.374 57.74-14.871 9.332-8.308 20.48-24.111 20.48-52.154h-38.54c0 11.055-2.537 18.897-7.564 23.366-5.516 4.911-15.29 6.772-27.601 5.376-9.007-1.094-19.665-15.663-29.975-29.766-3.212-4.399-6.493-8.913-9.914-13.289-14.592-18.781-19.27-44.172-13.871-75.59 1.629-9.519 4.794-15.732 9.356-18.455 5.609-3.351 18.572-5.167 48.64 5.050l12.404-36.492c-14.732-5.027-31.86-9.821-48.477-9.821zM330.915 140.753c-18.013 0-32.442 4.166-43.636 12.521-13.568 10.147-21.388 25.577-23.249 45.871-4.212 46.359 2.583 77.498 21.969 100.957 24.762 29.975 39.703 48.081 62.511 56.25 17.548 6.237 42.985 0.093 60.416-14.545 17.943-15.057 25.6-36.678 21.551-60.905l-38.028 6.353c1.722 10.333-0.791 18.339-7.703 24.483-8.844 7.843-20.433 9.216-23.389 8.262-12.148-4.352-22.784-16.78-45.638-44.474-12.591-15.197-16.547-37.004-13.312-72.913 1.233-13.452 6.26-17.199 7.913-18.455 5.329-4.003 17.455-7.61 44.73-2.118l7.564-37.818c-11.613-2.304-22.156-3.468-31.697-3.468zM277.039 201.588c-22.947 0-46.615 9.030-63.139 24.32-14.010 12.963-21.713 29.58-21.713 46.778 0 42.519 39.075 81.827 54.132 93.393 13.475 10.356 34.188 10.985 54.132 1.536 23.459-11.101 37.911-32.279 38.679-56.646l-38.516-1.233c-0.372 11.567-8.518 18.246-13.335 21.225-8.285 5.073-15.965 5.19-17.804 4.305-13.289-10.24-38.749-39.377-38.749-62.58 0-8.122 5.097-14.545 9.356-18.502 10.17-9.402 26.577-15.034 40.518-13.894l2.956-38.447c-2.164-0.163-4.329-0.256-6.516-0.256zM729.93 385.273l137.893-123.386-25.714-28.737-137.893 123.386 25.714 28.737zM654.666 309.393l126.553-118.391-26.314-28.129-126.553 118.391 26.314 28.129zM594.618 248.556l113.935-113.324-27.178-27.325-113.935 113.324 27.178 27.325z" horiz-adv-x="1130" />
<glyph unicode="&#xe615;" d="M837.325 566.989c2.867 17.428 4.731 35.205 4.731 53.432 0 181.596-147.722 329.339-329.298 329.339s-329.318-147.763-329.318-329.359c0-18.002 1.843-35.533 4.649-52.756-105.533-54.948-177.848-165.151-177.848-292.106 0-181.555 147.743-329.277 329.339-329.277 63.263 0 122.204 18.248 172.421 49.275 50.217-31.048 109.158-49.275 172.421-49.275 181.596 0 329.339 147.722 329.339 329.277 0 126.403-71.68 236.257-176.435 291.451zM244.879 620.401c0 147.722 120.177 267.899 267.878 267.899s267.858-120.177 267.858-267.899c0-9.974-0.635-19.804-1.72-29.491-29.962 8.991-61.645 13.967-94.474 13.967-63.263 0-122.204-18.248-172.421-49.295-50.217 31.048-109.158 49.295-172.421 49.295-32.317 0-63.508-4.874-93.041-13.599-1.044 9.585-1.659 19.292-1.659 29.123zM607.437 275.538c0-82.043-37.151-155.484-95.437-204.657-58.286 49.172-95.437 122.614-95.437 204.657 0 9.994 0.635 19.845 1.72 29.532 29.962-8.97 61.645-13.967 94.474-13.967 32.317 0 63.488 4.874 93.020 13.599 1.044-9.585 1.659-19.292 1.659-29.164zM512.758 352.563c-28.058 0-55.091 4.383-80.527 12.411 16.077 45.199 43.786 84.91 79.77 115.261 36.106-30.474 63.877-70.328 79.913-115.732-25.006-7.741-51.589-11.94-79.155-11.94zM376.197 390.41c-53.412 31.846-94.781 81.613-115.814 141.066 25.047 7.762 51.63 11.96 79.196 11.96 42.947 0 83.415-10.404 119.439-28.467-36.454-34.324-64.963-76.8-82.821-124.559zM564.982 514.99c36.024 18.043 76.493 28.467 119.439 28.467 28.058 0 55.091-4.383 80.548-12.411-21.238-59.72-62.996-109.65-116.879-141.373-17.859 48.046-46.469 90.788-83.108 125.317zM339.579 7.7c-147.722 0-267.899 120.156-267.899 267.837 0 98.324 53.391 184.197 132.567 230.81 28.385-76.472 84.132-139.653 155.628-177.316-2.867-17.469-4.731-35.246-4.731-53.473 0-94.331 40.1-179.302 103.895-239.391-36.045-18.063-76.513-28.467-119.46-28.467zM684.421 7.7c-42.947 0-83.415 10.404-119.439 28.447 63.795 60.109 103.895 145.060 103.895 239.391 0 18.022-1.843 35.553-4.649 52.797 71.905 37.437 128.102 100.618 156.754 177.254 78.479-46.776 131.318-132.26 131.318-230.052 0.020-147.681-120.156-267.837-267.878-267.837z" />
<glyph unicode="&#xe616;" d="M726.624 940.8h-429.254c-36.928 0-66.97-27.398-66.97-61.075v-853.632c0-34.957 30.669-64.493 66.97-64.493h429.254c36.307 0 66.976 29.536 66.976 64.493v853.632c0 33.677-30.042 61.075-66.976 61.075zM297.37 921.6h429.254c26.342 0 47.776-18.784 47.776-41.875v-118.125h-524.8v118.125c0 23.091 21.434 41.875 47.77 41.875zM774.4 742.4v-601.6h-524.8v601.6h524.8zM726.624-19.2h-429.254c-25.453 0-47.77 21.165-47.77 45.293v95.507h524.8v-95.507c0-24.128-22.323-45.293-47.776-45.293zM448 825.6h121.6c5.299 0 9.6 4.294 9.6 9.6s-4.301 9.6-9.6 9.6h-121.6c-5.306 0-9.6-4.294-9.6-9.6s4.294-9.6 9.6-9.6z" />
<glyph unicode="&#xe617;" d="M512 953.6c-108.41 0-304.032-135.027-304.032-135.027v-747.366c0 0 190.291-128.806 304.032-128.806s304.032 128.806 304.032 128.806v747.366c0 0-195.622 135.027-304.032 135.027zM709.094 861.062l0.077 0.634c31.648-17.677 58.835-34.65 76.115-45.811-43.098-27.526-184.742-113.478-273.286-113.478-39.213 0-88.864 16.877-135.757 38.067 65.171 69.875 213.446 135.117 332.851 120.589zM671.11 882.042c-110.707-1.811-247.174-58.291-313.018-133.075-51.77 24.902-97.869 53.184-119.379 66.925 51.501 33.286 191.379 118.509 273.286 118.509 43.859 0 104.41-24.499 159.11-52.358zM512-38.4c-93.466 0-247.296 95.674-284.832 119.962v718.874c42.899-27.661 189.158-117.229 284.832-117.229s241.933 89.562 284.832 117.222v-718.874c-37.536-24.282-191.366-119.955-284.832-119.955zM618.304 467.392c-20.634 0-40.531-8.698-59.142-25.843l-0.013 0.019-40.691-40.934-39.642 40.621c-19.014 17.101-39.571 26.144-59.45 26.144-44.544 0-80.794-36.282-80.794-80.883 0-44.57 36.243-80.826 80.794-80.826 23.642 0 40.070 11.45 56.192 24.211l-0.147 0.186 42.925 43.181 43.264-44.346 0.992-0.883c19.552-15.149 32.87-22.355 55.712-22.355 44.563 0 80.819 36.256 80.819 80.826 0 44.602-36.256 80.883-80.819 80.883zM461.363 343.194c-15.571-12.096-26.752-18.304-41.997-18.304-33.965 0-61.594 27.642-61.594 61.626 0 34.010 27.629 61.683 61.594 61.683 19.027 0 35.846-11.539 46.157-20.787l39.405-40.39-43.565-43.827zM618.304 324.89c-15.782 0-25.203 3.866-43.43 17.933l-43.002 44.070 40.237 40.48c15.181 14.010 30.291 20.826 46.195 20.826 33.978 0 61.619-27.667 61.619-61.683 0-33.984-27.642-61.626-61.619-61.626z" />
<glyph unicode="&#xe618;" d="M1014.182 408.666l-77.498 312.096-193.869-75.59c-22.298 17.28-126.47 94.566-205.728 94.566-80.954 0-238.925-60.838-262.88-70.253l-186.707 50.95-77.76-312.038 183.232-83.053c-6.278-11.507-10.598-23.981-10.598-36.16 0-13.203 6.035-26.067 16.986-36.218 12.48-11.565 30.003-18.63 47.411-19.597 0.179-3.283 0.339-6.534 0.659-10.029 1.453-15.917 7.411-27.898 17.722-35.597 8.666-6.477 20.070-9.696 34.509-9.696 5.702 0 11.898 0.531 18.56 1.53 0.013-0.096 0.019-0.186 0.038-0.282 2.848-16.634 9.933-28.422 21.050-35.040 6.918-4.122 14.989-6.182 24.71-6.182 9.171 0 19.898 1.933 32.403 5.619 2.995-7.718 7.168-14.893 12.992-21.402 8.845-9.888 22.323-15.558 36.966-15.565 0 0 0.006 0 0.006 0 23.987 0 43.827 14.688 48.243 35.712 0.422 2.016 0.826 4.262 1.229 6.515 19.117-15.341 52.186-40.179 72.006-45.35 5.318-1.389 10.618-2.074 15.782-2.074 9.83 0 19.174 2.483 27.251 7.354 11.155 6.739 19.558 17.632 24.634 31.827 23.405-6.432 45.894-1.709 60.288 13.133 9.504 9.805 13.792 22.509 12.518 35.827 22.944-4.019 43.904 2.515 59.040 18.771 11.859 12.742 18.592 29.946 18.579 45.056 27.616-6.266 43.507 2.118 52.262 11.066 15.597 15.936 16.87 41.376 11.091 62.195l164.87 81.907zM537.37 721.594c80.922-0.218 197.062-92.89 198.227-93.824l4.090-3.296 184.365 71.878 69.018-277.933-153.28-76.134-134.618 122.912-3.104 0.243c-89.702 7.027-130.24 77.306-137.709 135.347l-1.018 7.917h-62.592l-2.643-4.39c-31.392-52.109-93.946-61.037-125.178-47.283-9.126 4.019-19.2 11.539-15.36 24.557 12.96 43.853 73.984 135.584 179.834 139.2l-0.032 0.806zM246.47 251.558c-12.749 1.011-25.773 6.381-34.784 14.726-5.094 4.717-11.174 12.525-11.174 22.906 0 23.078 23.072 51.552 38.682 63.539 3.373 2.598 12.064 2.938 21.53-1.536 4.23-1.997 17.293-9.536 19.437-24.954-4.474-5.184-9.286-11.008-14.707-17.568-12.083-14.63-18.138-32.493-18.982-57.114zM316.269 197.638c-18.669-2.899-32.211-1.37-40.256 4.64-6.099 4.55-9.536 11.981-10.509 22.707-3.174 34.893 0.998 56.461 13.946 72.128 21.722 26.298 31.878 38.131 45.094 42.861 5.331 1.888 18.611-0.013 28.698-8.448 8.365-6.995 11.942-16.314 10.79-27.68-6.88-6.707-13.082-15.117-19.437-23.814-2.79-3.814-5.626-7.693-8.582-11.501-14.816-19.066-21.344-42.899-19.744-70.893zM348.589 159.853c-6.438 3.834-10.509 11.194-12.448 22.515-5.293 30.867-0.518 56.115 14.189 75.027 3.072 3.949 6.016 7.981 8.909 11.936 10.848 14.842 21.094 28.864 32.896 30.259 9.562 1.101 22.822 0.832 31.552-6.944 5.037-4.48 8.051-11.219 9.139-19.93-19.219-5.069-39.123-21.728-41.67-55.853-1.485-20.083-2.298-38.848 0.557-55.68-20.307-6.035-34.483-6.483-43.123-1.331zM476.877 146.182c-3.091-14.714-17.536-21.299-30.483-21.299 0 0-0.006 0-0.006 0-9.491 0-18.035 3.469-23.45 9.517-16.851 18.829-16.243 46.675-13.69 81.114 2.093 28.006 18.912 39.373 33.958 40.678 1.587 0.134 3.142 0.205 4.666 0.205 15.898 0 26.726-7.123 28.96-19.072 5.85-31.117 5.862-63.488 0.045-91.142zM825.254 277.254c-11.334-11.597-31.040-8.154-46.176-2.906l-123.565 110.573-12.102-13.523 123.149-110.202c3.366-9.766-0.557-27.603-12.461-40.397-9.376-10.074-26.259-19.878-53.677-10.336l-113.21 105.869-12.397-13.248 113.094-105.76c4.506-11.584 2.72-22.752-5.126-30.848-8.486-8.755-25.581-14.835-48.307-6.336l-101.83 101.254-12.794-12.864 99.494-98.938c-3.571-11.59-9.67-20.237-17.83-25.171-8.218-4.954-18.272-6.074-29.075-3.264-17.907 4.672-55.475 33.747-73.869 48.998 1.581 19.213 1.242 43.066-3.91 70.509-3.699 19.718-20.749 32.755-43.757 33.792-1.562 13.44-6.605 24.115-15.162 31.731-10.893 9.69-26.714 13.651-45.728 11.398-2.918-0.346-5.638-1.101-8.269-2.054-1.76 11.693-7.43 22.003-16.87 29.901-13.466 11.264-33.44 16.275-46.445 11.61-8.787-3.142-16.173-8.224-23.885-15.501-4.896 11.053-13.875 20.275-26.061 26.035-14.95 7.066-30.79 6.874-40.346-0.48-7.526-5.779-16.928-15.123-25.248-26.33l-171.898 77.92 69.619 279.366 174.656-47.661 2.822 1.126c1.133 0.454 74.291 29.485 148.205 50.035-46.579-32.71-75.904-80.218-86.138-114.829-5.658-19.162 4.096-36.902 25.453-46.304 20.429-8.986 48.429-9.645 74.906-1.747 29.133 8.678 53.926 27.014 70.349 51.885h36.685c10.778-62.413 55.61-134.067 149.952-142.931l132.883-121.331c5.741-16.294 5.862-37.805-5.133-49.043z" />
</font>
</defs>
</svg>
