<?xml version="1.0" encoding="utf-8"?>
<!-- Generator: Adobe Illustrator 16.0.4, SVG Export Plug-In . SVG Version: 6.00 Build 0)  -->
<!DOCTYPE svg PUBLIC "-//W3C//DTD SVG 1.1//EN" "http://www.w3.org/Graphics/SVG/1.1/DTD/svg11.dtd">
<svg version="1.1" id="Layer_1" xmlns="http://www.w3.org/2000/svg" xmlns:xlink="http://www.w3.org/1999/xlink" x="0px" y="0px"
	 width="27px" height="27px" viewBox="0 0 27 27" enable-background="new 0 0 27 27" xml:space="preserve">
<linearGradient id="SVGID_1_" gradientUnits="userSpaceOnUse" x1="-0.0015" y1="13.5" x2="27.002" y2="13.5">
	<stop  offset="0" style="stop-color:#28E1A5"/>
	<stop  offset="1" style="stop-color:#00D7FF"/>
</linearGradient>
<path fill-rule="evenodd" clip-rule="evenodd" fill="url(#SVGID_1_)" d="M13.328,0.009C13.385,0.008,13.441,0,13.499,0
	c7.458,0,13.503,6.044,13.503,13.5c0,0.059-0.008,0.115-0.01,0.174L13.328,0.009z M17.66,26.34c1.512-0.49,2.904-1.243,4.131-2.2
	L2.86,5.208C1.903,6.435,1.149,7.826,0.659,9.34L17.66,26.34z M9.319,0.667C7.807,1.16,6.417,1.914,5.192,2.873l18.935,18.935
	c0.959-1.225,1.713-2.614,2.207-4.126L9.319,0.667z M0.006,13.354c-0.001,0.049-0.008,0.097-0.008,0.146
	c0,7.455,6.043,13.5,13.5,13.5c0.049,0,0.097-0.007,0.146-0.008L0.006,13.354z"/>
</svg>
