<?xml version="1.0" encoding="utf-8"?>
<!-- Generator: Adobe Illustrator 19.2.0, SVG Export Plug-In . SVG Version: 6.00 Build 0)  -->
<svg version="1.1" id="Layer_1" xmlns="http://www.w3.org/2000/svg" xmlns:xlink="http://www.w3.org/1999/xlink" x="0px" y="0px"
	 viewBox="0 0 1190.55 841.89" enable-background="new 0 0 1190.55 841.89" xml:space="preserve">
<g>
	<rect fill="#ffffff" x="669.496" y="167.722" width="14.174" height="85.524"/>
	<path fill="#ffffff" d="M826.492,681.255c-43.647,0-79.157-35.519-79.157-79.177c0-43.647,35.51-79.157,79.157-79.157
		c43.658,0,79.177,35.51,79.177,79.157C905.669,645.736,870.15,681.255,826.492,681.255z M826.492,537.095
		c-35.832,0-64.983,29.151-64.983,64.983c0,35.843,29.151,65.003,64.983,65.003c35.843,0,65.003-29.16,65.003-65.003
		C891.495,566.246,862.335,537.095,826.492,537.095z"/>
	<path fill="#ffffff" d="M364.059,681.255c-43.658,0-79.178-35.519-79.178-79.177c0-43.647,35.52-79.157,79.178-79.157
		c43.646,0,79.156,35.51,79.156,79.157C443.215,645.736,407.705,681.255,364.059,681.255z M364.059,537.095
		c-35.844,0-65.004,29.151-65.004,64.983c0,35.843,29.16,65.003,65.004,65.003c35.832,0,64.982-29.16,64.982-65.003
		C429.041,566.246,399.891,537.095,364.059,537.095z"/>
	<path fill="#ffffff" d="M617.303,610.411c-23.888,0-47.388-6.183-63.531-16.482c-15.548-9.921-22.945-22.954-20.828-36.7
		c1.369-8.893,3.998-19.217,6.782-30.146c8.993-35.307,20.186-79.247-5.41-100.302c-22.589-18.572-127.112-35.39-174.755-28.118
		c-23.445,3.582-40.895,13.621-49.131,28.269c-7.57,13.463-7.292,30.172,0.828,49.662l-13.084,5.451
		c-9.743-23.389-9.776-44.849-0.098-62.061c10.419-18.53,31.495-31.078,59.345-35.333c24.056-3.672,62.01-2.045,101.525,4.352
		c19.371,3.136,66.37,12.029,84.372,26.83c32.549,26.775,20.125,75.553,10.143,114.747c-2.697,10.589-5.245,20.59-6.51,28.806
		c-1.551,10.068,6.999,17.844,14.443,22.594c26.233,16.738,77.019,21.019,107.951,0.404c20.165-13.446,32.155-50.033,32.894-100.378
		c0.713-48.586-9.236-102.61-26.614-144.515l-5.129-12.367l13.11,2.713c51.127,10.578,83.363,38.072,101.403,59.273
		c21.243,24.965,35.036,55.279,37.843,83.168l-14.102,1.42c-2.488-24.726-15.398-52.914-34.535-75.404
		c-15.027-17.661-40.781-40.07-80.528-51.401c14.988,41.449,23.393,91.719,22.724,137.321
		c-0.819,55.89-14.742,95.652-39.204,111.963C660.232,605.489,638.613,610.411,617.303,610.411z"/>
</g>
</svg>
