<?xml version="1.0" encoding="utf-8"?>
<!-- Generator: Adobe Illustrator 19.2.0, SVG Export Plug-In . SVG Version: 6.00 Build 0)  -->
<svg version="1.1" id="Layer_1" xmlns="http://www.w3.org/2000/svg" xmlns:xlink="http://www.w3.org/1999/xlink" x="0px" y="0px"
	 viewBox="0 0 1190.55 841.89" enable-background="new 0 0 1190.55 841.89" xml:space="preserve">
<path fill="#ffffff" d="M592.252,736.464l-63.412-95.132C408.531,611.007,324.746,503.6,324.746,379.164c0-149.085,121.311-270.375,270.423-270.375
	c149.08,0,270.366,121.305,270.366,270.41c0,125.845-88.531,236.315-210.932,263.793L592.252,736.464z M595.168,122.961
	c-141.296,0-256.25,114.932-256.25,256.203c0,118.799,80.58,221.215,195.955,249.059l2.696,0.65l54.687,82.044l53.742-80.567
	l2.818-0.601C766.179,604.735,851.36,499.364,851.36,379.198C851.36,237.909,736.434,122.961,595.168,122.961z"/>
<g>
	<polygon fill="#ffffff" points="600.538,326.49 554.579,394.133 608.938,394.133 572.609,447.606 589.744,447.606 635.702,379.96 581.344,379.96 
		617.672,326.49 	"/>
	<path fill="#ffffff" d="M613.974,512.054h-37.667c-49.341,0-89.483-40.143-89.483-89.484v-49.143h14.173v49.143
		c0,41.526,33.784,75.311,75.311,75.311h37.667c41.526,0,75.31-33.783,75.31-75.31v-49.144h14.174v49.144
		C703.457,471.911,663.314,512.054,613.974,512.054z"/>
	<path fill="#ffffff" d="M703.457,378.135h-14.174v-93.873c0-1.263-1.066-2.33-2.33-2.33H503.326c-1.263,0-2.33,1.067-2.33,2.33v93.873h-14.173
		v-93.873c0-9.1,7.403-16.503,16.503-16.503h183.627c9.101,0,16.504,7.403,16.504,16.503V378.135z"/>
	<rect fill="#ffffff" x="588.053" y="510.111" width="14.173" height="77.452"/>
	<g>
		<rect fill="#ffffff" x="535.202" y="227" width="14.173" height="47.845"/>
		<rect fill="#ffffff" x="640.903" y="227" width="14.174" height="47.845"/>
	</g>
</g>
</svg>
